<svg width="50" height="48" viewBox="0 0 50 48" fill="none" xmlns="http://www.w3.org/2000/svg">
<g clip-path="url(#clip0_2481_462)">
<mask id="path-1-outside-1_2481_462" maskUnits="userSpaceOnUse" x="-1" y="8.35815" width="52" height="40" fill="black">
<rect fill="white" x="-1" y="8.35815" width="52" height="40"/>
<path d="M41.4043 9.42526C42.9871 9.56244 44.5347 10.1031 45.7828 10.9578C46.0342 11.1298 46.4834 11.279 46.7132 11.4484C48.3266 12.6369 50.0459 15.6322 49.9613 17.6615C49.8858 19.4733 49.3983 20.3319 47.7877 21.1033C45.9164 22 44.4201 21.653 42.4578 21.2882L40.5369 20.6608L40.9241 22.8556C41.4046 22.795 41.8919 22.7004 42.3788 22.7236C42.8138 22.7446 43.5369 22.9541 43.9122 23.1265C45.3033 23.7662 46.153 25.85 46.0194 27.3387C45.9945 27.6163 45.981 27.511 45.9984 27.807C46.0445 28.5894 45.3065 30.2614 44.8244 30.9208C44.425 31.4673 42.816 33.017 42.1784 33.116C41.9861 33.1461 41.766 33.1051 41.5688 33.1202C41.403 32.2855 41.6614 32.4531 42.1458 32.1151C42.8893 31.5967 43.8306 30.6336 44.2394 29.8195C45.0168 28.2718 45.1362 26.3397 44.1097 24.8985C44.0519 24.8172 44.061 24.7139 43.9629 24.6241C43.9016 24.568 43.3607 24.24 43.2826 24.2078C42.5204 23.8921 41.836 23.955 41.0522 24.1471C41.1732 24.3517 41.0086 24.5331 41.0067 24.6387C40.9415 27.8529 40.8754 30.5858 40.0025 33.7158C37.7392 41.8329 30.7862 49.536 21.7589 47.7362C21.0793 47.6006 20.4191 47.4905 19.765 47.2456L19.7544 47.0645L19.6582 47.1952C19.4891 47.2688 19.4178 46.9657 19.3194 46.9389C19.2342 46.9157 19.119 46.9512 19.029 46.9199C18.7018 46.8063 18.1193 46.6713 18.0761 46.2895C17.7411 46.4761 17.8595 46.3395 17.6482 46.234C15.7785 45.3005 13.8146 43.4487 12.5916 41.8029C12.501 41.6809 12.217 41.4366 12.1702 41.3162C12.1299 41.2119 12.2235 41.1057 12.1999 41.0696C12.1773 41.0354 11.7443 40.7687 11.5955 40.5399C10.9001 39.4702 10.3093 38.2611 9.78618 37.185C9.71099 37.0303 9.67163 36.5104 9.65226 36.4742C9.63 36.4316 9.43832 36.3709 9.39895 36.217C9.36927 36.1014 9.43768 36.0088 9.40444 35.8948C9.35345 35.7212 9.08369 35.4336 9.0043 35.1247C8.98043 35.0317 9.05787 34.9181 9.0327 34.8761C9.01915 34.8535 8.91589 34.85 8.84231 34.7093C8.70001 34.4368 8.74131 34.1189 8.69129 33.8268C7.73097 33.4346 6.83486 32.813 6.04298 32.1506C3.9113 30.367 2.79253 28.0204 3.30077 25.2158C3.31884 25.116 3.43952 25.0195 3.42629 24.9592L3.04036 24.729C3.15653 25.6686 2.07326 25.1464 1.67022 24.8539C1.49951 24.73 1.45595 24.5334 1.33268 24.403C0.937712 23.985 0.76701 23.8324 0.495305 23.3046C0.294915 22.915 0.0435398 22.0487 0.0238557 21.5946C0.0177246 21.4487 0.113886 21.1862 0.109691 21.1485C0.101624 21.0791 -0.0132536 21.0094 0.00126746 20.8932C0.00578511 20.856 0.152286 20.8373 0.209725 20.6989C0.27039 20.5523 0.161321 20.3735 0.212306 20.2876C0.229086 20.2596 0.33267 20.2483 0.356871 20.2082C0.481107 20.002 0.502727 19.7567 0.765396 19.6456C5.87454 17.6092 10.8656 15.4105 15.9767 13.376L21.2575 13.7692C21.7144 13.9896 21.7228 14.2695 21.6095 14.7375L18.0441 18.4665C16.6391 19.1476 15.2722 19.9348 14.0005 20.5187C13.9547 20.5397 13.835 20.4393 13.8179 20.4681L13.8172 20.663C13.592 20.5181 13.6394 20.6911 13.6042 20.705C13.4077 20.7821 13.3922 20.8225 13.2848 20.8732C12.9692 21.0213 12.5816 21.0242 12.398 21.3715L13.9569 21.4006C15.3516 20.766 16.8705 20.685 18.3681 20.5614C18.9773 20.511 20.6937 20.0972 21.0096 19.5614C21.0555 19.4836 21.0322 19.3948 21.0571 19.3135L21.24 19.3058L21.1752 19.1131C21.3485 19.0475 21.6879 19.259 21.7828 19.247C21.8273 19.2415 21.9509 18.8187 22.1242 19.1783L22.7483 19.115C22.8351 18.7974 23.303 18.7477 23.6025 18.5705C23.6341 18.5518 23.6544 18.4794 23.707 18.4462C24.1417 18.1712 24.515 17.9388 24.8538 17.5256L25.0152 17.6264C25.1836 17.5386 25.0462 17.4001 25.0826 17.301C25.1191 17.2019 25.4534 17.0521 25.4986 16.8811L25.7567 16.9818C25.7632 16.8911 25.7712 16.7829 25.8187 16.7045C26.1249 16.199 26.8181 15.8947 27.2237 15.5444C27.3569 15.4295 27.2808 15.0677 27.7238 15.3689C27.9297 15.2443 27.669 15.0461 27.8503 14.9147C28.425 14.5355 28.9856 14.1168 29.466 13.6201C29.762 13.5988 29.7891 13.3538 30.1124 13.1682C30.2418 13.0939 30.4819 12.9461 30.6577 12.8138C30.8239 12.6888 30.9872 12.5346 31.1463 12.3987L31.307 12.5278C31.2544 12.1976 31.3557 12.3215 31.4729 12.2444C32.4161 11.6221 33.227 11.3364 34.2586 10.9281C34.5623 10.808 34.7214 10.5559 35.1418 10.6463L35.2415 10.4262C35.4723 10.4827 35.4151 10.3755 35.4903 10.3407C36.5081 9.86908 38.2322 9.42688 39.341 9.36168C39.4352 9.35619 39.5362 9.35554 39.6291 9.37136L39.6333 9.55792C39.8176 9.62086 39.8186 9.46948 39.8492 9.4556C40.119 9.33489 41.0806 9.39783 41.4046 9.42591L41.4043 9.42526ZM28.3605 16.7449C27.053 17.8297 25.6906 19.2422 24.2001 20.0394C23.6647 20.3257 23.0994 20.5852 22.5305 20.7905C22.5505 20.9406 22.8032 20.8719 22.9035 20.9006C23.6399 21.1117 24.254 21.4635 24.6251 22.1488C24.6418 22.1794 24.8864 22.7411 24.8974 22.7788C24.9529 22.9738 24.9684 23.231 24.9829 23.436C25.2953 23.333 25.5767 23.1168 25.9184 23.1084C26.2788 23.0993 26.5635 23.2514 26.8532 23.4363C26.9194 23.0851 26.9449 22.6917 27.1033 22.3657C27.9878 20.5459 31.487 20.745 33.2112 20.7934C33.5855 20.8041 33.985 20.756 34.3754 20.7863C36.219 20.929 37.7062 21.7059 37.8256 23.7594L39.8641 23.0512C39.6982 21.5752 39.4191 19.9342 38.6524 18.6389C37.935 17.4269 35.7465 15.4341 34.5268 14.6962C34.0947 14.4347 32.8472 14.1284 33.3509 13.4926C33.8175 13.4303 34.2402 13.6039 34.6552 13.7927C36.5533 14.6568 38.5123 16.5961 39.7498 18.3155C40.5211 19.3871 40.2987 19.4914 41.6986 19.9813C42.9122 20.4058 45.4743 20.9351 46.6796 20.5772C47.5686 20.3131 48.6545 19.6728 48.9078 18.739C49.8035 15.4389 47.0133 12.431 44.1481 11.269C41.5379 10.2103 38.7656 10.5947 36.2316 11.676C34.3325 12.4861 32.7355 13.3031 31.0734 14.5542C30.1401 15.2569 29.2502 16.0054 28.3592 16.7449H28.3605ZM17.3649 17.3381L18.3397 16.3039C18.1 15.9644 17.7111 15.5067 17.6956 15.0703C17.6911 14.9399 17.8073 14.763 17.7276 14.6529L16.501 14.5367C16.0815 15.1161 16.299 16.2329 16.673 16.8046C16.7388 16.9053 16.835 16.9379 16.9073 17.0228C16.9696 17.096 17.0047 17.2335 17.0635 17.2845C17.1432 17.3536 17.2671 17.3917 17.3652 17.3388L17.3649 17.3381ZM13.3335 15.8185C13.0528 16.2923 13.8046 16.1513 13.8153 16.3023C13.4003 17.129 13.36 16.2994 13.1341 16.1487C12.9937 16.0551 12.7523 16.0273 12.592 16.078L12.721 16.5938L12.408 16.5848C12.2602 16.4941 12.4806 16.1361 12.3025 16.2074C12.1792 16.2568 11.8746 16.4495 11.7359 16.5318C11.6242 16.598 11.6655 16.7607 11.3341 16.5944L11.2473 16.6884L11.2957 16.9375C11.0727 17.2268 10.9479 17.0644 10.7526 16.8627C10.5219 17.035 10.2567 17.1157 10.0085 17.2581C9.97205 17.279 9.90041 17.2416 9.89138 17.2526C9.84491 17.3097 9.84975 17.5311 9.68841 17.597C9.63032 17.6209 9.36152 17.4501 9.17113 17.5282C8.98075 17.6063 9.42832 17.7467 9.42832 17.8526C9.2147 18.1302 8.88007 18.0708 8.88136 17.6928C8.50026 17.922 7.78809 18.0698 7.81552 18.5953C7.62352 18.6434 7.50638 18.401 7.3431 18.4159C7.06946 18.4404 6.68449 18.8477 6.39665 18.6599L6.33469 18.9539L5.75063 19.0482C6.26338 19.5514 5.58347 19.8396 5.52378 19.1757C5.22432 19.1896 5.09589 19.42 4.90712 19.5269C4.8045 19.585 4.63186 19.5746 4.56281 19.6211C4.46858 19.6844 4.48246 20.531 3.97616 19.7596L3.74737 19.9226C3.67799 20.1517 4.17655 20.1653 3.94873 20.441L3.83321 20.5229L3.55601 20.4668L3.68509 20.0162C3.1917 19.982 3.07069 20.6082 2.52889 20.4729C2.51663 21.5248 2.08197 20.7289 2.03034 20.7205C1.82543 20.6872 1.78864 20.8583 1.69861 20.9148C1.62988 20.9577 1.49693 20.9467 1.42271 21.0152C1.3656 21.0675 1.35624 21.3938 1.37592 21.4535C1.40916 21.5539 1.53856 21.6097 1.55018 21.6707C1.56405 21.7434 1.43885 21.8118 1.43885 21.9086C1.43949 22.1168 1.70507 22.7414 1.82349 22.946C1.86544 23.0186 1.97096 23.0361 2.00936 23.0961C2.07261 23.1955 2.0781 23.3927 2.12908 23.4628C2.18007 23.5328 2.34141 23.4876 2.43306 23.559C2.55406 23.6535 2.49372 23.9102 2.65313 23.9879L3.03294 24.0254C2.95872 24.3685 3.25527 24.5021 3.55569 24.5344C3.46308 24.006 3.64927 24.1393 3.84514 23.9521C4.00907 23.7952 4.14041 23.2349 4.39469 23.0813L4.39533 22.986C4.2185 23.0009 4.12266 22.9108 4.08135 22.744C4.16041 22.2495 4.45051 22.5522 4.55603 22.856L4.84613 22.5648C4.90098 22.4231 4.63089 22.4848 4.5528 22.3411C4.43922 22.1326 4.98133 21.8628 5.07201 22.2737C5.55282 21.9567 5.93004 21.5603 6.51669 21.428L6.53283 21.122C6.7671 20.9984 6.90005 21.0949 7.01267 21.3115C7.15271 21.111 7.98041 21.0278 8.00978 20.9839C8.02397 20.9626 7.82132 20.6269 8.11562 20.5452L8.32311 20.6065L8.33182 20.9845L8.90588 20.9771C8.95719 20.3664 9.58321 20.5249 9.23567 21.0481L9.6584 21.1649C9.88525 21.0265 9.94139 20.5833 10.1728 20.5333C10.3296 20.4994 10.2544 20.655 10.2683 20.726C10.3586 20.8089 11.2735 20.2602 11.4338 20.1814C11.541 20.1288 11.6829 20.1618 11.7911 20.0849C11.9566 19.9674 11.7268 19.8193 11.9259 19.7028C12.0841 19.6105 12.2431 19.6453 12.2996 19.8215C12.4906 19.6498 12.8879 19.6124 13.0776 19.502C13.3532 19.3413 13.4374 19.0201 13.8821 19.1111L13.7527 18.7248L14.1051 18.7202L14.1402 18.9181C14.1606 18.9391 14.6381 18.7993 14.7024 18.7693C14.8366 18.7067 15.3655 18.2335 15.409 18.2186C15.5446 18.1718 15.7863 18.227 15.947 18.1428C15.6898 17.9314 15.8437 17.7739 15.7527 17.4982C15.5685 17.4433 15.6766 17.6451 15.5342 17.6228C15.2696 17.5815 15.2074 17.2277 15.561 17.2061L15.2022 16.0825C14.722 16.272 14.5794 15.6603 15.1732 15.7546V15.1087L14.7453 15.17C14.623 15.2546 14.7704 15.8795 14.3726 15.6171C14.3019 15.5706 14.2806 15.4621 14.2577 15.4479C14.1928 15.4079 13.3761 15.7462 13.3335 15.8185ZM20.5476 21.9696C19.9835 22.3592 19.2497 22.8589 18.5278 23.0864C18.4359 23.1155 18.3355 23.0616 18.2687 23.0874C17.6008 23.3453 17.0828 23.6213 16.2332 23.506C16.1393 23.4934 16.0728 23.2778 15.8224 23.3676C15.6517 22.4893 16.2 22.4015 16.8983 22.2243C16.9828 22.203 17.2948 22.2382 17.4326 22.1685C17.6608 22.0532 17.895 21.6682 18.27 21.887L18.1638 21.6388C16.915 21.7495 14.5936 21.6452 14.3377 23.2788C14.1609 24.4069 14.4855 26.2293 14.5833 27.4145C14.6285 27.9626 14.5504 28.4016 14.703 28.9739C15.106 30.4854 15.9838 30.489 17.3307 30.5374C18.9409 30.5952 21.2568 30.6801 22.8232 30.54C23.5741 30.4728 23.849 30.0368 23.9403 29.3347C24.0629 28.3932 23.9932 26.8687 24.0139 25.8568C24.0374 24.7123 24.3563 22.5041 23.0161 22.0142C22.7354 21.9115 21.6166 21.6711 21.3378 21.6604C21.2084 21.6556 20.9332 21.7256 20.8099 21.7818C20.7947 21.7889 20.6031 21.9315 20.5472 21.9699L20.5476 21.9696ZM31.3086 23.2678C32.44 23.567 34.2867 24.9124 34.8824 25.8939C34.9472 26.0008 35.0728 26.451 35.056 26.5624C34.8462 26.5869 34.7236 26.8332 34.5636 26.859C33.8695 26.9714 33.4409 25.6948 32.7923 25.5027C32.7278 25.7274 32.8214 25.952 32.7894 26.1764C32.7488 26.461 32.4742 27.0007 32.277 27.2144C31.8759 27.6495 31.4638 27.6763 30.9069 27.5662C30.8171 27.3787 30.6132 27.3577 30.5019 27.2431C30.2034 26.9362 29.9469 26.2993 29.8697 25.8759C29.7761 25.3626 29.9588 24.7507 30.1456 24.2762C30.105 24.2371 29.4728 24.2236 29.3212 24.1671C29.2899 24.1555 28.8336 23.7633 28.8129 23.7371C28.7742 23.6878 28.6493 23.4002 28.6561 23.3466C28.8904 23.2007 29.0165 23.1568 28.9191 22.856L28.6622 22.9851C28.7116 22.6888 28.5028 22.6268 28.3063 22.4761C27.8962 22.8343 27.9262 23.5344 27.951 24.0502C28.0043 25.1658 28.3337 26.4836 28.5199 27.6192C28.6145 28.195 28.6422 28.9167 28.7826 29.4809C28.9675 30.2246 29.3573 30.4063 30.1108 30.4761C31.9324 30.6449 34.0095 30.3431 35.8588 30.4748C36.7672 30.2737 36.8337 29.6252 36.9221 28.827C37.0728 27.4636 37.1712 24.3904 36.6452 23.1655C36.4642 22.7436 35.9905 22.1265 35.4758 22.1497C35.3067 22.1575 34.883 22.3886 34.6743 22.447C33.6988 22.7201 32.6975 22.7811 31.7352 22.9396C31.4425 22.9877 31.1076 23.1416 30.792 23.1148C30.8904 23.3598 31.1647 23.2301 31.3092 23.2685L31.3086 23.2678ZM5.5512 23.4599C4.72092 24.362 4.26722 25.4001 4.32434 26.6964C4.41824 28.828 5.83582 30.4154 7.56317 31.5325C7.6603 31.5954 7.86747 31.5971 7.96428 31.6958C8.0301 31.763 8.01687 31.8927 8.0698 31.9282C8.15176 31.9831 8.32504 31.9421 8.45864 31.9928C8.7681 32.1103 9.30053 32.5925 9.55868 32.638C9.66259 32.6564 9.721 32.6186 9.81587 32.6028C9.9159 33.2716 10.1741 33.8894 10.3773 34.5279C10.5445 35.0533 10.6794 35.626 10.8869 36.1485C11.5816 37.8989 12.6446 39.5112 13.7727 41.0137C13.8653 41.137 13.8469 41.322 13.895 41.3675C15.3 42.7041 16.5281 44.0404 18.25 45.0513C18.5933 45.2527 19.7441 45.9093 20.0235 46.0174C20.058 46.0306 20.3126 45.9893 20.5501 46.0962C21.3817 46.4699 22.2559 46.5787 23.2717 46.6775C28.749 47.2104 33.1554 44.2047 36.0857 39.8185C39.0686 35.3532 40.1354 30.285 40.0248 24.8888C40.0219 24.7449 39.9609 24.6122 39.9551 24.4695C39.3871 24.7061 38.4394 24.9637 38.1567 25.5431C37.9153 26.0379 37.9841 27.1331 37.9547 27.7296C37.9011 28.8054 38.0425 30.2201 37.0054 30.9276C36.0718 31.5645 33.5013 31.5112 32.306 31.5015C31.3712 31.4941 29.5683 31.5322 28.779 31.1626C28.5838 31.0713 28.4725 30.905 28.2747 30.8608L28.9226 34.5053C28.9265 34.85 28.5832 35.1831 28.2505 35.1812C27.6532 35.1773 26.6935 34.8361 26.0933 34.688C25.5654 34.5579 24.7564 34.4604 24.2911 34.2312C23.9626 34.0692 23.8793 33.2126 24.4334 33.1793C24.7367 33.1612 25.7793 33.4995 26.1449 33.6034C26.5873 33.729 27.5034 34.1686 27.9187 34.0886C27.9923 34.0744 28.0498 34.0656 28.0723 33.9824L26.2595 24.2245C25.7696 24.0383 25.2649 24.4372 25.1149 24.8927C24.9042 25.5321 25.0039 26.9614 24.9839 27.6692C24.9652 28.3331 24.9978 29.1068 24.9158 29.7227C24.9077 29.7831 24.6457 30.6184 24.6228 30.662C24.2488 31.3782 23.131 31.516 22.4221 31.5451C20.7128 31.6151 18.2526 31.6339 16.5727 31.4996C15.2619 31.3947 13.997 31.0106 13.59 29.6356C13.2086 28.3467 13.4968 25.5566 12.7862 24.6477C11.359 22.8221 8.31117 21.2369 6.16044 22.8147C5.95424 22.966 5.70997 23.2872 5.5512 23.4599ZM13.1079 22.7921L12.8185 22.7262C12.6943 22.7488 12.7427 22.8088 12.7869 22.8863C12.8117 22.9296 12.9053 23.1045 12.915 23.1132C13.0528 23.2333 13.096 22.8466 13.1076 22.7921H13.1079Z"/>
</mask>
<path d="M41.4043 9.42526C42.9871 9.56244 44.5347 10.1031 45.7828 10.9578C46.0342 11.1298 46.4834 11.279 46.7132 11.4484C48.3266 12.6369 50.0459 15.6322 49.9613 17.6615C49.8858 19.4733 49.3983 20.3319 47.7877 21.1033C45.9164 22 44.4201 21.653 42.4578 21.2882L40.5369 20.6608L40.9241 22.8556C41.4046 22.795 41.8919 22.7004 42.3788 22.7236C42.8138 22.7446 43.5369 22.9541 43.9122 23.1265C45.3033 23.7662 46.153 25.85 46.0194 27.3387C45.9945 27.6163 45.981 27.511 45.9984 27.807C46.0445 28.5894 45.3065 30.2614 44.8244 30.9208C44.425 31.4673 42.816 33.017 42.1784 33.116C41.9861 33.1461 41.766 33.1051 41.5688 33.1202C41.403 32.2855 41.6614 32.4531 42.1458 32.1151C42.8893 31.5967 43.8306 30.6336 44.2394 29.8195C45.0168 28.2718 45.1362 26.3397 44.1097 24.8985C44.0519 24.8172 44.061 24.7139 43.9629 24.6241C43.9016 24.568 43.3607 24.24 43.2826 24.2078C42.5204 23.8921 41.836 23.955 41.0522 24.1471C41.1732 24.3517 41.0086 24.5331 41.0067 24.6387C40.9415 27.8529 40.8754 30.5858 40.0025 33.7158C37.7392 41.8329 30.7862 49.536 21.7589 47.7362C21.0793 47.6006 20.4191 47.4905 19.765 47.2456L19.7544 47.0645L19.6582 47.1952C19.4891 47.2688 19.4178 46.9657 19.3194 46.9389C19.2342 46.9157 19.119 46.9512 19.029 46.9199C18.7018 46.8063 18.1193 46.6713 18.0761 46.2895C17.7411 46.4761 17.8595 46.3395 17.6482 46.234C15.7785 45.3005 13.8146 43.4487 12.5916 41.8029C12.501 41.6809 12.217 41.4366 12.1702 41.3162C12.1299 41.2119 12.2235 41.1057 12.1999 41.0696C12.1773 41.0354 11.7443 40.7687 11.5955 40.5399C10.9001 39.4702 10.3093 38.2611 9.78618 37.185C9.71099 37.0303 9.67163 36.5104 9.65226 36.4742C9.63 36.4316 9.43832 36.3709 9.39895 36.217C9.36927 36.1014 9.43768 36.0088 9.40444 35.8948C9.35345 35.7212 9.08369 35.4336 9.0043 35.1247C8.98043 35.0317 9.05787 34.9181 9.0327 34.8761C9.01915 34.8535 8.91589 34.85 8.84231 34.7093C8.70001 34.4368 8.74131 34.1189 8.69129 33.8268C7.73097 33.4346 6.83486 32.813 6.04298 32.1506C3.9113 30.367 2.79253 28.0204 3.30077 25.2158C3.31884 25.116 3.43952 25.0195 3.42629 24.9592L3.04036 24.729C3.15653 25.6686 2.07326 25.1464 1.67022 24.8539C1.49951 24.73 1.45595 24.5334 1.33268 24.403C0.937712 23.985 0.76701 23.8324 0.495305 23.3046C0.294915 22.915 0.0435398 22.0487 0.0238557 21.5946C0.0177246 21.4487 0.113886 21.1862 0.109691 21.1485C0.101624 21.0791 -0.0132536 21.0094 0.00126746 20.8932C0.00578511 20.856 0.152286 20.8373 0.209725 20.6989C0.27039 20.5523 0.161321 20.3735 0.212306 20.2876C0.229086 20.2596 0.33267 20.2483 0.356871 20.2082C0.481107 20.002 0.502727 19.7567 0.765396 19.6456C5.87454 17.6092 10.8656 15.4105 15.9767 13.376L21.2575 13.7692C21.7144 13.9896 21.7228 14.2695 21.6095 14.7375L18.0441 18.4665C16.6391 19.1476 15.2722 19.9348 14.0005 20.5187C13.9547 20.5397 13.835 20.4393 13.8179 20.4681L13.8172 20.663C13.592 20.5181 13.6394 20.6911 13.6042 20.705C13.4077 20.7821 13.3922 20.8225 13.2848 20.8732C12.9692 21.0213 12.5816 21.0242 12.398 21.3715L13.9569 21.4006C15.3516 20.766 16.8705 20.685 18.3681 20.5614C18.9773 20.511 20.6937 20.0972 21.0096 19.5614C21.0555 19.4836 21.0322 19.3948 21.0571 19.3135L21.24 19.3058L21.1752 19.1131C21.3485 19.0475 21.6879 19.259 21.7828 19.247C21.8273 19.2415 21.9509 18.8187 22.1242 19.1783L22.7483 19.115C22.8351 18.7974 23.303 18.7477 23.6025 18.5705C23.6341 18.5518 23.6544 18.4794 23.707 18.4462C24.1417 18.1712 24.515 17.9388 24.8538 17.5256L25.0152 17.6264C25.1836 17.5386 25.0462 17.4001 25.0826 17.301C25.1191 17.2019 25.4534 17.0521 25.4986 16.8811L25.7567 16.9818C25.7632 16.8911 25.7712 16.7829 25.8187 16.7045C26.1249 16.199 26.8181 15.8947 27.2237 15.5444C27.3569 15.4295 27.2808 15.0677 27.7238 15.3689C27.9297 15.2443 27.669 15.0461 27.8503 14.9147C28.425 14.5355 28.9856 14.1168 29.466 13.6201C29.762 13.5988 29.7891 13.3538 30.1124 13.1682C30.2418 13.0939 30.4819 12.9461 30.6577 12.8138C30.8239 12.6888 30.9872 12.5346 31.1463 12.3987L31.307 12.5278C31.2544 12.1976 31.3557 12.3215 31.4729 12.2444C32.4161 11.6221 33.227 11.3364 34.2586 10.9281C34.5623 10.808 34.7214 10.5559 35.1418 10.6463L35.2415 10.4262C35.4723 10.4827 35.4151 10.3755 35.4903 10.3407C36.5081 9.86908 38.2322 9.42688 39.341 9.36168C39.4352 9.35619 39.5362 9.35554 39.6291 9.37136L39.6333 9.55792C39.8176 9.62086 39.8186 9.46948 39.8492 9.4556C40.119 9.33489 41.0806 9.39783 41.4046 9.42591L41.4043 9.42526ZM28.3605 16.7449C27.053 17.8297 25.6906 19.2422 24.2001 20.0394C23.6647 20.3257 23.0994 20.5852 22.5305 20.7905C22.5505 20.9406 22.8032 20.8719 22.9035 20.9006C23.6399 21.1117 24.254 21.4635 24.6251 22.1488C24.6418 22.1794 24.8864 22.7411 24.8974 22.7788C24.9529 22.9738 24.9684 23.231 24.9829 23.436C25.2953 23.333 25.5767 23.1168 25.9184 23.1084C26.2788 23.0993 26.5635 23.2514 26.8532 23.4363C26.9194 23.0851 26.9449 22.6917 27.1033 22.3657C27.9878 20.5459 31.487 20.745 33.2112 20.7934C33.5855 20.8041 33.985 20.756 34.3754 20.7863C36.219 20.929 37.7062 21.7059 37.8256 23.7594L39.8641 23.0512C39.6982 21.5752 39.4191 19.9342 38.6524 18.6389C37.935 17.4269 35.7465 15.4341 34.5268 14.6962C34.0947 14.4347 32.8472 14.1284 33.3509 13.4926C33.8175 13.4303 34.2402 13.6039 34.6552 13.7927C36.5533 14.6568 38.5123 16.5961 39.7498 18.3155C40.5211 19.3871 40.2987 19.4914 41.6986 19.9813C42.9122 20.4058 45.4743 20.9351 46.6796 20.5772C47.5686 20.3131 48.6545 19.6728 48.9078 18.739C49.8035 15.4389 47.0133 12.431 44.1481 11.269C41.5379 10.2103 38.7656 10.5947 36.2316 11.676C34.3325 12.4861 32.7355 13.3031 31.0734 14.5542C30.1401 15.2569 29.2502 16.0054 28.3592 16.7449H28.3605ZM17.3649 17.3381L18.3397 16.3039C18.1 15.9644 17.7111 15.5067 17.6956 15.0703C17.6911 14.9399 17.8073 14.763 17.7276 14.6529L16.501 14.5367C16.0815 15.1161 16.299 16.2329 16.673 16.8046C16.7388 16.9053 16.835 16.9379 16.9073 17.0228C16.9696 17.096 17.0047 17.2335 17.0635 17.2845C17.1432 17.3536 17.2671 17.3917 17.3652 17.3388L17.3649 17.3381ZM13.3335 15.8185C13.0528 16.2923 13.8046 16.1513 13.8153 16.3023C13.4003 17.129 13.36 16.2994 13.1341 16.1487C12.9937 16.0551 12.7523 16.0273 12.592 16.078L12.721 16.5938L12.408 16.5848C12.2602 16.4941 12.4806 16.1361 12.3025 16.2074C12.1792 16.2568 11.8746 16.4495 11.7359 16.5318C11.6242 16.598 11.6655 16.7607 11.3341 16.5944L11.2473 16.6884L11.2957 16.9375C11.0727 17.2268 10.9479 17.0644 10.7526 16.8627C10.5219 17.035 10.2567 17.1157 10.0085 17.2581C9.97205 17.279 9.90041 17.2416 9.89138 17.2526C9.84491 17.3097 9.84975 17.5311 9.68841 17.597C9.63032 17.6209 9.36152 17.4501 9.17113 17.5282C8.98075 17.6063 9.42832 17.7467 9.42832 17.8526C9.2147 18.1302 8.88007 18.0708 8.88136 17.6928C8.50026 17.922 7.78809 18.0698 7.81552 18.5953C7.62352 18.6434 7.50638 18.401 7.3431 18.4159C7.06946 18.4404 6.68449 18.8477 6.39665 18.6599L6.33469 18.9539L5.75063 19.0482C6.26338 19.5514 5.58347 19.8396 5.52378 19.1757C5.22432 19.1896 5.09589 19.42 4.90712 19.5269C4.8045 19.585 4.63186 19.5746 4.56281 19.6211C4.46858 19.6844 4.48246 20.531 3.97616 19.7596L3.74737 19.9226C3.67799 20.1517 4.17655 20.1653 3.94873 20.441L3.83321 20.5229L3.55601 20.4668L3.68509 20.0162C3.1917 19.982 3.07069 20.6082 2.52889 20.4729C2.51663 21.5248 2.08197 20.7289 2.03034 20.7205C1.82543 20.6872 1.78864 20.8583 1.69861 20.9148C1.62988 20.9577 1.49693 20.9467 1.42271 21.0152C1.3656 21.0675 1.35624 21.3938 1.37592 21.4535C1.40916 21.5539 1.53856 21.6097 1.55018 21.6707C1.56405 21.7434 1.43885 21.8118 1.43885 21.9086C1.43949 22.1168 1.70507 22.7414 1.82349 22.946C1.86544 23.0186 1.97096 23.0361 2.00936 23.0961C2.07261 23.1955 2.0781 23.3927 2.12908 23.4628C2.18007 23.5328 2.34141 23.4876 2.43306 23.559C2.55406 23.6535 2.49372 23.9102 2.65313 23.9879L3.03294 24.0254C2.95872 24.3685 3.25527 24.5021 3.55569 24.5344C3.46308 24.006 3.64927 24.1393 3.84514 23.9521C4.00907 23.7952 4.14041 23.2349 4.39469 23.0813L4.39533 22.986C4.2185 23.0009 4.12266 22.9108 4.08135 22.744C4.16041 22.2495 4.45051 22.5522 4.55603 22.856L4.84613 22.5648C4.90098 22.4231 4.63089 22.4848 4.5528 22.3411C4.43922 22.1326 4.98133 21.8628 5.07201 22.2737C5.55282 21.9567 5.93004 21.5603 6.51669 21.428L6.53283 21.122C6.7671 20.9984 6.90005 21.0949 7.01267 21.3115C7.15271 21.111 7.98041 21.0278 8.00978 20.9839C8.02397 20.9626 7.82132 20.6269 8.11562 20.5452L8.32311 20.6065L8.33182 20.9845L8.90588 20.9771C8.95719 20.3664 9.58321 20.5249 9.23567 21.0481L9.6584 21.1649C9.88525 21.0265 9.94139 20.5833 10.1728 20.5333C10.3296 20.4994 10.2544 20.655 10.2683 20.726C10.3586 20.8089 11.2735 20.2602 11.4338 20.1814C11.541 20.1288 11.6829 20.1618 11.7911 20.0849C11.9566 19.9674 11.7268 19.8193 11.9259 19.7028C12.0841 19.6105 12.2431 19.6453 12.2996 19.8215C12.4906 19.6498 12.8879 19.6124 13.0776 19.502C13.3532 19.3413 13.4374 19.0201 13.8821 19.1111L13.7527 18.7248L14.1051 18.7202L14.1402 18.9181C14.1606 18.9391 14.6381 18.7993 14.7024 18.7693C14.8366 18.7067 15.3655 18.2335 15.409 18.2186C15.5446 18.1718 15.7863 18.227 15.947 18.1428C15.6898 17.9314 15.8437 17.7739 15.7527 17.4982C15.5685 17.4433 15.6766 17.6451 15.5342 17.6228C15.2696 17.5815 15.2074 17.2277 15.561 17.2061L15.2022 16.0825C14.722 16.272 14.5794 15.6603 15.1732 15.7546V15.1087L14.7453 15.17C14.623 15.2546 14.7704 15.8795 14.3726 15.6171C14.3019 15.5706 14.2806 15.4621 14.2577 15.4479C14.1928 15.4079 13.3761 15.7462 13.3335 15.8185ZM20.5476 21.9696C19.9835 22.3592 19.2497 22.8589 18.5278 23.0864C18.4359 23.1155 18.3355 23.0616 18.2687 23.0874C17.6008 23.3453 17.0828 23.6213 16.2332 23.506C16.1393 23.4934 16.0728 23.2778 15.8224 23.3676C15.6517 22.4893 16.2 22.4015 16.8983 22.2243C16.9828 22.203 17.2948 22.2382 17.4326 22.1685C17.6608 22.0532 17.895 21.6682 18.27 21.887L18.1638 21.6388C16.915 21.7495 14.5936 21.6452 14.3377 23.2788C14.1609 24.4069 14.4855 26.2293 14.5833 27.4145C14.6285 27.9626 14.5504 28.4016 14.703 28.9739C15.106 30.4854 15.9838 30.489 17.3307 30.5374C18.9409 30.5952 21.2568 30.6801 22.8232 30.54C23.5741 30.4728 23.849 30.0368 23.9403 29.3347C24.0629 28.3932 23.9932 26.8687 24.0139 25.8568C24.0374 24.7123 24.3563 22.5041 23.0161 22.0142C22.7354 21.9115 21.6166 21.6711 21.3378 21.6604C21.2084 21.6556 20.9332 21.7256 20.8099 21.7818C20.7947 21.7889 20.6031 21.9315 20.5472 21.9699L20.5476 21.9696ZM31.3086 23.2678C32.44 23.567 34.2867 24.9124 34.8824 25.8939C34.9472 26.0008 35.0728 26.451 35.056 26.5624C34.8462 26.5869 34.7236 26.8332 34.5636 26.859C33.8695 26.9714 33.4409 25.6948 32.7923 25.5027C32.7278 25.7274 32.8214 25.952 32.7894 26.1764C32.7488 26.461 32.4742 27.0007 32.277 27.2144C31.8759 27.6495 31.4638 27.6763 30.9069 27.5662C30.8171 27.3787 30.6132 27.3577 30.5019 27.2431C30.2034 26.9362 29.9469 26.2993 29.8697 25.8759C29.7761 25.3626 29.9588 24.7507 30.1456 24.2762C30.105 24.2371 29.4728 24.2236 29.3212 24.1671C29.2899 24.1555 28.8336 23.7633 28.8129 23.7371C28.7742 23.6878 28.6493 23.4002 28.6561 23.3466C28.8904 23.2007 29.0165 23.1568 28.9191 22.856L28.6622 22.9851C28.7116 22.6888 28.5028 22.6268 28.3063 22.4761C27.8962 22.8343 27.9262 23.5344 27.951 24.0502C28.0043 25.1658 28.3337 26.4836 28.5199 27.6192C28.6145 28.195 28.6422 28.9167 28.7826 29.4809C28.9675 30.2246 29.3573 30.4063 30.1108 30.4761C31.9324 30.6449 34.0095 30.3431 35.8588 30.4748C36.7672 30.2737 36.8337 29.6252 36.9221 28.827C37.0728 27.4636 37.1712 24.3904 36.6452 23.1655C36.4642 22.7436 35.9905 22.1265 35.4758 22.1497C35.3067 22.1575 34.883 22.3886 34.6743 22.447C33.6988 22.7201 32.6975 22.7811 31.7352 22.9396C31.4425 22.9877 31.1076 23.1416 30.792 23.1148C30.8904 23.3598 31.1647 23.2301 31.3092 23.2685L31.3086 23.2678ZM5.5512 23.4599C4.72092 24.362 4.26722 25.4001 4.32434 26.6964C4.41824 28.828 5.83582 30.4154 7.56317 31.5325C7.6603 31.5954 7.86747 31.5971 7.96428 31.6958C8.0301 31.763 8.01687 31.8927 8.0698 31.9282C8.15176 31.9831 8.32504 31.9421 8.45864 31.9928C8.7681 32.1103 9.30053 32.5925 9.55868 32.638C9.66259 32.6564 9.721 32.6186 9.81587 32.6028C9.9159 33.2716 10.1741 33.8894 10.3773 34.5279C10.5445 35.0533 10.6794 35.626 10.8869 36.1485C11.5816 37.8989 12.6446 39.5112 13.7727 41.0137C13.8653 41.137 13.8469 41.322 13.895 41.3675C15.3 42.7041 16.5281 44.0404 18.25 45.0513C18.5933 45.2527 19.7441 45.9093 20.0235 46.0174C20.058 46.0306 20.3126 45.9893 20.5501 46.0962C21.3817 46.4699 22.2559 46.5787 23.2717 46.6775C28.749 47.2104 33.1554 44.2047 36.0857 39.8185C39.0686 35.3532 40.1354 30.285 40.0248 24.8888C40.0219 24.7449 39.9609 24.6122 39.9551 24.4695C39.3871 24.7061 38.4394 24.9637 38.1567 25.5431C37.9153 26.0379 37.9841 27.1331 37.9547 27.7296C37.9011 28.8054 38.0425 30.2201 37.0054 30.9276C36.0718 31.5645 33.5013 31.5112 32.306 31.5015C31.3712 31.4941 29.5683 31.5322 28.779 31.1626C28.5838 31.0713 28.4725 30.905 28.2747 30.8608L28.9226 34.5053C28.9265 34.85 28.5832 35.1831 28.2505 35.1812C27.6532 35.1773 26.6935 34.8361 26.0933 34.688C25.5654 34.5579 24.7564 34.4604 24.2911 34.2312C23.9626 34.0692 23.8793 33.2126 24.4334 33.1793C24.7367 33.1612 25.7793 33.4995 26.1449 33.6034C26.5873 33.729 27.5034 34.1686 27.9187 34.0886C27.9923 34.0744 28.0498 34.0656 28.0723 33.9824L26.2595 24.2245C25.7696 24.0383 25.2649 24.4372 25.1149 24.8927C24.9042 25.5321 25.0039 26.9614 24.9839 27.6692C24.9652 28.3331 24.9978 29.1068 24.9158 29.7227C24.9077 29.7831 24.6457 30.6184 24.6228 30.662C24.2488 31.3782 23.131 31.516 22.4221 31.5451C20.7128 31.6151 18.2526 31.6339 16.5727 31.4996C15.2619 31.3947 13.997 31.0106 13.59 29.6356C13.2086 28.3467 13.4968 25.5566 12.7862 24.6477C11.359 22.8221 8.31117 21.2369 6.16044 22.8147C5.95424 22.966 5.70997 23.2872 5.5512 23.4599ZM13.1079 22.7921L12.8185 22.7262C12.6943 22.7488 12.7427 22.8088 12.7869 22.8863C12.8117 22.9296 12.9053 23.1045 12.915 23.1132C13.0528 23.2333 13.096 22.8466 13.1076 22.7921H13.1079Z" fill="#022720"/>
<path d="M41.4043 9.42526C42.9871 9.56244 44.5347 10.1031 45.7828 10.9578C46.0342 11.1298 46.4834 11.279 46.7132 11.4484C48.3266 12.6369 50.0459 15.6322 49.9613 17.6615C49.8858 19.4733 49.3983 20.3319 47.7877 21.1033C45.9164 22 44.4201 21.653 42.4578 21.2882L40.5369 20.6608L40.9241 22.8556C41.4046 22.795 41.8919 22.7004 42.3788 22.7236C42.8138 22.7446 43.5369 22.9541 43.9122 23.1265C45.3033 23.7662 46.153 25.85 46.0194 27.3387C45.9945 27.6163 45.981 27.511 45.9984 27.807C46.0445 28.5894 45.3065 30.2614 44.8244 30.9208C44.425 31.4673 42.816 33.017 42.1784 33.116C41.9861 33.1461 41.766 33.1051 41.5688 33.1202C41.403 32.2855 41.6614 32.4531 42.1458 32.1151C42.8893 31.5967 43.8306 30.6336 44.2394 29.8195C45.0168 28.2718 45.1362 26.3397 44.1097 24.8985C44.0519 24.8172 44.061 24.7139 43.9629 24.6241C43.9016 24.568 43.3607 24.24 43.2826 24.2078C42.5204 23.8921 41.836 23.955 41.0522 24.1471C41.1732 24.3517 41.0086 24.5331 41.0067 24.6387C40.9415 27.8529 40.8754 30.5858 40.0025 33.7158C37.7392 41.8329 30.7862 49.536 21.7589 47.7362C21.0793 47.6006 20.4191 47.4905 19.765 47.2456L19.7544 47.0645L19.6582 47.1952C19.4891 47.2688 19.4178 46.9657 19.3194 46.9389C19.2342 46.9157 19.119 46.9512 19.029 46.9199C18.7018 46.8063 18.1193 46.6713 18.0761 46.2895C17.7411 46.4761 17.8595 46.3395 17.6482 46.234C15.7785 45.3005 13.8146 43.4487 12.5916 41.8029C12.501 41.6809 12.217 41.4366 12.1702 41.3162C12.1299 41.2119 12.2235 41.1057 12.1999 41.0696C12.1773 41.0354 11.7443 40.7687 11.5955 40.5399C10.9001 39.4702 10.3093 38.2611 9.78618 37.185C9.71099 37.0303 9.67163 36.5104 9.65226 36.4742C9.63 36.4316 9.43832 36.3709 9.39895 36.217C9.36927 36.1014 9.43768 36.0088 9.40444 35.8948C9.35345 35.7212 9.08369 35.4336 9.0043 35.1247C8.98043 35.0317 9.05787 34.9181 9.0327 34.8761C9.01915 34.8535 8.91589 34.85 8.84231 34.7093C8.70001 34.4368 8.74131 34.1189 8.69129 33.8268C7.73097 33.4346 6.83486 32.813 6.04298 32.1506C3.9113 30.367 2.79253 28.0204 3.30077 25.2158C3.31884 25.116 3.43952 25.0195 3.42629 24.9592L3.04036 24.729C3.15653 25.6686 2.07326 25.1464 1.67022 24.8539C1.49951 24.73 1.45595 24.5334 1.33268 24.403C0.937712 23.985 0.76701 23.8324 0.495305 23.3046C0.294915 22.915 0.0435398 22.0487 0.0238557 21.5946C0.0177246 21.4487 0.113886 21.1862 0.109691 21.1485C0.101624 21.0791 -0.0132536 21.0094 0.00126746 20.8932C0.00578511 20.856 0.152286 20.8373 0.209725 20.6989C0.27039 20.5523 0.161321 20.3735 0.212306 20.2876C0.229086 20.2596 0.33267 20.2483 0.356871 20.2082C0.481107 20.002 0.502727 19.7567 0.765396 19.6456C5.87454 17.6092 10.8656 15.4105 15.9767 13.376L21.2575 13.7692C21.7144 13.9896 21.7228 14.2695 21.6095 14.7375L18.0441 18.4665C16.6391 19.1476 15.2722 19.9348 14.0005 20.5187C13.9547 20.5397 13.835 20.4393 13.8179 20.4681L13.8172 20.663C13.592 20.5181 13.6394 20.6911 13.6042 20.705C13.4077 20.7821 13.3922 20.8225 13.2848 20.8732C12.9692 21.0213 12.5816 21.0242 12.398 21.3715L13.9569 21.4006C15.3516 20.766 16.8705 20.685 18.3681 20.5614C18.9773 20.511 20.6937 20.0972 21.0096 19.5614C21.0555 19.4836 21.0322 19.3948 21.0571 19.3135L21.24 19.3058L21.1752 19.1131C21.3485 19.0475 21.6879 19.259 21.7828 19.247C21.8273 19.2415 21.9509 18.8187 22.1242 19.1783L22.7483 19.115C22.8351 18.7974 23.303 18.7477 23.6025 18.5705C23.6341 18.5518 23.6544 18.4794 23.707 18.4462C24.1417 18.1712 24.515 17.9388 24.8538 17.5256L25.0152 17.6264C25.1836 17.5386 25.0462 17.4001 25.0826 17.301C25.1191 17.2019 25.4534 17.0521 25.4986 16.8811L25.7567 16.9818C25.7632 16.8911 25.7712 16.7829 25.8187 16.7045C26.1249 16.199 26.8181 15.8947 27.2237 15.5444C27.3569 15.4295 27.2808 15.0677 27.7238 15.3689C27.9297 15.2443 27.669 15.0461 27.8503 14.9147C28.425 14.5355 28.9856 14.1168 29.466 13.6201C29.762 13.5988 29.7891 13.3538 30.1124 13.1682C30.2418 13.0939 30.4819 12.9461 30.6577 12.8138C30.8239 12.6888 30.9872 12.5346 31.1463 12.3987L31.307 12.5278C31.2544 12.1976 31.3557 12.3215 31.4729 12.2444C32.4161 11.6221 33.227 11.3364 34.2586 10.9281C34.5623 10.808 34.7214 10.5559 35.1418 10.6463L35.2415 10.4262C35.4723 10.4827 35.4151 10.3755 35.4903 10.3407C36.5081 9.86908 38.2322 9.42688 39.341 9.36168C39.4352 9.35619 39.5362 9.35554 39.6291 9.37136L39.6333 9.55792C39.8176 9.62086 39.8186 9.46948 39.8492 9.4556C40.119 9.33489 41.0806 9.39783 41.4046 9.42591L41.4043 9.42526ZM28.3605 16.7449C27.053 17.8297 25.6906 19.2422 24.2001 20.0394C23.6647 20.3257 23.0994 20.5852 22.5305 20.7905C22.5505 20.9406 22.8032 20.8719 22.9035 20.9006C23.6399 21.1117 24.254 21.4635 24.6251 22.1488C24.6418 22.1794 24.8864 22.7411 24.8974 22.7788C24.9529 22.9738 24.9684 23.231 24.9829 23.436C25.2953 23.333 25.5767 23.1168 25.9184 23.1084C26.2788 23.0993 26.5635 23.2514 26.8532 23.4363C26.9194 23.0851 26.9449 22.6917 27.1033 22.3657C27.9878 20.5459 31.487 20.745 33.2112 20.7934C33.5855 20.8041 33.985 20.756 34.3754 20.7863C36.219 20.929 37.7062 21.7059 37.8256 23.7594L39.8641 23.0512C39.6982 21.5752 39.4191 19.9342 38.6524 18.6389C37.935 17.4269 35.7465 15.4341 34.5268 14.6962C34.0947 14.4347 32.8472 14.1284 33.3509 13.4926C33.8175 13.4303 34.2402 13.6039 34.6552 13.7927C36.5533 14.6568 38.5123 16.5961 39.7498 18.3155C40.5211 19.3871 40.2987 19.4914 41.6986 19.9813C42.9122 20.4058 45.4743 20.9351 46.6796 20.5772C47.5686 20.3131 48.6545 19.6728 48.9078 18.739C49.8035 15.4389 47.0133 12.431 44.1481 11.269C41.5379 10.2103 38.7656 10.5947 36.2316 11.676C34.3325 12.4861 32.7355 13.3031 31.0734 14.5542C30.1401 15.2569 29.2502 16.0054 28.3592 16.7449H28.3605ZM17.3649 17.3381L18.3397 16.3039C18.1 15.9644 17.7111 15.5067 17.6956 15.0703C17.6911 14.9399 17.8073 14.763 17.7276 14.6529L16.501 14.5367C16.0815 15.1161 16.299 16.2329 16.673 16.8046C16.7388 16.9053 16.835 16.9379 16.9073 17.0228C16.9696 17.096 17.0047 17.2335 17.0635 17.2845C17.1432 17.3536 17.2671 17.3917 17.3652 17.3388L17.3649 17.3381ZM13.3335 15.8185C13.0528 16.2923 13.8046 16.1513 13.8153 16.3023C13.4003 17.129 13.36 16.2994 13.1341 16.1487C12.9937 16.0551 12.7523 16.0273 12.592 16.078L12.721 16.5938L12.408 16.5848C12.2602 16.4941 12.4806 16.1361 12.3025 16.2074C12.1792 16.2568 11.8746 16.4495 11.7359 16.5318C11.6242 16.598 11.6655 16.7607 11.3341 16.5944L11.2473 16.6884L11.2957 16.9375C11.0727 17.2268 10.9479 17.0644 10.7526 16.8627C10.5219 17.035 10.2567 17.1157 10.0085 17.2581C9.97205 17.279 9.90041 17.2416 9.89138 17.2526C9.84491 17.3097 9.84975 17.5311 9.68841 17.597C9.63032 17.6209 9.36152 17.4501 9.17113 17.5282C8.98075 17.6063 9.42832 17.7467 9.42832 17.8526C9.2147 18.1302 8.88007 18.0708 8.88136 17.6928C8.50026 17.922 7.78809 18.0698 7.81552 18.5953C7.62352 18.6434 7.50638 18.401 7.3431 18.4159C7.06946 18.4404 6.68449 18.8477 6.39665 18.6599L6.33469 18.9539L5.75063 19.0482C6.26338 19.5514 5.58347 19.8396 5.52378 19.1757C5.22432 19.1896 5.09589 19.42 4.90712 19.5269C4.8045 19.585 4.63186 19.5746 4.56281 19.6211C4.46858 19.6844 4.48246 20.531 3.97616 19.7596L3.74737 19.9226C3.67799 20.1517 4.17655 20.1653 3.94873 20.441L3.83321 20.5229L3.55601 20.4668L3.68509 20.0162C3.1917 19.982 3.07069 20.6082 2.52889 20.4729C2.51663 21.5248 2.08197 20.7289 2.03034 20.7205C1.82543 20.6872 1.78864 20.8583 1.69861 20.9148C1.62988 20.9577 1.49693 20.9467 1.42271 21.0152C1.3656 21.0675 1.35624 21.3938 1.37592 21.4535C1.40916 21.5539 1.53856 21.6097 1.55018 21.6707C1.56405 21.7434 1.43885 21.8118 1.43885 21.9086C1.43949 22.1168 1.70507 22.7414 1.82349 22.946C1.86544 23.0186 1.97096 23.0361 2.00936 23.0961C2.07261 23.1955 2.0781 23.3927 2.12908 23.4628C2.18007 23.5328 2.34141 23.4876 2.43306 23.559C2.55406 23.6535 2.49372 23.9102 2.65313 23.9879L3.03294 24.0254C2.95872 24.3685 3.25527 24.5021 3.55569 24.5344C3.46308 24.006 3.64927 24.1393 3.84514 23.9521C4.00907 23.7952 4.14041 23.2349 4.39469 23.0813L4.39533 22.986C4.2185 23.0009 4.12266 22.9108 4.08135 22.744C4.16041 22.2495 4.45051 22.5522 4.55603 22.856L4.84613 22.5648C4.90098 22.4231 4.63089 22.4848 4.5528 22.3411C4.43922 22.1326 4.98133 21.8628 5.07201 22.2737C5.55282 21.9567 5.93004 21.5603 6.51669 21.428L6.53283 21.122C6.7671 20.9984 6.90005 21.0949 7.01267 21.3115C7.15271 21.111 7.98041 21.0278 8.00978 20.9839C8.02397 20.9626 7.82132 20.6269 8.11562 20.5452L8.32311 20.6065L8.33182 20.9845L8.90588 20.9771C8.95719 20.3664 9.58321 20.5249 9.23567 21.0481L9.6584 21.1649C9.88525 21.0265 9.94139 20.5833 10.1728 20.5333C10.3296 20.4994 10.2544 20.655 10.2683 20.726C10.3586 20.8089 11.2735 20.2602 11.4338 20.1814C11.541 20.1288 11.6829 20.1618 11.7911 20.0849C11.9566 19.9674 11.7268 19.8193 11.9259 19.7028C12.0841 19.6105 12.2431 19.6453 12.2996 19.8215C12.4906 19.6498 12.8879 19.6124 13.0776 19.502C13.3532 19.3413 13.4374 19.0201 13.8821 19.1111L13.7527 18.7248L14.1051 18.7202L14.1402 18.9181C14.1606 18.9391 14.6381 18.7993 14.7024 18.7693C14.8366 18.7067 15.3655 18.2335 15.409 18.2186C15.5446 18.1718 15.7863 18.227 15.947 18.1428C15.6898 17.9314 15.8437 17.7739 15.7527 17.4982C15.5685 17.4433 15.6766 17.6451 15.5342 17.6228C15.2696 17.5815 15.2074 17.2277 15.561 17.2061L15.2022 16.0825C14.722 16.272 14.5794 15.6603 15.1732 15.7546V15.1087L14.7453 15.17C14.623 15.2546 14.7704 15.8795 14.3726 15.6171C14.3019 15.5706 14.2806 15.4621 14.2577 15.4479C14.1928 15.4079 13.3761 15.7462 13.3335 15.8185ZM20.5476 21.9696C19.9835 22.3592 19.2497 22.8589 18.5278 23.0864C18.4359 23.1155 18.3355 23.0616 18.2687 23.0874C17.6008 23.3453 17.0828 23.6213 16.2332 23.506C16.1393 23.4934 16.0728 23.2778 15.8224 23.3676C15.6517 22.4893 16.2 22.4015 16.8983 22.2243C16.9828 22.203 17.2948 22.2382 17.4326 22.1685C17.6608 22.0532 17.895 21.6682 18.27 21.887L18.1638 21.6388C16.915 21.7495 14.5936 21.6452 14.3377 23.2788C14.1609 24.4069 14.4855 26.2293 14.5833 27.4145C14.6285 27.9626 14.5504 28.4016 14.703 28.9739C15.106 30.4854 15.9838 30.489 17.3307 30.5374C18.9409 30.5952 21.2568 30.6801 22.8232 30.54C23.5741 30.4728 23.849 30.0368 23.9403 29.3347C24.0629 28.3932 23.9932 26.8687 24.0139 25.8568C24.0374 24.7123 24.3563 22.5041 23.0161 22.0142C22.7354 21.9115 21.6166 21.6711 21.3378 21.6604C21.2084 21.6556 20.9332 21.7256 20.8099 21.7818C20.7947 21.7889 20.6031 21.9315 20.5472 21.9699L20.5476 21.9696ZM31.3086 23.2678C32.44 23.567 34.2867 24.9124 34.8824 25.8939C34.9472 26.0008 35.0728 26.451 35.056 26.5624C34.8462 26.5869 34.7236 26.8332 34.5636 26.859C33.8695 26.9714 33.4409 25.6948 32.7923 25.5027C32.7278 25.7274 32.8214 25.952 32.7894 26.1764C32.7488 26.461 32.4742 27.0007 32.277 27.2144C31.8759 27.6495 31.4638 27.6763 30.9069 27.5662C30.8171 27.3787 30.6132 27.3577 30.5019 27.2431C30.2034 26.9362 29.9469 26.2993 29.8697 25.8759C29.7761 25.3626 29.9588 24.7507 30.1456 24.2762C30.105 24.2371 29.4728 24.2236 29.3212 24.1671C29.2899 24.1555 28.8336 23.7633 28.8129 23.7371C28.7742 23.6878 28.6493 23.4002 28.6561 23.3466C28.8904 23.2007 29.0165 23.1568 28.9191 22.856L28.6622 22.9851C28.7116 22.6888 28.5028 22.6268 28.3063 22.4761C27.8962 22.8343 27.9262 23.5344 27.951 24.0502C28.0043 25.1658 28.3337 26.4836 28.5199 27.6192C28.6145 28.195 28.6422 28.9167 28.7826 29.4809C28.9675 30.2246 29.3573 30.4063 30.1108 30.4761C31.9324 30.6449 34.0095 30.3431 35.8588 30.4748C36.7672 30.2737 36.8337 29.6252 36.9221 28.827C37.0728 27.4636 37.1712 24.3904 36.6452 23.1655C36.4642 22.7436 35.9905 22.1265 35.4758 22.1497C35.3067 22.1575 34.883 22.3886 34.6743 22.447C33.6988 22.7201 32.6975 22.7811 31.7352 22.9396C31.4425 22.9877 31.1076 23.1416 30.792 23.1148C30.8904 23.3598 31.1647 23.2301 31.3092 23.2685L31.3086 23.2678ZM5.5512 23.4599C4.72092 24.362 4.26722 25.4001 4.32434 26.6964C4.41824 28.828 5.83582 30.4154 7.56317 31.5325C7.6603 31.5954 7.86747 31.5971 7.96428 31.6958C8.0301 31.763 8.01687 31.8927 8.0698 31.9282C8.15176 31.9831 8.32504 31.9421 8.45864 31.9928C8.7681 32.1103 9.30053 32.5925 9.55868 32.638C9.66259 32.6564 9.721 32.6186 9.81587 32.6028C9.9159 33.2716 10.1741 33.8894 10.3773 34.5279C10.5445 35.0533 10.6794 35.626 10.8869 36.1485C11.5816 37.8989 12.6446 39.5112 13.7727 41.0137C13.8653 41.137 13.8469 41.322 13.895 41.3675C15.3 42.7041 16.5281 44.0404 18.25 45.0513C18.5933 45.2527 19.7441 45.9093 20.0235 46.0174C20.058 46.0306 20.3126 45.9893 20.5501 46.0962C21.3817 46.4699 22.2559 46.5787 23.2717 46.6775C28.749 47.2104 33.1554 44.2047 36.0857 39.8185C39.0686 35.3532 40.1354 30.285 40.0248 24.8888C40.0219 24.7449 39.9609 24.6122 39.9551 24.4695C39.3871 24.7061 38.4394 24.9637 38.1567 25.5431C37.9153 26.0379 37.9841 27.1331 37.9547 27.7296C37.9011 28.8054 38.0425 30.2201 37.0054 30.9276C36.0718 31.5645 33.5013 31.5112 32.306 31.5015C31.3712 31.4941 29.5683 31.5322 28.779 31.1626C28.5838 31.0713 28.4725 30.905 28.2747 30.8608L28.9226 34.5053C28.9265 34.85 28.5832 35.1831 28.2505 35.1812C27.6532 35.1773 26.6935 34.8361 26.0933 34.688C25.5654 34.5579 24.7564 34.4604 24.2911 34.2312C23.9626 34.0692 23.8793 33.2126 24.4334 33.1793C24.7367 33.1612 25.7793 33.4995 26.1449 33.6034C26.5873 33.729 27.5034 34.1686 27.9187 34.0886C27.9923 34.0744 28.0498 34.0656 28.0723 33.9824L26.2595 24.2245C25.7696 24.0383 25.2649 24.4372 25.1149 24.8927C24.9042 25.5321 25.0039 26.9614 24.9839 27.6692C24.9652 28.3331 24.9978 29.1068 24.9158 29.7227C24.9077 29.7831 24.6457 30.6184 24.6228 30.662C24.2488 31.3782 23.131 31.516 22.4221 31.5451C20.7128 31.6151 18.2526 31.6339 16.5727 31.4996C15.2619 31.3947 13.997 31.0106 13.59 29.6356C13.2086 28.3467 13.4968 25.5566 12.7862 24.6477C11.359 22.8221 8.31117 21.2369 6.16044 22.8147C5.95424 22.966 5.70997 23.2872 5.5512 23.4599ZM13.1079 22.7921L12.8185 22.7262C12.6943 22.7488 12.7427 22.8088 12.7869 22.8863C12.8117 22.9296 12.9053 23.1045 12.915 23.1132C13.0528 23.2333 13.096 22.8466 13.1076 22.7921H13.1079Z" stroke="#022720" stroke-width="0.4" mask="url(#path-1-outside-1_2481_462)"/>
<path d="M15.7232 3.47879C15.6616 3.53253 15.5878 3.57759 15.5061 3.6208C15.4712 3.63931 15.4334 3.65806 15.3946 3.6773C15.308 3.72031 15.2164 3.76574 15.1407 3.81621L15.1407 3.81622C15.04 3.88334 14.9241 3.95857 14.8011 4.03847C14.4384 4.27397 14.0134 4.54991 13.7313 4.77762L15.7232 3.47879ZM15.7232 3.47879C15.3919 3.27284 15.168 3.02996 15.076 2.73745C14.9739 2.41248 15.0419 2.05028 15.26 1.64964L15.26 1.64951C15.2912 1.5925 15.3348 1.56134 15.3665 1.54255C15.3742 1.53802 15.3814 1.53409 15.387 1.53104L15.3961 1.52596C15.7586 0.994694 16.3895 0.572074 17.0746 0.291876C17.7656 0.00927274 18.5258 -0.134256 19.1495 -0.0930372L15.7232 3.47879ZM10.8217 7.59958C10.8218 7.59953 10.8218 7.59948 10.8218 7.59943L10.9073 7.65137L10.8217 7.59958ZM10.8217 7.59958C10.7843 7.66115 10.7777 7.71971 10.7856 7.77046C10.7759 7.77021 10.7652 7.76984 10.7534 7.76934L10.7178 7.76781L10.6892 7.78917C10.6211 7.84017 10.5975 7.92128 10.5848 7.967C10.582 7.97692 10.5797 7.98549 10.5777 7.99321C10.5737 8.00783 10.5707 8.01937 10.5667 8.03122C10.562 8.04529 10.5591 8.04981 10.5592 8.04985C10.4829 8.13581 10.4024 8.22256 10.3203 8.31105C10.0992 8.54935 9.8665 8.80025 9.67178 9.08208C9.67175 9.08212 9.67172 9.08217 9.67169 9.08221L9.75397 9.13905M10.8217 7.59958L9.40633 9.84827L9.36244 9.83773L9.35123 9.81659C9.3591 9.81391 9.36673 9.81123 9.37423 9.80843C9.39327 9.80133 9.40859 9.79445 9.42089 9.7876C9.43866 9.77772 9.45014 9.76793 9.45745 9.7577L9.42967 9.75103C9.38675 9.67001 9.68104 9.24427 9.75397 9.13905M9.75397 9.13905C9.94431 8.86352 10.1696 8.62071 10.3891 8.38407C10.4725 8.29415 10.5551 8.20512 10.6346 8.11552L9.75397 9.13905ZM7.93434 12.4776C7.91201 12.4799 7.89039 12.4845 7.86949 12.4913C7.79942 12.5143 7.74958 12.5596 7.71272 12.6107C7.67713 12.6599 7.65122 12.718 7.62926 12.7724C7.62015 12.795 7.61192 12.8164 7.60385 12.8373C7.59081 12.8712 7.57817 12.904 7.56283 12.9393L7.5628 12.9393C7.38284 13.3545 7.25233 13.8446 7.13005 14.3037C7.0758 14.5075 7.02317 14.7051 6.96856 14.8874L7.06435 14.9161L6.96862 14.8872C6.96496 14.8993 6.95675 14.9167 6.94155 14.9421C6.92988 14.9615 6.91661 14.9817 6.90131 15.0049C6.8967 15.0119 6.89191 15.0191 6.88692 15.0268C6.84608 15.0891 6.79575 15.1689 6.76746 15.2603L6.76744 15.2604C6.71431 15.4325 6.7154 15.5782 6.72651 15.7058C6.72999 15.7458 6.73408 15.7821 6.73791 15.816C6.74527 15.8811 6.75163 15.9375 6.7507 15.9949L7.93434 12.4776ZM7.93434 12.4776L7.91001 12.398L7.88656 12.3212L7.95637 12.2817L8.0306 12.2397L8.00169 12.0905L7.98398 11.9991L8.0739 11.9749L8.1664 11.95L7.93434 12.4776ZM21.0114 1.052L21.0114 1.05218C21.0487 1.24735 21.0181 1.38955 20.9783 1.51772C20.97 1.5444 20.9616 1.56973 20.9535 1.59435C20.9348 1.651 20.9174 1.70386 20.9049 1.76068C20.9694 1.74984 21.0349 1.73429 21.1037 1.71735C21.1118 1.71536 21.1199 1.71335 21.1281 1.71132C21.2311 1.68586 21.3421 1.65842 21.456 1.64701L21.4561 1.647C27.2535 1.0699 31.9049 3.7457 35.1951 8.17402L35.1951 8.17405C35.2918 8.30438 35.3717 8.43544 35.4434 8.55455L35.4574 8.5778C35.5242 8.68898 35.583 8.78677 35.6444 8.86911L35.6445 8.86922C35.6499 8.87641 35.6599 8.88565 35.6798 8.89818C35.6934 8.90676 35.7056 8.91348 35.7203 8.92153C35.7297 8.92671 35.7402 8.93244 35.7527 8.93958C35.8053 8.9697 35.8872 9.02115 35.913 9.12454L35.816 9.14873L35.913 9.12455C35.9323 9.20178 35.9253 9.287 35.909 9.36733C35.8924 9.44902 35.8642 9.53469 35.8333 9.61666C35.8038 9.69451 35.7707 9.77189 35.7409 9.84163L35.736 9.85306C35.7043 9.92725 35.6776 9.99032 35.6606 10.0404L35.6433 10.0915L35.591 10.1051C35.556 10.1142 35.5001 10.1213 35.4528 10.0848C35.4214 10.0606 35.4091 10.0286 35.404 10.0046L21.0114 1.052ZM21.0114 1.052C21.0086 1.03728 21.0023 1.02331 21.0002 1.01842L20.9999 1.01785C20.9964 1.00988 20.9919 1.00069 20.9871 0.99097C20.9773 0.971373 20.964 0.946271 20.9488 0.918025C20.9181 0.861349 20.878 0.789467 20.8374 0.718323C20.7969 0.64715 20.7557 0.576169 20.723 0.52125C20.7067 0.49386 20.6922 0.470003 20.6809 0.451957C20.6752 0.443 20.67 0.434857 20.6654 0.428184L20.6651 0.427684C20.6623 0.423586 20.6548 0.412552 20.6459 0.403598M21.0114 1.052L20.6459 0.403598M18.9478 2.13373C19.0179 2.11071 19.0934 2.09908 19.1638 2.09006C19.1837 2.08751 19.2031 2.08517 19.2222 2.08288C19.2733 2.07672 19.3217 2.0709 19.37 2.06209C19.5002 2.03836 19.5963 1.99807 19.6574 1.90406L19.6574 1.904C19.7405 1.77643 19.7618 1.65237 19.7358 1.55732C19.711 1.46682 19.638 1.3832 19.4876 1.34085L19.4876 1.34084C19.1322 1.2407 18.5698 1.30589 18.018 1.47546C17.4671 1.64475 16.9581 1.90846 16.7053 2.17747L16.7053 2.17748C16.685 2.19903 16.6598 2.21517 16.6414 2.22608C16.6284 2.2338 16.6134 2.24196 16.6006 2.24889C16.6162 2.27959 16.6289 2.31022 16.6397 2.33612L16.6421 2.34204C16.6675 2.40303 16.6834 2.43814 16.7003 2.45683C16.7022 2.45902 16.7079 2.46525 16.7344 2.46512C16.7633 2.46497 16.7999 2.45723 16.8474 2.44485C16.8542 2.44308 16.8614 2.44117 16.8689 2.43919C16.9074 2.42894 16.9531 2.41676 16.9938 2.41161C17.0397 2.4058 17.1145 2.40352 17.1719 2.45721L17.1725 2.4578C17.1836 2.46835 17.1898 2.47906 17.192 2.48296C17.1949 2.48816 17.1971 2.49286 17.1984 2.49603C17.2011 2.50239 17.2034 2.50887 17.2051 2.51388C17.2081 2.52294 17.2116 2.53441 17.215 2.54565L17.2162 2.5497C17.2243 2.57631 17.234 2.6081 17.2464 2.64025C17.2589 2.67288 17.2727 2.70212 17.2874 2.72416C17.2902 2.72836 17.2929 2.73207 17.2954 2.73532C17.5622 2.64928 17.8269 2.54868 18.0937 2.4464C18.1095 2.44034 18.1253 2.43428 18.1411 2.42822C18.4077 2.32597 18.6766 2.22281 18.9478 2.13373ZM18.9478 2.13373L18.979 2.22874L18.9478 2.13373ZM20.6459 0.403598C20.5818 0.339144 20.4713 0.280147 20.3517 0.228351M20.6459 0.403598L20.3517 0.228351M20.3517 0.228351C20.2281 0.174845 20.0808 0.12333 19.9315 0.0779456M20.3517 0.228351L19.9315 0.0779456M19.9315 0.0779456C19.6353 -0.0120996 19.318 -0.0819355 19.1495 -0.0930356L19.9315 0.0779456ZM6.77376 15.983C6.7738 15.983 6.77342 15.9833 6.77252 15.9838L6.77376 15.983ZM10.8114 7.85557C10.812 7.85743 10.8116 7.85698 10.8111 7.85472L10.8114 7.85557Z" fill="#022720" stroke="#022720" stroke-width="0.2"/>
<path d="M19.9784 13.2524V13.1731V13.1727V13.0947L20.0541 13.0757C20.2963 13.0151 20.5186 12.9218 20.7443 12.819C20.7927 12.797 20.8415 12.7744 20.8906 12.7516C21.0684 12.6693 21.2518 12.5844 21.4455 12.5122L21.4456 12.5122C22.6511 12.0634 24.3231 11.5448 26.0104 11.1637C27.6955 10.783 29.4054 10.5372 30.6825 10.6396L19.9784 13.2524ZM19.9784 13.2524L20.0557 13.2704M19.9784 13.2524L20.0557 13.2704M20.0557 13.2704L21.1276 13.5203L21.1373 13.5225M20.0557 13.2704L21.1373 13.5225M21.1373 13.5225L21.1471 13.5228M21.1373 13.5225L21.1471 13.5228M21.1471 13.5228L21.587 13.537L21.7939 13.9627L21.815 14.0061M21.1471 13.5228L21.815 14.0061M21.815 14.0061L21.8621 14.0166M21.815 14.0061L21.8621 14.0166M21.8621 14.0166C21.9829 14.0435 22.0897 14.0284 22.186 14.0001M21.8621 14.0166L22.186 14.0001M22.186 14.0001C22.2334 13.9862 22.2789 13.9689 22.3217 13.952M22.186 14.0001L22.3217 13.952M22.3217 13.952C22.3329 13.9476 22.3438 13.9432 22.3546 13.9389M22.3217 13.952L22.3546 13.9389M22.3546 13.9389C22.386 13.9264 22.4158 13.9145 22.4467 13.9033M22.3546 13.9389L22.4467 13.9033M22.4467 13.9033C24.5498 13.1442 26.535 12.4773 28.7957 11.9949L28.7749 11.8971L22.4467 13.9033Z" fill="#022720" stroke="#022720" stroke-width="0.2"/>
<path d="M27.4876 38.479V38.4745L27.4054 38.4597C27.1447 38.4127 26.9361 38.4547 26.743 38.5085C26.7027 38.5197 26.6636 38.5312 26.6251 38.5426C26.4767 38.5863 26.3374 38.6274 26.1726 38.6384L27.4876 38.479ZM27.4876 38.479C27.607 38.5133 27.7026 38.5718 27.7726 38.6497C27.858 38.7447 27.8992 38.8622 27.9036 38.9823C27.9122 39.2199 27.7779 39.4709 27.549 39.6213C27.3939 39.7232 27.1194 39.8136 26.8517 39.8798C26.581 39.9467 26.2989 39.9933 26.1194 40.0007L26.1194 40.0007C25.8384 40.0124 25.3298 39.9461 24.945 39.771C24.7532 39.6838 24.5774 39.5629 24.4836 39.397C24.385 39.2224 24.3874 39.0164 24.5163 38.7906L27.4876 38.479ZM25.7876 38.6025C25.9367 38.6283 26.0671 38.6454 26.1725 38.6384L25.7876 38.6025ZM25.7876 38.6025C25.7464 38.5954 25.7036 38.5876 25.66 38.5796M25.7876 38.6025L25.66 38.5796M25.66 38.5796C25.5508 38.5596 25.4362 38.5386 25.3264 38.525M25.66 38.5796L25.3264 38.525M25.3264 38.525C25.1722 38.5059 25.0139 38.4992 24.873 38.5325M25.3264 38.525L24.873 38.5325M24.873 38.5325C24.7282 38.5668 24.5998 38.6443 24.5163 38.7906L24.873 38.5325Z" fill="#022720" stroke="#022720" stroke-width="0.2"/>
<path d="M16.0921 26.5219L16.0437 26.4694C15.9953 26.417 15.9489 26.372 15.9035 26.328C15.8839 26.309 15.8646 26.2902 15.8453 26.2711C15.7838 26.2101 15.7236 26.1458 15.6806 26.072C15.6359 25.9953 15.6103 25.9096 15.6146 25.8076C15.6187 25.7081 15.6511 25.5989 15.7118 25.473L15.8018 25.5165L15.7117 25.4733C15.7514 25.3904 15.8167 25.3466 15.8626 25.3188C15.8721 25.3131 15.88 25.3084 15.8868 25.3044C15.8986 25.2975 15.9074 25.2924 15.9165 25.2861C15.9245 25.2805 15.9276 25.2774 15.9283 25.2767C16.1775 24.8418 16.4145 24.5368 16.6991 24.2789C16.9713 24.0322 17.2838 23.8317 17.6832 23.6022V23.6018L17.7336 23.573C18.2044 23.3044 18.8793 23.0135 19.5704 22.8015C20.2594 22.5901 20.9767 22.4532 21.5287 22.5019L16.0921 26.5219ZM16.0921 26.5219L16.1575 26.493M16.0921 26.5219L16.1575 26.493M16.1575 26.493L16.6298 26.2845L16.6588 26.3725L16.6847 26.451L16.1575 26.493ZM18.1798 25.2294C18.1612 25.2393 18.1395 25.2519 18.1149 25.2677C18.0183 25.3294 17.8957 25.4251 17.7695 25.5312C17.5179 25.7428 17.2647 25.9851 17.2018 26.0493L18.1798 25.2294ZM18.1798 25.2294C18.229 25.626 18.4622 26.0958 18.7735 26.4726C19.1124 26.8827 19.5722 27.2161 20.0324 27.1993M18.1798 25.2294L20.0324 27.1993M20.0324 27.1993C20.5257 27.1814 20.9009 26.9095 21.1422 26.5408C21.3824 26.1739 21.4942 25.7063 21.4654 25.2768L20.0324 27.1993ZM21.0903 24.0722C21.0956 24.0646 21.1033 24.0572 21.1143 24.0502C21.1117 24.0344 21.1093 24.0186 21.1073 24.0027L21.0081 24.0153L21.0903 24.0722Z" fill="#022720" stroke="#022720" stroke-width="0.2"/>
<path d="M3.40367 22.3796L3.40356 22.3795C3.31353 22.3631 3.22581 22.3943 3.15776 22.4385C3.08864 22.4835 3.02814 22.5491 2.98985 22.6224C2.95205 22.6947 2.93025 22.7863 2.96078 22.8757C2.99277 22.9694 3.07305 23.0349 3.18567 23.0688L3.18572 23.0688C3.31995 23.1092 3.43747 23.1034 3.52707 23.0455C3.61649 22.9876 3.65518 22.8926 3.66362 22.8042C3.67204 22.716 3.65226 22.6226 3.61163 22.5463C3.57172 22.4714 3.50271 22.3978 3.40367 22.3796Z" fill="#022720" stroke="#022720" stroke-width="0.2"/>
<path d="M10.5505 18.9638L10.5504 18.9638C10.4406 18.972 10.3606 19.0322 10.3134 19.112C10.2682 19.1886 10.2535 19.2813 10.261 19.3669C10.2685 19.4525 10.2993 19.5417 10.3579 19.6099C10.4189 19.6808 10.5088 19.7264 10.6196 19.7174L10.6196 19.7174C10.7453 19.707 10.8415 19.655 10.8967 19.5676C10.9496 19.4836 10.9536 19.3842 10.9339 19.2984C10.9141 19.2121 10.8683 19.1282 10.805 19.0659C10.7417 19.0036 10.6531 18.9562 10.5505 18.9638Z" fill="#022720" stroke="#022720" stroke-width="0.2"/>
<path d="M3.09357 22.5229L3.09361 22.5229C3.16626 22.4504 3.19238 22.3604 3.18357 22.2737C3.17505 22.1899 3.13476 22.1128 3.08102 22.0541C3.02727 21.9953 2.95412 21.9484 2.87171 21.9323C2.78641 21.9156 2.69448 21.9331 2.61595 21.9986L2.61594 21.9986C2.52314 22.0759 2.47652 22.1712 2.47868 22.2705C2.48078 22.3666 2.52822 22.4503 2.59083 22.5095C2.71088 22.6232 2.9339 22.6819 3.09357 22.5229Z" fill="#022720" stroke="#022720" stroke-width="0.2"/>
<path d="M3.94876 22.5896C3.82881 22.645 3.6735 22.6315 3.56613 22.5223L3.94876 22.5896ZM3.94876 22.5896C4.07286 22.5324 4.16167 22.4013 4.14 22.2298M3.94876 22.5896L4.14 22.2298M4.14 22.2298L4.04079 22.2424M4.14 22.2298L4.04079 22.2424M4.04079 22.2424L4.14001 22.23C4.12183 22.0849 4.05409 21.9807 3.94744 21.9352M4.04079 22.2424C4.07273 22.4951 3.78618 22.6036 3.63742 22.4522L3.94744 21.9352M3.94744 21.9352C3.84644 21.8921 3.73569 21.9129 3.65069 21.9596M3.94744 21.9352L3.65069 21.9596M3.65069 21.9596C3.56525 22.0066 3.48927 22.0884 3.46273 22.1926M3.65069 21.9596L3.46273 22.1926M3.46273 22.1926C3.43467 22.3028 3.46624 22.4208 3.5661 22.5223L3.46273 22.1926Z" fill="#022720" stroke="#022720" stroke-width="0.2"/>
<path d="M11.2236 18.5034C11.0921 18.4648 10.9824 18.5155 10.9122 18.5993C10.846 18.6781 10.8128 18.7862 10.8103 18.8852C10.8079 18.9817 10.8346 19.0962 10.9223 19.1661C11.0177 19.2422 11.1463 19.2365 11.2809 19.1695L11.281 19.1695C11.4368 19.092 11.4686 18.9285 11.4483 18.8027C11.4378 18.7382 11.4133 18.6749 11.3776 18.6227C11.3425 18.5714 11.291 18.5232 11.2236 18.5034ZM11.2236 18.5034C11.2236 18.5034 11.2237 18.5034 11.2237 18.5034L11.1955 18.5994L11.2235 18.5034C11.2236 18.5034 11.2236 18.5034 11.2236 18.5034Z" fill="#022720" stroke="#022720" stroke-width="0.2"/>
<path d="M11.8637 19.1346C11.9411 19.2693 11.9496 19.4635 11.8101 19.6151L11.8637 19.1346ZM11.8637 19.1346C11.789 19.0048 11.6249 18.8988 11.4506 18.9856L11.8637 19.1346ZM11.4505 18.9856C11.3387 19.0413 11.2801 19.1343 11.2673 19.2363C11.2551 19.333 11.2845 19.4303 11.3306 19.5073C11.3763 19.5837 11.4465 19.6536 11.5317 19.6848C11.5754 19.7008 11.6248 19.707 11.6755 19.6956C11.7266 19.6841 11.7722 19.6562 11.8101 19.6151L11.4505 18.9856Z" fill="#022720" stroke="#022720" stroke-width="0.2"/>
<path d="M2.93989 22.9242L2.93987 22.9242L2.88305 22.8673L2.81527 22.9106L2.47838 23.1259L2.39965 23.1762L2.44451 23.2582C2.4959 23.3521 2.54949 23.4315 2.60622 23.4896C2.66206 23.5468 2.73079 23.5933 2.81212 23.5987C2.89751 23.6045 2.97025 23.5636 3.02814 23.5026C3.0848 23.4428 3.13462 23.3566 3.18025 23.2493L3.2069 23.1866L3.15831 23.1388L2.93989 22.9242Z" fill="#022720" stroke="#022720" stroke-width="0.2"/>
<path d="M11.8489 17.5957C11.9191 17.5351 12.0141 17.5085 12.1205 17.5362L11.8489 17.5957ZM11.8489 17.5957C11.7822 17.6532 11.7434 17.7358 11.7281 17.8166M11.8489 17.5957L11.7281 17.8166M11.7281 17.8166C11.7128 17.8976 11.719 17.9879 11.7556 18.0656M11.7281 17.8166L11.7556 18.0656M11.7556 18.0656C11.7935 18.1462 11.8647 18.2126 11.9693 18.2317M11.7556 18.0656L11.9693 18.2317M11.9693 18.2317C12.1807 18.2703 12.3335 18.12 12.3761 17.9627M11.9693 18.2317L12.3761 17.9627M12.3761 17.9627C12.3979 17.8822 12.3946 17.7909 12.3522 17.7098M12.3761 17.9627L12.3522 17.7098M12.3522 17.7098C12.3088 17.6266 12.2297 17.5646 12.1206 17.5362L12.3522 17.7098Z" fill="#022720" stroke="#022720" stroke-width="0.2"/>
<path d="M4.94629 20.9827L4.95136 21.0773H5.04615H5.4863H5.58005L5.58609 20.9838C5.59639 20.8242 5.57016 20.6927 5.516 20.5968C5.46191 20.5009 5.37457 20.4341 5.27008 20.4323C5.16479 20.4304 5.07558 20.4949 5.02003 20.5911C4.96475 20.6868 4.93755 20.8195 4.94629 20.9827Z" fill="#022720" stroke="#022720" stroke-width="0.2"/>
<path d="M8.01742 19.5248C8.0883 19.4845 8.17253 19.4623 8.25214 19.4661L8.01742 19.5248ZM8.01742 19.5248C7.94666 19.5649 7.88016 19.6285 7.84928 19.715M8.01742 19.5248L7.84928 19.715M7.84928 19.715C7.817 19.8055 7.82901 19.9062 7.89016 20.0043M7.84928 19.715L7.89016 20.0043M7.89016 20.0043C7.95127 20.1025 8.03727 20.1581 8.13493 20.1635C8.22774 20.1688 8.31239 20.1276 8.37525 20.0723C8.49474 19.9671 8.58465 19.7597 8.4721 19.583L7.89016 20.0043Z" fill="#022720" stroke="#022720" stroke-width="0.2"/>
<path d="M13.2305 17.1537L13.2305 17.1537C13.1037 17.2518 12.9717 17.2951 12.8604 17.2347C12.7555 17.1777 12.7233 17.0562 12.7228 16.9603C12.7222 16.8595 12.7545 16.7454 12.825 16.6623C12.9006 16.5731 13.0182 16.5239 13.1601 16.5663L13.2305 17.1537ZM13.2305 17.1537C13.3412 17.068 13.3899 16.9438 13.3766 16.8272M13.2305 17.1537L13.3766 16.8272M13.3766 16.8272C13.3633 16.7108 13.2872 16.6041 13.1602 16.5663L13.3766 16.8272Z" fill="#022720" stroke="#022720" stroke-width="0.2"/>
<path d="M14.3076 17.1101C14.3826 17.0668 14.4744 17.06 14.5748 17.0889L14.3076 17.1101ZM14.3076 17.1101C14.2341 17.1527 14.191 17.2222 14.1699 17.2912M14.3076 17.1101L14.1699 17.2912M14.1699 17.2912C14.1489 17.3599 14.1474 17.4348 14.1623 17.5015M14.1699 17.2912L14.1623 17.5015M14.1623 17.5015C14.1767 17.5663 14.21 17.6366 14.2721 17.6803M14.1623 17.5015L14.2721 17.6803M14.2721 17.6803C14.3767 17.754 14.4864 17.7737 14.585 17.7439M14.2721 17.6803L14.585 17.7439M14.585 17.7439C14.6805 17.7149 14.7512 17.6436 14.7902 17.563M14.585 17.7439L14.7902 17.563M14.7902 17.563C14.829 17.4825 14.8408 17.3837 14.8073 17.2925M14.7902 17.563L14.8073 17.2925M14.8073 17.2925C14.7724 17.1976 14.6932 17.123 14.5748 17.0889L14.8073 17.2925Z" fill="#022720" stroke="#022720" stroke-width="0.2"/>
<path d="M12.2577 17.6134L12.2578 17.6134C12.3014 17.6754 12.3713 17.7054 12.4351 17.7167C12.5006 17.7282 12.573 17.7228 12.6399 17.7008C12.7071 17.6788 12.774 17.6383 12.8222 17.5748C12.8716 17.5097 12.8966 17.4264 12.8873 17.33L12.8881 17.3299L12.8853 17.3176C12.8541 17.1793 12.7896 17.0742 12.6811 17.0398C12.5763 17.0065 12.4758 17.0542 12.4074 17.1089C12.3361 17.1659 12.2757 17.2481 12.2426 17.3329C12.2109 17.4138 12.1948 17.5239 12.2577 17.6134Z" fill="#022720" stroke="#022720" stroke-width="0.2"/>
<path d="M3.02277 21.5166L3.05542 21.4931C3.16616 21.4137 3.28356 21.4022 3.38573 21.4431C3.4825 21.4819 3.55412 21.563 3.59398 21.6491C3.63344 21.7343 3.64906 21.8408 3.61045 21.9353L3.02277 21.5166ZM3.02277 21.5166L3.0154 21.5561M3.02277 21.5166L3.0154 21.5561M3.0154 21.5561C2.99563 21.6621 2.9757 21.7993 3.00879 21.9104M3.0154 21.5561L3.00879 21.9104M3.00879 21.9104C3.02657 21.9701 3.0612 22.028 3.12274 22.0671M3.00879 21.9104L3.12274 22.0671M3.12274 22.0671C3.18298 22.1054 3.25704 22.118 3.3396 22.1122L3.12274 22.0671Z" fill="#022720" stroke="#022720" stroke-width="0.2"/>
<path d="M3.44523 21.3221C3.42284 21.2412 3.42263 21.1432 3.48067 21.0616L3.44523 21.3221ZM3.44523 21.3221C3.46783 21.4036 3.51608 21.4818 3.57686 21.5403M3.44523 21.3221L3.57686 21.5403M3.57686 21.5403C3.63666 21.5979 3.71932 21.6463 3.81297 21.6461M3.57686 21.5403L3.81297 21.6461M3.81297 21.6461C3.91372 21.6458 4.00132 21.5897 4.06305 21.4891L3.81297 21.6461ZM4.06307 21.489C4.12309 21.3912 4.13512 21.2912 4.1036 21.2012C4.07336 21.1148 4.00778 21.051 3.93734 21.0106C3.86679 20.97 3.78292 20.9477 3.70316 20.9508C3.62371 20.9539 3.53606 20.9836 3.4807 21.0615L4.06307 21.489Z" fill="#022720" stroke="#022720" stroke-width="0.2"/>
<path d="M7.96922 20.0459L7.94986 19.998L7.89966 19.9861C7.62044 19.9197 7.36987 20.1118 7.35713 20.3992L7.35498 20.4477L7.39181 20.4794C7.48585 20.5603 7.5798 20.614 7.66868 20.6362C7.75843 20.6586 7.85009 20.6499 7.92234 20.5944C7.99379 20.5394 8.02707 20.4533 8.03234 20.3609C8.03762 20.2685 8.01604 20.1615 7.96922 20.0459Z" fill="#022720" stroke="#022720" stroke-width="0.2"/>
<path d="M10.3208 18.5749L10.3208 18.5749C10.3773 18.665 10.482 18.6824 10.5597 18.6784C10.6426 18.6741 10.7316 18.6454 10.8055 18.6026C10.8769 18.5611 10.9513 18.4962 10.9794 18.4083C10.9942 18.3619 10.9953 18.311 10.9772 18.2603C10.9596 18.2107 10.926 18.1676 10.8819 18.1305L10.8819 18.1305C10.7972 18.0594 10.7052 18.0251 10.6148 18.0268C10.5251 18.0284 10.4461 18.0653 10.3871 18.1201C10.2719 18.2269 10.2209 18.4158 10.3208 18.5749Z" fill="#022720" stroke="#022720" stroke-width="0.2"/>
<path d="M9.93443 18.5276L9.93443 18.5276C9.85516 18.6387 9.75351 18.6953 9.64406 18.6933C9.54002 18.6914 9.45015 18.6367 9.38726 18.5707C9.32429 18.5046 9.27753 18.4162 9.26682 18.3262C9.2557 18.2328 9.28426 18.129 9.38376 18.0663L9.93443 18.5276ZM9.93443 18.5276C9.99174 18.4472 9.99929 18.3588 9.96809 18.2794M9.93443 18.5276L9.96809 18.2794M9.96809 18.2794C9.93916 18.2058 9.88053 18.1481 9.81891 18.1079M9.96809 18.2794L9.81891 18.1079M9.81891 18.1079C9.7563 18.067 9.68174 18.0382 9.60815 18.0276M9.81891 18.1079L9.60815 18.0276M9.60815 18.0276C9.53611 18.0172 9.45295 18.0227 9.38378 18.0663L9.60815 18.0276Z" fill="#022720" stroke="#022720" stroke-width="0.2"/>
<path d="M7.89972 19.6612L7.99427 19.6426L7.97918 19.5475L7.90852 19.1017L7.90165 19.0584L7.86519 19.0341C7.74978 18.9573 7.62497 18.9847 7.53534 19.0442C7.44787 19.1023 7.37884 19.1985 7.35099 19.2986C7.32278 19.3999 7.33338 19.5275 7.44236 19.6103C7.54257 19.6864 7.6981 19.7009 7.89972 19.6612Z" fill="#022720" stroke="#022720" stroke-width="0.2"/>
<path d="M8.72103 18.9596L8.69044 18.9456L8.65759 18.9529C8.53686 18.9798 8.44932 19.0448 8.40126 19.1335C8.35435 19.2201 8.35075 19.3187 8.37596 19.4049C8.40113 19.4909 8.45684 19.5712 8.53804 19.6213C8.62141 19.6728 8.72621 19.689 8.8382 19.6536L8.83825 19.6536C8.92949 19.6248 8.98584 19.5601 9.00325 19.4777C9.01879 19.4043 9.00128 19.3275 8.97604 19.2641C8.95001 19.1986 8.911 19.1352 8.86851 19.0833C8.82753 19.0333 8.77597 18.9848 8.72103 18.9596Z" fill="#022720" stroke="#022720" stroke-width="0.2"/>
<path d="M10.2284 20.1802C10.1468 20.2132 10.0513 20.2133 9.96308 20.1578L10.2284 20.1802ZM10.2284 20.1802C10.3069 20.1484 10.3718 20.0872 10.4156 20.018M10.2284 20.1802L10.4156 20.018M10.4156 20.018C10.4594 19.9488 10.4874 19.8631 10.4815 19.7763M10.4156 20.018L10.4815 19.7763M10.4815 19.7763C10.4753 19.686 10.4322 19.599 10.3434 19.539L10.4815 19.7763ZM10.3434 19.539C10.2472 19.4741 10.1458 19.4615 10.0556 19.5032C9.97251 19.5415 9.91719 19.6177 9.88481 19.6924C9.85187 19.7683 9.83645 19.8563 9.84362 19.9369C9.85056 20.0149 9.88131 20.1063 9.96306 20.1577L10.3434 19.539Z" fill="#022720" stroke="#022720" stroke-width="0.2"/>
<path d="M14.3268 16.125C14.4148 16.08 14.5246 16.0791 14.6468 16.1199L14.3268 16.125ZM14.3268 16.125C14.238 16.1703 14.1888 16.2518 14.172 16.3353M14.3268 16.125L14.172 16.3353M14.172 16.3353C14.1405 16.4924 14.2203 16.6988 14.4189 16.7484L14.172 16.3353ZM14.4189 16.7484C14.6129 16.797 14.7514 16.6516 14.8011 16.5202C14.8271 16.4514 14.8366 16.3711 14.8156 16.2967C14.7935 16.2183 14.738 16.1503 14.6468 16.1199L14.4189 16.7484Z" fill="#022720" stroke="#022720" stroke-width="0.2"/>
<path d="M11.8754 16.6073C11.879 16.6032 11.8904 16.5899 11.9081 16.58L11.8754 16.6073ZM11.8754 16.6073L11.8754 16.6074M11.8754 16.6073L11.8754 16.6074M11.8754 16.6074C11.8698 16.6138 11.8649 16.6206 11.8608 16.6265M11.8754 16.6074L11.8608 16.6265M11.8608 16.6265C11.8526 16.6385 11.844 16.6529 11.8355 16.6679M11.8608 16.6265L11.8355 16.6679M11.8355 16.6679C11.8185 16.6983 11.7991 16.7369 11.7814 16.7766M11.8355 16.6679L11.7814 16.7766M11.7814 16.7766C11.7638 16.8161 11.7468 16.8592 11.7351 16.8982M11.7814 16.7766L11.7351 16.8982M11.7351 16.8982C11.7292 16.9177 11.7241 16.9382 11.7213 16.958M11.7351 16.8982L11.7213 16.958M11.7213 16.958C11.7188 16.9754 11.7163 17.003 11.7242 17.0313L11.7213 16.958ZM11.7243 17.0313C11.7497 17.1216 11.8104 17.1813 11.884 17.2119C11.9542 17.241 12.0324 17.2428 12.1019 17.23C12.1718 17.2172 12.2415 17.1882 12.2972 17.1458C12.3519 17.1043 12.403 17.0416 12.412 16.96L11.7243 17.0313Z" fill="#022720" stroke="#022720" stroke-width="0.2"/>
<path d="M13.2212 17.3129C13.2708 17.1816 13.4093 17.0361 13.6033 17.0847L13.2212 17.3129ZM13.2212 17.3129C13.1951 17.3818 13.1857 17.462 13.2066 17.5365M13.2212 17.3129L13.2066 17.5365M13.2066 17.5365C13.2287 17.6149 13.2842 17.6829 13.3754 17.7133M13.2066 17.5365L13.3754 17.7133M13.3754 17.7133C13.4976 17.7541 13.6074 17.7532 13.6954 17.7082M13.3754 17.7133L13.6954 17.7082M13.6954 17.7082C13.7842 17.6628 13.8334 17.5814 13.8502 17.4978M13.6954 17.7082L13.8502 17.4978M13.8502 17.4978C13.8817 17.3407 13.8019 17.1344 13.6034 17.0847L13.8502 17.4978Z" fill="#022720" stroke="#022720" stroke-width="0.2"/>
<path d="M15.0205 17.5392L14.9857 17.5326L14.9546 17.5495L14.677 17.6996L14.5961 17.7433L14.633 17.8276C14.7261 18.0406 14.8316 18.1726 14.9492 18.2196C15.012 18.2447 15.0758 18.2442 15.1329 18.2201C15.188 18.1969 15.2293 18.1551 15.2579 18.1096C15.3139 18.0202 15.3331 17.8968 15.3011 17.7864C15.2672 17.6694 15.1756 17.5681 15.0205 17.5392Z" fill="#022720" stroke="#022720" stroke-width="0.2"/>
<path d="M13.0012 17.5445L13.0012 17.5445C12.9357 17.55 12.8792 17.5841 12.837 17.6238C12.794 17.6644 12.7587 17.7172 12.7362 17.7747C12.6914 17.8884 12.6901 18.0442 12.8149 18.1543L12.8149 18.1543C12.9265 18.2527 13.0485 18.2932 13.1594 18.2427C13.261 18.1964 13.3117 18.0907 13.3297 17.9979C13.3484 17.9022 13.3391 17.7901 13.2899 17.6996C13.2374 17.6028 13.1388 17.5331 13.0012 17.5445Z" fill="#022720" stroke="#022720" stroke-width="0.2"/>
<path d="M8.94783 20.087L8.95514 19.9885L8.85677 19.9799C8.6427 19.9613 8.48493 19.9946 8.39377 20.0861C8.29481 20.1855 8.30603 20.3174 8.35001 20.4133C8.39356 20.5082 8.47877 20.5948 8.57869 20.6319C8.63013 20.651 8.6896 20.6584 8.74959 20.6415C8.81068 20.6242 8.86257 20.5844 8.90182 20.5266L8.9168 20.5045L8.91878 20.4779L8.94783 20.087Z" fill="#022720" stroke="#022720" stroke-width="0.2"/>
<path d="M11.6306 18.819L11.6732 18.7614C11.7319 18.682 11.8022 18.6161 11.8912 18.5803C11.982 18.5439 12.0807 18.5434 12.1865 18.5749L11.6306 18.819ZM11.6306 18.819L11.6715 18.8779M11.6306 18.819L11.6715 18.8779M11.6715 18.8779C11.7731 19.024 11.8915 19.1066 12.0114 19.1344M11.6715 18.8779L12.0114 19.1344M12.0114 19.1344C12.1309 19.1622 12.2432 19.133 12.3231 19.0718M12.0114 19.1344L12.3231 19.0718M12.3231 19.0718C12.4008 19.0122 12.4561 18.9135 12.4354 18.8057M12.3231 19.0718L12.4354 18.8057M12.4354 18.8057C12.414 18.6943 12.3202 18.6146 12.1865 18.5749L12.4354 18.8057Z" fill="#022720" stroke="#022720" stroke-width="0.2"/>
<path d="M8.54394 18.681C8.65272 18.7115 8.75096 18.7017 8.82802 18.6497C8.90292 18.5991 8.94102 18.5199 8.9552 18.4449C8.96939 18.3698 8.96195 18.2891 8.93566 18.2202C8.91001 18.153 8.85976 18.0817 8.77666 18.0536L8.77651 18.0535C8.56818 17.9833 8.40086 18.1131 8.34115 18.2598C8.31096 18.334 8.3031 18.4222 8.33527 18.5034C8.36881 18.588 8.44081 18.6521 8.54394 18.681ZM8.54394 18.681L8.57096 18.5847L8.54398 18.681C8.54397 18.681 8.54395 18.681 8.54394 18.681Z" fill="#022720" stroke="#022720" stroke-width="0.2"/>
<path d="M2.4852 21.3211C2.45851 21.2426 2.45543 21.1466 2.51139 21.0632L2.4852 21.3211ZM2.4852 21.3211C2.51181 21.3993 2.56469 21.471 2.62879 21.5216M2.4852 21.3211L2.62879 21.5216M2.62879 21.5216C2.69214 21.5717 2.77776 21.6095 2.86982 21.5976M2.62879 21.5216L2.86982 21.5976M2.86982 21.5976C2.96763 21.5848 3.04691 21.5195 3.09797 21.4149M2.86982 21.5976L3.09797 21.4149M3.09797 21.4149C3.15214 21.3041 3.16666 21.1986 3.12442 21.1094M3.09797 21.4149C3.09797 21.4149 3.09796 21.4149 3.09795 21.415L3.12442 21.1094M3.12442 21.1094C3.08255 21.021 2.99893 20.9783 2.92443 20.9601M3.12442 21.1094L2.92443 20.9601M2.92443 20.9601C2.84892 20.9417 2.76653 20.9438 2.69722 20.9583M2.92443 20.9601L2.69722 20.9583M2.69722 20.9583C2.6622 20.9656 2.62759 20.9767 2.59695 20.9921M2.69722 20.9583L2.59695 20.9921M2.59695 20.9921C2.56779 21.0067 2.53434 21.0291 2.51141 21.0632L2.59695 20.9921Z" fill="#022720" stroke="#022720" stroke-width="0.2"/>
<path d="M13.305 18.5836L13.305 18.5835C13.2329 18.5333 13.1965 18.4611 13.1905 18.3854C13.1847 18.313 13.2065 18.2418 13.2405 18.1829C13.305 18.0712 13.4416 17.9611 13.6006 17.9903L13.305 18.5836ZM13.305 18.5836C13.4153 18.6603 13.5284 18.6817 13.6293 18.6467M13.305 18.5836L13.6293 18.6467M13.6293 18.6467C13.7267 18.6129 13.7924 18.5335 13.826 18.4501M13.6293 18.6467L13.826 18.4501M13.826 18.4501C13.8596 18.367 13.8666 18.2673 13.833 18.1789M13.826 18.4501L13.833 18.1789M13.833 18.1789C13.7976 18.0858 13.7191 18.012 13.6006 17.9903L13.833 18.1789Z" fill="#022720" stroke="#022720" stroke-width="0.2"/>
<path d="M9.33032 19.547L9.30935 19.6726L9.43637 19.6632L9.82683 19.6341L9.90951 19.628L9.91878 19.5456L9.95234 19.2473L9.96379 19.1456L9.8618 19.1365L9.49781 19.1042L9.40558 19.0961L9.39034 19.1874L9.33032 19.547Z" fill="#022720" stroke="#022720" stroke-width="0.2"/>
<path d="M11.239 18.2919L11.1439 18.3706L11.2406 18.4473L11.5297 18.6768L11.5568 18.6983L11.5914 18.6984C11.6817 18.6988 11.7522 18.6534 11.7989 18.5933C11.8442 18.535 11.8694 18.4612 11.8781 18.3891C11.8947 18.2526 11.8552 18.0676 11.6992 17.9889L11.6346 17.9562L11.5864 18.0044L11.239 18.2919Z" fill="#022720" stroke="#022720" stroke-width="0.2"/>
<path d="M11.1483 19.4754L11.1483 19.4754C10.9619 19.4412 10.823 19.58 10.7701 19.7089C10.7424 19.7763 10.7305 19.856 10.7515 19.9309C10.7739 20.0106 10.8318 20.076 10.9232 20.1053L10.9232 20.1053C11.0318 20.1402 11.1325 20.1283 11.2138 20.0816C11.293 20.0362 11.3465 19.9622 11.3727 19.8843C11.3987 19.8069 11.4005 19.7174 11.3649 19.6386C11.3275 19.556 11.253 19.4946 11.1483 19.4754Z" fill="#022720" stroke="#022720" stroke-width="0.2"/>
<path d="M11.4511 17.0814L11.3536 17.0661L11.337 17.1633L11.2728 17.5387L11.2554 17.6405L11.3576 17.6546L11.6768 17.6988L11.7576 17.71L11.7848 17.633L11.9116 17.2735L11.9516 17.1601L11.8328 17.1414L11.4511 17.0814Z" fill="#022720" stroke="#022720" stroke-width="0.2"/>
<path d="M5.05044 20.0677C5.12342 20.1427 5.20952 20.1787 5.29869 20.1673C5.38336 20.1564 5.45051 20.1051 5.49631 20.0486C5.54257 19.9915 5.57484 19.9201 5.58716 19.8494C5.59914 19.7806 5.59444 19.6968 5.54479 19.6298L5.46445 19.6894L5.54492 19.63C5.48479 19.5485 5.39617 19.5123 5.31093 19.5073C5.2271 19.5024 5.14134 19.5268 5.07318 19.5725C5.00488 19.6182 4.9461 19.6914 4.93538 19.7869C4.92447 19.8841 4.96589 19.981 5.05044 20.0677ZM5.05044 20.0677C5.05046 20.0677 5.05047 20.0678 5.05048 20.0678L5.12207 19.998L5.05041 20.0677C5.05042 20.0677 5.05043 20.0677 5.05044 20.0677Z" fill="#022720" stroke="#022720" stroke-width="0.2"/>
<path d="M8.87672 19.7111C8.94232 19.5753 9.09874 19.475 9.29189 19.538L8.87672 19.7111ZM8.87672 19.7111C8.81348 19.8421 8.82686 20.0282 8.98637 20.1284L8.87672 19.7111ZM8.98638 20.1284C9.08362 20.1894 9.18449 20.1984 9.27282 20.1605C9.35633 20.1247 9.4146 20.0531 9.44739 19.9789C9.48024 19.9046 9.49297 19.816 9.47266 19.7342C9.45143 19.6487 9.39315 19.571 9.29194 19.538L8.98638 20.1284Z" fill="#022720" stroke="#022720" stroke-width="0.2"/>
<path d="M6.05829 19.4644L5.97205 19.4774L5.97325 19.5646L5.97938 20.0097L5.98032 20.0775L6.04359 20.1017C6.18735 20.1568 6.31628 20.1566 6.41309 20.0953C6.5103 20.0338 6.54898 19.9272 6.54519 19.828C6.5414 19.7287 6.4959 19.6261 6.41146 19.5538C6.32489 19.4797 6.20339 19.4424 6.05829 19.4644Z" fill="#022720" stroke="#022720" stroke-width="0.2"/>
<path d="M3.392 23.3592L3.30623 23.2916L3.24642 23.383L3.0157 23.7354L2.99698 23.764L2.99968 23.7981C3.00478 23.8627 3.02421 23.92 3.05947 23.9658C3.0951 24.0121 3.14261 24.0408 3.1934 24.054C3.29157 24.0796 3.39718 24.0476 3.47384 23.9891C3.55268 23.9289 3.6145 23.8305 3.60837 23.709C3.60226 23.588 3.53005 23.468 3.392 23.3592Z" fill="#022720" stroke="#022720" stroke-width="0.2"/>
<path d="M8.83436 18.6778L8.83435 18.6778C8.77938 18.7669 8.7724 18.8605 8.80646 18.9433C8.83869 19.0216 8.90288 19.0792 8.971 19.1151C9.03953 19.1512 9.12117 19.1703 9.20006 19.1635C9.27999 19.1567 9.36314 19.122 9.41822 19.0445L9.41824 19.0445C9.48674 18.948 9.511 18.8461 9.47229 18.7527C9.43607 18.6653 9.35598 18.6143 9.28232 18.5876C9.20672 18.5602 9.12028 18.5515 9.04353 18.5615C8.97186 18.5709 8.88195 18.6007 8.83436 18.6778Z" fill="#022720" stroke="#022720" stroke-width="0.2"/>
<path d="M10.3302 18.1323C10.4269 18.0639 10.4687 17.968 10.4634 17.87C10.4585 17.7777 10.4127 17.693 10.3541 17.6315C10.2959 17.5703 10.2141 17.5208 10.1239 17.5135C10.0263 17.5055 9.93254 17.5486 9.87018 17.6468L9.87017 17.6468C9.7844 17.782 9.81949 17.957 9.90183 18.0665C9.94493 18.1238 10.0074 18.1727 10.0859 18.1896C10.1669 18.2072 10.2517 18.1878 10.3302 18.1323ZM10.3302 18.1323L10.2725 18.0506M10.3302 18.1323C10.3302 18.1323 10.3302 18.1323 10.3302 18.1323L10.2725 18.0506M10.2725 18.0506C10.5487 17.8553 10.1269 17.429 9.95461 17.7004C9.83909 17.8825 10.0366 18.2175 10.2725 18.0506Z" fill="#022720" stroke="#022720" stroke-width="0.2"/>
<path d="M3.48212 20.5058L3.4821 20.5058C3.33785 20.4601 3.18374 20.5153 3.09369 20.6114C3.04729 20.6609 3.01283 20.7265 3.00941 20.8019C3.0059 20.8792 3.03557 20.9544 3.09547 21.0192L3.09547 21.0192C3.18125 21.1121 3.28283 21.1537 3.38556 21.1315C3.48121 21.1109 3.55115 21.0402 3.59318 20.9682C3.63564 20.8954 3.65975 20.8047 3.65034 20.72C3.6405 20.6314 3.59091 20.5403 3.48212 20.5058Z" fill="#022720" stroke="#022720" stroke-width="0.2"/>
<path d="M4.35007 21.1315C4.22296 21.1469 4.0569 21.0943 3.99849 20.9384L4.35007 21.1315ZM4.35007 21.1315C4.41672 21.1234 4.48575 21.0963 4.53766 21.0439M4.35007 21.1315L4.53766 21.0439M4.53766 21.0439C4.59182 20.9893 4.62068 20.9135 4.61321 20.8254M4.53766 21.0439L4.61321 20.8254M4.61321 20.8254C4.59352 20.5914 4.39497 20.4774 4.22763 20.4921M4.61321 20.8254L4.22763 20.4921M4.22763 20.4921C4.14247 20.4996 4.05504 20.5412 4.00501 20.6267M4.22763 20.4921L4.00501 20.6267M4.00501 20.6267C3.95479 20.7125 3.95461 20.8212 3.99848 20.9383L4.00501 20.6267Z" fill="#022720" stroke="#022720" stroke-width="0.2"/>
<path d="M5.99136 21.0168L6.01188 21.0609L6.05924 21.072L6.37225 21.1452L6.47888 21.1702L6.49407 21.0617C6.49988 21.0203 6.50879 20.9815 6.51828 20.9402C6.5201 20.9322 6.52195 20.9242 6.52379 20.9161C6.53459 20.8684 6.54608 20.814 6.54662 20.7599C6.54719 20.7032 6.5359 20.6436 6.49941 20.5865C6.46373 20.5306 6.40925 20.4855 6.33793 20.4474L6.32388 20.4399L6.30819 20.4371C6.22863 20.4231 6.16056 20.4532 6.11106 20.497C6.06328 20.5393 6.02887 20.5969 6.00569 20.6539C5.98217 20.7118 5.96754 20.7756 5.96359 20.8365C5.95974 20.8958 5.96548 20.9611 5.99136 21.0168Z" fill="#022720" stroke="#022720" stroke-width="0.2"/>
<path d="M8.45013 19.0439L8.46567 19.0218L8.01823 19.0383L7.96519 19.1231C7.96521 19.1231 7.96523 19.1231 7.96525 19.1231C8.00222 19.1462 8.04903 19.1537 8.08423 19.1566C8.12368 19.1598 8.16756 19.1585 8.20996 19.1533C8.25216 19.1482 8.29655 19.1388 8.33614 19.124C8.37232 19.1105 8.41987 19.0869 8.45013 19.0439Z" fill="#022720" stroke="#022720" stroke-width="0.2"/>
<path d="M12.7514 19.6518L12.8258 19.6236L12.8151 19.5447L12.7592 19.1355L12.7496 19.065L12.68 19.051L12.5202 19.0187L12.4742 19.0094L12.4376 19.0389C12.2681 19.1756 12.1943 19.3672 12.2659 19.5226C12.3423 19.6885 12.5412 19.7314 12.7514 19.6518Z" fill="#022720" stroke="#022720" stroke-width="0.2"/>
<path d="M9.88605 19.1139L9.88605 19.1139L9.88636 19.1142C9.90942 19.1345 9.93641 19.1433 9.95299 19.1476C9.97204 19.1525 9.99232 19.1552 10.0117 19.1567C10.0506 19.1595 10.0952 19.1579 10.1385 19.1526C10.1817 19.1474 10.2276 19.1382 10.2681 19.124C10.3038 19.1116 10.3549 19.089 10.3864 19.0453L10.3864 19.0453C10.4402 18.9705 10.4607 18.8882 10.4471 18.809C10.4338 18.7313 10.3895 18.6667 10.3322 18.6215C10.2183 18.5317 10.0414 18.5085 9.88884 18.6047L9.8888 18.6047C9.82822 18.643 9.81091 18.7093 9.8053 18.752C9.79911 18.7991 9.80275 18.8498 9.80903 18.8934C9.81545 18.938 9.8255 18.9807 9.83532 19.014C9.84021 19.0306 9.84543 19.0462 9.85063 19.0591C9.85318 19.0655 9.8563 19.0727 9.85997 19.0797C9.86003 19.0798 9.8601 19.08 9.86018 19.0801C9.86226 19.0841 9.87063 19.1002 9.88605 19.1139Z" fill="#022720" stroke="#022720" stroke-width="0.2"/>
<path d="M11.3258 18.1103L11.382 18.0959L11.3974 18.04C11.4338 17.9078 11.3921 17.7542 11.3133 17.6521C11.2728 17.5996 11.2167 17.5531 11.1463 17.5334C11.0728 17.5129 10.9948 17.5249 10.9224 17.5713L10.908 17.5805L10.8975 17.594C10.8261 17.6856 10.78 17.7724 10.7676 17.8533C10.7541 17.9414 10.7817 18.0207 10.8487 18.0741C10.9086 18.1218 10.9884 18.1394 11.0654 18.1425C11.1448 18.1456 11.2342 18.1339 11.3258 18.1103Z" fill="#022720" stroke="#022720" stroke-width="0.2"/>
<path d="M7.15433 20.4437L7.05232 20.3887L7.01281 20.4977L6.8889 20.8395L6.87868 20.8677L6.88565 20.8968C6.91772 21.031 7.00969 21.1098 7.11665 21.1329C7.21679 21.1545 7.32495 21.1262 7.40075 21.0633C7.48103 20.9966 7.52774 20.887 7.48442 20.7628C7.4445 20.6484 7.33446 20.541 7.15433 20.4437Z" fill="#022720" stroke="#022720" stroke-width="0.2"/>
<path d="M1.5878 21.988L1.51367 22.0131L1.52022 22.091L1.54733 22.4138L1.552 22.4694L1.60176 22.4946C1.75905 22.5744 1.89889 22.5942 2.00639 22.5449C2.12001 22.4929 2.16324 22.3803 2.15441 22.2777C2.14566 22.1761 2.0871 22.0736 1.9862 22.0121C1.88292 21.9491 1.74548 21.9346 1.5878 21.988Z" fill="#022720" stroke="#022720" stroke-width="0.2"/>
<path d="M13.2569 19.142H13.2646L13.2914 19.1218C13.3613 19.069 13.3889 18.9957 13.3794 18.9197C13.3711 18.8533 13.3357 18.7928 13.3006 18.7454C13.232 18.6528 13.1314 18.568 13.0808 18.5255C13.0789 18.5238 13.077 18.5222 13.0752 18.5207L12.9964 18.4542L12.9323 18.5351L12.7097 18.8162L12.6823 18.8508L12.6894 18.8942C12.7008 18.9651 12.7498 19.0165 12.794 19.0497C12.8405 19.0846 12.8974 19.1115 12.953 19.1301C13.0089 19.1488 13.0689 19.161 13.1238 19.1632C13.1626 19.1647 13.2126 19.162 13.2569 19.142Z" fill="#022720" stroke="#022720" stroke-width="0.2"/>
<path d="M7.52735 18.718L7.52129 18.6337L7.43717 18.6256L7.04736 18.5882L6.98144 18.5819L6.94988 18.6401C6.87839 18.772 6.85915 18.8962 6.90394 18.9971C6.9498 19.1004 7.04883 19.1484 7.14375 19.1534C7.33463 19.1633 7.54815 19.0072 7.52735 18.718Z" fill="#022720" stroke="#022720" stroke-width="0.2"/>
<path d="M12.3121 18.1174L12.2408 18.1376L12.2394 18.2117L12.2333 18.5287L12.2316 18.6152L12.317 18.6293C12.4912 18.6579 12.6311 18.6428 12.7314 18.593C12.8332 18.5426 12.8993 18.4511 12.891 18.3442C12.883 18.24 12.8069 18.1581 12.7052 18.1176C12.6028 18.0767 12.4684 18.0731 12.3121 18.1174Z" fill="#022720" stroke="#022720" stroke-width="0.2"/>
<path d="M4.57532 20.0559L4.53515 20.0652L4.51321 20.1001C4.45614 20.1909 4.44002 20.2848 4.46311 20.3711C4.48561 20.4553 4.54196 20.5199 4.60659 20.562C4.72733 20.6406 4.92544 20.6649 5.04677 20.5305L5.047 20.5302C5.0707 20.5038 5.07929 20.4731 5.08281 20.4514C5.08648 20.4288 5.08622 20.406 5.08467 20.3859C5.08157 20.3456 5.072 20.3009 5.06173 20.2603C5.05197 20.2217 5.04042 20.1825 5.03052 20.1488C5.02982 20.1464 5.02913 20.1441 5.02845 20.1417C5.01746 20.1043 5.00992 20.078 5.00672 20.0618L4.98663 19.9606L4.88607 19.9839L4.57532 20.0559Z" fill="#022720" stroke="#022720" stroke-width="0.2"/>
<path d="M14.187 18.2209L14.1871 18.2209C14.2645 18.1721 14.2982 18.0898 14.3051 18.0144C14.312 17.9386 14.294 17.8575 14.2545 17.7895C14.2144 17.7208 14.1485 17.6597 14.0571 17.6378C13.965 17.6158 13.8641 17.6375 13.7623 17.7012L13.7622 17.7013C13.6788 17.7536 13.6532 17.839 13.6626 17.9174C13.6714 17.9904 13.7095 18.0604 13.7564 18.1153C13.8038 18.1708 13.8682 18.2201 13.9415 18.2452C14.0167 18.271 14.1056 18.272 14.187 18.2209Z" fill="#022720" stroke="#022720" stroke-width="0.2"/>
<path d="M4.01537 21.6837C4.06362 21.5596 4.19703 21.4291 4.37595 21.4749L4.01537 21.6837ZM4.01537 21.6837C3.99004 21.7489 3.98115 21.8253 4.00175 21.8978M4.01537 21.6837L4.00175 21.8978M4.00175 21.8978C4.02321 21.9733 4.0754 22.0389 4.15917 22.0758L4.00175 21.8978ZM4.15921 22.0758C4.35029 22.16 4.52333 22.0292 4.58695 21.8945C4.6206 21.8232 4.63387 21.7342 4.59933 21.6505C4.56345 21.5634 4.48465 21.5027 4.37598 21.4749L4.15921 22.0758Z" fill="#022720" stroke="#022720" stroke-width="0.2"/>
<path d="M13.9106 16.5598L13.9105 16.5598C13.8624 16.5615 13.8189 16.5794 13.7853 16.6122C13.7534 16.6434 13.7362 16.6823 13.7273 16.7186C13.7099 16.7897 13.7189 16.872 13.7404 16.9443C13.7623 17.0178 13.8008 17.0938 13.8554 17.1518C13.9104 17.2101 13.9905 17.2582 14.0891 17.2478L14.0892 17.2486L14.1013 17.2458C14.2211 17.2179 14.3185 17.1596 14.3446 17.0535C14.3684 16.9572 14.32 16.8665 14.2748 16.8057C14.2261 16.7402 14.1602 16.6813 14.1003 16.6389C14.0701 16.6176 14.0393 16.5989 14.0107 16.5853C13.9865 16.5738 13.949 16.5584 13.9106 16.5598Z" fill="#022720" stroke="#022720" stroke-width="0.2"/>
<path d="M13.7243 16.1765L13.7425 16.2254L13.793 16.2384C13.8415 16.251 13.9017 16.2492 13.9568 16.2419C14.0144 16.2342 14.0777 16.2188 14.1364 16.1961C14.1938 16.174 14.2539 16.1421 14.2989 16.0977C14.3454 16.0517 14.3832 15.9833 14.3666 15.8992L14.3666 15.8991C14.3458 15.7944 14.2755 15.7234 14.1936 15.6866C14.1136 15.6508 14.0197 15.6457 13.9354 15.6694C13.8503 15.6933 13.768 15.7491 13.7229 15.8417C13.6774 15.935 13.6771 16.0497 13.7243 16.1765Z" fill="#022720" stroke="#022720" stroke-width="0.2"/>
<path d="M10.8598 17.1888L10.8598 17.1887C10.8171 17.1272 10.7489 17.0986 10.6881 17.0877C10.6258 17.0765 10.5576 17.0812 10.4951 17.0988C10.3768 17.1321 10.232 17.2312 10.2469 17.4104L10.247 17.4105C10.2572 17.5314 10.324 17.6149 10.4164 17.6543C10.5022 17.691 10.6008 17.6863 10.6833 17.659C10.7655 17.6319 10.8487 17.5765 10.8924 17.4913C10.9398 17.3988 10.9307 17.2907 10.8598 17.1888Z" fill="#022720" stroke="#022720" stroke-width="0.2"/>
<path d="M6.44902 20.0457L6.30148 20.0623L6.37232 20.1928L6.54303 20.5071L6.56518 20.5479L6.61064 20.5573C6.77897 20.5922 6.94093 20.5491 6.99734 20.4087C7.05175 20.2733 6.97393 20.1265 6.84054 20.0283L6.809 20.0051L6.77009 20.0095L6.44902 20.0457Z" fill="#022720" stroke="#022720" stroke-width="0.2"/>
<path d="M5.53395 21.0823L5.45665 21.1015L5.45812 21.1812C5.46147 21.363 5.51148 21.4971 5.59608 21.5788C5.6824 21.6622 5.79683 21.6816 5.89198 21.6418C5.98709 21.602 6.05302 21.5067 6.04729 21.3888C6.04172 21.2742 5.97042 21.1561 5.83609 21.0479L5.7974 21.0167L5.74918 21.0287L5.53395 21.0823Z" fill="#022720" stroke="#022720" stroke-width="0.2"/>
<path d="M2.0399 22.6043L2.03994 22.6041C2.0551 22.5501 2.08476 22.5051 2.12821 22.474C2.17068 22.4437 2.21913 22.4318 2.26451 22.4304C2.35264 22.4277 2.44413 22.4636 2.51558 22.5118C2.58641 22.5596 2.65574 22.632 2.68133 22.7202C2.69472 22.7664 2.69616 22.8179 2.67725 22.8691C2.65847 22.9199 2.62266 22.9623 2.57537 22.996L2.0399 22.6043ZM2.0399 22.6043C1.99511 22.7647 2.10423 22.8958 2.2047 22.9625M2.0399 22.6043L2.2047 22.9625M2.2047 22.9625C2.25836 22.9981 2.32063 23.024 2.38246 23.0337M2.2047 22.9625L2.38246 23.0337M2.38246 23.0337C2.44268 23.0431 2.51532 23.0388 2.57536 22.996L2.38246 23.0337Z" fill="#022720" stroke="#022720" stroke-width="0.2"/>
<path d="M3.58617 23.5109L3.59768 23.6296L3.71257 23.5975C3.78372 23.5777 3.84841 23.5576 3.90297 23.5328C3.95817 23.5077 4.00909 23.4751 4.04785 23.4267C4.12726 23.3275 4.12997 23.1954 4.10671 23.035L4.09195 22.9332L3.9906 22.9508L3.6308 23.0134L3.53947 23.0293L3.54842 23.1216L3.58617 23.5109Z" fill="#022720" stroke="#022720" stroke-width="0.2"/>
<path d="M5.41711 21.4739C5.25356 21.4241 5.08857 21.4958 5.0072 21.6075M5.41711 21.4739C5.51014 21.5021 5.56786 21.5693 5.58604 21.651C5.60288 21.7266 5.58428 21.8053 5.54971 21.8686C5.51475 21.9326 5.45781 21.9916 5.38326 22.0232C5.30573 22.0561 5.21499 22.0566 5.12534 22.0107L5.0072 21.6075M5.41711 21.4739C5.41709 21.4739 5.41707 21.4739 5.41706 21.4739L5.38805 21.5696L5.41716 21.4739C5.41714 21.4739 5.41712 21.4739 5.41711 21.4739ZM5.0072 21.6075C4.96522 21.6651 4.94007 21.7414 4.95974 21.8218M5.0072 21.6075L4.95974 21.8218M4.95974 21.8218C4.97962 21.903 5.03993 21.967 5.12533 22.0107L4.95974 21.8218Z" fill="#022720" stroke="#022720" stroke-width="0.2"/>
<path d="M14.6395 18.6934L14.7683 18.7156L14.756 18.5855L14.7253 18.2614L14.7169 18.1719L14.627 18.1708L14.3627 18.1676L14.2827 18.1666L14.2642 18.2445L14.2013 18.5102L14.1768 18.6137L14.2816 18.6318L14.6395 18.6934Z" fill="#022720" stroke="#022720" stroke-width="0.2"/>
<path d="M5.06083 21.5928L4.98424 21.5994C4.86809 21.6094 4.73702 21.584 4.63392 21.5104L5.06083 21.5928ZM5.06083 21.5928L5.07415 21.517M5.06083 21.5928L5.07415 21.517M5.07415 21.517C5.10588 21.3366 5.08195 21.196 5.00336 21.1046M5.07415 21.517L5.00336 21.1046M5.00336 21.1046C4.92276 21.0108 4.8064 20.9936 4.71255 21.0161M5.00336 21.1046L4.71255 21.0161M4.71255 21.0161C4.62241 21.0377 4.52893 21.1018 4.4976 21.2029M4.71255 21.0161L4.4976 21.2029M4.4976 21.2029C4.4623 21.3167 4.51849 21.428 4.63391 21.5104L4.4976 21.2029Z" fill="#022720" stroke="#022720" stroke-width="0.2"/>
<path d="M14.8284 16.6441C14.9049 16.6031 14.999 16.6008 15.0999 16.6334L14.8284 16.6441ZM14.8284 16.6441C14.7518 16.6852 14.7083 16.7569 14.6942 16.8311M14.8284 16.6441L14.6942 16.8311M14.6942 16.8311C14.6666 16.9756 14.7473 17.1504 14.9327 17.1979M14.6942 16.8311L14.9327 17.1979M14.9327 17.1979C15.0219 17.2208 15.1045 17.2071 15.1688 17.1591M14.9327 17.1979L15.1688 17.1591M15.1688 17.1591C15.2302 17.1134 15.2631 17.0453 15.2756 16.9804M15.1688 17.1591L15.2756 16.9804M15.2756 16.9804C15.2882 16.9152 15.2823 16.844 15.2559 16.7816M15.2756 16.9804L15.2559 16.7816M15.2559 16.7816C15.2292 16.7185 15.1785 16.6588 15.0999 16.6334L15.2559 16.7816Z" fill="#022720" stroke="#022720" stroke-width="0.2"/>
<path d="M7.28537 19.4665L7.28534 19.4665C7.19359 19.4469 7.11926 19.4969 7.0738 19.546C7.02669 19.5969 6.99176 19.6648 6.9712 19.7317C6.95085 19.7978 6.94095 19.8748 6.95634 19.9442C6.97267 20.0179 7.02177 20.0926 7.11891 20.1131L7.11893 20.1131C7.3196 20.1553 7.45849 20.002 7.50055 19.8615C7.52249 19.7883 7.52463 19.7034 7.49109 19.6274C7.45577 19.5474 7.38522 19.488 7.28537 19.4665Z" fill="#022720" stroke="#022720" stroke-width="0.2"/>
<path d="M5.48123 20.4545L5.48125 20.4546C5.5273 20.519 5.59855 20.5457 5.66299 20.5514C5.72769 20.5571 5.79581 20.5432 5.8554 20.5155C5.9727 20.4611 6.08998 20.3319 6.04009 20.1516L6.04006 20.1515C6.0116 20.0491 5.93581 19.9911 5.84961 19.974C5.7697 19.9581 5.68489 19.9772 5.61602 20.0123C5.54704 20.0475 5.48032 20.1058 5.44666 20.1843C5.41048 20.2687 5.41771 20.3656 5.48123 20.4545Z" fill="#022720" stroke="#022720" stroke-width="0.2"/>
<path d="M9.43837 20.5192L9.43837 20.5192C9.38819 20.4667 9.35262 20.4117 9.33746 20.3539C9.32158 20.2933 9.32968 20.2349 9.35839 20.1851C9.41146 20.0931 9.51977 20.0526 9.60654 20.0409C9.69427 20.0291 9.80528 20.0403 9.88145 20.1027C9.92309 20.1369 9.9534 20.1863 9.95777 20.2485C9.96192 20.3076 9.94182 20.3665 9.90771 20.4224L9.43837 20.5192ZM9.43837 20.5192C9.47642 20.559 9.521 20.5867 9.57079 20.599M9.43837 20.5192L9.57079 20.599M9.57079 20.599C9.62059 20.6113 9.66922 20.6066 9.71274 20.5914M9.57079 20.599L9.71274 20.5914M9.71274 20.5914C9.79697 20.5622 9.86398 20.4941 9.9077 20.4224L9.71274 20.5914Z" fill="#022720" stroke="#022720" stroke-width="0.2"/>
<path d="M1.88081 21.5947L1.86409 21.598C1.78584 21.6133 1.71993 21.5842 1.67407 21.5377C1.63178 21.4948 1.60634 21.4379 1.59147 21.3859C1.57623 21.3325 1.56948 21.2752 1.57082 21.2231C1.57207 21.1743 1.58075 21.1164 1.60813 21.0709L1.88081 21.5947ZM1.88081 21.5947L1.8955 21.5861M1.88081 21.5947L1.8955 21.5861M1.8955 21.5861C2.01052 21.5184 2.08076 21.4307 2.10439 21.3327M1.8955 21.5861L2.10439 21.3327M2.10439 21.3327C2.12782 21.2355 2.10165 21.1433 2.05325 21.0749M2.10439 21.3327L2.05325 21.0749M2.05325 21.0749C2.00598 21.0081 1.93135 20.9557 1.8462 20.946M2.05325 21.0749L1.8462 20.946M1.8462 20.946C1.7535 20.9355 1.66422 20.9778 1.60814 21.0709L1.8462 20.946Z" fill="#022720" stroke="#022720" stroke-width="0.2"/>
<path d="M10.8823 20.1647L10.9027 20.0642L10.8017 20.0463C10.6354 20.017 10.5038 20.0321 10.4137 20.0928C10.3171 20.1578 10.2882 20.2617 10.3072 20.354C10.3253 20.4419 10.3867 20.5229 10.4743 20.5623C10.5672 20.604 10.6785 20.5947 10.7824 20.5211L10.8148 20.4982L10.8226 20.4594L10.8823 20.1647Z" fill="#022720" stroke="#022720" stroke-width="0.2"/>
<path d="M2.54661 22.049L2.64456 22.0254L2.62025 21.9276L2.52473 21.5435L2.49342 21.4176L2.37964 21.4799L2.08858 21.6394L2.05004 21.6605L2.03953 21.7032C2.02052 21.7803 2.0531 21.8457 2.09155 21.8898C2.12942 21.9331 2.1811 21.9666 2.23112 21.991C2.28217 22.0159 2.33815 22.0347 2.39046 22.0454C2.44009 22.0555 2.49742 22.0608 2.54661 22.049Z" fill="#022720" stroke="#022720" stroke-width="0.2"/>
<path d="M6.42645 19.5152L6.44398 19.6193L6.54692 19.5962L6.86251 19.5255L6.92847 19.5108L6.93935 19.444C6.96065 19.3134 6.95071 19.2024 6.89855 19.1255C6.87117 19.0852 6.833 19.056 6.78745 19.0425C6.74285 19.0292 6.69781 19.0327 6.65794 19.0456C6.50451 19.0953 6.38838 19.2893 6.42645 19.5152Z" fill="#022720" stroke="#022720" stroke-width="0.2"/>
</g>
<defs>
<clipPath id="clip0_2481_462">
<rect width="49.9646" height="48" fill="white"/>
</clipPath>
</defs>
</svg>
