<?xml version="1.0" encoding="UTF-8"?>
<svg width="20px" height="20px" viewBox="0 0 20 20" version="1.1" xmlns="http://www.w3.org/2000/svg" xmlns:xlink="http://www.w3.org/1999/xlink">
    <!-- Generator: Sketch 49.3 (51167) - http://www.bohemiancoding.com/sketch -->
    <desc>Created with Sketch.</desc>
    <defs></defs>
    <g id="Mariogogh_Index" stroke="none" stroke-width="1" fill="none" fill-rule="evenodd">
        <g id="Active">
            <g id="Group">
                <circle id="Oval-2" fill="#000000" cx="9.8" cy="9.8" r="9.8"></circle>
                <path d="M14,7.13125 C13.7619277,7.48854345 13.4741134,7.79296749 13.1365482,8.04453125 C13.1401015,8.09557317 13.1418782,8.17213491 13.1418782,8.27421875 C13.1418782,8.74817945 13.0743662,9.2212216 12.9393401,9.69335938 C12.804314,10.1654972 12.5991131,10.6184874 12.323731,11.0523438 C12.0483489,11.4862001 11.7205603,11.8699202 11.3403553,12.2035156 C10.9601504,12.537111 10.5017793,12.8032542 9.96522843,13.0019531 C9.42867752,13.200652 8.85482539,13.3 8.24365482,13.3 C7.28070585,13.3 6.39949638,13.0356797 5.6,12.5070313 C5.7243661,12.5216147 5.8629434,12.5289062 6.01573604,12.5289062 C6.81523242,12.5289062 7.52766185,12.2773463 8.15304569,11.7742187 C7.77994737,11.766927 7.44594056,11.6493501 7.15101523,11.4214844 C6.8560899,11.1936187 6.65355385,10.9028664 6.54340102,10.5492187 C6.66066048,10.567448 6.76903504,10.5765625 6.86852792,10.5765625 C7.02132056,10.5765625 7.17233428,10.5565106 7.3215736,10.5164062 C6.92360207,10.4325517 6.59403684,10.2292985 6.33286802,9.90664063 C6.0716992,9.58398276 5.94111675,9.20937713 5.94111675,8.7828125 L5.94111675,8.7609375 C6.18274232,8.89947986 6.44213059,8.9742187 6.71928934,8.98515625 C6.4847704,8.82473878 6.29822404,8.61510546 6.15964467,8.35625 C6.0210653,8.09739454 5.95177665,7.81666818 5.95177665,7.5140625 C5.95177665,7.19322756 6.02994846,6.89609512 6.18629442,6.62265625 C6.6162458,7.16588813 7.13946392,7.60064941 7.75596447,7.92695312 C8.37246501,8.25325684 9.03248379,8.43463523 9.73604061,8.47109375 C9.70761407,8.33255139 9.69340102,8.19765691 9.69340102,8.06640625 C9.69340102,7.57786214 9.86129274,7.16132985 10.1970812,6.81679687 C10.5328697,6.4722639 10.9388301,6.3 11.4149746,6.3 C11.912439,6.3 12.3317242,6.48593564 12.6728426,6.8578125 C13.0601542,6.78124962 13.4243638,6.63906354 13.7654822,6.43125 C13.6340095,6.85052293 13.3817278,7.17499885 13.0086294,7.4046875 C13.3390879,7.36822898 13.6695415,7.27708406 14,7.13125 Z" id="twitter---FontAwesome" fill="#FFFFFF"></path>
            </g>
        </g>
    </g>
</svg>