<?xml version="1.0" encoding="UTF-8"?>
<svg width="1571px" height="154px" viewBox="0 0 1571 154" version="1.1" xmlns="http://www.w3.org/2000/svg" xmlns:xlink="http://www.w3.org/1999/xlink">
    <!-- Generator: Sketch 49.3 (51167) - http://www.bohemiancoding.com/sketch -->
    <desc>Created with Sketch.</desc>
    <defs></defs>
    <g id="Mariogogh_Index" stroke="none" stroke-width="1" fill="none" fill-rule="evenodd">
        <path d="M0,2.81052405 L23.4761421,2.81052405 L23.4761421,47.2829341 L23.9721169,47.2829341 C26.9479808,42.323161 30.7504165,38.7136024 35.3795381,36.4541502 C40.0086597,34.194698 44.5274963,33.0649889 48.9361835,33.0649889 C55.2185628,33.0649889 60.3711387,33.9191592 64.3940658,35.6275255 C68.4169929,37.3358918 71.5856893,39.7055256 73.9002501,42.7364981 C76.2148109,45.7674706 77.84049,49.4596908 78.777336,53.8132694 C79.714182,58.166848 80.182598,62.9887773 80.182598,68.279202 L80.182598,120.852534 L56.7064559,120.852534 L56.7064559,72.5776506 C56.7064559,65.523751 55.6043006,60.2609596 53.399957,56.7891184 C51.1956134,53.3172772 47.2829622,51.5813826 41.661886,51.5813826 C35.2692895,51.5813826 30.6402373,53.4826005 27.7745907,57.2850932 C24.908944,61.087586 23.4761421,67.3423171 23.4761421,76.0494744 L23.4761421,120.852534 L0,120.852534 L0,2.81052405 Z M146.271229,68.9405018 C145.169057,62.988774 143.212731,58.4699374 140.402193,55.3838564 C137.591655,52.2977753 133.320803,50.7547579 127.58951,50.7547579 C123.842126,50.7547579 120.728537,51.3884972 118.248651,52.6559948 C115.768764,53.9234924 113.784885,55.4940636 112.296953,57.3677557 C110.809021,59.2414478 109.761973,61.2253273 109.155779,63.3194537 C108.549584,65.4135801 108.191384,67.2872441 108.081167,68.9405018 L146.271229,68.9405018 Z M108.081167,83.8197468 C108.411818,91.4247323 110.34059,96.9355086 113.86754,100.352241 C117.394489,103.768974 122.464404,105.477315 129.077435,105.477315 C133.816773,105.477315 137.894748,104.292498 141.31148,101.922828 C144.728213,99.5531588 146.822308,97.0457556 147.593828,94.4005432 L168.259446,94.4005432 C164.952931,104.650741 159.883017,111.980074 153.049551,116.388761 C146.216086,120.797448 137.949922,123.001759 128.25081,123.001759 C121.527562,123.001759 115.465708,121.927157 110.065066,119.777922 C104.664424,117.628687 100.09048,114.570206 96.3430956,110.602388 C92.5957114,106.634569 89.7025538,101.895302 87.663536,96.3844426 C85.6245181,90.8735835 84.6050245,84.8117295 84.6050245,78.1986987 C84.6050245,71.8061022 85.652072,65.8544637 87.7461985,60.3436047 C89.8403249,54.8327457 92.8161441,50.0659241 96.6737454,46.042997 C100.531347,42.0200699 105.132845,38.8513735 110.478378,36.5368127 C115.823912,34.2222519 121.747996,33.0649889 128.25081,33.0649889 C135.525144,33.0649889 141.862537,34.4702368 147.263178,37.280775 C152.66382,40.0913131 157.099995,43.8661949 160.571836,48.6055336 C164.043678,53.3448724 166.551081,58.7454333 168.094121,64.8073782 C169.637162,70.8693231 170.18824,77.206716 169.747371,83.8197468 L108.081167,83.8197468 Z M174.996422,2.81052405 L198.472564,2.81052405 L198.472564,120.852534 L174.996422,120.852534 L174.996422,2.81052405 Z M208.350714,2.81052405 L231.826856,2.81052405 L231.826856,120.852534 L208.350714,120.852534 L208.350714,2.81052405 Z M261.874649,78.1986987 C261.874649,81.6154313 262.205295,84.949451 262.866598,88.2008578 C263.527902,91.4522646 264.657611,94.3729761 266.25576,96.9630799 C267.853909,99.5531836 269.975558,101.619725 272.62077,103.162765 C275.265983,104.705806 278.572448,105.477315 282.540267,105.477315 C286.508085,105.477315 289.842105,104.705806 292.542426,103.162765 C295.242747,101.619725 297.39195,99.5531836 298.990099,96.9630799 C300.588248,94.3729761 301.717957,91.4522646 302.37926,88.2008578 C303.040563,84.949451 303.37121,81.6154313 303.37121,78.1986987 C303.37121,74.7819661 303.040563,71.4203925 302.37926,68.1138771 C301.717957,64.8073617 300.588248,61.8866502 298.990099,59.351655 C297.39195,56.8166599 295.242747,54.7501187 292.542426,53.1519696 C289.842105,51.5538205 286.508085,50.7547579 282.540267,50.7547579 C278.572448,50.7547579 275.265983,51.5538205 272.62077,53.1519696 C269.975558,54.7501187 267.853909,56.8166599 266.25576,59.351655 C264.657611,61.8866502 263.527902,64.8073617 262.866598,68.1138771 C262.205295,71.4203925 261.874649,74.7819661 261.874649,78.1986987 Z M238.398507,78.1986987 C238.398507,71.3652335 239.445554,65.1656101 241.539681,59.5996424 C243.633807,54.0336748 246.609626,49.2944071 250.467228,45.3816972 C254.324829,41.4689873 258.953881,38.4380603 264.354523,36.2888253 C269.755165,34.1395903 275.817019,33.0649889 282.540267,33.0649889 C289.263515,33.0649889 295.352923,34.1395903 300.808673,36.2888253 C306.264424,38.4380603 310.92103,41.4689873 314.778631,45.3816972 C318.636232,49.2944071 321.612052,54.0336748 323.706178,59.5996424 C325.800304,65.1656101 326.847352,71.3652335 326.847352,78.1986987 C326.847352,85.0321639 325.800304,91.2042334 323.706178,96.7150925 C321.612052,102.225951 318.636232,106.937665 314.778631,110.850375 C310.92103,114.763085 306.264424,117.766458 300.808673,119.860585 C295.352923,121.954711 289.263515,123.001759 282.540267,123.001759 C275.817019,123.001759 269.755165,121.954711 264.354523,119.860585 C258.953881,117.766458 254.324829,114.763085 250.467228,110.850375 C246.609626,106.937665 243.633807,102.225951 241.539681,96.7150925 C239.445554,91.2042334 238.398507,85.0321639 238.398507,78.1986987 Z M416.2468,73.4042753 C415.916148,74.5064471 415.613056,75.691264 415.337513,76.9587616 C415.06197,78.2262592 414.9242,79.4110761 414.9242,80.5132479 C414.9242,81.6154197 415.144631,82.5246978 415.5855,83.2411095 C416.026369,83.9575212 416.74277,84.3157216 417.734724,84.3157216 C420.049285,84.3157216 422.391365,83.5717668 424.761034,82.0838349 C427.130704,80.5959029 429.224799,78.5018079 431.043382,75.801487 C432.861966,73.1011661 434.349875,69.8773619 435.507156,66.1299777 C436.664436,62.3825936 437.243068,58.3046191 437.243068,53.8959319 C437.243068,47.282901 436.085805,41.469032 433.771244,36.4541502 C431.456683,31.4392685 428.287987,27.1959707 424.26506,23.7241295 C420.242133,20.2522883 415.502865,17.6346695 410.047114,15.8711947 C404.591364,14.1077198 398.722387,13.2259955 392.440008,13.2259955 C385.386108,13.2259955 378.966054,14.4659202 373.179652,16.9458068 C367.39325,19.4256934 362.461105,22.8423747 358.383069,27.1959533 C354.305034,31.549532 351.163891,36.7296618 348.959547,42.7364981 C346.755204,48.7433345 345.653049,55.2184967 345.653049,62.1621791 C345.653049,69.436513 346.865419,76.0218908 349.290197,81.9185099 C351.714975,87.8151291 355.076549,92.8850434 359.375019,97.1284048 C363.673489,101.371766 368.826065,104.650678 374.832901,106.965239 C380.839738,109.2798 387.370008,110.437063 394.423907,110.437063 C401.36759,110.437063 407.952967,109.252246 414.180238,106.882577 C420.407509,104.512907 425.6703,101.178887 429.96877,96.8804174 L443.856066,96.8804174 C438.234989,105.477357 431.015872,112.062735 422.198498,116.636748 C413.381123,121.210761 403.792372,123.497733 393.431958,123.497733 C384.614583,123.497733 376.348419,121.954716 368.633216,118.868635 C360.918013,115.782554 354.167312,111.484148 348.38091,105.973289 C342.594508,100.46243 338.048118,93.9321603 334.741602,86.3822834 C331.435087,78.8324066 329.781854,70.6489036 329.781854,61.8315292 C329.781854,53.1243719 331.435087,44.9959768 334.741602,37.4460999 C338.048118,29.896223 342.566954,23.365953 348.298248,17.855094 C354.029541,12.344235 360.697581,7.99072163 368.302566,4.79442339 C375.907551,1.59812515 384.008393,0 392.605333,0 C400.100101,0 407.319218,1.2123708 414.262901,3.63714878 C421.206583,6.06192675 427.323545,9.45105422 432.613969,13.8046329 C437.904394,18.1582115 442.147692,23.4485568 445.34399,29.6758275 C448.540288,35.9030982 450.138413,42.8191226 450.138413,50.424108 C450.138413,58.9108309 448.62295,66.1850557 445.591977,72.2470007 C442.561005,78.3089456 438.923893,83.2686444 434.680531,87.1262457 C430.43717,90.983847 426.138764,93.8218968 421.785185,95.6404803 C417.431607,97.4590638 413.932264,98.3683419 411.287052,98.3683419 C407.760102,98.3683419 404.922052,97.4866177 402.772817,95.7231428 C400.623582,93.9596679 399.438765,91.7002496 399.218331,88.9448201 L398.887681,88.9448201 C396.903771,92.2513355 394.313707,94.6760771 391.117408,96.2191176 C387.92111,97.7621581 384.559536,98.5336668 381.032587,98.5336668 C377.505637,98.5336668 374.171617,97.789712 371.030428,96.3017801 C367.889238,94.8138482 365.13385,92.7748609 362.76418,90.1847571 C360.394511,87.5946534 358.520847,84.5912803 357.143132,81.1745477 C355.765417,77.7578151 355.07657,74.1207027 355.07657,70.2631014 C355.07657,65.0828939 355.930741,59.9578718 357.639107,54.8878815 C359.347473,49.8178912 361.772215,45.2990546 364.913405,41.3312361 C368.054594,37.3634176 371.85703,34.1671673 376.320826,31.7423893 C380.784622,29.3176113 385.716766,28.1052405 391.117408,28.1052405 C394.644358,28.1052405 398.28147,28.9594109 402.028855,30.6677772 C405.776239,32.3761435 408.586735,35.3795166 410.460427,39.6779866 L413.105626,30.7504397 L426.662271,30.7504397 L416.2468,73.4042753 Z M371.939715,68.1138771 C371.939715,72.5225643 373.124532,76.0770151 375.494201,78.777336 C377.86387,81.4776569 380.977459,82.8277971 384.83506,82.8277971 C387.810924,82.8277971 390.538759,82.0562884 393.018645,80.5132479 C395.498532,78.9702074 397.647735,77.0138818 399.466318,74.6442124 C401.284901,72.274543 402.690149,69.6018165 403.682104,66.6259526 C404.674059,63.6500887 405.170029,60.7293772 405.170029,57.8637305 C405.170029,53.7856948 403.930104,50.4241213 401.450217,47.7789089 C398.970331,45.1336966 395.966958,43.8111103 392.440008,43.8111103 C389.464144,43.8111103 386.708756,44.5550651 384.173761,46.042997 C381.638765,47.5309289 379.462009,49.4597007 377.643425,51.8293701 C375.824842,54.1990394 374.419594,56.8166582 373.427639,59.6823049 C372.435685,62.5479516 371.939715,65.3584476 371.939715,68.1138771 Z M456.379414,35.3795381 L478.532957,35.3795381 L478.532957,46.9522842 L478.863607,46.9522842 C481.949688,42.543597 485.669462,39.1269156 490.02304,36.7021376 C494.376619,34.2773597 499.363872,33.0649889 504.984948,33.0649889 C510.38559,33.0649889 515.317735,34.1120364 519.78153,36.2061628 C524.245326,38.3002892 527.634454,41.9925094 529.949015,47.2829341 C532.48401,43.5355499 535.928245,40.2290841 540.281824,37.3634374 C544.635402,34.4977907 549.787978,33.0649889 555.739706,33.0649889 C560.25861,33.0649889 564.4468,33.6160665 568.304402,34.7182383 C572.162003,35.8204101 575.468469,37.5838586 578.223898,40.0086365 C580.979328,42.4334145 583.128531,45.6021109 584.671571,49.5148208 C586.214612,53.4275307 586.98612,58.1392445 586.98612,63.6501036 L586.98612,120.852534 L563.509978,120.852534 L563.509978,72.4123256 C563.509978,69.5466789 563.399763,66.8463985 563.179328,64.3114034 C562.958894,61.7764082 562.352709,59.5720977 561.360754,57.6984056 C560.368799,55.8247135 558.908444,54.3368039 556.979643,53.2346321 C555.050842,52.1324603 552.433224,51.5813826 549.126708,51.5813826 C545.820193,51.5813826 543.147466,52.2151219 541.108448,53.4826195 C539.06943,54.7501171 537.471305,56.40335 536.314025,58.4423678 C535.156745,60.4813857 534.385236,62.7959117 533.999476,65.3860155 C533.613716,67.9761192 533.420838,70.593738 533.420838,73.2389504 L533.420838,120.852534 L509.944696,120.852534 L509.944696,72.9083005 C509.944696,70.3733053 509.889589,67.8659021 509.779371,65.3860155 C509.669154,62.9061289 509.200738,60.6191567 508.374109,58.5250303 C507.54748,56.4309039 506.169786,54.7501171 504.240986,53.4826195 C502.312185,52.2151219 499.474135,51.5813826 495.726751,51.5813826 C494.624579,51.5813826 493.164224,51.8293676 491.34564,52.3253449 C489.527057,52.8213222 487.763608,53.7581542 486.055242,55.1358689 C484.346876,56.5135837 482.88652,58.4974632 481.674131,61.0875669 C480.461742,63.6776707 479.855556,67.0667982 479.855556,71.255051 L479.855556,120.852534 L456.379414,120.852534 L456.379414,35.3795381 Z M595.211021,61.6662042 C595.541672,56.1553452 596.919366,51.5814008 599.344144,47.9442339 C601.768922,44.3070669 604.854957,41.3863554 608.602341,39.1820118 C612.349725,36.9776682 616.565469,35.4070969 621.249699,34.4702509 C625.933929,33.5334049 630.645643,33.0649889 635.384982,33.0649889 C639.683452,33.0649889 644.036965,33.3680816 648.445653,33.9742761 C652.85434,34.5804706 656.877207,35.7652875 660.514374,37.5287624 C664.151541,39.2922373 667.12736,41.7445327 669.441921,44.8857224 C671.756481,48.026912 672.913744,52.1875482 672.913744,57.3677557 L672.913744,101.840166 C672.913744,105.697767 673.134175,109.389987 673.575044,112.916937 C674.015913,116.443887 674.787422,119.089059 675.889593,120.852534 L652.082801,120.852534 C651.641933,119.529928 651.283732,118.179788 651.008189,116.802073 C650.732646,115.424358 650.539769,114.01911 650.429552,112.586287 C646.682168,116.443888 642.273547,119.144169 637.203556,120.687209 C632.133566,122.23025 626.953436,123.001759 621.663012,123.001759 C617.584976,123.001759 613.78254,122.505789 610.255591,121.513834 C606.728641,120.521879 603.642606,118.978862 600.997394,116.884736 C598.352181,114.790609 596.28564,112.145437 594.797708,108.949138 C593.309776,105.75284 592.565821,101.950404 592.565821,97.5417172 C592.565821,92.6921612 593.419992,88.6968484 595.128358,85.5556587 C596.836724,82.4144691 599.041035,79.9070658 601.741356,78.0333737 C604.441677,76.1596817 607.527712,74.7544337 610.999553,73.8175877 C614.471394,72.8807416 617.970737,72.1367868 621.497687,71.5857009 C625.024637,71.034615 628.496426,70.5937529 631.913158,70.2631014 C635.329891,69.9324498 638.360818,69.4364799 641.00603,68.7751769 C643.651242,68.1138738 645.745338,67.1494879 647.288378,65.8819903 C648.831419,64.6144928 649.54782,62.7683827 649.437602,60.3436047 C649.437602,57.8086095 649.024294,55.7971762 648.197665,54.3092442 C647.371036,52.8213123 646.268881,51.6640492 644.891166,50.8374204 C643.513452,50.0107915 641.915326,49.4597139 640.096743,49.1841709 C638.278159,48.908628 636.321834,48.7708586 634.227707,48.7708586 C629.598586,48.7708586 625.961473,49.7627983 623.316261,51.7467076 C620.671049,53.7306168 619.128031,57.0370827 618.687163,61.6662042 L595.211021,61.6662042 Z M649.437602,79.0253234 C648.445648,79.9070609 647.205723,80.5959079 645.717791,81.0918852 C644.229859,81.5878625 642.631734,82.0011708 640.923368,82.3318223 C639.215001,82.6624738 637.423999,82.9380127 635.550307,83.158447 C633.676615,83.3788814 631.802951,83.6544202 629.929259,83.9850717 C628.165784,84.3157233 626.429889,84.7565854 624.721523,85.3076713 C623.013157,85.8587572 621.525247,86.602712 620.25775,87.539558 C618.990252,88.4764041 617.970758,89.661221 617.199238,91.0940443 C616.427718,92.5268677 616.041964,94.3454239 616.041964,96.5497675 C616.041964,98.6438939 616.427718,100.407342 617.199238,101.840166 C617.970758,103.272989 619.017806,104.402698 620.340412,105.229327 C621.663018,106.055956 623.206036,106.634587 624.969511,106.965239 C626.732985,107.295891 628.551542,107.461214 630.425234,107.461214 C635.054355,107.461214 638.63636,106.689705 641.171355,105.146665 C643.70635,103.603624 645.580014,101.757514 646.792403,99.608279 C648.004792,97.459044 648.748747,95.2822873 649.02429,93.0779437 C649.299833,90.8736001 649.437602,89.1101516 649.437602,87.7875455 L649.437602,79.0253234 Z M681.799944,35.3795381 L704.118812,35.3795381 L704.118812,51.2507328 L704.449462,51.2507328 C705.551634,48.6055204 707.039543,46.1532249 708.913235,43.8937727 C710.786927,41.6343205 712.93613,39.7055488 715.360908,38.1073997 C717.785686,36.5092506 720.375751,35.2693259 723.131181,34.3875884 C725.88661,33.505851 728.752214,33.0649889 731.728078,33.0649889 C733.271118,33.0649889 734.979459,33.3405277 736.853151,33.8916136 L736.853151,55.7145062 C735.750979,55.4940719 734.428393,55.3011947 732.885352,55.1358689 C731.342312,54.9705432 729.854402,54.8878815 728.421579,54.8878815 C724.123109,54.8878815 720.485996,55.6042825 717.510132,57.0371058 C714.534269,58.4699292 712.137081,60.4262548 710.318497,62.9061413 C708.499914,65.3860279 707.204881,68.2791855 706.433361,71.5857009 C705.661841,74.8922163 705.276087,78.474221 705.276087,82.3318223 L705.276087,120.852534 L681.799944,120.852534 L681.799944,35.3795381 Z M762.949246,22.1535425 L739.473104,22.1535425 L739.473104,2.81052405 L762.949246,2.81052405 L762.949246,22.1535425 Z M739.473104,35.3795381 L762.949246,35.3795381 L762.949246,120.852534 L739.473104,120.852534 L739.473104,35.3795381 Z M790.997039,78.1986987 C790.997039,81.6154313 791.327685,84.949451 791.988988,88.2008578 C792.650291,91.4522646 793.780001,94.3729761 795.37815,96.9630799 C796.976299,99.5531836 799.097948,101.619725 801.74316,103.162765 C804.388372,104.705806 807.694838,105.477315 811.662657,105.477315 C815.630475,105.477315 818.964495,104.705806 821.664816,103.162765 C824.365137,101.619725 826.51434,99.5531836 828.112489,96.9630799 C829.710638,94.3729761 830.840347,91.4522646 831.50165,88.2008578 C832.162953,84.949451 832.4936,81.6154313 832.4936,78.1986987 C832.4936,74.7819661 832.162953,71.4203925 831.50165,68.1138771 C830.840347,64.8073617 829.710638,61.8866502 828.112489,59.351655 C826.51434,56.8166599 824.365137,54.7501187 821.664816,53.1519696 C818.964495,51.5538205 815.630475,50.7547579 811.662657,50.7547579 C807.694838,50.7547579 804.388372,51.5538205 801.74316,53.1519696 C799.097948,54.7501187 796.976299,56.8166599 795.37815,59.351655 C793.780001,61.8866502 792.650291,64.8073617 791.988988,68.1138771 C791.327685,71.4203925 790.997039,74.7819661 790.997039,78.1986987 Z M767.520897,78.1986987 C767.520897,71.3652335 768.567944,65.1656101 770.66207,59.5996424 C772.756197,54.0336748 775.732016,49.2944071 779.589617,45.3816972 C783.447219,41.4689873 788.076271,38.4380603 793.476913,36.2888253 C798.877555,34.1395903 804.939409,33.0649889 811.662657,33.0649889 C818.385905,33.0649889 824.475313,34.1395903 829.931063,36.2888253 C835.386813,38.4380603 840.04342,41.4689873 843.901021,45.3816972 C847.758622,49.2944071 850.734441,54.0336748 852.828568,59.5996424 C854.922694,65.1656101 855.969742,71.3652335 855.969742,78.1986987 C855.969742,85.0321639 854.922694,91.2042334 852.828568,96.7150925 C850.734441,102.225951 847.758622,106.937665 843.901021,110.850375 C840.04342,114.763085 835.386813,117.766458 829.931063,119.860585 C824.475313,121.954711 818.385905,123.001759 811.662657,123.001759 C804.939409,123.001759 798.877555,121.954711 793.476913,119.860585 C788.076271,117.766458 783.447219,114.763085 779.589617,110.850375 C775.732016,106.937665 772.756197,102.225951 770.66207,96.7150925 C768.567944,91.2042334 767.520897,85.0321639 767.520897,78.1986987 Z M901.723404,100.682891 C905.02992,100.682891 907.950631,100.021598 910.485626,98.6989918 C913.020622,97.3763856 915.114717,95.6129372 916.767974,93.4085936 C918.421232,91.20425 919.661157,88.6968467 920.487786,85.8863086 C921.314414,83.0757705 921.727723,80.1275051 921.727723,77.0414241 C921.727723,73.5144743 921.397076,70.1804546 920.735773,67.0392649 C920.07447,63.8980753 918.972315,61.1151332 917.429274,58.6903552 C915.886234,56.2655773 913.847246,54.3368055 911.312251,52.9039822 C908.777256,51.4711588 905.581006,50.7547579 901.723404,50.7547579 C898.416889,50.7547579 895.578839,51.4160511 893.20917,52.7386573 C890.8395,54.0612634 888.855621,55.8522657 887.257472,58.1117179 C885.659323,60.3711701 884.50206,62.961235 883.785648,65.8819903 C883.069236,68.8027456 882.711036,71.8612265 882.711036,75.0575247 C882.711036,78.1436058 883.014128,81.2020867 883.620323,84.2330592 C884.226517,87.2640316 885.273565,89.9918659 886.761497,92.4166439 C888.249429,94.8414219 890.205754,96.8253014 892.630532,98.3683419 C895.05531,99.9113824 898.086237,100.682891 901.723404,100.682891 Z M944.04659,115.396811 C944.04659,118.813544 943.578174,122.726195 942.641328,127.134882 C941.704482,131.543569 939.693049,135.649098 936.606968,139.451591 C933.520887,143.254083 929.057158,146.477887 923.215647,149.1231 C917.374137,151.768312 909.548834,153.090898 899.739505,153.090898 C895.551252,153.090898 891.2804,152.567375 886.926822,151.520312 C882.573243,150.473248 878.605484,148.847569 875.023426,146.643226 C871.441367,144.438882 868.465548,141.600832 866.095879,138.128991 C863.726209,134.65715 862.376069,130.496514 862.045418,125.646958 L885.356235,125.646958 C886.458407,130.055645 888.607609,133.114126 891.803908,134.822492 C895.000206,136.530858 898.692426,137.385029 902.880679,137.385029 C909.49371,137.385029 914.315639,135.401149 917.346612,131.433331 C920.377584,127.465512 921.83794,122.450706 921.727723,116.388761 L921.727723,105.146665 L921.397073,105.146665 C918.862078,109.665569 915.252519,112.999589 910.568289,115.148824 C905.884059,117.298059 900.951914,118.37266 895.771706,118.37266 C889.37911,118.37266 883.868334,117.242951 879.239212,114.983499 C874.61009,112.724047 870.807655,109.638012 867.831791,105.725302 C864.855927,101.812592 862.67917,97.2386476 861.301455,92.0033315 C859.923741,86.7680155 859.234894,81.2296852 859.234894,75.3881746 C859.234894,69.8773156 860.033956,64.5594164 861.632105,59.4343175 C863.230254,54.3092186 865.572334,49.790382 868.658415,45.8776721 C871.744497,41.9649621 875.574486,38.8513735 880.148499,36.5368127 C884.722512,34.2222519 889.985304,33.0649889 895.937031,33.0649889 C901.558108,33.0649889 906.490252,34.1120364 910.733614,36.2061628 C914.976975,38.3002892 918.531426,41.8271861 921.397073,46.7869593 L921.727723,46.7869593 L921.727723,35.3795381 L944.04659,35.3795381 L944.04659,115.396811 Z M974.425033,78.1986987 C974.425033,81.6154313 974.755679,84.949451 975.416983,88.2008578 C976.078286,91.4522646 977.207995,94.3729761 978.806144,96.9630799 C980.404293,99.5531836 982.525942,101.619725 985.171154,103.162765 C987.816367,104.705806 991.122832,105.477315 995.090651,105.477315 C999.058469,105.477315 1002.39249,104.705806 1005.09281,103.162765 C1007.79313,101.619725 1009.94233,99.5531836 1011.54048,96.9630799 C1013.13863,94.3729761 1014.26834,91.4522646 1014.92964,88.2008578 C1015.59095,84.949451 1015.92159,81.6154313 1015.92159,78.1986987 C1015.92159,74.7819661 1015.59095,71.4203925 1014.92964,68.1138771 C1014.26834,64.8073617 1013.13863,61.8866502 1011.54048,59.351655 C1009.94233,56.8166599 1007.79313,54.7501187 1005.09281,53.1519696 C1002.39249,51.5538205 999.058469,50.7547579 995.090651,50.7547579 C991.122832,50.7547579 987.816367,51.5538205 985.171154,53.1519696 C982.525942,54.7501187 980.404293,56.8166599 978.806144,59.351655 C977.207995,61.8866502 976.078286,64.8073617 975.416983,68.1138771 C974.755679,71.4203925 974.425033,74.7819661 974.425033,78.1986987 Z M950.948891,78.1986987 C950.948891,71.3652335 951.995938,65.1656101 954.090065,59.5996424 C956.184191,54.0336748 959.16001,49.2944071 963.017612,45.3816972 C966.875213,41.4689873 971.504265,38.4380603 976.904907,36.2888253 C982.305549,34.1395903 988.367403,33.0649889 995.090651,33.0649889 C1001.8139,33.0649889 1007.90331,34.1395903 1013.35906,36.2888253 C1018.81481,38.4380603 1023.47141,41.4689873 1027.32902,45.3816972 C1031.18662,49.2944071 1034.16244,54.0336748 1036.25656,59.5996424 C1038.35069,65.1656101 1039.39774,71.3652335 1039.39774,78.1986987 C1039.39774,85.0321639 1038.35069,91.2042334 1036.25656,96.7150925 C1034.16244,102.225951 1031.18662,106.937665 1027.32902,110.850375 C1023.47141,114.763085 1018.81481,117.766458 1013.35906,119.860585 C1007.90331,121.954711 1001.8139,123.001759 995.090651,123.001759 C988.367403,123.001759 982.305549,121.954711 976.904907,119.860585 C971.504265,117.766458 966.875213,114.763085 963.017612,110.850375 C959.16001,106.937665 956.184191,102.225951 954.090065,96.7150925 C951.995938,91.2042334 950.948891,85.0321639 950.948891,78.1986987 Z M1085.1514,100.682891 C1088.45791,100.682891 1091.37863,100.021598 1093.91362,98.6989918 C1096.44862,97.3763856 1098.54271,95.6129372 1100.19597,93.4085936 C1101.84923,91.20425 1103.08915,88.6968467 1103.91578,85.8863086 C1104.74241,83.0757705 1105.15572,80.1275051 1105.15572,77.0414241 C1105.15572,73.5144743 1104.82507,70.1804546 1104.16377,67.0392649 C1103.50246,63.8980753 1102.40031,61.1151332 1100.85727,58.6903552 C1099.31423,56.2655773 1097.27524,54.3368055 1094.74025,52.9039822 C1092.20525,51.4711588 1089.009,50.7547579 1085.1514,50.7547579 C1081.84488,50.7547579 1079.00683,51.4160511 1076.63716,52.7386573 C1074.26749,54.0612634 1072.28362,55.8522657 1070.68547,58.1117179 C1069.08732,60.3711701 1067.93005,62.961235 1067.21364,65.8819903 C1066.49723,68.8027456 1066.13903,71.8612265 1066.13903,75.0575247 C1066.13903,78.1436058 1066.44212,81.2020867 1067.04832,84.2330592 C1067.65451,87.2640316 1068.70156,89.9918659 1070.18949,92.4166439 C1071.67742,94.8414219 1073.63375,96.8253014 1076.05853,98.3683419 C1078.4833,99.9113824 1081.51423,100.682891 1085.1514,100.682891 Z M1127.47458,115.396811 C1127.47458,118.813544 1127.00617,122.726195 1126.06932,127.134882 C1125.13248,131.543569 1123.12104,135.649098 1120.03496,139.451591 C1116.94888,143.254083 1112.48515,146.477887 1106.64364,149.1231 C1100.80213,151.768312 1092.97683,153.090898 1083.1675,153.090898 C1078.97925,153.090898 1074.70839,152.567375 1070.35482,151.520312 C1066.00124,150.473248 1062.03348,148.847569 1058.45142,146.643226 C1054.86936,144.438882 1051.89354,141.600832 1049.52387,138.128991 C1047.1542,134.65715 1045.80406,130.496514 1045.47341,125.646958 L1068.78423,125.646958 C1069.8864,130.055645 1072.0356,133.114126 1075.2319,134.822492 C1078.4282,136.530858 1082.12042,137.385029 1086.30867,137.385029 C1092.9217,137.385029 1097.74363,135.401149 1100.77461,131.433331 C1103.80558,127.465512 1105.26593,122.450706 1105.15572,116.388761 L1105.15572,105.146665 L1104.82507,105.146665 C1102.29007,109.665569 1098.68051,112.999589 1093.99628,115.148824 C1089.31205,117.298059 1084.37991,118.37266 1079.1997,118.37266 C1072.8071,118.37266 1067.29633,117.242951 1062.66721,114.983499 C1058.03808,112.724047 1054.23565,109.638012 1051.25978,105.725302 C1048.28392,101.812592 1046.10716,97.2386476 1044.72945,92.0033315 C1043.35173,86.7680155 1042.66289,81.2296852 1042.66289,75.3881746 C1042.66289,69.8773156 1043.46195,64.5594164 1045.0601,59.4343175 C1046.65825,54.3092186 1049.00033,49.790382 1052.08641,45.8776721 C1055.17249,41.9649621 1059.00248,38.8513735 1063.57649,36.5368127 C1068.15051,34.2222519 1073.4133,33.0649889 1079.36503,33.0649889 C1084.9861,33.0649889 1089.91825,34.1120364 1094.16161,36.2061628 C1098.40497,38.3002892 1101.95942,41.8271861 1104.82507,46.7869593 L1105.15572,46.7869593 L1105.15572,35.3795381 L1127.47458,35.3795381 L1127.47458,115.396811 Z M1137.02208,2.81052405 L1160.49823,2.81052405 L1160.49823,47.2829341 L1160.9942,47.2829341 C1163.97006,42.323161 1167.7725,38.7136024 1172.40162,36.4541502 C1177.03074,34.194698 1181.54958,33.0649889 1185.95827,33.0649889 C1192.24065,33.0649889 1197.39322,33.9191592 1201.41615,35.6275255 C1205.43908,37.3358918 1208.60777,39.7055256 1210.92233,42.7364981 C1213.2369,45.7674706 1214.86257,49.4596908 1215.79942,53.8132694 C1216.73627,58.166848 1217.20468,62.9887773 1217.20468,68.279202 L1217.20468,120.852534 L1193.72854,120.852534 L1193.72854,72.5776506 C1193.72854,65.523751 1192.62638,60.2609596 1190.42204,56.7891184 C1188.2177,53.3172772 1184.30505,51.5813826 1178.68397,51.5813826 C1172.29137,51.5813826 1167.66232,53.4826005 1164.79667,57.2850932 C1161.93103,61.087586 1160.49823,67.3423171 1160.49823,76.0494744 L1160.49823,120.852534 L1137.02208,120.852534 L1137.02208,2.81052405 Z M1226.75218,95.3924929 L1252.7082,95.3924929 L1252.7082,120.852534 L1226.75218,120.852534 L1226.75218,95.3924929 Z M1320.6154,65.468678 C1319.07236,55.6593489 1313.28605,50.7547579 1303.25628,50.7547579 C1299.5089,50.7547579 1296.36776,51.6089283 1293.83276,53.3172946 C1291.29777,55.0256609 1289.23123,57.2299714 1287.63308,59.9302923 C1286.03493,62.6306133 1284.90522,65.6064325 1284.24392,68.8578393 C1283.58261,72.1092462 1283.25197,75.3330503 1283.25197,78.5293486 C1283.25197,81.6154296 1283.58261,84.7565722 1284.24392,87.9528704 C1284.90522,91.1491686 1285.97982,94.0423262 1287.46775,96.63243 C1288.95568,99.2225337 1290.96712,101.344183 1293.50211,102.99744 C1296.03711,104.650698 1299.12314,105.477315 1302.76031,105.477315 C1308.38139,105.477315 1312.70734,103.906743 1315.73832,100.765554 C1318.76929,97.6243639 1320.67051,93.40862 1321.44203,88.1181953 L1344.09155,88.1181953 C1342.5485,99.470565 1338.13988,108.122484 1330.86555,114.074212 C1323.59122,120.025939 1314.278,123.001759 1302.92563,123.001759 C1296.53304,123.001759 1290.66406,121.927157 1285.31853,119.777922 C1279.97299,117.628687 1275.4266,114.625314 1271.67922,110.767713 C1267.93184,106.910111 1265.01112,102.308613 1262.917,96.9630799 C1260.82287,91.6175466 1259.77582,85.7485698 1259.77582,79.3559733 C1259.77582,72.7429425 1260.74021,66.5984268 1262.66901,60.922242 C1264.59781,55.2460572 1267.43586,50.3414662 1271.18324,46.2083219 C1274.93063,42.0751777 1279.50457,38.8513735 1284.90522,36.5368127 C1290.30586,34.2222519 1296.47793,33.0649889 1303.42161,33.0649889 C1308.4916,33.0649889 1313.36864,33.726282 1318.05287,35.0488882 C1322.7371,36.3714944 1326.92529,38.3829277 1330.61756,41.0832487 C1334.30984,43.7835696 1337.31321,47.1451432 1339.62777,51.1680703 C1341.94233,55.1909974 1343.26492,59.9578189 1343.59557,65.468678 L1320.6154,65.468678 Z M1368.84894,78.1986987 C1368.84894,81.6154313 1369.17959,84.949451 1369.84089,88.2008578 C1370.50219,91.4522646 1371.6319,94.3729761 1373.23005,96.9630799 C1374.8282,99.5531836 1376.94985,101.619725 1379.59506,103.162765 C1382.24027,104.705806 1385.54674,105.477315 1389.51456,105.477315 C1393.48238,105.477315 1396.8164,104.705806 1399.51672,103.162765 C1402.21704,101.619725 1404.36624,99.5531836 1405.96439,96.9630799 C1407.56254,94.3729761 1408.69225,91.4522646 1409.35355,88.2008578 C1410.01485,84.949451 1410.3455,81.6154313 1410.3455,78.1986987 C1410.3455,74.7819661 1410.01485,71.4203925 1409.35355,68.1138771 C1408.69225,64.8073617 1407.56254,61.8866502 1405.96439,59.351655 C1404.36624,56.8166599 1402.21704,54.7501187 1399.51672,53.1519696 C1396.8164,51.5538205 1393.48238,50.7547579 1389.51456,50.7547579 C1385.54674,50.7547579 1382.24027,51.5538205 1379.59506,53.1519696 C1376.94985,54.7501187 1374.8282,56.8166599 1373.23005,59.351655 C1371.6319,61.8866502 1370.50219,64.8073617 1369.84089,68.1138771 C1369.17959,71.4203925 1368.84894,74.7819661 1368.84894,78.1986987 Z M1345.3728,78.1986987 C1345.3728,71.3652335 1346.41985,65.1656101 1348.51397,59.5996424 C1350.6081,54.0336748 1353.58392,49.2944071 1357.44152,45.3816972 C1361.29912,41.4689873 1365.92817,38.4380603 1371.32881,36.2888253 C1376.72946,34.1395903 1382.79131,33.0649889 1389.51456,33.0649889 C1396.23781,33.0649889 1402.32721,34.1395903 1407.78296,36.2888253 C1413.23871,38.4380603 1417.89532,41.4689873 1421.75292,45.3816972 C1425.61052,49.2944071 1428.58634,54.0336748 1430.68047,59.5996424 C1432.7746,65.1656101 1433.82164,71.3652335 1433.82164,78.1986987 C1433.82164,85.0321639 1432.7746,91.2042334 1430.68047,96.7150925 C1428.58634,102.225951 1425.61052,106.937665 1421.75292,110.850375 C1417.89532,114.763085 1413.23871,117.766458 1407.78296,119.860585 C1402.32721,121.954711 1396.23781,123.001759 1389.51456,123.001759 C1382.79131,123.001759 1376.72946,121.954711 1371.32881,119.860585 C1365.92817,117.766458 1361.29912,114.763085 1357.44152,110.850375 C1353.58392,106.937665 1350.6081,102.225951 1348.51397,96.7150925 C1346.41985,91.2042334 1345.3728,85.0321639 1345.3728,78.1986987 Z M1440.39329,35.3795381 L1462.54684,35.3795381 L1462.54684,46.9522842 L1462.87749,46.9522842 C1465.96357,42.543597 1469.68334,39.1269156 1474.03692,36.7021376 C1478.3905,34.2773597 1483.37775,33.0649889 1488.99883,33.0649889 C1494.39947,33.0649889 1499.33161,34.1120364 1503.79541,36.2061628 C1508.25921,38.3002892 1511.64833,41.9925094 1513.96289,47.2829341 C1516.49789,43.5355499 1519.94212,40.2290841 1524.2957,37.3634374 C1528.64928,34.4977907 1533.80186,33.0649889 1539.75359,33.0649889 C1544.27249,33.0649889 1548.46068,33.6160665 1552.31828,34.7182383 C1556.17588,35.8204101 1559.48235,37.5838586 1562.23778,40.0086365 C1564.99321,42.4334145 1567.14241,45.6021109 1568.68545,49.5148208 C1570.22849,53.4275307 1571,58.1392445 1571,63.6501036 L1571,120.852534 L1547.52386,120.852534 L1547.52386,72.4123256 C1547.52386,69.5466789 1547.41364,66.8463985 1547.19321,64.3114034 C1546.97277,61.7764082 1546.36659,59.5720977 1545.37463,57.6984056 C1544.38268,55.8247135 1542.92232,54.3368039 1540.99352,53.2346321 C1539.06472,52.1324603 1536.4471,51.5813826 1533.14059,51.5813826 C1529.83407,51.5813826 1527.16135,52.2151219 1525.12233,53.4826195 C1523.08331,54.7501171 1521.48518,56.40335 1520.3279,58.4423678 C1519.17062,60.4813857 1518.39912,62.7959117 1518.01336,65.3860155 C1517.6276,67.9761192 1517.43472,70.593738 1517.43472,73.2389504 L1517.43472,120.852534 L1493.95858,120.852534 L1493.95858,72.9083005 C1493.95858,70.3733053 1493.90347,67.8659021 1493.79325,65.3860155 C1493.68303,62.9061289 1493.21462,60.6191567 1492.38799,58.5250303 C1491.56136,56.4309039 1490.18367,54.7501171 1488.25487,53.4826195 C1486.32606,52.2151219 1483.48801,51.5813826 1479.74063,51.5813826 C1478.63846,51.5813826 1477.1781,51.8293676 1475.35952,52.3253449 C1473.54094,52.8213222 1471.77749,53.7581542 1470.06912,55.1358689 C1468.36076,56.5135837 1466.9004,58.4974632 1465.68801,61.0875669 C1464.47562,63.6776707 1463.86944,67.0667982 1463.86944,71.255051 L1463.86944,120.852534 L1440.39329,120.852534 L1440.39329,35.3795381 Z" id="hello@mariogogh.com" fill="#000000"></path>
    </g>
</svg>