<?xml version="1.0" encoding="UTF-8"?>
<svg width="20px" height="20px" viewBox="0 0 20 20" version="1.1" xmlns="http://www.w3.org/2000/svg" xmlns:xlink="http://www.w3.org/1999/xlink">
    <!-- Generator: Sketch 49.3 (51167) - http://www.bohemiancoding.com/sketch -->
    <desc>Created with Sketch.</desc>
    <defs></defs>
    <g id="Mariogogh_Index" stroke="none" stroke-width="1" fill="none" fill-rule="evenodd">
        <g id="Hove">
            <g id="Group">
                <circle id="Oval-2" fill="#EF5350" cx="9.8" cy="9.8" r="9.8"></circle>
                <path d="M14,6.83125 C13.7732645,7.18854345 13.4991556,7.49296749 13.177665,7.74453125 C13.1810491,7.79557317 13.1827411,7.87213491 13.1827411,7.97421875 C13.1827411,8.44817945 13.118444,8.9212216 12.9898477,9.39335937 C12.8612515,9.86549715 12.665822,10.3184874 12.4035533,10.7523438 C12.1412846,11.1862001 11.829105,11.5699202 11.4670051,11.9035156 C11.1049051,12.237111 10.6683613,12.5032542 10.1573604,12.7019531 C9.64635954,12.900652 9.09983371,13 8.5177665,13 C7.60067223,13 6.76142513,12.7356797 6,12.2070312 C6.11844391,12.2216147 6.25042228,12.2289062 6.39593909,12.2289062 C7.15736421,12.2289062 7.83586843,11.9773463 8.43147208,11.4742188 C8.07614036,11.466927 7.75803863,11.3493501 7.47715736,11.1214844 C7.19627609,10.8936187 7.00338462,10.6028664 6.89847716,10.2492188 C7.01015284,10.267448 7.1133667,10.2765625 7.20812183,10.2765625 C7.35363863,10.2765625 7.49746122,10.2565106 7.63959391,10.2164063 C7.2605734,10.1325517 6.94670175,9.92929849 6.69796954,9.60664063 C6.44923734,9.28398276 6.3248731,8.90937713 6.3248731,8.4828125 L6.3248731,8.4609375 C6.55499269,8.59947986 6.80202914,8.6742187 7.06598985,8.68515625 C6.84263848,8.52473878 6.66497528,8.31510546 6.53299492,8.05625 C6.40101457,7.79739454 6.33502538,7.51666818 6.33502538,7.2140625 C6.33502538,6.89322756 6.40947472,6.59609512 6.55837563,6.32265625 C6.96785315,6.86588813 7.46615612,7.30064941 8.05329949,7.62695312 C8.64044287,7.95325684 9.26903218,8.13463523 9.93908629,8.17109375 C9.9120134,8.03255139 9.89847716,7.89765691 9.89847716,7.76640625 C9.89847716,7.27786214 10.058374,6.86132985 10.3781726,6.51679687 C10.6979711,6.1722639 11.0846001,6 11.5380711,6 C12.0118467,6 12.4111659,6.18593564 12.7360406,6.5578125 C13.1049088,6.48124962 13.451775,6.33906354 13.7766497,6.13125 C13.6514376,6.55052293 13.4111693,6.87499885 13.0558376,7.1046875 C13.3705599,7.06822898 13.6852776,6.97708406 14,6.83125 Z" id="twitter---FontAwesome" fill="#FFFFFF"></path>
            </g>
        </g>
    </g>
</svg>