<?xml version="1.0" encoding="UTF-8"?>
<svg width="34.3095703px" height="51.1px" viewBox="0 0 34.3095703 51.1" version="1.1" xmlns="http://www.w3.org/2000/svg" xmlns:xlink="http://www.w3.org/1999/xlink">
    <!-- Generator: Sketch 49.3 (51167) - http://www.bohemiancoding.com/sketch -->
    <desc>Created with Sketch.</desc>
    <defs></defs>
    <g id="Mariogogh_Index" stroke="none" stroke-width="1" fill="none" fill-rule="evenodd">
        <g id="Logo-MG-white1@3x" fill-rule="nonzero">
            <g id="-Logo-Mariogogh-Hover" transform="translate(1.400000, 2.100000)" fill="#EF5350">
                <g id="Group">
                    <path d="M19.6496899,22.0079115 C19.8993141,22.1043802 20.159809,22.1534053 20.4247327,22.1534053 C21.3012357,22.1534053 22.0750706,21.6358744 22.396361,20.8352632 C22.6037102,20.3181277 22.5936447,19.7531532 22.3681777,19.2435296 C22.2022984,18.8691203 21.9345563,18.5579692 21.5955506,18.3385425 L19.035695,21.5085673 C18.9728863,21.5860586 18.9072593,21.6611777 18.838814,21.7331338 C19.1125954,21.8133926 19.3827531,21.9047216 19.6496899,22.0079115 Z M10.4663388,18.236934 C9.29511832,18.71651 8.18952482,19.3510685 7.17250764,20.1279579 C3.68018498,22.7970571 1.65903444,26.8084156 1.62803273,31.1332974 C1.62776432,31.1493755 1.62682487,31.1828496 1.62521439,31.2337197 C1.62521439,38.9919384 8.05303677,45.3039174 15.9536417,45.3039174 C23.8498179,45.3039174 30.2748219,38.999055 30.2820691,31.2463713 C30.2466386,30.042094 29.3177951,29.1541075 28.1638872,29.1541075 L15.9536417,29.1541075 C14.7860448,29.1541075 13.8358625,30.08677 13.8358625,31.2337197 C13.8358625,32.3806693 14.7860448,33.3137273 15.9536417,33.3137273 L25.8874759,33.3137273 L25.5303522,34.3638128 C24.1525879,38.4198474 20.3043495,41.144693 15.9536417,41.144693 C10.3886332,41.144693 5.86117551,36.69883 5.86117551,31.2337197 C5.86117551,26.6668754 9.02335008,22.8112902 13.3112491,21.6675035 C13.2746107,21.6271764 13.2387776,21.5860586 13.2037497,21.5437547 L10.4663388,18.236934 Z M-0.000161047852,31.2337197 C-0.000161047852,31.2147422 0.000778397949,31.1774463 0.00265728955,31.1218318 C0.0376851973,26.3059086 2.28712106,21.839882 6.1748162,18.8683296 C7.4772907,17.8728042 8.91262968,17.0872169 10.4409738,16.5329172 L10.9861208,16.33484 L14.4643517,20.5363684 C14.872608,21.0289914 15.486603,21.3231418 16.1054293,21.3231418 C16.7407631,21.3231418 17.3539528,21.0214795 17.7630144,20.5162048 L21.0946918,16.3897956 L21.6970108,16.6163389 C21.7308308,16.6281998 21.7650535,16.6404561 21.7988735,16.6535031 C22.727717,17.0128885 23.4600821,17.7067515 23.8582729,18.6069943 C24.2568664,19.5072371 24.2749842,20.5063208 23.9086004,21.4200059 C23.3413093,22.835012 21.9736104,23.7494879 20.4247327,23.7494879 C19.9552782,23.7494879 19.4942788,23.6629033 19.0542155,23.4932923 C18.0694079,23.1121618 17.0262204,22.9192245 15.9536417,22.9192245 C11.2844619,22.9192245 7.48655095,26.6490841 7.48655095,31.2337197 C7.48655095,35.8183553 11.2844619,39.5486104 15.9536417,39.5486104 C19.2140555,39.5486104 22.1382819,37.7244029 23.5494637,34.9094146 L15.9536417,34.9094146 C13.8898135,34.9094146 12.2104871,33.2607486 12.2104871,31.2337197 C12.2104871,29.2070862 13.8898135,27.5580248 15.9536417,27.5580248 L28.1638872,27.5580248 C30.2043635,27.5580248 31.8470516,29.1280135 31.9026131,31.1317159 C31.9054314,31.1665079 31.9074445,31.1997184 31.9074445,31.2337197 C31.9074445,39.8720177 24.750478,46.9 15.9536417,46.9 C7.15680548,46.9 -0.000161047852,39.8720177 -0.000161047852,31.2337197 Z" id="Fill-1"></path>
                    <path d="M26.046269,27.7045071 L28.1640483,27.7045071 C28.9523775,27.7045071 29.681119,27.93599 30.2822301,28.3337657 L30.2822301,4.00465332 C30.2822301,3.13259145 29.7117181,2.353435 28.8621907,2.06613083 C28.6367237,1.99001084 28.4019965,1.95097494 28.1644509,1.95097494 C27.5150254,1.95097494 26.9106934,2.23398517 26.5068659,2.72700851 L16.0850568,15.438657 L5.38503754,2.70749056 C4.98121005,2.22695871 4.38251466,1.9513653 3.74275207,1.9513653 C3.50077767,1.9513653 3.26162161,1.99118191 3.03293366,2.07042477 C2.19105602,2.36085183 1.62537544,3.13805648 1.62537544,4.00465332 L1.62537544,24.8791324 C2.6214564,22.9132848 4.05437966,21.1523756 5.86093394,19.7189775 L5.86093394,9.77103556 L14.4641102,20.032401 C14.8727691,20.5187882 15.4863614,20.8092153 16.1055904,20.8092153 C16.7409242,20.8092153 17.3541139,20.5113714 17.7631754,20.0124927 L26.046269,9.88345891 L26.046269,27.7045071 Z M30.278204,31.4720022 C30.3724925,29.2242485 29.3179561,28.5410547 28.1640483,28.5410547 L24.4208936,28.5410547 L24.4208936,14.4073287 L19.0358561,20.9922936 C18.3212062,21.8647458 17.2321201,22.3850943 16.1233057,22.3850943 C14.9863078,22.3850943 13.9286261,21.8901192 13.2039107,21.0274259 L7.48630938,14.2078553 L7.48630938,19.3926027 L7.17266869,19.6295505 C3.67994341,22.2644734 1.65919549,26.2250552 1.62819378,30.4951916 L0.0028183374,30.5006566 L0,4.00465332 C0,2.4732752 0.999704539,1.09921173 2.48818931,0.585499373 C2.89282203,0.446141231 3.3147674,0.375486263 3.74275207,0.375486263 C4.87371061,0.375486263 5.93139237,0.862654218 6.64483436,1.71246563 L16.0693546,12.9251358 L25.2341852,1.74642686 C25.9484325,0.875145706 27.0165823,0.375486263 28.1644509,0.375486263 C28.5847858,0.375486263 28.999484,0.443799078 29.3976748,0.578472912 C30.8990434,1.08632989 31.9076056,2.46351623 31.9076056,4.00465332 L31.9076056,30.4366378 C31.9076056,30.4702086 31.9055925,31.438041 31.9031768,31.4708312 L30.278204,31.4720022 Z" id="Fill-4"></path>
                    <path d="M28.4477514,3.25070868 C28.1639501,3.15303739 27.844275,3.24678613 27.6597244,3.47507806 L16.2486788,17.6025041 L4.54466416,3.46840974 C4.35851918,3.2436481 4.03884409,3.1538219 3.75703575,3.25266994 C3.4764232,3.35073349 3.28669085,3.61472054 3.28669085,3.90930342 L3.28669085,19.3782388 C3.30223615,19.3613718 3.31818004,19.3448972 3.33372534,19.3280302 C3.39192055,19.2652696 3.45091297,19.2029011 3.51030398,19.1409249 C3.56331742,19.0844404 3.61633087,19.0283481 3.67093872,18.9730402 C3.72993113,18.9122408 3.79011933,18.8522259 3.85030754,18.7926033 C3.90611116,18.7369032 3.9615162,18.6812031 4.01851562,18.6262875 C4.07910243,18.5674494 4.14128361,18.5097881 4.20266761,18.4517344 C4.26046423,18.3972111 4.31786225,18.3426877 4.37645607,18.2889489 C4.43903585,18.2320721 4.50241283,18.176372 4.56539122,18.1202796 C4.61162851,18.079093 4.65706862,18.0367295 4.7041031,17.9959351 L4.7041031,5.85723761 L11.6305296,14.242455 L15.7077822,19.1785813 C15.85048,19.3507809 16.0553591,19.4547283 16.255455,19.4547283 L16.2729933,19.4547283 C16.462327,19.4547283 16.6680032,19.3456817 16.8099039,19.1699518 L20.7468502,14.2836416 L27.5058658,5.89489402 L27.5058658,25.6515596 L28.2141733,25.6515596 C28.3221932,25.6515596 28.4282201,25.6558744 28.534247,25.6621505 C28.5641418,25.6637195 28.5940366,25.6664653 28.62433,25.6684265 C28.7068397,25.6747027 28.7889508,25.68294 28.8710618,25.6931386 C28.8878029,25.6954921 28.9057398,25.6962766 28.9228795,25.6986301 L28.9228795,3.90930342 C28.9228795,3.61275927 28.7319513,3.34837996 28.4477514,3.25070868" id="Fill-7"></path>
                    <path d="M28.2141733,30.4145489 L23.110134,30.4145489 L16.1047852,30.4145489 C15.7141597,30.4145489 15.3964776,30.7262733 15.3964776,31.1099641 C15.3964776,31.4932638 15.7141597,31.8053794 16.1047852,31.8053794 L27.8877221,31.8053794 L26.9227179,34.643753 C25.3661951,39.221447 21.0190922,42.2968407 16.1047852,42.2968407 C9.81850596,42.2968407 4.7041031,37.2783521 4.7041031,31.1099641 C4.7041031,26.6707273 7.35278263,22.8267785 11.1813104,21.0205763 L11.173737,21.0119716 L10.2665295,19.9164384 C9.5622079,20.2727506 8.88977409,20.6947715 8.25520711,21.1789808 L8.25161975,21.1821098 C6.37103732,22.6175281 4.96757597,24.4874833 4.14128361,26.5909384 C4.02369739,26.8913203 3.91727189,27.1963955 3.82320291,27.5057732 C3.48080777,28.6310317 3.29825017,29.8118296 3.28948103,31.0196149 C3.28948103,31.0567715 3.28828524,31.0935369 3.28669085,31.1303024 C3.29785158,38.0559029 9.0436327,43.6876712 16.1047852,43.6876712 C23.1547769,43.6876712 28.8933833,38.0738945 28.9228795,31.1635479 C28.9212851,31.1396894 28.9200893,31.116222 28.9200893,31.0927547 C28.9089286,30.7110195 28.5992184,30.4145489 28.2141733,30.4145489" id="Fill-9"></path>
                    <path d="M21.6299208,20.7128733 C21.716804,20.5212829 21.7125374,20.3117836 21.6182846,20.1225586 C21.5798853,20.0461927 21.5286863,19.9769228 21.4666268,19.9164384 L20.3774833,21.1129492 C20.4123917,21.1244379 20.4473001,21.1359266 20.4818207,21.1477531 C20.9360184,21.303526 21.4511119,21.1082186 21.6299208,20.7128733" id="Fill-11"></path>
                </g>
            </g>
            <g id="-Logo-Mariogogh-Active" transform="translate(1.400000, 2.100000)" fill="#000000">
                <g id="Group">
                    <path d="M19.6496899,22.0079115 C19.8993141,22.1043802 20.159809,22.1534053 20.4247327,22.1534053 C21.3012357,22.1534053 22.0750706,21.6358744 22.396361,20.8352632 C22.6037102,20.3181277 22.5936447,19.7531532 22.3681777,19.2435296 C22.2022984,18.8691203 21.9345563,18.5579692 21.5955506,18.3385425 L19.035695,21.5085673 C18.9728863,21.5860586 18.9072593,21.6611777 18.838814,21.7331338 C19.1125954,21.8133926 19.3827531,21.9047216 19.6496899,22.0079115 Z M10.4663388,18.236934 C9.29511832,18.71651 8.18952482,19.3510685 7.17250764,20.1279579 C3.68018498,22.7970571 1.65903444,26.8084156 1.62803273,31.1332974 C1.62776432,31.1493755 1.62682487,31.1828496 1.62521439,31.2337197 C1.62521439,38.9919384 8.05303677,45.3039174 15.9536417,45.3039174 C23.8498179,45.3039174 30.2748219,38.999055 30.2820691,31.2463713 C30.2466386,30.042094 29.3177951,29.1541075 28.1638872,29.1541075 L15.9536417,29.1541075 C14.7860448,29.1541075 13.8358625,30.08677 13.8358625,31.2337197 C13.8358625,32.3806693 14.7860448,33.3137273 15.9536417,33.3137273 L25.8874759,33.3137273 L25.5303522,34.3638128 C24.1525879,38.4198474 20.3043495,41.144693 15.9536417,41.144693 C10.3886332,41.144693 5.86117551,36.69883 5.86117551,31.2337197 C5.86117551,26.6668754 9.02335008,22.8112902 13.3112491,21.6675035 C13.2746107,21.6271764 13.2387776,21.5860586 13.2037497,21.5437547 L10.4663388,18.236934 Z M-0.000161047852,31.2337197 C-0.000161047852,31.2147422 0.000778397949,31.1774463 0.00265728955,31.1218318 C0.0376851973,26.3059086 2.28712106,21.839882 6.1748162,18.8683296 C7.4772907,17.8728042 8.91262968,17.0872169 10.4409738,16.5329172 L10.9861208,16.33484 L14.4643517,20.5363684 C14.872608,21.0289914 15.486603,21.3231418 16.1054293,21.3231418 C16.7407631,21.3231418 17.3539528,21.0214795 17.7630144,20.5162048 L21.0946918,16.3897956 L21.6970108,16.6163389 C21.7308308,16.6281998 21.7650535,16.6404561 21.7988735,16.6535031 C22.727717,17.0128885 23.4600821,17.7067515 23.8582729,18.6069943 C24.2568664,19.5072371 24.2749842,20.5063208 23.9086004,21.4200059 C23.3413093,22.835012 21.9736104,23.7494879 20.4247327,23.7494879 C19.9552782,23.7494879 19.4942788,23.6629033 19.0542155,23.4932923 C18.0694079,23.1121618 17.0262204,22.9192245 15.9536417,22.9192245 C11.2844619,22.9192245 7.48655095,26.6490841 7.48655095,31.2337197 C7.48655095,35.8183553 11.2844619,39.5486104 15.9536417,39.5486104 C19.2140555,39.5486104 22.1382819,37.7244029 23.5494637,34.9094146 L15.9536417,34.9094146 C13.8898135,34.9094146 12.2104871,33.2607486 12.2104871,31.2337197 C12.2104871,29.2070862 13.8898135,27.5580248 15.9536417,27.5580248 L28.1638872,27.5580248 C30.2043635,27.5580248 31.8470516,29.1280135 31.9026131,31.1317159 C31.9054314,31.1665079 31.9074445,31.1997184 31.9074445,31.2337197 C31.9074445,39.8720177 24.750478,46.9 15.9536417,46.9 C7.15680548,46.9 -0.000161047852,39.8720177 -0.000161047852,31.2337197 Z" id="Fill-1"></path>
                    <path d="M26.046269,27.7045071 L28.1640483,27.7045071 C28.9523775,27.7045071 29.681119,27.93599 30.2822301,28.3337657 L30.2822301,4.00465332 C30.2822301,3.13259145 29.7117181,2.353435 28.8621907,2.06613083 C28.6367237,1.99001084 28.4019965,1.95097494 28.1644509,1.95097494 C27.5150254,1.95097494 26.9106934,2.23398517 26.5068659,2.72700851 L16.0850568,15.438657 L5.38503754,2.70749056 C4.98121005,2.22695871 4.38251466,1.9513653 3.74275207,1.9513653 C3.50077767,1.9513653 3.26162161,1.99118191 3.03293366,2.07042477 C2.19105602,2.36085183 1.62537544,3.13805648 1.62537544,4.00465332 L1.62537544,24.8791324 C2.6214564,22.9132848 4.05437966,21.1523756 5.86093394,19.7189775 L5.86093394,9.77103556 L14.4641102,20.032401 C14.8727691,20.5187882 15.4863614,20.8092153 16.1055904,20.8092153 C16.7409242,20.8092153 17.3541139,20.5113714 17.7631754,20.0124927 L26.046269,9.88345891 L26.046269,27.7045071 Z M30.278204,31.4720022 C30.3724925,29.2242485 29.3179561,28.5410547 28.1640483,28.5410547 L24.4208936,28.5410547 L24.4208936,14.4073287 L19.0358561,20.9922936 C18.3212062,21.8647458 17.2321201,22.3850943 16.1233057,22.3850943 C14.9863078,22.3850943 13.9286261,21.8901192 13.2039107,21.0274259 L7.48630938,14.2078553 L7.48630938,19.3926027 L7.17266869,19.6295505 C3.67994341,22.2644734 1.65919549,26.2250552 1.62819378,30.4951916 L0.0028183374,30.5006566 L0,4.00465332 C0,2.4732752 0.999704539,1.09921173 2.48818931,0.585499373 C2.89282203,0.446141231 3.3147674,0.375486263 3.74275207,0.375486263 C4.87371061,0.375486263 5.93139237,0.862654218 6.64483436,1.71246563 L16.0693546,12.9251358 L25.2341852,1.74642686 C25.9484325,0.875145706 27.0165823,0.375486263 28.1644509,0.375486263 C28.5847858,0.375486263 28.999484,0.443799078 29.3976748,0.578472912 C30.8990434,1.08632989 31.9076056,2.46351623 31.9076056,4.00465332 L31.9076056,30.4366378 C31.9076056,30.4702086 31.9055925,31.438041 31.9031768,31.4708312 L30.278204,31.4720022 Z" id="Fill-4"></path>
                    <path d="M28.4477514,3.25070868 C28.1639501,3.15303739 27.844275,3.24678613 27.6597244,3.47507806 L16.2486788,17.6025041 L4.54466416,3.46840974 C4.35851918,3.2436481 4.03884409,3.1538219 3.75703575,3.25266994 C3.4764232,3.35073349 3.28669085,3.61472054 3.28669085,3.90930342 L3.28669085,19.3782388 C3.30223615,19.3613718 3.31818004,19.3448972 3.33372534,19.3280302 C3.39192055,19.2652696 3.45091297,19.2029011 3.51030398,19.1409249 C3.56331742,19.0844404 3.61633087,19.0283481 3.67093872,18.9730402 C3.72993113,18.9122408 3.79011933,18.8522259 3.85030754,18.7926033 C3.90611116,18.7369032 3.9615162,18.6812031 4.01851562,18.6262875 C4.07910243,18.5674494 4.14128361,18.5097881 4.20266761,18.4517344 C4.26046423,18.3972111 4.31786225,18.3426877 4.37645607,18.2889489 C4.43903585,18.2320721 4.50241283,18.176372 4.56539122,18.1202796 C4.61162851,18.079093 4.65706862,18.0367295 4.7041031,17.9959351 L4.7041031,5.85723761 L11.6305296,14.242455 L15.7077822,19.1785813 C15.85048,19.3507809 16.0553591,19.4547283 16.255455,19.4547283 L16.2729933,19.4547283 C16.462327,19.4547283 16.6680032,19.3456817 16.8099039,19.1699518 L20.7468502,14.2836416 L27.5058658,5.89489402 L27.5058658,25.6515596 L28.2141733,25.6515596 C28.3221932,25.6515596 28.4282201,25.6558744 28.534247,25.6621505 C28.5641418,25.6637195 28.5940366,25.6664653 28.62433,25.6684265 C28.7068397,25.6747027 28.7889508,25.68294 28.8710618,25.6931386 C28.8878029,25.6954921 28.9057398,25.6962766 28.9228795,25.6986301 L28.9228795,3.90930342 C28.9228795,3.61275927 28.7319513,3.34837996 28.4477514,3.25070868" id="Fill-7"></path>
                    <path d="M28.2141733,30.4145489 L23.110134,30.4145489 L16.1047852,30.4145489 C15.7141597,30.4145489 15.3964776,30.7262733 15.3964776,31.1099641 C15.3964776,31.4932638 15.7141597,31.8053794 16.1047852,31.8053794 L27.8877221,31.8053794 L26.9227179,34.643753 C25.3661951,39.221447 21.0190922,42.2968407 16.1047852,42.2968407 C9.81850596,42.2968407 4.7041031,37.2783521 4.7041031,31.1099641 C4.7041031,26.6707273 7.35278263,22.8267785 11.1813104,21.0205763 L11.173737,21.0119716 L10.2665295,19.9164384 C9.5622079,20.2727506 8.88977409,20.6947715 8.25520711,21.1789808 L8.25161975,21.1821098 C6.37103732,22.6175281 4.96757597,24.4874833 4.14128361,26.5909384 C4.02369739,26.8913203 3.91727189,27.1963955 3.82320291,27.5057732 C3.48080777,28.6310317 3.29825017,29.8118296 3.28948103,31.0196149 C3.28948103,31.0567715 3.28828524,31.0935369 3.28669085,31.1303024 C3.29785158,38.0559029 9.0436327,43.6876712 16.1047852,43.6876712 C23.1547769,43.6876712 28.8933833,38.0738945 28.9228795,31.1635479 C28.9212851,31.1396894 28.9200893,31.116222 28.9200893,31.0927547 C28.9089286,30.7110195 28.5992184,30.4145489 28.2141733,30.4145489" id="Fill-9"></path>
                    <path d="M21.6299208,20.7128733 C21.716804,20.5212829 21.7125374,20.3117836 21.6182846,20.1225586 C21.5798853,20.0461927 21.5286863,19.9769228 21.4666268,19.9164384 L20.3774833,21.1129492 C20.4123917,21.1244379 20.4473001,21.1359266 20.4818207,21.1477531 C20.9360184,21.303526 21.4511119,21.1082186 21.6299208,20.7128733" id="Fill-11"></path>
                </g>
            </g>
        </g>
    </g>
</svg>