<?xml version="1.0" encoding="UTF-8"?>
<svg width="49px" height="73px" viewBox="0 0 49 73" version="1.1" xmlns="http://www.w3.org/2000/svg" xmlns:xlink="http://www.w3.org/1999/xlink">
    <!-- Generator: Sketch 49.3 (51167) - http://www.bohemiancoding.com/sketch -->
    <desc>Created with Sketch.</desc>
    <defs></defs>
    <g id="Mariogogh_Index" stroke="none" stroke-width="1" fill="none" fill-rule="evenodd">
        <g id="Logo-MG-white1@3x" fill-rule="nonzero">
            <g id="-Logo-Mariogogh-Hover" transform="translate(2.000000, 3.000000)" fill="#EF5350">
                <g id="Group">
                    <path d="M28.062645,31.4398736 C28.419145,31.577686 28.79117,31.6477218 29.16952,31.6477218 C30.421295,31.6477218 31.526445,30.908392 31.985295,29.7646618 C32.28142,29.0258967 32.267045,28.2187903 31.945045,27.4907566 C31.708145,26.9558862 31.32577,26.5113846 30.84162,26.1979178 L27.18577,30.7265248 C27.09607,30.8372266 27.002345,30.9445395 26.904595,31.047334 C27.295595,31.1619895 27.68142,31.2924594 28.062645,31.4398736 Z M14.94747,26.0527629 C13.274795,26.7378714 11.695845,27.6443836 10.243395,28.7542255 C5.255845,32.5672244 2.369345,38.2977366 2.32507,44.4761391 C2.32468667,44.4991078 2.323345,44.546928 2.321045,44.6195996 C2.321045,55.7027692 11.50092,64.719882 22.784145,64.719882 C34.061045,64.719882 43.236895,55.7129357 43.247245,44.6376733 C43.196645,42.9172771 41.87012,41.6487249 40.22217,41.6487249 L22.784145,41.6487249 C21.116645,41.6487249 19.759645,42.9811001 19.759645,44.6195996 C19.759645,46.2580991 21.116645,47.591039 22.784145,47.591039 L36.97112,47.591039 L36.461095,49.0911612 C34.493445,54.8854963 28.997595,58.7781328 22.784145,58.7781328 C14.836495,58.7781328 8.37062,52.4268999 8.37062,44.6195996 C8.37062,38.0955363 12.88667,32.5875575 19.01042,30.9535764 C18.958095,30.8959663 18.90692,30.8372266 18.856895,30.7767924 L14.94747,26.0527629 Z M-0.00023,44.6195996 C-0.00023,44.5924889 0.00111166667,44.539209 0.003795,44.4597598 C0.05382,37.5798694 3.266345,31.1998314 8.818545,26.9547566 C10.67867,25.5325774 12.728545,24.4103098 14.911245,23.6184531 L15.689795,23.3354858 L20.65722,29.3376691 C21.24027,30.0414162 22.117145,30.4616312 23.00092,30.4616312 C23.90827,30.4616312 24.783995,30.0306849 25.368195,29.3088641 L30.12632,23.4139937 L30.98652,23.737627 C31.03482,23.7545711 31.083695,23.7720801 31.131995,23.7907187 C32.45852,24.3041264 33.504445,25.2953593 34.07312,26.5814204 C34.64237,27.8674816 34.668245,29.2947439 34.144995,30.6000084 C33.33482,32.6214457 31.381545,33.9278398 29.16952,33.9278398 C28.49907,33.9278398 27.840695,33.8041475 27.21222,33.5618461 C25.80577,33.017374 24.315945,32.7417493 22.784145,32.7417493 C16.11587,32.7417493 10.691895,38.0701201 10.691895,44.6195996 C10.691895,51.169079 16.11587,56.4980148 22.784145,56.4980148 C27.440495,56.4980148 31.61672,53.8920042 33.632095,49.8705922 L22.784145,49.8705922 C19.836695,49.8705922 17.43837,47.5153551 17.43837,44.6195996 C17.43837,41.7244089 19.836695,39.3686069 22.784145,39.3686069 L40.22217,39.3686069 C43.13627,39.3686069 45.48227,41.6114479 45.56162,44.4738799 C45.565645,44.5235827 45.56852,44.5710263 45.56852,44.6195996 C45.56852,56.9600253 35.34732,67 22.784145,67 C10.22097,67 -0.00023,56.9600253 -0.00023,44.6195996 Z" id="Fill-1"></path>
                    <path d="M37.1979,39.5778673 L40.2224,39.5778673 C41.34825,39.5778673 42.389,39.9085571 43.247475,40.4768082 L43.247475,5.72093331 C43.247475,4.47513064 42.4327,3.36205001 41.21945,2.95161547 C40.89745,2.84287262 40.562225,2.78710705 40.222975,2.78710705 C39.2955,2.78710705 38.432425,3.19140738 37.8557,3.89572645 L22.971825,22.0552243 L7.690625,3.86784366 C7.1139,3.18136958 6.258875,2.78766471 5.3452,2.78766471 C4.999625,2.78766471 4.658075,2.84454558 4.331475,2.95774967 C3.12915,3.37264547 2.321275,4.48293782 2.321275,5.72093331 L2.321275,35.5416177 C3.743825,32.7332639 5.79025,30.2176794 8.370275,28.1699679 L8.370275,13.9586222 L20.656875,28.6177157 C21.2405,29.3125546 22.1168,29.7274504 23.00115,29.7274504 C23.9085,29.7274504 24.784225,29.3019592 25.368425,28.5892753 L37.1979,14.119227 L37.1979,39.5778673 Z M43.241725,44.9600031 C43.376383,41.7489264 41.87035,40.7729354 40.2224,40.7729354 L34.876625,40.7729354 L34.876625,20.5818981 L27.186,29.9889909 C26.165375,31.2353512 24.61,31.9787062 23.02645,31.9787062 C21.40265,31.9787062 19.892125,31.2715988 18.857125,30.0391799 L10.69155,20.2969361 L10.69155,27.7037181 L10.243625,28.0422151 C5.2555,31.8063906 2.369575,37.4643646 2.3253,43.5645595 L0.004025,43.5723666 L0,5.72093331 C0,3.53325029 1.427725,1.57030248 3.5535,0.836427675 C4.131375,0.637344616 4.733975,0.536408948 5.3452,0.536408948 C6.960375,0.536408948 8.4709,1.23236317 9.4898,2.44637947 L22.9494,18.4644797 L36.038125,2.49489551 C37.058175,1.25020815 38.58365,0.536408948 40.222975,0.536408948 C40.823275,0.536408948 41.415525,0.633998683 41.9842,0.826389874 C44.128375,1.55189984 45.56875,3.5193089 45.56875,5.72093331 L45.56875,43.4809112 C45.56875,43.5288695 45.565875,44.9114871 45.562425,44.9583302 L43.241725,44.9600031 Z" id="Fill-4"></path>
                    <path d="M40.6275698,4.64386954 C40.2222597,4.50433913 39.7657167,4.6382659 39.5021513,4.96439722 L23.2055012,25.1464345 L6.49044831,4.95487105 C6.22460593,4.633783 5.76806292,4.50545985 5.36559919,4.64667135 C4.96484323,4.78676213 4.69387755,5.16388648 4.69387755,5.58471917 L4.69387755,27.6831982 C4.71607852,27.6591026 4.73884875,27.6355674 4.76104972,27.6114717 C4.84416103,27.5218137 4.92841087,27.4327159 5.01322996,27.3441785 C5.08894096,27.2634863 5.16465195,27.1833544 5.24263998,27.1043431 C5.32688981,27.0174869 5.41284741,26.9317513 5.49880501,26.8465761 C5.57850079,26.7670045 5.65762732,26.687433 5.73903088,26.6089822 C5.82555774,26.5249276 5.91436161,26.4425544 6.00202698,26.3596206 C6.08456905,26.2817301 6.16654186,26.2038396 6.25022244,26.1270699 C6.33959557,26.0458173 6.43010721,25.9662457 6.5200496,25.8861138 C6.58608325,25.8272756 6.6509784,25.7667564 6.71815056,25.7084787 L6.71815056,8.36748231 L16.6101055,20.3463642 L22.4330214,27.3979733 C22.6368149,27.6439728 22.9294123,27.792469 23.2151786,27.792469 L23.2402259,27.792469 C23.5106223,27.792469 23.8043582,27.6366881 24.0070132,27.3856454 L29.6295511,20.4052023 L39.2824187,8.42127717 L39.2824187,36.6450852 L40.293986,36.6450852 C40.4482542,36.6450852 40.5996762,36.6512492 40.7510982,36.660215 C40.7937924,36.6624564 40.8364866,36.666379 40.87975,36.6691808 C40.9975859,36.6781467 41.1148526,36.6899142 41.2321192,36.7044837 C41.256028,36.7078458 41.2816444,36.7089666 41.3061224,36.7123288 L41.3061224,5.58471917 C41.3061224,5.16108467 41.033449,4.78339995 40.6275698,4.64386954" id="Fill-7"></path>
                    <path d="M40.293986,43.4493555 L33.0046677,43.4493555 L23,43.4493555 C22.4421295,43.4493555 21.9884328,43.8946761 21.9884328,44.4428058 C21.9884328,44.9903769 22.4421295,45.4362562 23,45.4362562 L39.8277656,45.4362562 L38.4495977,49.4910758 C36.2266545,56.0306386 30.0183526,60.4240582 23,60.4240582 C14.0222695,60.4240582 6.71815056,53.2547886 6.71815056,44.4428058 C6.71815056,38.1010391 10.5008542,32.6096836 15.9685545,30.0293947 L15.9577386,30.0171023 L14.6621128,28.4520548 C13.6562382,28.9610723 12.6959039,29.5639593 11.789649,30.2556868 L11.7845257,30.2601568 C9.09877759,32.3107545 7.09442853,34.982119 5.91436161,37.9870549 C5.74643121,38.4161718 5.59443995,38.8519936 5.46009563,39.2939617 C4.97110504,40.9014738 4.71038597,42.588328 4.69786234,44.3137356 C4.69786234,44.3668164 4.69615457,44.4193385 4.69387755,44.4718606 C4.70981671,54.3655756 12.9156366,62.4109589 23,62.4109589 C33.0684242,62.4109589 41.2639975,54.3912779 41.3061224,44.5193541 C41.3038454,44.4852705 41.3021376,44.4517457 41.3021376,44.4182211 C41.2861985,43.8728849 40.8438868,43.4493555 40.293986,43.4493555" id="Fill-9"></path>
                    <path d="M30.8907057,29.589819 C31.0147877,29.3161184 31.0086943,29.0168338 30.8740876,28.7465123 C30.8192477,28.6374182 30.7461279,28.5384611 30.6574979,28.4520548 L29.1020408,30.161356 C29.1518952,30.1777684 29.2017496,30.1941808 29.25105,30.2110759 C29.8997111,30.4336085 30.6353403,30.154598 30.8907057,29.589819" id="Fill-11"></path>
                </g>
            </g>
            <g id="-Logo-Mariogogh-Active" transform="translate(2.000000, 3.000000)" fill="#000000">
                <g id="Group">
                    <path d="M28.062645,31.4398736 C28.419145,31.577686 28.79117,31.6477218 29.16952,31.6477218 C30.421295,31.6477218 31.526445,30.908392 31.985295,29.7646618 C32.28142,29.0258967 32.267045,28.2187903 31.945045,27.4907566 C31.708145,26.9558862 31.32577,26.5113846 30.84162,26.1979178 L27.18577,30.7265248 C27.09607,30.8372266 27.002345,30.9445395 26.904595,31.047334 C27.295595,31.1619895 27.68142,31.2924594 28.062645,31.4398736 Z M14.94747,26.0527629 C13.274795,26.7378714 11.695845,27.6443836 10.243395,28.7542255 C5.255845,32.5672244 2.369345,38.2977366 2.32507,44.4761391 C2.32468667,44.4991078 2.323345,44.546928 2.321045,44.6195996 C2.321045,55.7027692 11.50092,64.719882 22.784145,64.719882 C34.061045,64.719882 43.236895,55.7129357 43.247245,44.6376733 C43.196645,42.9172771 41.87012,41.6487249 40.22217,41.6487249 L22.784145,41.6487249 C21.116645,41.6487249 19.759645,42.9811001 19.759645,44.6195996 C19.759645,46.2580991 21.116645,47.591039 22.784145,47.591039 L36.97112,47.591039 L36.461095,49.0911612 C34.493445,54.8854963 28.997595,58.7781328 22.784145,58.7781328 C14.836495,58.7781328 8.37062,52.4268999 8.37062,44.6195996 C8.37062,38.0955363 12.88667,32.5875575 19.01042,30.9535764 C18.958095,30.8959663 18.90692,30.8372266 18.856895,30.7767924 L14.94747,26.0527629 Z M-0.00023,44.6195996 C-0.00023,44.5924889 0.00111166667,44.539209 0.003795,44.4597598 C0.05382,37.5798694 3.266345,31.1998314 8.818545,26.9547566 C10.67867,25.5325774 12.728545,24.4103098 14.911245,23.6184531 L15.689795,23.3354858 L20.65722,29.3376691 C21.24027,30.0414162 22.117145,30.4616312 23.00092,30.4616312 C23.90827,30.4616312 24.783995,30.0306849 25.368195,29.3088641 L30.12632,23.4139937 L30.98652,23.737627 C31.03482,23.7545711 31.083695,23.7720801 31.131995,23.7907187 C32.45852,24.3041264 33.504445,25.2953593 34.07312,26.5814204 C34.64237,27.8674816 34.668245,29.2947439 34.144995,30.6000084 C33.33482,32.6214457 31.381545,33.9278398 29.16952,33.9278398 C28.49907,33.9278398 27.840695,33.8041475 27.21222,33.5618461 C25.80577,33.017374 24.315945,32.7417493 22.784145,32.7417493 C16.11587,32.7417493 10.691895,38.0701201 10.691895,44.6195996 C10.691895,51.169079 16.11587,56.4980148 22.784145,56.4980148 C27.440495,56.4980148 31.61672,53.8920042 33.632095,49.8705922 L22.784145,49.8705922 C19.836695,49.8705922 17.43837,47.5153551 17.43837,44.6195996 C17.43837,41.7244089 19.836695,39.3686069 22.784145,39.3686069 L40.22217,39.3686069 C43.13627,39.3686069 45.48227,41.6114479 45.56162,44.4738799 C45.565645,44.5235827 45.56852,44.5710263 45.56852,44.6195996 C45.56852,56.9600253 35.34732,67 22.784145,67 C10.22097,67 -0.00023,56.9600253 -0.00023,44.6195996 Z" id="Fill-1"></path>
                    <path d="M37.1979,39.5778673 L40.2224,39.5778673 C41.34825,39.5778673 42.389,39.9085571 43.247475,40.4768082 L43.247475,5.72093331 C43.247475,4.47513064 42.4327,3.36205001 41.21945,2.95161547 C40.89745,2.84287262 40.562225,2.78710705 40.222975,2.78710705 C39.2955,2.78710705 38.432425,3.19140738 37.8557,3.89572645 L22.971825,22.0552243 L7.690625,3.86784366 C7.1139,3.18136958 6.258875,2.78766471 5.3452,2.78766471 C4.999625,2.78766471 4.658075,2.84454558 4.331475,2.95774967 C3.12915,3.37264547 2.321275,4.48293782 2.321275,5.72093331 L2.321275,35.5416177 C3.743825,32.7332639 5.79025,30.2176794 8.370275,28.1699679 L8.370275,13.9586222 L20.656875,28.6177157 C21.2405,29.3125546 22.1168,29.7274504 23.00115,29.7274504 C23.9085,29.7274504 24.784225,29.3019592 25.368425,28.5892753 L37.1979,14.119227 L37.1979,39.5778673 Z M43.241725,44.9600031 C43.376383,41.7489264 41.87035,40.7729354 40.2224,40.7729354 L34.876625,40.7729354 L34.876625,20.5818981 L27.186,29.9889909 C26.165375,31.2353512 24.61,31.9787062 23.02645,31.9787062 C21.40265,31.9787062 19.892125,31.2715988 18.857125,30.0391799 L10.69155,20.2969361 L10.69155,27.7037181 L10.243625,28.0422151 C5.2555,31.8063906 2.369575,37.4643646 2.3253,43.5645595 L0.004025,43.5723666 L0,5.72093331 C0,3.53325029 1.427725,1.57030248 3.5535,0.836427675 C4.131375,0.637344616 4.733975,0.536408948 5.3452,0.536408948 C6.960375,0.536408948 8.4709,1.23236317 9.4898,2.44637947 L22.9494,18.4644797 L36.038125,2.49489551 C37.058175,1.25020815 38.58365,0.536408948 40.222975,0.536408948 C40.823275,0.536408948 41.415525,0.633998683 41.9842,0.826389874 C44.128375,1.55189984 45.56875,3.5193089 45.56875,5.72093331 L45.56875,43.4809112 C45.56875,43.5288695 45.565875,44.9114871 45.562425,44.9583302 L43.241725,44.9600031 Z" id="Fill-4"></path>
                    <path d="M40.6275698,4.64386954 C40.2222597,4.50433913 39.7657167,4.6382659 39.5021513,4.96439722 L23.2055012,25.1464345 L6.49044831,4.95487105 C6.22460593,4.633783 5.76806292,4.50545985 5.36559919,4.64667135 C4.96484323,4.78676213 4.69387755,5.16388648 4.69387755,5.58471917 L4.69387755,27.6831982 C4.71607852,27.6591026 4.73884875,27.6355674 4.76104972,27.6114717 C4.84416103,27.5218137 4.92841087,27.4327159 5.01322996,27.3441785 C5.08894096,27.2634863 5.16465195,27.1833544 5.24263998,27.1043431 C5.32688981,27.0174869 5.41284741,26.9317513 5.49880501,26.8465761 C5.57850079,26.7670045 5.65762732,26.687433 5.73903088,26.6089822 C5.82555774,26.5249276 5.91436161,26.4425544 6.00202698,26.3596206 C6.08456905,26.2817301 6.16654186,26.2038396 6.25022244,26.1270699 C6.33959557,26.0458173 6.43010721,25.9662457 6.5200496,25.8861138 C6.58608325,25.8272756 6.6509784,25.7667564 6.71815056,25.7084787 L6.71815056,8.36748231 L16.6101055,20.3463642 L22.4330214,27.3979733 C22.6368149,27.6439728 22.9294123,27.792469 23.2151786,27.792469 L23.2402259,27.792469 C23.5106223,27.792469 23.8043582,27.6366881 24.0070132,27.3856454 L29.6295511,20.4052023 L39.2824187,8.42127717 L39.2824187,36.6450852 L40.293986,36.6450852 C40.4482542,36.6450852 40.5996762,36.6512492 40.7510982,36.660215 C40.7937924,36.6624564 40.8364866,36.666379 40.87975,36.6691808 C40.9975859,36.6781467 41.1148526,36.6899142 41.2321192,36.7044837 C41.256028,36.7078458 41.2816444,36.7089666 41.3061224,36.7123288 L41.3061224,5.58471917 C41.3061224,5.16108467 41.033449,4.78339995 40.6275698,4.64386954" id="Fill-7"></path>
                    <path d="M40.293986,43.4493555 L33.0046677,43.4493555 L23,43.4493555 C22.4421295,43.4493555 21.9884328,43.8946761 21.9884328,44.4428058 C21.9884328,44.9903769 22.4421295,45.4362562 23,45.4362562 L39.8277656,45.4362562 L38.4495977,49.4910758 C36.2266545,56.0306386 30.0183526,60.4240582 23,60.4240582 C14.0222695,60.4240582 6.71815056,53.2547886 6.71815056,44.4428058 C6.71815056,38.1010391 10.5008542,32.6096836 15.9685545,30.0293947 L15.9577386,30.0171023 L14.6621128,28.4520548 C13.6562382,28.9610723 12.6959039,29.5639593 11.789649,30.2556868 L11.7845257,30.2601568 C9.09877759,32.3107545 7.09442853,34.982119 5.91436161,37.9870549 C5.74643121,38.4161718 5.59443995,38.8519936 5.46009563,39.2939617 C4.97110504,40.9014738 4.71038597,42.588328 4.69786234,44.3137356 C4.69786234,44.3668164 4.69615457,44.4193385 4.69387755,44.4718606 C4.70981671,54.3655756 12.9156366,62.4109589 23,62.4109589 C33.0684242,62.4109589 41.2639975,54.3912779 41.3061224,44.5193541 C41.3038454,44.4852705 41.3021376,44.4517457 41.3021376,44.4182211 C41.2861985,43.8728849 40.8438868,43.4493555 40.293986,43.4493555" id="Fill-9"></path>
                    <path d="M30.8907057,29.589819 C31.0147877,29.3161184 31.0086943,29.0168338 30.8740876,28.7465123 C30.8192477,28.6374182 30.7461279,28.5384611 30.6574979,28.4520548 L29.1020408,30.161356 C29.1518952,30.1777684 29.2017496,30.1941808 29.25105,30.2110759 C29.8997111,30.4336085 30.6353403,30.154598 30.8907057,29.589819" id="Fill-11"></path>
                </g>
            </g>
        </g>
    </g>
</svg>