<svg height="341" viewBox="0 0 727 341" width="727" xmlns="http://www.w3.org/2000/svg"><g fill="none" fill-rule="evenodd"><path d="m27.9552264 190.992356h20.1738748c3.2662627 0 6.4364113-.528505 9.5105409-1.585531 3.0741296-1.057025 5.8119853-2.810701 8.213649-5.261078 2.4016638-2.450378 4.322966-5.64543 5.7639642-9.585252 1.4409983-3.939823 2.1614866-8.744413 2.1614866-14.413913 0-5.189035-.5043418-9.87351-1.5130406-14.053566-1.0086988-4.180055-2.6658219-7.759475-4.9714191-10.738365s-5.3556645-5.26107-9.1502932-6.846608c-3.7946288-1.585539-8.4778028-2.378296-14.0496628-2.378296h-16.1390998zm-22.6235595-83.888974h44.3825244c6.628592 0 12.8007753 1.057009 18.5167351 3.171061 5.7159597 2.114051 10.6633129 5.28508 14.8422078 9.513182 4.178895 4.228102 7.4451087 9.513151 9.7987392 15.855304 2.3536305 6.342154 3.530428 13.789268 3.530428 22.341566 0 7.495272-.9606511 14.413881-2.8819821 20.756034-1.921331 6.342154-4.8273005 11.819386-8.7179958 16.431861-3.8906953 4.612476-8.7419834 8.239941-14.5540097 10.882505s-12.6566653 3.963826-20.5341225 3.963826h-44.3825244zm147.8877111 57.655652c-.960666-5.189035-2.665821-9.128798-5.115518-11.819409-2.449697-2.69061-6.17222-4.035896-11.167681-4.035896-3.266263 0-5.980102.552528-8.141599 1.6576-2.161498 1.105073-3.89067 2.474381-5.187568 4.107966-1.296899 1.633585-2.209517 3.363237-2.737883 5.189008-.528366 1.825772-.840578 3.459332-.936644 4.900731zm-33.286893 12.972522c.288199 6.630433 1.969339 11.435022 5.043468 14.413913 3.07413 2.97889 7.493125 4.468313 13.257118 4.468313 4.130862 0 7.685271-1.032987 10.663334-3.098992 2.978063-2.066004 4.8033-4.252092 5.475766-6.55833h18.012388c-2.881997 8.936671-7.300992 15.326775-13.257118 19.170504-5.956126 3.84373-13.161009 5.765565-21.614866 5.765565-5.860059 0-11.14364-.936895-15.850901-2.810713s-8.693963-4.540365-11.960226-7.999721c-3.266263-3.459357-5.787972-7.591304-7.565203-12.395966-1.777231-4.804661-2.6658333-10.08971-2.6658333-15.855304 0-5.573407.9126183-10.762364 2.7378833-15.567026 1.825264-4.804662 4.419022-8.960632 7.781351-12.468035 3.36233-3.507403 7.373048-6.270042 12.032276-8.288 4.659227-2.017958 9.822727-3.026921 15.490653-3.026921 6.340393 0 11.864137 1.22517 16.571398 3.675547 4.707261 2.450378 8.573881 5.741522 11.599978 9.873531 3.026096 4.132009 5.211577 8.840507 6.556509 14.125635 1.344932 5.285127 1.825257 10.810406 1.440991 16.576zm74.829464 8.071791c0 2.210144.45631 4.107957 1.368942 5.693496.912632 1.585538 2.08943 2.882777 3.530428 3.891756s3.098121 1.75369 4.971419 2.234157c1.873298.480466 3.818616.720695 5.836014.720695 1.440998 0 2.954024-.16816 4.539122-.504487 1.585098-.336326 3.026074-.864831 4.322973-1.58553 1.296898-.720699 2.377631-1.681617 3.24223-2.882783.864599-1.201165 1.296892-2.714611 1.296892-4.540382 0-3.074984-2.041384-5.381187-6.124212-6.918679-4.082829-1.537491-9.774687-3.07496-17.075744-4.612452-2.978063-.672652-5.884033-1.46541-8.717996-2.378295-2.833963-.912886-5.355673-2.114034-7.565203-3.603479-2.209531-1.489445-3.986735-3.363235-5.331667-5.621426s-2.017388-5.02083-2.017388-8.288c0-4.804662.936635-8.744425 2.809933-11.819409 1.873298-3.074983 4.346974-5.501301 7.421104-7.279026 3.074129-1.777724 6.532473-3.026918 10.375135-3.747617s7.781332-1.081043 11.816127-1.081043 7.949448.384367 11.744077 1.153113c3.794629.768745 7.180924 2.065985 10.158987 3.891756 2.978063 1.825772 5.45174 4.252089 7.421104 7.279026s3.146162 6.846586 3.530428 11.459061h-19.453379c-.2882-3.939823-1.777209-6.60637-4.467072-7.999722-2.689864-1.393352-5.860012-2.090017-9.510541-2.090017-1.152799 0-2.401645.072069-3.746577.216209-1.344932.144139-2.569762.456438-3.674527.936904-1.104766.480466-2.0414 1.177132-2.809933 2.090017-.768532.912886-1.152793 2.138056-1.152793 3.675548 0 1.825772.672456 3.315194 2.017388 4.468313 1.344931 1.153119 3.09812 2.090014 5.259617 2.810713 2.161498.7207 4.635174 1.369319 7.421104 1.945879 2.78593.576559 5.619851 1.201156 8.501847 1.873808 2.978063.672653 5.884033 1.489433 8.717996 2.450365 2.833963.960933 5.355672 2.234149 7.565203 3.819687 2.209531 1.585539 3.986735 3.55542 5.331667 5.909705 1.344932 2.354284 2.017388 5.261061 2.017388 8.720417 0 4.900755-.984668 9.008679-2.954032 12.323896-1.969364 3.315216-4.539106 5.981764-7.709302 7.999722-3.170196 2.017957-6.796654 3.435311-10.879483 4.252104-4.082828.816792-8.237644 1.225182-12.464572 1.225182-4.322995 0-8.54986-.432413-12.680722-1.297252-4.130861-.864839-7.805352-2.306216-11.023581-4.324174-3.21823-2.017958-5.86002-4.684505-7.925451-7.999721-2.065431-3.315217-3.194196-7.471187-3.386329-12.468035zm75.69406-61.835687h-20.462073v-16.864278h20.462073zm-20.462073 11.53113h20.462073v74.519931h-20.462073zm64.454329 56.934957c2.881996 0 5.427722-.576551 7.637252-1.72967 2.209531-1.153119 4.034768-2.690587 5.475766-4.612452 1.440999-1.921865 2.521731-4.107953 3.24223-6.55833.720499-2.450378 1.080743-5.020833 1.080743-7.711444 0-3.074983-.288195-5.98176-.864594-8.720417s-1.537051-5.164975-2.881982-7.279026c-1.344932-2.114051-3.122136-3.795658-5.331667-5.04487s-4.995419-1.873809-8.357748-1.873809c-2.881997 0-5.355673.576551-7.421104 1.72967s-3.794603 2.71461-5.187568 4.684522c-1.392965 1.969911-2.401649 4.228068-3.026081 6.774539-.624433 2.546471-.936644 5.213018-.936644 7.999722 0 2.69061.264179 5.357157.792545 7.999721s1.440984 5.020836 2.737883 7.134887c1.296898 2.114051 3.002054 3.843704 5.115518 5.189009s4.755255 2.017948 7.925451 2.017948zm36.889371 12.828382c0 2.978891-.408277 6.390149-1.224843 10.233879-.816565 3.843729-2.569754 7.423148-5.259617 10.738365s-6.5805 6.125901-11.672028 8.432139c-5.091527 2.306238-11.91215 3.459339-20.462073 3.459339-3.650528 0-7.373051-.456436-11.16768-1.369322-3.794629-.912885-7.252973-2.330239-10.375136-4.252104s-5.715921-4.396228-7.781351-7.423165c-2.065431-3.026937-3.242229-6.654402-3.530429-10.882504h20.317974c.960666 3.843729 2.833935 6.510276 5.619865 7.999721s6.004112 2.234157 9.65464 2.234157c5.763994 0 9.966842-1.729652 12.608672-5.189009 2.64183-3.459356 3.914693-7.831533 3.818626-13.116661v-9.801461h-.288198c-2.20953 3.939823-5.355663 6.8466-9.438491 8.720418-4.082829 1.873818-8.381742 2.810713-12.89687 2.810713-5.57186 0-10.375115-.984941-14.409911-2.954852-4.034795-1.969912-7.349041-4.660482-9.942838-8.071792-2.593797-3.411309-4.491083-7.399119-5.691915-11.963547-1.200831-4.564429-1.801238-9.393042-1.801238-14.485983 0-4.804662.696472-9.441091 2.089437-13.909426 1.392965-4.468336 3.434348-8.408099 6.124212-11.819409 2.689863-3.41131 6.028126-6.125903 10.014887-8.143861 3.986762-2.017958 8.573871-3.026921 13.761465-3.026921 4.899394 0 9.198308.912872 12.89687 2.738643s6.796662 4.900709 9.294392 9.224904h.288198v-9.9456h19.45338zm9.55257-69.763339h19.453379v10.378018h.432297c2.593797-4.324196 5.956076-7.471202 10.086938-9.441113 4.130861-1.969912 8.357726-2.954852 12.680721-2.954852 5.475793 0 9.966837.744711 13.473266 2.234156s6.268301 3.555419 8.285699 6.197983c2.017397 2.642564 3.434358 5.861639 4.250923 9.657321.816566 3.795683 1.224843 7.999699 1.224843 12.612174v45.836244h-20.462073v-42.088626c0-6.149967-.960651-10.73835-2.881982-13.765287s-5.331643-4.540383-10.231037-4.540383c-5.57186 0-9.606594 1.657584-12.104325 4.9728-2.49773 3.315217-3.746576 8.768426-3.746576 16.359791v39.061705h-20.462073zm128.72253 29.260244c-.960666-5.189035-2.665821-9.128798-5.115519-11.819409-2.449697-2.69061-6.17222-4.035896-11.16768-4.035896-3.266263 0-5.980102.552528-8.1416 1.6576-2.161497 1.105073-3.890669 2.474381-5.187567 4.107966-1.296899 1.633585-2.209517 3.363237-2.737883 5.189008-.528366 1.825772-.840578 3.459332-.936645 4.900731zm-33.286894 12.972522c.2882 6.630433 1.969339 11.435022 5.043469 14.413913 3.07413 2.97889 7.493125 4.468313 13.257118 4.468313 4.130861 0 7.68527-1.032987 10.663334-3.098992 2.978063-2.066004 4.8033-4.252092 5.475766-6.55833h18.012388c-2.881997 8.936671-7.300992 15.326775-13.257118 19.170504-5.956126 3.84373-13.161009 5.765565-21.614866 5.765565-5.860059 0-11.14364-.936895-15.850901-2.810713s-8.693963-4.540365-11.960226-7.999721c-3.266263-3.459357-5.787972-7.591304-7.565203-12.395966-1.777231-4.804661-2.665834-10.08971-2.665834-15.855304 0-5.573407.912619-10.762364 2.737883-15.567026 1.825265-4.804662 4.419023-8.960632 7.781352-12.468035s7.373048-6.270042 12.032275-8.288c4.659228-2.017958 9.822728-3.026921 15.490654-3.026921 6.340393 0 11.864136 1.22517 16.571397 3.675547 4.707261 2.450378 8.573882 5.741522 11.599978 9.873531 3.026097 4.132009 5.211578 8.840507 6.55651 14.125635 1.344931 5.285127 1.825257 10.810406 1.440991 16.576zm58.978563-42.232766h19.45338v13.837357h.288198c.960665-2.306238 2.257544-4.44428 3.890676-6.414191 1.633131-1.969912 3.506401-3.651518 5.619865-5.04487s4.370994-2.474385 6.772658-3.24313c2.401664-.768746 4.899356-1.153113 7.493153-1.153113 1.344932 0 2.833941.240229 4.467073.720695v19.026365c-.960666-.192186-2.113447-.360347-3.458379-.504487-1.344932-.144139-2.641811-.216208-3.890676-.216208-3.746595 0-6.916744.624596-9.510541 1.873808s-4.683213 2.954842-6.268311 5.11694c-1.585098 2.162097-2.713863 4.684507-3.386329 7.567304s-1.008694 6.00578-1.008694 9.369043v33.584418h-20.462073zm-453.0535915 192.910207c-4.1308617 4.035916-8.5258404 7.062807-13.1850681 9.080765s-9.9187925 3.026922-15.7788521 3.026922c-4.6111944 0-8.9581406-.672642-13.040969-2.017948-4.0828284-1.345305-7.6132212-3.33921-10.59128424-5.981774-2.97806307-2.642564-5.33165826-5.861639-7.06085616-9.657321-1.72919791-3.795683-2.5937839-8.143837-2.5937839-13.044592 0-3.651543.62442321-6.990732 1.87328837-10.017669s2.95402085-5.765553 5.11551824-8.215931c2.16149738-2.450377 4.63517399-4.636465 7.42110389-6.55833 2.78593-1.921865 5.6678833-3.603471 8.6459463-5.04487-2.7859299-3.363263-5.1155088-6.726476-6.9888066-10.089739-1.8732977-3.363263-2.8099325-7.303027-2.8099325-11.819409 0-3.555449.7445046-6.774524 2.2335361-9.657321 1.4890316-2.882797 3.4823826-5.357161 5.9801129-7.423166 2.4977303-2.066004 5.3556673-3.651519 8.5738968-4.756591 3.2182294-1.105072 6.556492-1.6576 10.0148878-1.6576 3.9387285 0 7.613219.528505 11.0235815 1.585531 3.4103626 1.057025 6.388381 2.618517 8.9341446 4.684521 2.5457635 2.066005 4.5631308 4.63646 6.0521624 7.711444 1.4890315 3.074983 2.2335361 6.63038 2.2335361 10.666295 0 6.053874-1.7531882 11.146739-5.2596173 15.278748s-7.8533753 7.591314-13.0409691 10.378018l13.2571177 16.287721c1.0567321-1.921864 1.8732855-3.915769 2.4496848-5.981773.5763993-2.066005 1.0086923-4.156001 1.296892-6.270053h17.7241899c-.4803327 4.612476-1.5370489 9.080744-3.1701803 13.404939-1.6331314 4.324196-3.8906614 8.312005-6.7726579 11.963548l20.8943702 24.359513h-25.0732443zm-28.3875238-35.169948c-1.8252644.768746-3.6024689 1.681618-5.3316669 2.738644-1.7291979 1.057025-3.2662396 2.306219-4.6111713 3.747617-1.3449317 1.441399-2.4256642 3.026913-3.2422299 4.756591-.8165657 1.729679-1.2248424 3.651515-1.2248424 5.765566 0 1.825771.4082767 3.579446 1.2248424 5.261078s1.8972982 3.123008 3.2422299 4.324174c1.3449317 1.201165 2.9059897 2.162083 4.6832209 2.882782 1.7772312.7207 3.6264845 1.081044 5.5478156 1.081044 3.6505289 0 6.8446938-.840803 9.5825905-2.522435 2.7378966-1.681631 5.3076383-3.86772 7.7093021-6.55833zm16.5713972-35.169948c0-2.69061-.9366349-4.996813-2.8099326-6.918678-1.8732977-1.921864-4.058779-2.882782-6.5565093-2.882782s-4.6591953.840803-6.4844597 2.522434c-1.8252645 1.681632-2.737883 3.86772-2.737883 6.558331 0 3.26717.864586 6.053832 2.5937839 8.360069 1.7291979 2.306238 3.554435 4.660487 5.475766 7.062818 2.8819965-1.825772 5.3556731-3.795653 7.4211039-5.909705 2.0654308-2.114051 3.0981308-5.04485 3.0981308-8.792487zm79.9149621-22.341565h22.62356v102.915339h-22.62356zm34.049418 0h20.462073v102.915339h-20.462073zm30.302841 0h20.462073v102.915339h-20.462073zm99.614511 102.915339h-19.453379v-10.378017h-.432298c-2.593796 4.324196-5.956075 7.447179-10.086937 9.369043-4.130862 1.921865-8.357726 2.882783-12.680721 2.882783-5.475794 0-9.966837-.720688-13.473266-2.162087-3.50643-1.441398-6.268301-3.483349-8.285699-6.125913s-3.434358-5.861639-4.250924-9.657322c-.816565-3.795682-1.224842-7.999698-1.224842-12.612174v-45.836243h20.462073v42.088626c0 6.149967.960651 10.73835 2.881982 13.765287s5.331642 4.540383 10.231036 4.540383c5.57186 0 9.606595-1.657584 12.104325-4.9728 2.497731-3.315217 3.746577-8.768426 3.746577-16.359792v-39.061704h20.462073zm24.538877-24.215374c0 2.210145.456309 4.107958 1.368941 5.693496.912633 1.585538 2.08943 2.882778 3.530429 3.891757 1.440998 1.008979 3.098121 1.75369 4.971419 2.234156 1.873297.480466 3.818616.720696 5.836013.720696 1.440999 0 2.954024-.168161 4.539122-.504487s3.026075-.864831 4.322973-1.585531c1.296899-.720699 2.377631-1.681617 3.24223-2.882782.864599-1.201166 1.296892-2.714611 1.296892-4.540383 0-3.074983-2.041383-5.381186-6.124212-6.918678-4.082828-1.537492-9.774686-3.074961-17.075744-4.612452-2.978063-.672653-5.884032-1.46541-8.717996-2.378296-2.833963-.912886-5.355672-2.114033-7.565203-3.603478-2.20953-1.489445-3.986735-3.363235-5.331667-5.621426-1.344931-2.258191-2.017387-5.02083-2.017387-8.288 0-4.804662.936635-8.744425 2.809933-11.819409 1.873297-3.074983 4.346974-5.501301 7.421103-7.279026 3.07413-1.777725 6.532474-3.026918 10.375136-3.747617 3.842662-.7207 7.781332-1.081044 11.816127-1.081044s7.949448.384367 11.744077 1.153113 7.180924 2.065985 10.158987 3.891757c2.978063 1.825771 5.451739 4.252089 7.421104 7.279026 1.969364 3.026937 3.146161 6.846585 3.530428 11.459061h-19.45338c-.288199-3.939823-1.777208-6.60637-4.467072-7.999722-2.689863-1.393352-5.860012-2.090018-9.510541-2.090018-1.152798 0-2.401645.072069-3.746576.216209-1.344932.14414-2.569762.456438-3.674528.936905-1.104765.480466-2.0414 1.177131-2.809932 2.090017-.768533.912886-1.152793 2.138056-1.152793 3.675548 0 1.825771.672456 3.315194 2.017387 4.468313 1.344932 1.153119 3.09812 2.090014 5.259618 2.810713 2.161497.720699 4.635174 1.369319 7.421104 1.945878 2.78593.57656 5.61985 1.201156 8.501847 1.873809 2.978063.672652 5.884033 1.489433 8.717996 2.450365s5.355672 2.234149 7.565203 3.819687c2.20953 1.585538 3.986735 3.55542 5.331667 5.909704 1.344931 2.354285 2.017387 5.261061 2.017387 8.720418 0 4.900755-.984667 9.008679-2.954031 12.323895-1.969365 3.315217-4.539106 5.981764-7.709303 7.999722-3.170196 2.017958-6.796654 3.435312-10.879482 4.252104-4.082828.816793-8.237644 1.225183-12.464573 1.225183-4.322994 0-8.549859-.432413-12.680721-1.297252s-7.805352-2.306216-11.023582-4.324174c-3.218229-2.017958-5.860019-4.684505-7.92545-7.999722-2.065431-3.315216-3.194196-7.471186-3.386329-12.468035zm80.593429-50.304556h14.986307v13.693217h-14.986307v36.899618c0 3.459356.57639 5.765559 1.729189 6.918678s3.458361 1.72967 6.916757 1.72967c1.152799 0 2.257548-.048046 3.31428-.14414 1.056732-.096093 2.065415-.240231 3.026081-.432417v15.855304c-1.729198.28828-3.6505.480464-5.763964.576557-2.113465.096093-4.178864.144139-6.196262.144139-3.170196 0-6.172231-.216207-9.006194-.648626-2.833963-.43242-5.331656-1.273223-7.493154-2.522435-2.161497-1.249212-3.866653-3.02691-5.115518-5.333148-1.248865-2.306237-1.873288-5.333129-1.873288-9.080765v-43.962435h-12.392523v-13.693217h12.392523v-22.341565h20.462073zm17.910318 0h19.453379v13.837356h.288198c.960666-2.306237 2.257545-4.44428 3.890676-6.414191 1.633132-1.969911 3.506401-3.651518 5.619865-5.044869 2.113464-1.393352 4.370994-2.474385 6.772658-3.243131s4.899357-1.153113 7.493154-1.153113c1.344931 0 2.833941.24023 4.467072.720696v19.026365c-.960666-.192186-2.113447-.360347-3.458379-.504487-1.344931-.14414-2.64181-.216209-3.890675-.216209-3.746596 0-6.916744.624597-9.510541 1.873809s-4.683213 2.954841-6.268311 5.116939c-1.585099 2.162098-2.713864 4.684507-3.386329 7.567304-.672466 2.882798-1.008694 6.005781-1.008694 9.369044v33.584417h-20.462073zm48.315229 22.918122c.2882-4.804662 1.489014-8.792471 3.602478-11.963548s4.803287-5.717509 8.06955-7.639374c3.266262-1.921865 6.940753-3.291173 11.023581-4.107965 4.082829-.816793 8.189612-1.225183 12.320474-1.225183 3.746595 0 7.541167.264253 11.383829.792765 3.842662.528513 7.349039 1.5615 10.519235 3.098992 3.170196 1.537491 5.763954 3.675534 7.781351 6.414191 2.017398 2.738657 3.026082 6.366122 3.026082 10.882504v38.773426c0 3.363264.19213 6.582339.576396 9.657322.384266 3.074984 1.056722 5.381187 2.017388 6.918678h-20.750272c-.384266-1.153118-.696477-2.330243-.936644-3.531408-.240166-1.201166-.40828-2.426336-.504347-3.675548-3.266262 3.363263-7.108867 5.717512-11.527928 7.062817-4.419061 1.345306-8.934122 2.017948-13.545316 2.017948-3.554462 0-6.868709-.432413-9.942838-1.297252-3.07413-.864839-5.763953-2.210124-8.06955-4.035896-2.305597-1.825771-4.106818-4.131974-5.403717-6.918678-1.296898-2.786704-1.945337-6.101871-1.945337-9.9456 0-4.228102.744504-7.71143 2.233536-10.450087 1.489031-2.738657 3.410333-4.924745 5.763964-6.55833 2.35363-1.633585 5.043453-2.858756 8.06955-3.675548 3.026096-.816793 6.076163-1.465412 9.150293-1.945879 3.07413-.480466 6.100181-.864833 9.078244-1.153113 2.978063-.288279 5.619853-.720692 7.92545-1.297252 2.305598-.576559 4.130835-1.417362 5.475766-2.522435 1.344932-1.105072 1.969355-2.714609 1.873289-4.82866 0-2.210145-.360244-3.96382-1.080744-5.261079-.720499-1.297258-1.68115-2.306222-2.881982-3.026921-1.200832-.7207-2.593776-1.201159-4.178874-1.441392s-3.290253-.360348-5.115518-.360348c-4.034795 0-7.204944.864827-9.510541 2.594505s-3.650509 4.612432-4.034775 8.648348zm47.264507 15.134608c-.864599.768746-1.945332 1.36932-3.24223 1.801739-1.296899.43242-2.689843.792764-4.178874 1.081044-1.489032.28828-3.05009.528509-4.683221.720696-1.633131.192186-3.266238.432416-4.89937.720695-1.537065.28828-3.05009.672647-4.539122 1.153113-1.489031.480466-2.78591 1.129086-3.890675 1.945879-1.104766.816792-1.993368 1.849779-2.665834 3.098991s-1.008694 2.834727-1.008694 4.756591c0 1.825772.336228 3.36324 1.008694 4.612452s1.585085 2.234153 2.737883 2.954853c1.152799.720699 2.49771 1.225181 4.034775 1.51346 1.537065.28828 3.122139.432418 4.755271.432418 4.034795 0 7.156911-.672643 9.366441-2.017948 2.209531-1.345305 3.842638-2.954843 4.89937-4.828661s1.705172-3.771631 1.945338-5.693496c.240166-1.921864.360248-3.459333.360248-4.612452zm55.376085-38.05273h14.986307v13.693217h-14.986307v36.899618c0 3.459356.576391 5.765559 1.729189 6.918678 1.152799 1.153119 3.458362 1.72967 6.916758 1.72967 1.152798 0 2.257547-.048046 3.314279-.14414 1.056732-.096093 2.065416-.240231 3.026081-.432417v15.855304c-1.729198.28828-3.6505.480464-5.763964.576557s-4.178864.144139-6.196262.144139c-3.170196 0-6.17223-.216207-9.006194-.648626-2.833963-.43242-5.331656-1.273223-7.493153-2.522435-2.161498-1.249212-3.866653-3.02691-5.115518-5.333148-1.248866-2.306237-1.873289-5.333129-1.873289-9.080765v-43.962435h-12.392523v-13.693217h12.392523v-22.341565h20.462073zm36.066806 37.332035c0 2.97889.288195 5.885667.864594 8.720417.576399 2.834751 1.561067 5.381183 2.954032 7.639374s3.242218 4.059912 5.547815 5.405217c2.305598 1.345306 5.187551 2.017948 8.645947 2.017948s6.364365-.672642 8.717996-2.017948c2.35363-1.345305 4.2269-3.147026 5.619865-5.405217s2.377632-4.804623 2.954031-7.639374c.5764-2.83475.864595-5.741527.864595-8.720417 0-2.978891-.288195-5.90969-.864595-8.792487-.576399-2.882797-1.561066-5.42923-2.954031-7.639374-1.392965-2.210145-3.266235-4.011866-5.619865-5.405218-2.353631-1.393351-5.2596-2.090017-8.717996-2.090017s-6.340349.696666-8.645947 2.090017c-2.305597 1.393352-4.15485 3.195073-5.547815 5.405218-1.392965 2.210144-2.377633 4.756577-2.954032 7.639374s-.864594 5.813596-.864594 8.792487zm-20.462073 0c0-5.957781.912618-11.362944 2.737883-16.215652 1.825264-4.852709 4.419022-8.984656 7.781351-12.395966 3.36233-3.411309 7.397064-6.053834 12.104325-7.927652s9.990842-2.810713 15.850902-2.810713c5.860059 0 11.167657.936895 15.922951 2.810713s8.814045 4.516343 12.176374 7.927652c3.362329 3.41131 5.956087 7.543257 7.781352 12.395966 1.825264 4.852708 2.737883 10.257871 2.737883 16.215652 0 5.95778-.912619 11.338921-2.737883 16.143582-1.825265 4.804662-4.419023 8.912586-7.781352 12.323896s-7.42108 6.029811-12.176374 7.855583c-4.755294 1.825771-10.062892 2.738643-15.922951 2.738643-5.86006 0-11.143641-.912872-15.850902-2.738643-4.707261-1.825772-8.741995-4.444273-12.104325-7.855583-3.362329-3.41131-5.956087-7.519234-7.781351-12.323896-1.825265-4.804661-2.737883-10.185802-2.737883-16.143582zm83.475411-37.332035h19.453379v13.837356h.288198c.960665-2.306237 2.257544-4.44428 3.890676-6.414191 1.633131-1.969911 3.506401-3.651518 5.619865-5.044869 2.113464-1.393352 4.370994-2.474385 6.772658-3.243131s4.899357-1.153113 7.493153-1.153113c1.344932 0 2.833941.24023 4.467073.720696v19.026365c-.960666-.192186-2.113447-.360347-3.458379-.504487s-2.641811-.216209-3.890676-.216209c-3.746595 0-6.916744.624597-9.510541 1.873809s-4.683213 2.954841-6.268311 5.116939-2.713863 4.684507-3.386329 7.567304c-.672466 2.882798-1.008693 6.005781-1.008693 9.369044v33.584417h-20.462073zm36.589163 53.183335h22.623559v22.197426h-22.623559z" fill="#ef5350"/><g fill-rule="nonzero" transform="translate(4.016345 1.52971)"><g fill="#fff"><path d="m24.4023 27.4512329c.31.1203287.6335.1814794.9625.1814794 1.0885 0 2.0495-.6455342 2.4485-1.6441644.2575-.6450411.245-1.3497534-.035-1.9854246-.206-.4670137-.5385-.8551233-.9595-1.1288219l-3.179 3.9540822c-.078.0966575-.1595.1903561-.2445.2801096.34.1001095.6755.2140273 1.007.3427397zm-11.4045-4.7036713c-1.4545.5981918-2.8275 1.3896987-4.0905 2.3587398-4.337 3.3292602-6.847 8.3327671-6.8855 13.7273424-.00033333.0200548-.0015.0618083-.0035.1252603 0 9.6770959 7.9825 17.5502466 17.794 17.5502466 9.806 0 17.785-7.864274 17.794-17.5344658-.044-1.5021369-1.1975-2.6097534-2.6305-2.6097534h-15.1635c-1.45 0-2.63 1.1633424-2.63 2.5939726s1.18 2.5944658 2.63 2.5944658h12.3365l-.4435 1.3098082c-1.711 5.0592329-6.49 8.4580274-11.893 8.4580274-6.911 0-12.5335-5.5454794-12.5335-12.3623014 0-5.6963836 3.927-10.505589 9.252-11.932274-.0455-.0503013-.09-.101589-.1335-.1543561zm-12.998 16.2113425c0-.0236712.00116667-.0701918.0035-.1395616.0435-6.0070685 2.837-11.5776987 7.665-15.2842192 1.6175-1.2417534 3.4-2.2216438 5.298-2.9130411l.677-.2470685 4.3195 5.2407123c.507.6144658 1.2695.9813699 2.038.9813699.789 0 1.5505-.376274 2.0585-1.0065206l4.1375-5.1470137.748.2825754c.042.0147945.0845.0300822.1265.0463562 1.1535.4482739 2.063 1.3137534 2.5575 2.4366575.495 1.1229041.5175 2.3690959.0625 3.5087671-.7045 1.7649863-2.403 2.9056438-4.3265 2.9056438-.583 0-1.1555-.108-1.702-.3195616-1.223-.4753973-2.5185-.7160548-3.8505-.7160548-5.7985 0-10.515 4.6523836-10.515 10.3709589s4.7165 10.3714521 10.515 10.3714521c4.049 0 7.6805-2.2753973 9.433-5.7866302h-9.433c-2.563 0-4.6485-2.0564384-4.6485-4.5848219 0-2.5278904 2.0855-4.5848219 4.6485-4.5848219h15.1635c2.534 0 4.574 1.9583014 4.643 4.457589.0035.0433973.006.0848219.006.1272329 0 10.7748493-8.888 19.5410959-19.8125 19.5410959s-19.8125-8.7662466-19.8125-19.5410959z"/><path d="m32.346 34.5567946h2.63c.979 0 1.884.2887366 2.6305.7848961v-30.34654743c0-1.08775308-.7085-2.059622-1.7635-2.41798648-.28-.09494711-.5715-.14363794-.8665-.14363794-.8065 0-1.557.35300849-2.0585.96797364l-12.9425 15.85568091-13.288-15.88002632c-.5015-.59938409-1.245-.94314132-2.0395-.94314132-.3005 0-.5975.04966464-.8815.14850702-1.0455.36225976-1.748 1.33169412-1.748 2.41263049v26.03746323c1.237-2.4520701 3.0165-4.6485133 5.26-6.4364405v-12.4084138l10.684 12.7993578c.5075.6066877 1.2695.9689474 2.0385.9689474.789 0 1.5505-.371511 2.0585-.9937797l10.2865-12.6342959zm5.2555 4.6993275c.1170939-2.8037013-1.1925-3.6558726-2.6255-3.6558726h-4.6485v-17.6294877l-6.6875 8.2136556c-.8875 1.08824-2.24 1.7372887-3.617 1.7372887-1.412 0-2.7255-.6173997-3.6255-1.6934669l-7.1005-8.5062875v6.4671156l-.3895.2955533c-4.3375 3.2866309-6.847 8.2268022-6.8855 13.5530918l-2.0185.0068167-.0035-33.04938583c0-1.91014115 1.2415-3.62405827 3.09-4.26482955.5025-.17382626 1.0265-.26195665 1.558-.26195665 1.4045 0 2.718.60766152 3.604 1.66766083l11.704 13.9859532 11.3815-13.94359218c.887-1.08677927 2.2135-1.71002185 3.639-1.71002185.522 0 1.037.08520894 1.5315.2531923 1.8645.63346766 3.117 2.35128004 3.117 4.2735939v32.96953293c0 .041874-.0025 1.2490849-.0055 1.2899853z"/><path d="m35.3283216 4.05472191c-.3524436-.12182879-.7494375-.00489273-.9786248.27986373l-14.1710001 17.62162956-14.5348286-17.62994719c-.23116729-.280353-.62816121-.39239635-.97812968-.26909974-.34848344.12231806-.58410577.45159829-.58410577.81904176v19.29494067c.01930519-.0210387.03910539-.0415881.05841058-.0626269.07227071-.0782835.14553144-.1560778.21928717-.2333829.06583565-.0704551.1316713-.140421.19948697-.2094085.07326073-.0758372.14800647-.1506958.22275221-.2250652.06930067-.0694767.13810635-.1389533.20889205-.2074514.07524075-.0733909.15246151-.1453139.22869226-.2177262.07177572-.0680088.14305642-.1360177.21582214-.203048.07771577-.0709444.15642155-.1404211.23463232-.210387.05742056-.0513736.11385113-.1042151.1722617-.1550993v-15.14101926l8.60169995 10.45917306 5.0634051 6.157002c.1772118.2147905.4316443.3444476.6801367.3444476h.0217803c.2351273 0 .4905498-.1360176.6667716-.3552116l4.8891633-6.0948645 8.393798-10.46357642v24.64317562h.8796237c.1341462 0 .2658176.005382.3974889.0132104.0371253.0019571.0742507.005382.1118711.0078283.102466.0078284.204437.0181031.306408.0308242.0207902.0029356.0430654.0039142.0643506.0068498v-27.17858447c0-.36988983-.2371073-.69965933-.5900457-.82148812"/><path d="m35.0382487 37.9371239h-6.3385377-8.699711c-.4851048 0-.8796237.3888246-.8796237.8674155 0 .4781031.3945189.8674157.8796237.8674157h14.6328397l-1.1984069 3.5404021c-1.9329941 5.7099168-7.3315175 9.5459623-13.4344328 9.5459623-7.8067222 0-14.15812995-6.2597354-14.15812995-13.9537801 0-5.5372143 3.2893075-10.3319052 8.04382955-12.584844l-.0094052-.010733-1.1266311-1.3664966c-.8746736.4444406-1.7097469.9708419-2.4977946 1.574813l-.0044551.0039029c-2.33543309 1.7904472-4.07834531 4.1229073-5.10449046 6.74662-.14602644.3746767-.27819275.7552076-.3950139 1.1411051-.42520921 1.4035741-.65192144 2.8764243-.66281155 4.3829369 0 .0463467-.00148502.0922056-.00346504.1380645.01386014 8.6385421 7.14935565 15.6632425 15.91836735 15.6632425 8.7551515 0 15.881737-7.0022588 15.9183673-15.6217744-.00198-.0297595-.003465-.0590311-.003465-.0883027-.0138601-.4761517-.398479-.8459497-.8766536-.8459497"/><path d="m26.8614832 25.8358867c.1078974-.2389774.1025988-.500293-.0144505-.73632-.0476869-.0952538-.1112693-.1816566-.1883389-.2571009l-1.3525714 1.4924495c.0433517.0143302.0867033.0286605.1295733.0434122.5640531.1943008 1.2037307-.0493128 1.4257875-.5424408"/></g><g fill="#ef5350"><path d="m24.4023 27.4512329c.31.1203287.6335.1814794.9625.1814794 1.0885 0 2.0495-.6455342 2.4485-1.6441644.2575-.6450411.245-1.3497534-.035-1.9854246-.206-.4670137-.5385-.8551233-.9595-1.1288219l-3.179 3.9540822c-.078.0966575-.1595.1903561-.2445.2801096.34.1001095.6755.2140273 1.007.3427397zm-11.4045-4.7036713c-1.4545.5981918-2.8275 1.3896987-4.0905 2.3587398-4.337 3.3292602-6.847 8.3327671-6.8855 13.7273424-.00033333.0200548-.0015.0618083-.0035.1252603 0 9.6770959 7.9825 17.5502466 17.794 17.5502466 9.806 0 17.785-7.864274 17.794-17.5344658-.044-1.5021369-1.1975-2.6097534-2.6305-2.6097534h-15.1635c-1.45 0-2.63 1.1633424-2.63 2.5939726s1.18 2.5944658 2.63 2.5944658h12.3365l-.4435 1.3098082c-1.711 5.0592329-6.49 8.4580274-11.893 8.4580274-6.911 0-12.5335-5.5454794-12.5335-12.3623014 0-5.6963836 3.927-10.505589 9.252-11.932274-.0455-.0503013-.09-.101589-.1335-.1543561zm-12.998 16.2113425c0-.0236712.00116667-.0701918.0035-.1395616.0435-6.0070685 2.837-11.5776987 7.665-15.2842192 1.6175-1.2417534 3.4-2.2216438 5.298-2.9130411l.677-.2470685 4.3195 5.2407123c.507.6144658 1.2695.9813699 2.038.9813699.789 0 1.5505-.376274 2.0585-1.0065206l4.1375-5.1470137.748.2825754c.042.0147945.0845.0300822.1265.0463562 1.1535.4482739 2.063 1.3137534 2.5575 2.4366575.495 1.1229041.5175 2.3690959.0625 3.5087671-.7045 1.7649863-2.403 2.9056438-4.3265 2.9056438-.583 0-1.1555-.108-1.702-.3195616-1.223-.4753973-2.5185-.7160548-3.8505-.7160548-5.7985 0-10.515 4.6523836-10.515 10.3709589s4.7165 10.3714521 10.515 10.3714521c4.049 0 7.6805-2.2753973 9.433-5.7866302h-9.433c-2.563 0-4.6485-2.0564384-4.6485-4.5848219 0-2.5278904 2.0855-4.5848219 4.6485-4.5848219h15.1635c2.534 0 4.574 1.9583014 4.643 4.457589.0035.0433973.006.0848219.006.1272329 0 10.7748493-8.888 19.5410959-19.8125 19.5410959s-19.8125-8.7662466-19.8125-19.5410959z"/><path d="m32.346 34.5567946h2.63c.979 0 1.884.2887366 2.6305.7848961v-30.34654743c0-1.08775308-.7085-2.059622-1.7635-2.41798648-.28-.09494711-.5715-.14363794-.8665-.14363794-.8065 0-1.557.35300849-2.0585.96797364l-12.9425 15.85568091-13.288-15.88002632c-.5015-.59938409-1.245-.94314132-2.0395-.94314132-.3005 0-.5975.04966464-.8815.14850702-1.0455.36225976-1.748 1.33169412-1.748 2.41263049v26.03746323c1.237-2.4520701 3.0165-4.6485133 5.26-6.4364405v-12.4084138l10.684 12.7993578c.5075.6066877 1.2695.9689474 2.0385.9689474.789 0 1.5505-.371511 2.0585-.9937797l10.2865-12.6342959zm5.2555 4.6993275c.1170939-2.8037013-1.1925-3.6558726-2.6255-3.6558726h-4.6485v-17.6294877l-6.6875 8.2136556c-.8875 1.08824-2.24 1.7372887-3.617 1.7372887-1.412 0-2.7255-.6173997-3.6255-1.6934669l-7.1005-8.5062875v6.4671156l-.3895.2955533c-4.3375 3.2866309-6.847 8.2268022-6.8855 13.5530918l-2.0185.0068167-.0035-33.04938583c0-1.91014115 1.2415-3.62405827 3.09-4.26482955.5025-.17382626 1.0265-.26195665 1.558-.26195665 1.4045 0 2.718.60766152 3.604 1.66766083l11.704 13.9859532 11.3815-13.94359218c.887-1.08677927 2.2135-1.71002185 3.639-1.71002185.522 0 1.037.08520894 1.5315.2531923 1.8645.63346766 3.117 2.35128004 3.117 4.2735939v32.96953293c0 .041874-.0025 1.2490849-.0055 1.2899853z"/><path d="m35.3283216 4.05472191c-.3524436-.12182879-.7494375-.00489273-.9786248.27986373l-14.1710001 17.62162956-14.5348286-17.62994719c-.23116729-.280353-.62816121-.39239635-.97812968-.26909974-.34848344.12231806-.58410577.45159829-.58410577.81904176v19.29494067c.01930519-.0210387.03910539-.0415881.05841058-.0626269.07227071-.0782835.14553144-.1560778.21928717-.2333829.06583565-.0704551.1316713-.140421.19948697-.2094085.07326073-.0758372.14800647-.1506958.22275221-.2250652.06930067-.0694767.13810635-.1389533.20889205-.2074514.07524075-.0733909.15246151-.1453139.22869226-.2177262.07177572-.0680088.14305642-.1360177.21582214-.203048.07771577-.0709444.15642155-.1404211.23463232-.210387.05742056-.0513736.11385113-.1042151.1722617-.1550993v-15.14101926l8.60169995 10.45917306 5.0634051 6.157002c.1772118.2147905.4316443.3444476.6801367.3444476h.0217803c.2351273 0 .4905498-.1360176.6667716-.3552116l4.8891633-6.0948645 8.393798-10.46357642v24.64317562h.8796237c.1341462 0 .2658176.005382.3974889.0132104.0371253.0019571.0742507.005382.1118711.0078283.102466.0078284.204437.0181031.306408.0308242.0207902.0029356.0430654.0039142.0643506.0068498v-27.17858447c0-.36988983-.2371073-.69965933-.5900457-.82148812"/><path d="m35.0382487 37.9371239h-6.3385377-8.699711c-.4851048 0-.8796237.3888246-.8796237.8674155 0 .4781031.3945189.8674157.8796237.8674157h14.6328397l-1.1984069 3.5404021c-1.9329941 5.7099168-7.3315175 9.5459623-13.4344328 9.5459623-7.8067222 0-14.15812995-6.2597354-14.15812995-13.9537801 0-5.5372143 3.2893075-10.3319052 8.04382955-12.584844l-.0094052-.010733-1.1266311-1.3664966c-.8746736.4444406-1.7097469.9708419-2.4977946 1.574813l-.0044551.0039029c-2.33543309 1.7904472-4.07834531 4.1229073-5.10449046 6.74662-.14602644.3746767-.27819275.7552076-.3950139 1.1411051-.42520921 1.4035741-.65192144 2.8764243-.66281155 4.3829369 0 .0463467-.00148502.0922056-.00346504.1380645.01386014 8.6385421 7.14935565 15.6632425 15.91836735 15.6632425 8.7551515 0 15.881737-7.0022588 15.9183673-15.6217744-.00198-.0297595-.003465-.0590311-.003465-.0883027-.0138601-.4761517-.398479-.8459497-.8766536-.8459497"/><path d="m26.8614832 25.8358867c.1078974-.2389774.1025988-.500293-.0144505-.73632-.0476869-.0952538-.1112693-.1816566-.1883389-.2571009l-1.3525714 1.4924495c.0433517.0143302.0867033.0286605.1295733.0434122.5640531.1943008 1.2037307-.0493128 1.4257875-.5424408"/></g></g></g></svg>