<svg height="76" viewBox="0 0 778 76" width="778" xmlns="http://www.w3.org/2000/svg"><path d="m0 1.39078116h11.6171132v22.00706654h.245432c1.4725991-2.454332 3.3542254-4.2405134 5.6449353-5.358598 2.2907098-1.1180845 4.5268454-1.6771184 6.7084738-1.6771184 3.1088205 0 5.6585604.4226841 7.6492963 1.2680651 1.990736.845381 3.5587579 2.0179887 4.7041128 3.5178583 1.1453549 1.4998695 1.9498183 3.3269559 2.4134143 5.4813139.4635961 2.1543581.6953906 4.5404784.6953906 7.1584325v26.0157887h-11.6171132v-23.8887117c0-3.4906054-.5453989-6.0948853-1.6362131-7.8129177-1.0908142-1.7180323-3.0269804-2.5770356-5.8085566-2.5770356-3.1633612 0-5.4540367.9408131-6.8720951 2.8224676-1.4180585 1.8816545-2.1270771 4.9767934-2.1270771 9.2855095v22.1706879h-11.6171132zm72.3819704 32.72426254c-.5454071-2.9451984-1.5134902-5.1813339-2.9042783-6.7084738s-3.504209-2.2906984-6.3403259-2.2906984c-1.8543841 0-3.3951361.3136044-4.6223021.9408225-1.227166.6272182-2.208884 1.4044117-2.9451836 2.3316037-.7362996.9271921-1.2544286 1.9089102-1.5544025 2.9451837s-.4772285 1.9634516-.5317692 2.7815623zm-18.8982616 7.3629591c.1636221 3.763309 1.1180702 6.4903036 2.8633729 8.1810656 1.7453028 1.690762 4.2541378 2.5361303 7.5265804 2.5361303 2.3452506 0 4.3632266-.5863038 6.0539886-1.7589291s2.72702-2.4134078 3.1088049-3.7223848h10.2263321c-1.6362213 5.072286-4.1450564 8.6991888-7.5265804 10.8808172-3.3815241 2.1816285-7.472016 3.2724263-12.2715985 3.2724263-3.3269833 0-6.3266774-.5317639-8.9991722-1.5953078-2.6724948-1.0635438-4.9359003-2.5770259-6.7902844-4.5404914-1.8543842-1.9634656-3.2860564-4.308681-4.2950595-7.0357165s-1.5134971-5.7267295-1.5134971-8.9991722c0-3.1633612.5181289-6.1085153 1.5544024-8.8355508 1.0362735-2.7270356 2.5088506-5.0858859 4.4177755-7.0766218 1.9089248-1.9907359 4.1859653-3.5587578 6.8311898-4.7041128 2.6452244-1.1453549 5.5767436-1.7180237 8.7946455-1.7180237 3.5996869 0 6.7357307.6953836 9.4082255 2.0861717s4.8677255 3.2587794 6.5857578 5.60403c1.7180324 2.3452505 2.958815 5.0177052 3.7223849 8.0174443.7635699 2.999739 1.0362694 6.1357828.8181066 9.4082255zm33.1128553-40.08722164h11.6171132v58.41280864h-11.6171132zm16.5052919 0h11.617113v58.41280864h-11.617113zm26.486192 37.30565924c0 1.6907621.16362 3.3405938.490864 4.9495447.327245 1.608951.886278 3.0542581 1.677119 4.3359648.79084 1.2817067 1.840733 2.3043297 3.14971 3.0678996 1.308977.76357 2.945174 1.1453492 4.908639 1.1453492 1.963466 0 3.613298-.3817792 4.949545-1.1453492 1.336248-.7635699 2.399775-1.7861929 3.190616-3.0678996.79084-1.2817067 1.349874-2.7270138 1.677118-4.3359648.327244-1.6089509.490864-3.2587826.490864-4.9495447 0-1.690762-.16362-3.3542287-.490864-4.99045s-.886278-3.0815284-1.677118-4.3359648c-.790841-1.2544363-1.854368-2.2770593-3.190616-3.0678996-1.336247-.7908403-2.986079-1.1862545-4.949545-1.1862545-1.963465 0-3.599662.3954142-4.908639 1.1862545s-2.35887 1.8134633-3.14971 3.0678996c-.790841 1.2544364-1.349874 2.6997435-1.677119 4.3359648-.327244 1.6362213-.490864 3.299688-.490864 4.99045zm-11.617113 0c0-3.381524.518129-6.4493929 1.554403-9.2036988 1.036273-2.7543059 2.50885-5.0995212 4.417775-7.0357164 1.908925-1.9361953 4.1996-3.4360423 6.872095-4.4995861 2.672495-1.0635439 5.672189-1.5953078 8.999172-1.5953078 3.326984 0 6.340313.5317639 9.040078 1.5953078 2.699765 1.0635438 5.004076 2.5633908 6.913 4.4995861 1.908925 1.9361952 3.381502 4.2814105 4.417776 7.0357164 1.036273 2.7543059 1.554402 5.8221748 1.554402 9.2036988 0 3.3815241-.518129 6.435758-1.554402 9.1627935-1.036274 2.7270356-2.508851 5.0586159-4.417776 6.9948112-1.908924 1.9361952-4.213235 3.4224072-6.913 4.4586807s-5.713094 1.5544025-9.040078 1.5544025c-3.326983 0-6.326677-.518129-8.999172-1.5544025s-4.96317-2.5224855-6.872095-4.4586807c-1.908925-1.9361953-3.381502-4.2677756-4.417775-6.9948112-1.036274-2.7270355-1.554403-5.7812694-1.554403-9.1627935zm88.007806-2.372509c-.163622.5454071-.313607 1.1317109-.449959 1.7589291-.136351.6272182-.204526 1.213522-.204526 1.7589291s.109079.9953612.327242 1.3498759c.218163.3545146.572672.5317692 1.063539.5317692 1.145355 0 2.304327-.3681443 3.476953-1.1044438 1.172625-.7362996 2.208883-1.7725576 3.108805-3.108805.899921-1.3362474 1.63621-2.9315392 2.208887-4.7859234.572678-1.8543841.859012-3.8723601.859012-6.0539885 0-3.2724427-.572669-6.149422-1.718024-8.6310243-1.145354-2.4816023-2.713376-4.5813881-4.704112-6.2994205s-4.335952-3.01335483-7.035717-3.88600619c-2.699765-.87265137-5.604014-1.3089705-8.712835-1.3089705-3.490605 0-6.667554.61357378-9.530941 1.84073976s-5.304048 2.91790263-7.322054 5.07226073c-2.018006 2.154358-3.572393 4.7177329-4.663207 7.6902017-1.090814 2.9724687-1.636213 6.1766873-1.636213 9.6127521 0 3.5996869.599938 6.8584454 1.799834 9.7763734s2.863362 5.426763 4.99045 7.5265804c2.127088 2.0998173 4.676828 3.7223791 7.649297 4.867734 2.972468 1.145355 6.203957 1.7180238 9.694562 1.7180238 3.436065 0 6.694824-.5863038 9.776374-1.7589291s5.68583-2.822457 7.812917-4.9495447h6.872096c-2.781577 4.2541754-6.35394 7.512934-10.717196 9.7763734-4.363257 2.2634395-9.108228 3.3951423-14.235055 3.3951423-4.363256 0-8.453748-.7635585-12.271598-2.2906984s-7.158418-3.6541957-10.021805-6.3812312c-2.863388-2.7270355-5.113158-5.9585241-6.74938-9.6945628-1.636221-3.7360386-2.454319-7.7856256-2.454319-12.1488824 0-4.3087161.818098-8.3310332 2.454319-12.0670718 1.636222-3.7360387 3.872357-6.9675273 6.708474-9.69456282 2.836117-2.72703551 6.135781-4.88136125 9.89909-6.46304185 3.763309-1.58168059 7.771991-2.37250903 12.026166-2.37250903 3.708768 0 7.281131.59993881 10.717196 1.79983444 3.436065 1.19989562 6.463029 2.87699731 9.080983 5.03135536 2.617954 2.15435806 4.71774 4.7722729 6.29942 7.853823 1.581681 3.0815501 2.372509 6.5039284 2.372509 10.2672374 0 4.1996347-.749923 7.7992675-2.249793 10.7990066-1.499869 2.9997391-3.299686 5.4540342-5.399503 7.3629591-2.099817 1.9089248-4.226873 3.3133271-6.381231 4.2132488s-3.886 1.3498758-5.194977 1.3498758c-1.745302 0-3.149705-.4363191-4.213249-1.3089705-1.063543-.8726514-1.649847-1.9907191-1.758929-3.3542369h-.163621c-.981733 1.6362213-2.26342 2.8360989-3.845101 3.5996689-1.58168.7635699-3.245147 1.1453492-4.99045 1.1453492s-3.395134-.3681443-4.949545-1.1044439c-1.55441-.7362996-2.917907-1.7452876-4.090532-3.0269943-1.172626-1.2817067-2.099804-2.7679187-2.781563-4.4586807-.681759-1.6907621-1.022633-3.4905785-1.022633-5.3995034 0-2.5634133.422684-5.0995183 1.268065-7.608391s2.045259-4.7450083 3.599669-6.7084738c1.55441-1.9634656 3.436037-3.5451225 5.644935-4.7450181 2.208899-1.1998956 4.649559-1.7998344 7.322054-1.7998344 1.745303 0 3.545119.4226841 5.399503 1.2680651 1.854385.8453811 3.245152 2.3315931 4.172344 4.4586808l1.30897-4.4177754h6.708474zm-21.925256-2.617941c0 2.1816284.586304 3.9405399 1.758929 5.2767873s2.713377 2.0043611 4.622302 2.0043611c1.472599 0 2.822462-.3817792 4.049628-1.1453492 1.227166-.7635699 2.290694-1.731653 3.190615-2.9042783.899922-1.1726252 1.595306-2.4952176 2.086172-3.9678168s.736296-2.9179063.736296-4.3359648c0-2.0180063-.613574-3.681473-1.84074-4.99045-1.227166-1.3089771-2.713378-1.9634558-4.458681-1.9634558-1.472599 0-2.836096.3681443-4.090532 1.1044439-1.254437.7362996-2.3316 1.6907477-3.231521 2.863373-.899922 1.1726252-1.595306 2.4679477-2.086172 3.8860061-.490866 1.4180585-.736296 2.8088257-.736296 4.1723435zm41.784785-16.1985099h10.962628v5.7267459h.163621c1.52714-2.1816284 3.367861-3.8723651 5.52222-5.0722607 2.154358-1.1998956 4.622288-1.7998344 7.403864-1.7998344 2.672495 0 5.113155.5181289 7.322054 1.5544024 2.208898 1.0362735 3.886 2.8633599 5.031355 5.481314 1.254436-1.8543841 2.958808-3.4905809 5.113166-4.9086394 2.154358-1.4180584 4.704098-2.127077 7.649296-2.127077 2.23617 0 4.308685.2726994 6.21761.8181065s3.545122 1.4180454 4.90864 2.617941c1.363517 1.1998957 2.427045 2.7679176 3.190615 4.7041128s1.145349 4.2677756 1.145349 6.9948111v28.3064871h-11.617113v-23.9705223c0-1.4180585-.05454-2.7542859-.163621-4.0087222s-.409051-2.3452342-.899917-3.2724262c-.490867-.9271921-1.21352-1.6634807-2.167983-2.2088878-.954462-.5454071-2.249785-.8181065-3.886006-.8181065s-2.958814.3136044-3.967817.9408225c-1.009003.6272182-1.799831 1.4453166-2.372509 2.4543197-.572677 1.0090031-.954456 2.1543409-1.145349 3.4360476-.190892 1.2817067-.286337 2.5770291-.286337 3.8860061v23.5614691h-11.617113v-23.7250904c0-1.2544363-.02727-2.4952188-.081811-3.7223848s-.286335-2.3588688-.695391-3.3951423c-.409055-1.0362735-1.090804-1.8680068-2.045266-2.495225-.954462-.6272181-2.358865-.9408225-4.213249-.9408225-.545407 0-1.268061.1227147-2.167982.3681479-.899922.2454332-1.77256.7090223-2.617941 1.3907812s-1.568035 1.6634769-2.167983 2.9451836c-.599947 1.2817067-.899917 2.9588084-.899917 5.0313554v24.5431969h-11.617113zm68.700491 13.0078943c.163622-2.7270355.845371-4.990441 2.045266-6.7902845 1.199896-1.7998434 2.727013-3.2451505 4.581397-4.3359648 1.854384-1.0908142 3.940535-1.8680076 6.258515-2.3316037 2.31798-.463596 4.649561-.6953905 6.994811-.6953905 2.127088 0 4.281414.1499847 6.463042.4499586 2.181629.2999739 4.172335.8862777 5.972178 1.7589291 1.799843.8726513 3.272421 2.0861639 4.417775 3.6405742 1.145355 1.5544102 1.718024 3.6132912 1.718024 6.1767045v22.0070666c0 1.9089248.10908 3.7360112.327243 5.481314.218163 1.7453027.599942 3.0542601 1.145349 3.9269115h-11.780734c-.218163-.6544886-.395418-1.3226022-.53177-2.0043611-.136351-.6817589-.231796-1.3771425-.286337-2.0861717-1.854384 1.9089248-4.03598 3.2451522-6.544853 4.0087221-2.508872.76357-5.072247 1.1453492-7.690201 1.1453492-2.018006 0-3.899633-.2454295-5.644935-.7362959-1.745303-.4908664-3.27242-1.2544249-4.581397-2.2906984s-2.3316-2.3452309-3.0679-3.9269115c-.736299-1.5816806-1.104444-3.4633069-1.104444-5.6449353 0-2.3997912.422684-4.3768623 1.268065-5.9312726.845381-1.5544102 1.936179-2.7951927 3.272427-3.7223848 1.336247-.9271921 2.863364-1.6225757 4.581396-2.0861718 1.718033-.463596 3.449674-.8317403 5.194977-1.1044438 1.745303-.2727036 3.463309-.4908631 5.154071-.6544853 1.690763-.1636221 3.19061-.4090516 4.499587-.7362959 1.308977-.3272442 2.345235-.8044683 3.108805-1.4316865.763569-.6272181 1.118079-1.5407613 1.063538-2.7406569 0-1.2544364-.204525-2.2497894-.61358-2.986089s-.954454-1.3089685-1.636213-1.7180238-1.472587-.6817548-2.372509-.8181065c-.899922-.1363518-1.868005-.2045267-2.904278-.2045267-2.29071 0-4.090527.490859-5.399504 1.4725918s-2.072535 2.6179296-2.290698 4.9086394zm26.833895 8.5901189c-.490866.4363257-1.10444.7772-1.84074 1.0226332-.736299.2454332-1.527128.4499578-2.372509.6135799-.845381.1636222-1.731654.2999719-2.658846.4090533s-1.85437.2454312-2.781562.4090533c-.872652.1636221-1.731655.3817817-2.577036.6544853-.845381.2727035-1.58167.6408478-2.208888 1.1044438-.627218.4635961-1.131712 1.0498999-1.513497 1.7589291-.381785.7090293-.572675 1.6089375-.572675 2.6997517 0 1.0362735.19089 1.9089118.572675 2.617941s.899914 1.2680631 1.554403 1.6771184c.654488.4090554 1.418047.6953898 2.290698.8590119.872651.1636222 1.77256.245432 2.699752.245432 2.290709 0 4.063256-.3817792 5.317692-1.1453492 1.254437-.7635699 2.181615-1.6771131 2.781563-2.740657.599947-1.0635438.968092-2.1407067 1.104443-3.2315209.136352-1.0908142.204527-1.9634525.204527-2.617941zm16.014428-21.5980132h11.044439v7.853823h.163621c.545407-1.3089771 1.281696-2.5224897 2.208888-3.6405742.927192-1.1180846 1.99072-2.0725327 3.190615-2.863373 1.199896-.7908403 2.481584-1.4044141 3.845101-1.8407398 1.363518-.4363257 2.781555-.6544852 4.254154-.6544852.76357 0 1.608939.1363497 2.536131.4090532v10.7990067c-.545407-.1090814-1.199886-.2045263-1.963456-.2863373-.76357-.0818111-1.499858-.122716-2.208888-.122716-2.127087 0-3.926904.3545093-5.399503 1.0635385-1.472599.7090293-2.658842 1.6771123-3.558764 2.9042783-.899921 1.227166-1.540765 2.6588382-1.92255 4.2950595s-.572675 3.4087678-.572675 5.3176926v19.061883h-11.617113zm40.156539-6.5448526h-11.617113v-9.57184674h11.617113zm-11.617113 6.5448526h11.617113v42.2961093h-11.617113zm25.496497 21.1889599c0 1.6907621.16362 3.3405938.490864 4.9495447.327244 1.608951.886278 3.0542581 1.677119 4.3359648.79084 1.2817067 1.840733 2.3043297 3.14971 3.0678996 1.308977.76357 2.945174 1.1453492 4.908639 1.1453492 1.963466 0 3.613297-.3817792 4.949545-1.1453492 1.336247-.7635699 2.399775-1.7861929 3.190615-3.0678996.790841-1.2817067 1.349875-2.7270138 1.677119-4.3359648.327244-1.6089509.490864-3.2587826.490864-4.9495447 0-1.690762-.16362-3.3542287-.490864-4.99045s-.886278-3.0815284-1.677119-4.3359648c-.79084-1.2544363-1.854368-2.2770593-3.190615-3.0678996-1.336248-.7908403-2.986079-1.1862545-4.949545-1.1862545-1.963465 0-3.599662.3954142-4.908639 1.1862545s-2.35887 1.8134633-3.14971 3.0678996c-.790841 1.2544364-1.349875 2.6997435-1.677119 4.3359648s-.490864 3.299688-.490864 4.99045zm-11.617113 0c0-3.381524.518129-6.4493929 1.554402-9.2036988 1.036274-2.7543059 2.508851-5.0995212 4.417776-7.0357164 1.908925-1.9361953 4.1996-3.4360423 6.872095-4.4995861 2.672495-1.0635439 5.672189-1.5953078 8.999172-1.5953078s6.340313.5317639 9.040078 1.5953078c2.699765 1.0635438 5.004075 2.5633908 6.913 4.4995861 1.908925 1.9361952 3.381502 4.2814105 4.417776 7.0357164 1.036273 2.7543059 1.554402 5.8221748 1.554402 9.2036988 0 3.3815241-.518129 6.435758-1.554402 9.1627935-1.036274 2.7270356-2.508851 5.0586159-4.417776 6.9948112-1.908925 1.9361952-4.213235 3.4224072-6.913 4.4586807s-5.713095 1.5544025-9.040078 1.5544025-6.326677-.518129-8.999172-1.5544025-4.96317-2.5224855-6.872095-4.4586807c-1.908925-1.9361953-3.381502-4.2677756-4.417776-6.9948112-1.036273-2.7270355-1.554402-5.7812694-1.554402-9.1627935zm66.409792 11.1262493c1.636222 0 3.081529-.3272394 4.335965-.9817279 1.254437-.6544885 2.290694-1.5271268 3.108805-2.617941s1.431685-2.3315967 1.84074-3.7223848c.409055-1.3907882.61358-2.8497303.61358-4.3768702 0-1.7453027-.16362-3.3951344-.490864-4.9495447-.327244-1.5544102-.872643-2.9315425-1.636213-4.1314381s-1.772558-2.1543437-3.026995-2.863373c-1.254436-.7090292-2.836093-1.0635385-4.745018-1.0635385-1.636221 0-3.040623.3272393-4.213248.9817279-1.172626.6544885-2.154344 1.5407617-2.945184 2.6588463s-1.363509 2.399772-1.718024 3.8451008c-.354514 1.4453289-.531769 2.9588109-.531769 4.5404915 0 1.5271399.149985 3.0406219.449959 4.5404914.299973 1.4998695.818102 2.8497319 1.554402 4.0496275s1.704383 2.1816137 2.904278 2.9451836c1.199896.76357 2.699743 1.1453492 4.499586 1.1453492zm20.943528 7.2811484c0 1.690762-.231794 3.6269282-.69539 5.8085566s-1.458949 4.2132394-2.986089 6.0948939-3.736006 3.4769464-6.626663 4.7859234c-2.890658 1.308977-6.76299 1.9634557-11.617113 1.9634557-2.072547 0-4.185968-.2590644-6.340326-.7772012-2.154358-.5181367-4.117795-1.3226001-5.890368-2.4134143-1.772573-1.0908143-3.24515-2.4952165-4.417775-4.2132488-1.172625-1.7180324-1.840739-3.7769133-2.004361-6.1767046h11.535302c.545408 2.1816284 1.608935 3.6951104 3.190616 4.5404914s3.408767 1.2680652 5.481314 1.2680652c3.272443 0 5.658563-.9817181 7.158432-2.9451836 1.49987-1.9634656 2.222524-4.4450307 2.167983-7.4447698v-5.5631246h-.163622c-1.254436 2.2361691-3.040617 3.8860009-5.358598 4.9495447-2.31798 1.0635439-4.75864 1.5953078-7.322053 1.5953078-3.163361 0-5.890356-.5590339-8.181066-1.6771184-2.29071-1.1180846-4.172336-2.6452016-5.644935-4.5813968s-2.549762-4.1996007-3.231521-6.7902845c-.681759-2.5906837-1.022633-5.3313133-1.022633-8.2219709 0-2.7270355.395414-5.3585853 1.186254-7.8947284.790841-2.536143 1.949813-4.7722786 3.476953-6.7084738s3.422401-3.4769471 5.685841-4.6223021c2.263439-1.1453549 4.867719-1.7180237 7.812917-1.7180237 2.781577 0 5.222237.5181289 7.322054 1.5544024s3.858729 2.7815501 5.276787 5.235882h.163622v-5.6449352h11.044438zm15.032701-18.4073977c0 1.6907621.163619 3.3405938.490864 4.9495447.327244 1.608951.886278 3.0542581 1.677118 4.3359648s1.840733 2.3043297 3.14971 3.0678996c1.308977.76357 2.945174 1.1453492 4.90864 1.1453492 1.963465 0 3.613297-.3817792 4.949544-1.1453492 1.336248-.7635699 2.399776-1.7861929 3.190616-3.0678996s1.349874-2.7270138 1.677118-4.3359648c.327245-1.6089509.490864-3.2587826.490864-4.9495447 0-1.690762-.163619-3.3542287-.490864-4.99045-.327244-1.6362213-.886278-3.0815284-1.677118-4.3359648-.79084-1.2544363-1.854368-2.2770593-3.190616-3.0678996-1.336247-.7908403-2.986079-1.1862545-4.949544-1.1862545-1.963466 0-3.599663.3954142-4.90864 1.1862545s-2.35887 1.8134633-3.14971 3.0678996c-.79084 1.2544364-1.349874 2.6997435-1.677118 4.3359648-.327245 1.6362213-.490864 3.299688-.490864 4.99045zm-11.617113 0c0-3.381524.518128-6.4493929 1.554402-9.2036988 1.036273-2.7543059 2.508851-5.0995212 4.417775-7.0357164 1.908925-1.9361953 4.199601-3.4360423 6.872096-4.4995861 2.672494-1.0635439 5.672188-1.5953078 8.999172-1.5953078 3.326983 0 6.340312.5317639 9.040077 1.5953078 2.699765 1.0635438 5.004076 2.5633908 6.913001 4.4995861 1.908925 1.9361952 3.381502 4.2814105 4.417775 7.0357164 1.036274 2.7543059 1.554403 5.8221748 1.554403 9.2036988 0 3.3815241-.518129 6.435758-1.554403 9.1627935-1.036273 2.7270356-2.50885 5.0586159-4.417775 6.9948112-1.908925 1.9361952-4.213236 3.4224072-6.913001 4.4586807s-5.713094 1.5544025-9.040077 1.5544025c-3.326984 0-6.326678-.518129-8.999172-1.5544025-2.672495-1.0362735-4.963171-2.5224855-6.872096-4.4586807-1.908924-1.9361953-3.381502-4.2677756-4.417775-6.9948112-1.036274-2.7270355-1.554402-5.7812694-1.554402-9.1627935zm66.409792 11.1262493c1.636221 0 3.081528-.3272394 4.335965-.9817279 1.254436-.6544885 2.290694-1.5271268 3.108805-2.617941.81811-1.0908142 1.431684-2.3315967 1.840739-3.7223848.409056-1.3907882.61358-2.8497303.61358-4.3768702 0-1.7453027-.163619-3.3951344-.490864-4.9495447-.327244-1.5544102-.872643-2.9315425-1.636213-4.1314381s-1.772558-2.1543437-3.026994-2.863373c-1.254436-.7090292-2.836093-1.0635385-4.745018-1.0635385-1.636221 0-3.040624.3272393-4.213249.9817279-1.172625.6544885-2.154343 1.5407617-2.945183 2.6588463-.790841 1.1180846-1.36351 2.399772-1.718024 3.8451008-.354515 1.4453289-.53177 2.9588109-.53177 4.5404915 0 1.5271399.149985 3.0406219.449959 4.5404914s.818103 2.8497319 1.554403 4.0496275c.736299 1.1998956 1.704382 2.1816137 2.904278 2.9451836 1.199895.76357 2.699743 1.1453492 4.499586 1.1453492zm20.943528 7.2811484c0 1.690762-.231795 3.6269282-.695391 5.8085566s-1.458949 4.2132394-2.986089 6.0948939c-1.527139 1.8816545-3.736005 3.4769464-6.626663 4.7859234-2.890657 1.308977-6.76299 1.9634557-11.617113 1.9634557-2.072547 0-4.185968-.2590644-6.340326-.7772012-2.154358-.5181367-4.117794-1.3226001-5.890367-2.4134143-1.772573-1.0908143-3.24515-2.4952165-4.417775-4.2132488-1.172626-1.7180324-1.840739-3.7769133-2.004362-6.1767046h11.535303c.545407 2.1816284 1.608935 3.6951104 3.190616 4.5404914 1.58168.845381 3.408767 1.2680652 5.481314 1.2680652 3.272442 0 5.658562-.9817181 7.158432-2.9451836 1.49987-1.9634656 2.222523-4.4450307 2.167982-7.4447698v-5.5631246h-.163621c-1.254436 2.2361691-3.040618 3.8860009-5.358598 4.9495447-2.31798 1.0635439-4.75864 1.5953078-7.322054 1.5953078-3.163361 0-5.890355-.5590339-8.181065-1.6771184-2.29071-1.1180846-4.172336-2.6452016-5.644936-4.5813968-1.472599-1.9361952-2.549762-4.1996007-3.231521-6.7902845-.681758-2.5906837-1.022633-5.3313133-1.022633-8.2219709 0-2.7270355.395415-5.3585853 1.186255-7.8947284.79084-2.536143 1.949813-4.7722786 3.476953-6.7084738s3.422401-3.4769471 5.68584-4.6223021c2.26344-1.1453549 4.86772-1.7180237 7.812918-1.7180237 2.781576 0 5.222236.5181289 7.322054 1.5544024 2.099817 1.0362735 3.858729 2.7815501 5.276787 5.235882h.163621v-5.6449352h11.044439zm4.724558-55.71305694h11.617113v22.00706654h.245432c1.472599-2.454332 3.354225-4.2405134 5.644935-5.358598 2.29071-1.1180845 4.526845-1.6771184 6.708474-1.6771184 3.10882 0 5.65856.4226841 7.649296 1.2680651s3.558758 2.0179887 4.704113 3.5178583c1.145355 1.4998695 1.949818 3.3269559 2.413414 5.4813139.463596 2.1543581.695391 4.5404784.695391 7.1584325v26.0157887h-11.617113v-23.8887117c0-3.4906054-.545399-6.0948853-1.636213-7.8129177-1.090815-1.7180323-3.026981-2.5770356-5.808557-2.5770356-3.163361 0-5.454037.9408131-6.872095 2.8224676-1.418059 1.8816545-2.127077 4.9767934-2.127077 9.2855095v22.1706879h-11.617113zm44.402725 45.81396754h12.844274v12.5988411h-12.844274zm46.447993-14.8077288c-.76357-4.8541232-3.626914-7.2811484-8.590119-7.2811484-1.854384 0-3.408771.4226842-4.663208 1.2680652-1.254436.845381-2.277059 1.9361788-3.067899 3.2724262s-1.349874 2.8088245-1.677119 4.4177755c-.327244 1.6089509-.490864 3.2042428-.490864 4.7859233 0 1.5271399.16362 3.0815269.490864 4.6632075.327245 1.5816806.859009 3.0133527 1.595308 4.2950594.7363 1.2817067 1.731653 2.3315996 2.986089 3.1497103 1.254437.8181106 2.781553 1.2271598 4.581397 1.2271598 2.781576 0 4.922267-.7771934 6.422136-2.3316037 1.49987-1.5544102 2.440683-3.6405611 2.822468-6.2585152h11.20806c-.76357 5.6176932-2.945166 9.8990747-6.544852 12.8442731-3.599687 2.9451983-8.208308 4.4177754-13.826001 4.4177754-3.163362 0-6.067611-.5317639-8.712835-1.5953078-2.645225-1.0635438-4.894995-2.5497559-6.749379-4.4586808-1.854385-1.9089248-3.299692-4.1859653-4.335965-6.8311898-1.036274-2.6452244-1.554403-5.5494737-1.554403-8.7128349 0-3.2724426.477224-6.3130416 1.431687-9.1218881.954462-2.8088466 2.358864-5.2358718 4.213249-7.2811485 1.854384-2.0452766 4.117789-3.6405684 6.790284-4.7859234 2.672495-1.1453549 5.726729-1.7180237 9.162794-1.7180237 2.508872 0 4.922262.3272393 7.240243.9817278 2.31798.6544886 4.390496 1.6498416 6.21761 2.986089 1.827113 1.3362474 3.313325 2.9997141 4.45868 4.99045 1.145355 1.990736 1.799834 4.3495863 1.963456 7.0766218zm23.868251 6.2994205c0 1.6907621.16362 3.3405938.490864 4.9495447.327244 1.608951.886278 3.0542581 1.677118 4.3359648.790841 1.2817067 1.840734 2.3043297 3.149711 3.0678996 1.308977.76357 2.945173 1.1453492 4.908639 1.1453492s3.613297-.3817792 4.949545-1.1453492c1.336247-.7635699 2.399775-1.7861929 3.190615-3.0678996.790841-1.2817067 1.349875-2.7270138 1.677119-4.3359648.327244-1.6089509.490864-3.2587826.490864-4.9495447 0-1.690762-.16362-3.3542287-.490864-4.99045s-.886278-3.0815284-1.677119-4.3359648c-.79084-1.2544363-1.854368-2.2770593-3.190615-3.0678996-1.336248-.7908403-2.986079-1.1862545-4.949545-1.1862545s-3.599662.3954142-4.908639 1.1862545-2.35887 1.8134633-3.149711 3.0678996c-.79084 1.2544364-1.349874 2.6997435-1.677118 4.3359648s-.490864 3.299688-.490864 4.99045zm-11.617113 0c0-3.381524.518129-6.4493929 1.554402-9.2036988 1.036274-2.7543059 2.508851-5.0995212 4.417776-7.0357164 1.908925-1.9361953 4.1996-3.4360423 6.872095-4.4995861 2.672495-1.0635439 5.672189-1.5953078 8.999172-1.5953078s6.340312.5317639 9.040078 1.5953078c2.699765 1.0635438 5.004075 2.5633908 6.913 4.4995861 1.908925 1.9361952 3.381502 4.2814105 4.417775 7.0357164 1.036274 2.7543059 1.554403 5.8221748 1.554403 9.2036988 0 3.3815241-.518129 6.435758-1.554403 9.1627935-1.036273 2.7270356-2.50885 5.0586159-4.417775 6.9948112-1.908925 1.9361952-4.213235 3.4224072-6.913 4.4586807-2.699766 1.0362735-5.713095 1.5544025-9.040078 1.5544025s-6.326677-.518129-8.999172-1.5544025-4.96317-2.5224855-6.872095-4.4586807c-1.908925-1.9361953-3.381502-4.2677756-4.417776-6.9948112-1.036273-2.7270355-1.554402-5.7812694-1.554402-9.1627935zm47.020667-21.1889599h10.962628v5.7267459h.163621c1.52714-2.1816284 3.367861-3.8723651 5.522219-5.0722607s4.622288-1.7998344 7.403865-1.7998344c2.672494 0 5.113155.5181289 7.322053 1.5544024 2.208899 1.0362735 3.886001 2.8633599 5.031356 5.481314 1.254436-1.8543841 2.958808-3.4905809 5.113166-4.9086394 2.154358-1.4180584 4.704098-2.127077 7.649296-2.127077 2.236169 0 4.308685.2726994 6.21761.8181065s3.545122 1.4180454 4.908639 2.617941c1.363518 1.1998957 2.427046 2.7679176 3.190616 4.7041128s1.145349 4.2677756 1.145349 6.9948111v28.3064871h-11.617113v-23.9705223c0-1.4180585-.05454-2.7542859-.163621-4.0087222-.109082-1.2544363-.409051-2.3452342-.899918-3.2724262-.490866-.9271921-1.213519-1.6634807-2.167982-2.2088878-.954462-.5454071-2.249785-.8181065-3.886006-.8181065s-2.958814.3136044-3.967817.9408225c-1.009003.6272182-1.799832 1.4453166-2.372509 2.4543197s-.954457 2.1543409-1.145349 3.4360476c-.190893 1.2817067-.286337 2.5770291-.286337 3.8860061v23.5614691h-11.617114v-23.7250904c0-1.2544363-.02727-2.4952188-.08181-3.7223848-.054541-1.227166-.286336-2.3588688-.695391-3.3951423s-1.090804-1.8680068-2.045266-2.495225c-.954463-.6272181-2.358865-.9408225-4.213249-.9408225-.545407 0-1.268061.1227147-2.167982.3681479-.899922.2454332-1.77256.7090223-2.617941 1.3907812s-1.568035 1.6634769-2.167983 2.9451836-.899917 2.9588084-.899917 5.0313554v24.5431969h-11.617113z" fill-rule="evenodd"/></svg>