<?xml version="1.0" encoding="UTF-8"?>
<svg width="321px" height="32px" viewBox="0 0 321 32" version="1.1" xmlns="http://www.w3.org/2000/svg" xmlns:xlink="http://www.w3.org/1999/xlink">
    <!-- Generator: Sketch 49.3 (51167) - http://www.bohemiancoding.com/sketch -->
    <desc>Created with Sketch.</desc>
    <defs></defs>
    <g id="Mariogogh_Index" stroke="none" stroke-width="1" fill="none" fill-rule="evenodd">
        <path d="M0,0.572779885 L4.78439668,0.572779885 L4.78439668,9.63617924 L4.88547549,9.63617924 C5.49195134,8.62538615 6.26688108,7.88976444 7.21028796,7.42929203 C8.15369484,6.96881963 9.07462584,6.73858688 9.97310858,6.73858688 C11.2534465,6.73858688 12.3035324,6.9126653 13.1233979,7.26082736 C13.9432634,7.60898942 14.5890382,8.09191665 15.0607417,8.70962354 C15.5324451,9.32733043 15.8637557,10.0797984 16.0546832,10.9670501 C16.2456108,11.8543019 16.3410732,12.8370026 16.3410732,13.9151819 L16.3410732,24.629535 L11.5566765,24.629535 L11.5566765,14.7911982 C11.5566765,13.3536258 11.3320592,12.2810781 10.8828178,11.573523 C10.4335764,10.8659678 9.63618496,10.5121955 8.49061947,10.5121955 C7.18781949,10.5121955 6.24442676,10.8996604 5.66041298,11.6746018 C5.07639919,12.4495431 4.78439668,13.7242464 4.78439668,15.4987498 L4.78439668,24.629535 L0,24.629535 L0,0.572779885 Z M29.8098205,14.0499536 C29.5851998,12.8370019 29.1865041,11.9160709 28.6137213,11.287133 C28.0409386,10.6581951 27.1705465,10.3437309 26.0025189,10.3437309 C25.2388086,10.3437309 24.6042647,10.4728858 24.0988681,10.7311996 C23.5934716,10.9895134 23.1891604,11.3095931 22.8859225,11.6914482 C22.5826845,12.0733034 22.3692981,12.4776146 22.2457567,12.9043939 C22.1222153,13.3311732 22.0492147,13.7130226 22.0267526,14.0499536 L29.8098205,14.0499536 Z M22.0267526,17.0823177 C22.0941388,18.6322005 22.4872192,19.755287 23.2060053,20.4516112 C23.9247915,21.1479353 24.9580312,21.4960921 26.3057553,21.4960921 C27.2716243,21.4960921 28.1027083,21.2546285 28.7990325,20.7716941 C29.4953566,20.2887596 29.9221295,19.7777552 30.079364,19.2386655 L34.2909808,19.2386655 C33.6171187,21.3276379 32.583879,22.8213431 31.1912308,23.7198258 C29.7985825,24.6183086 28.1139527,25.0675432 26.1372906,25.0675432 C24.7671045,25.0675432 23.5317092,24.8485413 22.4310679,24.410531 C21.3304265,23.9725206 20.3982646,23.3492076 19.6345543,22.5405731 C18.870844,21.7319386 18.2812235,20.7660842 17.8656752,19.6429807 C17.450127,18.5198773 17.242356,17.2844821 17.242356,15.936758 C17.242356,14.633958 17.4557424,13.4210245 17.8825217,12.2979211 C18.309301,11.1748176 18.9157678,10.2033477 19.7019402,9.38348223 C20.4881126,8.56361672 21.4258899,7.91784194 22.5153002,7.4461385 C23.6047105,6.97443506 24.8120286,6.73858688 26.1372906,6.73858688 C27.6197872,6.73858688 28.9113367,7.02497396 30.0119781,7.5977567 C31.1126195,8.17053945 32.0167042,8.93985376 32.7242593,9.90572271 C33.4318145,10.8715917 33.9428189,11.9722165 34.2572878,13.2076303 C34.5717568,14.4430441 34.6840654,15.7345936 34.5942172,17.0823177 L22.0267526,17.0823177 Z M35.6639646,0.572779885 L40.4483613,0.572779885 L40.4483613,24.629535 L35.6639646,24.629535 L35.6639646,0.572779885 Z M42.4615109,0.572779885 L47.2459076,0.572779885 L47.2459076,24.629535 L42.4615109,24.629535 L42.4615109,0.572779885 Z M53.3695952,15.936758 C53.3695952,16.6330821 53.4369804,17.3125495 53.5717528,17.9751805 C53.7065252,18.6378115 53.936758,19.2330474 54.262458,19.760906 C54.588158,20.2887646 55.0205463,20.7099221 55.559636,21.0243911 C56.0987256,21.33886 56.7725776,21.4960921 57.581212,21.4960921 C58.3898465,21.4960921 59.0693139,21.33886 59.6196345,21.0243911 C60.1699552,20.7099221 60.607959,20.2887646 60.933659,19.760906 C61.259359,19.2330474 61.4895917,18.6378115 61.6243641,17.9751805 C61.7591366,17.3125495 61.8265218,16.6330821 61.8265218,15.936758 C61.8265218,15.2404338 61.7591366,14.555351 61.6243641,13.881489 C61.4895917,13.2076269 61.259359,12.612391 60.933659,12.0957634 C60.607959,11.5791359 60.1699552,11.1579784 59.6196345,10.8322784 C59.0693139,10.5065784 58.3898465,10.3437309 57.581212,10.3437309 C56.7725776,10.3437309 56.0987256,10.5065784 55.559636,10.8322784 C55.0205463,11.1579784 54.588158,11.5791359 54.262458,12.0957634 C53.936758,12.612391 53.7065252,13.2076269 53.5717528,13.881489 C53.4369804,14.555351 53.3695952,15.2404338 53.3695952,15.936758 Z M48.5851985,15.936758 C48.5851985,14.5441097 48.798585,13.2806373 49.2253643,12.1463028 C49.6521436,11.0119684 50.2586103,10.0461139 51.0447827,9.24871049 C51.8309551,8.45130706 52.7743479,7.83360944 53.8749892,7.3955991 C54.9756306,6.95758876 56.2110258,6.73858688 57.581212,6.73858688 C58.9513982,6.73858688 60.1924089,6.95758876 61.3042813,7.3955991 C62.4161537,7.83360944 63.3651618,8.45130706 64.1513342,9.24871049 C64.9375066,10.0461139 65.5439734,11.0119684 65.9707527,12.1463028 C66.397532,13.2806373 66.6109184,14.5441097 66.6109184,15.936758 C66.6109184,17.3294062 66.397532,18.5872632 65.9707527,19.7103666 C65.5439734,20.83347 64.9375066,21.7937091 64.1513342,22.5911125 C63.3651618,23.3885159 62.4161537,24.0005981 61.3042813,24.4273774 C60.1924089,24.8541567 58.9513982,25.0675432 57.581212,25.0675432 C56.2110258,25.0675432 54.9756306,24.8541567 53.8749892,24.4273774 C52.7743479,24.0005981 51.8309551,23.3885159 51.0447827,22.5911125 C50.2586103,21.7937091 49.6521436,20.83347 49.2253643,19.7103666 C48.798585,18.5872632 48.5851985,17.3294062 48.5851985,15.936758 Z M84.8303695,14.9596629 C84.7629833,15.1842836 84.7012135,15.4257472 84.6450584,15.684061 C84.5889032,15.9423747 84.560826,16.1838384 84.560826,16.408459 C84.560826,16.6330797 84.6057495,16.818389 84.6955978,16.9643925 C84.785446,17.1103959 84.9314473,17.1833965 85.1336059,17.1833965 C85.6053093,17.1833965 86.0826211,17.0317799 86.5655556,16.7285419 C87.0484901,16.425304 87.475263,15.9985311 87.8458871,15.4482104 C88.2165113,14.8978897 88.5197446,14.2408841 88.7555964,13.4771738 C88.9914481,12.7134634 89.1093722,11.8823794 89.1093722,10.9838966 C89.1093722,9.6361725 88.873524,8.45131615 88.4018205,7.42929203 C87.9301171,6.40726791 87.2843423,5.54249124 86.4644768,4.83493608 C85.6446113,4.12738092 84.6787568,3.5939148 83.5668845,3.2345217 C82.4550121,2.8751286 81.2589249,2.69543475 79.9785869,2.69543475 C78.5410146,2.69543475 77.2326187,2.94812923 76.0533601,3.45352577 C74.8741015,3.95892232 73.868939,4.655236 73.0378425,5.54248771 C72.2067459,6.42973942 71.5665866,7.4854408 71.1173452,8.70962354 C70.6681038,9.93380628 70.4434865,11.253433 70.4434865,12.6685433 C70.4434865,14.1510399 70.6905656,15.4931283 71.1847311,16.694849 C71.6788966,17.8965697 72.3639794,18.9298093 73.2400001,19.794599 C74.1160207,20.6593886 75.1661067,21.3276251 76.3902894,21.7993286 C77.6144722,22.271032 78.9453298,22.5068802 80.3829022,22.5068802 C81.7980125,22.5068802 83.1401009,22.2654166 84.4092078,21.7824821 C85.6783147,21.2995476 86.7508624,20.6200802 87.626883,19.7440596 L90.4570895,19.7440596 C89.311524,21.4961009 87.8402806,22.8381894 86.0433151,23.7703652 C84.2463496,24.7025411 82.292179,25.168622 80.1807445,25.168622 C78.3837791,25.168622 76.6991492,24.8541577 75.1268044,24.2252198 C73.5544596,23.5962819 72.1786785,22.7202744 70.9994199,21.5971709 C69.8201613,20.4740675 68.8936149,19.1432099 68.2197528,17.6045582 C67.5458908,16.0659065 67.2089648,14.3981229 67.2089648,12.6011575 C67.2089648,10.826654 67.5458908,9.17010134 68.2197528,7.63144964 C68.8936149,6.09279794 69.8145459,4.76194034 70.9825735,3.63883691 C72.150601,2.51573349 73.5095358,1.62849509 75.0594185,0.977095097 C76.6093013,0.325695109 78.2602385,0 80.0122799,0 C81.5397005,0 83.010944,0.247079048 84.4260543,0.741244557 C85.8411646,1.23541007 87.0877907,1.92610831 88.16597,2.81336002 C89.2441493,3.70061173 90.108926,4.77877485 90.7603259,6.04788172 C91.4117259,7.3169886 91.737421,8.72646226 91.737421,10.276345 C91.737421,12.0059243 91.4285722,13.4883986 90.8108653,14.7238123 C90.1931585,15.9592261 89.4519213,16.970004 88.5871317,17.7561764 C87.722342,18.5423488 86.8463345,19.1207384 85.9590828,19.4913625 C85.0718311,19.8619867 84.3586711,20.047296 83.8195815,20.047296 C83.1007953,20.047296 82.5224057,19.8676021 82.0843953,19.508209 C81.646385,19.1488159 81.4049214,18.6883504 81.3599973,18.1267987 L81.2926114,18.1267987 C80.8882941,18.8006608 80.3604435,19.2948189 79.7090435,19.6092878 C79.0576435,19.9237568 78.3725607,20.0809889 77.6537745,20.0809889 C76.9349883,20.0809889 76.2555209,19.9293722 75.6153519,19.6261343 C74.975183,19.3228964 74.4136397,18.9073543 73.9307052,18.3794957 C73.4477707,17.8516371 73.0659213,17.2395549 72.7851454,16.5432308 C72.5043696,15.8469067 72.3639838,15.1056695 72.3639838,14.3194971 C72.3639838,13.2637799 72.5380622,12.2193094 72.8862243,11.1860542 C73.2343863,10.1527991 73.7285444,9.23186807 74.3687134,8.4232336 C75.0088823,7.61459913 75.7838121,6.96320891 76.6935258,6.4690434 C77.6032396,5.97487789 78.6084021,5.72779885 79.7090435,5.72779885 C80.4278297,5.72779885 81.1690668,5.90187727 81.9327771,6.25003933 C82.6964875,6.59820139 83.2692616,7.21028358 83.6511168,8.08630425 L84.1902037,6.2668858 L86.9530244,6.2668858 L84.8303695,14.9596629 Z M75.8006631,13.881489 C75.8006631,14.7799717 76.0421267,15.5043626 76.5250612,16.0546832 C77.0079956,16.6050039 77.6425396,16.8801601 78.428712,16.8801601 C79.0351878,16.8801601 79.5911157,16.722928 80.0965122,16.408459 C80.6019088,16.0939901 81.0399125,15.6952944 81.4105367,15.2123599 C81.7811608,14.7294254 82.0675479,14.1847284 82.2697065,13.5782526 C82.4718651,12.9717767 82.5729429,12.3765408 82.5729429,11.792527 C82.5729429,10.9614305 82.3202484,10.2763477 81.8148519,9.73725804 C81.3094553,9.19816839 80.6973731,8.92862761 79.9785869,8.92862761 C79.3721111,8.92862761 78.8105678,9.0802443 78.2939402,9.38348223 C77.7773126,9.68672015 77.3336934,10.0798005 76.9630693,10.5627349 C76.5924452,11.0456694 76.3060581,11.5791355 76.1038995,12.1631493 C75.9017409,12.7471631 75.8006631,13.3199373 75.8006631,13.881489 Z M93.0093261,7.21028796 L97.5241793,7.21028796 L97.5241793,9.56879337 L97.5915652,9.56879337 C98.2205031,8.67031062 98.9785865,7.97399694 99.8658383,7.47983143 C100.75309,6.98566593 101.769483,6.73858688 102.915049,6.73858688 C104.01569,6.73858688 105.020853,6.95197333 105.930566,7.37875263 C106.84028,7.80553193 107.530978,8.55799994 108.002682,9.63617924 C108.519309,8.8724689 109.221239,8.19861695 110.10849,7.61460317 C110.995742,7.03058939 112.045828,6.73858688 113.25878,6.73858688 C114.179724,6.73858688 115.03327,6.85089554 115.819443,7.07551622 C116.605615,7.30013691 117.279467,7.65952461 117.841019,8.15369012 C118.40257,8.64785563 118.840574,9.29363042 119.155043,10.0910338 C119.469512,10.8884373 119.626744,11.8486763 119.626744,12.9717797 L119.626744,24.629535 L114.842348,24.629535 L114.842348,14.7575053 C114.842348,14.1734915 114.819886,13.6231791 114.774962,13.1065515 C114.730038,12.5899239 114.606498,12.1406893 114.404339,11.7588341 C114.202181,11.3769789 113.904563,11.0737456 113.511477,10.8491249 C113.11839,10.6245042 112.584924,10.5121955 111.911062,10.5121955 C111.2372,10.5121955 110.692503,10.6413505 110.276955,10.8996643 C109.861407,11.1579781 109.535712,11.494904 109.29986,11.9104523 C109.064008,12.3260006 108.906776,12.7976969 108.828159,13.3255556 C108.749542,13.8534142 108.710234,14.3868803 108.710234,14.9259699 L108.710234,24.629535 L103.925837,24.629535 L103.925837,14.8585841 C103.925837,14.3419565 103.914606,13.8309521 103.892144,13.3255556 C103.869682,12.820159 103.774219,12.3540781 103.605754,11.9272988 C103.437288,11.5005195 103.156517,11.1579781 102.763431,10.8996643 C102.370344,10.6413505 101.791955,10.5121955 101.028244,10.5121955 C100.803624,10.5121955 100.506006,10.5627344 100.135382,10.6638137 C99.7647576,10.764893 99.4053699,10.9558178 99.0572078,11.2365936 C98.7090458,11.5173695 98.4114278,11.9216806 98.1643451,12.4495393 C97.9172623,12.9773979 97.7937228,13.6680961 97.7937228,14.5216547 L97.7937228,24.629535 L93.0093261,24.629535 L93.0093261,7.21028796 Z M121.302965,12.5674645 C121.370351,11.4443611 121.651122,10.5121992 122.145288,9.77095097 C122.639453,9.02970271 123.268382,8.43446682 124.032092,7.98522545 C124.795803,7.53598408 125.654964,7.2159044 126.609602,7.02497682 C127.56424,6.83404924 128.524479,6.73858688 129.490348,6.73858688 C130.366368,6.73858688 131.253607,6.80035664 132.152089,6.92389802 C133.050572,7.04743939 133.870425,7.28890301 134.611674,7.64829611 C135.352922,8.0076892 135.959389,8.50746273 136.431092,9.14763169 C136.902796,9.78780064 137.138644,10.635731 137.138644,11.6914482 L137.138644,20.7548476 C137.138644,21.54102 137.183567,22.293488 137.273415,23.0122742 C137.363264,23.7310604 137.520496,24.2701419 137.745117,24.629535 L132.893334,24.629535 C132.803486,24.3599902 132.730485,24.084834 132.67433,23.8040581 C132.618175,23.5232823 132.578867,23.2368952 132.556405,22.9448883 C131.792694,23.7310607 130.894225,24.2813731 129.86097,24.5958421 C128.827715,24.9103111 127.772013,25.0675432 126.693834,25.0675432 C125.862738,25.0675432 125.087808,24.9664654 124.369022,24.7643068 C123.650235,24.5621482 123.021307,24.2476839 122.482217,23.8209046 C121.943128,23.3941253 121.52197,22.8550438 121.218732,22.2036438 C120.915494,21.5522438 120.763878,20.777314 120.763878,19.8788313 C120.763878,18.8905003 120.937956,18.0762625 121.286118,17.4360935 C121.63428,16.7959246 122.083515,16.2849202 122.633835,15.903065 C123.184156,15.5212099 123.813085,15.2348228 124.52064,15.0438952 C125.228195,14.8529676 125.941355,14.7013509 126.660141,14.5890406 C127.378927,14.4767302 128.086472,14.3868833 128.782796,14.3194971 C129.47912,14.2521109 130.096818,14.1510331 130.635907,14.0162607 C131.174997,13.8814883 131.60177,13.6849481 131.916239,13.4266344 C132.230708,13.1683206 132.376709,12.7920866 132.354247,12.2979211 C132.354247,11.7812935 132.270016,11.3713669 132.10155,11.0681289 C131.933085,10.764891 131.708467,10.5290428 131.427691,10.3605773 C131.146915,10.1921118 130.82122,10.0798032 130.450596,10.023648 C130.079972,9.96749281 129.681276,9.93941564 129.254497,9.93941564 C128.31109,9.93941564 127.569853,10.1415712 127.030763,10.5458885 C126.491674,10.9502057 126.17721,11.6240576 126.087361,12.5674645 L121.302965,12.5674645 Z M132.354247,16.1052226 C132.152088,16.2849192 131.899394,16.425305 131.596156,16.5263843 C131.292918,16.6274636 130.967223,16.7116951 130.619061,16.7790813 C130.270899,16.8464675 129.905896,16.9026219 129.524041,16.947546 C129.142185,16.9924701 128.760336,17.0486245 128.378481,17.1160107 C128.019088,17.1833969 127.665315,17.2732438 127.317153,17.3855541 C126.968991,17.4978645 126.665758,17.6494812 126.407444,17.8404088 C126.14913,18.0313363 125.941359,18.2728 125.784125,18.5648068 C125.62689,18.8568137 125.548274,19.2274323 125.548274,19.6766737 C125.548274,20.103453 125.62689,20.4628407 125.784125,20.7548476 C125.941359,21.0468545 126.154746,21.2770872 126.424291,21.4455527 C126.693835,21.6140183 127.0083,21.7319423 127.367693,21.7993286 C127.727086,21.8667148 128.097704,21.9004074 128.47956,21.9004074 C129.422966,21.9004074 130.152973,21.7431752 130.6696,21.4287063 C131.186228,21.1142373 131.568077,20.7380033 131.81516,20.299993 C132.062243,19.8619826 132.21386,19.4183634 132.270015,18.9691221 C132.32617,18.5198807 132.354247,18.160493 132.354247,17.8909482 L132.354247,16.1052226 Z M138.949636,7.21028796 L143.498182,7.21028796 L143.498182,10.4448097 L143.565568,10.4448097 C143.790188,9.90572002 144.093422,9.40594649 144.475277,8.94547408 C144.857132,8.48500167 145.295136,8.09192137 145.789301,7.76622138 C146.283467,7.44052138 146.811318,7.1878269 147.372869,7.00813035 C147.934421,6.8284338 148.518426,6.73858688 149.124902,6.73858688 C149.439371,6.73858688 149.787528,6.79474121 150.169383,6.90705155 L150.169383,11.3545189 C149.944762,11.3095948 149.675221,11.2702867 149.360752,11.2365936 C149.046283,11.2029005 148.74305,11.1860542 148.451043,11.1860542 C147.575023,11.1860542 146.833785,11.3320555 146.22731,11.6240624 C145.620834,11.9160693 145.132291,12.314765 144.761667,12.8201615 C144.391043,13.3255581 144.127117,13.9151785 143.969883,14.5890406 C143.812648,15.2629026 143.734032,15.9929089 143.734032,16.7790813 L143.734032,24.629535 L138.949636,24.629535 L138.949636,7.21028796 Z M155.487721,4.51485321 L150.703325,4.51485321 L150.703325,0.572779885 L155.487721,0.572779885 L155.487721,4.51485321 Z M150.703325,7.21028796 L155.487721,7.21028796 L155.487721,24.629535 L150.703325,24.629535 L150.703325,7.21028796 Z M161.203812,15.936758 C161.203812,16.6330821 161.271198,17.3125495 161.40597,17.9751805 C161.540742,18.6378115 161.770975,19.2330474 162.096675,19.760906 C162.422375,20.2887646 162.854764,20.7099221 163.393853,21.0243911 C163.932943,21.33886 164.606795,21.4960921 165.415429,21.4960921 C166.224064,21.4960921 166.903531,21.33886 167.453852,21.0243911 C168.004172,20.7099221 168.442176,20.2887646 168.767876,19.760906 C169.093576,19.2330474 169.323809,18.6378115 169.458581,17.9751805 C169.593354,17.3125495 169.660739,16.6330821 169.660739,15.936758 C169.660739,15.2404338 169.593354,14.555351 169.458581,13.881489 C169.323809,13.2076269 169.093576,12.612391 168.767876,12.0957634 C168.442176,11.5791359 168.004172,11.1579784 167.453852,10.8322784 C166.903531,10.5065784 166.224064,10.3437309 165.415429,10.3437309 C164.606795,10.3437309 163.932943,10.5065784 163.393853,10.8322784 C162.854764,11.1579784 162.422375,11.5791359 162.096675,12.0957634 C161.770975,12.612391 161.540742,13.2076269 161.40597,13.881489 C161.271198,14.555351 161.203812,15.2404338 161.203812,15.936758 Z M156.419416,15.936758 C156.419416,14.5441097 156.632802,13.2806373 157.059582,12.1463028 C157.486361,11.0119684 158.092828,10.0461139 158.879,9.24871049 C159.665172,8.45130706 160.608565,7.83360944 161.709206,7.3955991 C162.809848,6.95758876 164.045243,6.73858688 165.415429,6.73858688 C166.785615,6.73858688 168.026626,6.95758876 169.138499,7.3955991 C170.250371,7.83360944 171.199379,8.45130706 171.985551,9.24871049 C172.771724,10.0461139 173.378191,11.0119684 173.80497,12.1463028 C174.231749,13.2806373 174.445136,14.5441097 174.445136,15.936758 C174.445136,17.3294062 174.231749,18.5872632 173.80497,19.7103666 C173.378191,20.83347 172.771724,21.7937091 171.985551,22.5911125 C171.199379,23.3885159 170.250371,24.0005981 169.138499,24.4273774 C168.026626,24.8541567 166.785615,25.0675432 165.415429,25.0675432 C164.045243,25.0675432 162.809848,24.8541567 161.709206,24.4273774 C160.608565,24.0005981 159.665172,23.3885159 158.879,22.5911125 C158.092828,21.7937091 157.486361,20.83347 157.059582,19.7103666 C156.632802,18.5872632 156.419416,17.3294062 156.419416,15.936758 Z M183.769652,20.518997 C184.443514,20.518997 185.03875,20.3842267 185.555378,20.1146818 C186.072005,19.845137 186.498778,19.4857493 186.835709,19.0365079 C187.17264,18.5872666 187.425335,18.0762622 187.5938,17.5034794 C187.762266,16.9306967 187.846497,16.3298453 187.846497,15.7009074 C187.846497,14.9821212 187.779112,14.3026538 187.64434,13.6624849 C187.509567,13.0223159 187.28495,12.4551572 186.970481,11.9609917 C186.656012,11.4668262 186.24047,11.0737459 185.723842,10.781739 C185.207215,10.4897321 184.555824,10.3437309 183.769652,10.3437309 C183.09579,10.3437309 182.5174,10.4785012 182.034466,10.7480461 C181.551531,11.0175909 181.14722,11.382594 180.82152,11.8430664 C180.49582,12.3035388 180.259972,12.8313895 180.113969,13.4266344 C179.967965,14.0218792 179.894965,14.6451922 179.894965,15.2965922 C179.894965,15.9255301 179.956734,16.5488432 180.080276,17.1665501 C180.203817,17.784257 180.417204,18.3401848 180.720441,18.8343503 C181.023679,19.3285158 181.422375,19.732827 181.916541,20.047296 C182.410706,20.3617649 183.028404,20.518997 183.769652,20.518997 Z M192.395043,23.5176682 C192.395043,24.2139923 192.299581,25.0113838 192.108653,25.9098665 C191.917726,26.8083493 191.507799,27.6450488 190.878861,28.4199902 C190.249923,29.1949315 189.340223,29.8519372 188.149734,30.3910268 C186.959244,30.9301165 185.364461,31.1996572 183.365337,31.1996572 C182.511778,31.1996572 181.641386,31.092964 180.754134,30.8795744 C179.866883,30.6661847 179.05826,30.3348742 178.328243,29.8856328 C177.598226,29.4363914 176.991759,28.8580018 176.508825,28.1504467 C176.02589,27.4428915 175.750734,26.5949612 175.683348,25.6066301 L180.434052,25.6066301 C180.658672,26.5051129 181.096676,27.1284259 181.748076,27.476588 C182.399476,27.8247501 183.151944,27.9988285 184.005503,27.9988285 C185.353227,27.9988285 186.335927,27.5945173 186.953634,26.7858828 C187.571341,25.9772484 187.868959,24.9552396 187.846497,23.7198258 L187.846497,21.4287063 L187.779111,21.4287063 C187.262484,22.3496511 186.526862,23.0291185 185.572224,23.4671288 C184.617586,23.9051391 183.612424,24.124141 182.556706,24.124141 C181.253906,24.124141 180.13082,23.8939083 179.187413,23.4334359 C178.244006,22.9729635 177.469076,22.344035 176.862601,21.5466315 C176.256125,20.7492281 175.812505,19.8170662 175.53173,18.750118 C175.250954,17.6831697 175.110568,16.5544677 175.110568,15.3639781 C175.110568,14.2408747 175.273415,13.1570961 175.599115,12.1126099 C175.924815,11.0681237 176.402127,10.1471927 177.031065,9.34978929 C177.660003,8.55238586 178.440548,7.91784194 179.372724,7.4461385 C180.3049,6.97443506 181.377448,6.73858688 182.590399,6.73858688 C183.735965,6.73858688 184.741127,6.95197333 185.605917,7.37875263 C186.470707,7.80553193 187.195097,8.52430735 187.779111,9.53510043 L187.846497,9.53510043 L187.846497,7.21028796 L192.395043,7.21028796 L192.395043,23.5176682 Z M198.586117,15.936758 C198.586117,16.6330821 198.653502,17.3125495 198.788274,17.9751805 C198.923047,18.6378115 199.15328,19.2330474 199.478979,19.760906 C199.804679,20.2887646 200.237068,20.7099221 200.776157,21.0243911 C201.315247,21.33886 201.989099,21.4960921 202.797734,21.4960921 C203.606368,21.4960921 204.285835,21.33886 204.836156,21.0243911 C205.386477,20.7099221 205.824481,20.2887646 206.150181,19.760906 C206.47588,19.2330474 206.706113,18.6378115 206.840886,17.9751805 C206.975658,17.3125495 207.043043,16.6330821 207.043043,15.936758 C207.043043,15.2404338 206.975658,14.555351 206.840886,13.881489 C206.706113,13.2076269 206.47588,12.612391 206.150181,12.0957634 C205.824481,11.5791359 205.386477,11.1579784 204.836156,10.8322784 C204.285835,10.5065784 203.606368,10.3437309 202.797734,10.3437309 C201.989099,10.3437309 201.315247,10.5065784 200.776157,10.8322784 C200.237068,11.1579784 199.804679,11.5791359 199.478979,12.0957634 C199.15328,12.612391 198.923047,13.2076269 198.788274,13.881489 C198.653502,14.555351 198.586117,15.2404338 198.586117,15.936758 Z M193.80172,15.936758 C193.80172,14.5441097 194.015107,13.2806373 194.441886,12.1463028 C194.868665,11.0119684 195.475132,10.0461139 196.261304,9.24871049 C197.047477,8.45130706 197.990869,7.83360944 199.091511,7.3955991 C200.192152,6.95758876 201.427547,6.73858688 202.797734,6.73858688 C204.16792,6.73858688 205.40893,6.95758876 206.520803,7.3955991 C207.632675,7.83360944 208.581683,8.45130706 209.367856,9.24871049 C210.154028,10.0461139 210.760495,11.0119684 211.187274,12.1463028 C211.614053,13.2806373 211.82744,14.5441097 211.82744,15.936758 C211.82744,17.3294062 211.614053,18.5872632 211.187274,19.7103666 C210.760495,20.83347 210.154028,21.7937091 209.367856,22.5911125 C208.581683,23.3885159 207.632675,24.0005981 206.520803,24.4273774 C205.40893,24.8541567 204.16792,25.0675432 202.797734,25.0675432 C201.427547,25.0675432 200.192152,24.8541567 199.091511,24.4273774 C197.990869,24.0005981 197.047477,23.3885159 196.261304,22.5911125 C195.475132,21.7937091 194.868665,20.83347 194.441886,19.7103666 C194.015107,18.5872632 193.80172,17.3294062 193.80172,15.936758 Z M221.151956,20.518997 C221.825818,20.518997 222.421054,20.3842267 222.937682,20.1146818 C223.454309,19.845137 223.881082,19.4857493 224.218013,19.0365079 C224.554944,18.5872666 224.807639,18.0762622 224.976104,17.5034794 C225.14457,16.9306967 225.228801,16.3298453 225.228801,15.7009074 C225.228801,14.9821212 225.161416,14.3026538 225.026644,13.6624849 C224.891871,13.0223159 224.667254,12.4551572 224.352785,11.9609917 C224.038316,11.4668262 223.622774,11.0737459 223.106147,10.781739 C222.589519,10.4897321 221.938129,10.3437309 221.151956,10.3437309 C220.478094,10.3437309 219.899705,10.4785012 219.41677,10.7480461 C218.933836,11.0175909 218.529525,11.382594 218.203825,11.8430664 C217.878125,12.3035388 217.642276,12.8313895 217.496273,13.4266344 C217.35027,14.0218792 217.277269,14.6451922 217.277269,15.2965922 C217.277269,15.9255301 217.339039,16.5488432 217.46258,17.1665501 C217.586121,17.784257 217.799508,18.3401848 218.102746,18.8343503 C218.405984,19.3285158 218.804679,19.732827 219.298845,20.047296 C219.79301,20.3617649 220.410708,20.518997 221.151956,20.518997 Z M229.777348,23.5176682 C229.777348,24.2139923 229.681885,25.0113838 229.490958,25.9098665 C229.30003,26.8083493 228.890103,27.6450488 228.261165,28.4199902 C227.632228,29.1949315 226.722527,29.8519372 225.532038,30.3910268 C224.341548,30.9301165 222.746765,31.1996572 220.747641,31.1996572 C219.894083,31.1996572 219.02369,31.092964 218.136439,30.8795744 C217.249187,30.6661847 216.440565,30.3348742 215.710547,29.8856328 C214.98053,29.4363914 214.374063,28.8580018 213.891129,28.1504467 C213.408194,27.4428915 213.133038,26.5949612 213.065652,25.6066301 L217.816356,25.6066301 C218.040977,26.5051129 218.47898,27.1284259 219.13038,27.476588 C219.78178,27.8247501 220.534248,27.9988285 221.387807,27.9988285 C222.735531,27.9988285 223.718232,27.5945173 224.335939,26.7858828 C224.953646,25.9772484 225.251263,24.9552396 225.228801,23.7198258 L225.228801,21.4287063 L225.161416,21.4287063 C224.644788,22.3496511 223.909166,23.0291185 222.954528,23.4671288 C221.99989,23.9051391 220.994728,24.124141 219.939011,24.124141 C218.636211,24.124141 217.513124,23.8939083 216.569717,23.4334359 C215.62631,22.9729635 214.851381,22.344035 214.244905,21.5466315 C213.638429,20.7492281 213.19481,19.8170662 212.914034,18.750118 C212.633258,17.6831697 212.492872,16.5544677 212.492872,15.3639781 C212.492872,14.2408747 212.65572,13.1570961 212.98142,12.1126099 C213.30712,11.0681237 213.784432,10.1471927 214.413369,9.34978929 C215.042307,8.55238586 215.822853,7.91784194 216.755028,7.4461385 C217.687204,6.97443506 218.759752,6.73858688 219.972704,6.73858688 C221.118269,6.73858688 222.123432,6.95197333 222.988221,7.37875263 C223.853011,7.80553193 224.577402,8.52430735 225.161416,9.53510043 L225.228801,9.53510043 L225.228801,7.21028796 L229.777348,7.21028796 L229.777348,23.5176682 Z M231.723111,0.572779885 L236.507508,0.572779885 L236.507508,9.63617924 L236.608587,9.63617924 C237.215063,8.62538615 237.989992,7.88976444 238.933399,7.42929203 C239.876806,6.96881963 240.797737,6.73858688 241.69622,6.73858688 C242.976558,6.73858688 244.026644,6.9126653 244.846509,7.26082736 C245.666375,7.60898942 246.31215,8.09191665 246.783853,8.70962354 C247.255556,9.32733043 247.586867,10.0797984 247.777795,10.9670501 C247.968722,11.8543019 248.064184,12.8370026 248.064184,13.9151819 L248.064184,24.629535 L243.279788,24.629535 L243.279788,14.7911982 C243.279788,13.3536258 243.05517,12.2810781 242.605929,11.573523 C242.156688,10.8659678 241.359296,10.5121955 240.213731,10.5121955 C238.910931,10.5121955 237.967538,10.8996604 237.383524,11.6746018 C236.79951,12.4495431 236.507508,13.7242464 236.507508,15.4987498 L236.507508,24.629535 L231.723111,24.629535 L231.723111,0.572779885 Z M250.009948,19.4408231 L255.299739,19.4408231 L255.299739,24.629535 L250.009948,24.629535 L250.009948,19.4408231 Z M269.139108,13.342402 C268.82464,11.3432779 267.645399,10.3437309 265.60135,10.3437309 C264.83764,10.3437309 264.197481,10.5178093 263.680853,10.8659713 C263.164226,11.2141334 262.743068,11.663368 262.417368,12.2136887 C262.091668,12.7640094 261.861435,13.3704762 261.726663,14.0331072 C261.591891,14.6957382 261.524505,15.3527438 261.524505,16.0041438 C261.524505,16.6330818 261.591891,17.2732411 261.726663,17.9246411 C261.861435,18.5760411 262.080437,19.1656615 262.383675,19.6935202 C262.686913,20.2213788 263.09684,20.6537671 263.613467,20.9906981 C264.130095,21.3276292 264.759023,21.4960921 265.500272,21.4960921 C266.645837,21.4960921 267.52746,21.1760125 268.145167,20.5358435 C268.762874,19.8956746 269.150339,19.0365133 269.307573,17.958334 L273.923505,17.958334 C273.609036,20.2719271 272.710567,22.035173 271.22807,23.2481247 C269.745574,24.4610764 267.847558,25.0675432 265.533965,25.0675432 C264.231165,25.0675432 263.035077,24.8485413 261.945667,24.410531 C260.856257,23.9725206 259.92971,23.3604384 259.166,22.574266 C258.40229,21.7880936 257.807054,20.8503163 257.380274,19.760906 C256.953495,18.6714957 256.740109,17.4754085 256.740109,16.1726085 C256.740109,14.8248844 256.936649,13.5726429 257.329735,12.4158463 C257.722821,11.2590498 258.301211,10.2595027 259.064921,9.41717516 C259.828631,8.57484759 260.760793,7.91784194 261.861435,7.4461385 C262.962076,6.97443506 264.219933,6.73858688 265.635043,6.73858688 C266.668298,6.73858688 267.66223,6.87335727 268.616868,7.14290209 C269.571506,7.41244691 270.425052,7.82237352 271.177531,8.3726942 C271.93001,8.92301488 272.542093,9.60809769 273.013796,10.4279632 C273.485499,11.2478287 273.75504,12.2192986 273.822426,13.342402 L269.139108,13.342402 Z M278.969019,15.936758 C278.969019,16.6330821 279.036404,17.3125495 279.171176,17.9751805 C279.305949,18.6378115 279.536182,19.2330474 279.861882,19.760906 C280.187582,20.2887646 280.61997,20.7099221 281.15906,21.0243911 C281.698149,21.33886 282.372001,21.4960921 283.180636,21.4960921 C283.98927,21.4960921 284.668738,21.33886 285.219058,21.0243911 C285.769379,20.7099221 286.207383,20.2887646 286.533083,19.760906 C286.858783,19.2330474 287.089015,18.6378115 287.223788,17.9751805 C287.35856,17.3125495 287.425945,16.6330821 287.425945,15.936758 C287.425945,15.2404338 287.35856,14.555351 287.223788,13.881489 C287.089015,13.2076269 286.858783,12.612391 286.533083,12.0957634 C286.207383,11.5791359 285.769379,11.1579784 285.219058,10.8322784 C284.668738,10.5065784 283.98927,10.3437309 283.180636,10.3437309 C282.372001,10.3437309 281.698149,10.5065784 281.15906,10.8322784 C280.61997,11.1579784 280.187582,11.5791359 279.861882,12.0957634 C279.536182,12.612391 279.305949,13.2076269 279.171176,13.881489 C279.036404,14.555351 278.969019,15.2404338 278.969019,15.936758 Z M274.184622,15.936758 C274.184622,14.5441097 274.398009,13.2806373 274.824788,12.1463028 C275.251567,11.0119684 275.858034,10.0461139 276.644206,9.24871049 C277.430379,8.45130706 278.373772,7.83360944 279.474413,7.3955991 C280.575054,6.95758876 281.81045,6.73858688 283.180636,6.73858688 C284.550822,6.73858688 285.791833,6.95758876 286.903705,7.3955991 C288.015577,7.83360944 288.964585,8.45130706 289.750758,9.24871049 C290.53693,10.0461139 291.143397,11.0119684 291.570176,12.1463028 C291.996956,13.2806373 292.210342,14.5441097 292.210342,15.936758 C292.210342,17.3294062 291.996956,18.5872632 291.570176,19.7103666 C291.143397,20.83347 290.53693,21.7937091 289.750758,22.5911125 C288.964585,23.3885159 288.015577,24.0005981 286.903705,24.4273774 C285.791833,24.8541567 284.550822,25.0675432 283.180636,25.0675432 C281.81045,25.0675432 280.575054,24.8541567 279.474413,24.4273774 C278.373772,24.0005981 277.430379,23.3885159 276.644206,22.5911125 C275.858034,21.7937091 275.251567,20.83347 274.824788,19.7103666 C274.398009,18.5872632 274.184622,17.3294062 274.184622,15.936758 Z M293.549633,7.21028796 L298.064486,7.21028796 L298.064486,9.56879337 L298.131872,9.56879337 C298.76081,8.67031062 299.518893,7.97399694 300.406145,7.47983143 C301.293397,6.98566593 302.30979,6.73858688 303.455356,6.73858688 C304.555997,6.73858688 305.56116,6.95197333 306.470873,7.37875263 C307.380587,7.80553193 308.071285,8.55799994 308.542989,9.63617924 C309.059616,8.8724689 309.761546,8.19861695 310.648797,7.61460317 C311.536049,7.03058939 312.586135,6.73858688 313.799087,6.73858688 C314.720031,6.73858688 315.573577,6.85089554 316.35975,7.07551622 C317.145922,7.30013691 317.819774,7.65952461 318.381326,8.15369012 C318.942877,8.64785563 319.380881,9.29363042 319.69535,10.0910338 C320.009819,10.8884373 320.167051,11.8486763 320.167051,12.9717797 L320.167051,24.629535 L315.382655,24.629535 L315.382655,14.7575053 C315.382655,14.1734915 315.360193,13.6231791 315.315269,13.1065515 C315.270345,12.5899239 315.146805,12.1406893 314.944646,11.7588341 C314.742488,11.3769789 314.44487,11.0737456 314.051784,10.8491249 C313.658697,10.6245042 313.125231,10.5121955 312.451369,10.5121955 C311.777507,10.5121955 311.23281,10.6413505 310.817262,10.8996643 C310.401714,11.1579781 310.076019,11.494904 309.840167,11.9104523 C309.604315,12.3260006 309.447083,12.7976969 309.368466,13.3255556 C309.289848,13.8534142 309.25054,14.3868803 309.25054,14.9259699 L309.25054,24.629535 L304.466144,24.629535 L304.466144,14.8585841 C304.466144,14.3419565 304.454913,13.8309521 304.432451,13.3255556 C304.409989,12.820159 304.314526,12.3540781 304.146061,11.9272988 C303.977595,11.5005195 303.696824,11.1579781 303.303738,10.8996643 C302.910651,10.6413505 302.332262,10.5121955 301.568551,10.5121955 C301.343931,10.5121955 301.046313,10.5627344 300.675689,10.6638137 C300.305065,10.764893 299.945677,10.9558178 299.597515,11.2365936 C299.249353,11.5173695 298.951735,11.9216806 298.704652,12.4495393 C298.457569,12.9773979 298.33403,13.6680961 298.33403,14.5216547 L298.33403,24.629535 L293.549633,24.629535 L293.549633,7.21028796 Z" id="hello@mariogogh.com" fill="#E53935"></path>
    </g>
</svg>