<?xml version="1.0" encoding="UTF-8"?>
<svg width="20px" height="20px" viewBox="0 0 20 20" version="1.1" xmlns="http://www.w3.org/2000/svg" xmlns:xlink="http://www.w3.org/1999/xlink">
    <!-- Generator: Sketch 49.3 (51167) - http://www.bohemiancoding.com/sketch -->
    <desc>Created with Sketch.</desc>
    <defs></defs>
    <g id="Mariogogh_Index" stroke="none" stroke-width="1" fill="none" fill-rule="evenodd">
        <g id="Active">
            <g id="Group">
                <circle id="Oval-2" fill="#000000" cx="9.8" cy="9.8" r="9.8"></circle>
                <path d="M11.4333333,13.6536458 C11.2546866,12.6285539 10.9569465,11.5694499 10.5401042,10.4763021 L10.5273438,10.4763021 L10.5145833,10.4826823 C10.4465274,10.5082033 10.3550787,10.543294 10.2402344,10.5879557 C10.1253901,10.6326174 9.91059185,10.7368264 9.59583333,10.9005859 C9.28107482,11.0643454 8.98971488,11.2387361 8.72174479,11.423763 C8.4537747,11.60879 8.17517506,11.8522988 7.8859375,12.1542969 C7.59669994,12.4562949 7.37764831,12.7710487 7.22877604,13.0985677 L7.13307292,13.0283854 C7.91571572,13.6664094 8.80468252,13.9854167 9.8,13.9854167 C10.3614611,13.9854167 10.9059001,13.8748275 11.4333333,13.6536458 Z M10.2529948,9.78085938 C10.1636714,9.57243819 10.0509555,9.33637285 9.91484375,9.07265625 C8.59200727,9.46823114 7.16072818,9.66601562 5.62096354,9.66601562 C5.61671005,9.69579008 5.61458333,9.74045109 5.61458333,9.8 C5.61458333,10.3274332 5.70815879,10.8304013 5.8953125,11.3089193 C6.08246621,11.7874373 6.34617885,12.2159703 6.68645833,12.5945312 C6.89913301,12.2159703 7.16178229,11.8618723 7.47441406,11.5322266 C7.78704583,11.2025808 8.0901027,10.9378048 8.38359375,10.7378906 C8.6770848,10.5379764 8.95462109,10.3657125 9.21621094,10.2210938 C9.47780079,10.076475 9.68940891,9.97439266 9.85104167,9.91484375 L10.0871094,9.83190104 C10.1041233,9.82764755 10.1317706,9.82020405 10.1700521,9.80957031 C10.2083335,9.79893658 10.2359808,9.78936636 10.2529948,9.78085938 Z M9.5703125,8.42825521 C9.05989328,7.5222611 8.54097486,6.71836288 8.01354167,6.01653646 C7.42655957,6.29301354 6.92890829,6.6885825 6.52057292,7.20325521 C6.11223754,7.71792792 5.84001804,8.29639436 5.70390625,8.93867187 C6.98846128,8.93867187 8.27725048,8.76853469 9.5703125,8.42825521 Z M13.934375,10.4635417 C13.0411414,10.2083321 12.171315,10.1466573 11.3248698,10.2785156 C11.6949237,11.2951006 11.9671432,12.2925298 12.1415365,13.2708333 C12.6136742,12.9518213 13.0071165,12.5488089 13.321875,12.0617839 C13.6366335,11.5747588 13.8407981,11.0420168 13.934375,10.4635417 Z M8.79830729,5.73580729 C8.7940538,5.73580729 8.78980037,5.73793401 8.78554687,5.7421875 C8.78980037,5.73793401 8.7940538,5.73580729 8.79830729,5.73580729 Z M12.5626302,6.6609375 C11.7757339,5.96336457 10.8548664,5.61458333 9.8,5.61458333 C9.47673449,5.61458333 9.14709369,5.65499092 8.81106771,5.73580729 C9.36827536,6.45890118 9.89144721,7.27130626 10.380599,8.17304687 C10.67409,8.06245604 10.9505629,7.9337898 11.210026,7.78704427 C11.4694891,7.64029875 11.6747171,7.50950578 11.8257161,7.39466146 C11.9767152,7.27981713 12.116015,7.15859439 12.2436198,7.03098958 C12.3712246,6.90338478 12.4509764,6.81725283 12.4828776,6.77259115 L12.5626302,6.6609375 Z M13.9854167,9.75533854 C13.9726562,8.76852805 13.6557757,7.89657497 13.0347656,7.13945312 L13.0283854,7.14583333 C12.990104,7.19687526 12.9496964,7.24897977 12.9071615,7.30214844 C12.8646265,7.35531711 12.7721144,7.44995592 12.6296224,7.58606771 C12.4871304,7.7221795 12.3361336,7.85084575 12.1766276,7.97207031 C12.0171216,8.09329488 11.8044501,8.23153134 11.5386068,8.38678385 C11.2727634,8.54203637 10.9931004,8.67920947 10.6996094,8.79830729 C10.8059467,9.02374245 10.8995222,9.22578036 10.9803385,9.40442708 C10.9888455,9.42994804 11.0026692,9.46716555 11.0218099,9.51608073 C11.0409506,9.5649959 11.056901,9.6000867 11.0696615,9.62135417 C11.2227872,9.6000867 11.3812275,9.5851997 11.544987,9.57669271 C11.7087465,9.56818572 11.86506,9.56393229 12.0139323,9.56393229 C12.1628046,9.56393229 12.3095479,9.56712236 12.4541667,9.5735026 C12.5987854,9.57988284 12.7348952,9.5883897 12.8625,9.59902344 C12.9901048,9.60965717 13.1102642,9.6213541 13.2229818,9.63411458 C13.3356993,9.64687506 13.4377817,9.66069871 13.5292318,9.67558594 C13.6206819,9.69047316 13.698307,9.70323345 13.7621094,9.71386719 C13.8259118,9.72450092 13.8790796,9.73407114 13.9216146,9.74257812 L13.9854167,9.75533854 Z M14.0428385,7.34361979 C14.4809484,8.09223465 14.7,8.91101986 14.7,9.8 C14.7,10.6889801 14.4809484,11.5088287 14.0428385,12.2595703 C13.6047287,13.0103119 13.0103119,13.6047287 12.2595703,14.0428385 C11.5088287,14.4809484 10.6889801,14.7 9.8,14.7 C8.91101986,14.7 8.09117129,14.4809484 7.34042969,14.0428385 C6.58968809,13.6047287 5.99527129,13.0103119 5.55716146,12.2595703 C5.11905163,11.5088287 4.9,10.6889801 4.9,9.8 C4.9,8.91101986 5.11905163,8.09117129 5.55716146,7.34042969 C5.99527129,6.58968809 6.58968809,5.99527129 7.34042969,5.55716146 C8.09117129,5.11905163 8.91101986,4.9 9.8,4.9 C10.6889801,4.9 11.5088287,5.11905163 12.2595703,5.55716146 C13.0103119,5.99527129 13.6047287,6.59075144 14.0428385,7.34361979 Z" id="dribbble---FontAwesome" fill="#FFFFFF"></path>
            </g>
        </g>
    </g>
</svg>