<svg height="154" viewBox="0 0 1571 154" width="1571" xmlns="http://www.w3.org/2000/svg"><path d="m0 2.81052405h23.4761421v44.47241005h.4959748c2.9758639-4.9597731 6.7782996-8.5693317 11.4074212-10.8287839s9.1479582-3.3891613 13.5566454-3.3891613c6.2823793 0 11.4349552.8541703 15.4578823 2.5625366s7.1916235 4.0780001 9.5061843 7.1089726 3.9402399 6.7231927 4.8770859 11.0767713 1.405262 9.1755079 1.405262 14.4659326v52.573332h-23.4761421v-48.2748834c0-7.0538996-1.1021553-12.316691-3.3064989-15.7885322s-6.1169948-5.2077358-11.738071-5.2077358c-6.3925965 0-11.0216487 1.9012179-13.8872953 5.7037106-2.8656467 3.8024928-4.2984486 10.0572239-4.2984486 18.7643812v44.8030596h-23.4761421zm146.271229 66.12997775c-1.102172-5.9517278-3.058498-10.4705644-5.869036-13.5566454-2.810538-3.0860811-7.08139-4.6290985-12.812683-4.6290985-3.747384 0-6.860973.6337393-9.340859 1.9012369-2.479887 1.2674976-4.463766 2.8380688-5.951698 4.7117609s-2.53498 3.8575716-3.141174 5.951698c-.606195 2.0941264-.964395 3.9677904-1.074612 5.6210481zm-38.190062 14.879245c.330651 7.6049855 2.259423 13.1157618 5.786373 16.5324942 3.526949 3.416733 8.596864 5.125074 15.209895 5.125074 4.739338 0 8.817313-1.184817 12.234045-3.554487 3.416733-2.3696692 5.510828-4.8770724 6.282348-7.5222848h20.665618c-3.306515 10.2501978-8.376429 17.5795308-15.209895 21.9882178-6.833465 4.408687-15.099629 6.612998-24.798741 6.612998-6.723248 0-12.785102-1.074602-18.185744-3.223837s-9.974586-5.207716-13.7219704-9.175534c-3.7473842-3.967819-6.6405418-8.707086-8.6795596-14.2179454-2.0390179-5.5108591-3.0585115-11.5727131-3.0585115-18.1857439 0-6.3925965 1.0470475-12.344235 3.141174-17.855094 2.0941264-5.510859 5.0699456-10.2776806 8.9275469-14.3006077 3.8576016-4.0229271 8.4590996-7.1916235 13.8046326-9.5061843 5.345534-2.3145608 11.269618-3.4718238 17.772432-3.4718238 7.274334 0 13.611727 1.4052479 19.012368 4.2157861 5.400642 2.8105381 9.836817 6.5854199 13.308658 11.3247586 3.471842 4.7393388 5.979245 10.1398997 7.522285 16.2018446 1.543041 6.0619449 2.094119 12.3993378 1.65325 19.0123686zm66.915255-81.00922275h23.476142v118.04200995h-23.476142zm33.354292 0h23.476142v118.04200995h-23.476142zm53.523935 75.38817465c0 3.4167326.330646 6.7507523.991949 10.0021591.661304 3.2514068 1.791013 6.1721183 3.389162 8.7622221 1.598149 2.5901037 3.719798 4.6566451 6.36501 6.1996851 2.645213 1.543041 5.951678 2.31455 9.919497 2.31455 3.967818 0 7.301838-.771509 10.002159-2.31455 2.700321-1.54304 4.849524-3.6095814 6.447673-6.1996851 1.598149-2.5901038 2.727858-5.5108153 3.389161-8.7622221s.99195-6.5854265.99195-10.0021591-.330647-6.7783062-.99195-10.0848216-1.791012-6.2272269-3.389161-8.7622221c-1.598149-2.5349951-3.747352-4.6015363-6.447673-6.1996854s-6.034341-2.3972117-10.002159-2.3972117c-3.967819 0-7.274284.7990626-9.919497 2.3972117-2.645212 1.5981491-4.766861 3.6646903-6.36501 6.1996854-1.598149 2.5349952-2.727858 5.4557067-3.389162 8.7622221-.661303 3.3065154-.991949 6.668089-.991949 10.0848216zm-23.476142 0c0-6.8334652 1.047047-13.0330886 3.141174-18.5990563 2.094126-5.5659676 5.069945-10.3052353 8.927547-14.2179452 3.857601-3.9127099 8.486653-6.9436369 13.887295-9.0928719s11.462496-3.2238364 18.185744-3.2238364 12.812656 1.0746014 18.268406 3.2238364c5.455751 2.149235 10.112357 5.180162 13.969958 9.0928719s6.833421 8.6519776 8.927547 14.2179452c2.094126 5.5659677 3.141174 11.7655911 3.141174 18.5990563s-1.047048 13.0055347-3.141174 18.5163938c-2.094126 5.5108585-5.069946 10.2225725-8.927547 14.1352825s-8.514207 6.916083-13.969958 9.01021c-5.45575 2.094126-11.545158 3.141174-18.268406 3.141174s-12.785102-1.047048-18.185744-3.141174c-5.400642-2.094127-10.029694-5.0975-13.887295-9.01021-3.857602-3.91271-6.833421-8.624424-8.927547-14.1352825-2.094127-5.5108591-3.141174-11.6829286-3.141174-18.5163938zm177.848293-4.7944234c-.330652 1.1021718-.633744 2.2869887-.909287 3.5544863s-.413313 2.4523145-.413313 3.5544863.220431 2.0114499.6613 2.7278616 1.15727 1.0746121 2.149224 1.0746121c2.314561 0 4.656641-.7439548 7.02631-2.2318867 2.36967-1.487932 4.463765-3.582027 6.282348-6.2823479 1.818584-2.7003209 3.306493-5.9241251 4.463774-9.6715093 1.15728-3.7473841 1.735912-7.8253586 1.735912-12.2340458 0-6.6130309-1.157263-12.4268999-3.471824-17.4417817-2.314561-5.0148817-5.483257-9.2581795-9.506184-12.7300207s-8.762195-6.08946-14.217946-7.8529348c-5.45575-1.7634749-11.324727-2.6451992-17.607106-2.6451992-7.0539 0-13.473954 1.2399247-19.260356 3.7198113s-10.718547 5.8965679-14.796583 10.2501465c-4.078035 4.3535787-7.219178 9.5337085-9.423522 15.5405448-2.204343 6.0068364-3.306498 12.4819986-3.306498 19.425681 0 7.2743339 1.21237 13.8597117 3.637148 19.7563308 2.424778 5.8966192 5.786352 10.9665335 10.084822 15.2098949 4.29847 4.2433612 9.451046 7.5222732 15.457882 9.8368342 6.006837 2.314561 12.537107 3.471824 19.591006 3.471824 6.943683 0 13.52906-1.184817 19.756331-3.554486 6.227271-2.36967 11.490062-5.70369 15.788532-10.0021596h13.887296c-5.621077 8.5969396-12.840194 15.1823176-21.657568 19.7563306-8.817375 4.574013-18.406126 6.860985-28.76654 6.860985-8.817375 0-17.083539-1.543017-24.798742-4.629098s-14.465904-7.384487-20.252306-12.895346-10.332792-12.0411287-13.639308-19.5910056c-3.306515-7.5498768-4.959748-15.7333798-4.959748-24.5507542 0-8.7071573 1.653233-16.8355524 4.959748-24.3854293 3.306516-7.5498769 7.825352-14.0801469 13.556646-19.5910059 5.731293-5.510859 12.399333-9.86437237 20.004318-13.06067061s15.705827-4.79442339 24.302767-4.79442339c7.494768 0 14.713885 1.2123708 21.657568 3.63714878 6.943682 2.42477797 13.060644 5.81390544 18.351068 10.16748412 5.290425 4.3535786 9.533723 9.6439239 12.730021 15.8711946s4.794423 13.1432951 4.794423 20.7482805c0 8.4867229-1.515463 15.7609477-4.546436 21.8228927-3.030972 6.0619449-6.668084 11.0216437-10.911446 14.879245-4.243361 3.8576013-8.541767 6.6956511-12.895346 8.5142346-4.353578 1.8185835-7.852921 2.7278616-10.498133 2.7278616-3.52695 0-6.365-.8817242-8.514235-2.6451991s-3.334052-4.0228932-3.554486-6.7783227h-.33065c-1.98391 3.3065154-4.573974 5.731257-7.770273 7.2742975-3.196298 1.5430405-6.557872 2.3145492-10.084821 2.3145492-3.52695 0-6.86097-.7439548-10.002159-2.2318867-3.14119-1.4879319-5.896578-3.5269192-8.266248-6.117023-2.369669-2.5901037-4.243333-5.5934768-5.621048-9.0102094s-2.066562-7.053845-2.066562-10.9114463c0-5.1802075.854171-10.3052296 2.562537-15.3752199s4.133108-9.5888269 7.274298-13.5566454c3.141189-3.9678185 6.943625-7.1640688 11.407421-9.5888468s9.39594-3.6371488 14.796582-3.6371488c3.52695 0 7.164062.8541704 10.911447 2.5625367 3.747384 1.7083663 6.55788 4.7117394 8.431572 9.0102094l2.645199-8.9275469h13.556645zm-44.307085-5.2903982c0 4.4086872 1.184817 7.963138 3.554486 10.6634589s5.483258 4.0504611 9.340859 4.0504611c2.975864 0 5.703699-.7715087 8.183585-2.3145492 2.479887-1.5430405 4.62909-3.4993661 6.447673-5.8690355s3.223831-5.0423959 4.215786-8.0182598 1.487925-5.8965754 1.487925-8.7622221c0-4.0780357-1.239925-7.4396092-3.719812-10.0848216-2.479886-2.6452123-5.483259-3.9677986-9.010209-3.9677986-2.975864 0-5.731252.7439548-8.266247 2.2318867-2.534996 1.4879319-4.711752 3.4167037-6.530336 5.7863731-1.818583 2.3696693-3.223831 4.9872881-4.215786 7.8529348-.991954 2.8656467-1.487924 5.6761427-1.487924 8.4315722zm84.439699-32.734339h22.153543v11.5727461h.33065c3.086081-4.4086872 6.805855-7.8253686 11.159433-10.2501466 4.353579-2.4247779 9.340832-3.6371487 14.961908-3.6371487 5.400642 0 10.332787 1.0470475 14.796582 3.1411739 4.463796 2.0941264 7.852924 5.7863466 10.167485 11.0767713 2.534995-3.7473842 5.97923-7.05385 10.332809-9.9194967 4.353578-2.8656467 9.506154-4.2984485 15.457882-4.2984485 4.518904 0 8.707094.5510776 12.564696 1.6532494 3.857601 1.1021718 7.164067 2.8656203 9.919496 5.2903982 2.75543 2.424778 4.904633 5.5934744 6.447673 9.5061843 1.543041 3.9127099 2.314549 8.6244237 2.314549 14.1352828v57.2024304h-23.476142v-48.4402084c0-2.8656467-.110215-5.5659271-.33065-8.1009222-.220434-2.5349952-.826619-4.7393057-1.818574-6.6129978s-2.45231-3.3616017-4.381111-4.4637735-4.546419-1.6532495-7.852935-1.6532495c-3.306515 0-5.979242.6337393-8.01826 1.9012369s-3.637143 2.9207305-4.794423 4.9597483c-1.15728 2.0390179-1.928789 4.3535439-2.314549 6.9436477-.38576 2.5901037-.578638 5.2077225-.578638 7.8529349v47.6135836h-23.476142v-47.9442335c0-2.5349952-.055107-5.0423984-.165325-7.522285-.110217-2.4798866-.578633-4.7668588-1.405262-6.8609852s-2.204323-3.7749132-4.133123-5.0424108c-1.928801-1.2674976-4.766851-1.9012369-8.514235-1.9012369-1.102172 0-2.562527.247985-4.381111.7439623-1.818583.4959773-3.582032 1.4328093-5.290398 2.810524-1.708366 1.3777148-3.168722 3.3615943-4.381111 5.951698-1.212389 2.5901038-1.818575 5.9792313-1.818575 10.1674841v49.597483h-23.476142zm138.831607 26.2866661c.330651-5.510859 1.708345-10.0848034 4.133123-13.7219703 2.424778-3.637167 5.510813-6.5578785 9.258197-8.7622221s7.963128-3.7749149 12.647358-4.7117609 9.395944-1.405262 14.135283-1.405262c4.29847 0 8.651983.3030927 13.060671.9092872 4.408687.6061945 8.431554 1.7910114 12.068721 3.5544863s6.612986 4.2157703 8.927547 7.35696c2.31456 3.1411896 3.471823 7.3018258 3.471823 12.4820333v44.4724103c0 3.857601.220431 7.549821.6613 11.076771s1.212378 6.172122 2.314549 7.935597h-23.806792c-.440868-1.322606-.799069-2.672746-1.074612-4.050461s-.46842-2.782963-.578637-4.215786c-3.747384 3.857601-8.156005 6.557882-13.225996 8.100922-5.06999 1.543041-10.25012 2.31455-15.540544 2.31455-4.078036 0-7.880472-.49597-11.407421-1.487925-3.52695-.991955-6.612985-2.534972-9.258197-4.629098-2.645213-2.094127-4.711754-4.739299-6.199686-7.935598-1.487932-3.196298-2.231887-6.998734-2.231887-11.4074208 0-4.849556.854171-8.8448688 2.562537-11.9860585 1.708366-3.1411896 3.912677-5.6485929 6.612998-7.522285 2.700321-1.873692 5.786356-3.27894 9.258197-4.215786 3.471841-.9368461 6.971184-1.6808009 10.498134-2.2318868s6.998739-.991948 10.415471-1.3225995c3.416733-.3306516 6.44766-.8266215 9.092872-1.4879245 2.645212-.6613031 4.739308-1.625689 6.282348-2.8931866 1.543041-1.2674975 2.259442-3.1136076 2.149224-5.5383856 0-2.5349952-.413308-4.5464285-1.239937-6.0343605-.826629-1.4879319-1.928784-2.645195-3.306499-3.4718238-1.377714-.8266289-2.97584-1.3777065-4.794423-1.6532495-1.818584-.2755429-3.774909-.4133123-5.869036-.4133123-4.629121 0-8.266234.9919397-10.911446 2.975849-2.645212 1.9839092-4.18823 5.2903751-4.629098 9.9194966zm54.226581 17.3591192c-.991954.8817375-2.231879 1.5705845-3.719811 2.0665618s-3.086057.9092856-4.794423 1.2399371c-1.708367.3306515-3.499369.6061904-5.373061.8266247-1.873692.2204344-3.747356.4959732-5.621048.8266247-1.763475.3306516-3.49937.7715137-5.207736 1.3225996s-3.196276 1.2950407-4.463773 2.2318867c-1.267498.9368461-2.286992 2.121663-3.058512 3.5544863-.77152 1.4328234-1.157274 3.2513796-1.157274 5.4557232 0 2.0941264.385754 3.8575745 1.157274 5.2903985.77152 1.432823 1.818568 2.562532 3.141174 3.389161s2.865624 1.40526 4.629099 1.735912c1.763474.330652 3.582031.495975 5.455723.495975 4.629121 0 8.211126-.771509 10.746121-2.314549 2.534995-1.543041 4.408659-3.389151 5.621048-5.538386s1.956344-4.3259917 2.231887-6.5303353.413312-3.9677921.413312-5.2903982zm32.362342-43.6457853h22.318868v15.8711947h.33065c1.102172-2.6452124 2.590081-5.0975079 4.463773-7.3569601s4.022895-4.1882239 6.447673-5.786373 5.014843-2.8380738 7.770273-3.7198113c2.755429-.8817374 5.621033-1.3225995 8.596897-1.3225995 1.54304 0 3.251381.2755388 5.125073.8266247v21.8228926c-1.102172-.2204343-2.424758-.4133115-3.967799-.5786373-1.54304-.1653257-3.03095-.2479874-4.463773-.2479874-4.29847 0-7.935583.716401-10.911447 2.1492243-2.975863 1.4328234-5.373051 3.389149-7.191635 5.8690355-1.818583 2.4798866-3.113616 5.3730442-3.885136 8.6795596s-1.157274 6.8885201-1.157274 10.7461214v38.5207117h-23.476143zm81.149302-13.2259956h-23.476142v-19.34301845h23.476142zm-23.476142 13.2259956h23.476142v85.4729959h-23.476142zm51.523935 42.8191606c0 3.4167326.330646 6.7507523.991949 10.0021591s1.791013 6.1721183 3.389162 8.7622221c1.598149 2.5901037 3.719798 4.6566451 6.36501 6.1996851 2.645212 1.543041 5.951678 2.31455 9.919497 2.31455 3.967818 0 7.301838-.771509 10.002159-2.31455 2.700321-1.54304 4.849524-3.6095814 6.447673-6.1996851 1.598149-2.5901038 2.727858-5.5108153 3.389161-8.7622221s.99195-6.5854265.99195-10.0021591-.330647-6.7783062-.99195-10.0848216-1.791012-6.2272269-3.389161-8.7622221c-1.598149-2.5349951-3.747352-4.6015363-6.447673-6.1996854s-6.034341-2.3972117-10.002159-2.3972117c-3.967819 0-7.274285.7990626-9.919497 2.3972117s-4.766861 3.6646903-6.36501 6.1996854c-1.598149 2.5349952-2.727859 5.4557067-3.389162 8.7622221s-.991949 6.668089-.991949 10.0848216zm-23.476142 0c0-6.8334652 1.047047-13.0330886 3.141173-18.5990563 2.094127-5.5659676 5.069946-10.3052353 8.927547-14.2179452 3.857602-3.9127099 8.486654-6.9436369 13.887296-9.0928719s11.462496-3.2238364 18.185744-3.2238364 12.812656 1.0746014 18.268406 3.2238364 10.112357 5.180162 13.969958 9.0928719 6.83342 8.6519776 8.927547 14.2179452c2.094126 5.5659677 3.141174 11.7655911 3.141174 18.5990563s-1.047048 13.0055347-3.141174 18.5163938c-2.094127 5.5108585-5.069946 10.2225725-8.927547 14.1352825s-8.514208 6.916083-13.969958 9.01021c-5.45575 2.094126-11.545158 3.141174-18.268406 3.141174s-12.785102-1.047048-18.185744-3.141174c-5.400642-2.094127-10.029694-5.0975-13.887296-9.01021-3.857601-3.91271-6.83342-8.624424-8.927547-14.1352825-2.094126-5.5108591-3.141173-11.6829286-3.141173-18.5163938zm134.202507 22.4841923c3.306516 0 6.227227-.661293 8.762222-1.9838992 2.534996-1.3226062 4.629091-3.0860546 6.282348-5.2903982 1.653258-2.2043436 2.893183-4.7117469 3.719812-7.522285.826628-2.8105381 1.239937-5.7588035 1.239937-8.8448845 0-3.5269498-.330647-6.8609695-.99195-10.0021592-.661303-3.1411896-1.763458-5.9241317-3.306499-8.3489097-1.54304-2.4247779-3.582028-4.3535497-6.117023-5.786373-2.534995-1.4328234-5.731245-2.1492243-9.588847-2.1492243-3.306515 0-6.144565.6612932-8.514234 1.9838994-2.36967 1.3226061-4.353549 3.1136084-5.951698 5.3730606s-2.755412 4.8495171-3.471824 7.7702724-1.074612 5.9792362-1.074612 9.1755344c0 3.0860811.303092 6.144562.909287 9.1755345.606194 3.0309724 1.653242 5.7588067 3.141174 8.1835847s3.444257 4.4086575 5.869035 5.951698 5.455705 2.3145491 9.092872 2.3145491zm42.323186 14.71392c0 3.416733-.468416 7.329384-1.405262 11.738071s-2.948279 8.514216-6.03436 12.316709c-3.086081 3.802492-7.54981 7.026296-13.391321 9.671509-5.84151 2.645212-13.666813 3.967798-23.476142 3.967798-4.188253 0-8.459105-.523523-12.812683-1.570586-4.353579-1.047064-8.321338-2.672743-11.903396-4.877086-3.582059-2.204344-6.557878-5.042394-8.927547-8.514235-2.36967-3.471841-3.71981-7.632477-4.050461-12.482033h23.310817c1.102172 4.408687 3.251374 7.467168 6.447673 9.175534 3.196298 1.708366 6.888518 2.562537 11.076771 2.562537 6.613031 0 11.43496-1.98388 14.465933-5.951698 3.030972-3.967819 4.491328-8.982625 4.381111-15.04457v-11.242096h-.33065c-2.534995 4.518904-6.144554 7.852924-10.828784 10.002159s-9.616375 3.223836-14.796583 3.223836c-6.392596 0-11.903372-1.129709-16.532494-3.389161s-8.431557-5.345487-11.407421-9.258197-5.152621-8.4866544-6.530336-13.7219705c-1.377714-5.235316-2.066561-10.7736463-2.066561-16.6151569 0-5.510859.799062-10.8287582 2.397211-15.9538571s3.940229-9.6439355 7.02631-13.5566454c3.086082-3.91271 6.916071-7.0262986 11.490084-9.3408594s9.836805-3.4718238 15.788532-3.4718238c5.621077 0 10.553221 1.0470475 14.796583 3.1411739 4.243361 2.0941264 7.797812 5.6210233 10.663459 10.5807965h.33065v-11.4074212h22.318867zm30.378443-37.1981123c0 3.4167326.330646 6.7507523.99195 10.0021591.661303 3.2514068 1.791012 6.1721183 3.389161 8.7622221 1.598149 2.5901037 3.719798 4.6566451 6.36501 6.1996851 2.645213 1.543041 5.951678 2.31455 9.919497 2.31455 3.967818 0 7.301839-.771509 10.002159-2.31455 2.70032-1.54304 4.84952-3.6095814 6.44767-6.1996851 1.59815-2.5901038 2.72786-5.5108153 3.38916-8.7622221.66131-3.2514068.99195-6.5854265.99195-10.0021591s-.33064-6.7783062-.99195-10.0848216c-.6613-3.3065154-1.79101-6.2272269-3.38916-8.7622221-1.59815-2.5349951-3.74735-4.6015363-6.44767-6.1996854s-6.034341-2.3972117-10.002159-2.3972117c-3.967819 0-7.274284.7990626-9.919497 2.3972117-2.645212 1.5981491-4.766861 3.6646903-6.36501 6.1996854-1.598149 2.5349952-2.727858 5.4557067-3.389161 8.7622221-.661304 3.3065154-.99195 6.668089-.99195 10.0848216zm-23.476142 0c0-6.8334652 1.047047-13.0330886 3.141174-18.5990563 2.094126-5.5659676 5.069945-10.3052353 8.927547-14.2179452 3.857601-3.9127099 8.486653-6.9436369 13.887295-9.0928719s11.462496-3.2238364 18.185744-3.2238364c6.723249 0 12.812659 1.0746014 18.268409 3.2238364s10.11235 5.180162 13.96996 9.0928719c3.8576 3.9127099 6.83342 8.6519776 8.92754 14.2179452 2.09413 5.5659677 3.14118 11.7655911 3.14118 18.5990563s-1.04705 13.0055347-3.14118 18.5163938c-2.09412 5.5108585-5.06994 10.2225725-8.92754 14.1352825-3.85761 3.91271-8.51421 6.916083-13.96996 9.01021-5.45575 2.094126-11.54516 3.141174-18.268409 3.141174-6.723248 0-12.785102-1.047048-18.185744-3.141174-5.400642-2.094127-10.029694-5.0975-13.887295-9.01021-3.857602-3.91271-6.833421-8.624424-8.927547-14.1352825-2.094127-5.5108591-3.141174-11.6829286-3.141174-18.5163938zm134.202509 22.4841923c3.30651 0 6.22723-.661293 8.76222-1.9838992 2.535-1.3226062 4.62909-3.0860546 6.28235-5.2903982s2.89318-4.7117469 3.71981-7.522285 1.23994-5.7588035 1.23994-8.8448845c0-3.5269498-.33065-6.8609695-.99195-10.0021592-.66131-3.1411896-1.76346-5.9241317-3.3065-8.3489097-1.54304-2.4247779-3.58203-4.3535497-6.11702-5.786373-2.535-1.4328234-5.73125-2.1492243-9.58885-2.1492243-3.30652 0-6.14457.6612932-8.51424 1.9838994-2.36967 1.3226061-4.35354 3.1136084-5.95169 5.3730606s-2.75542 4.8495171-3.47183 7.7702724-1.07461 5.9792362-1.07461 9.1755344c0 3.0860811.30309 6.144562.90929 9.1755345.60619 3.0309724 1.65324 5.7588067 3.14117 8.1835847s3.44426 4.4086575 5.86904 5.951698c2.42477 1.5430405 5.4557 2.3145491 9.09287 2.3145491zm42.32318 14.71392c0 3.416733-.46841 7.329384-1.40526 11.738071-.93684 4.408687-2.94828 8.514216-6.03436 12.316709-3.08608 3.802492-7.54981 7.026296-13.39132 9.671509-5.84151 2.645212-13.66681 3.967798-23.47614 3.967798-4.18825 0-8.45911-.523523-12.81268-1.570586-4.35358-1.047064-8.32134-2.672743-11.9034-4.877086-3.58206-2.204344-6.55788-5.042394-8.92755-8.514235s-3.71981-7.632477-4.05046-12.482033h23.31082c1.10217 4.408687 3.25137 7.467168 6.44767 9.175534s6.88852 2.562537 11.07677 2.562537c6.61303 0 11.43496-1.98388 14.46594-5.951698 3.03097-3.967819 4.49132-8.982625 4.38111-15.04457v-11.242096h-.33065c-2.535 4.518904-6.14456 7.852924-10.82879 10.002159s-9.61637 3.223836-14.79658 3.223836c-6.3926 0-11.90337-1.129709-16.53249-3.389161-4.62913-2.259452-8.43156-5.345487-11.40743-9.258197-2.97586-3.91271-5.15262-8.4866544-6.53033-13.7219705-1.37772-5.235316-2.06656-10.7736463-2.06656-16.6151569 0-5.510859.79906-10.8287582 2.39721-15.9538571s3.94023-9.6439355 7.02631-13.5566454c3.08608-3.91271 6.91607-7.0262986 11.49008-9.3408594 4.57402-2.3145608 9.83681-3.4718238 15.78854-3.4718238 5.62107 0 10.55322 1.0470475 14.79658 3.1411739s7.79781 5.6210233 10.66346 10.5807965h.33065v-11.4074212h22.31886zm9.5475-112.58628695h23.47615v44.47241005h.49597c2.97586-4.9597731 6.7783-8.5693317 11.40742-10.8287839s9.14796-3.3891613 13.55665-3.3891613c6.28238 0 11.43495.8541703 15.45788 2.5625366s7.19162 4.0780001 9.50618 7.1089726c2.31457 3.0309725 3.94024 6.7231927 4.87709 11.0767713s1.40526 9.1755079 1.40526 14.4659326v52.573332h-23.47614v-48.2748834c0-7.0538996-1.10216-12.316691-3.3065-15.7885322s-6.11699-5.2077358-11.73807-5.2077358c-6.3926 0-11.02165 1.9012179-13.8873 5.7037106-2.86564 3.8024928-4.29844 10.0572239-4.29844 18.7643812v44.8030596h-23.47615zm89.7301 92.58196885h25.95602v25.4600411h-25.95602zm93.86322-29.9238149c-1.54304-9.8093291-7.32935-14.7139201-17.35912-14.7139201-3.74738 0-6.88852.8541704-9.42352 2.5625367-2.53499 1.7083663-4.60153 3.9126768-6.19968 6.6129977-1.59815 2.700321-2.72786 5.6761402-3.38916 8.927547-.66131 3.2514069-.99195 6.475211-.99195 9.6715093 0 3.086081.33064 6.2272236.99195 9.4235218.6613 3.1962982 1.7359 6.0894558 3.22383 8.6795596 1.48793 2.5901037 3.49937 4.711753 6.03436 6.36501 2.535 1.653258 5.62103 2.479875 9.2582 2.479875 5.62108 0 9.94703-1.570572 12.97801-4.711761 3.03097-3.1411901 4.93219-7.356934 5.70371-12.6473587h22.64952c-1.54305 11.3523697-5.95167 20.0042887-13.226 25.9560167-7.27433 5.951727-16.58755 8.927547-27.93992 8.927547-6.39259 0-12.26157-1.074602-17.6071-3.223837-5.34554-2.149235-9.89193-5.152608-13.63931-9.010209-3.74738-3.857602-6.6681-8.4591-8.76222-13.8046331-2.09413-5.3455333-3.14118-11.2145101-3.14118-17.6071066 0-6.6130308.96439-12.7575465 2.89319-18.4337313s4.76685-10.5807758 8.51423-14.7139201c3.74739-4.1331442 8.32133-7.3569484 13.72198-9.6715092 5.40064-2.3145608 11.57271-3.4718238 18.51639-3.4718238 5.06999 0 9.94703.6612931 14.63126 1.9838993s8.87242 3.3340395 12.56469 6.0343605c3.69228 2.7003209 6.69565 6.0618945 9.01021 10.0848216s3.63715 8.7897486 3.9678 14.3006077zm48.23354 12.7300207c0 3.4167326.33065 6.7507523.99195 10.0021591s1.79101 6.1721183 3.38916 8.7622221c1.59815 2.5901037 3.7198 4.6566451 6.36501 6.1996851 2.64521 1.543041 5.95168 2.31455 9.9195 2.31455s7.30184-.771509 10.00216-2.31455c2.70032-1.54304 4.84952-3.6095814 6.44767-6.1996851 1.59815-2.5901038 2.72786-5.5108153 3.38916-8.7622221s.99195-6.5854265.99195-10.0021591-.33065-6.7783062-.99195-10.0848216-1.79101-6.2272269-3.38916-8.7622221c-1.59815-2.5349951-3.74735-4.6015363-6.44767-6.1996854s-6.03434-2.3972117-10.00216-2.3972117-7.27429.7990626-9.9195 2.3972117-4.76686 3.6646903-6.36501 6.1996854c-1.59815 2.5349952-2.72786 5.4557067-3.38916 8.7622221s-.99195 6.668089-.99195 10.0848216zm-23.47614 0c0-6.8334652 1.04705-13.0330886 3.14117-18.5990563 2.09413-5.5659676 5.06995-10.3052353 8.92755-14.2179452s8.48665-6.9436369 13.88729-9.0928719c5.40065-2.149235 11.4625-3.2238364 18.18575-3.2238364s12.81265 1.0746014 18.2684 3.2238364 10.11236 5.180162 13.96996 9.0928719 6.83342 8.6519776 8.92755 14.2179452c2.09413 5.5659677 3.14117 11.7655911 3.14117 18.5990563s-1.04704 13.0055347-3.14117 18.5163938c-2.09413 5.5108585-5.06995 10.2225725-8.92755 14.1352825s-8.51421 6.916083-13.96996 9.01021c-5.45575 2.094126-11.54515 3.141174-18.2684 3.141174s-12.7851-1.047048-18.18575-3.141174c-5.40064-2.094127-10.02969-5.0975-13.88729-9.01021s-6.83342-8.624424-8.92755-14.1352825c-2.09412-5.5108591-3.14117-11.6829286-3.14117-18.5163938zm95.02049-42.8191606h22.15355v11.5727461h.33065c3.08608-4.4086872 6.80585-7.8253686 11.15943-10.2501466 4.35358-2.4247779 9.34083-3.6371487 14.96191-3.6371487 5.40064 0 10.33278 1.0470475 14.79658 3.1411739s7.85292 5.7863466 10.16748 11.0767713c2.535-3.7473842 5.97923-7.05385 10.33281-9.9194967s9.50616-4.2984485 15.45789-4.2984485c4.5189 0 8.70709.5510776 12.56469 1.6532494s7.16407 2.8656203 9.9195 5.2903982c2.75543 2.424778 4.90463 5.5934744 6.44767 9.5061843s2.31455 8.6244237 2.31455 14.1352828v57.2024304h-23.47614v-48.4402084c0-2.8656467-.11022-5.5659271-.33065-8.1009222-.22044-2.5349952-.82662-4.7393057-1.81858-6.6129978-.99195-1.8736921-2.45231-3.3616017-4.38111-4.4637735s-4.54642-1.6532495-7.85293-1.6532495c-3.30652 0-5.97924.6337393-8.01826 1.9012369s-3.63715 2.9207305-4.79443 4.9597483c-1.15728 2.0390179-1.92878 4.3535439-2.31454 6.9436477-.38576 2.5901037-.57864 5.2077225-.57864 7.8529349v47.6135836h-23.47614v-47.9442335c0-2.5349952-.05511-5.0423984-.16533-7.522285s-.57863-4.7668588-1.40526-6.8609852-2.20432-3.7749132-4.13312-5.0424108c-1.92881-1.2674976-4.76686-1.9012369-8.51424-1.9012369-1.10217 0-2.56253.247985-4.38111.7439623s-3.58203 1.4328093-5.2904 2.810524c-1.70836 1.3777148-3.16872 3.3615943-4.38111 5.951698-1.21239 2.5901038-1.81857 5.9792313-1.81857 10.1674841v49.597483h-23.47615z" fill-rule="evenodd"/></svg>