<?xml version="1.0" encoding="UTF-8"?>
<svg width="20px" height="20px" viewBox="0 0 20 20" version="1.1" xmlns="http://www.w3.org/2000/svg" xmlns:xlink="http://www.w3.org/1999/xlink">
    <!-- Generator: Sketch 49.3 (51167) - http://www.bohemiancoding.com/sketch -->
    <desc>Created with Sketch.</desc>
    <defs></defs>
    <g id="Mariogogh_Index" stroke="none" stroke-width="1" fill="none" fill-rule="evenodd">
        <g id="Active">
            <g id="Group">
                <circle id="Oval-2" fill="#000000" cx="9.8" cy="9.8" r="9.8"></circle>
                <path d="M6.0620915,7.87078189 C6.07426726,7.75172077 6.02839145,7.6340421 5.93856209,7.55390946 L5.02352941,6.46296296 L5.02352941,6.3 L7.86470588,6.3 L10.0607843,11.0666666 L11.9915033,6.3 L14.7,6.3 L14.7,6.46296296 L13.9176471,7.20534979 C13.8501997,7.25623247 13.8167423,7.33986177 13.830719,7.42263375 L13.830719,12.8773663 C13.8167423,12.9601382 13.8501997,13.0437675 13.9176471,13.0946502 L14.6816994,13.8370371 L14.6816994,14 L10.8385621,14 L10.8385621,13.8370371 L11.6300654,13.0765432 C11.7078431,12.9995885 11.7078431,12.9769548 11.7078431,12.8592593 L11.7078431,8.45020576 L9.50718954,13.981893 L9.20980392,13.981893 L6.64771241,8.45020576 L6.64771241,12.1576132 C6.62635063,12.313483 6.6786566,12.4704098 6.78954248,12.5831276 L7.81895425,13.8189301 L7.81895425,13.981893 L4.9,13.981893 L4.9,13.8189301 L5.92941176,12.5831276 C6.03949029,12.4702229 6.08874627,12.3122551 6.0620915,12.1576132 L6.0620915,7.87078189 Z" id="Shape" fill="#FFFFFF" fill-rule="nonzero"></path>
            </g>
        </g>
    </g>
</svg>