<?xml version="1.0" encoding="UTF-8"?>
<svg width="31.040625px" height="46.0614693px" viewBox="0 0 31.040625 46.0614693" version="1.1" xmlns="http://www.w3.org/2000/svg" xmlns:xlink="http://www.w3.org/1999/xlink">
    <!-- Generator: Sketch 49.3 (51167) - http://www.bohemiancoding.com/sketch -->
    <desc>Created with Sketch.</desc>
    <defs></defs>
    <g id="Mariogogh_Index" stroke="none" stroke-width="1" fill="none" fill-rule="evenodd">
        <g id="Logo-MG-white1@3x" fill-rule="nonzero">
            <g id="-Logo-Mariogogh-Hover" transform="translate(1.880000, 2.820000)" fill="#EF5350">
                <g id="Group">
                    <path d="M17.2162039,18.967849 C17.4349138,19.050992 17.6631481,19.093245 17.8952627,19.093245 C18.6632165,19.093245 19.341217,18.6472032 19.6227177,17.9571845 C19.804388,17.5114835 19.7955691,17.0245517 19.5980247,16.585325 C19.4526885,16.2626347 19.2181045,15.9944645 18.9210824,15.8053482 L16.6782483,18.5374817 C16.6232181,18.6042687 16.5657185,18.6690112 16.5057497,18.7310277 C16.745625,18.8002 16.9823255,18.8789132 17.2162039,18.967849 Z M9.17015099,15.7177755 C8.14397852,16.1311052 7.17530556,16.678009 6.28423933,17.3475827 C3.22441806,19.647986 1.45357384,23.1052355 1.42641149,26.8326998 C1.42617632,26.846557 1.42535322,26.8754072 1.42394219,26.9192503 C1.42394219,33.6057877 7.05572066,39.0458615 13.9778872,39.0458615 C20.8961734,39.0458615 26.5254826,33.6119212 26.5318323,26.9301543 C26.5007896,25.8922298 25.6869773,25.1269053 24.6759734,25.1269053 L13.9778872,25.1269053 C12.9548896,25.1269053 12.1223811,25.9307346 12.1223811,26.9192503 C12.1223811,27.9077661 12.9548896,28.7119361 13.9778872,28.7119361 L22.6814807,28.7119361 L22.3685846,29.6169681 C21.1614473,33.1127224 17.7897881,35.4611715 13.9778872,35.4611715 C9.10206874,35.4611715 5.13530713,31.6294377 5.13530713,26.9192503 C5.13530713,22.983247 7.90586699,19.660253 11.6627377,18.6744632 C11.6306367,18.6397067 11.5992413,18.6042687 11.5685514,18.5678085 L9.17015099,15.7177755 Z M-0.000141103125,26.9192503 C-0.000141103125,26.9028943 0.000681998438,26.8707503 0.00232820156,26.8228181 C0.0330181313,22.6721423 2.00387603,18.8230302 5.41010547,16.2619532 C6.55127699,15.4039447 7.80885859,14.7268744 9.14792725,14.2491429 L9.62556133,14.0784272 L12.6730361,17.6995775 C13.0307325,18.124152 13.5686882,18.37767 14.1108769,18.37767 C14.6675287,18.37767 15.2047789,18.1176777 15.5631808,17.6821992 L18.4822517,14.1257914 L19.0099774,14.3210412 C19.0396091,14.3312637 19.0695935,14.3418269 19.0992251,14.3530717 C19.9130374,14.6628134 20.5547039,15.2608297 20.9035814,16.0367175 C21.2528116,16.8126052 21.2686857,17.6736805 20.9476761,18.4611537 C20.4506403,19.680698 19.252322,20.4688527 17.8952627,20.4688527 C17.4839471,20.4688527 17.0800394,20.3942285 16.6944751,20.2480468 C15.8316295,19.9195637 14.917634,19.7532778 13.9778872,19.7532778 C9.88695487,19.7532778 6.55939042,22.9679133 6.55939042,26.9192503 C6.55939042,30.8705874 9.88695487,34.0855637 13.9778872,34.0855637 C16.83452,34.0855637 19.3966,32.5133432 20.6330161,30.0872032 L13.9778872,30.0872032 C12.1696507,30.0872032 10.6982978,28.6662756 10.6982978,26.9192503 C10.6982978,25.1725658 12.1696507,23.7512975 13.9778872,23.7512975 L24.6759734,23.7512975 C26.46375,23.7512975 27.9030019,25.1044159 27.9516825,26.8313369 C27.9541518,26.8613228 27.9559155,26.8899458 27.9559155,26.9192503 C27.9559155,34.3642972 21.6852927,40.4214693 13.9778872,40.4214693 C6.27048177,40.4214693 -0.000141103125,34.3642972 -0.000141103125,26.9192503 Z" id="Fill-1"></path>
                    <path d="M22.8206084,23.8775455 L24.6761145,23.8775455 C25.3668143,23.8775455 26.0053059,24.0770525 26.5319734,24.4198815 L26.5319734,3.4514706 C26.5319734,2.69987098 26.0321155,2.0283433 25.2877966,1.78072588 C25.0902522,1.71512072 24.8845944,1.68147705 24.6764673,1.68147705 C24.1074689,1.68147705 23.5779794,1.92539366 23.2241633,2.35031324 L14.0930274,13.3060384 L4.71813574,2.3334914 C4.36431966,1.9193378 3.83976879,1.68181349 3.27923663,1.68181349 C3.06722918,1.68181349 2.85769104,1.71613003 2.6573246,1.78442668 C1.91970802,2.0347356 1.42408329,2.7045811 1.42408329,3.4514706 L1.42408329,21.4424538 C2.29680612,19.7481586 3.55227117,18.2304925 5.13509548,16.9950969 L5.13509548,8.42131373 L12.6728244,17.2652256 C13.0308736,17.6844258 13.5684765,17.9347347 14.111018,17.9347347 C14.6676698,17.9347347 15.20492,17.6780335 15.5633219,17.2480674 L22.8206084,8.51820748 L22.8206084,23.8775455 Z M26.5284458,27.1246177 C26.6110573,25.1873574 25.6871184,24.5985366 24.6761145,24.5985366 L21.3965251,24.5985366 L21.3965251,12.4171726 L16.6783894,18.0925235 C16.0522443,18.8444595 15.0980344,19.2929297 14.1265394,19.2929297 C13.1303513,19.2929297 12.2036565,18.8663279 11.5686925,18.1228028 L6.55917877,12.2452534 L6.55917877,16.7138058 L6.28438043,16.9180229 C3.22420641,19.1889708 1.45371495,22.6024576 1.42655259,26.2827388 L0.00246930469,26.2874489 L0,3.4514706 C0,2.13162937 0.875897649,0.94737214 2.18004328,0.504621426 C2.53456488,0.38451352 2.90425507,0.323618475 3.27923663,0.323618475 C4.27013332,0.323618475 5.1968281,0.743491492 5.82191494,1.47591422 L14.0792698,11.1397224 L22.1090959,1.50518421 C22.7348883,0.754257468 23.6707547,0.323618475 24.6764673,0.323618475 C25.0447464,0.323618475 25.408087,0.3824949 25.7569644,0.498565566 C27.0723983,0.93626973 27.9560566,2.12321846 27.9560566,3.4514706 L27.9560566,26.2322734 C27.9560566,26.2612069 27.9542929,27.0953477 27.9521763,27.1236084 L26.5284458,27.1246177 Z" id="Fill-4"></path>
                    <path d="M24.9246829,2.80167209 C24.6760285,2.71749262 24.395943,2.79829138 24.2342478,2.99504821 L14.2363858,15.1709825 L3.98183713,2.98930102 C3.81874499,2.79558682 3.53865958,2.71816876 3.29175136,2.80336243 C3.04589085,2.88787997 2.87965561,3.11540118 2.87965561,3.36929186 L2.87965561,16.7014261 C2.89327573,16.6868891 2.90724508,16.6726901 2.92086519,16.6581531 C2.9718533,16.6040619 3.02353989,16.5503087 3.07557571,16.4968936 C3.12202379,16.4482115 3.16847187,16.3998675 3.21631689,16.3521996 C3.26800348,16.2997987 3.32073776,16.248074 3.37347205,16.1966873 C3.42236476,16.1486814 3.47090824,16.1006754 3.52084866,16.0533456 C3.57393218,16.002635 3.62841264,15.9529388 3.68219462,15.9029044 C3.73283351,15.8559126 3.78312316,15.8089209 3.83446051,15.7626053 C3.8892902,15.7135851 3.94481836,15.6655791 3.99999728,15.6172351 C4.04050838,15.5817377 4.08032103,15.5452261 4.1215306,15.5100669 L4.1215306,5.04814819 L10.1901643,12.2750737 L13.7624757,16.5293483 C13.8875014,16.6777611 14.0670076,16.7673497 14.2423228,16.7673497 L14.2576891,16.7673497 C14.4235751,16.7673497 14.6037797,16.6733663 14.7281069,16.5219108 L18.177488,12.310571 L24.0994437,5.08060293 L24.0994437,22.1081819 L24.7200319,22.1081819 C24.8146742,22.1081819 24.9075704,22.1119006 25.0004665,22.1173098 C25.0266591,22.118662 25.0528516,22.1210285 25.0793933,22.1227189 C25.1516847,22.128128 25.2236269,22.1352275 25.295569,22.1440173 C25.3102368,22.1460457 25.3259523,22.1467219 25.3409694,22.1487503 L25.3409694,3.36929186 C25.3409694,3.11371083 25.1736865,2.88585155 24.9246829,2.80167209" id="Fill-7"></path>
                    <path d="M24.7200319,26.2132357 L20.2480946,26.2132357 L14.1103125,26.2132357 C13.7680635,26.2132357 13.4897243,26.4819 13.4897243,26.8125897 C13.4897243,27.1429424 13.7680635,27.4119438 14.1103125,27.4119438 L24.4340095,27.4119438 L23.5885148,29.8582388 C22.2247572,33.8035931 18.4160146,36.4541674 14.1103125,36.4541674 C8.60254801,36.4541674 4.1215306,32.1289075 4.1215306,26.8125897 C4.1215306,22.9865669 6.44218844,19.6736019 9.79657803,18.1168993 L9.78994255,18.1094833 L8.99508671,17.1652815 C8.37799079,17.4723746 7.78883353,17.8360996 7.23285352,18.2534226 L7.22971044,18.2561194 C5.58202588,19.4932563 4.35237407,21.1049052 3.62841264,22.9177996 C3.5253887,23.1766882 3.4321433,23.4396219 3.34972416,23.7062636 C3.04973242,24.6760846 2.88978339,25.693773 2.88210025,26.7347209 C2.88210025,26.7667448 2.88105255,26.7984317 2.87965561,26.8301186 C2.88943416,32.7990514 7.92363775,37.6528755 14.1103125,37.6528755 C20.2872087,37.6528755 25.3151261,32.8145577 25.3409694,26.8587717 C25.3395725,26.8382089 25.3385247,26.8179832 25.3385247,26.7977576 C25.3287462,26.4687533 25.0573916,26.2132357 24.7200319,26.2132357" id="Fill-9"></path>
                    <path d="M18.9511961,17.8517009 C19.0273194,17.6865758 19.0235812,17.5060157 18.941001,17.3429293 C18.9073572,17.2771122 18.8624988,17.2174109 18.808125,17.1652815 L17.8538648,18.1965123 C17.8844501,18.206414 17.9150353,18.2163157 17.9452807,18.2265086 C18.343229,18.3607638 18.7945315,18.1924352 18.9511961,17.8517009" id="Fill-11"></path>
                </g>
            </g>
            <g id="-Logo-Mariogogh-Active" transform="translate(1.880000, 2.820000)" fill="#000000">
                <g id="Group">
                    <path d="M17.2162039,18.967849 C17.4349138,19.050992 17.6631481,19.093245 17.8952627,19.093245 C18.6632165,19.093245 19.341217,18.6472032 19.6227177,17.9571845 C19.804388,17.5114835 19.7955691,17.0245517 19.5980247,16.585325 C19.4526885,16.2626347 19.2181045,15.9944645 18.9210824,15.8053482 L16.6782483,18.5374817 C16.6232181,18.6042687 16.5657185,18.6690112 16.5057497,18.7310277 C16.745625,18.8002 16.9823255,18.8789132 17.2162039,18.967849 Z M9.17015099,15.7177755 C8.14397852,16.1311052 7.17530556,16.678009 6.28423933,17.3475827 C3.22441806,19.647986 1.45357384,23.1052355 1.42641149,26.8326998 C1.42617632,26.846557 1.42535322,26.8754072 1.42394219,26.9192503 C1.42394219,33.6057877 7.05572066,39.0458615 13.9778872,39.0458615 C20.8961734,39.0458615 26.5254826,33.6119212 26.5318323,26.9301543 C26.5007896,25.8922298 25.6869773,25.1269053 24.6759734,25.1269053 L13.9778872,25.1269053 C12.9548896,25.1269053 12.1223811,25.9307346 12.1223811,26.9192503 C12.1223811,27.9077661 12.9548896,28.7119361 13.9778872,28.7119361 L22.6814807,28.7119361 L22.3685846,29.6169681 C21.1614473,33.1127224 17.7897881,35.4611715 13.9778872,35.4611715 C9.10206874,35.4611715 5.13530713,31.6294377 5.13530713,26.9192503 C5.13530713,22.983247 7.90586699,19.660253 11.6627377,18.6744632 C11.6306367,18.6397067 11.5992413,18.6042687 11.5685514,18.5678085 L9.17015099,15.7177755 Z M-0.000141103125,26.9192503 C-0.000141103125,26.9028943 0.000681998438,26.8707503 0.00232820156,26.8228181 C0.0330181313,22.6721423 2.00387603,18.8230302 5.41010547,16.2619532 C6.55127699,15.4039447 7.80885859,14.7268744 9.14792725,14.2491429 L9.62556133,14.0784272 L12.6730361,17.6995775 C13.0307325,18.124152 13.5686882,18.37767 14.1108769,18.37767 C14.6675287,18.37767 15.2047789,18.1176777 15.5631808,17.6821992 L18.4822517,14.1257914 L19.0099774,14.3210412 C19.0396091,14.3312637 19.0695935,14.3418269 19.0992251,14.3530717 C19.9130374,14.6628134 20.5547039,15.2608297 20.9035814,16.0367175 C21.2528116,16.8126052 21.2686857,17.6736805 20.9476761,18.4611537 C20.4506403,19.680698 19.252322,20.4688527 17.8952627,20.4688527 C17.4839471,20.4688527 17.0800394,20.3942285 16.6944751,20.2480468 C15.8316295,19.9195637 14.917634,19.7532778 13.9778872,19.7532778 C9.88695487,19.7532778 6.55939042,22.9679133 6.55939042,26.9192503 C6.55939042,30.8705874 9.88695487,34.0855637 13.9778872,34.0855637 C16.83452,34.0855637 19.3966,32.5133432 20.6330161,30.0872032 L13.9778872,30.0872032 C12.1696507,30.0872032 10.6982978,28.6662756 10.6982978,26.9192503 C10.6982978,25.1725658 12.1696507,23.7512975 13.9778872,23.7512975 L24.6759734,23.7512975 C26.46375,23.7512975 27.9030019,25.1044159 27.9516825,26.8313369 C27.9541518,26.8613228 27.9559155,26.8899458 27.9559155,26.9192503 C27.9559155,34.3642972 21.6852927,40.4214693 13.9778872,40.4214693 C6.27048177,40.4214693 -0.000141103125,34.3642972 -0.000141103125,26.9192503 Z" id="Fill-1"></path>
                    <path d="M22.8206084,23.8775455 L24.6761145,23.8775455 C25.3668143,23.8775455 26.0053059,24.0770525 26.5319734,24.4198815 L26.5319734,3.4514706 C26.5319734,2.69987098 26.0321155,2.0283433 25.2877966,1.78072588 C25.0902522,1.71512072 24.8845944,1.68147705 24.6764673,1.68147705 C24.1074689,1.68147705 23.5779794,1.92539366 23.2241633,2.35031324 L14.0930274,13.3060384 L4.71813574,2.3334914 C4.36431966,1.9193378 3.83976879,1.68181349 3.27923663,1.68181349 C3.06722918,1.68181349 2.85769104,1.71613003 2.6573246,1.78442668 C1.91970802,2.0347356 1.42408329,2.7045811 1.42408329,3.4514706 L1.42408329,21.4424538 C2.29680612,19.7481586 3.55227117,18.2304925 5.13509548,16.9950969 L5.13509548,8.42131373 L12.6728244,17.2652256 C13.0308736,17.6844258 13.5684765,17.9347347 14.111018,17.9347347 C14.6676698,17.9347347 15.20492,17.6780335 15.5633219,17.2480674 L22.8206084,8.51820748 L22.8206084,23.8775455 Z M26.5284458,27.1246177 C26.6110573,25.1873574 25.6871184,24.5985366 24.6761145,24.5985366 L21.3965251,24.5985366 L21.3965251,12.4171726 L16.6783894,18.0925235 C16.0522443,18.8444595 15.0980344,19.2929297 14.1265394,19.2929297 C13.1303513,19.2929297 12.2036565,18.8663279 11.5686925,18.1228028 L6.55917877,12.2452534 L6.55917877,16.7138058 L6.28438043,16.9180229 C3.22420641,19.1889708 1.45371495,22.6024576 1.42655259,26.2827388 L0.00246930469,26.2874489 L0,3.4514706 C0,2.13162937 0.875897649,0.94737214 2.18004328,0.504621426 C2.53456488,0.38451352 2.90425507,0.323618475 3.27923663,0.323618475 C4.27013332,0.323618475 5.1968281,0.743491492 5.82191494,1.47591422 L14.0792698,11.1397224 L22.1090959,1.50518421 C22.7348883,0.754257468 23.6707547,0.323618475 24.6764673,0.323618475 C25.0447464,0.323618475 25.408087,0.3824949 25.7569644,0.498565566 C27.0723983,0.93626973 27.9560566,2.12321846 27.9560566,3.4514706 L27.9560566,26.2322734 C27.9560566,26.2612069 27.9542929,27.0953477 27.9521763,27.1236084 L26.5284458,27.1246177 Z" id="Fill-4"></path>
                    <path d="M24.9246829,2.80167209 C24.6760285,2.71749262 24.395943,2.79829138 24.2342478,2.99504821 L14.2363858,15.1709825 L3.98183713,2.98930102 C3.81874499,2.79558682 3.53865958,2.71816876 3.29175136,2.80336243 C3.04589085,2.88787997 2.87965561,3.11540118 2.87965561,3.36929186 L2.87965561,16.7014261 C2.89327573,16.6868891 2.90724508,16.6726901 2.92086519,16.6581531 C2.9718533,16.6040619 3.02353989,16.5503087 3.07557571,16.4968936 C3.12202379,16.4482115 3.16847187,16.3998675 3.21631689,16.3521996 C3.26800348,16.2997987 3.32073776,16.248074 3.37347205,16.1966873 C3.42236476,16.1486814 3.47090824,16.1006754 3.52084866,16.0533456 C3.57393218,16.002635 3.62841264,15.9529388 3.68219462,15.9029044 C3.73283351,15.8559126 3.78312316,15.8089209 3.83446051,15.7626053 C3.8892902,15.7135851 3.94481836,15.6655791 3.99999728,15.6172351 C4.04050838,15.5817377 4.08032103,15.5452261 4.1215306,15.5100669 L4.1215306,5.04814819 L10.1901643,12.2750737 L13.7624757,16.5293483 C13.8875014,16.6777611 14.0670076,16.7673497 14.2423228,16.7673497 L14.2576891,16.7673497 C14.4235751,16.7673497 14.6037797,16.6733663 14.7281069,16.5219108 L18.177488,12.310571 L24.0994437,5.08060293 L24.0994437,22.1081819 L24.7200319,22.1081819 C24.8146742,22.1081819 24.9075704,22.1119006 25.0004665,22.1173098 C25.0266591,22.118662 25.0528516,22.1210285 25.0793933,22.1227189 C25.1516847,22.128128 25.2236269,22.1352275 25.295569,22.1440173 C25.3102368,22.1460457 25.3259523,22.1467219 25.3409694,22.1487503 L25.3409694,3.36929186 C25.3409694,3.11371083 25.1736865,2.88585155 24.9246829,2.80167209" id="Fill-7"></path>
                    <path d="M24.7200319,26.2132357 L20.2480946,26.2132357 L14.1103125,26.2132357 C13.7680635,26.2132357 13.4897243,26.4819 13.4897243,26.8125897 C13.4897243,27.1429424 13.7680635,27.4119438 14.1103125,27.4119438 L24.4340095,27.4119438 L23.5885148,29.8582388 C22.2247572,33.8035931 18.4160146,36.4541674 14.1103125,36.4541674 C8.60254801,36.4541674 4.1215306,32.1289075 4.1215306,26.8125897 C4.1215306,22.9865669 6.44218844,19.6736019 9.79657803,18.1168993 L9.78994255,18.1094833 L8.99508671,17.1652815 C8.37799079,17.4723746 7.78883353,17.8360996 7.23285352,18.2534226 L7.22971044,18.2561194 C5.58202588,19.4932563 4.35237407,21.1049052 3.62841264,22.9177996 C3.5253887,23.1766882 3.4321433,23.4396219 3.34972416,23.7062636 C3.04973242,24.6760846 2.88978339,25.693773 2.88210025,26.7347209 C2.88210025,26.7667448 2.88105255,26.7984317 2.87965561,26.8301186 C2.88943416,32.7990514 7.92363775,37.6528755 14.1103125,37.6528755 C20.2872087,37.6528755 25.3151261,32.8145577 25.3409694,26.8587717 C25.3395725,26.8382089 25.3385247,26.8179832 25.3385247,26.7977576 C25.3287462,26.4687533 25.0573916,26.2132357 24.7200319,26.2132357" id="Fill-9"></path>
                    <path d="M18.9511961,17.8517009 C19.0273194,17.6865758 19.0235812,17.5060157 18.941001,17.3429293 C18.9073572,17.2771122 18.8624988,17.2174109 18.808125,17.1652815 L17.8538648,18.1965123 C17.8844501,18.206414 17.9150353,18.2163157 17.9452807,18.2265086 C18.343229,18.3607638 18.7945315,18.1924352 18.9511961,17.8517009" id="Fill-11"></path>
                </g>
            </g>
        </g>
    </g>
</svg>