<?xml version="1.0" encoding="UTF-8"?>
<svg width="27px" height="27px" viewBox="0 0 27 27" version="1.1" xmlns="http://www.w3.org/2000/svg" xmlns:xlink="http://www.w3.org/1999/xlink">
    <!-- Generator: Sketch 49.3 (51167) - http://www.bohemiancoding.com/sketch -->
    <desc>Created with Sketch.</desc>
    <defs></defs>
    <g id="Mariogogh_Index" stroke="none" stroke-width="1" fill="none" fill-rule="evenodd">
        <g id="Hover">
            <g id="Group">
                <circle id="Oval-2" fill="#EF5350" cx="13.16" cy="13.16" r="13.16"></circle>
                <path d="M15.3533333,18.3348958 C15.1134363,16.9583438 14.7136139,15.5361184 14.1538541,14.068177 L14.1367187,14.068177 L14.1195833,14.0767448 C14.028194,14.1110158 13.9053914,14.1581377 13.7511718,14.2181119 C13.5969523,14.2780862 13.308509,14.418024 12.8858333,14.6379297 C12.4631576,14.8578353 12.0719028,15.0920169 11.7120573,15.3404817 C11.3522117,15.5889465 10.9780922,15.9159441 10.5896875,16.3214843 C10.2012828,16.7270246 9.90712771,17.1496939 9.70721352,17.5895052 L9.57869789,17.4952604 C10.6296754,18.3520355 11.8234308,18.7804166 13.16,18.7804166 C13.9139621,18.7804166 14.6450659,18.6319112 15.3533333,18.3348958 Z M13.7683073,13.1342968 C13.6483587,12.854417 13.4969974,12.5374149 13.3142187,12.1832812 C11.5378383,12.7144818 9.61583497,12.9800781 7.54815102,12.9800781 C7.54243919,13.0200609 7.53958331,13.0800343 7.53958331,13.16 C7.53958331,13.8682674 7.66524178,14.5436816 7.91656248,15.186263 C8.16788318,15.8288443 8.52201158,16.404303 8.97895831,16.9126562 C9.26455002,16.404303 9.61725048,15.9287999 10.0370703,15.4861328 C10.4568901,15.0434656 10.8638522,14.6879093 11.2579687,14.4194531 C11.6520853,14.1509969 12.0247769,13.9196711 12.3760547,13.7254687 C12.7273325,13.5312664 13.0114919,13.3941844 13.2285416,13.3142187 L13.5455468,13.2028385 C13.5683942,13.1971267 13.6055205,13.1871311 13.656927,13.1728515 C13.7083336,13.1585719 13.7454599,13.1457205 13.7683073,13.1342968 Z M12.8515625,11.3179427 C12.1661424,10.101322 11.4693091,9.02180156 10.7610416,8.07934894 C9.97280853,8.45061815 9.30453397,8.98181076 8.75619789,9.67294268 C8.20786182,10.3640746 7.84230992,11.1408724 7.65953123,12.0033593 C9.38450513,12.0033593 11.1151649,11.7748894 12.8515625,11.3179427 Z M18.711875,14.0510416 C17.5123898,13.7083316 16.3443372,13.6255112 15.2076823,13.8025781 C15.7046118,15.1677064 16.0701637,16.5071114 16.3043489,17.8208333 C16.9383625,17.3924457 17.4666992,16.8512576 17.889375,16.1972526 C18.3120507,15.5432476 18.5862146,14.8278511 18.711875,14.0510416 Z M11.8148698,7.70236977 C11.8091579,7.70236977 11.8034462,7.70522565 11.7977343,7.71093748 C11.8034462,7.70522565 11.8091579,7.70236977 11.8148698,7.70236977 Z M16.8698177,8.94468748 C15.8131284,8.00794668 14.5765348,7.53958331 13.16,7.53958331 C12.7259006,7.53958331 12.2832401,7.59384492 11.8320052,7.70236977 C12.5802554,8.67338157 13.2828005,9.76432552 13.9396614,10.9752343 C14.333778,10.8267267 14.7050416,10.6539463 15.0534635,10.456888 C15.4018854,10.2598297 15.6774772,10.0841935 15.8802474,9.92997393 C16.0830175,9.77575441 16.2700772,9.61296958 16.4414322,9.44161456 C16.6127873,9.27025954 16.7198826,9.15459663 16.7627213,9.09462237 L16.8698177,8.94468748 Z M18.7804166,13.100026 C18.7632811,11.7748805 18.3377559,10.6039721 17.5038281,9.5872656 L17.4952604,9.59583331 C17.4438539,9.66437532 17.3895923,9.73434424 17.3324739,9.80574216 C17.2753556,9.87714009 17.151125,10.0042265 16.9597786,10.1870052 C16.7684322,10.3697839 16.5656651,10.5425643 16.3514713,10.7053515 C16.1372775,10.8681388 15.8516901,11.0537706 15.4947005,11.2622526 C15.1377109,11.4707345 14.7621634,11.6549384 14.3680468,11.8148698 C14.5108427,12.117597 14.6365012,12.388905 14.745026,12.6288021 C14.7564497,12.6630731 14.7750129,12.7130509 14.8007161,12.7787369 C14.8264194,12.844423 14.8478384,12.891545 14.8649739,12.9201041 C15.0705999,12.891545 15.2833626,12.8715538 15.5032682,12.8601302 C15.7231738,12.8487065 15.9330806,12.8429948 16.1329948,12.8429948 C16.3329089,12.8429948 16.5299643,12.8472786 16.7241666,12.8558463 C16.918369,12.8644141 17.1011449,12.8758376 17.2725,12.8901172 C17.443855,12.9043967 17.6052119,12.920104 17.7565755,12.9372396 C17.9079391,12.9543751 18.045021,12.9729382 18.1678255,12.9929297 C18.2906299,13.0129211 18.3948693,13.0300563 18.4805468,13.0443359 C18.5662243,13.0586155 18.6376212,13.0714669 18.6947395,13.0828906 L18.7804166,13.100026 Z M18.857526,9.86143227 C19.4458449,10.8667151 19.7399999,11.9662266 19.7399999,13.16 C19.7399999,14.3537733 19.4458449,15.4547128 18.857526,16.4628515 C18.2692071,17.4709902 17.4709902,18.2692071 16.4628515,18.857526 C15.4547128,19.4458449 14.3537733,19.7399999 13.16,19.7399999 C11.9662266,19.7399999 10.8652871,19.4458449 9.85714841,18.857526 C8.84900969,18.2692071 8.05079285,17.4709902 7.46247394,16.4628515 C6.87415503,15.4547128 6.57999998,14.3537733 6.57999998,13.16 C6.57999998,11.9662266 6.87415503,10.8652871 7.46247394,9.85714841 C8.05079285,8.84900969 8.84900969,8.05079285 9.85714841,7.46247394 C10.8652871,6.87415503 11.9662266,6.57999998 13.16,6.57999998 C14.3537733,6.57999998 15.4547128,6.87415503 16.4628515,7.46247394 C17.4709902,8.05079285 18.2692071,8.85043763 18.857526,9.86143227 Z" id="dribbble---FontAwesome" fill="#FFFFFF"></path>
            </g>
        </g>
    </g>
</svg>