<svg height="141" viewBox="0 0 300 141" width="300" xmlns="http://www.w3.org/2000/svg"><g fill="none" fill-rule="evenodd"><path d="m11.5358568 78.9041778h8.3248452c1.3478388 0 2.6560157-.2183399 3.9245699-.6550261 1.2685541-.4366863 2.3983432-1.1611776 3.3894012-2.1734957.9910579-1.0123181 1.7838924-2.3322817 2.3785272-3.9599304.5946347-1.6276487.8919477-3.6125564.8919477-5.9547826 0-2.1437325-.2081191-4.0790175-.6243634-5.805913-.4162444-1.7268956-1.1000641-3.2056519-2.0514797-4.4363131s-2.2100404-2.1734924-3.7759119-2.8285217c-1.5658716-.6550294-3.4984056-.9825392-5.79766-.9825392h-6.6598762zm-9.33571915-34.6568348h18.31465935c2.7353199 0 5.2823006.4366797 7.6410186 1.3100522 2.3587179.8733725 4.4002666 2.1834115 6.1247075 3.9301565 1.7244408 1.746745 3.0722594 3.9301434 4.0434962 6.5502609.9712368 2.6201174 1.4568479 5.6967243 1.4568479 9.229913 0 3.0965024-.3964173 5.9547695-1.1892636 8.574887-.7928464 2.6201174-1.9920085 4.8829122-3.5975224 6.7884521-1.6055139 1.90554-3.6074209 3.4041453-6.0057811 4.4958609-2.3983603 1.0917156-5.2228331 1.6375652-8.4735031 1.6375652h-18.31465935zm61.02656575 23.8191304c-.3964232-2.1437324-1.1000637-3.7713567-2.1109429-4.8829217-1.0108791-1.111565-2.5469958-1.6673391-4.6083964-1.6673391-1.3478388 0-2.4677175.2282643-3.3596696.6848-.8919522.4565356-1.6055032 1.0222343-2.1406745 1.697113s-.9117677 1.3894455-1.1298004 2.1437217c-.2180328.7542763-.3468684 1.4291449-.3865107 2.0246261zm-13.7359945 5.3593044c.118927 2.7392137.8126571 4.7241214 2.0812113 5.9547826s3.0920735 1.8459826 5.4706125 1.8459826c1.7046197 0 3.1713635-.4267552 4.4002753-1.2802783 1.2289119-.8535231 1.9821046-1.7566561 2.2596009-2.7094261h7.4328974c-1.1892695 3.6919837-3.0127888 6.3319109-5.4706125 7.9198609s-5.430953 2.3819131-8.919477 2.3819131c-2.4181814 0-4.5984761-.387057-6.5409497-1.1611826-1.9424736-.7741257-3.5876051-1.8757494-4.9354439-3.3049044s-2.3884341-3.1361756-3.121817-5.121113c-.7333828-1.9849375-1.1000688-4.168336-1.1000688-6.5502609 0-2.3025275.3765964-4.4462278 1.1298004-6.4311652.7532041-1.9849375 1.8235306-3.7018826 3.2110117-5.150887 1.3874812-1.4490043 3.0425231-2.5903262 4.9651755-3.424 1.9226525-.8336737 4.0533951-1.2505043 6.3922918-1.2505043 2.616393 0 4.8957921.5061514 6.8382657 1.5184695s3.5380529 2.3719799 4.786786 4.0790261c1.248733 1.7070462 2.1505822 3.6522558 2.7055746 5.835687.5549925 2.1834312.7532011 4.466075.5946318 6.848zm30.8787337 3.3346782c0 .9130713.1882982 1.6971098.5649002 2.3521392.3766021.6550293.8622132 1.1909544 1.4568479 1.6077913.5946348.4168368 1.2784545.7244975 2.0514797.9229913.7730252.1984937 1.5757701.2977391 2.4082588.2977391.5946348 0 1.2189919-.0694718 1.8730902-.2084174.6540982-.1389456 1.2487241-.3572855 1.7838954-.6550261.5351712-.2977406.9811406-.6947221 1.3379215-1.1909565s.5351686-1.1214803.5351686-1.8757565c0-1.27036-.8423866-2.2231157-2.5271851-2.8582957s-4.0335706-1.2703504-7.0463868-1.9055304c-1.2289119-.2778912-2.428074-.605401-3.5975224-.9825391s-2.2100436-.8733651-3.1218169-1.4886957-1.6451452-1.3894446-2.2001377-2.3223652c-.5549924-.9329206-.8324845-2.0742425-.8324845-3.424 0-1.9849375.3865068-3.6125618 1.159532-4.8829217.7730252-1.27036 1.7937996-2.2727384 3.0623538-3.0071653 1.2685542-.7344268 2.6956562-1.2505028 4.2813489-1.5482434 1.5856927-.2977407 3.2110034-.4466087 4.8759807-.4466087 1.6649774 0 3.2803776.1587926 4.8462492.4763826 1.5658715.31759 2.9632423.853515 4.1921542 1.6077913 1.2289118.7542762 2.2496862 1.7566546 3.0623537 3.0071652s1.2982786 2.8285122 1.4568479 4.7340522h-8.0275292c-.118927-1.6276487-.7333737-2.7292725-1.8433586-3.3049044-1.1099849-.5756318-2.4181618-.8634435-3.9245699-.8634435-.4757078 0-.9910502.0297737-1.5460426.0893218-.5549925.0595481-1.0604245.1885671-1.5163111.3870609-.4558867.1984937-.8423935.4863053-1.159532.8634434-.3171386.3771382-.4757055.8832896-.4757055 1.5184696 0 .7542762.2774921 1.3695976.8324846 1.8459826.5549924.476385 1.2784539.863442 2.170406 1.1611826.8919522.2977406 1.9127265.5657032 3.0623538.8038957 1.1496272.2381925 2.319058.4962305 3.5083276.7741217 1.2289118.2778913 2.4280739.6153256 3.5975223 1.0123131 1.1694484.3969874 2.2100436.922988 3.121817 1.5780173.9117733.6550294 1.6451452 1.4688416 2.2001376 2.4414609.5549921.9726194.8324841 2.1734885.8324841 3.6026435 0 2.0246362-.406327 3.7217323-1.2189948 5.0913391-.8126675 1.3696069-1.8730836 2.4712306-3.1812801 3.3049044-1.3081965.8336737-2.8046715 1.4192215-4.48947 1.7566608-1.6847985.3374394-3.3993031.5061566-5.1435651.5061566-1.7839043 0-3.5281401-.1786417-5.2327598-.5359305-1.7046197-.3572887-3.2209156-.952761-4.5489332-1.7864348-1.3280177-.8336737-2.4181651-1.9352975-3.2704749-3.3049043-.8523098-1.3696069-1.3181001-3.086552-1.3973847-5.150887zm31.2355124-25.5460174h-8.443771v-6.9670956h8.443771zm-8.443771 4.7638261h8.443771v30.7862261h-8.443771zm26.597385 23.5213913c1.189269 0 2.239775-.2381889 3.151548-.7145739.911774-.476385 1.664966-1.1115554 2.259601-1.9055304s1.040604-1.697108 1.337922-2.7094261c.297317-1.0123181.445973-2.0742437.445973-3.1858087 0-1.27036-.118925-2.4712291-.356779-3.6026435-.237854-1.1314143-.634271-2.1337927-1.189263-3.0071652-.554993-.8733725-1.288365-1.5680902-2.200138-2.0841739s-2.061383-.7741217-3.448864-.7741217c-1.18927 0-2.210044.2381889-3.062354.7145739s-1.565861 1.12148-2.140675 1.9353043c-.574813.8138244-.991051 1.746731-1.248726 2.7987478-.257675 1.0520169-.386511 2.1536407-.386511 3.3049044 0 1.111565.109015 2.2131887.327047 3.3049043.218033 1.0917156.59463 2.074245 1.129801 2.9476174.535171.8733725 1.238812 1.5879393 2.110943 2.1437218s1.962278.8336695 3.270475.8336695zm15.222574 5.2997566c0 1.2306612-.168478 2.6399456-.505437 4.2278956-.33696 1.58795-1.060422 3.0667062-2.170406 4.4363131-1.109985 1.3696068-2.715475 2.5307778-4.816518 3.4835478s-4.915605 1.4291478-8.443771 1.4291478c-1.506409 0-3.042525-.1885662-4.608397-.5657043-1.565871-.3771382-2.992974-.9626859-4.281349-1.7566609s-2.358702-1.8162025-3.211012-3.0667131c-.852309-1.2505106-1.33792-2.7491159-1.456847-4.4958608h8.384308c.396423 1.5879499 1.169437 2.6895737 2.319064 3.3049043s2.477625.9229913 3.984033.9229913c2.378539 0 4.112864-.7145667 5.203028-2.1437217s1.615417-3.235421 1.575774-5.4188522v-4.0492522h-.118926c-.911773 1.6276488-2.21004 2.8285179-3.894838 3.6026435-1.684799.7741256-3.458766 1.1611826-5.321955 1.1611826-2.299254 0-4.28134-.406906-5.946318-1.2207304-1.664977-.8138244-3.032617-1.9253727-4.102959-3.3346783-1.070343-1.4093056-1.853267-3.0567789-2.348796-4.9424695s-.743289-3.8805228-.743289-5.9845566c0-1.9849374.287402-3.9003733.862216-5.7463652.574813-1.8459918 1.4172-3.4736161 2.527185-4.8829217s2.487535-2.5307784 4.132691-3.3644522c1.645156-.8336737 3.538048-1.2505043 5.678733-1.2505043 2.021759 0 3.795726.3771324 5.321955 1.1314087 1.526229.7542762 2.804675 2.0246171 3.835375 3.8110608h.118926v-4.1088h8.02753zm3.941913-28.8211479h8.027529v4.2874435h.17839c1.070342-1.7864437 2.457803-3.0865582 4.162422-3.9003826 1.70462-.8138244 3.448856-1.2207304 5.23276-1.2207304 2.259612 0 4.112863.3076607 5.559807.9229913 1.446945.6153306 2.586645 1.4688409 3.419133 2.5605565.832489 1.0917156 1.417204 2.4216037 1.754164 3.9897043s.505437 3.3048949.505437 5.2104348v18.9362087h-8.443771v-17.3879652c0-2.5407199-.396418-4.4363068-1.189264-5.6868174s-2.200128-1.8757565-4.221886-1.8757565c-2.299254 0-3.964207.6847931-4.994907 2.0544-1.0307 1.3696068-1.546043 3.6224771-1.546043 6.7586783v16.1374608h-8.443771zm53.117963 12.0882087c-.396423-2.1437324-1.100064-3.7713567-2.110943-4.8829217s-2.546996-1.6673391-4.608396-1.6673391c-1.347839 0-2.467718.2282643-3.35967.6848-.891952.4565356-1.605503 1.0222343-2.140675 1.697113-.535171.6748787-.911767 1.3894455-1.1298 2.1437217-.218033.7542763-.346868 1.4291449-.386511 2.0246261zm-13.735995 5.3593044c.118927 2.7392137.812657 4.7241214 2.081212 5.9547826 1.268554 1.2306612 3.092073 1.8459826 5.470612 1.8459826 1.70462 0 3.171364-.4267552 4.400275-1.2802783 1.228912-.8535231 1.982105-1.7566561 2.259601-2.7094261h7.432898c-1.18927 3.6919837-3.012789 6.3319109-5.470613 7.9198609-2.457823 1.58795-5.430953 2.3819131-8.919477 2.3819131-2.418181 0-4.598476-.387057-6.540949-1.1611826-1.942474-.7741257-3.587606-1.8757494-4.935444-3.3049044-1.347839-1.429155-2.388434-3.1361756-3.121817-5.121113-.733383-1.9849375-1.100069-4.168336-1.100069-6.5502609 0-2.3025275.376596-4.4462278 1.1298-6.4311652.753204-1.9849375 1.823531-3.7018826 3.211012-5.150887 1.387481-1.4490043 3.042523-2.5903262 4.965175-3.424 1.922653-.8336737 4.053396-1.2505043 6.392292-1.2505043 2.616393 0 4.895792.5061514 6.838266 1.5184695s3.538053 2.3719799 4.786786 4.0790261 2.150582 3.6522558 2.705575 5.835687c.554992 2.1834312.753201 4.466075.594631 6.848zm24.337784-17.4475131h8.02753v5.7165913h.118926c.396423-.9527699.931586-1.8360539 1.605506-2.6498782.673919-.8138244 1.446933-1.5085421 2.319064-2.0841739.872131-.5756319 1.803711-1.0222361 2.794769-1.3398261s2.021743-.4763826 3.092086-.4763826c.554992 0 1.169439.0992454 1.843358.2977391v7.860313c-.396423-.0793975-.872124-.1488692-1.427116-.2084173-.554993-.0595482-1.090156-.0893218-1.605506-.0893218-1.54605 0-2.854227.258038-3.92457.7741218-1.070342.5160837-1.93255 1.2207259-2.586648 2.1139478-.654098.8932218-1.119889 1.9352984-1.397385 3.1262608-.277496 1.1909625-.416242 2.4811525-.416242 3.8706087v13.8746435h-8.443772zm-186.9547144 79.6964943c-1.7046197 1.667348-3.5182285 2.91784-5.4408809 3.751513-1.9226525.833674-4.0930368 1.250505-6.5112182 1.250505-1.9028313 0-3.6966192-.277887-5.38141776-.83367-1.68479852-.555782-3.14163185-1.379519-4.3705437-2.471235-1.22891186-1.091715-2.20013408-2.421603-2.91369581-3.989704-.71356172-1.5681-1.07033723-3.364442-1.07033723-5.389078 0-1.508553.2576712-2.888063.77302134-4.138574.51535013-1.250511 1.21899072-2.381908 2.11094287-3.394226.89195216-1.012318 1.91272653-1.915451 3.06235375-2.709426s2.33887892-1.488693 3.56779078-2.084174c-1.14962722-1.389456-2.11093901-2.778892-2.88396421-4.168348s-1.159532-3.01708-1.159532-4.882922c0-1.468853.30722335-2.798742.92167928-3.989704.61445593-1.190963 1.43702169-2.21319 2.46772195-3.0667131 1.03070027-.8535231 2.21004154-1.5085426 3.53805924-1.9650783 1.3280176-.4565356 2.7055675-.6848 4.1326909-.6848 1.6253351 0 3.141631.2183399 4.5489333.6550261 1.4073023.4366863 2.6361957 1.0817813 3.6867171 1.9353044 1.0505214.8535229 1.8829976 1.9154489 2.4974536 3.1858089.6144559 1.27036.9216792 2.739191.9216792 4.406539 0 2.501021-.7234614 4.605023-2.170406 6.312069-1.4469446 1.707047-3.2407326 3.13618-5.3814178 4.287444l5.4706126 6.728904c.4360655-.793975.7730201-1.617711 1.010874-2.471234.2378539-.853524.4162417-1.716958.5351686-2.590331h7.3139711c-.1982116 1.90554-.6342705 3.751504-1.3081899 5.537948s-1.6054999 3.433917-2.7947695 4.942469l8.6221611 10.063583h-10.3465933zm-11.7142464-14.529669c-.753204.31759-1.4865759.694722-2.2001376 1.131409-.7135618.436686-1.3478293.952762-1.90282178 1.548243-.55499245.595481-1.00096184 1.250501-1.33792154 1.965078-.33695971.714578-.50543703 1.508541-.50543703 2.381913 0 .754277.16847732 1.478768.50543703 2.173496.3369597.694728.78292909 1.2902 1.33792154 1.786435.55499248.496234 1.19917048.893216 1.93255338 1.190956.7333828.297741 1.496486.446609 2.2893324.446609 1.5064081 0 2.8244954-.347359 3.9543014-1.042087 1.1298061-.694728 2.1902222-1.597861 3.1812801-2.709426zm6.8382657-14.52967c0-1.111565-.3865068-2.06432-1.159532-2.858295s-1.6748744-1.190957-2.7055747-1.190957-1.922639.347359-2.6758431 1.042087c-.753204.694728-1.1298004 1.597861-1.1298004 2.709426 0 1.349758.3567755 2.501004 1.0703372 3.453774.7135618.95277 1.4667545 1.925375 2.2596009 2.917844 1.1892695-.754277 2.2100439-1.568089 3.0623537-2.441461.8523098-.873373 1.2784584-2.084166 1.2784584-3.632418zm32.9772884-9.2299128h9.3357192v42.5171478h-9.3357192zm14.0506539 0h8.4437715v42.5171478h-8.4437715zm12.5046112 0h8.4437715v42.5171478h-8.4437715zm41.1064006 42.5171478h-8.027529v-4.287443h-.17839c-1.070342 1.786443-2.457803 3.076633-4.162422 3.870608-1.70462.793975-3.448856 1.190957-5.23276 1.190957-2.259612 0-4.1128629-.297736-5.5598075-.893218-1.4469446-.595481-2.5866441-1.439067-3.4191328-2.530782-.8324887-1.091716-1.4172041-2.421604-1.7541638-3.989705-.3369597-1.5681-.505437-3.304894-.505437-5.210434v-18.936209h8.4437711v17.387965c0 2.54072.396418 4.436307 1.189264 5.686818.792846 1.25051 2.200128 1.875756 4.221886 1.875756 2.299254 0 3.964207-.684793 4.994907-2.0544s1.546042-3.622477 1.546042-6.758678v-16.137461h8.443772zm10.126084-10.004035c0 .913072.188298 1.69711.5649 2.352139.376602.65503.862213 1.190955 1.456848 1.607792s1.278455.724497 2.05148.922991 1.57577.297739 2.408259.297739c.594634 0 1.218991-.069472 1.87309-.208417.654098-.138946 1.248724-.357286 1.783895-.655026.535171-.297741.981141-.694722 1.337922-1.190957.356781-.496234.535168-1.12148.535168-1.875756 0-1.27036-.842386-2.223116-2.527185-2.858296-1.684798-.63518-4.03357-1.27035-7.046387-1.90553-1.228911-.277892-2.428074-.605401-3.597522-.98254-1.169448-.377138-2.210044-.873365-3.121817-1.488695-.911773-.615331-1.645145-1.389445-2.200138-2.322365-.554992-.932921-.832484-2.074243-.832484-3.424 0-1.984938.386507-3.612562 1.159532-4.882922s1.793799-2.272739 3.062354-3.007165c1.268554-.734427 2.695656-1.250503 4.281349-1.548244 1.585692-.297741 3.211003-.446609 4.87598-.446609 1.664978 0 3.280378.158793 4.846249.476383 1.565872.31759 2.963243.853515 4.192155 1.607791 1.228911.754277 2.249686 1.756655 3.062353 3.007166.812668 1.25051 1.298279 2.828512 1.456848 4.734052h-8.027529c-.118927-1.627649-.733374-2.729273-1.843359-3.304905-1.109984-.575631-2.418161-.863443-3.924569-.863443-.475708 0-.991051.029774-1.546043.089322-.554993.059548-1.060424.188567-1.516311.387061-.455887.198493-.842394.486305-1.159532.863443-.317139.377138-.475706.88329-.475706 1.51847 0 .754276.277492 1.369597.832485 1.845982.554992.476385 1.278454.863442 2.170406 1.161183.891952.29774 1.912727.565703 3.062354.803895 1.149627.238193 2.319058.496231 3.508327.774122 1.228912.277891 2.428074.615326 3.597523 1.012313 1.169448.396988 2.210043.922988 3.121817 1.578018.911773.655029 1.645145 1.468841 2.200137 2.44146.554993.97262.832485 2.173489.832485 3.602644 0 2.024636-.406328 3.721732-1.218995 5.091339-.812668 1.369607-1.873084 2.471231-3.18128 3.304904-1.308197.833674-2.804672 1.419222-4.489471 1.756661-1.684798.33744-3.399303.506157-5.143565.506157-1.783904 0-3.52814-.178642-5.232759-.535931-1.70462-.357288-3.220916-.952761-4.548934-1.786434-1.328017-.833674-2.418165-1.935298-3.270475-3.304905-.852309-1.369607-1.3181-3.086552-1.397384-5.150887zm33.257261-20.782191h6.184171v5.657043h-6.184171v15.244244c0 1.429155.23785 2.381911.713558 2.858296s1.427109.714574 2.854233.714574c.475707 0 .931587-.01985 1.367653-.059548.436065-.039699.852303-.099246 1.248727-.178644v6.550261c-.713562.119096-1.506397.198493-2.378528.238191-.872131.039699-1.724428.059548-2.556916.059548-1.308197 0-2.547001-.089321-3.716449-.267965s-2.200133-.526003-3.092085-1.042087c-.891953-.516084-1.595593-1.2505-2.110943-2.20327s-.773022-2.203261-.773022-3.751513v-18.162087h-5.113833v-5.657043h5.113833v-9.2299131h8.443772zm7.390778 0h8.027529v5.716591h.118926c.396423-.95277.931587-1.836054 1.605506-2.649878.67392-.813824 1.446933-1.508542 2.319064-2.084174s1.803712-1.022236 2.79477-1.339826c.991057-.31759 2.021742-.476383 3.092085-.476383.554992 0 1.169439.099246 1.843358.29774v7.860313c-.396423-.079398-.872123-.14887-1.427116-.208418-.554992-.059548-1.090156-.089322-1.605506-.089322-1.54605 0-2.854227.258038-3.92457.774122-1.070342.516084-1.93255 1.220726-2.586648 2.113948s-1.119888 1.935298-1.397385 3.126261c-.277496 1.190962-.416242 2.481152-.416242 3.870609v13.874643h-8.443771zm19.937508 9.468104c.118927-1.984937.614449-3.632411 1.48658-4.942469.872131-1.310059 1.982099-2.36206 3.329938-3.156035s2.864135-1.359674 4.548933-1.697113c1.684799-.337439 3.379482-.506157 5.084102-.506157 1.54605 0 3.111898.10917 4.697591.327513 1.585693.218344 3.032616.645099 4.340812 1.280279 1.308197.63518 2.378523 1.518464 3.211012 2.649878s1.248727 2.63002 1.248727 4.495861v16.018365c0 1.389456.079283 2.719344.237852 3.989704.15857 1.27036.436062 2.223116.832485 2.858296h-8.562698c-.158569-.476385-.287405-.962687-.386511-1.458922-.099105-.496234-.168478-1.002385-.208121-1.518469-1.347839 1.389456-2.933507 2.362061-4.757054 2.917843-1.823547.555783-3.686708.83367-5.589539.83367-1.466766 0-2.834405-.178642-4.102959-.535931-1.268555-.357288-2.378523-.913063-3.329938-1.667339-.951416-.754276-1.694698-1.707032-2.22987-2.858295-.535171-1.151264-.802753-2.52085-.802753-4.1088 0-1.746745.307224-3.185803.92168-4.317218.614456-1.131414 1.40729-2.034547 2.378527-2.709426s2.081205-1.18103 3.329938-1.518469c1.248733-.33744 2.507358-.605402 3.775912-.803896s2.517268-.357286 3.74618-.476383c1.228912-.119096 2.319059-.297738 3.270475-.53593.951416-.238193 1.704608-.585551 2.259601-1.042087.554992-.456536.812664-1.12148.773021-1.994852 0-.913072-.148656-1.637563-.445974-2.173496-.297317-.535933-.693734-.952764-1.189263-1.250504-.495529-.297741-1.070334-.496232-1.724432-.595479-.654099-.099246-1.357739-.148869-2.110943-.148869-1.664978 0-2.973155.357283-3.92457 1.071861-.951416.714577-1.5064 1.905522-1.664969 3.572869zm19.503923 6.252522c-.356781.31759-.80275.565704-1.337921.744348-.535172.178644-1.109977.327512-1.724433.446609-.614455.119096-1.258633.218341-1.932553.297739-.673919.079397-1.347829.178643-2.021748.297739-.634277.119096-1.258634.277889-1.87309.476382-.614456.198494-1.149619.466457-1.605506.803896s-.822573.764195-1.100069 1.280278c-.277496.516084-.416242 1.171104-.416242 1.965079 0 .754276.138746 1.389446.416242 1.90553s.654093.92299 1.129801 1.220731c.475707.29774 1.030692.506155 1.664969.625252.634277.119096 1.288365.178643 1.962285.178643 1.664977 0 2.953333-.277887 3.865106-.833669.911774-.555783 1.585683-1.220727 2.021748-1.994853.436066-.774125.703647-1.558164.802753-2.352139s.148658-1.429145.148658-1.90553zm22.851205-15.720626h6.18417v5.657043h-6.18417v15.244244c0 1.429155.23785 2.381911.713558 2.858296s1.427109.714574 2.854232.714574c.475708 0 .931588-.01985 1.367654-.059548.436065-.039699.852303-.099246 1.248726-.178644v6.550261c-.713561.119096-1.506396.198493-2.378527.238191-.872131.039699-1.724428.059548-2.556917.059548-1.308196 0-2.547-.089321-3.716448-.267965-1.169449-.178644-2.200133-.526003-3.092086-1.042087-.891952-.516084-1.595592-1.2505-2.110943-2.20327-.51535-.95277-.773021-2.203261-.773021-3.751513v-18.162087h-5.113833v-5.657043h5.113833v-9.2299131h8.443772zm14.883138 15.422887c0 1.230661.118925 2.43153.356779 3.602643.237854 1.171114.644182 2.223115 1.218995 3.156035.574814.932921 1.337917 1.677261 2.289333 2.233044.951415.555782 2.140667.833669 3.56779.833669 1.427124 0 2.626286-.277887 3.597523-.833669.971237-.555783 1.74425-1.300123 2.319064-2.233044.574813-.93292.981141-1.984921 1.218995-3.156035.237854-1.171113.356779-2.371982.356779-3.602643s-.118925-2.441455-.356779-3.632417c-.237854-1.190963-.644182-2.242964-1.218995-3.156035-.574814-.913071-1.347827-1.657412-2.319064-2.233044s-2.170399-.863443-3.597523-.863443c-1.427123 0-2.616375.287811-3.56779.863443-.951416.575632-1.714519 1.319973-2.289333 2.233044-.574813.913071-.981141 1.965072-1.218995 3.156035-.237854 1.190962-.356779 2.401756-.356779 3.632417zm-8.443771 0c0-2.461323.376596-4.694344 1.1298-6.69913.753204-2.004787 1.823531-3.711808 3.211012-5.121114 1.387481-1.409305 3.052433-2.501004 4.994907-3.27513 1.942473-.774126 4.122768-1.161183 6.540949-1.161183 2.418182 0 4.608387.387057 6.570682 1.161183s3.637157 1.865825 5.024639 3.27513c1.387481 1.409306 2.457807 3.116327 3.211011 5.121114.753204 2.004786 1.129801 4.237807 1.129801 6.69913 0 2.461322-.376597 4.684419-1.129801 6.669356-.753204 1.984938-1.82353 3.682034-3.211011 5.09134-1.387482 1.409305-3.062344 2.49108-5.024639 3.245356s-4.1525 1.131409-6.570682 1.131409c-2.418181 0-4.598476-.377133-6.540949-1.131409-1.942474-.754276-3.607426-1.836051-4.994907-3.245356-1.387481-1.409306-2.457808-3.106402-3.211012-5.09134-.753204-1.984937-1.1298-4.208034-1.1298-6.669356zm34.446524-15.422887h8.027529v5.716591h.118927c.396423-.95277.931586-1.836054 1.605505-2.649878.67392-.813824 1.446933-1.508542 2.319064-2.084174s1.803712-1.022236 2.79477-1.339826 2.021743-.476383 3.092085-.476383c.554993 0 1.169439.099246 1.843359.29774v7.860313c-.396423-.079398-.872124-.14887-1.427116-.208418-.554993-.059548-1.090156-.089322-1.605506-.089322-1.546051 0-2.854228.258038-3.92457.774122-1.070343.516084-1.93255 1.220726-2.586648 2.113948-.654099.893222-1.119889 1.935298-1.397385 3.126261-.277496 1.190962-.416242 2.481152-.416242 3.870609v13.874643h-8.443772zm15.098692 21.971494h9.335719v9.170365h-9.335719z" fill="#ef5350"/><g fill-rule="nonzero" transform="translate(1.657364 .645791)"><g fill="#fff"><path d="m10.0697249 11.3278815c.127923.0496543.2614168.0748884.3971802.0748884.4491747 0 .8457359-.2663828 1.0103851-.6784723.1062586-.2661792.1011004-.5569821-.0144429-.81929487-.0850069-.19271542-.2222146-.35287068-.3959422-.46581372l-1.31182945 1.63167079c-.03218707.0398862-.06581843.0785514-.10089408.1155885.14030261.0413107.27874828.0883195.41554333.1414332zm-4.70612105-1.94099224c-.60020633.24684668-1.16678129.57346574-1.68796424.97334514-1.78968363 1.3738351-2.82544704 3.4385559-2.84133424 5.664653-.00013756.0082757-.00061899.0255055-.0014443.0516893 0 3.9932995 3.29401651 7.2421925 7.34277854 7.2421925 4.04649239 0 7.33906469-3.24523 7.34277859-7.2356805-.0181569-.619864-.4941541-1.0769272-1.0854884-1.0769272h-6.25729019c-.59834938 0-1.08528198.4800588-1.08528198 1.0704152 0 .5903563.4869326 1.0706186 1.08528198 1.0706186h5.09071529l-.1830124.5404985c-.7060523 2.0877165-2.6781293 3.4902452-4.90770289 3.4902452-2.85185694 0-5.17200825-2.2883684-5.17200825-5.1013623 0-2.3506398 1.62049519-4.3351812 3.81788171-4.9239095-.01877579-.0207571-.03713893-.0419212-.05508941-.0636958zm-5.36368638 6.68968744c0-.0097681.00048143-.028965.00144429-.0575908.01795048-2.4788453 1.17070151-4.7775923 3.16299863-6.30710559.66746905-.51241544 1.40302613-.91677187 2.18624484-1.20208023l.27936726-.10195399 1.78246217 2.16260481c.20921596.2535622.5238652.4049669.84099037.4049669.3255846 0 .63982119-.1552712.8494498-.4153454l1.70735897-2.12393967.3086658.11660605c.0173315.00610503.0348693.01241356.0522008.0191291.4759973.18498238.8513068.54212658 1.0553645 1.00549829.2042641.46337173.2135489.97761863.0257909 1.44790943-.2907152.7283299-.9916093 1.1990277-1.7853507 1.1990277-.2405777 0-.47682257-.0445667-.70233839-.1318686-.50467675-.196175-1.03927097-.2954834-1.5889271-.2954834-2.39277854 0-4.33906464 1.9198281-4.33906464 4.2796254 0 2.3597972 1.9462861 4.2798289 4.33906464 4.2798289 1.67083907 0 3.16939479-.9389535 3.89257219-2.3878804h-3.89257219c-1.05763411 0-1.91822558-.8485991-1.91822558-1.8919485 0-1.043146.86059147-1.8919486 1.91822558-1.8919486h6.25729019c1.0456672 0 1.8874829.8081024 1.915956 1.8394453.0014443.0179081.002476.0350022.002476.0525033 0 4.4462927-3.6676754 8.0637259-8.17572219 8.0637259-4.50804676 0-8.17572214-3.6174332-8.17572214-8.0637259z"/><path d="m13.3477304 14.2600253h1.085282c.403989 0 .7774415.1191485 1.0854883.3238911v-12.52264683c0-.44886647-.2923659-.84991279-.7277167-.99779359-.1155433-.03918038-.2358321-.05927288-.3575653-.05927288-.332806 0-.6425034.14567063-.8494498.39943892l-5.34078403 6.54292199-5.48335626-6.55296824c-.20694635-.24733869-.51375516-.38919174-.84160935-.38919174-.12400275 0-.24656121.02049435-.36375516.06128212-.43143054.14948821-.7213205.5495299-.7213205.99558342v10.74448273c.51045392-1.0118583 1.24477304-1.918231 2.17056397-2.6560277v-5.1203908l4.4088033 5.2817157c.20942228.2503526.5238652.3998408.8411967.3998408.32558459 0 .63982118-.1533058.84944979-.410088l4.24477304-5.21360211zm2.168707 1.9391998c.0483194-1.1569607-.4920908-1.5086132-1.083425-1.5086132h-1.9182256v-7.27489176l-2.75962862 3.38940396c-.36623108.4490674-.92434663.7169004-1.49257221.7169004-.5826685 0-1.12469051-.2547729-1.49607978-.6988171l-2.93005502-3.51015993v2.66868595l-.16072902.12196148c-1.78988996 1.3562438-2.82544705 3.394829-2.84133425 5.5927476l-.83294361.002813-.00144429-13.63798593c0-.78822881.51231087-1.49548484 1.27510316-1.75990215.20735901-.07173023.4235901-.10809765.6429161-.10809765.57957359 0 1.1215956.25075441 1.4872077.68816815l4.82971114 5.77136996 4.69663-5.75388948c.3660247-.44846462.9134113-.70564863 1.5016506-.70564863.2154058 0 .427923.03516187.6319807.104481.7693948.26140344 1.2862449.97026687 1.2862449 1.7635188v13.60503423c0 .0172795-.0010316.5154408-.0022696.5323185z"/><path d="m14.5783995 1.67320024c-.1454374-.05027323-.3092589-.00201901-.4038341.11548709l-5.84773043 7.27164906-5.99786602-7.27508137c-.09539228-.11568899-.2592137-.16192421-.40362985-.11104528-.14380335.05047513-.24103402.18635418-.24103402.33798147v7.96214883c.00796638-.00868172.01613703-.01716154.02410341-.02584329.02982285-.03230406.06005423-.06440626.09048989-.09630655.02716739-.02907365.05433478-.05794542.08231924-.08641342.03023139-.03129456.06107557-.06218535.09191976-.09287422.02859725-.02866989.05699024-.05733974.0862003-.08560581.03104845-.03028511.06291396-.05996445.09437094-.08984575.02961859-.02806416.05903291-.05612835.08906003-.08378871.03206978-.02927557.06454809-.05794545.09682214-.08681722.02369487-.02119955.04698121-.04300483.07108461-.06400246v-6.24801343l3.54953232 4.31602738 2.08943813 2.54071609c.07312727.08863433.17812008.14213795.28066165.14213795h.00898772c.09702641 0 .2024277-.0561283.27514646-.14657973l2.01753642-2.51507476 3.4637406-4.31784448v10.16912337h.3629809c.0553561 0 .1096909.0022209.1640257.0054513.0153199.0008076.0306399.0022209.0461641.0032304.0422831.0032305.0843619.0074704.1264408.0127198.0085791.0012114.0177711.0016152.0265545.0028266v-11.21537189c0-.15263679-.0978434-.28871774-.2434852-.33899097"/><path d="m14.4586996 15.6549342h-2.6156277-3.58997699c-.2001808 0-.36298088.1604503-.36298088.3579431 0 .1972916.16280008.3579432.36298088.3579432h6.03831069l-.4945282 1.4609638c-.7976592 2.3562242-3.0253855 3.9391866-5.54378249 3.9391866-3.22148096 0-5.84241951-2.5831095-5.84241951-5.7580936 0-2.2849577 1.35734835-4.2635097 3.31932443-5.1931956l-.00388108-.004429-.46490967-.5638913c-.36093822.1834005-.70553518.4006225-1.03072683.6498541l-.00183839.0016105c-.96372755.7388366-1.68294856 1.7013373-2.10639222 2.7840248-.0602585.1546121-.11479756.31164-.16300436.4708824-.1754646.5791915-.26901848 1.1869702-.27351233 1.8086397 0 .0191252-.0006128.0380491-.00142987.056973.00571946 3.5647354 2.95021555 6.4635113 6.56878983 6.4635113 3.61285479 0 6.55367409-2.8895153 6.56878979-6.4463993-.000817-.0122804-.0014298-.0243595-.0014298-.0364385-.0057195-.1964863-.1644343-.3490852-.3617553-.3490852"/><path d="m10.7670013 10.4506501c.0224977-.0479409.0213929-.1003631-.0030131-.1477121-.0099433-.0191087-.0232009-.0364418-.0392708-.0515766l-.2820259.299398c.0090393.0028748.0180786.0057496.0270175.0087089.1176112.0389784.250991-.0098926.2972923-.1088182"/></g><g fill="#ef5350"><path d="m10.0697249 11.3278815c.127923.0496543.2614168.0748884.3971802.0748884.4491747 0 .8457359-.2663828 1.0103851-.6784723.1062586-.2661792.1011004-.5569821-.0144429-.81929487-.0850069-.19271542-.2222146-.35287068-.3959422-.46581372l-1.31182945 1.63167079c-.03218707.0398862-.06581843.0785514-.10089408.1155885.14030261.0413107.27874828.0883195.41554333.1414332zm-4.70612105-1.94099224c-.60020633.24684668-1.16678129.57346574-1.68796424.97334514-1.78968363 1.3738351-2.82544704 3.4385559-2.84133424 5.664653-.00013756.0082757-.00061899.0255055-.0014443.0516893 0 3.9932995 3.29401651 7.2421925 7.34277854 7.2421925 4.04649239 0 7.33906469-3.24523 7.34277859-7.2356805-.0181569-.619864-.4941541-1.0769272-1.0854884-1.0769272h-6.25729019c-.59834938 0-1.08528198.4800588-1.08528198 1.0704152 0 .5903563.4869326 1.0706186 1.08528198 1.0706186h5.09071529l-.1830124.5404985c-.7060523 2.0877165-2.6781293 3.4902452-4.90770289 3.4902452-2.85185694 0-5.17200825-2.2883684-5.17200825-5.1013623 0-2.3506398 1.62049519-4.3351812 3.81788171-4.9239095-.01877579-.0207571-.03713893-.0419212-.05508941-.0636958zm-5.36368638 6.68968744c0-.0097681.00048143-.028965.00144429-.0575908.01795048-2.4788453 1.17070151-4.7775923 3.16299863-6.30710559.66746905-.51241544 1.40302613-.91677187 2.18624484-1.20208023l.27936726-.10195399 1.78246217 2.16260481c.20921596.2535622.5238652.4049669.84099037.4049669.3255846 0 .63982119-.1552712.8494498-.4153454l1.70735897-2.12393967.3086658.11660605c.0173315.00610503.0348693.01241356.0522008.0191291.4759973.18498238.8513068.54212658 1.0553645 1.00549829.2042641.46337173.2135489.97761863.0257909 1.44790943-.2907152.7283299-.9916093 1.1990277-1.7853507 1.1990277-.2405777 0-.47682257-.0445667-.70233839-.1318686-.50467675-.196175-1.03927097-.2954834-1.5889271-.2954834-2.39277854 0-4.33906464 1.9198281-4.33906464 4.2796254 0 2.3597972 1.9462861 4.2798289 4.33906464 4.2798289 1.67083907 0 3.16939479-.9389535 3.89257219-2.3878804h-3.89257219c-1.05763411 0-1.91822558-.8485991-1.91822558-1.8919485 0-1.043146.86059147-1.8919486 1.91822558-1.8919486h6.25729019c1.0456672 0 1.8874829.8081024 1.915956 1.8394453.0014443.0179081.002476.0350022.002476.0525033 0 4.4462927-3.6676754 8.0637259-8.17572219 8.0637259-4.50804676 0-8.17572214-3.6174332-8.17572214-8.0637259z"/><path d="m13.3477304 14.2600253h1.085282c.403989 0 .7774415.1191485 1.0854883.3238911v-12.52264683c0-.44886647-.2923659-.84991279-.7277167-.99779359-.1155433-.03918038-.2358321-.05927288-.3575653-.05927288-.332806 0-.6425034.14567063-.8494498.39943892l-5.34078403 6.54292199-5.48335626-6.55296824c-.20694635-.24733869-.51375516-.38919174-.84160935-.38919174-.12400275 0-.24656121.02049435-.36375516.06128212-.43143054.14948821-.7213205.5495299-.7213205.99558342v10.74448273c.51045392-1.0118583 1.24477304-1.918231 2.17056397-2.6560277v-5.1203908l4.4088033 5.2817157c.20942228.2503526.5238652.3998408.8411967.3998408.32558459 0 .63982118-.1533058.84944979-.410088l4.24477304-5.21360211zm2.168707 1.9391998c.0483194-1.1569607-.4920908-1.5086132-1.083425-1.5086132h-1.9182256v-7.27489176l-2.75962862 3.38940396c-.36623108.4490674-.92434663.7169004-1.49257221.7169004-.5826685 0-1.12469051-.2547729-1.49607978-.6988171l-2.93005502-3.51015993v2.66868595l-.16072902.12196148c-1.78988996 1.3562438-2.82544705 3.394829-2.84133425 5.5927476l-.83294361.002813-.00144429-13.63798593c0-.78822881.51231087-1.49548484 1.27510316-1.75990215.20735901-.07173023.4235901-.10809765.6429161-.10809765.57957359 0 1.1215956.25075441 1.4872077.68816815l4.82971114 5.77136996 4.69663-5.75388948c.3660247-.44846462.9134113-.70564863 1.5016506-.70564863.2154058 0 .427923.03516187.6319807.104481.7693948.26140344 1.2862449.97026687 1.2862449 1.7635188v13.60503423c0 .0172795-.0010316.5154408-.0022696.5323185z"/><path d="m14.5783995 1.67320024c-.1454374-.05027323-.3092589-.00201901-.4038341.11548709l-5.84773043 7.27164906-5.99786602-7.27508137c-.09539228-.11568899-.2592137-.16192421-.40362985-.11104528-.14380335.05047513-.24103402.18635418-.24103402.33798147v7.96214883c.00796638-.00868172.01613703-.01716154.02410341-.02584329.02982285-.03230406.06005423-.06440626.09048989-.09630655.02716739-.02907365.05433478-.05794542.08231924-.08641342.03023139-.03129456.06107557-.06218535.09191976-.09287422.02859725-.02866989.05699024-.05733974.0862003-.08560581.03104845-.03028511.06291396-.05996445.09437094-.08984575.02961859-.02806416.05903291-.05612835.08906003-.08378871.03206978-.02927557.06454809-.05794545.09682214-.08681722.02369487-.02119955.04698121-.04300483.07108461-.06400246v-6.24801343l3.54953232 4.31602738 2.08943813 2.54071609c.07312727.08863433.17812008.14213795.28066165.14213795h.00898772c.09702641 0 .2024277-.0561283.27514646-.14657973l2.01753642-2.51507476 3.4637406-4.31784448v10.16912337h.3629809c.0553561 0 .1096909.0022209.1640257.0054513.0153199.0008076.0306399.0022209.0461641.0032304.0422831.0032305.0843619.0074704.1264408.0127198.0085791.0012114.0177711.0016152.0265545.0028266v-11.21537189c0-.15263679-.0978434-.28871774-.2434852-.33899097"/><path d="m14.4586996 15.6549342h-2.6156277-3.58997699c-.2001808 0-.36298088.1604503-.36298088.3579431 0 .1972916.16280008.3579432.36298088.3579432h6.03831069l-.4945282 1.4609638c-.7976592 2.3562242-3.0253855 3.9391866-5.54378249 3.9391866-3.22148096 0-5.84241951-2.5831095-5.84241951-5.7580936 0-2.2849577 1.35734835-4.2635097 3.31932443-5.1931956l-.00388108-.004429-.46490967-.5638913c-.36093822.1834005-.70553518.4006225-1.03072683.6498541l-.00183839.0016105c-.96372755.7388366-1.68294856 1.7013373-2.10639222 2.7840248-.0602585.1546121-.11479756.31164-.16300436.4708824-.1754646.5791915-.26901848 1.1869702-.27351233 1.8086397 0 .0191252-.0006128.0380491-.00142987.056973.00571946 3.5647354 2.95021555 6.4635113 6.56878983 6.4635113 3.61285479 0 6.55367409-2.8895153 6.56878979-6.4463993-.000817-.0122804-.0014298-.0243595-.0014298-.0364385-.0057195-.1964863-.1644343-.3490852-.3617553-.3490852"/><path d="m10.7670013 10.4506501c.0224977-.0479409.0213929-.1003631-.0030131-.1477121-.0099433-.0191087-.0232009-.0364418-.0392708-.0515766l-.2820259.299398c.0090393.0028748.0180786.0057496.0270175.0087089.1176112.0389784.250991-.0098926.2972923-.1088182"/></g></g></g></svg>