<?xml version="1.0" encoding="UTF-8"?>
<svg width="27px" height="27px" viewBox="0 0 27 27" version="1.1" xmlns="http://www.w3.org/2000/svg" xmlns:xlink="http://www.w3.org/1999/xlink">
    <!-- Generator: Sketch 49.3 (51167) - http://www.bohemiancoding.com/sketch -->
    <desc>Created with Sketch.</desc>
    <defs></defs>
    <g id="Mariogogh_Index" stroke="none" stroke-width="1" fill="none" fill-rule="evenodd">
        <g id="Active">
            <g id="Group">
                <circle id="Oval-2" fill="#000000" cx="13.16" cy="13.16" r="13.16"></circle>
                <path d="M8.14052286,10.5693357 C8.15687315,10.4094536 8.0952685,10.2514279 7.9746405,10.1438213 L6.74588234,8.67883596 L6.74588234,8.45999998 L10.5611764,8.45999998 L13.510196,14.8609523 L16.1028758,8.45999998 L19.7399999,8.45999998 L19.7399999,8.67883596 L18.6894117,9.67575541 C18.5988395,9.74408358 18.5539111,9.85638578 18.5726797,9.96753672 L18.5726797,17.2924633 C18.5539111,17.4036142 18.5988395,17.5159163 18.6894117,17.5842445 L19.7154248,18.581164 L19.7154248,18.8 L14.5546405,18.8 L14.5546405,18.581164 L15.6175163,17.5599294 C15.7219607,17.4565902 15.7219607,17.4261963 15.7219607,17.2681481 L15.7219607,11.3474191 L12.7667974,18.7756848 L12.367451,18.7756848 L8.92692808,11.3474191 L8.92692808,16.3259376 C8.89824225,16.5352485 8.9684817,16.7459788 9.11738559,16.8973427 L10.4997385,18.5568489 L10.4997385,18.7756848 L6.57999998,18.7756848 L6.57999998,18.5568489 L7.96235292,16.8973427 C8.11017266,16.7457279 8.1763164,16.5335997 8.14052286,16.3259376 L8.14052286,10.5693357 Z" id="Shape" fill="#FFFFFF" fill-rule="nonzero"></path>
            </g>
        </g>
    </g>
</svg>