<?xml version="1.0" encoding="UTF-8"?>
<svg width="27px" height="27px" viewBox="0 0 27 27" version="1.1" xmlns="http://www.w3.org/2000/svg" xmlns:xlink="http://www.w3.org/1999/xlink">
    <!-- Generator: Sketch 49.3 (51167) - http://www.bohemiancoding.com/sketch -->
    <desc>Created with Sketch.</desc>
    <defs></defs>
    <g id="Mariogogh_Index" stroke="none" stroke-width="1" fill="none" fill-rule="evenodd">
        <g id="Hove">
            <g id="Group">
                <circle id="Oval-2" fill="#EF5350" cx="13.16" cy="13.16" r="13.16"></circle>
                <path d="M19,9.06875 C18.6882387,9.5281273 18.3113389,9.91952963 17.8692893,10.2429687 C17.8739425,10.3085941 17.876269,10.4070306 17.876269,10.5382812 C17.876269,11.1476593 17.7878604,11.7558563 17.6110406,12.3628906 C17.4342208,12.9699249 17.1655052,13.552341 16.8048858,14.1101562 C16.4442664,14.6679715 16.0150194,15.161326 15.517132,15.5902344 C15.0192445,16.0191428 14.4189967,16.3613268 13.7163706,16.6167969 C13.0137444,16.8722669 12.2622713,17 11.4619289,17 C10.2009243,17 9.04695955,16.6601596 8,15.9804688 C8.16286037,15.9992188 8.34433064,16.0085937 8.54441624,16.0085937 C9.59137579,16.0085937 10.5243191,15.6851595 11.3432741,15.0382813 C10.854693,15.0289062 10.4173031,14.8777358 10.0310914,14.5847656 C9.64487963,14.2917954 9.37965385,13.917971 9.23540609,13.4632813 C9.38896016,13.4867189 9.53087921,13.4984375 9.66116751,13.4984375 C9.86125312,13.4984375 10.0590092,13.4726565 10.2544416,13.4210938 C9.73328843,13.3132807 9.30171491,13.0519552 8.95970812,12.6371094 C8.61770134,12.2222636 8.44670051,11.7406277 8.44670051,11.1921875 L8.44670051,11.1640625 C8.76311495,11.3421884 9.10279006,11.4382812 9.46573604,11.4523438 C9.15862791,11.2460927 8.91434101,10.9765642 8.73286802,10.64375 C8.55139503,10.3109358 8.4606599,9.95000195 8.4606599,9.5609375 C8.4606599,9.14843544 8.56302774,8.76640801 8.7677665,8.41484375 C9.33079808,9.11328474 10.0159647,9.67226353 10.8232868,10.0917969 C11.6306089,10.5113302 12.4949193,10.744531 13.4162437,10.7914063 C13.3790184,10.6132804 13.3604061,10.4398446 13.3604061,10.2710938 C13.3604061,9.64296561 13.5802643,9.10742409 14.0199873,8.66445312 C14.4597103,8.22148216 14.9913251,8 15.6148477,8 C16.2662892,8 16.8153531,8.23906011 17.2620558,8.7171875 C17.7692496,8.61874951 18.2461907,8.43593884 18.6928934,8.16875 C18.5207267,8.7078152 18.1903578,9.12499852 17.7017766,9.4203125 C18.1345199,9.37343727 18.5672567,9.25625094 19,9.06875 Z" id="twitter---FontAwesome" fill="#FFFFFF"></path>
            </g>
        </g>
    </g>
</svg>