<?xml version="1.0" encoding="UTF-8"?>
<svg width="28px" height="28px" viewBox="0 0 28 28" version="1.1" xmlns="http://www.w3.org/2000/svg" xmlns:xlink="http://www.w3.org/1999/xlink">
    <!-- Generator: Sketch 49.3 (51167) - http://www.bohemiancoding.com/sketch -->
    <desc>Created with Sketch.</desc>
    <defs></defs>
    <g id="Mariogogh_Index" stroke="none" stroke-width="1" fill="none" fill-rule="evenodd">
        <g id="Hover">
            <g id="Group">
                <circle id="Oval-2" fill="#EF5350" cx="14" cy="14" r="14"></circle>
                <path d="M8.66013072,11.2439741 C8.67752465,11.0738868 8.61198779,10.9057744 8.48366013,10.7912992 L7.17647059,9.23280423 L7.17647059,9 L11.2352941,9 L14.372549,15.8095238 L17.130719,9 L21,9 L21,9.23280423 L19.882353,10.2933568 C19.7859995,10.3660464 19.7382033,10.4855168 19.75817,10.6037625 L19.75817,18.3962375 C19.7382033,18.5144832 19.7859995,18.6339536 19.882353,18.7066432 L20.9738562,19.7671958 L20.9738562,20 L15.4836602,20 L15.4836602,19.7671958 L16.6143791,18.680776 C16.7254902,18.5708407 16.7254902,18.5385068 16.7254902,18.3703704 L16.7254902,12.0717225 L13.5816993,19.9741329 L13.1568627,19.9741329 L9.49673202,12.0717225 L9.49673202,17.3680188 C9.46621518,17.59069 9.540938,17.8148712 9.6993464,17.9758966 L11.1699346,19.7413287 L11.1699346,19.9741329 L7,19.9741329 L7,19.7413287 L8.47058824,17.9758966 C8.62784328,17.8146042 8.69820896,17.5889359 8.66013072,17.3680188 L8.66013072,11.2439741 Z" id="Shape" fill="#FFFFFF" fill-rule="nonzero"></path>
            </g>
        </g>
    </g>
</svg>