<svg height="51.1" viewBox="0 0 34.3095703 51.1" width="34.30957" xmlns="http://www.w3.org/2000/svg"><g fill="none" transform="translate(1.4 2.1)"><g fill="#ef5350"><path d="m19.6496899 22.0079115c.2496242.0964687.5101191.1454938.7750428.1454938.876503 0 1.6503379-.5175309 1.9716283-1.3181421.2073492-.5171355.1972837-1.08211-.0281833-1.5917336-.1658793-.3744093-.4336214-.6855604-.7726271-.9049871l-2.5598556 3.1700248c-.0628087.0774913-.1284357.1526104-.196881.2245665.2737814.0802588.5439391.1715878.8108759.2747777zm-9.1833511-3.7709775c-1.17122048.479576-2.27681398 1.1141345-3.29383116 1.8910239-3.49232266 2.6690992-5.5134732 6.6804577-5.54447491 11.0053395-.00026841.0160781-.00120786.0495522-.00281834.1004223 0 7.7582187 6.42782238 14.0701977 14.32842731 14.0701977 7.8961762 0 14.3211802-6.3048624 14.3284274-14.0575461-.0354305-1.2042773-.964274-2.0922638-2.1181819-2.0922638h-12.2102455c-1.1675969 0-2.1177792.9326625-2.1177792 2.0796122 0 1.1469496.9501823 2.0800076 2.1177792 2.0800076h9.9338342l-.3571237 1.0500855c-1.3777643 4.0560346-5.2260027 6.7808802-9.5767105 6.7808802-5.5650085 0-10.09246619-4.445863-10.09246619-9.9109733 0-4.5668443 3.16217457-8.4224295 7.45007359-9.5662162-.0366384-.0403271-.0724715-.0814449-.1074994-.1237488zm-10.46649985 12.9967857c0-.0189775.00093945-.0562734.00281834-.1118879.03502791-4.8159232 2.28446377-9.2819498 6.17215891-12.2535022 1.3024745-.9955254 2.73781348-1.7811127 4.2661576-2.3354124l.545147-.1980772 3.4782309 4.2015284c.4082563.492623 1.0222513.7867734 1.6410776.7867734.6353338 0 1.2485235-.3016623 1.6575851-.806937l3.3316774-4.1264092.602319.2265433c.03382.0118609.0680427.0241172.1018627.0371642.9288435.3593854 1.6612086 1.0532484 2.0593994 1.9534912.3985935.9002428.4167113 1.8993265.0503275 2.8130116-.5672911 1.4150061-1.93499 2.329482-3.4838677 2.329482-.4694545 0-.9304539-.0865846-1.3705172-.2561956-.9848076-.3811305-2.0279951-.5740678-3.1005738-.5740678-4.6691798 0-8.46709075 3.7298596-8.46709075 8.3144952s3.79791095 8.3148907 8.46709075 8.3148907c3.2604138 0 6.1846402-1.8242075 7.595822-4.6391958h-7.595822c-2.0638282 0-3.7431546-1.648666-3.7431546-3.6756949 0-2.0266335 1.6793264-3.6756949 3.7431546-3.6756949h12.2102455c2.0404763 0 3.6831644 1.5699887 3.7387259 3.5736911.0028183.034792.0048314.0680025.0048314.1020038 0 8.638298-7.1569665 15.6662803-15.9538028 15.6662803-8.79683622 0-15.95380275-7.0279823-15.95380275-15.6662803z"/><path d="m26.046269 27.7045071h2.1177793c.7883292 0 1.5170707.2314829 2.1181818.6292586v-24.32911238c0-.87206187-.570512-1.65121832-1.4200394-1.93852249-.225467-.07611999-.4601942-.11515589-.6977398-.11515589-.6494255 0-1.2537575.28301023-1.657585.77603357l-10.4218091 12.71164849-10.70001926-12.73116644c-.40382749-.48053185-1.00252288-.75612526-1.64228547-.75612526-.2419744 0-.48113046.03981661-.70981841.11905947-.84187764.29042706-1.40755822 1.06763171-1.40755822 1.93422855v20.87447908c.99608096-1.9658476 2.42900422-3.7267568 4.2355585-5.1601549v-9.94794194l8.60317626 10.26136544c.4086589.4863872 1.0222512.7768143 1.6414802.7768143.6353338 0 1.2485235-.2978439 1.657585-.7967226l8.2830936-10.12903379zm4.231935 3.7674951c.0942885-2.2477537-.9602479-2.9309475-2.1141557-2.9309475h-3.7431547v-14.133726l-5.3850375 6.5849649c-.7146499.8724522-1.803736 1.3928007-2.9125504 1.3928007-1.1369979 0-2.1946796-.4949751-2.919395-1.3576684l-5.71760132-6.8195706v5.1847474l-.31364069.2369478c-3.49272528 2.6349229-5.5134732 6.5955047-5.54447491 10.8656411l-1.62537544.005465-.00281834-26.49600328c0-1.53137812.99970454-2.90544159 2.48818931-3.41915395.40463272-.13935814.82657809-.21001311 1.25456276-.21001311 1.13095854 0 2.1886403.48716796 2.90208229 1.33697937l9.42452024 11.21267017 9.1648306-11.17870894c.7142473-.87128115 1.7823971-1.3709406 2.9302657-1.3709406.4203349 0 .8350331.06831282 1.2332239.20298665 1.5013686.50785698 2.5099308 1.88504332 2.5099308 3.42618041v26.43198448c0 .0335708-.0020131 1.0014032-.0044288 1.0341934z"/><path d="m28.4477514 3.25070868c-.2838013-.09767129-.6034764-.00392255-.788027.22436938l-11.4110456 14.12742604-11.70401464-14.13409436c-.18614498-.22476164-.50582007-.31458784-.78762841-.2157398-.28061255.09806355-.4703449.3620506-.4703449.65663348v15.46893538c.0155453-.016867.03148919-.0333416.04703449-.0502086.05819521-.0627606.11718763-.1251291.17657864-.1871053.05301344-.0564845.10602689-.1125768.16063474-.1678847.05899241-.0607994.11918061-.1208143.17936882-.1804369.05580362-.0557001.11120866-.1114002.16820808-.1663158.06058681-.0588381.12276799-.1164994.18415199-.1745531.05779662-.0545233.11519464-.1090467.17378846-.1627855.06257978-.0568768.12595676-.1125769.18893515-.1686693.04623729-.0411866.0916774-.0835501.13871188-.1243445v-12.13869749l6.9264265 8.38521739 4.0772526 4.9361263c.1426978.1721996.3475769.276147.5476728.276147h.0175383c.1893337 0 .3950099-.1090466.5369106-.2847765l3.9369463-4.8863102 6.7590156-8.38874758v19.75666558h.7083075c.1080199 0 .2140468.0043148.3200737.0105909.0298948.001569.0597896.0043148.090083.006276.0825097.0062762.1646208.0145135.2467318.0247121.0167411.0023535.034678.003138.0518177.0054915v-21.78932668c0-.29654415-.1909282-.56092346-.4751281-.65859474"/><path d="m28.2141733 30.4145489h-5.1040393-7.0053488c-.3906255 0-.7083076.3117244-.7083076.6954152 0 .3832997.3176821.6954153.7083076.6954153h11.7829369l-.9650042 2.8383736c-1.5565228 4.577694-5.9036257 7.6530877-10.8179327 7.6530877-6.28627924 0-11.4006821-5.0184886-11.4006821-11.1868766 0-4.4392368 2.64867953-8.2831856 6.4772073-10.0893878l-.0075734-.0086047-.9072075-1.0955332c-.7043216.3563122-1.37675541.7783331-2.01132239 1.2625424l-.00358736.003129c-1.88058243 1.4354183-3.28404378 3.3053735-4.11033614 5.4088286-.11758622.3003819-.22401172.6054571-.3180807.9148348-.34239514 1.1252585-.52495274 2.3060564-.53372188 3.5138417 0 .0371566-.00119579.073922-.00279018.1106875.01116073 6.9256005 5.75694185 12.5573688 12.81809435 12.5573688 7.0499917 0 12.7885981-5.6137767 12.8180943-12.5241233-.0015944-.0238585-.0027902-.0473259-.0027902-.0707932-.0111607-.3817352-.3208709-.6782058-.705916-.6782058"/><path d="m21.6299208 20.7128733c.0868832-.1915904.0826166-.4010897-.0116362-.5903147-.0383993-.0763659-.0895983-.1456358-.1516578-.2061202l-1.0891435 1.1965108c.0349084.0114887.0698168.0229774.1043374.0348039.4541977.1557729.9692912-.0395345 1.1481001-.4348798"/></g><g fill="#000"><path d="m19.6496899 22.0079115c.2496242.0964687.5101191.1454938.7750428.1454938.876503 0 1.6503379-.5175309 1.9716283-1.3181421.2073492-.5171355.1972837-1.08211-.0281833-1.5917336-.1658793-.3744093-.4336214-.6855604-.7726271-.9049871l-2.5598556 3.1700248c-.0628087.0774913-.1284357.1526104-.196881.2245665.2737814.0802588.5439391.1715878.8108759.2747777zm-9.1833511-3.7709775c-1.17122048.479576-2.27681398 1.1141345-3.29383116 1.8910239-3.49232266 2.6690992-5.5134732 6.6804577-5.54447491 11.0053395-.00026841.0160781-.00120786.0495522-.00281834.1004223 0 7.7582187 6.42782238 14.0701977 14.32842731 14.0701977 7.8961762 0 14.3211802-6.3048624 14.3284274-14.0575461-.0354305-1.2042773-.964274-2.0922638-2.1181819-2.0922638h-12.2102455c-1.1675969 0-2.1177792.9326625-2.1177792 2.0796122 0 1.1469496.9501823 2.0800076 2.1177792 2.0800076h9.9338342l-.3571237 1.0500855c-1.3777643 4.0560346-5.2260027 6.7808802-9.5767105 6.7808802-5.5650085 0-10.09246619-4.445863-10.09246619-9.9109733 0-4.5668443 3.16217457-8.4224295 7.45007359-9.5662162-.0366384-.0403271-.0724715-.0814449-.1074994-.1237488zm-10.46649985 12.9967857c0-.0189775.00093945-.0562734.00281834-.1118879.03502791-4.8159232 2.28446377-9.2819498 6.17215891-12.2535022 1.3024745-.9955254 2.73781348-1.7811127 4.2661576-2.3354124l.545147-.1980772 3.4782309 4.2015284c.4082563.492623 1.0222513.7867734 1.6410776.7867734.6353338 0 1.2485235-.3016623 1.6575851-.806937l3.3316774-4.1264092.602319.2265433c.03382.0118609.0680427.0241172.1018627.0371642.9288435.3593854 1.6612086 1.0532484 2.0593994 1.9534912.3985935.9002428.4167113 1.8993265.0503275 2.8130116-.5672911 1.4150061-1.93499 2.329482-3.4838677 2.329482-.4694545 0-.9304539-.0865846-1.3705172-.2561956-.9848076-.3811305-2.0279951-.5740678-3.1005738-.5740678-4.6691798 0-8.46709075 3.7298596-8.46709075 8.3144952s3.79791095 8.3148907 8.46709075 8.3148907c3.2604138 0 6.1846402-1.8242075 7.595822-4.6391958h-7.595822c-2.0638282 0-3.7431546-1.648666-3.7431546-3.6756949 0-2.0266335 1.6793264-3.6756949 3.7431546-3.6756949h12.2102455c2.0404763 0 3.6831644 1.5699887 3.7387259 3.5736911.0028183.034792.0048314.0680025.0048314.1020038 0 8.638298-7.1569665 15.6662803-15.9538028 15.6662803-8.79683622 0-15.95380275-7.0279823-15.95380275-15.6662803z"/><path d="m26.046269 27.7045071h2.1177793c.7883292 0 1.5170707.2314829 2.1181818.6292586v-24.32911238c0-.87206187-.570512-1.65121832-1.4200394-1.93852249-.225467-.07611999-.4601942-.11515589-.6977398-.11515589-.6494255 0-1.2537575.28301023-1.657585.77603357l-10.4218091 12.71164849-10.70001926-12.73116644c-.40382749-.48053185-1.00252288-.75612526-1.64228547-.75612526-.2419744 0-.48113046.03981661-.70981841.11905947-.84187764.29042706-1.40755822 1.06763171-1.40755822 1.93422855v20.87447908c.99608096-1.9658476 2.42900422-3.7267568 4.2355585-5.1601549v-9.94794194l8.60317626 10.26136544c.4086589.4863872 1.0222512.7768143 1.6414802.7768143.6353338 0 1.2485235-.2978439 1.657585-.7967226l8.2830936-10.12903379zm4.231935 3.7674951c.0942885-2.2477537-.9602479-2.9309475-2.1141557-2.9309475h-3.7431547v-14.133726l-5.3850375 6.5849649c-.7146499.8724522-1.803736 1.3928007-2.9125504 1.3928007-1.1369979 0-2.1946796-.4949751-2.919395-1.3576684l-5.71760132-6.8195706v5.1847474l-.31364069.2369478c-3.49272528 2.6349229-5.5134732 6.5955047-5.54447491 10.8656411l-1.62537544.005465-.00281834-26.49600328c0-1.53137812.99970454-2.90544159 2.48818931-3.41915395.40463272-.13935814.82657809-.21001311 1.25456276-.21001311 1.13095854 0 2.1886403.48716796 2.90208229 1.33697937l9.42452024 11.21267017 9.1648306-11.17870894c.7142473-.87128115 1.7823971-1.3709406 2.9302657-1.3709406.4203349 0 .8350331.06831282 1.2332239.20298665 1.5013686.50785698 2.5099308 1.88504332 2.5099308 3.42618041v26.43198448c0 .0335708-.0020131 1.0014032-.0044288 1.0341934z"/><path d="m28.4477514 3.25070868c-.2838013-.09767129-.6034764-.00392255-.788027.22436938l-11.4110456 14.12742604-11.70401464-14.13409436c-.18614498-.22476164-.50582007-.31458784-.78762841-.2157398-.28061255.09806355-.4703449.3620506-.4703449.65663348v15.46893538c.0155453-.016867.03148919-.0333416.04703449-.0502086.05819521-.0627606.11718763-.1251291.17657864-.1871053.05301344-.0564845.10602689-.1125768.16063474-.1678847.05899241-.0607994.11918061-.1208143.17936882-.1804369.05580362-.0557001.11120866-.1114002.16820808-.1663158.06058681-.0588381.12276799-.1164994.18415199-.1745531.05779662-.0545233.11519464-.1090467.17378846-.1627855.06257978-.0568768.12595676-.1125769.18893515-.1686693.04623729-.0411866.0916774-.0835501.13871188-.1243445v-12.13869749l6.9264265 8.38521739 4.0772526 4.9361263c.1426978.1721996.3475769.276147.5476728.276147h.0175383c.1893337 0 .3950099-.1090466.5369106-.2847765l3.9369463-4.8863102 6.7590156-8.38874758v19.75666558h.7083075c.1080199 0 .2140468.0043148.3200737.0105909.0298948.001569.0597896.0043148.090083.006276.0825097.0062762.1646208.0145135.2467318.0247121.0167411.0023535.034678.003138.0518177.0054915v-21.78932668c0-.29654415-.1909282-.56092346-.4751281-.65859474"/><path d="m28.2141733 30.4145489h-5.1040393-7.0053488c-.3906255 0-.7083076.3117244-.7083076.6954152 0 .3832997.3176821.6954153.7083076.6954153h11.7829369l-.9650042 2.8383736c-1.5565228 4.577694-5.9036257 7.6530877-10.8179327 7.6530877-6.28627924 0-11.4006821-5.0184886-11.4006821-11.1868766 0-4.4392368 2.64867953-8.2831856 6.4772073-10.0893878l-.0075734-.0086047-.9072075-1.0955332c-.7043216.3563122-1.37675541.7783331-2.01132239 1.2625424l-.00358736.003129c-1.88058243 1.4354183-3.28404378 3.3053735-4.11033614 5.4088286-.11758622.3003819-.22401172.6054571-.3180807.9148348-.34239514 1.1252585-.52495274 2.3060564-.53372188 3.5138417 0 .0371566-.00119579.073922-.00279018.1106875.01116073 6.9256005 5.75694185 12.5573688 12.81809435 12.5573688 7.0499917 0 12.7885981-5.6137767 12.8180943-12.5241233-.0015944-.0238585-.0027902-.0473259-.0027902-.0707932-.0111607-.3817352-.3208709-.6782058-.705916-.6782058"/><path d="m21.6299208 20.7128733c.0868832-.1915904.0826166-.4010897-.0116362-.5903147-.0383993-.0763659-.0895983-.1456358-.1516578-.2061202l-1.0891435 1.1965108c.0349084.0114887.0698168.0229774.1043374.0348039.4541977.1557729.9692912-.0395345 1.1481001-.4348798"/></g></g></svg>