<svg height="150" viewBox="0 0 320 150" width="320" xmlns="http://www.w3.org/2000/svg"><g fill="none" fill-rule="evenodd"><path d="m12.304914 84.0661333h8.8798348c1.4376947 0 2.8330834-.2326237 4.1862078-.6978782 1.3531245-.4652545 2.5582329-1.2371425 3.6153614-2.315687 1.0571284-1.0785445 1.9028185-2.4848609 2.5370956-4.2189913s.9514109-3.8488919.9514109-6.3443478c0-2.2839767-.2219936-4.3458691-.6659876-6.1857391-.443994-1.8398701-1.1734017-3.4153674-2.188245-4.7265392-1.0148434-1.3111717-2.3573764-2.3156834-4.0276394-3.0135652-1.670263-.6978817-3.7316326-1.0468174-6.1841707-1.0468174h-7.1038678zm-9.95810051-36.9241043h19.53563661c2.9176746 0 5.634454.4652475 8.1504198 1.3957565s4.6936178 2.3262516 6.5330214 4.1872696c1.8394035 1.861018 3.2770767 4.1872556 4.3130626 6.9787826s1.5539711 6.0694072 1.5539711 9.8337391c0 3.2990774-.4228451 6.3443339-1.2685478 9.1358609-.8457028 2.791527-2.1248091 5.202355-3.8373572 7.2325565-1.7125482 2.0302015-3.8479157 3.6268464-6.4061666 4.7899826-2.5582509 1.1631363-5.5710219 1.7446957-9.0384033 1.7446957h-19.53563661zm65.09500351 25.3773913c-.4228514-2.2839766-1.1734014-4.018081-2.2516724-5.2023652-1.0782711-1.1842842-2.7167956-1.7764174-4.9156229-1.7764174-1.4376947 0-2.632232.2431975-3.5836476.7296-.9514156.4864024-1.7125367 1.0891094-2.2833861 1.8081391s-.9725522 1.4803438-1.2051204 2.2839652c-.2325683.8036214-.3699929 1.5226403-.4122781 2.1570783zm-14.6517275 5.709913c.1268554 2.9184146.8668343 5.0331761 2.2199587 6.3443479 1.3531245 1.3111717 3.2982117 1.9667478 5.8353201 1.9667478 1.8182609 0 3.3827876-.4546737 4.6936269-1.3640348s2.1142449-1.8715775 2.4102409-2.8866783h7.928424c-1.2685542 3.9335154-3.2136414 6.7461481-5.8353201 8.4379827-2.6216786 1.6918345-5.7930165 2.5377391-9.5141087 2.5377391-2.5793935 0-4.9050413-.4123785-6.9770131-1.2371478-2.0719718-.8247694-3.8267788-1.998462-5.2644735-3.5211131s-2.547663-3.3413459-3.329938-5.4561391c-.7822751-2.1147932-1.1734068-4.4410308-1.1734068-6.9787826 0-2.4531601.4017028-4.7371025 1.2051205-6.8518957.8034176-2.1147932 1.9450992-3.9440618 3.4250791-5.4878608 1.4799799-1.5437991 3.2453579-2.7597869 5.2961872-3.648 2.0508292-.8882132 4.3236214-1.3323131 6.8184446-1.3323131 2.7908192 0 5.2221782.5392642 7.29415 1.6178087s3.7739232 2.5271561 5.1059051 4.3458783c1.3319818 1.8187221 2.2939543 3.8911883 2.8859463 6.2174608.5919919 2.3262725.8034144 4.7582482.6342739 7.296zm32.937316 3.5528348c0 .9728049.2008514 1.8081357.6025602 2.5060174.4017088.6978818.919694 1.2688674 1.5539711 1.7129739.6342771.4441066 1.3636848.7718946 2.188245.9833739.8245602.2114794 1.6808214.3172174 2.5688094.3172174.634277 0 1.300258-.0740166 1.9979628-.2220521.6977048-.1480356 1.3319724-.3806593 1.9028217-.6978783.5708494-.317219 1.0465501-.7401713 1.4271163-1.2688696.3805663-.5286983.5708466-1.1948481.5708466-1.9984695 0-1.3534677-.8985458-2.3685532-2.6956642-3.045287s-4.3024753-1.3534575-7.5161459-2.0301913c-1.3108393-.296071-2.5899456-.6450067-3.8373572-1.0468174s-2.3573798-.9305011-3.329938-1.5860869c-.9725582-.6555859-1.7548216-1.4803429-2.3468135-2.4742957-.591992-.9939528-.8879835-2.2099406-.8879835-3.648 0-2.1147932.4122739-3.8488976 1.2368341-5.2023652.8245603-1.3534677 1.9133863-2.4214222 3.2665107-3.2038957 1.3531245-.7824734 2.8753666-1.3323114 4.5667722-1.6495304s3.4250703-.4758261 5.2010461-.4758261c1.7759759 0 3.4990694.1691809 5.1693324.5075478s3.1607922.9093525 4.4716312 1.7129739c1.310839.8036215 2.399665 1.871576 3.266511 3.2038957.866845 1.3323197 1.38483 3.0135551 1.553971 5.0437565h-8.5626982c-.1268554-1.7341304-.7822652-2.907823-1.9662491-3.521113s-2.5793726-.9199305-4.1862079-.9199305c-.5074216 0-1.0571202.0317215-1.6491121.0951653-.591992.0634438-1.1311194.2009032-1.6173985.4123826-.4862791.2114793-.898553.5181197-1.2368342.9199304-.3382811.4018107-.5074191.9410749-.5074191 1.6178087 0 .8036214.2959915 1.4591975.8879835 1.9667478.5919919.5075504 1.3636842.9199289 2.3150998 1.2371479.9514156.3172189 2.0402416.6027117 3.2665107.8564869 1.226269.2537752 2.4736619.5286942 3.7422161.8247652 1.3108393.2960711 2.5899455.6555805 3.837357 1.0785392 1.247412.4229586 2.35738.9833704 3.329938 1.6812521.972558.6978818 1.754822 1.564934 2.346814 2.6011826.591992 1.0362487.887983 2.3156794.887983 3.8383305 0 2.157089-.433416 3.9652101-1.300261 5.4244174-.866846 1.4592073-1.997956 2.6328999-3.393366 3.521113-1.395409.8882131-2.9916494 1.5120678-4.7887679 1.8715826-1.7971184.3595149-3.6259232.5392696-5.4864693.5392696-1.9028313 0-3.7633495-.1903286-5.5816105-.5709913-1.818261-.3806628-3.4356433-1.0150912-4.8521955-1.9033044-1.4165521-.8882131-2.579376-2.0619057-3.4885065-3.521113s-1.4059734-3.288476-1.4905437-5.4878609zm33.3178805-27.2172522h-9.00669v-7.4228869h9.00669zm-9.00669 5.0754783h9.00669v32.8002783h-9.00669zm28.370544 25.0601739c1.268554 0 2.389093-.2537714 3.361652-.7613217.972558-.5075504 1.775963-1.1842741 2.410241-2.0301913.634277-.8459173 1.109977-1.8081338 1.427116-2.8866783.317138-1.0785445.475705-2.2099419.475705-3.3942261 0-1.3534676-.126853-2.6328983-.380564-3.8383304s-.676556-2.2733867-1.268548-3.2038957-1.374255-1.6706755-2.346813-2.2205217c-.972559-.5498462-2.198809-.8247652-3.678789-.8247652-1.268554 0-2.35738.2537714-3.266511.7613217-.90913.5075504-1.670251 1.1948479-2.283386 2.0619131-.613134.8670652-1.057122 1.8610031-1.331975 2.9818434-.274853 1.1208404-.412278 2.294533-.412278 3.5211131 0 1.1842842.116282 2.3579768.348851 3.521113.232568 1.1631363.634271 2.2099432 1.20512 3.1404522s1.321399 1.6918231 2.251672 2.2839652 2.093097.8882087 3.488507.8882087zm16.237412 5.6464696c0 1.3111718-.179709 2.8126524-.539133 4.5044869-.359423 1.6918346-1.131116 3.2673319-2.315099 4.7265392-1.183984 1.4592072-2.896507 2.6963432-5.137619 3.7114432-2.241113 1.015101-5.243312 1.522644-9.00669 1.522644-1.606835 0-3.24536-.200903-4.915623-.602713-1.670263-.401811-3.192505-1.025666-4.566772-1.871583s-2.515948-1.935019-3.425079-3.2673391c-.90913-1.3323197-1.427116-2.9289646-1.553971-4.7899826h8.943262c.422852 1.6918346 1.247399 2.8655272 2.473668 3.5211131s2.6428.9833739 4.249636.9833739c2.537108 0 4.387055-.7613141 5.549896-2.2839652 1.162842-1.5226511 1.723111-3.447084 1.680826-5.7733565v-4.3141566h-.126854c-.972559 1.7341304-2.357376 3.0135611-4.154495 3.8383305-1.797118.8247693-3.68935 1.2371478-5.676751 1.2371478-2.452538 0-4.566764-.4335261-6.342739-1.3005913-1.775976-.8670652-3.234792-2.0513316-4.37649-3.5528348-1.141699-1.5015032-1.976818-3.2567552-2.505382-5.2658087-.528565-2.0090535-.792843-4.1343888-.792843-6.3760696 0-2.1147931.306563-4.155538.919697-6.1222956.613135-1.9667577 1.511681-3.7008621 2.695665-5.2023652 1.183983-1.5015032 2.65337-2.6963434 4.408203-3.5845565 1.754834-.8882132 3.773919-1.3323131 6.057316-1.3323131 2.156542 0 4.048774.4018047 5.676752 1.2054261s2.991653 2.1570687 4.091067 4.0603826h.126854v-4.3776h8.562698zm4.204708-30.7066435h8.562698v4.5679304h.190282c1.141699-1.9033138 2.621656-3.2884826 4.439917-4.1555478s3.678779-1.3005913 5.581611-1.3005913c2.410253 0 4.387053.327788 5.930461.9833739 1.543407.6555859 2.759087 1.5649333 3.647075 2.7280696.887988 1.1631362 1.511684 2.5800264 1.871108 4.250713.359423 1.6706866.539133 3.5211029.539133 5.5513044v20.1750261h-9.00669v-18.5254957c0-2.7069353-.422845-4.7265325-1.268548-6.0588522s-2.346803-1.9984695-4.503345-1.9984695c-2.452538 0-4.228487.7295927-5.3279 2.1888-1.099414 1.4592073-1.649113 3.8594615-1.649113 7.2008348v17.1931826h-9.006689zm56.65916 12.8790261c-.422851-2.2839766-1.173401-4.018081-2.251672-5.2023652s-2.716796-1.7764174-4.915623-1.7764174c-1.437695 0-2.632232.2431975-3.583648.7296-.951415.4864024-1.712536 1.0891094-2.283386 1.8081391-.570849.7190297-.972552 1.4803438-1.20512 2.2839652-.232569.8036214-.369993 1.5226403-.412278 2.1570783zm-14.651727 5.709913c.126855 2.9184146.866834 5.0331761 2.219958 6.3443479 1.353125 1.3111717 3.298212 1.9667478 5.83532 1.9667478 1.818261 0 3.382788-.4546737 4.693627-1.3640348 1.31084-.9093611 2.114245-1.8715775 2.410241-2.8866783h7.928424c-1.268554 3.9335154-3.213641 6.7461481-5.83532 8.4379827-2.621678 1.6918345-5.793016 2.5377391-9.514109 2.5377391-2.579393 0-4.905041-.4123785-6.977013-1.2371478-2.071971-.8247694-3.826778-1.998462-5.264473-3.5211131s-2.547663-3.3413459-3.329938-5.4561391-1.173407-4.4410308-1.173407-6.9787826c0-2.4531601.401703-4.7371025 1.20512-6.8518957.803418-2.1147932 1.9451-3.9440618 3.42508-5.4878608 1.47998-1.5437991 3.245358-2.7597869 5.296187-3.648 2.050829-.8882132 4.323621-1.3323131 6.818444-1.3323131 2.79082 0 5.222179.5392642 7.29415 1.6178087 2.071972 1.0785445 3.773924 2.5271561 5.105905 4.3458783 1.331982 1.8187221 2.293955 3.8911883 2.885947 6.2174608s.803414 4.7582482.634274 7.296zm25.960303-18.5889391h8.562697v6.0905739h.126855c.422852-1.0151007.993692-1.9561696 1.71254-2.8232348.718847-.8670652 1.543395-1.6072317 2.473668-2.2205217s1.923959-1.0891114 2.981087-1.4274783c1.057129-.3383669 2.156526-.5075478 3.298225-.5075478.591992 0 1.247402.1057381 1.966249.3172174v8.3745391c-.422851-.0845917-.930266-.1586083-1.522257-.2220521-.591992-.0634438-1.162833-.0951653-1.71254-.0951653-1.64912 0-3.044509.274919-4.186208.8247653-1.141699.5498462-2.061387 1.3005865-2.759091 2.2522434-.697705.951657-1.194548 2.0619067-1.490544 3.3307826-.295996 1.268876-.443992 2.6434709-.443992 4.1238261v14.7823305h-9.006689zm-199.4183628 84.9102838c-1.818261 1.776427-3.7527771 3.108726-5.8036064 3.996939-2.0508292.888214-4.3659059 1.332313-6.9452993 1.332313-2.0296867 0-3.9430606-.296066-5.74017898-.888208-1.79711841-.592142-3.35107397-1.469768-4.66191328-2.632905-1.31083932-1.163136-2.34680969-2.580026-3.10794219-4.250713-.76113251-1.670686-1.14169305-3.584545-1.14169305-5.741634 0-1.607243.27484928-3.077002.82455609-4.409322s1.30025677-2.537734 2.2516724-3.616278c.95141563-1.078545 2.04024163-2.040761 3.26651067-2.886679 1.22626904-.845917 2.49480418-1.586083 3.80564354-2.220521-1.22626908-1.480356-2.25166832-2.960689-3.07622854-4.441044-.82456021-1.480355-1.23683413-3.21446-1.23683413-5.202365 0-1.564947.32770491-2.981837.98312457-4.250713.65541965-1.268876 1.53282313-2.357978 2.63223675-3.267339 1.09941365-.909361 2.35737765-1.607233 3.77392975-2.093635 1.4165522-.486403 2.8859388-.7296 4.4082038-.7296 1.7336907 0 3.351073.232624 4.8521954.697878 1.5011225.465255 2.8119421 1.152552 3.9324983 2.061913s2.0085308 2.040759 2.6639505 3.394226c.6554196 1.353468.9831245 2.918391.9831245 4.694818 0 2.664639-.7716922 4.906286-2.3150998 6.725008-1.5434076 1.818723-3.4567814 3.341351-5.7401789 4.567931l5.83532 7.169113c.4651365-.845917.8245548-1.723543 1.0782657-2.632904.2537108-.909362.4439911-1.829283.5708465-2.759792h7.8015692c-.2114257 2.030202-.6765553 3.99693-1.3954027 5.900244-.7188473 1.903314-1.7125332 3.658566-2.9810874 5.265808l9.1969718 10.721948h-11.0363661zm-12.4951962-15.480208c-.8034176.338366-1.585681.740171-2.3468135 1.205426-.7611325.465254-1.4376845 1.015092-2.0296765 1.64953-.59199194.634438-1.06769262 1.332309-1.4271163 2.093635-.35942369.761325-.53913283 1.60723-.53913283 2.537739 0 .803621.17970914 1.575509.53913283 2.315687.35942368.740178.83512436 1.374606 1.4271163 1.903304.591992.528699 1.2791152.951651 2.0613902 1.26887.7822751.317219 1.5962518.475826 2.4419546.475826 1.6068353 0 3.0127951-.370083 4.2179216-1.110261 1.2051264-.740178 2.3362369-1.702394 3.3933654-2.886678zm7.2941501-15.480209c0-1.184284-.412274-2.19937-1.2368342-3.045287s-1.7865327-1.26887-2.8859463-1.26887-2.050815.370084-2.8542326 1.110261c-.8034177.740178-1.2051205 1.702394-1.2051205 2.886678 0 1.43806.3805606 2.664621 1.1416931 3.679722s1.5645381 2.051334 2.4102409 3.108731c1.2685541-.803622 2.3573801-1.670674 3.2665106-2.601183s1.363689-2.220513 1.363689-3.870052zm35.1757743-9.833739h9.9581005v45.298643h-9.9581005zm14.9873641 0h9.0066897v45.298643h-9.0066897zm13.338252 0h9.0066896v45.298643h-9.0066896zm43.8468275 45.298643h-8.562698v-4.56793h-.190282c-1.141699 1.903314-2.621657 3.277909-4.439918 4.123826s-3.678779 1.268869-5.58161 1.268869c-2.410253 0-4.387054-.317214-5.930461-.951652-1.543408-.634438-2.759087-1.533211-3.647075-2.696348-.887988-1.163136-1.5116846-2.580026-1.8711083-4.250713-.3594237-1.670686-.5391328-3.521103-.5391328-5.551304v-20.175026h9.0066891v18.525496c0 2.706935.422846 4.726532 1.268548 6.058852.845703 1.332319 2.346803 1.998469 4.503345 1.998469 2.452538 0 4.228487-.729592 5.327901-2.1888 1.099414-1.459207 1.649112-3.859461 1.649112-7.200834v-17.193183h9.00669zm10.801156-10.658504c0 .972805.200851 1.808136.60256 2.506017.401709.697882.919694 1.268868 1.553971 1.712974.634277.444107 1.363685.771895 2.188245.983374.824561.211479 1.680822.317217 2.56881.317217.634277 0 1.300258-.074016 1.997963-.222052.697704-.148035 1.331972-.380659 1.902821-.697878.57085-.317219 1.04655-.740171 1.427117-1.26887.380566-.528698.570846-1.194848.570846-1.998469 0-1.353468-.898546-2.368553-2.695664-3.045287s-4.302475-1.353458-7.516146-2.030191c-1.310839-.296071-2.589945-.645007-3.837357-1.046818-1.247412-.40181-2.35738-.930501-3.329938-1.586087s-1.754822-1.480343-2.346814-2.474295c-.591992-.993953-.887983-2.209941-.887983-3.648 0-2.114794.412274-3.848898 1.236834-5.202366.82456-1.353467 1.913386-2.421422 3.266511-3.203895 1.353124-.782474 2.875366-1.332312 4.566772-1.649531 1.691405-.317219 3.42507-.475826 5.201046-.475826s3.499069.169181 5.169332.507548 3.160792.909353 4.471632 1.712974c1.310839.803621 2.399665 1.871576 3.26651 3.203896.866846 1.332319 1.384831 3.013555 1.553971 5.043756h-8.562698c-.126855-1.73413-.782265-2.907823-1.966249-3.521113s-2.579372-.91993-4.186208-.91993c-.507421 0-1.05712.031721-1.649112.095165s-1.131119.200903-1.617398.412383c-.486279.211479-.898553.518119-1.236834.91993s-.507419.941075-.507419 1.617809c0 .803621.295991 1.459197.887983 1.966747.591992.507551 1.363684.919929 2.3151 1.237148.951415.317219 2.040241.602712 3.26651.856487s2.473662.528694 3.742217.824765c1.310839.296072 2.589945.655581 3.837357 1.07854 1.247411.422958 2.35738.98337 3.329938 1.681252s1.754821 1.564934 2.346813 2.601182c.591992 1.036249.887984 2.31568.887984 3.838331 0 2.157089-.433416 3.96521-1.300262 5.424417-.866845 1.459208-1.997956 2.6329-3.393365 3.521113-1.39541.888213-2.99165 1.512068-4.788768 1.871583-1.797119.359515-3.625924.539269-5.48647.539269-1.902831 0-3.763349-.190328-5.58161-.570991s-3.435643-1.015091-4.852196-1.903304c-1.416552-.888213-2.579376-2.061906-3.488506-3.521113-.909131-1.459208-1.405974-3.288476-1.490544-5.487861zm35.474412-22.141774h6.596448v6.02713h-6.596448v16.241531c0 1.522651.253707 2.537736.761128 3.045287.507422.50755 1.52225.761322 3.044515.761322.507422 0 .993694-.021148 1.45883-.063444.465137-.042296.909124-.105739 1.331975-.19033v6.978782c-.761132.126888-1.606822.211478-2.537095.253774s-1.83939.063444-2.727378.063444c-1.39541 0-2.7168-.095165-3.964212-.285496s-2.346809-.560415-3.298224-1.110261c-.951416-.549846-1.701966-1.332308-2.251673-2.347409-.549707-1.0151-.824556-2.3474-.824556-3.996939v-19.350261h-5.454756v-6.02713h5.454756v-9.833739h9.00669zm7.883496 0h8.562698v6.090574h.126855c.422851-1.015101.993692-1.95617 1.712539-2.823235.718848-.867065 1.543395-1.607232 2.473668-2.220522.930274-.61329 1.923959-1.089111 2.981088-1.427478 1.057128-.338367 2.156525-.507548 3.298224-.507548.591992 0 1.247402.105738 1.966249.317218v8.374539c-.422851-.084592-.930265-.158609-1.522257-.222052-.591992-.063444-1.162833-.095166-1.71254-.095166-1.64912 0-3.044509.274919-4.186207.824766-1.141699.549846-2.061387 1.300586-2.759092 2.252243s-1.194548 2.061907-1.490544 3.330783-.443991 2.643471-.443991 4.123826v14.78233h-9.00669zm21.266676 10.087513c.126855-2.114793.655412-3.870045 1.585685-5.265809.930273-1.395763 2.114239-2.516587 3.551934-3.362504 1.437694-.845917 3.055077-1.448624 4.852195-1.808139s3.604781-.53927 5.423042-.53927c1.64912 0 3.319358.116312 5.010764.348939 1.691406.232628 3.23479.687301 4.6302 1.364035 1.395409.676734 2.537091 1.617803 3.425079 2.823235s1.331975 2.802077 1.331975 4.789983v17.066295c0 1.480355.084569 2.897246.253709 4.250713.169141 1.353468.465133 2.368553.887984 3.045287h-9.133544c-.169141-.50755-.306566-1.025667-.412278-1.554365-.105713-.528698-.179711-1.067962-.221996-1.617809-1.437695 1.480356-3.129075 2.516589-5.074192 3.108731-1.945116.592142-3.932488.888208-5.962174.888208-1.564551 0-3.023366-.190328-4.376491-.570991-1.353124-.380663-2.53709-.972796-3.551933-1.776417-1.014844-.803622-1.807678-1.818707-2.378528-3.045287-.570849-1.22658-.856269-2.685766-.856269-4.3776 0-1.861018.327704-3.39422.983124-4.599652.65542-1.205433 1.50111-2.167649 2.537096-2.886679 1.035986-.719029 2.219952-1.258294 3.551934-1.617808 1.331982-.359515 2.674515-.645008 4.027639-.856487 1.353125-.21148 2.685086-.380661 3.995926-.507548 1.310839-.126888 2.473663-.317216 3.488506-.570991 1.014844-.253776 1.818249-.623859 2.410241-1.110261.591992-.486403.866841-1.194848.824556-2.125357 0-.972805-.158567-1.744693-.475705-2.315687-.317139-.570994-.739984-1.015094-1.268548-1.332313s-1.14169-.528695-1.839394-.634435c-.697705-.105739-1.448255-.158608-2.251673-.158608-1.775976 0-3.171364.380657-4.186208 1.141982-1.014843.761326-1.606826 2.030183-1.775967 3.806609zm20.804184 6.661565c-.380566.338367-.856267.602712-1.427116.793044-.570849.190331-1.183975.348938-1.839394.475826-.65542.126887-1.342543.232625-2.061391.317217-.718847.084592-1.437684.19033-2.156531.317218-.676562.126887-1.342543.296068-1.997963.507547-.655419.21148-1.22626.496973-1.712539.856487-.486279.359515-.877411.814189-1.173407 1.364035s-.443992 1.247718-.443992 2.093635c0 .803621.147996 1.480345.443992 2.030191s.697699.983373 1.20512 1.300592c.507422.317218 1.099405.539268 1.775967.666156.676563.126888 1.374257.19033 2.093104.19033 1.775976 0 3.150223-.296066 4.122781-.888208s1.691394-1.300587 2.156531-2.125357c.465137-.824769.750557-1.6601.85627-2.506017s.158568-1.522641.158568-2.030191zm24.374618-16.749078h6.596449v6.02713h-6.596449v16.241531c0 1.522651.253707 2.537736.761129 3.045287.507422.50755 1.52225.761322 3.044515.761322.507422 0 .993693-.021148 1.45883-.063444.465136-.042296.909124-.105739 1.331975-.19033v6.978782c-.761132.126888-1.606823.211478-2.537096.253774s-1.839389.063444-2.727377.063444c-1.39541 0-2.716801-.095165-3.964212-.285496-1.247412-.190331-2.346809-.560415-3.298225-1.110261-.951415-.549846-1.701965-1.332308-2.251672-2.347409-.549707-1.0151-.824556-2.3474-.824556-3.996939v-19.350261h-5.454756v-6.02713h5.454756v-9.833739h9.006689zm15.875348 16.431861c0 1.311172.126853 2.590602.380564 3.83833s.687127 2.368552 1.300262 3.362505c.613134.993952 1.427111 1.786988 2.441954 2.37913 1.014844.592142 2.283379.888209 3.805644.888209s2.801371-.296067 3.837357-.888209 1.860534-1.385178 2.473668-2.37913c.613135-.993953 1.046551-2.114777 1.300262-3.362505s.380564-2.527158.380564-3.83833-.126853-2.601176-.380564-3.870052-.687127-2.3897-1.300262-3.362505c-.613134-.972805-1.437682-1.76584-2.473668-2.37913s-2.315092-.919931-3.837357-.919931-2.7908.306641-3.805644.919931c-1.014843.61329-1.82882 1.406325-2.441954 2.37913-.613135.972805-1.046551 2.093629-1.300262 3.362505s-.380564 2.55888-.380564 3.870052zm-9.00669 0c0-2.622344.401703-5.00145 1.205121-7.137391.803417-2.135942 1.945099-3.954636 3.425079-5.45614 1.47998-1.501503 3.255929-2.664622 5.327901-3.489391s4.397619-1.237148 6.977013-1.237148c2.579393 0 4.915612.412379 7.008727 1.237148 2.093114.824769 3.879634 1.987888 5.359614 3.489391 1.47998 1.501504 2.621662 3.320198 3.425079 5.45614.803418 2.135941 1.205121 4.515047 1.205121 7.137391 0 2.622343-.401703 4.990876-1.205121 7.105669-.803417 2.114794-1.945099 3.922915-3.425079 5.424418s-3.2665 2.654048-5.359614 3.457669c-2.093115.803622-4.429334 1.205426-7.008727 1.205426-2.579394 0-4.905041-.401804-6.977013-1.205426-2.071972-.803621-3.847921-1.956166-5.327901-3.457669s-2.621662-3.309624-3.425079-5.424418c-.803418-2.114793-1.205121-4.483326-1.205121-7.105669zm36.74296-16.431861h8.562698v6.090574h.126854c.422852-1.015101.993693-1.95617 1.71254-2.823235s1.543395-1.607232 2.473668-2.220522 1.923959-1.089111 2.981088-1.427478c1.057128-.338367 2.156525-.507548 3.298224-.507548.591992 0 1.247402.105738 1.966249.317218v8.374539c-.422851-.084592-.930265-.158609-1.522257-.222052-.591992-.063444-1.162833-.095166-1.71254-.095166-1.64912 0-3.044509.274919-4.186208.824766-1.141698.549846-2.061386 1.300586-2.759091 2.252243s-1.194548 2.061907-1.490544 3.330783-.443992 2.643471-.443992 4.123826v14.78233h-9.006689zm16.105271 23.408881h9.958101v9.770296h-9.958101z" fill="#ef5350"/><g fill-rule="nonzero" transform="translate(1.767855 .672998)"><g fill="#fff"><path d="m10.7410399 12.0830736c.1364512.0529645.2788446.0798809.4236589.0798809.4791196 0 .9021183-.2841416 1.0777441-.7237037.1133425-.2839245.1078405-.5941143-.0154058-.8739146-.090674-.2055631-.2370288-.3763953-.4223383-.4968679l-1.3992848 1.7404488c-.0343328.0425453-.0702063.0837881-.1076203.1232945.1496561.0440647.2973315.0942073.4432462.150862zm-5.01986246-2.0703917c-.64022008.2633031-1.24456671.6116968-1.80049518 1.0382348-1.90899588 1.465424-3.01381018 3.6677929-3.03075654 6.0422965-.00014672.0088275-.00066024.0272059-.00154058.0551352 0 4.2595195 3.51361761 7.7250054 7.83229712 7.7250054 4.31625864 0 7.82833564-3.4615786 7.83229714-7.7180592-.0193673-.6611882-.5270977-1.1487223-1.1578542-1.1487223h-6.67444294c-.63823934 0-1.15763412.5120627-1.15763412 1.1417761s.51939478 1.1419932 1.15763412 1.1419932h5.43009624l-.1952132.5765318c-.7531224 2.2268976-2.8566712 3.7229282-5.23488304 3.7229282-3.04198075 0-5.51680881-2.4409263-5.51680881-5.4414532 0-2.507349 1.7285282-4.6241932 4.07240716-5.2521701-.02002752-.0221409-.03961486-.0447159-.05876204-.0679422zm-5.72126547 7.1356665c0-.0104192.00051352-.0308959.00154057-.0614301.01914718-2.6441017 1.24874829-5.0960985 3.3738652-6.7275793.71196699-.54657648 1.49656121-.97789 2.3319945-1.28221892l.29799175-.10875091 1.90129298 2.30677843c.22316369.2704664.55878955.4319648.8970564.4319648.34729023 0 .68247593-.1656227.90607978-.4430352l1.82118295-2.26553562.3292435.12437979c.0184869.00651203.0371939.01324113.0556808.02040436.5077304.19731454.9080606.57826836 1.1257222 1.07253147.2178817.4942632.2277854 1.0427933.0275103 1.5444367-.3100963.7768853-1.0577166 1.2789629-1.9043741 1.2789629-.2566163 0-.5086108-.0475378-.749161-.1406598-.53832184-.2092533-1.10855568-.3151823-1.69485554-.3151823-2.55229712 0-4.62833563 2.0478167-4.62833563 4.5649337 0 2.5171171 2.07603851 4.5651509 4.62833563 4.5651509 1.78222834 0 3.38068774-1.0015504 4.15207704-2.5470724h-4.15207704c-1.12814306 0-2.04610729-.9051724-2.04610729-2.0180785 0-1.112689.91796423-2.0180784 2.04610729-2.0180784h6.67444294c1.1153782 0 2.013315.8619759 2.0436864 1.962075.0015405.0191019.0026409.0373356.0026409.0560034 0 4.7427123-3.912187 8.6013077-8.72077024 8.6013077-4.80858322 0-8.72077029-3.8585954-8.72077029-8.6013077z"/><path d="m14.2375791 15.2106936h1.1576341c.4309216 0 .829271.1270918 1.1578542.3454839v-13.35748995c0-.47879091-.3118569-.90657365-.7762311-1.06431317-.1232462-.0417924-.2515543-.06322441-.381403-.06322441-.3549931 0-.685337.15538201-.9060798.42606818l-5.69683631 6.97911679-5.84891334-6.98983279c-.22074278-.26382793-.5480055-.41513786-.89771664-.41513786-.1322696 0-.26299863.02186064-.3880055.06536761-.46019258.15945409-.76940853.58616522-.76940853 1.06195565v11.46078165c.54448418-1.0793156 1.32775791-2.0461132 2.31526822-2.8330963v-5.46175018l4.70272352 5.63383008c.22338377.2670427.55878955.4264968.89727648.4264968.34729024 0 .68247593-.1635261.90607978-.4374271l4.52775792-5.56117563zm2.3132875 2.0684798c.0515406-1.2340913-.5248969-1.6091874-1.1556534-1.6091874h-2.0461073v-7.75988452l-2.9436038 3.61536422c-.3906465.4790052-.98596978.7646938-1.59207707.7646938-.62151306 0-1.19966987-.2717578-1.59581843-.745405l-3.12539202-3.74417054v2.84659834l-.17144429.1300922c-1.90921596 1.4466601-3.01381018 3.6211509-3.03075653 5.9655975l-.88847318.0030005-.00154058-14.54718495c0-.8407774.54646492-1.59518384 1.36011004-1.87722897.22118294-.07651224.45182944-.11530416.68577717-.11530416.61821183 0 1.19636864.26747137 1.58635488.73404603l5.15169189 6.15612795 5.00973862-6.13748211c.3904264-.47836226.9743054-.75269187 1.6017607-.75269187.2297661 0 .4564512.037506.6741128.1114464.8206877.27883033 1.3719945 1.03495133 1.3719945 1.88108673v14.51203645c0 .0184315-.0011004.5498036-.0024209.5678065z"/><path d="m15.5502928 1.78474692c-.1551333-.05362478-.3298761-.00215361-.4307564.12318623l-6.2375791 7.75642567-6.39772375-7.76008679c-.10175176-.1234016-.27649462-.17271917-.43053851-.11844831-.15339023.05384014-.25710295.19877779-.25710295.36051357v8.49295871c.00849747-.0092605.01721282-.0183056.0257103-.0275661.03181104-.0344577.06405785-.0687.09652255-.102727.02897855-.0310119.0579571-.0618085.08780719-.0921743.03224681-.0333809.06514728-.0663311.09804774-.0990659.03050374-.0305812.06078959-.0611624.09194698-.0913128.03311835-.0323041.06710823-.0639621.10066235-.0958355.03159316-.0299351.06296843-.0598702.09499736-.0893746.03420777-.0312273.0688513-.06180851.10327695-.09260506.02527453-.02261285.05011329-.04587181.07582358-.06826929v-6.66454766l3.78616781 4.60376254 2.228734 2.71009717c.07800243.0945433.18999475.1516138.29937243.1516138h.0095869c.10349485 0 .21592289-.0598702.29348956-.1563517l2.15203891-2.68274641 3.6946566-4.60570079v10.8470649h.3871796c.0590465 0 .1170036.002369.1749607.0058148.0163413.0008614.0326826.0023689.0492418.0034457.0451019.0034458.089986.0079684.1348701.0135678.0091511.0012921.0189559.0017228.0283249.003015v-11.96306331c0-.16281258-.1043664-.30796559-.2597176-.36159037"/><path d="m15.4226129 16.6985965h-2.7900028-3.82930886c-.21352619 0-.38717961.171147-.38717961.381806 0 .2104443.17365342.3818061.38717961.3818061h6.44086476l-.5274968 1.5583613c-.8508365 2.5133059-3.2270779 4.2017991-5.91336796 4.2017991-3.43624636 0-6.23191415-2.7553168-6.23191415-6.1419665 0-2.4372883 1.44783824-4.5477437 3.54061273-5.5394087l-.00413981-.0047242-.49590365-.6014841c-.38500078.1956272-.75257087.4273307-1.09944196.6931777l-.00196094.0017179c-1.02797607.7880923-1.79514514 1.8147597-2.24681838 2.9696264-.06427573.1649196-.12245073.332416-.17387132.5022746-.18716223.6178043-.28695304 1.2661015-.29174648 1.9292157 0 .0204002-.00065366.0405857-.00152519.0607711.00610075 3.8023845 3.14689658 6.8944121 7.00670915 6.8944121 3.85371176 0 6.99058576-3.0821496 7.00670916-6.8761592-.0008715-.0130991-.0015252-.0259835-.0015252-.0388678-.0061007-.2095853-.1753965-.3723575-.3858723-.3723575"/><path d="m11.5078634 11.1615317c.0255974-.0545461.0243404-.1141908-.0034283-.1680635-.0113132-.0217415-.0263974-.0414627-.0446813-.0586827l-.3208828.3406484c.0102847.0032708.0205694.0065417.0307398.0099087.1338155.0443488.285572-.0112555.3382526-.1238109"/></g><g fill="#ef5350"><path d="m10.7410399 12.0830736c.1364512.0529645.2788446.0798809.4236589.0798809.4791196 0 .9021183-.2841416 1.0777441-.7237037.1133425-.2839245.1078405-.5941143-.0154058-.8739146-.090674-.2055631-.2370288-.3763953-.4223383-.4968679l-1.3992848 1.7404488c-.0343328.0425453-.0702063.0837881-.1076203.1232945.1496561.0440647.2973315.0942073.4432462.150862zm-5.01986246-2.0703917c-.64022008.2633031-1.24456671.6116968-1.80049518 1.0382348-1.90899588 1.465424-3.01381018 3.6677929-3.03075654 6.0422965-.00014672.0088275-.00066024.0272059-.00154058.0551352 0 4.2595195 3.51361761 7.7250054 7.83229712 7.7250054 4.31625864 0 7.82833564-3.4615786 7.83229714-7.7180592-.0193673-.6611882-.5270977-1.1487223-1.1578542-1.1487223h-6.67444294c-.63823934 0-1.15763412.5120627-1.15763412 1.1417761s.51939478 1.1419932 1.15763412 1.1419932h5.43009624l-.1952132.5765318c-.7531224 2.2268976-2.8566712 3.7229282-5.23488304 3.7229282-3.04198075 0-5.51680881-2.4409263-5.51680881-5.4414532 0-2.507349 1.7285282-4.6241932 4.07240716-5.2521701-.02002752-.0221409-.03961486-.0447159-.05876204-.0679422zm-5.72126547 7.1356665c0-.0104192.00051352-.0308959.00154057-.0614301.01914718-2.6441017 1.24874829-5.0960985 3.3738652-6.7275793.71196699-.54657648 1.49656121-.97789 2.3319945-1.28221892l.29799175-.10875091 1.90129298 2.30677843c.22316369.2704664.55878955.4319648.8970564.4319648.34729023 0 .68247593-.1656227.90607978-.4430352l1.82118295-2.26553562.3292435.12437979c.0184869.00651203.0371939.01324113.0556808.02040436.5077304.19731454.9080606.57826836 1.1257222 1.07253147.2178817.4942632.2277854 1.0427933.0275103 1.5444367-.3100963.7768853-1.0577166 1.2789629-1.9043741 1.2789629-.2566163 0-.5086108-.0475378-.749161-.1406598-.53832184-.2092533-1.10855568-.3151823-1.69485554-.3151823-2.55229712 0-4.62833563 2.0478167-4.62833563 4.5649337 0 2.5171171 2.07603851 4.5651509 4.62833563 4.5651509 1.78222834 0 3.38068774-1.0015504 4.15207704-2.5470724h-4.15207704c-1.12814306 0-2.04610729-.9051724-2.04610729-2.0180785 0-1.112689.91796423-2.0180784 2.04610729-2.0180784h6.67444294c1.1153782 0 2.013315.8619759 2.0436864 1.962075.0015405.0191019.0026409.0373356.0026409.0560034 0 4.7427123-3.912187 8.6013077-8.72077024 8.6013077-4.80858322 0-8.72077029-3.8585954-8.72077029-8.6013077z"/><path d="m14.2375791 15.2106936h1.1576341c.4309216 0 .829271.1270918 1.1578542.3454839v-13.35748995c0-.47879091-.3118569-.90657365-.7762311-1.06431317-.1232462-.0417924-.2515543-.06322441-.381403-.06322441-.3549931 0-.685337.15538201-.9060798.42606818l-5.69683631 6.97911679-5.84891334-6.98983279c-.22074278-.26382793-.5480055-.41513786-.89771664-.41513786-.1322696 0-.26299863.02186064-.3880055.06536761-.46019258.15945409-.76940853.58616522-.76940853 1.06195565v11.46078165c.54448418-1.0793156 1.32775791-2.0461132 2.31526822-2.8330963v-5.46175018l4.70272352 5.63383008c.22338377.2670427.55878955.4264968.89727648.4264968.34729024 0 .68247593-.1635261.90607978-.4374271l4.52775792-5.56117563zm2.3132875 2.0684798c.0515406-1.2340913-.5248969-1.6091874-1.1556534-1.6091874h-2.0461073v-7.75988452l-2.9436038 3.61536422c-.3906465.4790052-.98596978.7646938-1.59207707.7646938-.62151306 0-1.19966987-.2717578-1.59581843-.745405l-3.12539202-3.74417054v2.84659834l-.17144429.1300922c-1.90921596 1.4466601-3.01381018 3.6211509-3.03075653 5.9655975l-.88847318.0030005-.00154058-14.54718495c0-.8407774.54646492-1.59518384 1.36011004-1.87722897.22118294-.07651224.45182944-.11530416.68577717-.11530416.61821183 0 1.19636864.26747137 1.58635488.73404603l5.15169189 6.15612795 5.00973862-6.13748211c.3904264-.47836226.9743054-.75269187 1.6017607-.75269187.2297661 0 .4564512.037506.6741128.1114464.8206877.27883033 1.3719945 1.03495133 1.3719945 1.88108673v14.51203645c0 .0184315-.0011004.5498036-.0024209.5678065z"/><path d="m15.5502928 1.78474692c-.1551333-.05362478-.3298761-.00215361-.4307564.12318623l-6.2375791 7.75642567-6.39772375-7.76008679c-.10175176-.1234016-.27649462-.17271917-.43053851-.11844831-.15339023.05384014-.25710295.19877779-.25710295.36051357v8.49295871c.00849747-.0092605.01721282-.0183056.0257103-.0275661.03181104-.0344577.06405785-.0687.09652255-.102727.02897855-.0310119.0579571-.0618085.08780719-.0921743.03224681-.0333809.06514728-.0663311.09804774-.0990659.03050374-.0305812.06078959-.0611624.09194698-.0913128.03311835-.0323041.06710823-.0639621.10066235-.0958355.03159316-.0299351.06296843-.0598702.09499736-.0893746.03420777-.0312273.0688513-.06180851.10327695-.09260506.02527453-.02261285.05011329-.04587181.07582358-.06826929v-6.66454766l3.78616781 4.60376254 2.228734 2.71009717c.07800243.0945433.18999475.1516138.29937243.1516138h.0095869c.10349485 0 .21592289-.0598702.29348956-.1563517l2.15203891-2.68274641 3.6946566-4.60570079v10.8470649h.3871796c.0590465 0 .1170036.002369.1749607.0058148.0163413.0008614.0326826.0023689.0492418.0034457.0451019.0034458.089986.0079684.1348701.0135678.0091511.0012921.0189559.0017228.0283249.003015v-11.96306331c0-.16281258-.1043664-.30796559-.2597176-.36159037"/><path d="m15.4226129 16.6985965h-2.7900028-3.82930886c-.21352619 0-.38717961.171147-.38717961.381806 0 .2104443.17365342.3818061.38717961.3818061h6.44086476l-.5274968 1.5583613c-.8508365 2.5133059-3.2270779 4.2017991-5.91336796 4.2017991-3.43624636 0-6.23191415-2.7553168-6.23191415-6.1419665 0-2.4372883 1.44783824-4.5477437 3.54061273-5.5394087l-.00413981-.0047242-.49590365-.6014841c-.38500078.1956272-.75257087.4273307-1.09944196.6931777l-.00196094.0017179c-1.02797607.7880923-1.79514514 1.8147597-2.24681838 2.9696264-.06427573.1649196-.12245073.332416-.17387132.5022746-.18716223.6178043-.28695304 1.2661015-.29174648 1.9292157 0 .0204002-.00065366.0405857-.00152519.0607711.00610075 3.8023845 3.14689658 6.8944121 7.00670915 6.8944121 3.85371176 0 6.99058576-3.0821496 7.00670916-6.8761592-.0008715-.0130991-.0015252-.0259835-.0015252-.0388678-.0061007-.2095853-.1753965-.3723575-.3858723-.3723575"/><path d="m11.5078634 11.1615317c.0255974-.0545461.0243404-.1141908-.0034283-.1680635-.0113132-.0217415-.0263974-.0414627-.0446813-.0586827l-.3208828.3406484c.0102847.0032708.0205694.0065417.0307398.0099087.1338155.0443488.285572-.0112555.3382526-.1238109"/></g></g></g></svg>