<svg height="109" viewBox="0 0 1116.00001 109" width="1116.00001" xmlns="http://www.w3.org/2000/svg"><path d="m0 1.99652761h16.6768776v31.59211329h.3523284c2.113981-3.5233016 4.8151384-6.0874438 8.1035533-7.6925034 3.2884148-1.6050597 6.4984859-2.4075774 9.6303096-2.4075774 4.4628487 0 8.1231127.6067817 10.9809018 1.8203634 2.8577891 1.2135816 5.1087536 2.8969116 6.752961 5.0500404 1.6442075 2.1531288 2.7990501 4.7759917 3.4645627 7.8686676.6655125 3.0926759.9982638 6.5180566.9982638 10.276245v37.3468105h-16.6768777v-34.2932977c0-5.0109178-.7829442-8.7494762-2.348856-11.2157874-1.5659118-2.4663111-4.3453636-3.6994482-8.3384388-3.6994482-4.5411443 0-7.8295099 1.3505787-9.8651952 4.0517766-2.0356854 2.7011979-3.0535129 7.1444061-3.0535129 13.3297579v31.8269988h-16.6768776zm103.907506 46.97712009c-.782956-4.2279619-2.172681-7.438033-4.169219-9.6303096-1.9965376-2.1922766-5.0304463-3.2883984-9.101817-3.2883984-2.6620502 0-4.8738674.4501929-6.6355183 1.3505922-1.7616508.9003993-3.1709503 2.0160948-4.2279408 3.3471198-1.0569905 1.3310251-1.8007874 2.7403246-2.2314132 4.2279408-.4306257 1.4876163-.6850826 2.8186214-.7633782 3.9930552zm-27.1292865 10.5698521c.2348868 5.4023958 1.6050391 9.3171167 4.110498 11.74428 2.505459 2.4271633 6.1070022 3.6407268 10.8047377 3.6407268 3.3667104 0 6.2636038-.841665 8.6907668-2.5250202 2.427164-1.6833552 3.914758-3.4645532 4.462827-5.3436474h14.68035c-2.348868 7.28149-5.950411 12.4880688-10.804738 15.6198924-4.854326 3.1318237-10.7264078 4.697712-17.6164198 4.697712-4.7760311 0-9.0822241-.7633705-12.9187081-2.2901346-3.836484-1.526764-7.0857023-3.6994341-9.7477524-6.5180754s-4.7172786-6.1853012-6.165747-10.1000808c-1.4484685-3.9147796-2.1726918-8.2209725-2.1726918-12.918708 0-4.5411444.7437969-8.7690429 2.2314132-12.6838225 1.4876162-3.9147796 3.6015655-7.3010131 6.3419112-10.1588022s6.0091376-5.1087536 9.8064738-6.752961c3.7973362-1.6442075 8.0056611-2.4662988 12.6251011-2.4662988 5.167509 0 9.6694378.9982538 13.5059218 2.9947914s6.987834 4.6781214 9.454146 8.0448318c2.466311 3.3667104 4.247509 7.2031369 5.343647 11.5093944 1.096138 4.3062576 1.48761 8.8081866 1.174428 13.5059221zm47.5349625-57.54697219h16.676877v83.85415939h-16.676877zm23.694074 0h16.676877v83.85415939h-16.676877zm38.022095 53.55391699c0 2.4271633.234883 4.7955694.704657 7.1052894.469773 2.3097199 1.272291 4.384522 2.407577 6.2244684s2.642454 3.3079667 4.521548 4.404105 4.227927 1.6441992 7.046568 1.6441992 5.187047-.5480609 7.105289-1.6441992 3.444984-2.5641586 4.58027-4.404105 1.937803-3.9147485 2.407577-6.2244684c.469774-2.30972.704657-4.6781261.704657-7.1052894 0-2.4271634-.234883-4.8151431-.704657-7.1640109-.469774-2.3488677-1.272291-4.4236698-2.407577-6.2244684s-2.662028-3.2688189-4.58027-4.404105-4.286648-1.7029206-7.105289-1.7029206-5.167474.5676345-7.046568 1.7029206-3.386262 2.6033064-4.521548 4.404105-1.937804 3.8756007-2.407577 6.2244684c-.469774 2.3488678-.704657 4.7368475-.704657 7.1640109zm-16.676878 0c0-4.8543267.743797-9.2583877 2.231413-13.2123151 1.487617-3.9539274 3.601566-7.3205873 6.341912-10.1000808 2.740345-2.7794935 6.028711-4.93259 9.865195-6.459354 3.836484-1.5267641 8.142677-2.2901346 12.918708-2.2901346s9.101798.7633705 12.977429 2.2901346c3.875632 1.526764 7.183571 3.6798605 9.923917 6.459354s4.854295 6.1461534 6.341911 10.1000808 2.231413 8.3579884 2.231413 13.2123151c0 4.8543266-.743797 9.238814-2.231413 13.1535936s-3.601565 7.2618659-6.341911 10.0413594-6.048285 4.9130164-9.923917 6.4006326c-3.875631 1.4876163-8.201398 2.2314132-12.977429 2.2314132s-9.082224-.7437969-12.918708-2.2314132c-3.836484-1.4876162-7.12485-3.6211391-9.865195-6.4006326-2.740346-2.7794935-4.854295-6.1265798-6.341912-10.0413594-1.487616-3.9147796-2.231413-8.299267-2.231413-13.1535936zm126.339082-3.4058413c-.234887.782956-.450197 1.624621-.645936 2.5250203s-.293607 1.7420642-.293607 2.5250202c0 .7829559.156589 1.4288848.469771 1.9378062.313183.5089213.822096.7633782 1.526757.7633782 1.644207 0 3.307964-.5284873 4.991319-1.5854778s3.170949-2.5445844 4.462826-4.4628264 2.348852-4.2083537 3.170956-6.8704039c.822103-2.6620501 1.233149-5.5589435 1.233149-8.6907672 0-4.6977355-.822091-8.827766-2.466299-12.3902154-1.644207-3.5624494-3.895172-6.5767845-6.752961-9.0430957-2.857789-2.4663111-6.224449-4.3258035-10.10008-5.578533-3.875632-1.2527294-8.04481-1.87908477-12.507659-1.87908477-5.010918 0-9.571567.88081217-13.682086 2.64246297s-7.614194 4.1887778-10.511131 7.2814537c-2.896936 3.0926758-5.128327 6.7725134-6.694239 11.0396232-1.565912 4.2671097-2.348856 8.8669067-2.348856 13.799529 0 5.1675091.861238 9.8456005 2.583741 14.0344147 1.722503 4.1888141 4.110483 7.7903573 7.164011 10.8047376s6.713792 5.3436392 10.980902 6.9878466 8.906054 2.4662988 13.916972 2.4662988c4.932622 0 9.610714-.841665 14.034415-2.5250202 4.4237-1.6833552 8.162259-4.0517613 11.215787-7.1052894h9.865195c-3.993075 6.1070561-9.121359 10.7851476-15.385007 14.0344146-6.263647 3.2492671-13.075261 4.8738763-20.435047 4.8738763-6.263647 0-12.135729-1.0961219-17.61642-3.2883985-5.480691-2.1922765-10.276224-5.2457588-14.386743-9.1605384s-7.340163-8.5537238-9.689031-13.9169718c-2.348868-5.3632481-3.523284-11.1766085-3.523284-17.4402559 0-6.1853517 1.174416-11.959565 3.523284-17.322813 2.348868-5.3632481 5.558939-10.0021923 9.63031-13.9169719 4.07137-3.91477955 8.808183-7.00740903 14.210578-9.27798119 5.402396-2.27057216 11.157036-3.40584121 17.264092-3.40584121 5.3241 0 10.452385.86123859 15.385007 2.58374161 4.932622 1.72250301 9.277962 4.13005635 13.036151 7.22273222 3.758188 3.09267587 6.772523 6.85080787 9.043095 11.27450887 2.270573 4.4237009 3.405842 9.3366756 3.405842 14.7390714 0 6.0287606-1.076549 11.1961921-3.229677 15.5024496-2.153129 4.3062576-4.736845 7.8295064-7.751225 10.5698521s-6.067863 4.7564269-9.160539 6.0483042-5.578523 1.9378062-7.457617 1.9378062c-2.505459 0-4.521541-.6263553-6.048305-1.8790848s-2.368429-2.857765-2.52502-4.8151548h-.234885c-1.409321 2.3488677-3.24924 4.0713449-5.519812 5.1674832s-4.658552 1.6441992-7.164011 1.6441992-4.873865-.5284873-7.105289-1.5854778c-2.231425-1.0569905-4.188785-2.5054372-5.87214-4.3453836-1.683356-1.8399464-3.014361-3.9734693-3.993056-6.4006326-.978694-2.4271634-1.468035-5.0108791-1.468035-7.7512249 0-3.6798928.606782-7.3205832 1.820364-10.9221804 1.213581-3.6015972 2.936059-6.8116683 5.167483-9.6303096s4.932582-5.0891794 8.103553-6.8116824c3.170972-1.7225031 6.674647-2.5837416 10.511131-2.5837416 2.505459 0 5.089175.6067817 7.751225 1.8203634 2.66205 1.2135816 4.658557 3.3471045 5.989583 6.4006326l1.879084-6.3419112h9.63031zm-31.474671-3.7581696c0 3.1318237.841665 5.6568187 2.52502 7.5750607s3.895173 2.8773486 6.635518 2.8773486c2.113981 0 4.051768-.548061 5.813419-1.6441992 1.761651-1.0961383 3.288392-2.4858642 4.580269-4.1692194 1.291878-1.6833553 2.290131-3.5819949 2.994792-5.6959759.70466-2.1139809 1.056985-4.188783 1.056985-6.2244684 0-2.8969369-.880812-5.2849166-2.642463-7.1640108s-3.895174-2.8186272-6.400633-2.8186272c-2.113981 0-4.071341.5284873-5.87214 1.5854778-1.800798 1.0569905-3.347113 2.4271428-4.63899 4.110498-1.291878 1.6833552-2.290131 3.5428476-2.994792 5.578533-.70466 2.0356854-1.056985 4.032193-1.056985 5.9895828zm59.983899-23.2536744h15.737335v8.220996h.234886c2.192277-3.1318237 4.834713-5.5589506 7.927389-7.2814536s6.635498-2.5837416 10.628573-2.5837416c3.836484 0 7.34016.7437969 10.511131 2.2314132 3.170972 1.4876162 5.578525 4.1104792 7.222732 7.8686676 1.800799-2.6620501 4.247499-5.0108826 7.340175-7.046568s6.75294-3.0535128 10.980902-3.0535128c3.210119 0 6.185307.3914721 8.925653 1.174428s5.089178 2.0356666 7.046568 3.7581696 3.484131 3.9734675 4.580269 6.752961 1.644199 6.1265798 1.644199 10.0413594v40.6352089h-16.676877v-34.4107405c0-2.0356853-.078295-3.9538986-.234886-5.7546972s-.58721-3.3666869-1.291871-4.697712c-.70466-1.331025-1.742061-2.3879997-3.112234-3.1709556s-3.229665-1.174428-5.578533-1.174428-4.247507.4501929-5.695976 1.3505922c-1.448468.9003993-2.583737 2.0748156-3.405841 3.523284-.822104 1.4484685-1.370165 3.0926512-1.644199 4.9325976-.274035 1.8399464-.41105 3.6994388-.41105 5.578533v33.8235265h-16.676878v-34.0584121c0-1.8007986-.039147-3.5819966-.117442-5.3436474-.078296-1.7616508-.411047-3.3862599-.998264-4.8738762-.587217-1.4876162-1.565897-2.6816061-2.93607-3.5820054s-3.386254-1.3505922-6.048304-1.3505922c-.782956 0-1.820357.1761624-3.112235.5284926-1.291877.3523302-2.544588 1.0178327-3.758169 1.9965276-1.213582.9786949-2.250983 2.3879944-3.112234 4.2279408-.861252 1.8399464-1.291871 4.2474998-1.291871 7.2227322v35.2328401h-16.676878zm98.622581 18.6734052c.234886-3.9147796 1.213566-7.1639979 2.93607-9.7477524 1.722503-2.5837545 3.914746-4.6585566 6.576796-6.2244684 2.66205-1.5659119 5.656812-2.6816073 8.984375-3.3471198 3.327562-.6655126 6.674649-.9982638 10.041359-.9982638 3.053528 0 6.146158.2153096 9.277981.6459354 3.131824.4306257 5.98957 1.2722907 8.573325 2.5250202 2.583754 1.2527294 4.697703 2.9947802 6.341911 5.2262046 1.644207 2.2314244 2.466299 5.1870386 2.466299 8.8669314v31.5921133c0 2.7403457.156588 5.3632087.469771 7.8686676.313182 2.505459.861243 4.384525 1.644199 5.6372544h-16.911763c-.313183-.9395471-.567639-1.8986537-.763378-2.8773486s-.332755-1.9769487-.41105-2.9947914c-2.66205 2.7403457-5.793827 4.658559-9.395424 5.7546972-3.601597 1.0961383-7.281435 1.6441992-11.039623 1.6441992-2.896937 0-5.598095-.3523248-8.103554-1.0569852-2.505459-.7046603-4.697702-1.8007821-6.576796-3.2883984-1.879095-1.4876162-3.347115-3.3666822-4.404105-5.6372544-1.056991-2.2705721-1.585478-4.9717295-1.585478-8.1035532 0-3.445006.606781-6.2831787 1.820363-8.514603 1.213582-2.2314244 2.77947-4.0126224 4.697712-5.3436474 1.918242-1.3310251 4.110486-2.3292789 6.576797-2.9947915 2.466311-.6655125 4.952159-1.1939998 7.457618-1.5854778 2.505459-.3914779 4.971733-.7046556 7.398896-.9395424 2.427164-.2348867 4.58026-.5872116 6.459354-1.0569852 1.879094-.4697735 3.366688-1.1548497 4.462827-2.055249 1.096138-.9003993 1.605052-2.2118308 1.526756-3.9343338 0-1.8007986-.293604-3.2296717-.880821-4.2866622s-1.370161-1.8790819-2.348856-2.4662988-2.113964-.978689-3.405841-1.174428-2.681603-.293607-4.16922-.293607c-3.288414 0-5.87213.7046498-7.751224 2.1139704-1.879095 1.4093207-2.975216 3.7581532-3.288399 7.046568zm38.521238 12.3314941c-.70466.6263647-1.585473 1.1157048-2.642463 1.468035-1.05699.3523301-2.19226.6459342-3.405841.880821-1.213582.2348867-2.485866.4306228-3.816891.587214s-2.66203.3523272-3.993055.587214c-1.25273.2348867-2.485867.5480644-3.699449.9395424-1.213581.3914779-2.270556.9199652-3.170955 1.5854778-.9004.6655125-1.624623 1.5071775-2.172692 2.5250202s-.8221 2.3097006-.8221 3.8756124c0 1.4876162.274031 2.7403269.8221 3.7581696s1.291866 1.8203605 2.231413 2.4075774c.939547.587217 2.035669.9982626 3.288399 1.2331494 1.252729.2348868 2.544587.3523284 3.875612.3523284 3.288415 0 5.832983-.5480609 7.633782-1.6441992s3.131804-2.4075698 3.993055-3.9343338c.861252-1.526764 1.389739-3.0730788 1.585478-4.6389906s.293607-2.8186225.293607-3.7581696zm22.989417-31.0048993h15.854778v11.2745088h.234886c.782956-1.8790942 1.83993-3.621145 3.170955-5.2262046s2.857766-2.9752119 4.580269-4.110498 3.562422-2.0160983 5.519812-2.642463c1.95739-.6263648 3.993045-.9395424 6.107026-.9395424 1.096138 0 2.309701.195736 3.640726.587214v15.5024496c-.782955-.1565912-1.722488-.2936064-2.818627-.4110498-1.096138-.1174434-2.153113-.1761642-3.170955-.1761642-3.053528 0-5.637244.5089137-7.751225 1.5267564s-3.816885 2.4075686-5.108762 4.1692194-2.211837 3.8168793-2.759906 6.165747c-.548069 2.3488678-.822099 4.8934364-.822099 7.6337821v27.3641724h-16.676878zm57.646481-9.3954241h-16.676878v-13.74080759h16.676878zm-16.676878 9.3954241h16.676878v60.7179277h-16.676878zm36.601344 30.4176853c0 2.4271633.234883 4.7955694.704657 7.1052894.469774 2.3097199 1.272291 4.384522 2.407577 6.2244684s2.642454 3.3079667 4.521548 4.404105 4.227927 1.6441992 7.046568 1.6441992c2.818642 0 5.187048-.5480609 7.10529-1.6441992s3.444983-2.5641586 4.580269-4.404105 1.937804-3.9147485 2.407577-6.2244684c.469774-2.30972.704657-4.6781261.704657-7.1052894 0-2.4271634-.234883-4.8151431-.704657-7.1640109-.469773-2.3488677-1.272291-4.4236698-2.407577-6.2244684s-2.662027-3.2688189-4.580269-4.404105-4.286648-1.7029206-7.10529-1.7029206c-2.818641 0-5.167474.5676345-7.046568 1.7029206s-3.386262 2.6033064-4.521548 4.404105-1.937803 3.8756007-2.407577 6.2244684c-.469774 2.3488678-.704657 4.7368475-.704657 7.1640109zm-16.676877 0c0-4.8543267.743797-9.2583877 2.231413-13.2123151s3.601565-7.3205873 6.341911-10.1000808 6.028711-4.93259 9.865195-6.459354c3.836484-1.5267641 8.142677-2.2901346 12.918708-2.2901346s9.101798.7633705 12.97743 2.2901346c3.875631 1.526764 7.183571 3.6798605 9.923916 6.459354 2.740346 2.7794935 4.854295 6.1461534 6.341912 10.1000808 1.487616 3.9539274 2.231413 8.3579884 2.231413 13.2123151 0 4.8543266-.743797 9.238814-2.231413 13.1535936-1.487617 3.9147796-3.601566 7.2618659-6.341912 10.0413594-2.740345 2.7794935-6.048285 4.9130164-9.923916 6.4006326-3.875632 1.4876163-8.201399 2.2314132-12.97743 2.2314132s-9.082224-.7437969-12.918708-2.2314132c-3.836484-1.4876162-7.124849-3.6211391-9.865195-6.4006326s-4.854295-6.1265798-6.341911-10.0413594-2.231413-8.299267-2.231413-13.1535936zm95.334182 15.9722208c2.348867 0 4.423669-.4697665 6.224468-1.4093136s3.288392-2.1922578 4.462826-3.7581696 2.055246-3.3471098 2.642463-5.3436474.880821-4.0909133.880821-6.2831898c0-2.505459-.234883-4.8738651-.704656-7.1052895-.469774-2.2314243-1.252718-4.2083584-2.348856-5.9308614-1.096139-1.722503-2.544585-3.0926553-4.345384-4.110498s-4.071337-1.5267564-6.811682-1.5267564c-2.348868 0-4.364949.4697665-6.048305 1.4093136-1.683355.9395471-3.092654 2.2118314-4.227941 3.816891-1.135286 1.6050596-1.957377 3.4449785-2.466298 5.5198116-.508922 2.0748332-.763379 4.2475033-.763379 6.5180755 0 2.1922765.21531 4.3649466.645936 6.5180754.430626 2.1531287 1.174423 4.0909156 2.231413 5.8134186 1.056991 1.722503 2.446716 3.1318025 4.16922 4.2279408 1.722503 1.0961383 3.875599 1.6441992 6.459354 1.6441992zm30.065356 10.4524092c0 2.4271634-.332751 5.2066152-.998263 8.3384389-.665513 3.1318236-2.094386 6.0482907-4.286663 8.7494886-2.192276 2.7011979-5.3632 4.9913099-9.512866 6.8704039-4.149667 1.879094-9.70857 2.818627-16.676878 2.818627-2.975233 0-6.009141-.371898-9.101817-1.115706-3.092676-.743809-5.911275-1.898651-8.455882-3.464563-2.544606-1.565912-4.658556-3.581993-6.341911-6.0483043-1.683355-2.4663112-2.642462-5.4219254-2.877349-8.8669314h16.559435c.782956 3.1318236 2.309697 5.3044937 4.58027 6.5180754 2.270572 1.2135816 4.893435 1.8203634 7.868667 1.8203634 4.697736 0 8.123116-1.4092995 10.276245-4.2279408s3.19053-6.3810373 3.112234-10.6872949v-7.9861104h-.234885c-1.800799 3.2101193-4.364941 5.5785254-7.692504 7.1052894-3.327562 1.5267641-6.831237 2.2901346-10.51113 2.2901346-4.541145 0-8.455865-.8025177-11.74428-2.4075774-3.288415-1.6050596-5.989573-3.7973033-8.103554-6.5767968s-3.660295-6.0287118-4.63899-9.7477524-1.468035-7.6533351-1.468035-11.8030014c0-3.9147796.567634-7.6924853 1.70292-11.3332303 1.135287-3.640745 2.799043-6.8508161 4.991319-9.6303096 2.192277-2.7794935 4.913008-4.9913108 8.162275-6.6355182 3.249267-1.6442075 6.987826-2.4662988 11.215788-2.4662988 3.993075 0 7.49675.7437969 10.51113 2.2314132 3.01438 1.4876162 5.539375 3.9930376 7.575061 7.5163392h.234885v-8.1035532h15.854778zm21.580104-26.42463c0 2.4271633.234883 4.7955694.704657 7.1052894.469773 2.3097199 1.272291 4.384522 2.407577 6.2244684s2.642454 3.3079667 4.521548 4.404105 4.227927 1.6441992 7.046568 1.6441992 5.187047-.5480609 7.105289-1.6441992 3.444983-2.5641586 4.580269-4.404105c1.135287-1.8399464 1.937804-3.9147485 2.407578-6.2244684.469773-2.30972.704657-4.6781261.704657-7.1052894 0-2.4271634-.234884-4.8151431-.704657-7.1640109-.469774-2.3488677-1.272291-4.4236698-2.407578-6.2244684-1.135286-1.8007986-2.662027-3.2688189-4.580269-4.404105s-4.286648-1.7029206-7.105289-1.7029206-5.167474.5676345-7.046568 1.7029206-3.386262 2.6033064-4.521548 4.404105-1.937804 3.8756007-2.407577 6.2244684c-.469774 2.3488678-.704657 4.7368475-.704657 7.1640109zm-16.676878 0c0-4.8543267.743797-9.2583877 2.231413-13.2123151 1.487617-3.9539274 3.601566-7.3205873 6.341912-10.1000808 2.740345-2.7794935 6.028711-4.93259 9.865195-6.459354 3.836484-1.5267641 8.142677-2.2901346 12.918708-2.2901346s9.101797.7633705 12.977429 2.2901346c3.875632 1.526764 7.183571 3.6798605 9.923917 6.459354s4.854295 6.1461534 6.341911 10.1000808 2.231413 8.3579884 2.231413 13.2123151c0 4.8543266-.743797 9.238814-2.231413 13.1535936s-3.601565 7.2618659-6.341911 10.0413594-6.048285 4.9130164-9.923917 6.4006326c-3.875632 1.4876163-8.201398 2.2314132-12.977429 2.2314132s-9.082224-.7437969-12.918708-2.2314132c-3.836484-1.4876162-7.12485-3.6211391-9.865195-6.4006326-2.740346-2.7794935-4.854295-6.1265798-6.341912-10.0413594-1.487616-3.9147796-2.231413-8.299267-2.231413-13.1535936zm95.334182 15.9722208c2.348868 0 4.42367-.4697665 6.224469-1.4093136 1.800798-.9395471 3.288392-2.1922578 4.462826-3.7581696s2.055246-3.3471098 2.642463-5.3436474.880821-4.0909133.880821-6.2831898c0-2.505459-.234883-4.8738651-.704657-7.1052895-.469773-2.2314243-1.252718-4.2083584-2.348856-5.9308614s-2.544585-3.0926553-4.345383-4.110498c-1.800799-1.0178427-4.071337-1.5267564-6.811683-1.5267564-2.348868 0-4.364949.4697665-6.048304 1.4093136s-3.092655 2.2118314-4.227941 3.816891-1.957377 3.4449785-2.466299 5.5198116c-.508921 2.0748332-.763378 4.2475033-.763378 6.5180755 0 2.1922765.21531 4.3649466.645935 6.5180754.430626 2.1531287 1.174423 4.0909156 2.231414 5.8134186 1.05699 1.722503 2.446716 3.1318025 4.169219 4.2279408s3.8756 1.6441992 6.459354 1.6441992zm30.065357 10.4524092c0 2.4271634-.332751 5.2066152-.998264 8.3384389-.665512 3.1318236-2.094385 6.0482907-4.286662 8.7494886s-5.3632 4.9913099-9.512867 6.8704039c-4.149666 1.879094-9.70857 2.818627-16.676878 2.818627-2.975232 0-6.009141-.371898-9.101817-1.115706-3.092675-.743809-5.911274-1.898651-8.455881-3.464563s-4.658556-3.581993-6.341911-6.0483043c-1.683356-2.4663112-2.642462-5.4219254-2.877349-8.8669314h16.559435c.782956 3.1318236 2.309697 5.3044937 4.580269 6.5180754 2.270572 1.2135816 4.893435 1.8203634 7.868668 1.8203634 4.697735 0 8.123116-1.4092995 10.276245-4.2279408s3.19053-6.3810373 3.112234-10.6872949v-7.9861104h-.234886c-1.800798 3.2101193-4.36494 5.5785254-7.692503 7.1052894-3.327563 1.5267641-6.831238 2.2901346-10.511131 2.2901346-4.541144 0-8.455865-.8025177-11.74428-2.4075774-3.288415-1.6050596-5.989572-3.7973033-8.103553-6.5767968s-3.660296-6.0287118-4.638991-9.7477524c-.978694-3.7190406-1.468035-7.6533351-1.468035-11.8030014 0-3.9147796.567635-7.6924853 1.702921-11.3332303s2.799042-6.8508161 4.991319-9.6303096 4.913008-4.9913108 8.162275-6.6355182c3.249267-1.6442075 6.987825-2.4662988 11.215787-2.4662988 3.993075 0 7.49675.7437969 10.511131 2.2314132 3.01438 1.4876162 5.539375 3.9930376 7.57506 7.5163392h.234886v-8.1035532h15.854778zm6.782311-79.97854699h16.676877v31.59211329h.352329c2.113981-3.5233016 4.815138-6.0874438 8.103553-7.6925034 3.288415-1.6050597 6.498486-2.4075774 9.630309-2.4075774 4.462849 0 8.123113.6067817 10.980902 1.8203634 2.857789 1.2135816 5.108754 2.8969116 6.752961 5.0500404 1.644208 2.1531288 2.79905 4.7759917 3.464563 7.8686676.665512 3.0926759.998264 6.5180566.998264 10.276245v37.3468105h-16.676878v-34.2932977c0-5.0109178-.782944-8.7494762-2.348856-11.2157874-1.565912-2.4663111-4.345364-3.6994482-8.338439-3.6994482-4.541144 0-7.82951 1.3505787-9.865195 4.0517766s-3.053513 7.1444061-3.053513 13.3297579v31.8269988h-16.676877zm63.742068 65.76796819h18.43852v18.0861912h-18.43852zm66.678139-21.2571469c-1.096138-6.9683076-5.206595-10.4524092-12.331494-10.4524092-2.66205 0-4.893441.6067817-6.69424 1.8203634-1.800798 1.2135817-3.268819 2.77947-4.404105 4.697712s-1.937804 4.0321913-2.407577 6.3419112c-.469774 2.30972-.704657 4.5998317-.704657 6.8704039 0 2.1922765.234883 4.4236674.704657 6.6942396.469773 2.2705721 1.233144 4.3258006 2.290134 6.165747 1.056991 1.8399464 2.485864 3.3471139 4.286663 4.5215478 1.800798 1.1744339 3.993042 1.761642 6.576796 1.761642 3.993076 0 7.066131-1.1156954 9.21926-3.3471198s3.503708-5.2261858 4.051777-8.9843742h16.089664c-1.096139 8.0644459-4.227915 14.2105577-9.395425 18.4385196-5.167509 4.227962-11.783387 6.3419112-19.847833 6.3419112-4.541144 0-8.710322-.7633705-12.507658-2.2901346-3.797336-1.526764-7.026981-3.6602869-9.689031-6.4006326s-4.736852-6.0091376-6.224468-9.8064738c-1.487617-3.7973362-2.231414-7.9665139-2.231414-12.5076582 0-4.6977355.685077-9.0626493 2.055249-13.0948723 1.370173-4.0322229 3.386254-7.5163245 6.048305-10.4524092 2.66205-2.9360847 5.911268-5.2261964 9.747752-6.8704038 3.836484-1.6442075 8.220971-2.4662988 13.153594-2.4662988 3.601597 0 7.066125.4697665 10.393687 1.4093136 3.327563.9395471 6.302751 2.3684202 8.925653 4.2866622 2.622903 1.918242 4.756425 4.3062217 6.400633 7.1640108 1.644207 2.8577891 2.58374 6.2440226 2.818627 10.1588022zm34.263926 9.0430957c0 2.4271633.234883 4.7955694.704656 7.1052894.469774 2.3097199 1.272292 4.384522 2.407578 6.2244684s2.642453 3.3079667 4.521548 4.404105c1.879094 1.0961383 4.227926 1.6441992 7.046568 1.6441992 2.818641 0 5.187047-.5480609 7.105289-1.6441992s3.444983-2.5641586 4.580269-4.404105 1.937806-3.9147485 2.407576-6.2244684c.46978-2.30972.70466-4.6781261.70466-7.1052894 0-2.4271634-.23488-4.8151431-.70466-7.1640109-.46977-2.3488677-1.27229-4.4236698-2.407576-6.2244684s-2.662027-3.2688189-4.580269-4.404105-4.286648-1.7029206-7.105289-1.7029206c-2.818642 0-5.167474.5676345-7.046568 1.7029206-1.879095 1.1352861-3.386262 2.6033064-4.521548 4.404105s-1.937804 3.8756007-2.407578 6.2244684c-.469773 2.3488678-.704656 4.7368475-.704656 7.1640109zm-16.676878 0c0-4.8543267.743797-9.2583877 2.231413-13.2123151s3.601566-7.3205873 6.341911-10.1000808c2.740346-2.7794935 6.028712-4.93259 9.865196-6.459354 3.836484-1.5267641 8.142677-2.2901346 12.918708-2.2901346s9.101797.7633705 12.977434 2.2901346c3.87563 1.526764 7.18357 3.6798605 9.92391 6.459354 2.74035 2.7794935 4.8543 6.1461534 6.34191 10.1000808 1.48762 3.9539274 2.23142 8.3579884 2.23142 13.2123151 0 4.8543266-.7438 9.238814-2.23142 13.1535936-1.48761 3.9147796-3.60156 7.2618659-6.34191 10.0413594-2.74034 2.7794935-6.04828 4.9130164-9.92391 6.4006326-3.875637 1.4876163-8.201403 2.2314132-12.977434 2.2314132s-9.082224-.7437969-12.918708-2.2314132c-3.836484-1.4876162-7.12485-3.6211391-9.865196-6.4006326-2.740345-2.7794935-4.854295-6.1265798-6.341911-10.0413594s-2.231413-8.299267-2.231413-13.1535936zm67.500242-30.4176853h15.73733v8.220996h.23489c2.19227-3.1318237 4.83471-5.5589506 7.92739-7.2814536 3.09267-1.722503 6.63549-2.5837416 10.62857-2.5837416 3.83648 0 7.34016.7437969 10.51113 2.2314132 3.17097 1.4876162 5.57853 4.1104792 7.22273 7.8686676 1.8008-2.6620501 4.2475-5.0108826 7.34018-7.046568 3.09267-2.0356854 6.75294-3.0535128 10.9809-3.0535128 3.21012 0 6.18531.3914721 8.92565 1.174428 2.74035.7829559 5.08918 2.0356666 7.04657 3.7581696s3.48413 3.9734675 4.58027 6.752961 1.6442 6.1265798 1.6442 10.0413594v40.6352089h-16.67688v-34.4107405c0-2.0356853-.07829-3.9538986-.23488-5.7546972-.1566-1.8007986-.58722-3.3666869-1.29188-4.697712-.70466-1.331025-1.74206-2.3879997-3.11223-3.1709556s-3.22966-1.174428-5.57853-1.174428-4.24751.4501929-5.69598 1.3505922-2.58374 2.0748156-3.40584 3.523284c-.8221 1.4484685-1.37016 3.0926512-1.6442 4.9325976-.27403 1.8399464-.41105 3.6994388-.41105 5.578533v33.8235265h-16.67688v-34.0584121c0-1.8007986-.03914-3.5819966-.11744-5.3436474-.07829-1.7616508-.41105-3.3862599-.99826-4.8738762-.58722-1.4876162-1.5659-2.6816061-2.93607-3.5820054-1.37018-.9003993-3.38626-1.3505922-6.04831-1.3505922-.78295 0-1.82035.1761624-3.11223.5284926s-2.54459 1.0178327-3.75817 1.9965276-2.25098 2.3879944-3.11224 4.2279408c-.86125 1.8399464-1.29187 4.2474998-1.29187 7.2227322v35.2328401h-16.67687z" fill-rule="evenodd"/></svg>