<svg height="73" viewBox="0 0 49 73" width="49" xmlns="http://www.w3.org/2000/svg"><g fill="none" transform="translate(2 3)"><g fill="#ef5350"><path d="m28.062645 31.4398736c.3565.1378124.728525.2078482 1.106875.2078482 1.251775 0 2.356925-.7393298 2.815775-1.88306.296125-.7387651.28175-1.5458715-.04025-2.2739052-.2369-.5348704-.619275-.979372-1.103425-1.2928388l-3.65585 4.528607c-.0897.1107018-.183425.2180147-.281175.3208092.391.1146555.776825.2451254 1.15805.3925396zm-13.115175-5.3871107c-1.672675.6851085-3.251625 1.5916207-4.704075 2.7014626-4.98755 3.8129989-7.87405 9.5435111-7.918325 15.7219136-.00038333.0229687-.001725.0707889-.004025.1434605 0 11.0831696 9.179875 20.1002824 20.4631 20.1002824 11.2769 0 20.45275-9.0069463 20.4631-20.0822087-.0506-1.7203962-1.377125-2.9889484-3.025075-2.9889484h-17.438025c-1.6675 0-3.0245 1.3323752-3.0245 2.9708747s1.357 2.9714394 3.0245 2.9714394h14.186975l-.510025 1.5001222c-1.96765 5.7943351-7.4635 9.6869716-13.67695 9.6869716-7.94765 0-14.413525-6.3512329-14.413525-14.1585332 0-6.5240633 4.51605-12.0320421 10.6398-13.6660232-.052325-.0576101-.1035-.1163498-.153525-.176784zm-14.9477 18.5668367c0-.0271107.00134167-.0803906.004025-.1598398.050025-6.8798904 3.26255-13.2599284 8.81475-17.5050032 1.860125-1.4221792 3.91-2.5444468 6.0927-3.3363035l.77855-.2829673 4.967425 6.0021833c.58305.7037471 1.459925 1.1239621 2.3437 1.1239621.90735 0 1.783075-.4309463 2.367275-1.1527671l4.758125-5.8948704.8602.3236333c.0483.0169441.097175.0344531.145475.0530917 1.326525.5134077 2.37245 1.5046406 2.941125 2.7907017.56925 1.2860612.595125 2.7133235.071875 4.018588-.810175 2.0214373-2.76345 3.3278314-4.975475 3.3278314-.67045 0-1.328825-.1236923-1.9573-.3659937-1.40645-.5444721-2.896275-.8200968-4.428075-.8200968-6.668275 0-12.09225 5.3283708-12.09225 11.8778503 0 6.5494794 5.423975 11.8784152 12.09225 11.8784152 4.65635 0 8.832575-2.6060106 10.84795-6.6274226h-10.84795c-2.94745 0-5.345775-2.3552371-5.345775-5.2509926 0-2.8951907 2.398325-5.2509927 5.345775-5.2509927h17.438025c2.9141 0 5.2601 2.242841 5.33945 5.105273.004025.0497028.0069.0971464.0069.1457197 0 12.3404257-10.2212 22.3804004-22.784375 22.3804004s-22.784375-10.0399747-22.784375-22.3804004z"/><path d="m37.1979 39.5778673h3.0245c1.12585 0 2.1666.3306898 3.025075.8989409v-34.75587489c0-1.24580267-.814775-2.3588833-2.028025-2.76931784-.322-.10874285-.657225-.16450842-.996475-.16450842-.927475 0-1.79055.40430033-2.367275 1.1086194l-14.883875 18.15949785-15.2812-18.18738064c-.576725-.68647408-1.43175-1.08017895-2.345425-1.08017895-.345575 0-.687125.05688087-1.013725.17008496-1.202325.4148958-2.0102 1.52518815-2.0102 2.76318364v29.82068439c1.42255-2.8083538 3.468975-5.3239383 6.049-7.3716498v-14.2113457l12.2866 14.6590935c.583625.6948389 1.459925 1.1097347 2.344275 1.1097347.90735 0 1.783075-.4254912 2.367275-1.1381751l11.829475-14.4700483zm6.043825 5.3821358c.134658-3.2110767-1.371375-4.1870677-3.019325-4.1870677h-5.345775v-20.1910373l-7.690625 9.4070928c-1.020625 1.2463603-2.576 1.9897153-4.15955 1.9897153-1.6238 0-3.134325-.7071074-4.169325-1.9395263l-8.165575-9.7422438v7.406782l-.447925.338497c-4.988125 3.7641755-7.87405 9.4221495-7.918325 15.5223444l-2.321275.0078071-.004025-37.85143329c0-2.18768302 1.427725-4.15063083 3.5535-4.88450563.577875-.19908306 1.180475-.30001873 1.7917-.30001873 1.615175 0 3.1257.69595422 4.1446 1.90997052l13.4596 16.01810023 13.088725-15.96958419c1.02005-1.24468736 2.545525-1.95848656 4.18485-1.95848656.6003 0 1.19255.09758973 1.761225.28998092 2.144175.72550997 3.58455 2.69291903 3.58455 4.89454344v37.75997789c0 .0479583-.002875 1.4305759-.006325 1.477419z"/><path d="m40.6275698 4.64386954c-.4053101-.13953041-.8618531-.00560364-1.1254185.32052768l-16.2966501 20.18203728-16.71505289-20.19156345c-.26584238-.32108805-.72238539-.4494112-1.12484912-.3081997-.40075596.14009078-.67172164.51721513-.67172164.93804782v22.09847903c.02220097-.0240956.0449712-.0476308.06717217-.0717265.08311131-.089658.16736115-.1787558.25218024-.2672932.075711-.0806922.15142199-.1608241.22941002-.2398354.08424983-.0868562.17020743-.1725918.25616503-.257767.07969578-.0795716.15882231-.1591431.24022587-.2375939.08652686-.0840546.17533073-.1664278.2629961-.2493616.08254207-.0778905.16451488-.155781.24819546-.2325507.08937313-.0812526.17988477-.1608242.26982716-.2409561.06603365-.0588382.1309288-.1193574.19810096-.1776351v-17.34099639l9.89195494 11.97888189 5.8229159 7.0516091c.2037935.2459995.4963909.3944957.7821572.3944957h.0250473c.2703964 0 .5641323-.1557809.7667873-.4068236l5.6225379-6.9804431 9.6528676-11.98392513v28.22380803h1.0115673c.1542682 0 .3056902.006164.4571122.0151298.0426942.0022414.0853884.006164.1286518.0089658.1178359.0089659.2351026.0207334.3523692.0353029.0239088.0033621.0495252.0044829.0740032.0078451v-31.12760963c0-.4236345-.2726734-.80131922-.6785526-.94084963"/><path d="m40.293986 43.4493555h-7.2893183-10.0046677c-.5578705 0-1.0115672.4453206-1.0115672.9934503 0 .5475711.4536967.9934504 1.0115672.9934504h16.8277656l-1.3781679 4.0548196c-2.2229432 6.5395628-8.4312451 10.9329824-15.4495977 10.9329824-8.9777305 0-16.28184944-7.1692696-16.28184944-15.9812524 0-6.3417667 3.78270364-11.8331222 9.25040394-14.4134111l-.0108159-.0122924-1.2956258-1.5650475c-1.0058746.5090175-1.9662089 1.1119045-2.8724638 1.803632l-.0051233.00447c-2.68574811 2.0505977-4.69009717 4.7219622-5.87016409 7.7268981-.1679304.4291169-.31992166.8649387-.45426598 1.3069068-.48899059 1.6075121-.74970966 3.2943663-.76223329 5.0197739 0 .0530808-.00170777.1056029-.00398479.158125.01593916 9.893715 8.22175905 17.9390983 18.30612245 17.9390983 10.0684242 0 18.2639975-8.019681 18.3061224-17.8916048-.002277-.0340836-.0039848-.0676084-.0039848-.101133-.0159391-.5453362-.4582508-.9688656-1.0081516-.9688656"/><path d="m30.8907057 29.589819c.124082-.2737006.1179886-.5729852-.0166181-.8433067-.0548399-.1090941-.1279597-.2080512-.2165897-.2944575l-1.5554571 1.7093012c.0498544.0164124.0997088.0328248.1490092.0497199.6486611.2225326 1.3842903-.0564779 1.6396557-.6212569"/></g><g fill="#000"><path d="m28.062645 31.4398736c.3565.1378124.728525.2078482 1.106875.2078482 1.251775 0 2.356925-.7393298 2.815775-1.88306.296125-.7387651.28175-1.5458715-.04025-2.2739052-.2369-.5348704-.619275-.979372-1.103425-1.2928388l-3.65585 4.528607c-.0897.1107018-.183425.2180147-.281175.3208092.391.1146555.776825.2451254 1.15805.3925396zm-13.115175-5.3871107c-1.672675.6851085-3.251625 1.5916207-4.704075 2.7014626-4.98755 3.8129989-7.87405 9.5435111-7.918325 15.7219136-.00038333.0229687-.001725.0707889-.004025.1434605 0 11.0831696 9.179875 20.1002824 20.4631 20.1002824 11.2769 0 20.45275-9.0069463 20.4631-20.0822087-.0506-1.7203962-1.377125-2.9889484-3.025075-2.9889484h-17.438025c-1.6675 0-3.0245 1.3323752-3.0245 2.9708747s1.357 2.9714394 3.0245 2.9714394h14.186975l-.510025 1.5001222c-1.96765 5.7943351-7.4635 9.6869716-13.67695 9.6869716-7.94765 0-14.413525-6.3512329-14.413525-14.1585332 0-6.5240633 4.51605-12.0320421 10.6398-13.6660232-.052325-.0576101-.1035-.1163498-.153525-.176784zm-14.9477 18.5668367c0-.0271107.00134167-.0803906.004025-.1598398.050025-6.8798904 3.26255-13.2599284 8.81475-17.5050032 1.860125-1.4221792 3.91-2.5444468 6.0927-3.3363035l.77855-.2829673 4.967425 6.0021833c.58305.7037471 1.459925 1.1239621 2.3437 1.1239621.90735 0 1.783075-.4309463 2.367275-1.1527671l4.758125-5.8948704.8602.3236333c.0483.0169441.097175.0344531.145475.0530917 1.326525.5134077 2.37245 1.5046406 2.941125 2.7907017.56925 1.2860612.595125 2.7133235.071875 4.018588-.810175 2.0214373-2.76345 3.3278314-4.975475 3.3278314-.67045 0-1.328825-.1236923-1.9573-.3659937-1.40645-.5444721-2.896275-.8200968-4.428075-.8200968-6.668275 0-12.09225 5.3283708-12.09225 11.8778503 0 6.5494794 5.423975 11.8784152 12.09225 11.8784152 4.65635 0 8.832575-2.6060106 10.84795-6.6274226h-10.84795c-2.94745 0-5.345775-2.3552371-5.345775-5.2509926 0-2.8951907 2.398325-5.2509927 5.345775-5.2509927h17.438025c2.9141 0 5.2601 2.242841 5.33945 5.105273.004025.0497028.0069.0971464.0069.1457197 0 12.3404257-10.2212 22.3804004-22.784375 22.3804004s-22.784375-10.0399747-22.784375-22.3804004z"/><path d="m37.1979 39.5778673h3.0245c1.12585 0 2.1666.3306898 3.025075.8989409v-34.75587489c0-1.24580267-.814775-2.3588833-2.028025-2.76931784-.322-.10874285-.657225-.16450842-.996475-.16450842-.927475 0-1.79055.40430033-2.367275 1.1086194l-14.883875 18.15949785-15.2812-18.18738064c-.576725-.68647408-1.43175-1.08017895-2.345425-1.08017895-.345575 0-.687125.05688087-1.013725.17008496-1.202325.4148958-2.0102 1.52518815-2.0102 2.76318364v29.82068439c1.42255-2.8083538 3.468975-5.3239383 6.049-7.3716498v-14.2113457l12.2866 14.6590935c.583625.6948389 1.459925 1.1097347 2.344275 1.1097347.90735 0 1.783075-.4254912 2.367275-1.1381751l11.829475-14.4700483zm6.043825 5.3821358c.134658-3.2110767-1.371375-4.1870677-3.019325-4.1870677h-5.345775v-20.1910373l-7.690625 9.4070928c-1.020625 1.2463603-2.576 1.9897153-4.15955 1.9897153-1.6238 0-3.134325-.7071074-4.169325-1.9395263l-8.165575-9.7422438v7.406782l-.447925.338497c-4.988125 3.7641755-7.87405 9.4221495-7.918325 15.5223444l-2.321275.0078071-.004025-37.85143329c0-2.18768302 1.427725-4.15063083 3.5535-4.88450563.577875-.19908306 1.180475-.30001873 1.7917-.30001873 1.615175 0 3.1257.69595422 4.1446 1.90997052l13.4596 16.01810023 13.088725-15.96958419c1.02005-1.24468736 2.545525-1.95848656 4.18485-1.95848656.6003 0 1.19255.09758973 1.761225.28998092 2.144175.72550997 3.58455 2.69291903 3.58455 4.89454344v37.75997789c0 .0479583-.002875 1.4305759-.006325 1.477419z"/><path d="m40.6275698 4.64386954c-.4053101-.13953041-.8618531-.00560364-1.1254185.32052768l-16.2966501 20.18203728-16.71505289-20.19156345c-.26584238-.32108805-.72238539-.4494112-1.12484912-.3081997-.40075596.14009078-.67172164.51721513-.67172164.93804782v22.09847903c.02220097-.0240956.0449712-.0476308.06717217-.0717265.08311131-.089658.16736115-.1787558.25218024-.2672932.075711-.0806922.15142199-.1608241.22941002-.2398354.08424983-.0868562.17020743-.1725918.25616503-.257767.07969578-.0795716.15882231-.1591431.24022587-.2375939.08652686-.0840546.17533073-.1664278.2629961-.2493616.08254207-.0778905.16451488-.155781.24819546-.2325507.08937313-.0812526.17988477-.1608242.26982716-.2409561.06603365-.0588382.1309288-.1193574.19810096-.1776351v-17.34099639l9.89195494 11.97888189 5.8229159 7.0516091c.2037935.2459995.4963909.3944957.7821572.3944957h.0250473c.2703964 0 .5641323-.1557809.7667873-.4068236l5.6225379-6.9804431 9.6528676-11.98392513v28.22380803h1.0115673c.1542682 0 .3056902.006164.4571122.0151298.0426942.0022414.0853884.006164.1286518.0089658.1178359.0089659.2351026.0207334.3523692.0353029.0239088.0033621.0495252.0044829.0740032.0078451v-31.12760963c0-.4236345-.2726734-.80131922-.6785526-.94084963"/><path d="m40.293986 43.4493555h-7.2893183-10.0046677c-.5578705 0-1.0115672.4453206-1.0115672.9934503 0 .5475711.4536967.9934504 1.0115672.9934504h16.8277656l-1.3781679 4.0548196c-2.2229432 6.5395628-8.4312451 10.9329824-15.4495977 10.9329824-8.9777305 0-16.28184944-7.1692696-16.28184944-15.9812524 0-6.3417667 3.78270364-11.8331222 9.25040394-14.4134111l-.0108159-.0122924-1.2956258-1.5650475c-1.0058746.5090175-1.9662089 1.1119045-2.8724638 1.803632l-.0051233.00447c-2.68574811 2.0505977-4.69009717 4.7219622-5.87016409 7.7268981-.1679304.4291169-.31992166.8649387-.45426598 1.3069068-.48899059 1.6075121-.74970966 3.2943663-.76223329 5.0197739 0 .0530808-.00170777.1056029-.00398479.158125.01593916 9.893715 8.22175905 17.9390983 18.30612245 17.9390983 10.0684242 0 18.2639975-8.019681 18.3061224-17.8916048-.002277-.0340836-.0039848-.0676084-.0039848-.101133-.0159391-.5453362-.4582508-.9688656-1.0081516-.9688656"/><path d="m30.8907057 29.589819c.124082-.2737006.1179886-.5729852-.0166181-.8433067-.0548399-.1090941-.1279597-.2080512-.2165897-.2944575l-1.5554571 1.7093012c.0498544.0164124.0997088.0328248.1490092.0497199.6486611.2225326 1.3842903-.0564779 1.6396557-.6212569"/></g></g></svg>