<?xml version="1.0" encoding="UTF-8"?>
<svg width="778px" height="76px" viewBox="0 0 778 76" version="1.1" xmlns="http://www.w3.org/2000/svg" xmlns:xlink="http://www.w3.org/1999/xlink">
    <!-- Generator: Sketch 49.3 (51167) - http://www.bohemiancoding.com/sketch -->
    <desc>Created with Sketch.</desc>
    <defs></defs>
    <g id="Mariogogh_Index" stroke="none" stroke-width="1" fill="none" fill-rule="evenodd">
        <path d="M0,1.39078116 L11.6171132,1.39078116 L11.6171132,23.3978477 L11.8625452,23.3978477 C13.3351443,20.9435157 15.2167706,19.1573343 17.5074805,18.0392497 C19.7981903,16.9211652 22.0343259,16.3621313 24.2159543,16.3621313 C27.3247748,16.3621313 29.8745147,16.7848154 31.8652506,17.6301964 C33.8559866,18.4755774 35.4240085,19.6481851 36.5693634,21.1480547 C37.7147183,22.6479242 38.5191817,24.4750106 38.9827777,26.6293686 C39.4463738,28.7837267 39.6781683,31.169847 39.6781683,33.7878011 L39.6781683,59.8035898 L28.0610551,59.8035898 L28.0610551,35.9148781 C28.0610551,32.4242727 27.5156562,29.8199928 26.424842,28.1019604 C25.3340278,26.3839281 23.3978616,25.5249248 20.6162854,25.5249248 C17.4529242,25.5249248 15.1622487,26.4657379 13.7441903,28.3473924 C12.3261318,30.2290469 11.6171132,33.3241858 11.6171132,37.6329019 L11.6171132,59.8035898 L0,59.8035898 L0,1.39078116 Z M72.3819704,34.1150437 C71.8365633,31.1698453 70.8684802,28.9337098 69.4776921,27.4065699 C68.086904,25.87943 65.9734831,25.1158715 63.1373662,25.1158715 C61.2829821,25.1158715 59.7422301,25.4294759 58.5150641,26.056694 C57.2878981,26.6839122 56.3061801,27.4611057 55.5698805,28.3882977 C54.8335809,29.3154898 54.3154519,30.2972079 54.015478,31.3334814 C53.7155041,32.3697549 53.5382495,33.296933 53.4837088,34.1150437 L72.3819704,34.1150437 Z M53.4837088,41.4780028 C53.6473309,45.2413118 54.601779,47.9683064 56.3470817,49.6590684 C58.0923845,51.3498304 60.6012195,52.1951987 63.8736621,52.1951987 C66.2189127,52.1951987 68.2368887,51.6088949 69.9276507,50.4362696 C71.6184127,49.2636443 72.6546707,48.0228618 73.0364556,46.7138848 L83.2627877,46.7138848 C81.6265664,51.7861708 79.1177313,55.4130736 75.7362073,57.594702 C72.3546832,59.7763305 68.2641913,60.8671283 63.4646088,60.8671283 C60.1376255,60.8671283 57.1379314,60.3353644 54.4654366,59.2718205 C51.7929418,58.2082767 49.5295363,56.6947946 47.6751522,54.7313291 C45.820768,52.7678635 44.3890958,50.4226481 43.3800927,47.6956126 C42.3710896,44.9685771 41.8665956,41.9688831 41.8665956,38.6964404 C41.8665956,35.5330792 42.3847245,32.5879251 43.420998,29.8608896 C44.4572715,27.133854 45.9298486,24.7750037 47.8387735,22.7842678 C49.7476983,20.7935319 52.0247388,19.22551 54.6699633,18.080155 C57.3151877,16.9348001 60.2467069,16.3621313 63.4646088,16.3621313 C67.0642957,16.3621313 70.2003395,17.0575149 72.8728343,18.448303 C75.5453291,19.8390911 77.7405598,21.7070824 79.4585921,24.052333 C81.1766245,26.3975835 82.4174071,29.0700382 83.180977,32.0697773 C83.9445469,35.0695163 84.2172464,38.2055601 83.9990836,41.4780028 L53.4837088,41.4780028 Z M86.5965641,1.39078116 L98.2136773,1.39078116 L98.2136773,59.8035898 L86.5965641,59.8035898 L86.5965641,1.39078116 Z M103.101856,1.39078116 L114.718969,1.39078116 L114.718969,59.8035898 L103.101856,59.8035898 L103.101856,1.39078116 Z M129.588048,38.6964404 C129.588048,40.3872025 129.751668,42.0370342 130.078912,43.6459851 C130.406157,45.2549361 130.96519,46.7002432 131.756031,47.9819499 C132.546871,49.2636566 133.596764,50.2862796 134.905741,51.0498495 C136.214718,51.8134195 137.850915,52.1951987 139.81438,52.1951987 C141.777846,52.1951987 143.427678,51.8134195 144.763925,51.0498495 C146.100173,50.2862796 147.1637,49.2636566 147.954541,47.9819499 C148.745381,46.7002432 149.304415,45.2549361 149.631659,43.6459851 C149.958903,42.0370342 150.122523,40.3872025 150.122523,38.6964404 C150.122523,37.0056784 149.958903,35.3422117 149.631659,33.7059904 C149.304415,32.0697691 148.745381,30.624462 147.954541,29.3700256 C147.1637,28.1155893 146.100173,27.0929663 144.763925,26.302126 C143.427678,25.5112857 141.777846,25.1158715 139.81438,25.1158715 C137.850915,25.1158715 136.214718,25.5112857 134.905741,26.302126 C133.596764,27.0929663 132.546871,28.1155893 131.756031,29.3700256 C130.96519,30.624462 130.406157,32.0697691 130.078912,33.7059904 C129.751668,35.3422117 129.588048,37.0056784 129.588048,38.6964404 Z M117.970935,38.6964404 C117.970935,35.3149164 118.489064,32.2470475 119.525338,29.4927416 C120.561611,26.7384357 122.034188,24.3932204 123.943113,22.4570252 C125.852038,20.5208299 128.142713,19.0209829 130.815208,17.9574391 C133.487703,16.8938952 136.487397,16.3621313 139.81438,16.3621313 C143.141364,16.3621313 146.154693,16.8938952 148.854458,17.9574391 C151.554223,19.0209829 153.858534,20.5208299 155.767458,22.4570252 C157.676383,24.3932204 159.14896,26.7384357 160.185234,29.4927416 C161.221507,32.2470475 161.739636,35.3149164 161.739636,38.6964404 C161.739636,42.0779645 161.221507,45.1321984 160.185234,47.8592339 C159.14896,50.5862695 157.676383,52.9178498 155.767458,54.8540451 C153.858534,56.7902403 151.554223,58.2764523 148.854458,59.3127258 C146.154693,60.3489993 143.141364,60.8671283 139.81438,60.8671283 C136.487397,60.8671283 133.487703,60.3489993 130.815208,59.3127258 C128.142713,58.2764523 125.852038,56.7902403 123.943113,54.8540451 C122.034188,52.9178498 120.561611,50.5862695 119.525338,47.8592339 C118.489064,45.1321984 117.970935,42.0779645 117.970935,38.6964404 Z M205.978741,36.3239314 C205.815119,36.8693385 205.665134,37.4556423 205.528782,38.0828605 C205.392431,38.7100787 205.324256,39.2963825 205.324256,39.8417896 C205.324256,40.3871967 205.433335,40.8371508 205.651498,41.1916655 C205.869661,41.5461801 206.22417,41.7234347 206.715037,41.7234347 C207.860392,41.7234347 209.019364,41.3552904 210.19199,40.6189909 C211.364615,39.8826913 212.400873,38.8464333 213.300795,37.5101859 C214.200716,36.1739385 214.937005,34.5786467 215.509682,32.7242625 C216.08236,30.8698784 216.368694,28.8519024 216.368694,26.670274 C216.368694,23.3978313 215.796025,20.520852 214.65067,18.0392497 C213.505316,15.5576474 211.937294,13.4578616 209.946558,11.7398292 C207.955822,10.0217968 205.610606,8.72647437 202.910841,7.85382301 C200.211076,6.98117164 197.306827,6.54485251 194.198006,6.54485251 C190.707401,6.54485251 187.530452,7.15842629 184.667065,8.38559227 C181.803678,9.61275825 179.363017,11.3034949 177.345011,13.457853 C175.327005,15.612211 173.772618,18.1755859 172.681804,21.1480547 C171.59099,24.1205234 171.045591,27.324742 171.045591,30.7608068 C171.045591,34.3604937 171.645529,37.6192522 172.845425,40.5371802 C174.045321,43.4551082 175.708787,45.9639432 177.835875,48.0637606 C179.962963,50.1635779 182.512703,51.7861397 185.485172,52.9314946 C188.45764,54.0768496 191.689129,54.6495184 195.179734,54.6495184 C198.615799,54.6495184 201.874558,54.0632146 204.956108,52.8905893 C208.037658,51.717964 210.641938,50.0681323 212.769025,47.9410446 L219.641121,47.9410446 C216.859544,52.19522 213.287181,55.4539786 208.923925,57.717418 C204.560668,59.9808575 199.815697,61.1125603 194.68887,61.1125603 C190.325614,61.1125603 186.235122,60.3490018 182.417272,58.8218619 C178.599422,57.294722 175.258854,55.1676662 172.395467,52.4406307 C169.532079,49.7135952 167.282309,46.4821066 165.646087,42.7460679 C164.009866,39.0100293 163.191768,34.9604423 163.191768,30.5971855 C163.191768,26.2884694 164.009866,22.2661523 165.646087,18.5301137 C167.282309,14.794075 169.518444,11.5625864 172.354561,8.83555088 C175.190678,6.10851537 178.490342,3.95418963 182.253651,2.37250903 C186.01696,0.790828436 190.025642,0 194.279817,0 C197.988585,0 201.560948,0.599938814 204.997013,1.79983444 C208.433078,2.99973006 211.460042,4.67683175 214.077996,6.8311898 C216.69595,8.98554786 218.795736,11.6034627 220.377416,14.6850128 C221.959097,17.7665629 222.749925,21.1889412 222.749925,24.9522502 C222.749925,29.1518849 222.000002,32.7515177 220.500132,35.7512568 C219.000263,38.7509959 217.200446,41.205291 215.100629,43.1142159 C213.000812,45.0231407 210.873756,46.427543 208.719398,47.3274647 C206.56504,48.2273864 204.833398,48.6773405 203.524421,48.6773405 C201.779119,48.6773405 200.374716,48.2410214 199.311172,47.36837 C198.247629,46.4957186 197.661325,45.3776509 197.552243,44.0141331 L197.388622,44.0141331 C196.406889,45.6503544 195.125202,46.850232 193.543521,47.613802 C191.961841,48.3773719 190.298374,48.7591512 188.553071,48.7591512 C186.807768,48.7591512 185.157937,48.3910069 183.603526,47.6547073 C182.049116,46.9184077 180.685619,45.9094197 179.512994,44.627713 C178.340368,43.3460063 177.41319,41.8597943 176.731431,40.1690323 C176.049672,38.4782702 175.708798,36.6784538 175.708798,34.7695289 C175.708798,32.2061156 176.131482,29.6700106 176.976863,27.1611379 C177.822244,24.6522652 179.022122,22.4161296 180.576532,20.4526641 C182.130942,18.4891985 184.012569,16.9075416 186.221467,15.707646 C188.430366,14.5077504 190.871026,13.9078116 193.543521,13.9078116 C195.288824,13.9078116 197.08864,14.3304957 198.943024,15.1758767 C200.797409,16.0212578 202.188176,17.5074698 203.115368,19.6345575 L204.424338,15.2167821 L211.132812,15.2167821 L205.978741,36.3239314 Z M184.053485,33.7059904 C184.053485,35.8876188 184.639789,37.6465303 185.812414,38.9827777 C186.985039,40.3190251 188.525791,40.9871388 190.434716,40.9871388 C191.907315,40.9871388 193.257178,40.6053596 194.484344,39.8417896 C195.71151,39.0782197 196.775038,38.1101366 197.674959,36.9375113 C198.574881,35.7648861 199.270265,34.4422937 199.761131,32.9696945 C200.251997,31.4970953 200.497427,30.0517882 200.497427,28.6337297 C200.497427,26.6157234 199.883853,24.9522567 198.656687,23.6432797 C197.429521,22.3343026 195.943309,21.6798239 194.198006,21.6798239 C192.725407,21.6798239 191.36191,22.0479682 190.107474,22.7842678 C188.853037,23.5205674 187.775874,24.4750155 186.875953,25.6476408 C185.976031,26.820266 185.280647,28.1155885 184.789781,29.5336469 C184.298915,30.9517054 184.053485,32.3424726 184.053485,33.7059904 Z M225.83827,17.5074805 L236.800898,17.5074805 L236.800898,23.2342264 L236.964519,23.2342264 C238.491659,21.052598 240.33238,19.3618613 242.486739,18.1619657 C244.641097,16.9620701 247.109027,16.3621313 249.890603,16.3621313 C252.563098,16.3621313 255.003758,16.8802602 257.212657,17.9165337 C259.421555,18.9528072 261.098657,20.7798936 262.244012,23.3978477 C263.498448,21.5434636 265.20282,19.9072668 267.357178,18.4892083 C269.511536,17.0711499 272.061276,16.3621313 275.006474,16.3621313 C277.242644,16.3621313 279.315159,16.6348307 281.224084,17.1802378 C283.133009,17.7256449 284.769206,18.5982832 286.132724,19.7981788 C287.496241,20.9980745 288.559769,22.5660964 289.323339,24.5022916 C290.086909,26.4384868 290.468688,28.7700672 290.468688,31.4971027 L290.468688,59.8035898 L278.851575,59.8035898 L278.851575,35.8330675 C278.851575,34.415009 278.797035,33.0787816 278.687954,31.8243453 C278.578873,30.569909 278.278903,29.4791111 277.788037,28.5519191 C277.29717,27.624727 276.574517,26.8884384 275.620054,26.3430313 C274.665592,25.7976242 273.370269,25.5249248 271.734048,25.5249248 C270.097827,25.5249248 268.775234,25.8385292 267.766231,26.4657473 C266.757228,27.0929655 265.9664,27.9110639 265.393722,28.920067 C264.821045,29.9290701 264.439266,31.0744079 264.248373,32.3561146 C264.057481,33.6378213 263.962036,34.9331437 263.962036,36.2421207 L263.962036,59.8035898 L252.344923,59.8035898 L252.344923,36.0784994 C252.344923,34.8240631 252.317653,33.5832806 252.263112,32.3561146 C252.208571,31.1289486 251.976777,29.9972458 251.567721,28.9609723 C251.158666,27.9246988 250.476917,27.0929655 249.522455,26.4657473 C248.567993,25.8385292 247.16359,25.5249248 245.309206,25.5249248 C244.763799,25.5249248 244.041145,25.6476395 243.141224,25.8930727 C242.241302,26.1385059 241.368664,26.602095 240.523283,27.2838539 C239.677902,27.9656128 238.955248,28.9473308 238.3553,30.2290375 C237.755353,31.5107442 237.455383,33.1878459 237.455383,35.2603929 L237.455383,59.8035898 L225.83827,59.8035898 L225.83827,17.5074805 Z M294.538761,30.5153748 C294.702383,27.7883393 295.384132,25.5249338 296.584027,23.7250903 C297.783923,21.9252469 299.31104,20.4799398 301.165424,19.3891255 C303.019808,18.2983113 305.105959,17.5211179 307.423939,17.0575218 C309.741919,16.5939258 312.0735,16.3621313 314.41875,16.3621313 C316.545838,16.3621313 318.700164,16.512116 320.881792,16.8120899 C323.063421,17.1120638 325.054127,17.6983676 326.85397,18.571019 C328.653813,19.4436703 330.126391,20.6571829 331.271745,22.2115932 C332.4171,23.7660034 332.989769,25.8248844 332.989769,28.3882977 L332.989769,50.3953643 C332.989769,52.3042891 333.098849,54.1313755 333.317012,55.8766783 C333.535175,57.621981 333.916954,58.9309384 334.462361,59.8035898 L322.681627,59.8035898 C322.463464,59.1491012 322.286209,58.4809876 322.149857,57.7992287 C322.013506,57.1174698 321.918061,56.4220862 321.86352,55.713057 C320.009136,57.6219818 317.82754,58.9582092 315.318667,59.7217791 C312.809795,60.4853491 310.24642,60.8671283 307.628466,60.8671283 C305.61046,60.8671283 303.728833,60.6216988 301.983531,60.1308324 C300.238228,59.639966 298.711111,58.8764075 297.402134,57.840134 C296.093157,56.8038605 295.070534,55.4949031 294.334234,53.9132225 C293.597935,52.3315419 293.22979,50.4499156 293.22979,48.2682872 C293.22979,45.868496 293.652474,43.8914249 294.497855,42.3370146 C295.343236,40.7826044 296.434034,39.5418219 297.770282,38.6146298 C299.106529,37.6874377 300.633646,36.9920541 302.351678,36.528458 C304.069711,36.064862 305.801352,35.6967177 307.546655,35.4240142 C309.291958,35.1513106 311.009964,34.9331511 312.700726,34.7695289 C314.391489,34.6059068 315.891336,34.3604773 317.200313,34.033233 C318.50929,33.7059888 319.545548,33.2287647 320.309118,32.6015465 C321.072687,31.9743284 321.427197,31.0607852 321.372656,29.8608896 C321.372656,28.6064532 321.168131,27.6111002 320.759076,26.8748006 C320.350021,26.138501 319.804622,25.5658321 319.122863,25.1567768 C318.441104,24.7477215 317.650276,24.475022 316.750354,24.3386703 C315.850432,24.2023185 314.882349,24.1341436 313.846076,24.1341436 C311.555366,24.1341436 309.755549,24.6250026 308.446572,25.6067354 C307.137595,26.5884682 306.374037,28.224665 306.155874,30.5153748 L294.538761,30.5153748 Z M321.372656,39.1054937 C320.88179,39.5418194 320.268216,39.8826937 319.531916,40.1281269 C318.795617,40.3735601 318.004788,40.5780847 317.159407,40.7417068 C316.314026,40.905329 315.427753,41.0416787 314.500561,41.1507601 C313.573369,41.2598415 312.646191,41.3961913 311.718999,41.5598134 C310.846347,41.7234355 309.987344,41.9415951 309.141963,42.2142987 C308.296582,42.4870022 307.560293,42.8551465 306.933075,43.3187425 C306.305857,43.7823386 305.801363,44.3686424 305.419578,45.0776716 C305.037793,45.7867009 304.846903,46.6866091 304.846903,47.7774233 C304.846903,48.8136968 305.037793,49.6863351 305.419578,50.3953643 C305.801363,51.1043935 306.319492,51.6634274 306.973981,52.0724827 C307.628469,52.4815381 308.392028,52.7678725 309.264679,52.9314946 C310.13733,53.0951168 311.037239,53.1769266 311.964431,53.1769266 C314.25514,53.1769266 316.027687,52.7951474 317.282123,52.0315774 C318.53656,51.2680075 319.463738,50.3544643 320.063686,49.2909204 C320.663633,48.2273766 321.031778,47.1502137 321.168129,46.0593995 C321.304481,44.9685853 321.372656,44.095947 321.372656,43.4414585 L321.372656,39.1054937 Z M337.387084,17.5074805 L348.431523,17.5074805 L348.431523,25.3613035 L348.595144,25.3613035 C349.140551,24.0523264 349.87684,22.8388138 350.804032,21.7207293 C351.731224,20.6026447 352.794752,19.6481966 353.994647,18.8573563 C355.194543,18.066516 356.476231,17.4529422 357.839748,17.0166165 C359.203266,16.5802908 360.621303,16.3621313 362.093902,16.3621313 C362.857472,16.3621313 363.702841,16.498481 364.630033,16.7711845 L364.630033,27.5701912 C364.084626,27.4611098 363.430147,27.3656649 362.666577,27.2838539 C361.903007,27.2020428 361.166719,27.1611379 360.457689,27.1611379 C358.330602,27.1611379 356.530785,27.5156472 355.058186,28.2246764 C353.585587,28.9337057 352.399344,29.9017887 351.499422,31.1289547 C350.599501,32.3561207 349.958657,33.7877929 349.576872,35.4240142 C349.195087,37.0602355 349.004197,38.832782 349.004197,40.7417068 L349.004197,59.8035898 L337.387084,59.8035898 L337.387084,17.5074805 Z M377.543623,10.9626279 L365.92651,10.9626279 L365.92651,1.39078116 L377.543623,1.39078116 L377.543623,10.9626279 Z M365.92651,17.5074805 L377.543623,17.5074805 L377.543623,59.8035898 L365.92651,59.8035898 L365.92651,17.5074805 Z M391.423007,38.6964404 C391.423007,40.3872025 391.586627,42.0370342 391.913871,43.6459851 C392.241115,45.2549361 392.800149,46.7002432 393.59099,47.9819499 C394.38183,49.2636566 395.431723,50.2862796 396.7407,51.0498495 C398.049677,51.8134195 399.685874,52.1951987 401.649339,52.1951987 C403.612805,52.1951987 405.262636,51.8134195 406.598884,51.0498495 C407.935131,50.2862796 408.998659,49.2636566 409.789499,47.9819499 C410.58034,46.7002432 411.139374,45.2549361 411.466618,43.6459851 C411.793862,42.0370342 411.957482,40.3872025 411.957482,38.6964404 C411.957482,37.0056784 411.793862,35.3422117 411.466618,33.7059904 C411.139374,32.0697691 410.58034,30.624462 409.789499,29.3700256 C408.998659,28.1155893 407.935131,27.0929663 406.598884,26.302126 C405.262636,25.5112857 403.612805,25.1158715 401.649339,25.1158715 C399.685874,25.1158715 398.049677,25.5112857 396.7407,26.302126 C395.431723,27.0929663 394.38183,28.1155893 393.59099,29.3700256 C392.800149,30.624462 392.241115,32.0697691 391.913871,33.7059904 C391.586627,35.3422117 391.423007,37.0056784 391.423007,38.6964404 Z M379.805894,38.6964404 C379.805894,35.3149164 380.324023,32.2470475 381.360296,29.4927416 C382.39657,26.7384357 383.869147,24.3932204 385.778072,22.4570252 C387.686997,20.5208299 389.977672,19.0209829 392.650167,17.9574391 C395.322662,16.8938952 398.322356,16.3621313 401.649339,16.3621313 C404.976322,16.3621313 407.989652,16.8938952 410.689417,17.9574391 C413.389182,19.0209829 415.693492,20.5208299 417.602417,22.4570252 C419.511342,24.3932204 420.983919,26.7384357 422.020193,29.4927416 C423.056466,32.2470475 423.574595,35.3149164 423.574595,38.6964404 C423.574595,42.0779645 423.056466,45.1321984 422.020193,47.8592339 C420.983919,50.5862695 419.511342,52.9178498 417.602417,54.8540451 C415.693492,56.7902403 413.389182,58.2764523 410.689417,59.3127258 C407.989652,60.3489993 404.976322,60.8671283 401.649339,60.8671283 C398.322356,60.8671283 395.322662,60.3489993 392.650167,59.3127258 C389.977672,58.2764523 387.686997,56.7902403 385.778072,54.8540451 C383.869147,52.9178498 382.39657,50.5862695 381.360296,47.8592339 C380.324023,45.1321984 379.805894,42.0779645 379.805894,38.6964404 Z M446.215686,49.8226897 C447.851908,49.8226897 449.297215,49.4954503 450.551651,48.8409618 C451.806088,48.1864733 452.842345,47.313835 453.660456,46.2230208 C454.478567,45.1322066 455.092141,43.8914241 455.501196,42.500636 C455.910251,41.1098478 456.114776,39.6509057 456.114776,38.1237658 C456.114776,36.3784631 455.951156,34.7286314 455.623912,33.1742211 C455.296668,31.6198109 454.751269,30.2426786 453.987699,29.042783 C453.224129,27.8428874 452.215141,26.8884393 450.960704,26.17941 C449.706268,25.4703808 448.124611,25.1158715 446.215686,25.1158715 C444.579465,25.1158715 443.175063,25.4431108 442.002438,26.0975994 C440.829812,26.7520879 439.848094,27.6383611 439.057254,28.7564457 C438.266414,29.8745303 437.693745,31.1562177 437.33923,32.6015465 C436.984716,34.0468754 436.807461,35.5603574 436.807461,37.142038 C436.807461,38.6691779 436.957446,40.1826599 437.25742,41.6825294 C437.557393,43.1823989 438.075522,44.5322613 438.811822,45.7321569 C439.548122,46.9320525 440.516205,47.9137706 441.7161,48.6773405 C442.915996,49.4409105 444.415843,49.8226897 446.215686,49.8226897 Z M467.159214,57.1038381 C467.159214,58.7946001 466.92742,60.7307663 466.463824,62.9123947 C466.000228,65.0940231 465.004875,67.1256341 463.477735,69.0072886 C461.950595,70.8889431 459.741729,72.484235 456.851072,73.793212 C453.960414,75.102189 450.088082,75.7566677 445.233959,75.7566677 C443.161412,75.7566677 441.047991,75.4976033 438.893633,74.9794665 C436.739275,74.4613298 434.775838,73.6568664 433.003265,72.5660522 C431.230692,71.4752379 429.758115,70.0708357 428.58549,68.3528034 C427.412865,66.634771 426.744751,64.5758901 426.581129,62.1760988 L438.116431,62.1760988 C438.661839,64.3577272 439.725366,65.8712092 441.307047,66.7165902 C442.888728,67.5619712 444.715814,67.9846554 446.788361,67.9846554 C450.060804,67.9846554 452.446924,67.0029373 453.946793,65.0394718 C455.446663,63.0760062 456.169317,60.5944411 456.114776,57.594702 L456.114776,52.0315774 L455.951154,52.0315774 C454.696718,54.2677465 452.910537,55.9175783 450.592556,56.9811221 C448.274576,58.044666 445.833916,58.5764299 443.270503,58.5764299 C440.107142,58.5764299 437.380147,58.017396 435.089437,56.8993115 C432.798727,55.7812269 430.917101,54.2541099 429.444502,52.3179147 C427.971903,50.3817195 426.89474,48.118314 426.212981,45.5276302 C425.531222,42.9369465 425.190348,40.1963169 425.190348,37.3056593 C425.190348,34.5786238 425.585762,31.947074 426.376602,29.4109309 C427.167443,26.8747879 428.326415,24.6386523 429.853555,22.7024571 C431.380695,20.7662619 433.275956,19.22551 435.539396,18.080155 C437.802835,16.9348001 440.407115,16.3621313 443.352313,16.3621313 C446.13389,16.3621313 448.57455,16.8802602 450.674367,17.9165337 C452.774184,18.9528072 454.533096,20.6980838 455.951154,23.1524157 L456.114776,23.1524157 L456.114776,17.5074805 L467.159214,17.5074805 L467.159214,57.1038381 Z M482.191915,38.6964404 C482.191915,40.3872025 482.355534,42.0370342 482.682779,43.6459851 C483.010023,45.2549361 483.569057,46.7002432 484.359897,47.9819499 C485.150737,49.2636566 486.20063,50.2862796 487.509607,51.0498495 C488.818584,51.8134195 490.454781,52.1951987 492.418247,52.1951987 C494.381712,52.1951987 496.031544,51.8134195 497.367791,51.0498495 C498.704039,50.2862796 499.767567,49.2636566 500.558407,47.9819499 C501.349247,46.7002432 501.908281,45.2549361 502.235525,43.6459851 C502.56277,42.0370342 502.726389,40.3872025 502.726389,38.6964404 C502.726389,37.0056784 502.56277,35.3422117 502.235525,33.7059904 C501.908281,32.0697691 501.349247,30.624462 500.558407,29.3700256 C499.767567,28.1155893 498.704039,27.0929663 497.367791,26.302126 C496.031544,25.5112857 494.381712,25.1158715 492.418247,25.1158715 C490.454781,25.1158715 488.818584,25.5112857 487.509607,26.302126 C486.20063,27.0929663 485.150737,28.1155893 484.359897,29.3700256 C483.569057,30.624462 483.010023,32.0697691 482.682779,33.7059904 C482.355534,35.3422117 482.191915,37.0056784 482.191915,38.6964404 Z M470.574802,38.6964404 C470.574802,35.3149164 471.09293,32.2470475 472.129204,29.4927416 C473.165477,26.7384357 474.638055,24.3932204 476.546979,22.4570252 C478.455904,20.5208299 480.74658,19.0209829 483.419075,17.9574391 C486.091569,16.8938952 489.091263,16.3621313 492.418247,16.3621313 C495.74523,16.3621313 498.758559,16.8938952 501.458324,17.9574391 C504.158089,19.0209829 506.4624,20.5208299 508.371325,22.4570252 C510.28025,24.3932204 511.752827,26.7384357 512.7891,29.4927416 C513.825374,32.2470475 514.343503,35.3149164 514.343503,38.6964404 C514.343503,42.0779645 513.825374,45.1321984 512.7891,47.8592339 C511.752827,50.5862695 510.28025,52.9178498 508.371325,54.8540451 C506.4624,56.7902403 504.158089,58.2764523 501.458324,59.3127258 C498.758559,60.3489993 495.74523,60.8671283 492.418247,60.8671283 C489.091263,60.8671283 486.091569,60.3489993 483.419075,59.3127258 C480.74658,58.2764523 478.455904,56.7902403 476.546979,54.8540451 C474.638055,52.9178498 473.165477,50.5862695 472.129204,47.8592339 C471.09293,45.1321984 470.574802,42.0779645 470.574802,38.6964404 Z M536.984594,49.8226897 C538.620815,49.8226897 540.066122,49.4954503 541.320559,48.8409618 C542.574995,48.1864733 543.611253,47.313835 544.429364,46.2230208 C545.247474,45.1322066 545.861048,43.8914241 546.270103,42.500636 C546.679159,41.1098478 546.883683,39.6509057 546.883683,38.1237658 C546.883683,36.3784631 546.720064,34.7286314 546.392819,33.1742211 C546.065575,31.6198109 545.520176,30.2426786 544.756606,29.042783 C543.993036,27.8428874 542.984048,26.8884393 541.729612,26.17941 C540.475176,25.4703808 538.893519,25.1158715 536.984594,25.1158715 C535.348373,25.1158715 533.94397,25.4431108 532.771345,26.0975994 C531.59872,26.7520879 530.617002,27.6383611 529.826162,28.7564457 C529.035321,29.8745303 528.462652,31.1562177 528.108138,32.6015465 C527.753623,34.0468754 527.576368,35.5603574 527.576368,37.142038 C527.576368,38.6691779 527.726353,40.1826599 528.026327,41.6825294 C528.326301,43.1823989 528.84443,44.5322613 529.58073,45.7321569 C530.317029,46.9320525 531.285112,47.9137706 532.485008,48.6773405 C533.684903,49.4409105 535.184751,49.8226897 536.984594,49.8226897 Z M557.928122,57.1038381 C557.928122,58.7946001 557.696327,60.7307663 557.232731,62.9123947 C556.769135,65.0940231 555.773782,67.1256341 554.246642,69.0072886 C552.719503,70.8889431 550.510637,72.484235 547.619979,73.793212 C544.729322,75.102189 540.856989,75.7566677 536.002866,75.7566677 C533.930319,75.7566677 531.816898,75.4976033 529.66254,74.9794665 C527.508182,74.4613298 525.544746,73.6568664 523.772173,72.5660522 C521.9996,71.4752379 520.527023,70.0708357 519.354398,68.3528034 C518.181772,66.634771 517.513659,64.5758901 517.350036,62.1760988 L528.885339,62.1760988 C529.430746,64.3577272 530.494274,65.8712092 532.075955,66.7165902 C533.657635,67.5619712 535.484722,67.9846554 537.557269,67.9846554 C540.829711,67.9846554 543.215831,67.0029373 544.715701,65.0394718 C546.215571,63.0760062 546.938224,60.5944411 546.883683,57.594702 L546.883683,52.0315774 L546.720062,52.0315774 C545.465626,54.2677465 543.679444,55.9175783 541.361464,56.9811221 C539.043484,58.044666 536.602824,58.5764299 534.03941,58.5764299 C530.876049,58.5764299 528.149055,58.017396 525.858345,56.8993115 C523.567635,55.7812269 521.686009,54.2541099 520.213409,52.3179147 C518.74081,50.3817195 517.663647,48.118314 516.981888,45.5276302 C516.30013,42.9369465 515.959255,40.1963169 515.959255,37.3056593 C515.959255,34.5786238 516.35467,31.947074 517.14551,29.4109309 C517.93635,26.8747879 519.095323,24.6386523 520.622463,22.7024571 C522.149603,20.7662619 524.044864,19.22551 526.308303,18.080155 C528.571743,16.9348001 531.176023,16.3621313 534.121221,16.3621313 C536.902797,16.3621313 539.343457,16.8802602 541.443275,17.9165337 C543.543092,18.9528072 545.302004,20.6980838 546.720062,23.1524157 L546.883683,23.1524157 L546.883683,17.5074805 L557.928122,17.5074805 L557.928122,57.1038381 Z M562.65268,1.39078116 L574.269793,1.39078116 L574.269793,23.3978477 L574.515225,23.3978477 C575.987824,20.9435157 577.86945,19.1573343 580.16016,18.0392497 C582.45087,16.9211652 584.687005,16.3621313 586.868634,16.3621313 C589.977454,16.3621313 592.527194,16.7848154 594.51793,17.6301964 C596.508666,18.4755774 598.076688,19.6481851 599.222043,21.1480547 C600.367398,22.6479242 601.171861,24.4750106 601.635457,26.6293686 C602.099053,28.7837267 602.330848,31.169847 602.330848,33.7878011 L602.330848,59.8035898 L590.713735,59.8035898 L590.713735,35.9148781 C590.713735,32.4242727 590.168336,29.8199928 589.077522,28.1019604 C587.986707,26.3839281 586.050541,25.5249248 583.268965,25.5249248 C580.105604,25.5249248 577.814928,26.4657379 576.39687,28.3473924 C574.978811,30.2290469 574.269793,33.3241858 574.269793,37.6329019 L574.269793,59.8035898 L562.65268,59.8035898 L562.65268,1.39078116 Z M607.055405,47.2047487 L619.899679,47.2047487 L619.899679,59.8035898 L607.055405,59.8035898 L607.055405,47.2047487 Z M653.503398,32.3970199 C652.739828,27.5428967 649.876484,25.1158715 644.913279,25.1158715 C643.058895,25.1158715 641.504508,25.5385557 640.250071,26.3839367 C638.995635,27.2293177 637.973012,28.3201155 637.182172,29.6563629 C636.391332,30.9926103 635.832298,32.4651874 635.505053,34.0741384 C635.177809,35.6830893 635.014189,37.2783812 635.014189,38.8600617 C635.014189,40.3872016 635.177809,41.9415886 635.505053,43.5232692 C635.832298,45.1049498 636.364062,46.5366219 637.100361,47.8183286 C637.836661,49.1000353 638.832014,50.1499282 640.08645,50.9680389 C641.340887,51.7861495 642.868003,52.1951987 644.667847,52.1951987 C647.449423,52.1951987 649.590114,51.4180053 651.089983,49.863595 C652.589853,48.3091848 653.530666,46.2230339 653.912451,43.6050798 L665.120511,43.6050798 C664.356941,49.222773 662.175345,53.5041545 658.575659,56.4493529 C654.975972,59.3945512 650.367351,60.8671283 644.749658,60.8671283 C641.586296,60.8671283 638.682047,60.3353644 636.036823,59.2718205 C633.391598,58.2082767 631.141828,56.7220646 629.287444,54.8131397 C627.433059,52.9042149 625.987752,50.6271744 624.951479,47.9819499 C623.915205,45.3367255 623.397076,42.4324762 623.397076,39.269115 C623.397076,35.9966724 623.8743,32.9560734 624.828763,30.1472269 C625.783225,27.3383803 627.187627,24.9113551 629.042012,22.8660784 C630.896396,20.8208018 633.159801,19.22551 635.832296,18.080155 C638.504791,16.9348001 641.559025,16.3621313 644.99509,16.3621313 C647.503962,16.3621313 649.917352,16.6893706 652.235333,17.3438591 C654.553313,17.9983477 656.625829,18.9937007 658.452943,20.3299481 C660.280056,21.6661955 661.766268,23.3296622 662.911623,25.3203981 C664.056978,27.3111341 664.711457,29.6699844 664.875079,32.3970199 L653.503398,32.3970199 Z M677.371649,38.6964404 C677.371649,40.3872025 677.535269,42.0370342 677.862513,43.6459851 C678.189757,45.2549361 678.748791,46.7002432 679.539631,47.9819499 C680.330472,49.2636566 681.380365,50.2862796 682.689342,51.0498495 C683.998319,51.8134195 685.634515,52.1951987 687.597981,52.1951987 C689.561447,52.1951987 691.211278,51.8134195 692.547526,51.0498495 C693.883773,50.2862796 694.947301,49.2636566 695.738141,47.9819499 C696.528982,46.7002432 697.088016,45.2549361 697.41526,43.6459851 C697.742504,42.0370342 697.906124,40.3872025 697.906124,38.6964404 C697.906124,37.0056784 697.742504,35.3422117 697.41526,33.7059904 C697.088016,32.0697691 696.528982,30.624462 695.738141,29.3700256 C694.947301,28.1155893 693.883773,27.0929663 692.547526,26.302126 C691.211278,25.5112857 689.561447,25.1158715 687.597981,25.1158715 C685.634515,25.1158715 683.998319,25.5112857 682.689342,26.302126 C681.380365,27.0929663 680.330472,28.1155893 679.539631,29.3700256 C678.748791,30.624462 678.189757,32.0697691 677.862513,33.7059904 C677.535269,35.3422117 677.371649,37.0056784 677.371649,38.6964404 Z M665.754536,38.6964404 C665.754536,35.3149164 666.272665,32.2470475 667.308938,29.4927416 C668.345212,26.7384357 669.817789,24.3932204 671.726714,22.4570252 C673.635639,20.5208299 675.926314,19.0209829 678.598809,17.9574391 C681.271304,16.8938952 684.270998,16.3621313 687.597981,16.3621313 C690.924964,16.3621313 693.938293,16.8938952 696.638059,17.9574391 C699.337824,19.0209829 701.642134,20.5208299 703.551059,22.4570252 C705.459984,24.3932204 706.932561,26.7384357 707.968834,29.4927416 C709.005108,32.2470475 709.523237,35.3149164 709.523237,38.6964404 C709.523237,42.0779645 709.005108,45.1321984 707.968834,47.8592339 C706.932561,50.5862695 705.459984,52.9178498 703.551059,54.8540451 C701.642134,56.7902403 699.337824,58.2764523 696.638059,59.3127258 C693.938293,60.3489993 690.924964,60.8671283 687.597981,60.8671283 C684.270998,60.8671283 681.271304,60.3489993 678.598809,59.3127258 C675.926314,58.2764523 673.635639,56.7902403 671.726714,54.8540451 C669.817789,52.9178498 668.345212,50.5862695 667.308938,47.8592339 C666.272665,45.1321984 665.754536,42.0779645 665.754536,38.6964404 Z M712.775203,17.5074805 L723.737831,17.5074805 L723.737831,23.2342264 L723.901452,23.2342264 C725.428592,21.052598 727.269313,19.3618613 729.423671,18.1619657 C731.578029,16.9620701 734.045959,16.3621313 736.827536,16.3621313 C739.50003,16.3621313 741.940691,16.8802602 744.149589,17.9165337 C746.358488,18.9528072 748.03559,20.7798936 749.180945,23.3978477 C750.435381,21.5434636 752.139753,19.9072668 754.294111,18.4892083 C756.448469,17.0711499 758.998209,16.3621313 761.943407,16.3621313 C764.179576,16.3621313 766.252092,16.6348307 768.161017,17.1802378 C770.069942,17.7256449 771.706139,18.5982832 773.069656,19.7981788 C774.433174,20.9980745 775.496702,22.5660964 776.260272,24.5022916 C777.023842,26.4384868 777.405621,28.7700672 777.405621,31.4971027 L777.405621,59.8035898 L765.788508,59.8035898 L765.788508,35.8330675 C765.788508,34.415009 765.733968,33.0787816 765.624887,31.8243453 C765.515805,30.569909 765.215836,29.4791111 764.724969,28.5519191 C764.234103,27.624727 763.51145,26.8884384 762.556987,26.3430313 C761.602525,25.7976242 760.307202,25.5249248 758.670981,25.5249248 C757.03476,25.5249248 755.712167,25.8385292 754.703164,26.4657473 C753.694161,27.0929655 752.903332,27.9110639 752.330655,28.920067 C751.757978,29.9290701 751.376198,31.0744079 751.185306,32.3561146 C750.994413,33.6378213 750.898969,34.9331437 750.898969,36.2421207 L750.898969,59.8035898 L739.281855,59.8035898 L739.281855,36.0784994 C739.281855,34.8240631 739.254585,33.5832806 739.200045,32.3561146 C739.145504,31.1289486 738.913709,29.9972458 738.504654,28.9609723 C738.095599,27.9246988 737.41385,27.0929655 736.459388,26.4657473 C735.504925,25.8385292 734.100523,25.5249248 732.246139,25.5249248 C731.700732,25.5249248 730.978078,25.6476395 730.078157,25.8930727 C729.178235,26.1385059 728.305597,26.602095 727.460216,27.2838539 C726.614835,27.9656128 725.892181,28.9473308 725.292233,30.2290375 C724.692285,31.5107442 724.392316,33.1878459 724.392316,35.2603929 L724.392316,59.8035898 L712.775203,59.8035898 L712.775203,17.5074805 Z" id="hello@mariogogh.com" fill="#000000"></path>
    </g>
</svg>