<svg height="30" viewBox="0 0 301 30" width="301" xmlns="http://www.w3.org/2000/svg"><path d="m0 .53841309h4.49733287v8.51959537h.09501408c.57008729-.9501455 1.29852125-1.64162991 2.18532371-2.07447397.88680247-.43284406 1.7524776-.64926284 2.59705138-.64926284 1.20351766 0 2.19059846.16363371 2.96127196.49090605.7706736.32727234 1.3777019.78122394 1.8211031 1.36186841.4434013.58064447.7548332 1.2879644.9343051 2.12198099.1794719.8340166.2692065 1.7577553.2692065 2.7712439v10.0714919h-4.4973328v-9.2480366c0-1.3513181-.2111403-2.3595129-.6334272-3.0246147-.42228687-.6651019-1.17183486-.99764783-2.24866642-.99764783-1.22463198 0-2.11142114.36421703-2.66039409 1.09266183-.54897296.7284449-.82345532 1.926666-.82345532 3.5946992v8.5829381h-4.49733287zm28.0212312 12.66854331c-.2111435-1.1401746-.5859174-2.0058497-1.1243332-2.5970514-.5384158-.5912016-1.3565844-.88679802-2.4545303-.88679802-.7178877 0-1.314359.12140566-1.7894317.36422062-.4750728.242815-.8551253.5436899-1.1401689.9026337-.2850437.3589439-.4856269.7389964-.6017558 1.1401689-.1161289.4011726-.1847495.760111-.2058639 1.0768262zm-7.3160838 2.8504222c.0633431 1.4568898.4328386 2.5125912 1.1084976 3.1671359.675659.6545446 1.6469043.9818121 2.9137649.9818121.9079168 0 1.6891359-.2269758 2.3436805-.6809342.6545447-.4539584 1.0557112-.9343026 1.2035117-1.4410468h3.9589197c-.6334303 1.963634-1.6046756 3.3677168-2.9137649 4.2122906-1.3090894.8445738-2.8926415 1.2668543-4.7507038 1.2668543-1.287975 0-2.4492465-.2058617-3.4838494-.6175915-1.0346028-.4117297-1.910835-.9976439-2.6287227-1.7577603s-1.2721309-1.6680196-1.6627463-2.7237368c-.3906154-1.0557173-.5859201-2.2169888-.5859201-3.4838494 0-1.224632.2005832-2.3647895.6017558-3.4205067.4011725-1.0557173.9712513-1.96889896 1.7102533-2.73957253.7390021-.77067357 1.6205127-1.37770187 2.6445584-1.8211031s2.1589247-.66509852 3.404671-.66509852c1.3935468 0 2.6076034.26920385 3.6422062.80761963 1.0346029.53841579 1.8844425 1.26157124 2.5495444 2.16948804.6651018.90791678 1.145446 1.94250418 1.4410468 3.10379308.2956008 1.161289.4011709 2.3753456.3167136 3.6422062zm12.8189793-15.51896551h4.4973328v22.61334981h-4.4973328zm6.3896935 0h4.4973328v22.61334981h-4.4973328zm10.2535992 14.44213941c0 .6545446.0633421 1.293244.1900281 1.9161171.1266861.6228732.3431049 1.1823949.6492629 1.678582s.712603.8920751 1.2193473 1.1876759c.5067442.2956009 1.1401651.4433991 1.9002815.4433991s1.3988157-.1477982 1.9161171-.4433991c.5173015-.2956008.929025-.6914888 1.235183-1.1876759s.5225768-1.0557088.6492629-1.678582c.126686-.6228731.1900281-1.2615725.1900281-1.9161171 0-.6545447-.0633421-1.2985226-.1900281-1.9319529-.1266861-.6334303-.3431049-1.1929521-.6492629-1.678582s-.7178815-.8815179-1.235183-1.1876759c-.5173014-.30615802-1.1560007-.45923472-1.9161171-.45923472s-1.3935373.1530767-1.9002815.45923472c-.5067443.306158-.9131893.702046-1.2193473 1.1876759s-.5225768 1.0451517-.6492629 1.678582c-.126686.6334303-.1900281 1.2774082-.1900281 1.9319529zm-4.4973329 0c0-1.3090894.2005833-2.4967535.6017558-3.5630279.4011726-1.0662743.9712513-1.97417754 1.7102534-2.72373676.739002-.74955923 1.6257912-1.33019499 2.6603941-1.7419247 1.0346028-.41172972 2.1958744-.61759149 3.4838494-.61759149s2.454525.20586177 3.499685.61759149c1.0451601.41172971 1.9372278.99236547 2.6762298 1.7419247.7390021.74955922 1.3090808 1.65746246 1.7102534 2.72373676.4011725 1.0662744.6017558 2.2539385.6017558 3.5630279 0 1.3090893-.2005833 2.4914749-.6017558 3.5471921-.4011726 1.0557172-.9712513 1.9583419-1.7102534 2.7079011-.739002.7495592-1.6310697 1.3249165-2.6762298 1.726089-1.04516.4011726-2.21171.6017558-3.499685.6017558s-2.4492466-.2005832-3.4838494-.6017558c-1.0346029-.4011725-1.9213921-.9765298-2.6603941-1.726089-.7390021-.7495592-1.3090808-1.6521839-1.7102534-2.7079011-.4011725-1.0557172-.6017558-2.2381028-.6017558-3.5471921zm34.0704606-.9184694c-.063343.2111434-.1214066.4381192-.1741924.6809342-.0527859.2428149-.0791784.4697907-.0791784.6809342 0 .2111434.042228.3853341.1266854.5225774.0844574.1372432.2216985.2058638.4117276.2058638.4434013 0 .8920744-.1425197 1.3460328-.4275633.4539584-.2850437.8551249-.6862102 1.2035116-1.2035116.3483867-.5173015.633426-1.1348868.8551267-1.8527745.2217006-.7178877.3325492-1.4991067.3325492-2.3436805 0-1.26686068-.2216973-2.38062564-.6650985-3.34132831s-1.0504295-1.77359273-1.8211031-2.43869458-1.6785768-1.16656001-2.7237368-1.50438952c-1.0451601-.33782951-2.169482-.50674173-3.3729997-.50674173-1.351318 0-2.5812101.23753281-3.6897132.71260556s-2.0533558 1.12960761-2.8345866 1.96362421c-.7812307.83401661-1.3829805 1.82637591-1.8052674 2.97710768s-.6334271 2.39118089-.6334271 3.72138459c0 1.3935467.2322543 2.6551099.6967698 3.7847273.4645156 1.1296174 1.1084935 2.1008627 1.9319529 2.913765.8234594.8129022 1.8105402 1.4410446 2.961272 1.8844458s2.4017379.6650985 3.7530559.6650985c1.3302037 0 2.5917669-.2269758 3.7847273-.6809342 1.1929605-.4539584 2.2011553-1.0926577 3.0246148-1.9161172h2.660394c-1.0768315 1.6469189-2.4598003 2.908482-4.1489479 3.7847273-1.6891475.8762453-3.5260679 1.3143614-5.5108163 1.3143614-1.6891476 0-3.2726996-.2955964-4.7507038-.886798-1.4780041-.5912017-2.7712383-1.4146487-3.8797413-2.470366-1.1085031-1.0557172-1.9794568-2.3067233-2.6128871-3.7530559s-.9501407-3.0140492-.9501407-4.7031967c0-1.6680332.3167104-3.22519277.9501407-4.67152536s1.4991055-2.69733873 2.5970514-3.75305595 2.3753446-1.88972131 3.8322343-2.5020373c1.4568898-.61231599 3.0087708-.91846939 4.6556897-.91846939 1.4357754 0 2.8187442.23225431 4.1489479.69676988 1.3302037.46451558 2.5020323 1.11377193 3.5155208 1.94778853 1.0134885.83401661 1.8263786 1.84748994 2.4386946 3.0404504.612316 1.19296045.9184694 2.51786569.9184694 3.97475546 0 1.62580453-.2903179 3.01933033-.8709624 4.18061933-.5806445 1.1612889-1.2774074 2.1114201-2.0903096 2.8504222-.8129023.739002-1.6363494 1.2826883-2.470366 1.6310749-.8340166.3483867-1.504387.5225775-2.0111312.5225775-.675659 0-1.2193453-.1689123-1.631075-.5067418s-.6387055-.7706671-.6809342-1.2985257h-.0633427c-.3800582.6334304-.8762378 1.097939-1.4885538 1.3935398s-1.2562939.443399-1.9319529.443399-1.3143583-.1425197-1.9161172-.4275633c-.6017588-.2850437-1.1296095-.6756532-1.5835679-1.1718403s-.8128968-1.0715443-1.0768262-1.726089c-.2639293-.6545447-.3958919-1.3513076-.3958919-2.0903096 0-.9923742.1636337-1.9741765.490906-2.9454364.3272724-.9712598.791781-1.83693494 1.3935398-2.59705134s1.3301928-1.3724232 2.1853237-1.83693878c.855131-.46451557 1.7999837-.69676988 2.8345866-.69676988.675659 0 1.3724219.16363372 2.0903096.49090605.7178877.32727234 1.2562954.9026296 1.6152393 1.72608903l.5067417-1.71025335h2.5970514zm-8.487924-1.0134835c0 .8445738.2269758 1.5255012.6809342 2.0428026s1.0504297.7759483 1.7894318.7759483c.5700873 0 1.0926594-.1477982 1.5677322-.443399.4750727-.2956009.8867963-.6703748 1.235183-1.1243333.3483866-.4539584.6175905-.9659735.8076196-1.5360608s.2850422-1.1296091.2850422-1.678582c0-.7812308-.2375328-1.4252086-.7126055-1.93195287-.4750728-.50674426-1.05043-.76011259-1.7260891-.76011259-.5700873 0-1.097938.14251968-1.5835679.42756333s-.9026319.65453914-1.2510186 1.10849754c-.3483867.45395839-.6175906.95541659-.8076197 1.50438949-.1900291.548973-.2850422 1.0873807-.2850422 1.6152393zm16.1761432-6.27092894h4.243962v2.21699508h.0633427c.5912017-.84457377 1.3038001-1.49910863 2.1378167-1.96362421s1.7894264-.69676988 2.8662579-.69676988c1.0346029 0 1.9794557.20058326 2.8345866.60175581.8551308.40117254 1.5043878 1.10849247 1.9477888 2.121981.48563-.71788771 1.145443-1.35130854 1.97946-1.9002815.834016-.54897295 1.821097-.82345531 2.961272-.82345531.865688 0 1.668021.10557014 2.407023.31671358.739002.21114345 1.372423.54896789 1.900281 1.01348347.527859.46451557.939582 1.07154387 1.235183 1.82110309.295601.74955921.443399 1.65218391.443399 2.70790111v10.95829h-4.497333v-9.279708c0-.5489729-.021114-1.0662666-.063342-1.5518965-.042229-.48563-.158356-.9079105-.348385-1.2668544-.190029-.3589438-.46979-.6439832-.839291-.8551266-.369501-.21114349-.870959-.31671363-1.50439-.31671363-.63343 0-1.145445.12140563-1.536061.36422063-.390615.242815-.696768.5595254-.918469.9501407-.221701.3906154-.369499.83401-.443399 1.3301971s-.11085.9976452-.11085 1.5043895v9.1213512h-4.4973326v-9.1846939c0-.4856299-.010557-.9659741-.0316714-1.4410468-.0211143-.4750728-.1108489-.9131888-.2692065-1.3143614-.1583576-.4011725-.4222829-.7231614-.791784-.9659764-.369501-.242815-.9131872-.36422063-1.6310749-.36422063-.2111435 0-.4909043.04750657-.839291.14252113-.3483867.0950145-.6862111.2744838-1.0134835.5384131-.3272723.2639293-.6070332.6439818-.839291 1.1401689s-.3483849 1.1454434-.3483849 1.9477885v9.5014075h-4.4973329zm26.5960197 5.03574594c.063343-1.0557172.327269-1.93194934.791784-2.62872271.464516-.69677336 1.055709-1.2562951 1.773596-1.67858199.717888-.42228688 1.5255-.72316178 2.422859-.90263371.89736-.17947192 1.799985-.26920654 2.707901-.26920654.82346 0 1.657464.05806358 2.502038.17419247s1.615236.34310469 2.312009.6809342 1.266852.80761663 1.710253 1.40937544c.443401.60175882.665099 1.39881336.665099 2.39118754v8.5195954c0 .739002.042228 1.446322.126685 2.121981.084458.675659.232256 1.1823957.443399 1.5202252h-4.560675c-.084458-.2533722-.153078-.512019-.205864-.7759483s-.089736-.5331332-.11085-.8076196c-.717888.739002-1.562449 1.2562957-2.533709 1.5518965-.971259.2956008-1.963619.443399-2.977107.443399-.781231 0-1.509665-.0950131-2.185324-.2850422s-1.266852-.4856255-1.773596-.886798c-.506744-.4011726-.902632-.9079092-1.187676-1.5202252s-.427563-1.34075-.427563-2.1853237c0-.9290312.163633-1.6944147.490906-2.2961735.327272-.6017588.749553-1.082103 1.266854-1.4410468.517301-.3589439 1.108494-.6281477 1.773596-.8076196.665102-.179472 1.335472-.3219917 2.011131-.4275634s1.340751-.1900278 1.995296-.2533708c.654545-.0633431 1.23518-.1583562 1.741925-.2850423.506744-.126686.90791-.3114338 1.203511-.5542487.295601-.242815.432842-.596475.411728-1.0609905 0-.48563-.079178-.870961-.237535-1.1560046-.158358-.2850437-.369498-.50674096-.633427-.66509854-.26393-.15835758-.570083-.26392772-.91847-.31671358s-.723161-.0791784-1.124333-.0791784c-.886803 0-1.583565.19002625-2.09031.57008445-.506744.38005817-.80234 1.01347907-.886798 1.90028147zm10.388206 3.3254926c-.190029.1689148-.427562.3008775-.712606.395892-.285043.0950146-.591197.1741922-.918469.2375352s-.670375.1161281-1.029319.1583568-.717883.0950138-1.076826.1583568c-.33783.063343-.670376.1477991-.997648.2533709-.327273.1055717-.612312.2480914-.855127.4275633s-.43812.4064477-.58592.6809342-.221699.6228679-.221699 1.0451548c0 .4011726.073899.738997.221699 1.0134835s.348384.4909052.601756.6492628.548968.2692063.886798.3325493c.337829.063343.686211.0950141 1.045155.0950141.886802 0 1.573008-.1477982 2.058638-.4433991.48563-.2956008.844568-.6492607 1.076826-1.0609905.232258-.4117297.374778-.8287317.427563-1.2510186.052786-.4222869.079179-.7601113.079179-1.0134835zm6.199665-8.36123854h4.275634v3.0404504h.063342c.211144-.50674427.496183-.97653139.855127-1.40937545s.770667-.80233954 1.235183-1.10849753c.464516-.306158.960695-.54369081 1.488554-.71260556.527858-.16891476 1.076823-.25337087 1.64691-.25337087.295601 0 .622869.05278507.981813.15835679v4.18061926c-.211144-.0422287-.464512-.0791782-.760113-.1108497s-.58064-.0475071-.855127-.0475071c-.823459 0-1.520222.1372412-2.090309.4117277-.570088.2744865-1.029318.6492605-1.377704 1.1243332-.348387.4750728-.596477 1.029316-.744277 1.6627463-.147801.6334304-.2217 1.3196363-.2217 2.0586383v7.3794265h-4.497333zm15.545801-2.53370866h-4.497333v-3.70554891h4.497333zm-4.497333 2.53370866h4.497333v16.37409224h-4.497333zm9.870458 8.20288184c0 .6545446.063342 1.293244.190028 1.9161171.126687.6228732.343105 1.1823949.649263 1.678582s.712603.8920751 1.219348 1.1876759c.506744.2956009 1.140165.4433991 1.900281.4433991.760117 0 1.398816-.1477982 1.916117-.4433991.517302-.2956008.929025-.6914888 1.235183-1.1876759s.522577-1.0557088.649263-1.678582c.126686-.6228731.190028-1.2615725.190028-1.9161171 0-.6545447-.063342-1.2985226-.190028-1.9319529s-.343105-1.1929521-.649263-1.678582-.717881-.8815179-1.235183-1.1876759c-.517301-.30615802-1.156-.45923472-1.916117-.45923472-.760116 0-1.393537.1530767-1.900281.45923472-.506745.306158-.91319.702046-1.219348 1.1876759s-.522576 1.0451517-.649263 1.678582c-.126686.6334303-.190028 1.2774082-.190028 1.9319529zm-4.497333 0c0-1.3090894.200584-2.4967535.601756-3.5630279.401173-1.0662743.971252-1.97417754 1.710254-2.72373676.739002-.74955923 1.625791-1.33019499 2.660394-1.7419247 1.034603-.41172972 2.195874-.61759149 3.483849-.61759149s2.454525.20586177 3.499685.61759149c1.04516.41172971 1.937228.99236547 2.67623 1.7419247.739002.74955922 1.309081 1.65746246 1.710253 2.72373676.401173 1.0662744.601756 2.2539385.601756 3.5630279 0 1.3090893-.200583 2.4914749-.601756 3.5471921-.401172 1.0557172-.971251 1.9583419-1.710253 2.7079011s-1.63107 1.3249165-2.67623 1.726089c-1.04516.4011726-2.21171.6017558-3.499685.6017558s-2.449246-.2005832-3.483849-.6017558c-1.034603-.4011725-1.921392-.9765298-2.660394-1.726089s-1.309081-1.6521839-1.710254-2.7079011c-.401172-1.0557172-.601756-2.2381028-.601756-3.5471921zm25.709222 4.3073047c.633431 0 1.192953-.1266842 1.678582-.3800563.48563-.2533722.886797-.5911966 1.203512-1.0134835s.554248-.902631.712606-1.4410468c.158357-.5384158.237535-1.103216.237535-1.6944177 0-.675659-.063342-1.3143583-.190028-1.9161171s-.337827-1.134888-.633427-1.5994036c-.295601-.4645156-.686211-.8340111-1.171841-1.1084976-.48563-.27448644-1.097936-.41172762-1.836939-.41172762-.63343 0-1.177116.12668417-1.631074.38005632-.453959.2533721-.834011.5964751-1.140169 1.0293191-.306158.4328441-.527856.9290237-.665099 1.4885539-.137243.5595301-.205864 1.1454444-.205864 1.7577603 0 .5912017.058064 1.177116.174193 1.7577604.116129.5806445.316712 1.1032167.601756 1.5677323.285043.4645155.659817.844568 1.124333 1.1401689.464515.2956008 1.045151.443399 1.741924.443399zm8.107868 2.8187509c0 .6545446-.089734 1.4040926-.269206 2.2486664s-.564803 1.6310713-1.156005 2.3595162-1.44632 1.3460302-2.56538 1.8527744c-1.11906.5067443-2.618156.7601126-4.497333.7601126-.802345 0-1.620513-.1002916-2.45453-.3008779-.834017-.2005862-1.594122-.5120181-2.280338-.934305s-1.256295-.9659731-1.710253-1.631075c-.453959-.6651018-.712605-1.4621564-.775948-2.3911875h4.465661c.211143.8445737.622867 1.430488 1.235183 1.7577603.612316.3272724 1.319636.4909061 2.121981.4909061 1.266861 0 2.190599-.3800525 2.771244-1.1401689.580644-.7601164.860405-1.7208047.839291-2.8820936v-2.1536524h-.063343c-.48563.8656882-1.177114 1.5043875-2.074474 1.9161172-.897359.4117297-1.842212.6175915-2.834586.6175915-1.224632 0-2.280334-.2164188-3.167136-.6492628-.886803-.4328441-1.615237-1.0240369-2.185324-1.7735961s-.987089-1.6257914-1.251019-2.6287227c-.263929-1.0029314-.395892-2.0639113-.395892-3.1829715 0-1.0557173.153077-2.0744691.459235-3.0562861s.754831-1.84749216 1.346033-2.59705139c.591201-.74955922 1.324914-1.34603051 2.201159-1.78943174.876246-.44340123 1.88444-.66509852 3.024615-.66509852 1.076832 0 2.021684.20058326 2.834587.60175581.812902.40117254 1.493829 1.07682143 2.042802 2.02696692h.063343v-2.18532372h4.275633zm5.819609-7.1260556c0 .6545446.063342 1.293244.190028 1.9161171.126686.6228732.343105 1.1823949.649263 1.678582s.712603.8920751 1.219348 1.1876759c.506744.2956009 1.140165.4433991 1.900281.4433991s1.398816-.1477982 1.916117-.4433991c.517302-.2956008.929025-.6914888 1.235183-1.1876759s.522577-1.0557088.649263-1.678582c.126686-.6228731.190028-1.2615725.190028-1.9161171 0-.6545447-.063342-1.2985226-.190028-1.9319529s-.343105-1.1929521-.649263-1.678582-.717881-.8815179-1.235183-1.1876759c-.517301-.30615802-1.156001-.45923472-1.916117-.45923472s-1.393537.1530767-1.900281.45923472c-.506745.306158-.91319.702046-1.219348 1.1876759s-.522577 1.0451517-.649263 1.678582-.190028 1.2774082-.190028 1.9319529zm-4.497333 0c0-1.3090894.200584-2.4967535.601756-3.5630279.401173-1.0662743.971251-1.97417754 1.710254-2.72373676.739002-.74955923 1.625791-1.33019499 2.660394-1.7419247 1.034603-.41172972 2.195874-.61759149 3.483849-.61759149s2.454525.20586177 3.499685.61759149c1.04516.41172971 1.937228.99236547 2.67623 1.7419247.739002.74955922 1.309081 1.65746246 1.710253 2.72373676.401173 1.0662744.601756 2.2539385.601756 3.5630279 0 1.3090893-.200583 2.4914749-.601756 3.5471921-.401172 1.0557172-.971251 1.9583419-1.710253 2.7079011s-1.63107 1.3249165-2.67623 1.726089c-1.04516.4011726-2.21171.6017558-3.499685.6017558s-2.449246-.2005832-3.483849-.6017558c-1.034603-.4011725-1.921392-.9765298-2.660394-1.726089-.739003-.7495592-1.309081-1.6521839-1.710254-2.7079011-.401172-1.0557172-.601756-2.2381028-.601756-3.5471921zm25.709222 4.3073047c.633431 0 1.192952-.1266842 1.678582-.3800563.48563-.2533722.886797-.5911966 1.203512-1.0134835s.554248-.902631.712606-1.4410468c.158357-.5384158.237535-1.103216.237535-1.6944177 0-.675659-.063342-1.3143583-.190028-1.9161171s-.337827-1.134888-.633428-1.5994036c-.2956-.4645156-.68621-.8340111-1.17184-1.1084976-.48563-.27448644-1.097937-.41172762-1.836939-.41172762-.63343 0-1.177116.12668417-1.631075.38005632-.453958.2533721-.83401.5964751-1.140168 1.0293191-.306158.4328441-.527856.9290237-.665099 1.4885539-.137243.5595301-.205864 1.1454444-.205864 1.7577603 0 .5912017.058064 1.177116.174193 1.7577604.116129.5806445.316712 1.1032167.601756 1.5677323.285043.4645155.659817.844568 1.124333 1.1401689.464515.2956008 1.045151.443399 1.741924.443399zm8.107868 2.8187509c0 .6545446-.089734 1.4040926-.269206 2.2486664s-.564803 1.6310713-1.156005 2.3595162-1.44632 1.3460302-2.56538 1.8527744c-1.11906.5067443-2.618156.7601126-4.497333.7601126-.802345 0-1.620514-.1002916-2.45453-.3008779-.834017-.2005862-1.594122-.5120181-2.280338-.934305s-1.256295-.9659731-1.710253-1.631075c-.453959-.6651018-.712606-1.4621564-.775949-2.3911875h4.465662c.211143.8445737.622867 1.430488 1.235183 1.7577603.612316.3272724 1.319636.4909061 2.121981.4909061 1.266861 0 2.190599-.3800525 2.771244-1.1401689.580644-.7601164.860405-1.7208047.839291-2.8820936v-2.1536524h-.063343c-.48563.8656882-1.177114 1.5043875-2.074474 1.9161172s-1.842212.6175915-2.834586.6175915c-1.224632 0-2.280334-.2164188-3.167136-.6492628-.886803-.4328441-1.615237-1.0240369-2.185324-1.7735961s-.987089-1.6257914-1.251019-2.6287227c-.263929-1.0029314-.395892-2.0639113-.395892-3.1829715 0-1.0557173.153077-2.0744691.459235-3.0562861s.754831-1.84749216 1.346033-2.59705139c.591201-.74955922 1.324914-1.34603051 2.201159-1.78943174s1.88444-.66509852 3.024615-.66509852c1.076831 0 2.021684.20058326 2.834586.60175581.812903.40117254 1.49383 1.07682143 2.042803 2.02696692h.063343v-2.18532372h4.275633zm1.829018-21.56819501h4.497333v8.51959537h.095014c.570087-.9501455 1.298521-1.64162991 2.185324-2.07447397.886802-.43284406 1.752477-.64926284 2.597051-.64926284 1.203518 0 2.190599.16363371 2.961272.49090605.770674.32727234 1.377702.78122394 1.821103 1.36186841s.754833 1.2879644.934305 2.12198099c.179472.8340166.269207 1.7577553.269207 2.7712439v10.0714919h-4.497333v-9.2480366c0-1.3513181-.21114-2.3595129-.633427-3.0246147-.422287-.6651019-1.171835-.99764783-2.248667-.99764783-1.224632 0-2.111421.36421703-2.660394 1.09266183-.548973.7284449-.823455 1.926666-.823455 3.5946992v8.5829381h-4.497333zm17.189627 17.73596061h4.972403v4.8773892h-4.972403zm17.98141-5.7325158c-.2956-1.8791767-1.404087-2.81875092-3.325492-2.81875092-.717888 0-1.319638.16363372-1.805268.49090602-.48563.3272724-.881518.7495529-1.187676 1.2668544-.306158.5173014-.522576 1.0873801-.649262 1.7102533-.126687.6228732-.190029 1.2404585-.190029 1.8527745 0 .5912016.063342 1.1929514.190029 1.8052674.126686.612316.332547 1.1665592.617591 1.6627463s.670375.9026321 1.156005 1.2193473 1.076822.4750704 1.773596.4750704c1.076831 0 1.905557-.3008749 2.486201-.9026337.580645-.6017589.944862-1.4093704 1.092662-2.422859h4.338976c-.295601 2.1747775-1.140162 3.8322287-2.533708 4.9724033-1.393547 1.1401746-3.177683 1.7102533-5.35246 1.7102533-1.224632 0-2.348954-.2058617-3.373-.6175915-1.024045-.4117297-1.894999-.9870869-2.612887-1.726089-.717887-.739002-1.277409-1.6205127-1.678582-2.6445584-.401172-1.0240457-.601755-2.1483677-.601755-3.3729996 0-1.2668607.184747-2.4439677.554248-3.5313565.369501-1.0873887.913188-2.02696296 1.631075-2.81875087.717888-.79178792 1.59412-1.40937323 2.628723-1.85277446s2.216988-.66509852 3.547192-.66509852c.97126 0 1.905556.12668417 2.802915.3800563.89736.25337213 1.699693.63870314 2.407024 1.15600457.70733.51730144 1.282687 1.16127929 1.726089 1.93195286.443401.77067352.696769 1.68385522.760112 2.73957252zm9.240116 2.4386946c0 .6545446.063342 1.293244.190028 1.9161171.126686.6228732.343105 1.1823949.649263 1.678582s.712603.8920751 1.219347 1.1876759c.506745.2956009 1.140165.4433991 1.900282.4433991.760116 0 1.398816-.1477982 1.916117-.4433991.517301-.2956008.929025-.6914888 1.235183-1.1876759s.522577-1.0557088.649263-1.678582c.126686-.6228731.190028-1.2615725.190028-1.9161171 0-.6545447-.063342-1.2985226-.190028-1.9319529s-.343105-1.1929521-.649263-1.678582-.717882-.8815179-1.235183-1.1876759c-.517301-.30615802-1.156001-.45923472-1.916117-.45923472-.760117 0-1.393537.1530767-1.900282.45923472-.506744.306158-.913189.702046-1.219347 1.1876759s-.522577 1.0451517-.649263 1.678582-.190028 1.2774082-.190028 1.9319529zm-4.497333 0c0-1.3090894.200583-2.4967535.601756-3.5630279.401173-1.0662743.971251-1.97417754 1.710253-2.72373676.739002-.74955923 1.625792-1.33019499 2.660394-1.7419247 1.034603-.41172972 2.195875-.61759149 3.48385-.61759149s2.454525.20586177 3.499685.61759149c1.04516.41172971 1.937228.99236547 2.67623 1.7419247.739002.74955922 1.309081 1.65746246 1.710253 2.72373676.401173 1.0662744.601756 2.2539385.601756 3.5630279 0 1.3090893-.200583 2.4914749-.601756 3.5471921-.401172 1.0557172-.971251 1.9583419-1.710253 2.7079011s-1.63107 1.3249165-2.67623 1.726089c-1.04516.4011726-2.21171.6017558-3.499685.6017558s-2.449247-.2005832-3.48385-.6017558c-1.034602-.4011725-1.921392-.9765298-2.660394-1.726089s-1.30908-1.6521839-1.710253-2.7079011-.601756-2.2381028-.601756-3.5471921zm18.20311-8.20288184h4.243962v2.21699508h.063343c.591202-.84457377 1.3038-1.49910863 2.137817-1.96362421.834016-.46451558 1.789426-.69676988 2.866258-.69676988 1.034603 0 1.979455.20058326 2.834586.60175581.855131.40117254 1.504388 1.10849247 1.947789 2.121981.48563-.71788771 1.145443-1.35130854 1.97946-1.9002815.834016-.54897295 1.821097-.82345531 2.961272-.82345531.865688 0 1.668021.10557014 2.407023.31671358.739002.21114345 1.372423.54896789 1.900281 1.01348347.527859.46451557.939583 1.07154387 1.235183 1.82110309.295601.74955921.443399 1.65218391.443399 2.70790111v10.95829h-4.497333v-9.279708c0-.5489729-.021114-1.0662666-.063342-1.5518965-.042229-.48563-.158356-.9079105-.348385-1.2668544-.190029-.3589438-.46979-.6439832-.839291-.8551266-.369501-.21114349-.870959-.31671363-1.50439-.31671363-.63343 0-1.145445.12140563-1.536061.36422063-.390615.242815-.696768.5595254-.918469.9501407-.221701.3906154-.369499.83401-.443399 1.3301971s-.11085.9976452-.11085 1.5043895v9.1213512h-4.497333v-9.1846939c0-.4856299-.010557-.9659741-.031671-1.4410468-.021114-.4750728-.110849-.9131888-.269206-1.3143614-.158358-.4011725-.422283-.7231614-.791784-.9659764s-.913188-.36422063-1.631075-.36422063c-.211144 0-.490905.04750657-.839291.14252113-.348387.0950145-.686212.2744838-1.013484.5384131s-.607033.6439818-.839291 1.1401689-.348385 1.1454434-.348385 1.9477885v9.5014075h-4.497333z" fill-rule="evenodd"/></svg>