<?xml version="1.0" encoding="UTF-8"?>
<svg width="301px" height="30px" viewBox="0 0 301 30" version="1.1" xmlns="http://www.w3.org/2000/svg" xmlns:xlink="http://www.w3.org/1999/xlink">
    <!-- Generator: Sketch 49.3 (51167) - http://www.bohemiancoding.com/sketch -->
    <desc>Created with Sketch.</desc>
    <defs></defs>
    <g id="Mariogogh_Index" stroke="none" stroke-width="1" fill="none" fill-rule="evenodd">
        <path d="M0,0.53841309 L4.49733287,0.53841309 L4.49733287,9.05800846 L4.59234695,9.05800846 C5.16243424,8.10786296 5.8908682,7.41637855 6.77767066,6.98353449 C7.66447313,6.55069043 8.53014826,6.33427165 9.37472204,6.33427165 C10.5782397,6.33427165 11.5653205,6.49790536 12.335994,6.8251777 C13.1066676,7.15245004 13.7136959,7.60640164 14.1570971,8.18704611 C14.6004984,8.76769058 14.9119303,9.47501051 15.0914022,10.3090271 C15.2708741,11.1430437 15.3606087,12.0667824 15.3606087,13.080271 L15.3606087,23.1517629 L10.8632759,23.1517629 L10.8632759,13.9037263 C10.8632759,12.5524082 10.6521356,11.5442134 10.2298487,10.8791116 C9.80756183,10.2140097 9.05801384,9.88146377 7.98118228,9.88146377 C6.7565503,9.88146377 5.86976114,10.2456808 5.32078819,10.9741256 C4.77181523,11.7025705 4.49733287,12.9007916 4.49733287,14.5688248 L4.49733287,23.1517629 L0,23.1517629 L0,0.53841309 Z M28.0212312,13.2069564 C27.8100877,12.0667818 27.4353138,11.2011067 26.896898,10.609905 C26.3584822,10.0187034 25.5403136,9.72310698 24.4423677,9.72310698 C23.72448,9.72310698 23.1280087,9.84451264 22.652936,10.0873276 C22.1778632,10.3301426 21.7978107,10.6310175 21.5127671,10.9899613 C21.2277234,11.3489052 21.0271402,11.7289577 20.9110113,12.1301302 C20.7948824,12.5313028 20.7262618,12.8902412 20.7051474,13.2069564 L28.0212312,13.2069564 Z M20.7051474,16.0573786 C20.7684905,17.5142684 21.137986,18.5699698 21.813645,19.2245145 C22.489304,19.8790591 23.4605493,20.2063266 24.7274099,20.2063266 C25.6353267,20.2063266 26.4165458,19.9793508 27.0710904,19.5253924 C27.7256351,19.071434 28.1268016,18.5910898 28.2746021,18.0843456 L32.2335218,18.0843456 C31.6000915,20.0479796 30.6288462,21.4520624 29.3197569,22.2966362 C28.0106675,23.14121 26.4271154,23.5634905 24.5690531,23.5634905 C23.2810781,23.5634905 22.1198066,23.3576288 21.0852037,22.945899 C20.0506009,22.5341693 19.1743687,21.9482551 18.456481,21.1881387 C17.7385933,20.4280223 17.1843501,19.5201191 16.7937347,18.4644019 C16.4031193,17.4086846 16.2078146,16.2474131 16.2078146,14.9805525 C16.2078146,13.7559205 16.4083978,12.615763 16.8095704,11.5600458 C17.2107429,10.5043285 17.7808217,9.59114684 18.5198237,8.82047327 C19.2588258,8.0497997 20.1403364,7.4427714 21.1643821,6.99937017 C22.1884278,6.55596894 23.3233068,6.33427165 24.5690531,6.33427165 C25.9625999,6.33427165 27.1766565,6.6034755 28.2112593,7.14189128 C29.2458622,7.68030707 30.0957018,8.40346252 30.7608037,9.31137932 C31.4259055,10.2192961 31.9062497,11.2538835 32.2018505,12.4151724 C32.4974513,13.5764614 32.6030214,14.790518 32.5185641,16.0573786 L20.7051474,16.0573786 Z M33.5241267,0.53841309 L38.0214595,0.53841309 L38.0214595,23.1517629 L33.5241267,23.1517629 L33.5241267,0.53841309 Z M39.9138202,0.53841309 L44.411153,0.53841309 L44.411153,23.1517629 L39.9138202,23.1517629 L39.9138202,0.53841309 Z M50.1674194,14.9805525 C50.1674194,15.6350971 50.2307615,16.2737965 50.3574475,16.8966696 C50.4841336,17.5195428 50.7005524,18.0790645 51.0067104,18.5752516 C51.3128684,19.0714387 51.7193134,19.4673267 52.2260577,19.7629275 C52.7328019,20.0585284 53.3662228,20.2063266 54.1263392,20.2063266 C54.8864556,20.2063266 55.5251549,20.0585284 56.0424563,19.7629275 C56.5597578,19.4673267 56.9714813,19.0714387 57.2776393,18.5752516 C57.5837973,18.0790645 57.8002161,17.5195428 57.9269022,16.8966696 C58.0535882,16.2737965 58.1169303,15.6350971 58.1169303,14.9805525 C58.1169303,14.3260078 58.0535882,13.6820299 57.9269022,13.0485996 C57.8002161,12.4151693 57.5837973,11.8556475 57.2776393,11.3700176 C56.9714813,10.8843877 56.5597578,10.4884997 56.0424563,10.1823417 C55.5251549,9.87618368 54.8864556,9.72310698 54.1263392,9.72310698 C53.3662228,9.72310698 52.7328019,9.87618368 52.2260577,10.1823417 C51.7193134,10.4884997 51.3128684,10.8843877 51.0067104,11.3700176 C50.7005524,11.8556475 50.4841336,12.4151693 50.3574475,13.0485996 C50.2307615,13.6820299 50.1674194,14.3260078 50.1674194,14.9805525 Z M45.6700865,14.9805525 C45.6700865,13.6714631 45.8706698,12.483799 46.2718423,11.4175246 C46.6730149,10.3512503 47.2430936,9.44334706 47.9820957,8.69378784 C48.7210977,7.94422861 49.6078869,7.36359285 50.6424898,6.95186314 C51.6770926,6.54013342 52.8383642,6.33427165 54.1263392,6.33427165 C55.4143142,6.33427165 56.5808642,6.54013342 57.6260242,6.95186314 C58.6711843,7.36359285 59.563252,7.94422861 60.302254,8.69378784 C61.0412561,9.44334706 61.6113348,10.3512503 62.0125074,11.4175246 C62.4136799,12.483799 62.6142632,13.6714631 62.6142632,14.9805525 C62.6142632,16.2896418 62.4136799,17.4720274 62.0125074,18.5277446 C61.6113348,19.5834618 61.0412561,20.4860865 60.302254,21.2356457 C59.563252,21.9852049 58.6711843,22.5605622 57.6260242,22.9617347 C56.5808642,23.3629073 55.4143142,23.5634905 54.1263392,23.5634905 C52.8383642,23.5634905 51.6770926,23.3629073 50.6424898,22.9617347 C49.6078869,22.5605622 48.7210977,21.9852049 47.9820957,21.2356457 C47.2430936,20.4860865 46.6730149,19.5834618 46.2718423,18.5277446 C45.8706698,17.4720274 45.6700865,16.2896418 45.6700865,14.9805525 Z M79.7405471,14.0620831 C79.6772041,14.2732265 79.6191405,14.5002023 79.5663547,14.7430173 C79.5135688,14.9858322 79.4871763,15.212808 79.4871763,15.4239515 C79.4871763,15.6350949 79.5294043,15.8092856 79.6138617,15.9465289 C79.6983191,16.0837721 79.8355602,16.1523927 80.0255893,16.1523927 C80.4689906,16.1523927 80.9176637,16.009873 81.3716221,15.7248294 C81.8255805,15.4397857 82.226747,15.0386192 82.5751337,14.5213178 C82.9235204,14.0040163 83.2085597,13.386431 83.4302604,12.6685433 C83.651961,11.9506556 83.7628096,11.1694366 83.7628096,10.3248628 C83.7628096,9.05800212 83.5411123,7.94423716 83.0977111,6.98353449 C82.6543099,6.02283182 82.0472816,5.20994176 81.276608,4.54483991 C80.5059344,3.87973806 79.5980312,3.3782799 78.5528712,3.04045039 C77.5077111,2.70262088 76.3833892,2.53370866 75.1798715,2.53370866 C73.8285535,2.53370866 72.5986614,2.77124147 71.4901583,3.24631422 C70.3816552,3.72138697 69.4368025,4.37592183 68.6555717,5.20993843 C67.874341,6.04395504 67.2725912,7.03631434 66.8503043,8.18704611 C66.4280174,9.33777788 66.2168772,10.578227 66.2168772,11.9084307 C66.2168772,13.3019774 66.4491315,14.5635406 66.913647,15.693158 C67.3781626,16.8227754 68.0221405,17.7940207 68.8455999,18.606923 C69.6690593,19.4198252 70.6561401,20.0479676 71.8068719,20.4913688 C72.9576037,20.93477 74.2086098,21.1564673 75.5599278,21.1564673 C76.8901315,21.1564673 78.1516947,20.9294915 79.3446551,20.4755331 C80.5376156,20.0215747 81.5458104,19.3828754 82.3692699,18.5594159 L85.0296639,18.5594159 C83.9528324,20.2063348 82.5698636,21.4678979 80.880716,22.3441432 C79.1915685,23.2203885 77.3546481,23.6585046 75.3698997,23.6585046 C73.6807521,23.6585046 72.0972001,23.3629082 70.6191959,22.7717066 C69.1411918,22.1805049 67.8479576,21.3570579 66.7394546,20.3013406 C65.6309515,19.2456234 64.7599978,17.9946173 64.1265675,16.5482847 C63.4931372,15.1019521 63.1764268,13.5342355 63.1764268,11.845088 C63.1764268,10.1770548 63.4931372,8.61989523 64.1265675,7.17356264 C64.7599978,5.72723005 65.625673,4.47622391 66.7236189,3.42050669 C67.8215648,2.36478947 69.0989635,1.53078538 70.5558532,0.918469389 C72.012743,0.306153401 73.564624,0 75.2115429,0 C76.6473183,0 78.0302871,0.232254305 79.3604908,0.696769881 C80.6906945,1.16128546 81.8625231,1.81054181 82.8760116,2.64455841 C83.8895001,3.47857502 84.7023902,4.49204835 85.3147062,5.68500881 C85.9270222,6.87796926 86.2331756,8.2028745 86.2331756,9.65976427 C86.2331756,11.2855688 85.9428577,12.6790946 85.3622132,13.8403836 C84.7815687,15.0016725 84.0848058,15.9518037 83.2719036,16.6908058 C82.4590013,17.4298078 81.6355542,17.9734941 80.8015376,18.3218807 C79.967521,18.6702674 79.2971506,18.8444582 78.7904064,18.8444582 C78.1147474,18.8444582 77.5710611,18.6755459 77.1593314,18.3377164 C76.7476017,17.9998869 76.5206259,17.5670493 76.4783972,17.0391907 L76.4150545,17.0391907 C76.0349963,17.6726211 75.5388167,18.1371297 74.9265007,18.4327305 C74.3141847,18.7283313 73.6702068,18.8761295 72.9945478,18.8761295 C72.3188888,18.8761295 71.6801895,18.7336098 71.0784306,18.4485662 C70.4766718,18.1635225 69.9488211,17.772913 69.4948627,17.2767259 C69.0409043,16.7805388 68.6819659,16.2051816 68.4180365,15.5506369 C68.1541072,14.8960922 68.0221446,14.1993293 68.0221446,13.4603273 C68.0221446,12.4679531 68.1857783,11.4861508 68.5130506,10.5148909 C68.840323,9.5436311 69.3048316,8.67795596 69.9065904,7.91783956 C70.5083492,7.15772316 71.2367832,6.54541636 72.0919141,6.08090078 C72.9470451,5.61638521 73.8918978,5.3841309 74.9265007,5.3841309 C75.6021597,5.3841309 76.2989226,5.54776462 77.0168103,5.87503695 C77.734698,6.20230929 78.2731057,6.77766655 78.6320496,7.60112598 L79.1387913,5.89087263 L81.7358427,5.89087263 L79.7405471,14.0620831 Z M71.2526231,13.0485996 C71.2526231,13.8931734 71.4795989,14.5741008 71.9335573,15.0914022 C72.3875157,15.6087036 72.983987,15.8673505 73.7229891,15.8673505 C74.2930764,15.8673505 74.8156485,15.7195523 75.2907213,15.4239515 C75.765794,15.1283506 76.1775176,14.7535767 76.5259043,14.2996182 C76.8742909,13.8456598 77.1434948,13.3336447 77.3335239,12.7635574 C77.523553,12.1934701 77.6185661,11.6339483 77.6185661,11.0849754 C77.6185661,10.3037446 77.3810333,9.6597668 76.9059606,9.15302253 C76.4308878,8.64627827 75.8555306,8.39290994 75.1798715,8.39290994 C74.6097842,8.39290994 74.0819335,8.53542962 73.5963036,8.82047327 C73.1106737,9.10551692 72.6936717,9.47501241 72.345285,9.92897081 C71.9968983,10.3829292 71.7276944,10.8843874 71.5376653,11.4333603 C71.3476362,11.9823333 71.2526231,12.520741 71.2526231,13.0485996 Z M87.4287663,6.77767066 L91.6727283,6.77767066 L91.6727283,8.99466574 L91.736071,8.99466574 C92.3272727,8.15009197 93.0398711,7.49555711 93.8738877,7.03104153 C94.7079043,6.56652595 95.6633141,6.33427165 96.7401456,6.33427165 C97.7747485,6.33427165 98.7196013,6.53485491 99.5747322,6.93602746 C100.429863,7.3372 101.07912,8.04451993 101.522521,9.05800846 C102.008151,8.34012075 102.667964,7.70669992 103.501981,7.15772696 C104.335997,6.60875401 105.323078,6.33427165 106.463253,6.33427165 C107.328941,6.33427165 108.131274,6.43984179 108.870276,6.65098523 C109.609278,6.86212868 110.242699,7.19995312 110.770557,7.6644687 C111.298416,8.12898427 111.710139,8.73601257 112.00574,9.48557179 C112.301341,10.235131 112.449139,11.1377557 112.449139,12.1934729 L112.449139,23.1517629 L107.951806,23.1517629 L107.951806,13.8720549 C107.951806,13.323082 107.930692,12.8057883 107.888464,12.3201584 C107.846235,11.8345284 107.730108,11.4122479 107.540079,11.053304 C107.35005,10.6943602 107.070289,10.4093208 106.700788,10.1981774 C106.331287,9.98703391 105.829829,9.88146377 105.196398,9.88146377 C104.562968,9.88146377 104.050953,10.0028694 103.660337,10.2456844 C103.269722,10.4884994 102.963569,10.8052098 102.741868,11.1958251 C102.520167,11.5864405 102.372369,12.0298351 102.298469,12.5260222 C102.224569,13.0222093 102.187619,13.5236674 102.187619,14.0304117 L102.187619,23.1517629 L97.6902864,23.1517629 L97.6902864,13.967069 C97.6902864,13.4814391 97.6797294,13.0010949 97.658615,12.5260222 C97.6375007,12.0509494 97.5477661,11.6128334 97.3894085,11.2116608 C97.2310509,10.8104883 96.9671256,10.4884994 96.5976245,10.2456844 C96.2281235,10.0028694 95.6844373,9.88146377 94.9665496,9.88146377 C94.7554061,9.88146377 94.4756453,9.92897034 94.1272586,10.0239849 C93.7788719,10.1189994 93.4410475,10.2984687 93.1137751,10.562398 C92.7865028,10.8263273 92.5067419,11.2063798 92.2744841,11.7025669 C92.0422263,12.198754 91.9260992,12.8480103 91.9260992,13.6503554 L91.9260992,23.1517629 L87.4287663,23.1517629 L87.4287663,6.77767066 Z M114.024786,11.8134166 C114.088129,10.7576994 114.352055,9.88146726 114.81657,9.18469389 C115.281086,8.48792053 115.872279,7.92839879 116.590166,7.5061119 C117.308054,7.08382502 118.115666,6.78295012 119.013025,6.60347819 C119.910385,6.42400627 120.81301,6.33427165 121.720926,6.33427165 C122.544386,6.33427165 123.37839,6.39233523 124.222964,6.50846412 C125.067538,6.62459301 125.8382,6.85156881 126.534973,7.18939832 C127.231746,7.52722783 127.801825,7.99701495 128.245226,8.59877376 C128.688627,9.20053258 128.910325,9.99758712 128.910325,10.9899613 L128.910325,19.5095567 C128.910325,20.2485587 128.952553,20.9558787 129.03701,21.6315377 C129.121468,22.3071967 129.269266,22.8139334 129.480409,23.1517629 L124.919734,23.1517629 C124.835276,22.8983907 124.766656,22.6397439 124.71387,22.3758146 C124.661084,22.1118853 124.624134,21.8426814 124.60302,21.568195 C123.885132,22.307197 123.040571,22.8244907 122.069311,23.1200915 C121.098052,23.4156923 120.105692,23.5634905 119.092204,23.5634905 C118.310973,23.5634905 117.582539,23.4684774 116.90688,23.2784483 C116.231221,23.0884192 115.640028,22.7928228 115.133284,22.3916503 C114.62654,21.9904777 114.230652,21.4837411 113.945608,20.8714251 C113.660564,20.2591091 113.518045,19.5306751 113.518045,18.6861014 C113.518045,17.7570702 113.681678,16.9916867 114.008951,16.3899279 C114.336223,15.7881691 114.758504,15.3078249 115.275805,14.9488811 C115.793106,14.5899372 116.384299,14.3207334 117.049401,14.1412615 C117.714503,13.9617895 118.384873,13.8192698 119.060532,13.7136981 C119.736191,13.6081264 120.401283,13.5236703 121.055828,13.4603273 C121.710373,13.3969842 122.291008,13.3019711 122.797753,13.175285 C123.304497,13.048599 123.705663,12.8638512 124.001264,12.6210363 C124.296865,12.3782213 124.434106,12.0245613 124.412992,11.5600458 C124.412992,11.0744158 124.333814,10.6890848 124.175457,10.4040412 C124.017099,10.1189975 123.805959,9.89730024 123.54203,9.73894266 C123.2781,9.58058508 122.971947,9.47501494 122.62356,9.42222908 C122.275173,9.36944322 121.900399,9.34305068 121.499227,9.34305068 C120.612424,9.34305068 119.915662,9.53307693 119.408917,9.91313513 C118.902173,10.2931933 118.606577,10.9266142 118.522119,11.8134166 L114.024786,11.8134166 Z M124.412992,15.1389092 C124.222963,15.307824 123.98543,15.4397867 123.700386,15.5348012 C123.415343,15.6298158 123.109189,15.7089934 122.781917,15.7723364 C122.454645,15.8356794 122.111542,15.8884645 121.752598,15.9306932 C121.393654,15.9729219 121.034715,16.025707 120.675772,16.08905 C120.337942,16.152393 120.005396,16.2368491 119.678124,16.3424209 C119.350851,16.4479926 119.065812,16.5905123 118.822997,16.7699842 C118.580182,16.9494561 118.384877,17.1764319 118.237077,17.4509184 C118.089277,17.7254049 118.015378,18.0737863 118.015378,18.4960732 C118.015378,18.8972458 118.089277,19.2350702 118.237077,19.5095567 C118.384877,19.7840432 118.585461,20.0004619 118.838833,20.1588195 C119.092205,20.3171771 119.387801,20.4280258 119.725631,20.4913688 C120.06346,20.5547118 120.411842,20.5863829 120.770786,20.5863829 C121.657588,20.5863829 122.343794,20.4385847 122.829424,20.1429838 C123.315054,19.847383 123.673992,19.4937231 123.90625,19.0819933 C124.138508,18.6702636 124.281028,18.2532616 124.333813,17.8309747 C124.386599,17.4086878 124.412992,17.0708634 124.412992,16.8174912 L124.412992,15.1389092 Z M130.612657,6.77767066 L134.888291,6.77767066 L134.888291,9.81812106 L134.951633,9.81812106 C135.162777,9.31137679 135.447816,8.84158967 135.80676,8.40874561 C136.165704,7.97590155 136.577427,7.60640607 137.041943,7.30024808 C137.506459,6.99409008 138.002638,6.75655727 138.530497,6.58764252 C139.058355,6.41872776 139.60732,6.33427165 140.177407,6.33427165 C140.473008,6.33427165 140.800276,6.38705672 141.15922,6.49262844 L141.15922,10.6732477 C140.948076,10.631019 140.694708,10.5940695 140.399107,10.562398 C140.103506,10.5307265 139.818467,10.5148909 139.54398,10.5148909 C138.720521,10.5148909 138.023758,10.6521321 137.453671,10.9266186 C136.883583,11.2011051 136.424353,11.5758791 136.075967,12.0509518 C135.72758,12.5260246 135.47949,13.0802678 135.33169,13.7136981 C135.183889,14.3471285 135.10999,15.0333344 135.10999,15.7723364 L135.10999,23.1517629 L130.612657,23.1517629 L130.612657,6.77767066 Z M146.158458,4.243962 L141.661125,4.243962 L141.661125,0.53841309 L146.158458,0.53841309 L146.158458,4.243962 Z M141.661125,6.77767066 L146.158458,6.77767066 L146.158458,23.1517629 L141.661125,23.1517629 L141.661125,6.77767066 Z M151.531583,14.9805525 C151.531583,15.6350971 151.594925,16.2737965 151.721611,16.8966696 C151.848298,17.5195428 152.064716,18.0790645 152.370874,18.5752516 C152.677032,19.0714387 153.083477,19.4673267 153.590222,19.7629275 C154.096966,20.0585284 154.730387,20.2063266 155.490503,20.2063266 C156.25062,20.2063266 156.889319,20.0585284 157.40662,19.7629275 C157.923922,19.4673267 158.335645,19.0714387 158.641803,18.5752516 C158.947961,18.0790645 159.16438,17.5195428 159.291066,16.8966696 C159.417752,16.2737965 159.481094,15.6350971 159.481094,14.9805525 C159.481094,14.3260078 159.417752,13.6820299 159.291066,13.0485996 C159.16438,12.4151693 158.947961,11.8556475 158.641803,11.3700176 C158.335645,10.8843877 157.923922,10.4884997 157.40662,10.1823417 C156.889319,9.87618368 156.25062,9.72310698 155.490503,9.72310698 C154.730387,9.72310698 154.096966,9.87618368 153.590222,10.1823417 C153.083477,10.4884997 152.677032,10.8843877 152.370874,11.3700176 C152.064716,11.8556475 151.848298,12.4151693 151.721611,13.0485996 C151.594925,13.6820299 151.531583,14.3260078 151.531583,14.9805525 Z M147.03425,14.9805525 C147.03425,13.6714631 147.234834,12.483799 147.636006,11.4175246 C148.037179,10.3512503 148.607258,9.44334706 149.34626,8.69378784 C150.085262,7.94422861 150.972051,7.36359285 152.006654,6.95186314 C153.041257,6.54013342 154.202528,6.33427165 155.490503,6.33427165 C156.778478,6.33427165 157.945028,6.54013342 158.990188,6.95186314 C160.035348,7.36359285 160.927416,7.94422861 161.666418,8.69378784 C162.40542,9.44334706 162.975499,10.3512503 163.376671,11.4175246 C163.777844,12.483799 163.978427,13.6714631 163.978427,14.9805525 C163.978427,16.2896418 163.777844,17.4720274 163.376671,18.5277446 C162.975499,19.5834618 162.40542,20.4860865 161.666418,21.2356457 C160.927416,21.9852049 160.035348,22.5605622 158.990188,22.9617347 C157.945028,23.3629073 156.778478,23.5634905 155.490503,23.5634905 C154.202528,23.5634905 153.041257,23.3629073 152.006654,22.9617347 C150.972051,22.5605622 150.085262,21.9852049 149.34626,21.2356457 C148.607258,20.4860865 148.037179,19.5834618 147.636006,18.5277446 C147.234834,17.4720274 147.03425,16.2896418 147.03425,14.9805525 Z M172.743472,19.2878572 C173.376903,19.2878572 173.936425,19.161173 174.422054,18.9078009 C174.907684,18.6544287 175.308851,18.3166043 175.625566,17.8943174 C175.942281,17.4720305 176.179814,16.9916864 176.338172,16.4532706 C176.496529,15.9148548 176.575707,15.3500546 176.575707,14.7588529 C176.575707,14.0831939 176.512365,13.4444946 176.385679,12.8427358 C176.258993,12.240977 176.047852,11.7078478 175.752252,11.2433322 C175.456651,10.7788166 175.066041,10.4093211 174.580411,10.1348346 C174.094781,9.86034816 173.482475,9.72310698 172.743472,9.72310698 C172.110042,9.72310698 171.566356,9.84979115 171.112398,10.1031633 C170.658439,10.3565354 170.278387,10.6996384 169.972229,11.1324824 C169.666071,11.5653265 169.444373,12.0615061 169.30713,12.6210363 C169.169887,13.1805664 169.101266,13.7664807 169.101266,14.3787966 C169.101266,14.9699983 169.15933,15.5559126 169.275459,16.136557 C169.391588,16.7172015 169.592171,17.2397737 169.877215,17.7042893 C170.162258,18.1688048 170.537032,18.5488573 171.001548,18.8444582 C171.466063,19.140059 172.046699,19.2878572 172.743472,19.2878572 Z M180.85134,22.1066081 C180.85134,22.7611527 180.761606,23.5107007 180.582134,24.3552745 C180.402662,25.1998483 180.017331,25.9863458 179.426129,26.7147907 C178.834927,27.4432356 177.979809,28.0608209 176.860749,28.5675651 C175.741689,29.0743094 174.242593,29.3276777 172.363416,29.3276777 C171.561071,29.3276777 170.742903,29.2273861 169.908886,29.0267998 C169.074869,28.8262136 168.314764,28.5147817 167.628548,28.0924948 C166.942332,27.6702079 166.372253,27.1265217 165.918295,26.4614198 C165.464336,25.796318 165.20569,24.9992634 165.142347,24.0702323 L169.608008,24.0702323 C169.819151,24.914806 170.230875,25.5007203 170.843191,25.8279926 C171.455507,26.155265 172.162827,26.3188987 172.965172,26.3188987 C174.232033,26.3188987 175.155771,25.9388462 175.736416,25.1787298 C176.31706,24.4186134 176.596821,23.4579251 176.575707,22.2966362 L176.575707,20.1429838 L176.512364,20.1429838 C176.026734,21.008672 175.33525,21.6473713 174.43789,22.059101 C173.540531,22.4708307 172.595678,22.6766925 171.603304,22.6766925 C170.378672,22.6766925 169.32297,22.4602737 168.436168,22.0274297 C167.549365,21.5945856 166.820931,21.0033928 166.250844,20.2538336 C165.680757,19.5042744 165.263755,18.6280422 164.999825,17.6251109 C164.735896,16.6221795 164.603933,15.5611996 164.603933,14.4421394 C164.603933,13.3864221 164.75701,12.3676703 165.063168,11.3858533 C165.369326,10.4040363 165.817999,9.53836114 166.409201,8.78880191 C167.000402,8.03924269 167.734115,7.4427714 168.61036,6.99937017 C169.486606,6.55596894 170.4948,6.33427165 171.634975,6.33427165 C172.711807,6.33427165 173.656659,6.53485491 174.469562,6.93602746 C175.282464,7.3372 175.963391,8.01284889 176.512364,8.96299438 L176.575707,8.96299438 L176.575707,6.77767066 L180.85134,6.77767066 L180.85134,22.1066081 Z M186.670949,14.9805525 C186.670949,15.6350971 186.734291,16.2737965 186.860977,16.8966696 C186.987663,17.5195428 187.204082,18.0790645 187.51024,18.5752516 C187.816398,19.0714387 188.222843,19.4673267 188.729588,19.7629275 C189.236332,20.0585284 189.869753,20.2063266 190.629869,20.2063266 C191.389985,20.2063266 192.028685,20.0585284 192.545986,19.7629275 C193.063288,19.4673267 193.475011,19.0714387 193.781169,18.5752516 C194.087327,18.0790645 194.303746,17.5195428 194.430432,16.8966696 C194.557118,16.2737965 194.62046,15.6350971 194.62046,14.9805525 C194.62046,14.3260078 194.557118,13.6820299 194.430432,13.0485996 C194.303746,12.4151693 194.087327,11.8556475 193.781169,11.3700176 C193.475011,10.8843877 193.063288,10.4884997 192.545986,10.1823417 C192.028685,9.87618368 191.389985,9.72310698 190.629869,9.72310698 C189.869753,9.72310698 189.236332,9.87618368 188.729588,10.1823417 C188.222843,10.4884997 187.816398,10.8843877 187.51024,11.3700176 C187.204082,11.8556475 186.987663,12.4151693 186.860977,13.0485996 C186.734291,13.6820299 186.670949,14.3260078 186.670949,14.9805525 Z M182.173616,14.9805525 C182.173616,13.6714631 182.3742,12.483799 182.775372,11.4175246 C183.176545,10.3512503 183.746623,9.44334706 184.485626,8.69378784 C185.224628,7.94422861 186.111417,7.36359285 187.14602,6.95186314 C188.180623,6.54013342 189.341894,6.33427165 190.629869,6.33427165 C191.917844,6.33427165 193.084394,6.54013342 194.129554,6.95186314 C195.174714,7.36359285 196.066782,7.94422861 196.805784,8.69378784 C197.544786,9.44334706 198.114865,10.3512503 198.516037,11.4175246 C198.91721,12.483799 199.117793,13.6714631 199.117793,14.9805525 C199.117793,16.2896418 198.91721,17.4720274 198.516037,18.5277446 C198.114865,19.5834618 197.544786,20.4860865 196.805784,21.2356457 C196.066782,21.9852049 195.174714,22.5605622 194.129554,22.9617347 C193.084394,23.3629073 191.917844,23.5634905 190.629869,23.5634905 C189.341894,23.5634905 188.180623,23.3629073 187.14602,22.9617347 C186.111417,22.5605622 185.224628,21.9852049 184.485626,21.2356457 C183.746623,20.4860865 183.176545,19.5834618 182.775372,18.5277446 C182.3742,17.4720274 182.173616,16.2896418 182.173616,14.9805525 Z M207.882838,19.2878572 C208.516269,19.2878572 209.07579,19.161173 209.56142,18.9078009 C210.04705,18.6544287 210.448217,18.3166043 210.764932,17.8943174 C211.081647,17.4720305 211.31918,16.9916864 211.477538,16.4532706 C211.635895,15.9148548 211.715073,15.3500546 211.715073,14.7588529 C211.715073,14.0831939 211.651731,13.4444946 211.525045,12.8427358 C211.398359,12.240977 211.187218,11.7078478 210.891617,11.2433322 C210.596017,10.7788166 210.205407,10.4093211 209.719777,10.1348346 C209.234147,9.86034816 208.62184,9.72310698 207.882838,9.72310698 C207.249408,9.72310698 206.705722,9.84979115 206.251763,10.1031633 C205.797805,10.3565354 205.417753,10.6996384 205.111595,11.1324824 C204.805437,11.5653265 204.583739,12.0615061 204.446496,12.6210363 C204.309253,13.1805664 204.240632,13.7664807 204.240632,14.3787966 C204.240632,14.9699983 204.298696,15.5559126 204.414825,16.136557 C204.530954,16.7172015 204.731537,17.2397737 205.016581,17.7042893 C205.301624,18.1688048 205.676398,18.5488573 206.140914,18.8444582 C206.605429,19.140059 207.186065,19.2878572 207.882838,19.2878572 Z M215.990706,22.1066081 C215.990706,22.7611527 215.900972,23.5107007 215.7215,24.3552745 C215.542028,25.1998483 215.156697,25.9863458 214.565495,26.7147907 C213.974293,27.4432356 213.119175,28.0608209 212.000115,28.5675651 C210.881055,29.0743094 209.381959,29.3276777 207.502782,29.3276777 C206.700437,29.3276777 205.882268,29.2273861 205.048252,29.0267998 C204.214235,28.8262136 203.45413,28.5147817 202.767914,28.0924948 C202.081698,27.6702079 201.511619,27.1265217 201.057661,26.4614198 C200.603702,25.796318 200.345055,24.9992634 200.281712,24.0702323 L204.747374,24.0702323 C204.958517,24.914806 205.370241,25.5007203 205.982557,25.8279926 C206.594873,26.155265 207.302193,26.3188987 208.104538,26.3188987 C209.371399,26.3188987 210.295137,25.9388462 210.875782,25.1787298 C211.456426,24.4186134 211.736187,23.4579251 211.715073,22.2966362 L211.715073,20.1429838 L211.65173,20.1429838 C211.1661,21.008672 210.474616,21.6473713 209.577256,22.059101 C208.679896,22.4708307 207.735044,22.6766925 206.74267,22.6766925 C205.518038,22.6766925 204.462336,22.4602737 203.575534,22.0274297 C202.688731,21.5945856 201.960297,21.0033928 201.39021,20.2538336 C200.820123,19.5042744 200.403121,18.6280422 200.139191,17.6251109 C199.875262,16.6221795 199.743299,15.5611996 199.743299,14.4421394 C199.743299,13.3864221 199.896376,12.3676703 200.202534,11.3858533 C200.508692,10.4040363 200.957365,9.53836114 201.548567,8.78880191 C202.139768,8.03924269 202.873481,7.4427714 203.749726,6.99937017 C204.625971,6.55596894 205.634166,6.33427165 206.774341,6.33427165 C207.851172,6.33427165 208.796025,6.53485491 209.608927,6.93602746 C210.42183,7.3372 211.102757,8.01284889 211.65173,8.96299438 L211.715073,8.96299438 L211.715073,6.77767066 L215.990706,6.77767066 L215.990706,22.1066081 Z M217.819724,0.53841309 L222.317057,0.53841309 L222.317057,9.05800846 L222.412071,9.05800846 C222.982158,8.10786296 223.710592,7.41637855 224.597395,6.98353449 C225.484197,6.55069043 226.349872,6.33427165 227.194446,6.33427165 C228.397964,6.33427165 229.385045,6.49790536 230.155718,6.8251777 C230.926392,7.15245004 231.53342,7.60640164 231.976821,8.18704611 C232.420222,8.76769058 232.731654,9.47501051 232.911126,10.3090271 C233.090598,11.1430437 233.180333,12.0667824 233.180333,13.080271 L233.180333,23.1517629 L228.683,23.1517629 L228.683,13.9037263 C228.683,12.5524082 228.47186,11.5442134 228.049573,10.8791116 C227.627286,10.2140097 226.877738,9.88146377 225.800906,9.88146377 C224.576274,9.88146377 223.689485,10.2456808 223.140512,10.9741256 C222.591539,11.7025705 222.317057,12.9007916 222.317057,14.5688248 L222.317057,23.1517629 L217.819724,23.1517629 L217.819724,0.53841309 Z M235.009351,18.2743737 L239.981754,18.2743737 L239.981754,23.1517629 L235.009351,23.1517629 L235.009351,18.2743737 Z M252.990761,12.5418579 C252.695161,10.6626812 251.586674,9.72310698 249.665269,9.72310698 C248.947381,9.72310698 248.345631,9.8867407 247.860001,10.214013 C247.374371,10.5412854 246.978483,10.9635659 246.672325,11.4808674 C246.366167,11.9981688 246.149749,12.5682475 246.023063,13.1911207 C245.896376,13.8139939 245.833034,14.4315792 245.833034,15.0438952 C245.833034,15.6350968 245.896376,16.2368466 246.023063,16.8491626 C246.149749,17.4614786 246.35561,18.0157218 246.640654,18.5119089 C246.925698,19.008096 247.311029,19.414541 247.796659,19.7312562 C248.282289,20.0479714 248.873481,20.2063266 249.570255,20.2063266 C250.647086,20.2063266 251.475812,19.9054517 252.056456,19.3036929 C252.637101,18.701934 253.001318,17.8943225 253.149118,16.8808339 L257.488094,16.8808339 C257.192493,19.0556114 256.347932,20.7130626 254.954386,21.8532372 C253.560839,22.9934118 251.776703,23.5634905 249.601926,23.5634905 C248.377294,23.5634905 247.252972,23.3576288 246.228926,22.945899 C245.204881,22.5341693 244.333927,21.9588121 243.616039,21.21981 C242.898152,20.480808 242.33863,19.5992973 241.937457,18.5752516 C241.536285,17.5512059 241.335702,16.4268839 241.335702,15.202252 C241.335702,13.9353913 241.520449,12.7582843 241.88995,11.6708955 C242.259451,10.5835068 242.803138,9.64393254 243.521025,8.85214463 C244.238913,8.06035671 245.115145,7.4427714 246.149748,6.99937017 C247.184351,6.55596894 248.366736,6.33427165 249.69694,6.33427165 C250.6682,6.33427165 251.602496,6.46095582 252.499855,6.71432795 C253.397215,6.96770008 254.199548,7.35303109 254.906879,7.87033252 C255.614209,8.38763396 256.189566,9.03161181 256.632968,9.80228538 C257.076369,10.5729589 257.329737,11.4861406 257.39308,12.5418579 L252.990761,12.5418579 Z M262.230877,14.9805525 C262.230877,15.6350971 262.294219,16.2737965 262.420905,16.8966696 C262.547591,17.5195428 262.76401,18.0790645 263.070168,18.5752516 C263.376326,19.0714387 263.782771,19.4673267 264.289515,19.7629275 C264.79626,20.0585284 265.42968,20.2063266 266.189797,20.2063266 C266.949913,20.2063266 267.588613,20.0585284 268.105914,19.7629275 C268.623215,19.4673267 269.034939,19.0714387 269.341097,18.5752516 C269.647255,18.0790645 269.863674,17.5195428 269.99036,16.8966696 C270.117046,16.2737965 270.180388,15.6350971 270.180388,14.9805525 C270.180388,14.3260078 270.117046,13.6820299 269.99036,13.0485996 C269.863674,12.4151693 269.647255,11.8556475 269.341097,11.3700176 C269.034939,10.8843877 268.623215,10.4884997 268.105914,10.1823417 C267.588613,9.87618368 266.949913,9.72310698 266.189797,9.72310698 C265.42968,9.72310698 264.79626,9.87618368 264.289515,10.1823417 C263.782771,10.4884997 263.376326,10.8843877 263.070168,11.3700176 C262.76401,11.8556475 262.547591,12.4151693 262.420905,13.0485996 C262.294219,13.6820299 262.230877,14.3260078 262.230877,14.9805525 Z M257.733544,14.9805525 C257.733544,13.6714631 257.934127,12.483799 258.3353,11.4175246 C258.736473,10.3512503 259.306551,9.44334706 260.045553,8.69378784 C260.784555,7.94422861 261.671345,7.36359285 262.705947,6.95186314 C263.74055,6.54013342 264.901822,6.33427165 266.189797,6.33427165 C267.477772,6.33427165 268.644322,6.54013342 269.689482,6.95186314 C270.734642,7.36359285 271.62671,7.94422861 272.365712,8.69378784 C273.104714,9.44334706 273.674793,10.3512503 274.075965,11.4175246 C274.477138,12.483799 274.677721,13.6714631 274.677721,14.9805525 C274.677721,16.2896418 274.477138,17.4720274 274.075965,18.5277446 C273.674793,19.5834618 273.104714,20.4860865 272.365712,21.2356457 C271.62671,21.9852049 270.734642,22.5605622 269.689482,22.9617347 C268.644322,23.3629073 267.477772,23.5634905 266.189797,23.5634905 C264.901822,23.5634905 263.74055,23.3629073 262.705947,22.9617347 C261.671345,22.5605622 260.784555,21.9852049 260.045553,21.2356457 C259.306551,20.4860865 258.736473,19.5834618 258.3353,18.5277446 C257.934127,17.4720274 257.733544,16.2896418 257.733544,14.9805525 Z M275.936654,6.77767066 L280.180616,6.77767066 L280.180616,8.99466574 L280.243959,8.99466574 C280.835161,8.15009197 281.547759,7.49555711 282.381776,7.03104153 C283.215792,6.56652595 284.171202,6.33427165 285.248034,6.33427165 C286.282637,6.33427165 287.227489,6.53485491 288.08262,6.93602746 C288.937751,7.3372 289.587008,8.04451993 290.030409,9.05800846 C290.516039,8.34012075 291.175852,7.70669992 292.009869,7.15772696 C292.843885,6.60875401 293.830966,6.33427165 294.971141,6.33427165 C295.836829,6.33427165 296.639162,6.43984179 297.378164,6.65098523 C298.117166,6.86212868 298.750587,7.19995312 299.278445,7.6644687 C299.806304,8.12898427 300.218028,8.73601257 300.513628,9.48557179 C300.809229,10.235131 300.957027,11.1377557 300.957027,12.1934729 L300.957027,23.1517629 L296.459694,23.1517629 L296.459694,13.8720549 C296.459694,13.323082 296.43858,12.8057883 296.396352,12.3201584 C296.354123,11.8345284 296.237996,11.4122479 296.047967,11.053304 C295.857938,10.6943602 295.578177,10.4093208 295.208676,10.1981774 C294.839175,9.98703391 294.337717,9.88146377 293.704286,9.88146377 C293.070856,9.88146377 292.558841,10.0028694 292.168225,10.2456844 C291.77761,10.4884994 291.471457,10.8052098 291.249756,11.1958251 C291.028055,11.5864405 290.880257,12.0298351 290.806357,12.5260222 C290.732457,13.0222093 290.695507,13.5236674 290.695507,14.0304117 L290.695507,23.1517629 L286.198174,23.1517629 L286.198174,13.967069 C286.198174,13.4814391 286.187617,13.0010949 286.166503,12.5260222 C286.145389,12.0509494 286.055654,11.6128334 285.897297,11.2116608 C285.738939,10.8104883 285.475014,10.4884994 285.105513,10.2456844 C284.736012,10.0028694 284.192325,9.88146377 283.474438,9.88146377 C283.263294,9.88146377 282.983533,9.92897034 282.635147,10.0239849 C282.28676,10.1189994 281.948935,10.2984687 281.621663,10.562398 C281.294391,10.8263273 281.01463,11.2063798 280.782372,11.7025669 C280.550114,12.198754 280.433987,12.8480103 280.433987,13.6503554 L280.433987,23.1517629 L275.936654,23.1517629 L275.936654,6.77767066 Z" id="hello@mariogogh.com" fill="#000000"></path>
    </g>
</svg>