<svg height="54" viewBox="0 0 545 54" width="545" xmlns="http://www.w3.org/2000/svg"><path d="m0 .97354681h8.13197924v15.40494659h.17180238c1.03081942-1.7180324 2.34795778-2.9683594 3.95145468-3.7510186s3.1687918-1.1739829 4.6959317-1.1739829c2.1761743 0 3.9609923.2958789 5.3545074.8876456 1.3935152.5917667 2.4911305 1.4125921 3.292879 2.4625008.8017484 1.0499086 1.3648728 2.3288691 1.68939 3.8369197.3245172 1.5080507.4867734 3.1783349.4867734 5.0109027v18.2110521h-8.1319792v-16.7220981c0-2.4434238-.3817793-4.2664197-1.1453492-5.4690424-.76357-1.2026226-2.1188863-1.803925-4.0659896-1.803925-2.2143529 0-3.8178257.6585692-4.81046662 1.9757274-.99264092 1.3171581-1.48895394 3.4837554-1.48895394 6.4998566v15.5194815h-8.13197924zm50.6673793 22.90698379c-.381785-2.0616389-1.0594432-3.6269338-2.0329948-4.6959317-.9735517-1.0689979-2.4529463-1.6034889-4.4382282-1.6034889-1.2980689 0-2.3765952.2195231-3.2356114.6585758s-1.5462188.9830882-2.0616285 1.6321226c-.5154098.6490345-.8781 1.3362371-1.0880818 2.0616286-.2099817.7253914-.33406 1.3744161-.3722385 1.9470936zm-13.2287832 5.1540713c.1145355 2.6343163.7826492 4.5432126 2.0043611 5.726746s2.9778965 1.7752912 5.2686063 1.7752912c1.6416754 0 3.0542586-.4104127 4.237792-1.2312504s1.908914-1.6893854 2.1761634-2.6056694h7.1584325c-1.145355 3.5506003-2.9015395 6.0894322-5.2686063 7.6165721s-5.2304112 2.2906984-8.5901189 2.2906984c-2.3288883 0-4.4286742-.3722348-6.2994206-1.1167154-1.8707463-.7444807-3.4551302-1.8039181-4.7531991-3.178344s-2.3002394-3.0160767-3.0065416-4.9250016c-.7063022-1.9089248-1.059448-4.0087107-1.059448-6.2994205 0-2.2143528.3626903-4.2759608 1.0880817-6.1848856.7253915-1.9089249 1.7561954-3.5601201 3.0924428-4.9536353 1.3362474-1.3935151 2.9301758-2.4911304 4.7818329-3.2928789 1.8516571-.8017484 3.9037206-1.2026166 6.1562519-1.2026166 2.5197808 0 4.7150115.4867685 6.5857578 1.4603202 1.8707464.9735517 3.4074078 2.2811456 4.6100305 3.922821 1.2026227 1.6416753 2.0711704 3.5123936 2.6056694 5.612211.534499 2.0998173.7253886 4.295048.5726746 6.5857578zm23.1789988-28.06105509h8.1319792v40.88896599h-8.1319792zm11.5537045 0h8.1319792v40.88896599h-8.1319792zm18.5403345 26.11396149c0 1.1835334.1145338 2.3384156.3436047 3.4646813.229071 1.1262657.6203947 2.1379807 1.173983 3.0351754.5535882.8971946 1.2885132 1.6130307 2.2047971 2.1475297.916284.5344989 2.0616217.8017444 3.4360476.8017444s2.5293077-.2672455 3.4646817-.8017444c.935373-.534499 1.679842-1.2503351 2.233431-2.1475297.553588-.8971947.944911-1.9089097 1.173982-3.0351754s.343605-2.2811479.343605-3.4646813-.114534-2.3479601-.343605-3.493315-.620394-2.1570699-1.173982-3.0351754c-.553589-.8781054-1.298058-1.5939415-2.233431-2.1475297-.935374-.5535882-2.0902558-.8303782-3.4646817-.8303782s-2.5197636.27679-3.4360476.8303782c-.9162839.5535882-1.6512089 1.2694243-2.2047971 2.1475297-.5535883.8781055-.944912 1.8898205-1.173983 3.0351754-.2290709 1.1453549-.3436047 2.3097816-.3436047 3.493315zm-8.1319793 0c0-2.3670668.3626903-4.5145751 1.0880818-6.4425892.7253914-1.9280141 1.7561954-3.5696648 3.0924428-4.9250015 1.3362474-1.3553366 2.9397202-2.4052296 4.8104666-3.1497103 1.8707463-.7444807 3.9705322-1.1167154 6.2994205-1.1167154 2.3288887 0 4.4382187.3722347 6.3280547 1.1167154 1.889835.7444807 3.502852 1.7943737 4.8391 3.1497103 1.336247 1.3553367 2.367051 2.9969874 3.092443 4.9250015.725391 1.9280141 1.088081 4.0755224 1.088081 6.4425892s-.36269 4.5050306-1.088081 6.4139555c-.725392 1.9089248-1.756196 3.5410311-3.092443 4.8963677-1.336248 1.3553367-2.949265 2.3956851-4.8391 3.1210766-1.889836.7253914-3.999166 1.0880817-6.3280547 1.0880817-2.3288883 0-4.4286742-.3626903-6.2994205-1.0880817-1.8707464-.7253915-3.4742192-1.7657399-4.8104666-3.1210766-1.3362474-1.3553366-2.3670514-2.9874429-3.0924428-4.8963677-.7253915-1.9089249-1.0880818-4.0468887-1.0880818-6.4139555zm61.6054644-1.6607563c-.114536.381785-.219525.7921976-.314971 1.2312504-.095447.4390527-.143169.8494654-.143169 1.2312503 0 .381785.076356.6967529.22907.9449131s.40087.3722385.744477.3722385c.801748 0 1.613029-.257701 2.433867-.7731107.820837-.5154097 1.546218-1.2407903 2.176163-2.1761635.629945-.9353731 1.145347-2.0520774 1.546222-3.3501463.400874-1.2980689.601308-2.7106521.601308-4.237792 0-2.2907099-.400868-4.3045954-1.202617-6.041717-.801748-1.7371216-1.899363-3.20697171-3.292879-4.40959437-1.393515-1.20262266-3.035165-2.10934837-4.925001-2.72020433-1.889836-.61085595-3.92281-.91627935-6.098985-.91627935-2.443423 0-4.667287.42950165-6.671659 1.28851784-2.004371.85901619-3.712833 2.04253185-5.125437 3.55058248-1.412605 1.50805063-2.500675 3.30241313-3.264245 5.38314123s-1.14535 4.3236811-1.14535 6.7289264c0 2.5197809.419958 4.8009118 1.259885 6.8434614s2.004353 3.7987342 3.493315 5.2686063c1.488961 1.4698722 3.273779 2.6056654 5.354507 3.4074138 2.080728.8017485 4.34277 1.2026167 6.786194 1.2026167 2.405245 0 4.686376-.4104127 6.843461-1.2312504s3.980081-1.9757199 5.469043-3.4646813h4.810466c-1.947103 2.9779228-4.447757 5.2590538-7.502037 6.8434614-3.05428 1.5844077-6.375759 2.3765996-9.964538 2.3765996-3.05428 0-5.917624-.534491-8.590119-1.6034889-2.672494-1.0689979-5.010892-2.557937-7.015263-4.4668618-2.004372-1.9089249-3.579211-4.1709669-4.724566-6.786194-1.145355-2.615227-1.718024-5.4499379-1.718024-8.5042177 0-3.0161013.572669-5.8317232 1.718024-8.4469502 1.145355-2.6152271 2.71065-4.87726912 4.695932-6.78619398s4.295046-3.41695288 6.929362-4.5241293c2.634317-1.10717641 5.440394-1.66075632 8.418317-1.66075632 2.596138 0 5.096792.41995717 7.502037 1.25988411s4.52412 2.01389811 6.356688 3.52194875 3.302418 3.34059102 4.409595 5.49767614c1.107176 2.1570851 1.660756 4.5527498 1.660756 7.1870661 0 2.9397443-.524947 5.4594873-1.574855 7.5593047-1.049909 2.0998173-2.30978 3.8178239-3.779653 5.1540713-1.469872 1.3362474-2.958811 2.319329-4.466861 2.9492742-1.508051.6299452-2.7202.9449131-3.636484.9449131-1.221712 0-2.204794-.3054234-2.949274-.9162794-.744481-.610856-1.154894-1.3935034-1.231251-2.3479658h-.114535c-.687213 1.1453549-1.584394 1.9852692-2.69157 2.5197682-1.107177.5344989-2.271603.8017444-3.493315.8017444s-2.376594-.257701-3.464682-.7731107c-1.088087-.5154097-2.042535-1.2217013-2.863372-2.118896-.820838-.8971947-1.469863-1.9375431-1.947094-3.1210765s-.715843-2.4434049-.715843-3.7796523c0-1.7943894.295879-3.5696629.887645-5.3258738.591767-1.7562108 1.431681-3.3215057 2.519768-4.6959316 1.088088-1.3744259 2.405226-2.4815858 3.951455-3.3215127s3.254691-1.2598841 5.125438-1.2598841c1.221712 0 2.481583.2958789 3.779652.8876456s2.271606 1.6321152 2.920641 3.1210766l.916279-3.0924428h4.695932zm-15.347679-1.8325587c0 1.5271399.410412 2.7583779 1.23125 3.6937511s1.899364 1.4030528 3.235611 1.4030528c1.03082 0 1.975723-.2672455 2.83474-.8017445.859016-.5344989 1.603485-1.2121571 2.233431-2.0329948.629945-.8208377 1.116713-1.7466523 1.46032-2.7774718.343606-1.0308194.515407-2.0425344.515407-3.0351753 0-1.4126044-.429502-2.5770311-1.288518-3.493315-.859016-.916284-1.899365-1.3744191-3.121077-1.3744191-1.030819 0-1.985267.257701-2.863372.7731107-.878106.5154098-1.63212 1.1835234-2.262065 2.0043611s-1.116714 1.7275634-1.46032 2.7202044c-.343607.9926409-.515407 1.966178-.515407 2.9206404zm29.249349-11.338957h7.67384v4.0087222h.114534c1.068998-1.5271399 2.357503-2.7106556 3.865554-3.5505825s3.235602-1.2598841 5.182705-1.2598841c1.870746 0 3.579209.3626903 5.125438 1.0880817 1.546229.7253915 2.7202 2.0043519 3.521948 3.8369198.878106-1.2980689 2.071166-2.4434066 3.579217-3.4360476 1.50805-.9926409 3.292868-1.4889539 5.354507-1.4889539 1.565318 0 3.01608.1908896 4.352327.5726746s2.481585.9926317 3.436048 1.8325587c.954462.8399269 1.698932 1.9375422 2.23343 3.2928789.534499 1.3553366.801745 2.9874429.801745 4.8963678v19.8145409h-8.131979v-16.7793656c0-.9926409-.038178-1.9280001-.114535-2.8061055s-.286336-1.6416639-.629942-2.2906984c-.343607-.6490344-.849464-1.1644364-1.517588-1.5462214-.668124-.3817849-1.574849-.5726746-2.720204-.5726746s-2.07117.2195231-2.777472.6585758-1.259882 1.0117216-1.660756 1.7180238c-.400875.7063022-.66812 1.5080386-.801745 2.4052333s-.200436 1.8039204-.200436 2.7202043v16.4930283h-8.131979v-16.6075632c0-.8781054-.019089-1.7466532-.057268-2.6056694-.038178-.8590162-.200434-1.6512081-.486773-2.3765996-.286339-.7253914-.763563-1.3076048-1.431687-1.7466575-.668123-.4390527-1.651205-.6585758-2.949274-.6585758-.381785 0-.887642.0859004-1.517587.2577036-.629946.1718032-1.240792.4963156-1.832559.9735468s-1.097624 1.1644339-1.517588 2.0616286c-.419963.8971946-.629942 2.0711658-.629942 3.5219487v17.1802378h-8.131979zm48.090344 9.1055261c.114535-1.9089249.591759-3.4933088 1.431686-4.7531992s1.908909-2.2716054 3.206978-3.0351753c1.298069-.76357 2.758374-1.3076054 4.38096-1.6321226 1.622587-.3245172 3.254693-.4867734 4.896368-.4867734 1.488962 0 2.99699.1049893 4.524129.314971 1.52714.2099817 2.920635.6203944 4.180525 1.2312504 1.25989.6108559 2.290694 1.4603148 3.092443 2.5484019.801748 1.0880872 1.202616 2.5293039 1.202616 4.3236932v15.4049466c0 1.3362474.076356 2.6152079.22907 3.8369198s.41996 2.1379821.801745 2.748838h-8.246514c-.152714-.4581419-.276793-.9258215-.372239-1.4030527s-.162258-.9639998-.200436-1.4603202c-1.298069 1.3362474-2.825186 2.2716065-4.581397 2.8061055-1.756211.5344989-3.550573.8017444-5.383141.8017444-1.412604 0-2.729743-.1718007-3.951455-.5154071-1.221712-.3436065-2.290693-.8780974-3.206977-1.6034889-.916284-.7253914-1.63212-1.6416616-2.14753-2.748838-.51541-1.1071765-.773111-2.4243149-.773111-3.9514547 0-1.6798539.295879-3.0638037.887646-4.1518908.591767-1.0880872 1.355325-1.956635 2.290698-2.6056695.935373-.6490344 2.004355-1.1358029 3.206978-1.4603202 1.202623-.3245172 2.414772-.5822182 3.636484-.7731107s2.424316-.3436042 3.60785-.4581396c1.183533-.1145355 2.233426-.2863362 3.14971-.5154072s1.641664-.5631278 2.176163-1.0021805.782656-1.078533.744477-1.9184599c0-.8781054-.143167-1.5748526-.429506-2.0902623-.286338-.5154097-.668118-.9162779-1.145349-1.2026166-.477231-.2863388-1.030811-.4772284-1.660756-.5726746-.629945-.0954463-1.307604-.1431687-2.032995-.1431687-1.603497 0-2.863368.3436013-3.779652 1.0308143-.916284.6872129-1.450775 1.8325507-1.603489 3.4360476zm18.783726 6.0130832c-.343606.305428-.773108.54404-1.288518.7158432-.515409.1718033-1.068989.3149705-1.660756.429506s-1.212158.2099803-1.861192.2863373c-.649035.076357-1.29806.1718018-1.947094.2863373-.610856.1145355-1.212158.2672472-1.803925.4581397-.591767.1908924-1.107169.4485934-1.546221.7731107-.439053.3245172-.792199.7349299-1.059448 1.2312503-.26725.4963205-.400873 1.1262563-.400873 1.8898262 0 .7253914.133623 1.3362382.400873 1.8325587.267249.4963205.629939.8876442 1.088081 1.1739829.458142.2863388.992633.4867729 1.603489.6013083.610856.1145355 1.240792.1718024 1.889826.1718024 1.603497 0 2.84428-.2672454 3.722385-.8017444.878106-.534499 1.52713-1.1739792 1.947094-1.9184599.419963-.7444807.677664-1.4984947.773111-2.2620646.095446-.76357.143168-1.3744168.143168-1.8325587zm11.2101-15.1186093h7.731107v5.4976761h.114535c.381785-.9162839.897187-1.7657427 1.546221-2.5484019.649035-.7826592 1.393504-1.4507729 2.233431-2.0043611s1.737108-.9830899 2.691571-1.2885178c.954462-.305428 1.947088-.4581397 2.977908-.4581397.534499 0 1.126256.0954448 1.775291.2863373v7.5593046c-.381785-.076357-.83992-.1431683-1.374419-.2004361-.534499-.0572677-1.049901-.0859012-1.546221-.0859012-1.488962 0-2.748833.2481565-3.779653.744477-1.030819.4963205-1.861189 1.1739786-2.491134 2.0329948s-1.078536 1.8611867-1.345786 3.0065416c-.267249 1.1453549-.400872 2.3861375-.400872 3.7223849v13.343318h-8.131979zm28.109577-4.58139674h-8.131979v-6.70029275h8.131979zm-8.131979 4.58139674h8.131979v29.6072765h-8.131979zm17.847548 14.832272c0 1.1835334.114534 2.3384156.343605 3.4646813s.620394 2.1379807 1.173983 3.0351754c.553588.8971946 1.288513 1.6130307 2.204797 2.1475297.916284.5344989 2.061622.8017444 3.436047.8017444 1.374426 0 2.529309-.2672455 3.464682-.8017444.935373-.534499 1.679842-1.2503351 2.233431-2.1475297.553588-.8971947.944912-1.9089097 1.173983-3.0351754s.343604-2.2811479.343604-3.4646813-.114533-2.3479601-.343604-3.493315-.620395-2.1570699-1.173983-3.0351754c-.553589-.8781054-1.298058-1.5939415-2.233431-2.1475297s-2.090256-.8303782-3.464682-.8303782c-1.374425 0-2.519763.27679-3.436047.8303782s-1.651209 1.2694243-2.204797 2.1475297c-.553589.8781055-.944912 1.8898205-1.173983 3.0351754s-.343605 2.3097816-.343605 3.493315zm-8.131979 0c0-2.3670668.36269-4.5145751 1.088081-6.4425892.725392-1.9280141 1.756196-3.5696648 3.092443-4.9250015 1.336248-1.3553366 2.939721-2.4052296 4.810467-3.1497103s3.970532-1.1167154 6.29942-1.1167154c2.328889 0 4.438219.3722347 6.328055 1.1167154 1.889835.7444807 3.502853 1.7943737 4.8391 3.1497103 1.336247 1.3553367 2.367051 2.9969874 3.092443 4.9250015.725391 1.9280141 1.088082 4.0755224 1.088082 6.4425892s-.362691 4.5050306-1.088082 6.4139555c-.725392 1.9089248-1.756196 3.5410311-3.092443 4.8963677-1.336247 1.3553367-2.949265 2.3956851-4.8391 3.1210766-1.889836.7253914-3.999166 1.0880817-6.328055 1.0880817-2.328888 0-4.428674-.3626903-6.29942-1.0880817-1.870746-.7253915-3.474219-1.7657399-4.810467-3.1210766-1.336247-1.3553366-2.367051-2.9874429-3.092443-4.8963677-.725391-1.9089249-1.088081-4.0468887-1.088081-6.4139555zm46.486854 7.7883745c1.145355 0 2.15707-.2290676 3.035176-.6872095.878105-.458142 1.603486-1.0689888 2.176163-1.8325587.572678-.76357 1.002179-1.6321178 1.288518-2.6056694.286339-.9735517.429506-1.9948112.429506-3.0638091 0-1.2217119-.114534-2.3765941-.343605-3.4646813s-.61085-2.0520798-1.145349-2.8920067-1.24079-1.5080406-2.118896-2.0043611c-.878105-.4963204-1.985265-.744477-3.321513-.744477-1.145354 0-2.128436.2290676-2.949274.6872096-.820837.4581419-1.50804 1.0785332-2.061628 1.8611924s-.954457 1.6798404-1.202617 2.6915706-.372238 2.0711676-.372238 3.178344c0 1.0689979.104989 2.1284353.314971 3.178344.209981 1.0499086.572672 1.9948123 1.088081 2.8347392.51541.839927 1.193068 1.5271296 2.032995 2.0616286.839927.5344989 1.88982.8017444 3.14971.8017444zm14.66047 5.0968039c0 1.1835334-.162256 2.5388497-.486773 4.0659896-.324518 1.5271399-1.021265 2.9492676-2.090263 4.2664257-1.068998 1.3171582-2.615203 2.4338625-4.638664 3.3501464-2.02346.9162839-4.734093 1.374419-8.131979 1.374419-1.450783 0-2.930178-.1813451-4.438228-.5440408-1.508051-.3626958-2.882456-.9258202-4.123257-1.6893901s-2.271605-1.7466515-3.092443-2.9492742c-.820838-1.2026226-1.288517-2.6438393-1.403053-4.3236931h8.074712c.381785 1.5271398 1.126254 2.5865773 2.233431 3.178344 1.107176.5917667 2.386137.8876456 3.83692.8876456 2.29071 0 3.960994-.6872027 5.010902-2.0616286 1.049909-1.3744259 1.555767-3.1115214 1.517588-5.2113388v-3.8941872h-.114535c-.878105 1.5653184-2.128432 2.7202006-3.751018 3.4646813-1.622587.7444807-3.331049 1.1167154-5.125438 1.1167154-2.214353 0-4.123249-.3913237-5.726746-1.1739829s-2.920635-1.8516411-3.951455-3.2069777c-1.030819-1.3553367-1.784833-2.9397205-2.262064-4.7531991-.477232-1.8134786-.715844-3.7319194-.715844-5.7553797 0-1.9089249.27679-3.7510097.830379-5.5263098.553588-1.7753002 1.364869-3.3405951 2.433867-4.6959317 1.068998-1.3553367 2.39568-2.433863 3.980088-3.2356115 1.584408-.8017484 3.407404-1.2026166 5.469042-1.2026166 1.947104 0 3.655566.3626903 5.125438 1.0880817 1.469872.7253915 2.70111 1.947085 3.693751 3.6651174h.114535v-3.9514547h7.731107zm10.52289-12.8851784c0 1.1835334.114534 2.3384156.343605 3.4646813s.620395 2.1379807 1.173983 3.0351754c.553588.8971946 1.288513 1.6130307 2.204797 2.1475297.916284.5344989 2.061622.8017444 3.436048.8017444s2.529308-.2672455 3.464681-.8017444c.935373-.534499 1.679843-1.2503351 2.233431-2.1475297.553588-.8971947.944912-1.9089097 1.173983-3.0351754s.343605-2.2811479.343605-3.4646813-.114534-2.3479601-.343605-3.493315-.620395-2.1570699-1.173983-3.0351754c-.553588-.8781054-1.298058-1.5939415-2.233431-2.1475297s-2.090255-.8303782-3.464681-.8303782-2.519764.27679-3.436048.8303782-1.651209 1.2694243-2.204797 2.1475297c-.553588.8781055-.944912 1.8898205-1.173983 3.0351754s-.343605 2.3097816-.343605 3.493315zm-8.131979 0c0-2.3670668.36269-4.5145751 1.088082-6.4425892.725391-1.9280141 1.756195-3.5696648 3.092443-4.9250015 1.336247-1.3553366 2.93972-2.4052296 4.810466-3.1497103 1.870747-.7444807 3.970532-1.1167154 6.299421-1.1167154 2.328888 0 4.438218.3722347 6.328054 1.1167154s3.502853 1.7943737 4.8391 3.1497103c1.336248 1.3553367 2.367052 2.9969874 3.092443 4.9250015.725392 1.9280141 1.088082 4.0755224 1.088082 6.4425892s-.36269 4.5050306-1.088082 6.4139555c-.725391 1.9089248-1.756195 3.5410311-3.092443 4.8963677-1.336247 1.3553367-2.949264 2.3956851-4.8391 3.1210766-1.889836.7253914-3.999166 1.0880817-6.328054 1.0880817-2.328889 0-4.428674-.3626903-6.299421-1.0880817-1.870746-.7253915-3.474219-1.7657399-4.810466-3.1210766-1.336248-1.3553366-2.367052-2.9874429-3.092443-4.8963677-.725392-1.9089249-1.088082-4.0468887-1.088082-6.4139555zm46.486855 7.7883745c1.145355 0 2.15707-.2290676 3.035175-.6872095.878106-.458142 1.603486-1.0689888 2.176164-1.8325587.572677-.76357 1.002179-1.6321178 1.288517-2.6056694.286339-.9735517.429506-1.9948112.429506-3.0638091 0-1.2217119-.114533-2.3765941-.343604-3.4646813s-.610851-2.0520798-1.14535-2.8920067-1.24079-1.5080406-2.118896-2.0043611c-.878105-.4963204-1.985265-.744477-3.321512-.744477-1.145355 0-2.128437.2290676-2.949274.6872096-.820838.4581419-1.508041 1.0785332-2.061629 1.8611924s-.954456 1.6798404-1.202617 2.6915706c-.24816 1.0117302-.372238 2.0711676-.372238 3.178344 0 1.0689979.104989 2.1284353.314971 3.178344.209982 1.0499086.572672 1.9948123 1.088082 2.8347392.515409.839927 1.193068 1.5271296 2.032995 2.0616286.839926.5344989 1.889819.8017444 3.14971.8017444zm14.660469 5.0968039c0 1.1835334-.162256 2.5388497-.486773 4.0659896s-1.021264 2.9492676-2.090262 4.2664257c-1.068998 1.3171582-2.615204 2.4338625-4.638665 3.3501464-2.02346.9162839-4.734092 1.374419-8.131979 1.374419-1.450783 0-2.930177-.1813451-4.438228-.5440408-1.50805-.3626958-2.882456-.9258202-4.123257-1.6893901s-2.271605-1.7466515-3.092443-2.9492742c-.820837-1.2026226-1.288517-2.6438393-1.403052-4.3236931h8.074711c.381785 1.5271398 1.126255 2.5865773 2.233431 3.178344 1.107177.5917667 2.386137.8876456 3.83692.8876456 2.29071 0 3.960994-.6872027 5.010903-2.0616286 1.049908-1.3744259 1.555766-3.1115214 1.517587-5.2113388v-3.8941872h-.114535c-.878105 1.5653184-2.128432 2.7202006-3.751018 3.4646813s-3.331048 1.1167154-5.125438 1.1167154c-2.214353 0-4.123249-.3913237-5.726746-1.1739829s-2.920635-1.8516411-3.951454-3.2069777c-1.03082-1.3553367-1.784834-2.9397205-2.262065-4.7531991s-.715843-3.7319194-.715843-5.7553797c0-1.9089249.27679-3.7510097.830378-5.5263098.553588-1.7753002 1.364869-3.3405951 2.433867-4.6959317 1.068998-1.3553367 2.395681-2.433863 3.980088-3.2356115 1.584408-.8017484 3.407404-1.2026166 5.469043-1.2026166 1.947103 0 3.655565.3626903 5.125437 1.0880817 1.469872.7253915 2.701111 1.947085 3.693751 3.6651174h.114535v-3.9514547h7.731107zm3.307191-38.99913989h8.131979v15.40494659h.171802c1.03082-1.7180324 2.347958-2.9683594 3.951455-3.7510186s3.168792-1.1739829 4.695932-1.1739829c2.176174 0 3.960992.2958789 5.354507.8876456s2.491131 1.4125921 3.292879 2.4625008c.801749 1.0499086 1.364873 2.3288691 1.68939 3.8369197.324517 1.5080507.486774 3.1783349.486774 5.0109027v18.2110521h-8.13198v-16.7220981c0-2.4434238-.381779-4.2664197-1.145349-5.4690424-.76357-1.2026226-2.118886-1.803925-4.06599-1.803925-2.214352 0-3.817825.6585692-4.810466 1.9757274-.992641 1.3171581-1.488954 3.4837554-1.488954 6.4998566v15.5194815h-8.131979zm31.081908 32.06977729h8.990991v8.8191887h-8.990991zm32.513594-10.3654102c-.534498-3.3978862-2.53884-5.0968039-6.013083-5.0968039-1.298069 0-2.38614.295879-3.264245.8876457s-1.593941 1.3553252-2.14753 2.2906983c-.553588.9353732-.944912 1.9661772-1.173983 3.0924428-.229071 1.1262657-.343604 2.24297-.343604 3.3501464 0 1.0689979.114533 2.1570688.343604 3.2642452s.601306 2.1093469 1.116716 3.0065416 1.212157 1.6321198 2.090262 2.2047972c.878106.5726775 1.947087.8590119 3.206978.8590119 1.947103 0 3.445587-.5440354 4.495495-1.6321226 1.049909-1.0880872 1.708478-2.5483928 1.975728-4.3809606h7.845642c-.534499 3.9323852-2.061616 6.9293523-4.581397 8.9909911s-5.745815 3.0924428-9.678201 3.0924428c-2.214353 0-4.247327-.3722348-6.098984-1.1167154-1.851657-.7444807-3.426497-1.7848292-4.724566-3.1210766-1.298068-1.3362474-2.309783-2.9301757-3.035175-4.7818328-.725391-1.8516572-1.088082-3.8846316-1.088082-6.0989845 0-2.2907098.334057-4.4191291 1.002181-6.3853217s1.651205-3.6651102 2.949274-5.0968039c1.298069-1.4316936 2.882453-2.5483979 4.753199-3.3501464 1.870747-.8017484 4.00871-1.2026166 6.413956-1.2026166 1.756211 0 3.445584.2290675 5.06817.6872095s3.073347 1.1548891 4.352327 2.0902623c1.278979.9353731 2.319328 2.0997998 3.121076 3.493315.801749 1.3935151 1.259884 3.0447104 1.374419 4.9536352zm16.707776 4.4095944c0 1.1835334.114534 2.3384156.343605 3.4646813s.620395 2.1379807 1.173983 3.0351754c.553588.8971946 1.288513 1.6130307 2.204797 2.1475297.916284.5344989 2.061622.8017444 3.436048.8017444s2.529308-.2672455 3.464681-.8017444c.935373-.534499 1.679843-1.2503351 2.233431-2.1475297.553588-.8971947.944912-1.9089097 1.173983-3.0351754s.343605-2.2811479.343605-3.4646813-.114534-2.3479601-.343605-3.493315-.620395-2.1570699-1.173983-3.0351754c-.553588-.8781054-1.298058-1.5939415-2.233431-2.1475297s-2.090255-.8303782-3.464681-.8303782-2.519764.27679-3.436048.8303782-1.651209 1.2694243-2.204797 2.1475297c-.553588.8781055-.944912 1.8898205-1.173983 3.0351754s-.343605 2.3097816-.343605 3.493315zm-8.131979 0c0-2.3670668.36269-4.5145751 1.088082-6.4425892.725391-1.9280141 1.756195-3.5696648 3.092443-4.9250015 1.336247-1.3553366 2.93972-2.4052296 4.810466-3.1497103 1.870747-.7444807 3.970532-1.1167154 6.299421-1.1167154 2.328888 0 4.438218.3722347 6.328054 1.1167154s3.502853 1.7943737 4.8391 3.1497103c1.336248 1.3553367 2.367052 2.9969874 3.092443 4.9250015.725392 1.9280141 1.088082 4.0755224 1.088082 6.4425892s-.36269 4.5050306-1.088082 6.4139555c-.725391 1.9089248-1.756195 3.5410311-3.092443 4.8963677-1.336247 1.3553367-2.949264 2.3956851-4.8391 3.1210766-1.889836.7253914-3.999166 1.0880817-6.328054 1.0880817-2.328889 0-4.428674-.3626903-6.299421-1.0880817-1.870746-.7253915-3.474219-1.7657399-4.810466-3.1210766-1.336248-1.3553366-2.367052-2.9874429-3.092443-4.8963677-.725392-1.9089249-1.088082-4.0468887-1.088082-6.4139555zm32.914467-14.832272h7.673839v4.0087222h.114535c1.068998-1.5271399 2.357503-2.7106556 3.865554-3.5505825s3.235602-1.2598841 5.182705-1.2598841c1.870746 0 3.579208.3626903 5.125438 1.0880817 1.546229.7253915 2.7202 2.0043519 3.521948 3.8369198.878106-1.2980689 2.071166-2.4434066 3.579217-3.4360476 1.50805-.9926409 3.292868-1.4889539 5.354507-1.4889539 1.565318 0 3.01608.1908896 4.352327.5726746s2.481585.9926317 3.436047 1.8325587c.954463.8399269 1.698932 1.9375422 2.233431 3.2928789.534499 1.3553366.801745 2.9874429.801745 4.8963678v19.8145409h-8.131979v-16.7793656c0-.9926409-.038178-1.9280001-.114535-2.8061055s-.286336-1.6416639-.629942-2.2906984c-.343607-.6490344-.849464-1.1644364-1.517588-1.5462214-.668124-.3817849-1.574849-.5726746-2.720204-.5726746s-2.07117.2195231-2.777472.6585758-1.259882 1.0117216-1.660756 1.7180238c-.400875.7063022-.66812 1.5080386-.801745 2.4052333s-.200436 1.8039204-.200436 2.7202043v16.4930283h-8.131979v-16.6075632c0-.8781054-.019089-1.7466532-.057268-2.6056694-.038178-.8590162-.200434-1.6512081-.486773-2.3765996-.286339-.7253914-.763563-1.3076048-1.431687-1.7466575-.668123-.4390527-1.651205-.6585758-2.949274-.6585758-.381785 0-.887642.0859004-1.517587.2577036-.629946.1718032-1.240792.4963156-1.832559.9735468s-1.097624 1.1644339-1.517588 2.0616286c-.419963.8971946-.629942 2.0711658-.629942 3.5219487v17.1802378h-8.131979z" fill="#e53935" fill-rule="evenodd"/></svg>