<?xml version="1.0" encoding="UTF-8"?>
<svg width="28px" height="28px" viewBox="0 0 28 28" version="1.1" xmlns="http://www.w3.org/2000/svg" xmlns:xlink="http://www.w3.org/1999/xlink">
    <!-- Generator: Sketch 49.3 (51167) - http://www.bohemiancoding.com/sketch -->
    <desc>Created with Sketch.</desc>
    <defs></defs>
    <g id="Mariogogh_Index" stroke="none" stroke-width="1" fill="none" fill-rule="evenodd">
        <g id="Active">
            <g id="Group">
                <circle id="Oval-2" fill="#000000" cx="14" cy="14" r="14"></circle>
                <path d="M15.8854167,15.8854167 C16.4062526,15.3645807 16.6666667,14.7361148 16.6666667,14 C16.6666667,13.2638852 16.4062526,12.6354193 15.8854167,12.1145833 C15.3645807,11.5937474 14.7361148,11.3333333 14,11.3333333 C13.2638852,11.3333333 12.6354193,11.5937474 12.1145833,12.1145833 C11.5937474,12.6354193 11.3333333,13.2638852 11.3333333,14 C11.3333333,14.7361148 11.5937474,15.3645807 12.1145833,15.8854167 C12.6354193,16.4062526 13.2638852,16.6666667 14,16.6666667 C14.7361148,16.6666667 15.3645807,16.4062526 15.8854167,15.8854167 Z M16.90625,11.09375 C17.7048651,11.8923651 18.1041667,12.8611054 18.1041667,14 C18.1041667,15.1388946 17.7048651,16.1076349 16.90625,16.90625 C16.1076349,17.7048651 15.1388946,18.1041667 14,18.1041667 C12.8611054,18.1041667 11.8923651,17.7048651 11.09375,16.90625 C10.2951349,16.1076349 9.89583333,15.1388946 9.89583333,14 C9.89583333,12.8611054 10.2951349,11.8923651 11.09375,11.09375 C11.8923651,10.2951349 12.8611054,9.89583333 14,9.89583333 C15.1388946,9.89583333 16.1076349,10.2951349 16.90625,11.09375 Z M18.9479167,9.05208333 C19.1354176,9.23958427 19.2291667,9.46527646 19.2291667,9.72916667 C19.2291667,9.99305688 19.1354176,10.2187491 18.9479167,10.40625 C18.7604157,10.5937509 18.5347235,10.6875 18.2708333,10.6875 C18.0069431,10.6875 17.7812509,10.5937509 17.59375,10.40625 C17.4062491,10.2187491 17.3125,9.99305688 17.3125,9.72916667 C17.3125,9.46527646 17.4062491,9.23958427 17.59375,9.05208333 C17.7812509,8.8645824 18.0069431,8.77083333 18.2708333,8.77083333 C18.5347235,8.77083333 18.7604157,8.8645824 18.9479167,9.05208333 Z M14.7916667,7.4375 L14,7.4375 C13.9513886,7.4375 13.6857663,7.43576391 13.203125,7.43229167 C12.7204837,7.42881943 12.3541679,7.42881943 12.1041667,7.43229167 C11.8541654,7.43576391 11.5190993,7.44618047 11.0989583,7.46354167 C10.6788173,7.48090286 10.321182,7.51562474 10.0260417,7.56770833 C9.7309013,7.61979193 9.4826399,7.6840274 9.28125,7.76041667 C8.93402604,7.89930625 8.62847354,8.10069313 8.36458333,8.36458333 C8.10069312,8.62847354 7.89930625,8.93402604 7.76041667,9.28125 C7.6840274,9.4826399 7.61979193,9.7309013 7.56770833,10.0260417 C7.51562474,10.321182 7.48090286,10.6788173 7.46354167,11.0989583 C7.44618047,11.5190993 7.43576391,11.8541654 7.43229167,12.1041667 C7.42881943,12.3541679 7.42881943,12.7204837 7.43229167,13.203125 C7.43576391,13.6857663 7.4375,13.9513886 7.4375,14 C7.4375,14.0486114 7.43576391,14.3142337 7.43229167,14.796875 C7.42881943,15.2795163 7.42881943,15.6458321 7.43229167,15.8958333 C7.43576391,16.1458346 7.44618047,16.4809007 7.46354167,16.9010417 C7.48090286,17.3211827 7.51562474,17.678818 7.56770833,17.9739583 C7.61979193,18.2690987 7.6840274,18.5173601 7.76041667,18.71875 C7.89930625,19.065974 8.10069312,19.3715265 8.36458333,19.6354167 C8.62847354,19.8993069 8.93402604,20.1006937 9.28125,20.2395833 C9.4826399,20.3159726 9.7309013,20.3802081 10.0260417,20.4322917 C10.321182,20.4843753 10.6788173,20.5190971 11.0989583,20.5364583 C11.5190993,20.5538195 11.8541654,20.5642361 12.1041667,20.5677083 C12.3541679,20.5711806 12.7204837,20.5711806 13.203125,20.5677083 C13.6857663,20.5642361 13.9513886,20.5625 14,20.5625 C14.0486114,20.5625 14.3142337,20.5642361 14.796875,20.5677083 C15.2795163,20.5711806 15.6458321,20.5711806 15.8958333,20.5677083 C16.1458346,20.5642361 16.4809007,20.5538195 16.9010417,20.5364583 C17.3211827,20.5190971 17.678818,20.4843753 17.9739583,20.4322917 C18.2690987,20.3802081 18.5173601,20.3159726 18.71875,20.2395833 C19.065974,20.1006937 19.3715265,19.8993069 19.6354167,19.6354167 C19.8993069,19.3715265 20.1006938,19.065974 20.2395833,18.71875 C20.3159726,18.5173601 20.3802081,18.2690987 20.4322917,17.9739583 C20.4843753,17.678818 20.5190971,17.3211827 20.5364583,16.9010417 C20.5538195,16.4809007 20.5642361,16.1458346 20.5677083,15.8958333 C20.5711806,15.6458321 20.5711806,15.2795163 20.5677083,14.796875 C20.5642361,14.3142337 20.5625,14.0486114 20.5625,14 C20.5625,13.9513886 20.5642361,13.6857663 20.5677083,13.203125 C20.5711806,12.7204837 20.5711806,12.3541679 20.5677083,12.1041667 C20.5642361,11.8541654 20.5538195,11.5190993 20.5364583,11.0989583 C20.5190971,10.6788173 20.4843753,10.321182 20.4322917,10.0260417 C20.3802081,9.7309013 20.3159726,9.4826399 20.2395833,9.28125 C20.1006938,8.93402604 19.8993069,8.62847354 19.6354167,8.36458333 C19.3715265,8.10069313 19.065974,7.89930625 18.71875,7.76041667 C18.5173601,7.6840274 18.2690987,7.61979193 17.9739583,7.56770833 C17.678818,7.51562474 17.3211827,7.48090286 16.9010417,7.46354167 C16.4809007,7.44618047 16.1458346,7.43576391 15.8958333,7.43229167 C15.6458321,7.42881943 15.2777802,7.43055552 14.7916667,7.4375 Z M21.9479167,10.6979167 C21.9826391,11.3090308 22,12.4097143 22,14 C22,15.5902857 21.9826391,16.6909692 21.9479167,17.3020833 C21.8784719,18.746535 21.4479206,19.8645794 20.65625,20.65625 C19.8645794,21.4479206 18.746535,21.8784719 17.3020833,21.9479167 C16.6909692,21.9826391 15.5902857,22 14,22 C12.4097143,22 11.3090308,21.9826391 10.6979167,21.9479167 C9.253465,21.8784719 8.13542063,21.4479206 7.34375,20.65625 C6.55207937,19.8645794 6.12152812,18.746535 6.05208333,17.3020833 C6.01736094,16.6909692 6,15.5902857 6,14 C6,12.4097143 6.01736094,11.3090308 6.05208333,10.6979167 C6.12152812,9.253465 6.55207937,8.13542063 7.34375,7.34375 C8.13542063,6.55207938 9.253465,6.12152813 10.6979167,6.05208333 C11.3090308,6.01736094 12.4097143,6 14,6 C15.5902857,6 16.6909692,6.01736094 17.3020833,6.05208333 C18.746535,6.12152813 19.8645794,6.55207938 20.65625,7.34375 C21.4479206,8.13542063 21.8784719,9.253465 21.9479167,10.6979167 Z" id="instagram---FontAwesome" fill="#FFFFFF"></path>
            </g>
        </g>
    </g>
</svg>