<?xml version="1.0" encoding="UTF-8"?>
<svg width="320px" height="150px" viewBox="0 0 320 150" version="1.1" xmlns="http://www.w3.org/2000/svg" xmlns:xlink="http://www.w3.org/1999/xlink">
    <!-- Generator: Sketch 49.3 (51167) - http://www.bohemiancoding.com/sketch -->
    <desc>Created with Sketch.</desc>
    <defs></defs>
    <g id="Mariogogh_Index" stroke="none" stroke-width="1" fill="none" fill-rule="evenodd">
        <g id="Hover">
            <path d="M12.304914,84.0661333 L21.1847488,84.0661333 C22.6224435,84.0661333 24.0178322,83.8335096 25.3709566,83.3682551 C26.7240811,82.9030006 27.9291895,82.1311126 28.986318,81.0525681 C30.0434464,79.9740236 30.8891365,78.5677072 31.5234136,76.8335768 C32.1576907,75.0994464 32.4748245,72.9846849 32.4748245,70.489229 C32.4748245,68.2052523 32.2528309,66.1433599 31.8088369,64.3034899 C31.3648429,62.4636198 30.6354352,60.8881225 29.6205919,59.5769507 C28.6057485,58.265779 27.2632155,57.2612673 25.5929525,56.5633855 C23.9226895,55.8655038 21.8613199,55.5165681 19.4087818,55.5165681 L12.304914,55.5165681 L12.304914,84.0661333 Z M2.34681349,47.142029 L21.8824501,47.142029 C24.8001247,47.142029 27.5169041,47.6072765 30.0328699,48.5377855 C32.5488357,49.4682945 34.7264877,50.8640371 36.5658913,52.7250551 C38.4052948,54.5860731 39.842968,56.9123107 40.8789539,59.7038377 C41.9149398,62.4953647 42.432925,65.7732449 42.432925,69.5375768 C42.432925,72.8366542 42.0100799,75.8819107 41.1643772,78.6734377 C40.3186744,81.4649647 39.0395681,83.8757927 37.32702,85.9059942 C35.6144718,87.9361957 33.4791043,89.5328406 30.9208534,90.6959768 C28.3626025,91.8591131 25.3498315,92.4406725 21.8824501,92.4406725 L2.34681349,92.4406725 L2.34681349,47.142029 Z M67.441817,72.5194203 C67.0189656,70.2354437 66.2684156,68.5013393 65.1901446,67.3170551 C64.1118735,66.1327709 62.473349,65.5406377 60.2745217,65.5406377 C58.836827,65.5406377 57.6422897,65.7838352 56.6908741,66.2702377 C55.7394585,66.7566401 54.9783374,67.3593471 54.407488,68.0783768 C53.8366386,68.7974065 53.4349358,69.5587206 53.2023676,70.362342 C52.9697993,71.1659634 52.8323747,71.8849823 52.7900895,72.5194203 L67.441817,72.5194203 Z M52.7900895,78.2293333 C52.9169449,81.1477479 53.6569238,83.2625094 55.0100482,84.5736812 C56.3631727,85.8848529 58.3082599,86.540429 60.8453683,86.540429 C62.6636292,86.540429 64.2281559,86.0857553 65.5389952,85.1763942 C66.8498345,84.2670331 67.6532401,83.3048167 67.9492361,82.2897159 L75.8776601,82.2897159 C74.6091059,86.2232313 72.6640187,89.035864 70.04234,90.7276986 C67.4206614,92.4195331 64.2493235,93.2654377 60.5282313,93.2654377 C57.9488378,93.2654377 55.62319,92.8530592 53.5512182,92.0282899 C51.4792464,91.2035205 49.7244394,90.0298279 48.2867447,88.5071768 C46.84905,86.9845257 45.7390817,85.1658309 44.9568067,83.0510377 C44.1745316,80.9362445 43.7833999,78.6100069 43.7833999,76.0722551 C43.7833999,73.619095 44.1851027,71.3351526 44.9885204,69.2203594 C45.791938,67.1055662 46.9336196,65.2762976 48.4135995,63.7324986 C49.8935794,62.1886995 51.6589574,60.9727117 53.7097867,60.0844986 C55.7606159,59.1962854 58.0334081,58.7521855 60.5282313,58.7521855 C63.3190505,58.7521855 65.7504095,59.2914497 67.8223813,60.3699942 C69.8943531,61.4485387 71.5963045,62.8971503 72.9282864,64.7158725 C74.2602682,66.5345946 75.2222407,68.6070608 75.8142327,70.9333333 C76.4062246,73.2596058 76.6176471,75.6915815 76.4485066,78.2293333 L52.7900895,78.2293333 Z M85.7274055,81.7821681 C85.7274055,82.754973 85.9282569,83.5903038 86.3299657,84.2881855 C86.7316745,84.9860673 87.2496597,85.5570529 87.8839368,86.0011594 C88.5182139,86.445266 89.2476216,86.773054 90.0721818,86.9845333 C90.896742,87.1960127 91.7530032,87.3017507 92.6409912,87.3017507 C93.2752682,87.3017507 93.9412492,87.2277341 94.638954,87.0796986 C95.3366588,86.931663 95.9709264,86.6990393 96.5417757,86.3818203 C97.1126251,86.0646013 97.5883258,85.641649 97.968892,85.1129507 C98.3494583,84.5842524 98.5397386,83.9181026 98.5397386,83.1144812 C98.5397386,81.7610135 97.6411928,80.745928 95.8440744,80.0691942 C94.046956,79.3924604 91.5415991,78.7157367 88.3279285,78.0390029 C87.0170892,77.7429319 85.7379829,77.3939962 84.4905713,76.9921855 C83.2431597,76.5903748 82.1331915,76.0616844 81.1606333,75.4060986 C80.1880751,74.7505127 79.4058117,73.9257557 78.8138198,72.9318029 C78.2218278,71.9378501 77.9258363,70.7218623 77.9258363,69.2838029 C77.9258363,67.1690097 78.3381102,65.4349053 79.1626704,64.0814377 C79.9872307,62.72797 81.0760567,61.6600155 82.4291811,60.877542 C83.7823056,60.0950686 85.3045477,59.5452306 86.9959533,59.2280116 C88.6873589,58.9107926 90.4210236,58.7521855 92.1969994,58.7521855 C93.9729753,58.7521855 95.6960688,58.9213664 97.3663318,59.2597333 C99.0365948,59.5981002 100.527124,60.1690858 101.837963,60.9727072 C103.148802,61.7763287 104.237628,62.8442832 105.104474,64.1766029 C105.971319,65.5089226 106.489304,67.190158 106.658445,69.2203594 L98.0957468,69.2203594 C97.9688914,67.486229 97.3134816,66.3125364 96.1294977,65.6992464 C94.9455138,65.0859564 93.5501251,64.7793159 91.9432898,64.7793159 C91.4358682,64.7793159 90.8861696,64.8110374 90.2941777,64.8744812 C89.7021857,64.937925 89.1630583,65.0753844 88.6767792,65.2868638 C88.1905001,65.4983431 87.7782262,65.8049835 87.439945,66.2067942 C87.1016639,66.6086049 86.9325259,67.1478691 86.9325259,67.8246029 C86.9325259,68.6282243 87.2285174,69.2838004 87.8205094,69.7913507 C88.4125013,70.2989011 89.1841936,70.7112796 90.1356092,71.0284986 C91.0870248,71.3457175 92.1758508,71.6312103 93.4021199,71.8849855 C94.6283889,72.1387607 95.8757818,72.4136797 97.144336,72.7097507 C98.4551753,73.0058218 99.7342815,73.3653312 100.981693,73.7882899 C102.229105,74.2112485 103.339073,74.7716603 104.311631,75.469542 C105.284189,76.1674238 106.066453,77.034476 106.658445,78.0707246 C107.250437,79.1069733 107.546428,80.386404 107.546428,81.9090551 C107.546428,84.0661441 107.113012,85.8742652 106.246167,87.3334725 C105.379321,88.7926798 104.248211,89.9663724 102.852801,90.8545855 C101.457392,91.7427986 99.8611516,92.3666533 98.0640331,92.7261681 C96.2669147,93.085683 94.4381099,93.2654377 92.5775638,93.2654377 C90.6747325,93.2654377 88.8142143,93.0751091 86.9959533,92.6944464 C85.1776923,92.3137836 83.56031,91.6793552 82.1437578,90.791142 C80.7272057,89.9029289 79.5643818,88.7292363 78.6552513,87.270029 C77.7461208,85.8108217 77.2492779,83.981553 77.1647076,81.7821681 L85.7274055,81.7821681 Z M119.045286,54.5649159 L110.038596,54.5649159 L110.038596,47.142029 L119.045286,47.142029 L119.045286,54.5649159 Z M110.038596,59.6403942 L119.045286,59.6403942 L119.045286,92.4406725 L110.038596,92.4406725 L110.038596,59.6403942 Z M138.40914,84.7005681 C139.677694,84.7005681 140.798233,84.4467967 141.770792,83.9392464 C142.74335,83.431696 143.546755,82.7549723 144.181033,81.9090551 C144.81531,81.0631378 145.29101,80.1009213 145.608149,79.0223768 C145.925287,77.9438323 146.083854,76.8124349 146.083854,75.6281507 C146.083854,74.2746831 145.957001,72.9952524 145.70329,71.7898203 C145.449579,70.5843882 145.026734,69.5164336 144.434742,68.5859246 C143.84275,67.6554156 143.060487,66.9152491 142.087929,66.3654029 C141.11537,65.8155567 139.88912,65.5406377 138.40914,65.5406377 C137.140586,65.5406377 136.05176,65.7944091 135.142629,66.3019594 C134.233499,66.8095098 133.472378,67.4968073 132.859243,68.3638725 C132.246109,69.2309377 131.802121,70.2248756 131.527268,71.3457159 C131.252415,72.4665563 131.11499,73.6402489 131.11499,74.866829 C131.11499,76.0511132 131.231272,77.2248058 131.463841,78.387942 C131.696409,79.5510783 132.098112,80.5978852 132.668961,81.5283942 C133.23981,82.4589032 133.99036,83.2202173 134.920633,83.8123594 C135.850906,84.4045015 137.01373,84.7005681 138.40914,84.7005681 Z M154.646552,90.3470377 C154.646552,91.6582095 154.466843,93.1596901 154.107419,94.8515246 C153.747996,96.5433592 152.976303,98.1188565 151.79232,99.5780638 C150.608336,101.037271 148.895813,102.274407 146.654701,103.289507 C144.413588,104.304608 141.411389,104.812151 137.648011,104.812151 C136.041176,104.812151 134.402651,104.611248 132.732388,104.209438 C131.062125,103.807627 129.539883,103.183772 128.165616,102.337855 C126.791349,101.491938 125.649668,100.402836 124.740537,99.0705159 C123.831407,97.7381962 123.313421,96.1415513 123.186566,94.2805333 L132.129828,94.2805333 C132.55268,95.9723679 133.377227,97.1460605 134.603496,97.8016464 C135.829765,98.4572323 137.246296,98.7850203 138.853132,98.7850203 C141.39024,98.7850203 143.240187,98.0237062 144.403028,96.5010551 C145.56587,94.978404 146.126139,93.0539711 146.083854,90.7276986 L146.083854,86.413542 L145.957,86.413542 C144.984441,88.1476724 143.599624,89.4271031 141.802505,90.2518725 C140.005387,91.0766418 138.113155,91.4890203 136.125754,91.4890203 C133.673216,91.4890203 131.55899,91.0554942 129.783015,90.188429 C128.007039,89.3213638 126.548223,88.1370974 125.406525,86.6355942 C124.264826,85.134091 123.429707,83.378839 122.901143,81.3697855 C122.372578,79.360732 122.1083,77.2353967 122.1083,74.9937159 C122.1083,72.8789228 122.414863,70.8381779 123.027997,68.8714203 C123.641132,66.9046626 124.539678,65.1705582 125.723662,63.6690551 C126.907645,62.1675519 128.377032,60.9727117 130.131865,60.0844986 C131.886699,59.1962854 133.905784,58.7521855 136.189181,58.7521855 C138.345723,58.7521855 140.237955,59.1539902 141.865933,59.9576116 C143.493911,60.761233 144.857586,62.1146803 145.957,64.0179942 L146.083854,64.0179942 L146.083854,59.6403942 L154.646552,59.6403942 L154.646552,90.3470377 Z M158.85126,59.6403942 L167.413958,59.6403942 L167.413958,64.2083246 L167.60424,64.2083246 C168.745939,62.3050108 170.225896,60.919842 172.044157,60.0527768 C173.862418,59.1857116 175.722936,58.7521855 177.625768,58.7521855 C180.036021,58.7521855 182.012821,59.0799735 183.556229,59.7355594 C185.099636,60.3911453 186.315316,61.3004927 187.203304,62.463629 C188.091292,63.6267652 188.714988,65.0436554 189.074412,66.714342 C189.433835,68.3850286 189.613545,70.2354449 189.613545,72.2656464 L189.613545,92.4406725 L180.606855,92.4406725 L180.606855,73.9151768 C180.606855,71.2082415 180.18401,69.1886443 179.338307,67.8563246 C178.492604,66.5240049 176.991504,65.8578551 174.834962,65.8578551 C172.382424,65.8578551 170.606475,66.5874478 169.507062,68.0466551 C168.407648,69.5058624 167.857949,71.9061166 167.857949,75.2474899 L167.857949,92.4406725 L158.85126,92.4406725 L158.85126,59.6403942 Z M215.51042,72.5194203 C215.087569,70.2354437 214.337019,68.5013393 213.258748,67.3170551 C212.180477,66.1327709 210.541952,65.5406377 208.343125,65.5406377 C206.90543,65.5406377 205.710893,65.7838352 204.759477,66.2702377 C203.808062,66.7566401 203.046941,67.3593471 202.476091,68.0783768 C201.905242,68.7974065 201.503539,69.5587206 201.270971,70.362342 C201.038402,71.1659634 200.900978,71.8849823 200.858693,72.5194203 L215.51042,72.5194203 Z M200.858693,78.2293333 C200.985548,81.1477479 201.725527,83.2625094 203.078651,84.5736812 C204.431776,85.8848529 206.376863,86.540429 208.913971,86.540429 C210.732232,86.540429 212.296759,86.0857553 213.607598,85.1763942 C214.918438,84.2670331 215.721843,83.3048167 216.017839,82.2897159 L223.946263,82.2897159 C222.677709,86.2232313 220.732622,89.035864 218.110943,90.7276986 C215.489265,92.4195331 212.317927,93.2654377 208.596834,93.2654377 C206.017441,93.2654377 203.691793,92.8530592 201.619821,92.0282899 C199.54785,91.2035205 197.793043,90.0298279 196.355348,88.5071768 C194.917653,86.9845257 193.807685,85.1658309 193.02541,83.0510377 C192.243135,80.9362445 191.852003,78.6100069 191.852003,76.0722551 C191.852003,73.619095 192.253706,71.3351526 193.057123,69.2203594 C193.860541,67.1055662 195.002223,65.2762976 196.482203,63.7324986 C197.962183,62.1886995 199.727561,60.9727117 201.77839,60.0844986 C203.829219,59.1962854 206.102011,58.7521855 208.596834,58.7521855 C211.387654,58.7521855 213.819013,59.2914497 215.890984,60.3699942 C217.962956,61.4485387 219.664908,62.8971503 220.996889,64.7158725 C222.328871,66.5345946 223.290844,68.6070608 223.882836,70.9333333 C224.474828,73.2596058 224.68625,75.6915815 224.51711,78.2293333 L200.858693,78.2293333 Z M226.818996,59.6403942 L235.381693,59.6403942 L235.381693,65.7309681 L235.508548,65.7309681 C235.9314,64.7158674 236.50224,63.7747985 237.221088,62.9077333 C237.939935,62.0406681 238.764483,61.3005016 239.694756,60.6872116 C240.625029,60.0739216 241.618715,59.5981002 242.675843,59.2597333 C243.732972,58.9213664 244.832369,58.7521855 245.974068,58.7521855 C246.56606,58.7521855 247.22147,58.8579236 247.940317,59.0694029 L247.940317,67.443942 C247.517466,67.3593503 247.010051,67.2853337 246.41806,67.2218899 C245.826068,67.1584461 245.255227,67.1267246 244.70552,67.1267246 C243.0564,67.1267246 241.661011,67.4016436 240.519312,67.9514899 C239.377613,68.5013361 238.457925,69.2520764 237.760221,70.2037333 C237.062516,71.1553903 236.565673,72.26564 236.269677,73.5345159 C235.973681,74.8033919 235.825685,76.1779868 235.825685,77.658342 L235.825685,92.4406725 L226.818996,92.4406725 L226.818996,59.6403942 Z M27.4006332,144.550678 C25.5823722,146.327105 23.6478561,147.659404 21.5970268,148.547617 C19.5461976,149.435831 17.2311209,149.87993 14.6517275,149.87993 C12.6220408,149.87993 10.7086669,149.583864 8.91154852,148.991722 C7.11443011,148.39958 5.56047455,147.521954 4.24963524,146.358817 C2.93879592,145.195681 1.90282555,143.778791 1.14169305,142.108104 C0.380560544,140.437418 0,138.523559 0,136.36647 C0,134.759227 0.274849282,133.289468 0.824556091,131.957148 C1.3742629,130.624828 2.12481286,129.419414 3.07622849,128.34087 C4.02764412,127.262325 5.11647012,126.300109 6.34273916,125.454191 C7.5690082,124.608274 8.83754334,123.868108 10.1483827,123.23367 C8.92211362,121.753314 7.89671438,120.272981 7.07215416,118.792626 C6.24759395,117.312271 5.83532003,115.578166 5.83532003,113.590261 C5.83532003,112.025314 6.16302494,110.608424 6.8184446,109.339548 C7.47386425,108.070672 8.35126773,106.98157 9.45068135,106.072209 C10.550095,105.162848 11.808059,104.464976 13.2246111,103.978574 C14.6411633,103.492171 16.1105499,103.248974 17.6328149,103.248974 C19.3665056,103.248974 20.9838879,103.481598 22.4850103,103.946852 C23.9861328,104.412107 25.2969524,105.099404 26.4175086,106.008765 C27.5380648,106.918126 28.4260394,108.049524 29.0814591,109.402991 C29.7368787,110.756459 30.0645836,112.321382 30.0645836,114.097809 C30.0645836,116.762448 29.2928914,119.004095 27.7494838,120.822817 C26.2060762,122.64154 24.2927024,124.164168 22.0093049,125.390748 L27.8446249,132.559861 C28.3097614,131.713944 28.6691797,130.836318 28.9228906,129.926957 C29.1766014,129.017595 29.3668817,128.097674 29.4937371,127.167165 L37.2953063,127.167165 C37.0838806,129.197367 36.618751,131.164095 35.8999036,133.067409 C35.1810563,134.970723 34.1873704,136.725975 32.9188162,138.333217 L42.115788,149.055165 L31.0794219,149.055165 L27.4006332,144.550678 Z M14.905437,129.07047 C14.1020194,129.408836 13.319756,129.810641 12.5586235,130.275896 C11.797491,130.74115 11.120939,131.290988 10.528947,131.925426 C9.93695506,132.559864 9.46125438,133.257735 9.1018307,134.019061 C8.74240701,134.780386 8.56269787,135.626291 8.56269787,136.5568 C8.56269787,137.360421 8.74240701,138.132309 9.1018307,138.872487 C9.46125438,139.612665 9.93695506,140.247093 10.528947,140.775791 C11.120939,141.30449 11.8080622,141.727442 12.5903372,142.044661 C13.3726123,142.36188 14.186589,142.520487 15.0322918,142.520487 C16.6391271,142.520487 18.0450869,142.150404 19.2502134,141.410226 C20.4553398,140.670048 21.5864503,139.707832 22.6435788,138.523548 L14.905437,129.07047 Z M22.1995871,113.590261 C22.1995871,112.405977 21.7873131,111.390891 20.9627529,110.544974 C20.1381927,109.699057 19.1762202,109.276104 18.0768066,109.276104 C16.977393,109.276104 16.0259916,109.646188 15.222574,110.386365 C14.4191563,111.126543 14.0174535,112.088759 14.0174535,113.273043 C14.0174535,114.711103 14.3980141,115.937664 15.1591466,116.952765 C15.9202791,117.967866 16.7236847,119.004099 17.5693875,120.061496 C18.8379416,119.257874 19.9267676,118.390822 20.8358981,117.460313 C21.7450286,116.529804 22.1995871,115.2398 22.1995871,113.590261 Z M57.3753614,103.756522 L67.3334619,103.756522 L67.3334619,149.055165 L57.3753614,149.055165 L57.3753614,103.756522 Z M72.3627255,103.756522 L81.3694152,103.756522 L81.3694152,149.055165 L72.3627255,149.055165 L72.3627255,103.756522 Z M85.7009775,103.756522 L94.7076671,103.756522 L94.7076671,149.055165 L85.7009775,149.055165 L85.7009775,103.756522 Z M129.547805,149.055165 L120.985107,149.055165 L120.985107,144.487235 L120.794825,144.487235 C119.653126,146.390549 118.173168,147.765144 116.354907,148.611061 C114.536646,149.456978 112.676128,149.87993 110.773297,149.87993 C108.363044,149.87993 106.386243,149.562716 104.842836,148.928278 C103.299428,148.29384 102.083749,147.395067 101.195761,146.23193 C100.307773,145.068794 99.6840764,143.651904 99.3246527,141.981217 C98.965229,140.310531 98.7855199,138.460114 98.7855199,136.429913 L98.7855199,116.254887 L107.792209,116.254887 L107.792209,134.780383 C107.792209,137.487318 108.215055,139.506915 109.060757,140.839235 C109.90646,142.171554 111.40756,142.837704 113.564102,142.837704 C116.01664,142.837704 117.792589,142.108112 118.892003,140.648904 C119.991417,139.189697 120.541115,136.789443 120.541115,133.44807 L120.541115,116.254887 L129.547805,116.254887 L129.547805,149.055165 Z M140.348961,138.396661 C140.348961,139.369466 140.549812,140.204797 140.951521,140.902678 C141.35323,141.60056 141.871215,142.171546 142.505492,142.615652 C143.139769,143.059759 143.869177,143.387547 144.693737,143.599026 C145.518298,143.810505 146.374559,143.916243 147.262547,143.916243 C147.896824,143.916243 148.562805,143.842227 149.26051,143.694191 C149.958214,143.546156 150.592482,143.313532 151.163331,142.996313 C151.734181,142.679094 152.209881,142.256142 152.590448,141.727443 C152.971014,141.198745 153.161294,140.532595 153.161294,139.728974 C153.161294,138.375506 152.262748,137.360421 150.46563,136.683687 C148.668512,136.006953 146.163155,135.330229 142.949484,134.653496 C141.638645,134.357425 140.359539,134.008489 139.112127,133.606678 C137.864715,133.204868 136.754747,132.676177 135.782189,132.020591 C134.809631,131.365005 134.027367,130.540248 133.435375,129.546296 C132.843383,128.552343 132.547392,127.336355 132.547392,125.898296 C132.547392,123.783502 132.959666,122.049398 133.784226,120.69593 C134.608786,119.342463 135.697612,118.274508 137.050737,117.492035 C138.403861,116.709561 139.926103,116.159723 141.617509,115.842504 C143.308914,115.525285 145.042579,115.366678 146.818555,115.366678 C148.594531,115.366678 150.317624,115.535859 151.987887,115.874226 C153.65815,116.212593 155.148679,116.783579 156.459519,117.5872 C157.770358,118.390821 158.859184,119.458776 159.726029,120.791096 C160.592875,122.123415 161.11086,123.804651 161.28,125.834852 L152.717302,125.834852 C152.590447,124.100722 151.935037,122.927029 150.751053,122.313739 C149.567069,121.700449 148.171681,121.393809 146.564845,121.393809 C146.057424,121.393809 145.507725,121.42553 144.915733,121.488974 C144.323741,121.552418 143.784614,121.689877 143.298335,121.901357 C142.812056,122.112836 142.399782,122.419476 142.061501,122.821287 C141.72322,123.223098 141.554082,123.762362 141.554082,124.439096 C141.554082,125.242717 141.850073,125.898293 142.442065,126.405843 C143.034057,126.913394 143.805749,127.325772 144.757165,127.642991 C145.70858,127.96021 146.797406,128.245703 148.023675,128.499478 C149.249944,128.753253 150.497337,129.028172 151.765892,129.324243 C153.076731,129.620315 154.355837,129.979824 155.603249,130.402783 C156.85066,130.825741 157.960629,131.386153 158.933187,132.084035 C159.905745,132.781917 160.688008,133.648969 161.28,134.685217 C161.871992,135.721466 162.167984,137.000897 162.167984,138.523548 C162.167984,140.680637 161.734568,142.488758 160.867722,143.947965 C160.000877,145.407173 158.869766,146.580865 157.474357,147.469078 C156.078947,148.357291 154.482707,148.981146 152.685589,149.340661 C150.88847,149.700176 149.059665,149.87993 147.199119,149.87993 C145.296288,149.87993 143.43577,149.689602 141.617509,149.308939 C139.799248,148.928276 138.181866,148.293848 136.765313,147.405635 C135.348761,146.517422 134.185937,145.343729 133.276807,143.884522 C132.367676,142.425314 131.870833,140.596046 131.786263,138.396661 L140.348961,138.396661 Z M175.823373,116.254887 L182.419821,116.254887 L182.419821,122.282017 L175.823373,122.282017 L175.823373,138.523548 C175.823373,140.046199 176.07708,141.061284 176.584501,141.568835 C177.091923,142.076385 178.106751,142.330157 179.629016,142.330157 C180.136438,142.330157 180.62271,142.309009 181.087846,142.266713 C181.552983,142.224417 181.99697,142.160974 182.419821,142.076383 L182.419821,149.055165 C181.658689,149.182053 180.812999,149.266643 179.882726,149.308939 C178.952453,149.351235 178.043336,149.372383 177.155348,149.372383 C175.759938,149.372383 174.438548,149.277218 173.191136,149.086887 C171.943724,148.896556 170.844327,148.526472 169.892912,147.976626 C168.941496,147.42678 168.190946,146.644318 167.641239,145.629217 C167.091532,144.614117 166.816683,143.281817 166.816683,141.632278 L166.816683,122.282017 L161.361927,122.282017 L161.361927,116.254887 L166.816683,116.254887 L166.816683,106.421148 L175.823373,106.421148 L175.823373,116.254887 Z M183.706869,116.254887 L192.269567,116.254887 L192.269567,122.345461 L192.396422,122.345461 C192.819273,121.33036 193.390114,120.389291 194.108961,119.522226 C194.827809,118.655161 195.652356,117.914994 196.582629,117.301704 C197.512903,116.688414 198.506588,116.212593 199.563717,115.874226 C200.620845,115.535859 201.720242,115.366678 202.861941,115.366678 C203.453933,115.366678 204.109343,115.472416 204.82819,115.683896 L204.82819,124.058435 C204.405339,123.973843 203.897925,123.899826 203.305933,123.836383 C202.713941,123.772939 202.1431,123.741217 201.593393,123.741217 C199.944273,123.741217 198.548884,124.016136 197.407186,124.565983 C196.265487,125.115829 195.345799,125.866569 194.648094,126.818226 C193.950389,127.769883 193.453546,128.880133 193.15755,130.149009 C192.861554,131.417885 192.713559,132.79248 192.713559,134.272835 L192.713559,149.055165 L183.706869,149.055165 L183.706869,116.254887 Z M204.973545,126.3424 C205.1004,124.227607 205.628957,122.472355 206.55923,121.076591 C207.489503,119.680828 208.673469,118.560004 210.111164,117.714087 C211.548858,116.86817 213.166241,116.265463 214.963359,115.905948 C216.760477,115.546433 218.56814,115.366678 220.386401,115.366678 C222.035521,115.366678 223.705759,115.48299 225.397165,115.715617 C227.088571,115.948245 228.631955,116.402918 230.027365,117.079652 C231.422774,117.756386 232.564456,118.697455 233.452444,119.902887 C234.340432,121.108319 234.784419,122.704964 234.784419,124.69287 L234.784419,141.759165 C234.784419,143.23952 234.868988,144.656411 235.038128,146.009878 C235.207269,147.363346 235.503261,148.378431 235.926112,149.055165 L226.792568,149.055165 C226.623427,148.547615 226.486002,148.029498 226.38029,147.5008 C226.274577,146.972102 226.200579,146.432838 226.158294,145.882991 C224.720599,147.363347 223.029219,148.39958 221.084102,148.991722 C219.138986,149.583864 217.151614,149.87993 215.121928,149.87993 C213.557377,149.87993 212.098562,149.689602 210.745437,149.308939 C209.392313,148.928276 208.208347,148.336143 207.193504,147.532522 C206.17866,146.7289 205.385826,145.713815 204.814976,144.487235 C204.244127,143.260655 203.958707,141.801469 203.958707,140.109635 C203.958707,138.248617 204.286411,136.715415 204.941831,135.509983 C205.597251,134.30455 206.442941,133.342334 207.478927,132.623304 C208.514913,131.904275 209.698879,131.36501 211.030861,131.005496 C212.362843,130.645981 213.705376,130.360488 215.0585,130.149009 C216.411625,129.937529 217.743586,129.768348 219.054426,129.641461 C220.365265,129.514573 221.528089,129.324245 222.542932,129.07047 C223.557776,128.816694 224.361181,128.446611 224.953173,127.960209 C225.545165,127.473806 225.820014,126.765361 225.777729,125.834852 C225.777729,124.862047 225.619162,124.090159 225.302024,123.519165 C224.984885,122.948171 224.56204,122.504071 224.033476,122.186852 C223.504912,121.869633 222.891786,121.658157 222.194082,121.552417 C221.496377,121.446678 220.745827,121.393809 219.942409,121.393809 C218.166433,121.393809 216.771045,121.774466 215.756201,122.535791 C214.741358,123.297117 214.149375,124.565974 213.980234,126.3424 L204.973545,126.3424 Z M225.777729,133.003965 C225.397163,133.342332 224.921462,133.606677 224.350613,133.797009 C223.779764,133.98734 223.166638,134.145947 222.511219,134.272835 C221.855799,134.399722 221.168676,134.50546 220.449828,134.590052 C219.730981,134.674644 219.012144,134.780382 218.293297,134.90727 C217.616735,135.034157 216.950754,135.203338 216.295334,135.414817 C215.639915,135.626297 215.069074,135.91179 214.582795,136.271304 C214.096516,136.630819 213.705384,137.085493 213.409388,137.635339 C213.113392,138.185185 212.965396,138.883057 212.965396,139.728974 C212.965396,140.532595 213.113392,141.209319 213.409388,141.759165 C213.705384,142.309011 214.107087,142.742538 214.614508,143.059757 C215.12193,143.376975 215.713913,143.599025 216.390475,143.725913 C217.067038,143.852801 217.764732,143.916243 218.483579,143.916243 C220.259555,143.916243 221.633802,143.620177 222.60636,143.028035 C223.578918,142.435893 224.297754,141.727448 224.762891,140.902678 C225.228028,140.077909 225.513448,139.242578 225.619161,138.396661 C225.724874,137.550744 225.777729,136.87402 225.777729,136.36647 L225.777729,133.003965 Z M250.152347,116.254887 L256.748796,116.254887 L256.748796,122.282017 L250.152347,122.282017 L250.152347,138.523548 C250.152347,140.046199 250.406054,141.061284 250.913476,141.568835 C251.420898,142.076385 252.435726,142.330157 253.957991,142.330157 C254.465413,142.330157 254.951684,142.309009 255.416821,142.266713 C255.881957,142.224417 256.325945,142.160974 256.748796,142.076383 L256.748796,149.055165 C255.987664,149.182053 255.141973,149.266643 254.2117,149.308939 C253.281427,149.351235 252.372311,149.372383 251.484323,149.372383 C250.088913,149.372383 248.767522,149.277218 247.520111,149.086887 C246.272699,148.896556 245.173302,148.526472 244.221886,147.976626 C243.270471,147.42678 242.519921,146.644318 241.970214,145.629217 C241.420507,144.614117 241.145658,143.281817 241.145658,141.632278 L241.145658,122.282017 L235.690902,122.282017 L235.690902,116.254887 L241.145658,116.254887 L241.145658,106.421148 L250.152347,106.421148 L250.152347,116.254887 Z M266.027695,132.686748 C266.027695,133.99792 266.154548,135.27735 266.408259,136.525078 C266.66197,137.772806 267.095386,138.89363 267.708521,139.887583 C268.321655,140.881535 269.135632,141.674571 270.150475,142.266713 C271.165319,142.858855 272.433854,143.154922 273.956119,143.154922 C275.478384,143.154922 276.75749,142.858855 277.793476,142.266713 C278.829462,141.674571 279.65401,140.881535 280.267144,139.887583 C280.880279,138.89363 281.313695,137.772806 281.567406,136.525078 C281.821117,135.27735 281.94797,133.99792 281.94797,132.686748 C281.94797,131.375576 281.821117,130.085572 281.567406,128.816696 C281.313695,127.54782 280.880279,126.426996 280.267144,125.454191 C279.65401,124.481386 278.829462,123.688351 277.793476,123.075061 C276.75749,122.461771 275.478384,122.15513 273.956119,122.15513 C272.433854,122.15513 271.165319,122.461771 270.150475,123.075061 C269.135632,123.688351 268.321655,124.481386 267.708521,125.454191 C267.095386,126.426996 266.66197,127.54782 266.408259,128.816696 C266.154548,130.085572 266.027695,131.375576 266.027695,132.686748 Z M257.021005,132.686748 C257.021005,130.064404 257.422708,127.685298 258.226126,125.549357 C259.029543,123.413415 260.171225,121.594721 261.651205,120.093217 C263.131185,118.591714 264.907134,117.428595 266.979106,116.603826 C269.051078,115.779057 271.376725,115.366678 273.956119,115.366678 C276.535512,115.366678 278.871731,115.779057 280.964846,116.603826 C283.05796,117.428595 284.84448,118.591714 286.32446,120.093217 C287.80444,121.594721 288.946122,123.413415 289.749539,125.549357 C290.552957,127.685298 290.95466,130.064404 290.95466,132.686748 C290.95466,135.309091 290.552957,137.677624 289.749539,139.792417 C288.946122,141.907211 287.80444,143.715332 286.32446,145.216835 C284.84448,146.718338 283.05796,147.870883 280.964846,148.674504 C278.871731,149.478126 276.535512,149.87993 273.956119,149.87993 C271.376725,149.87993 269.051078,149.478126 266.979106,148.674504 C264.907134,147.870883 263.131185,146.718338 261.651205,145.216835 C260.171225,143.715332 259.029543,141.907211 258.226126,139.792417 C257.422708,137.677624 257.021005,135.309091 257.021005,132.686748 Z M293.763965,116.254887 L302.326663,116.254887 L302.326663,122.345461 L302.453517,122.345461 C302.876369,121.33036 303.44721,120.389291 304.166057,119.522226 C304.884904,118.655161 305.709452,117.914994 306.639725,117.301704 C307.569998,116.688414 308.563684,116.212593 309.620813,115.874226 C310.677941,115.535859 311.777338,115.366678 312.919037,115.366678 C313.511029,115.366678 314.166439,115.472416 314.885286,115.683896 L314.885286,124.058435 C314.462435,123.973843 313.955021,123.899826 313.363029,123.836383 C312.771037,123.772939 312.200196,123.741217 311.650489,123.741217 C310.001369,123.741217 308.60598,124.016136 307.464281,124.565983 C306.322583,125.115829 305.402895,125.866569 304.70519,126.818226 C304.007485,127.769883 303.510642,128.880133 303.214646,130.149009 C302.91865,131.417885 302.770654,132.79248 302.770654,134.272835 L302.770654,149.055165 L293.763965,149.055165 L293.763965,116.254887 Z M309.869236,139.663768 L319.827337,139.663768 L319.827337,149.434064 L309.869236,149.434064 L309.869236,139.663768 Z" id="Mariogogh-UI&amp;UX-Desi" fill="#EF5350"></path>
            <g id="Logo-MG-white1@3x" transform="translate(10.461115, 13.547826) rotate(-360.000000) translate(-10.461115, -13.547826) translate(1.327690, 0.012750)" fill-rule="nonzero">
                <g id="-Logo-Mariogogh-Hover" transform="translate(0.440165, 0.660248)" fill="#FFFFFF">
                    <g id="Group">
                        <path d="M10.7410399,12.0830736 C10.8774911,12.1360381 11.0198845,12.1629545 11.1646988,12.1629545 C11.6438184,12.1629545 12.0668171,11.8788129 12.2424429,11.4392508 C12.3557854,11.1553263 12.3502834,10.8451365 12.2270371,10.5653362 C12.1363631,10.3597731 11.9900083,10.1889409 11.8046988,10.0684683 L10.405414,11.8089171 C10.3710812,11.8514624 10.3352077,11.8927052 10.2977937,11.9322116 C10.4474498,11.9762763 10.5951252,12.0264189 10.7410399,12.0830736 Z M5.72117744,10.0126819 C5.08095736,10.275985 4.47661073,10.6243787 3.92068226,11.0509167 C2.01168638,12.5163407 0.906872077,14.7187096 0.889925722,17.0932132 C0.889779,17.1020407 0.889265475,17.1204191 0.888385144,17.1483484 C0.888385144,21.4078679 4.40200275,24.8733538 8.72068226,24.8733538 C13.0369409,24.8733538 16.5490179,21.4117752 16.5529794,17.1552946 C16.5336121,16.4941064 16.0258817,16.0065723 15.3951252,16.0065723 L8.72068226,16.0065723 C8.08244292,16.0065723 7.56304814,16.518635 7.56304814,17.1483484 C7.56304814,17.7780618 8.08244292,18.2903416 8.72068226,18.2903416 L14.1507785,18.2903416 L13.9555653,18.8668734 C13.2024429,21.093771 11.0988941,22.5898016 8.72068226,22.5898016 C5.67870151,22.5898016 3.20387345,20.1488753 3.20387345,17.1483484 C3.20387345,14.6409994 4.93240165,12.5241552 7.27628061,11.8961783 C7.25625309,11.8740374 7.23666575,11.8514624 7.21751857,11.8282361 L5.72117744,10.0126819 Z M-8.80330124e-05,17.1483484 C-8.80330124e-05,17.1379292 0.000425492893,17.1174525 0.0014525447,17.0869183 C0.0205997249,14.4428166 1.25020083,11.9908198 3.37531774,10.359339 C4.08728473,9.81276252 4.87187895,9.381449 5.70731224,9.07712008 L6.00530399,8.96836917 L7.90659697,11.2751476 C8.12976066,11.545614 8.46538652,11.7071124 8.80365337,11.7071124 C9.1509436,11.7071124 9.4861293,11.5414897 9.70973315,11.2640772 L11.5309161,8.99854158 L11.8601596,9.12292137 C11.8786465,9.1294334 11.8973535,9.1361625 11.9158404,9.14332573 C12.4235708,9.34064027 12.823901,9.72159409 13.0415626,10.2158572 C13.2594443,10.7101204 13.269348,11.2586505 13.0690729,11.7602939 C12.7589766,12.5371792 12.0113563,13.0392568 11.1646988,13.0392568 C10.9080825,13.0392568 10.656088,12.991719 10.4155378,12.898597 C9.87721596,12.6893437 9.30698212,12.5834147 8.72068226,12.5834147 C6.16838514,12.5834147 4.09234663,14.6312314 4.09234663,17.1483484 C4.09234663,19.6654655 6.16838514,21.7134993 8.72068226,21.7134993 C10.5029106,21.7134993 12.10137,20.7119489 12.8727593,19.1664269 L8.72068226,19.1664269 C7.5925392,19.1664269 6.67457497,18.2612545 6.67457497,17.1483484 C6.67457497,16.0356594 7.5925392,15.13027 8.72068226,15.13027 L15.3951252,15.13027 C16.5105034,15.13027 17.4084402,15.9922459 17.4388116,17.092345 C17.4403521,17.1114469 17.4414525,17.1296806 17.4414525,17.1483484 C17.4414525,21.8910607 13.5292655,25.7496561 8.72068226,25.7496561 C3.91209904,25.7496561 -8.80330124e-05,21.8910607 -8.80330124e-05,17.1483484 Z" id="Fill-1"></path>
                        <path d="M14.2375791,15.2106936 L15.3952132,15.2106936 C15.8261348,15.2106936 16.2244842,15.3377854 16.5530674,15.5561775 L16.5530674,2.19868755 C16.5530674,1.71989664 16.2412105,1.2921139 15.7768363,1.13437438 C15.6535901,1.09258198 15.525282,1.07114997 15.3954333,1.07114997 C15.0404402,1.07114997 14.7100963,1.22653198 14.4893535,1.49721815 L8.79251719,8.47633494 L2.94360385,1.48650215 C2.72286107,1.22267422 2.39559835,1.07136429 2.04588721,1.07136429 C1.91361761,1.07136429 1.78288858,1.09322493 1.65788171,1.1367319 C1.19768913,1.29618599 0.888473177,1.72289712 0.888473177,2.19868755 L0.888473177,13.6594692 C1.43295736,12.5801536 2.21623109,11.613356 3.2037414,10.8263729 L3.2037414,5.36462272 L7.90646492,10.9984528 C8.12984869,11.2654955 8.46525447,11.4249496 8.8037414,11.4249496 C9.15103164,11.4249496 9.48621733,11.2614235 9.70982118,10.9875225 L14.2375791,5.42634687 L14.2375791,15.2106936 Z M16.5508666,17.2791734 C16.6024072,16.0450821 16.0259697,15.669986 15.3952132,15.669986 L13.3491059,15.669986 L13.3491059,7.91010148 L10.4055021,11.5254657 C10.0148556,12.0044709 9.41953232,12.2901595 8.81342503,12.2901595 C8.19191197,12.2901595 7.61375516,12.0184017 7.2176066,11.5447545 L4.09221458,7.80058396 L4.09221458,10.6471823 L3.92077029,10.7772745 C2.01155433,12.2239346 0.90696011,14.3984254 0.890013755,16.742872 L0.00154057772,16.7458725 L0,2.19868755 C0,1.35791015 0.546464924,0.603503713 1.36011004,0.321458582 C1.58129298,0.244946339 1.81193948,0.206154417 2.04588721,0.206154417 C2.66409904,0.206154417 3.24225585,0.473625788 3.63224209,0.94020045 L8.78393398,7.0963284 L13.7936726,0.958846291 C14.184099,0.480484029 14.767978,0.206154417 15.3954333,0.206154417 C15.6251994,0.206154417 15.8518845,0.243660419 16.0695461,0.317600822 C16.8902338,0.596431154 17.4415406,1.35255215 17.4415406,2.19868755 L17.4415406,16.710724 C17.4415406,16.7291555 17.4404402,17.2605276 17.4391197,17.2785305 L16.5508666,17.2791734 Z" id="Fill-4"></path>
                        <path d="M15.5502928,1.78474692 C15.3951595,1.73112214 15.2204167,1.78259331 15.1195364,1.90793315 L8.8819573,9.66435882 L2.48423355,1.90427203 C2.38248179,1.78087043 2.20773893,1.73155286 2.05369504,1.78582372 C1.90030481,1.83966386 1.79659209,1.98460151 1.79659209,2.14633729 L1.79659209,10.639296 C1.80508956,10.6300355 1.81380491,10.6209904 1.82230239,10.6117299 C1.85411343,10.5772722 1.88636024,10.5430299 1.91882494,10.5090029 C1.94780349,10.477991 1.97678204,10.4471944 2.00663213,10.4168286 C2.03887894,10.3834477 2.07177941,10.3504975 2.10467987,10.3177627 C2.13518361,10.2871815 2.16546946,10.2566003 2.19662685,10.2264499 C2.2297452,10.1941458 2.26373508,10.1624878 2.2972892,10.1306144 C2.32888236,10.1006793 2.36025763,10.0707442 2.39228656,10.0412398 C2.42649433,10.0100125 2.46113786,9.97943129 2.49556351,9.94863474 C2.52083804,9.92602189 2.5456768,9.90276293 2.57138709,9.88036545 L2.57138709,3.21581779 L6.3575549,7.81958033 L8.5862889,10.5296775 C8.66429133,10.6242208 8.77628365,10.6812913 8.88566133,10.6812913 L8.89524823,10.6812913 C8.99874308,10.6812913 9.11117112,10.6214211 9.18873779,10.5249396 L11.3407767,7.84219319 L15.0354333,3.2364924 L15.0354333,14.0835573 L15.4226129,14.0835573 C15.4816594,14.0835573 15.5396165,14.0859263 15.5975736,14.0893721 C15.6139149,14.0902335 15.6302562,14.091741 15.6468154,14.0928178 C15.6919173,14.0962636 15.7368014,14.1007862 15.7816855,14.1063856 C15.7908366,14.1076777 15.8006414,14.1081084 15.8100104,14.1094006 L15.8100104,2.14633729 C15.8100104,1.98352471 15.705644,1.8383717 15.5502928,1.78474692" id="Fill-7"></path>
                        <path d="M15.4226129,16.6985965 L12.6326101,16.6985965 L8.80330124,16.6985965 C8.58977505,16.6985965 8.41612163,16.8697435 8.41612163,17.0804025 C8.41612163,17.2908468 8.58977505,17.4622086 8.80330124,17.4622086 L15.244166,17.4622086 L14.7166692,19.0205699 C13.8658327,21.5338758 11.4895913,23.222369 8.80330124,23.222369 C5.36705488,23.222369 2.57138709,20.4670522 2.57138709,17.0804025 C2.57138709,14.6431142 4.01922533,12.5326588 6.11199982,11.5409938 L6.10786001,11.5362696 L5.61195636,10.9347855 C5.22695558,11.1304127 4.85938549,11.3621162 4.5125144,11.6279632 L4.51055346,11.6296811 C3.48257739,12.4177734 2.71540832,13.4444408 2.26373508,14.5993075 C2.19945935,14.7642271 2.14128435,14.9317235 2.08986376,15.1015821 C1.90270153,15.7193864 1.80291072,16.3676836 1.79811728,17.0307978 C1.79811728,17.051198 1.79746362,17.0713835 1.79659209,17.0915689 C1.80269284,20.8939534 4.94348867,23.985981 8.80330124,23.985981 C12.657013,23.985981 15.793887,20.9038314 15.8100104,17.1098218 C15.8091389,17.0967227 15.8084852,17.0838383 15.8084852,17.070954 C15.8023845,16.8613687 15.6330887,16.6985965 15.4226129,16.6985965" id="Fill-9"></path>
                        <path d="M11.5078634,11.1615317 C11.5334608,11.1069856 11.5322038,11.0473409 11.5044351,10.9934682 C11.4931219,10.9717267 11.4780377,10.9520055 11.4597538,10.9347855 L11.138871,11.2754339 C11.1491557,11.2787047 11.1594404,11.2819756 11.1696108,11.2853426 C11.3034263,11.3296914 11.4551828,11.2740871 11.5078634,11.1615317" id="Fill-11"></path>
                    </g>
                </g>
                <g id="-Logo-Mariogogh-Active" transform="translate(0.440165, 0.660248)" fill="#EF5350">
                    <g id="Group">
                        <path d="M10.7410399,12.0830736 C10.8774911,12.1360381 11.0198845,12.1629545 11.1646988,12.1629545 C11.6438184,12.1629545 12.0668171,11.8788129 12.2424429,11.4392508 C12.3557854,11.1553263 12.3502834,10.8451365 12.2270371,10.5653362 C12.1363631,10.3597731 11.9900083,10.1889409 11.8046988,10.0684683 L10.405414,11.8089171 C10.3710812,11.8514624 10.3352077,11.8927052 10.2977937,11.9322116 C10.4474498,11.9762763 10.5951252,12.0264189 10.7410399,12.0830736 Z M5.72117744,10.0126819 C5.08095736,10.275985 4.47661073,10.6243787 3.92068226,11.0509167 C2.01168638,12.5163407 0.906872077,14.7187096 0.889925722,17.0932132 C0.889779,17.1020407 0.889265475,17.1204191 0.888385144,17.1483484 C0.888385144,21.4078679 4.40200275,24.8733538 8.72068226,24.8733538 C13.0369409,24.8733538 16.5490179,21.4117752 16.5529794,17.1552946 C16.5336121,16.4941064 16.0258817,16.0065723 15.3951252,16.0065723 L8.72068226,16.0065723 C8.08244292,16.0065723 7.56304814,16.518635 7.56304814,17.1483484 C7.56304814,17.7780618 8.08244292,18.2903416 8.72068226,18.2903416 L14.1507785,18.2903416 L13.9555653,18.8668734 C13.2024429,21.093771 11.0988941,22.5898016 8.72068226,22.5898016 C5.67870151,22.5898016 3.20387345,20.1488753 3.20387345,17.1483484 C3.20387345,14.6409994 4.93240165,12.5241552 7.27628061,11.8961783 C7.25625309,11.8740374 7.23666575,11.8514624 7.21751857,11.8282361 L5.72117744,10.0126819 Z M-8.80330124e-05,17.1483484 C-8.80330124e-05,17.1379292 0.000425492893,17.1174525 0.0014525447,17.0869183 C0.0205997249,14.4428166 1.25020083,11.9908198 3.37531774,10.359339 C4.08728473,9.81276252 4.87187895,9.381449 5.70731224,9.07712008 L6.00530399,8.96836917 L7.90659697,11.2751476 C8.12976066,11.545614 8.46538652,11.7071124 8.80365337,11.7071124 C9.1509436,11.7071124 9.4861293,11.5414897 9.70973315,11.2640772 L11.5309161,8.99854158 L11.8601596,9.12292137 C11.8786465,9.1294334 11.8973535,9.1361625 11.9158404,9.14332573 C12.4235708,9.34064027 12.823901,9.72159409 13.0415626,10.2158572 C13.2594443,10.7101204 13.269348,11.2586505 13.0690729,11.7602939 C12.7589766,12.5371792 12.0113563,13.0392568 11.1646988,13.0392568 C10.9080825,13.0392568 10.656088,12.991719 10.4155378,12.898597 C9.87721596,12.6893437 9.30698212,12.5834147 8.72068226,12.5834147 C6.16838514,12.5834147 4.09234663,14.6312314 4.09234663,17.1483484 C4.09234663,19.6654655 6.16838514,21.7134993 8.72068226,21.7134993 C10.5029106,21.7134993 12.10137,20.7119489 12.8727593,19.1664269 L8.72068226,19.1664269 C7.5925392,19.1664269 6.67457497,18.2612545 6.67457497,17.1483484 C6.67457497,16.0356594 7.5925392,15.13027 8.72068226,15.13027 L15.3951252,15.13027 C16.5105034,15.13027 17.4084402,15.9922459 17.4388116,17.092345 C17.4403521,17.1114469 17.4414525,17.1296806 17.4414525,17.1483484 C17.4414525,21.8910607 13.5292655,25.7496561 8.72068226,25.7496561 C3.91209904,25.7496561 -8.80330124e-05,21.8910607 -8.80330124e-05,17.1483484 Z" id="Fill-1"></path>
                        <path d="M14.2375791,15.2106936 L15.3952132,15.2106936 C15.8261348,15.2106936 16.2244842,15.3377854 16.5530674,15.5561775 L16.5530674,2.19868755 C16.5530674,1.71989664 16.2412105,1.2921139 15.7768363,1.13437438 C15.6535901,1.09258198 15.525282,1.07114997 15.3954333,1.07114997 C15.0404402,1.07114997 14.7100963,1.22653198 14.4893535,1.49721815 L8.79251719,8.47633494 L2.94360385,1.48650215 C2.72286107,1.22267422 2.39559835,1.07136429 2.04588721,1.07136429 C1.91361761,1.07136429 1.78288858,1.09322493 1.65788171,1.1367319 C1.19768913,1.29618599 0.888473177,1.72289712 0.888473177,2.19868755 L0.888473177,13.6594692 C1.43295736,12.5801536 2.21623109,11.613356 3.2037414,10.8263729 L3.2037414,5.36462272 L7.90646492,10.9984528 C8.12984869,11.2654955 8.46525447,11.4249496 8.8037414,11.4249496 C9.15103164,11.4249496 9.48621733,11.2614235 9.70982118,10.9875225 L14.2375791,5.42634687 L14.2375791,15.2106936 Z M16.5508666,17.2791734 C16.6024072,16.0450821 16.0259697,15.669986 15.3952132,15.669986 L13.3491059,15.669986 L13.3491059,7.91010148 L10.4055021,11.5254657 C10.0148556,12.0044709 9.41953232,12.2901595 8.81342503,12.2901595 C8.19191197,12.2901595 7.61375516,12.0184017 7.2176066,11.5447545 L4.09221458,7.80058396 L4.09221458,10.6471823 L3.92077029,10.7772745 C2.01155433,12.2239346 0.90696011,14.3984254 0.890013755,16.742872 L0.00154057772,16.7458725 L0,2.19868755 C0,1.35791015 0.546464924,0.603503713 1.36011004,0.321458582 C1.58129298,0.244946339 1.81193948,0.206154417 2.04588721,0.206154417 C2.66409904,0.206154417 3.24225585,0.473625788 3.63224209,0.94020045 L8.78393398,7.0963284 L13.7936726,0.958846291 C14.184099,0.480484029 14.767978,0.206154417 15.3954333,0.206154417 C15.6251994,0.206154417 15.8518845,0.243660419 16.0695461,0.317600822 C16.8902338,0.596431154 17.4415406,1.35255215 17.4415406,2.19868755 L17.4415406,16.710724 C17.4415406,16.7291555 17.4404402,17.2605276 17.4391197,17.2785305 L16.5508666,17.2791734 Z" id="Fill-4"></path>
                        <path d="M15.5502928,1.78474692 C15.3951595,1.73112214 15.2204167,1.78259331 15.1195364,1.90793315 L8.8819573,9.66435882 L2.48423355,1.90427203 C2.38248179,1.78087043 2.20773893,1.73155286 2.05369504,1.78582372 C1.90030481,1.83966386 1.79659209,1.98460151 1.79659209,2.14633729 L1.79659209,10.639296 C1.80508956,10.6300355 1.81380491,10.6209904 1.82230239,10.6117299 C1.85411343,10.5772722 1.88636024,10.5430299 1.91882494,10.5090029 C1.94780349,10.477991 1.97678204,10.4471944 2.00663213,10.4168286 C2.03887894,10.3834477 2.07177941,10.3504975 2.10467987,10.3177627 C2.13518361,10.2871815 2.16546946,10.2566003 2.19662685,10.2264499 C2.2297452,10.1941458 2.26373508,10.1624878 2.2972892,10.1306144 C2.32888236,10.1006793 2.36025763,10.0707442 2.39228656,10.0412398 C2.42649433,10.0100125 2.46113786,9.97943129 2.49556351,9.94863474 C2.52083804,9.92602189 2.5456768,9.90276293 2.57138709,9.88036545 L2.57138709,3.21581779 L6.3575549,7.81958033 L8.5862889,10.5296775 C8.66429133,10.6242208 8.77628365,10.6812913 8.88566133,10.6812913 L8.89524823,10.6812913 C8.99874308,10.6812913 9.11117112,10.6214211 9.18873779,10.5249396 L11.3407767,7.84219319 L15.0354333,3.2364924 L15.0354333,14.0835573 L15.4226129,14.0835573 C15.4816594,14.0835573 15.5396165,14.0859263 15.5975736,14.0893721 C15.6139149,14.0902335 15.6302562,14.091741 15.6468154,14.0928178 C15.6919173,14.0962636 15.7368014,14.1007862 15.7816855,14.1063856 C15.7908366,14.1076777 15.8006414,14.1081084 15.8100104,14.1094006 L15.8100104,2.14633729 C15.8100104,1.98352471 15.705644,1.8383717 15.5502928,1.78474692" id="Fill-7"></path>
                        <path d="M15.4226129,16.6985965 L12.6326101,16.6985965 L8.80330124,16.6985965 C8.58977505,16.6985965 8.41612163,16.8697435 8.41612163,17.0804025 C8.41612163,17.2908468 8.58977505,17.4622086 8.80330124,17.4622086 L15.244166,17.4622086 L14.7166692,19.0205699 C13.8658327,21.5338758 11.4895913,23.222369 8.80330124,23.222369 C5.36705488,23.222369 2.57138709,20.4670522 2.57138709,17.0804025 C2.57138709,14.6431142 4.01922533,12.5326588 6.11199982,11.5409938 L6.10786001,11.5362696 L5.61195636,10.9347855 C5.22695558,11.1304127 4.85938549,11.3621162 4.5125144,11.6279632 L4.51055346,11.6296811 C3.48257739,12.4177734 2.71540832,13.4444408 2.26373508,14.5993075 C2.19945935,14.7642271 2.14128435,14.9317235 2.08986376,15.1015821 C1.90270153,15.7193864 1.80291072,16.3676836 1.79811728,17.0307978 C1.79811728,17.051198 1.79746362,17.0713835 1.79659209,17.0915689 C1.80269284,20.8939534 4.94348867,23.985981 8.80330124,23.985981 C12.657013,23.985981 15.793887,20.9038314 15.8100104,17.1098218 C15.8091389,17.0967227 15.8084852,17.0838383 15.8084852,17.070954 C15.8023845,16.8613687 15.6330887,16.6985965 15.4226129,16.6985965" id="Fill-9"></path>
                        <path d="M11.5078634,11.1615317 C11.5334608,11.1069856 11.5322038,11.0473409 11.5044351,10.9934682 C11.4931219,10.9717267 11.4780377,10.9520055 11.4597538,10.9347855 L11.138871,11.2754339 C11.1491557,11.2787047 11.1594404,11.2819756 11.1696108,11.2853426 C11.3034263,11.3296914 11.4551828,11.2740871 11.5078634,11.1615317" id="Fill-11"></path>
                    </g>
                </g>
            </g>
        </g>
    </g>
</svg>