<?xml version="1.0" encoding="UTF-8"?>
<svg width="300px" height="141px" viewBox="0 0 300 141" version="1.1" xmlns="http://www.w3.org/2000/svg" xmlns:xlink="http://www.w3.org/1999/xlink">
    <!-- Generator: Sketch 49.3 (51167) - http://www.bohemiancoding.com/sketch -->
    <desc>Created with Sketch.</desc>
    <defs></defs>
    <g id="Mariogogh_Index" stroke="none" stroke-width="1" fill="none" fill-rule="evenodd">
        <g id="Active">
            <path d="M11.5358568,78.9041778 L19.860702,78.9041778 C21.2085408,78.9041778 22.5167177,78.6858379 23.7852719,78.2491517 C25.053826,77.8124654 26.1836151,77.0879741 27.1746731,76.075656 C28.165731,75.0633379 28.9585655,73.7433743 29.5532003,72.1157256 C30.147835,70.4880769 30.445148,68.5031692 30.445148,66.160943 C30.445148,64.0172105 30.2370289,62.0819255 29.8207846,60.35503 C29.4045402,58.6281344 28.7207205,57.1493781 27.7693049,55.9187169 C26.8178893,54.6880557 25.5592645,53.7452245 23.993393,53.0901952 C22.4275214,52.4351658 20.4949874,52.107656 18.195733,52.107656 L11.5358568,52.107656 L11.5358568,78.9041778 Z M2.20013765,44.247343 L20.514797,44.247343 C23.2501169,44.247343 25.7970976,44.6840227 28.1558156,45.5573952 C30.5145335,46.4307677 32.5560822,47.7408067 34.2805231,49.4875517 C36.0049639,51.2342967 37.3527825,53.4176951 38.3240193,56.0378126 C39.2952561,58.65793 39.7808672,61.7345369 39.7808672,65.2677256 C39.7808672,68.364228 39.3844499,71.2224951 38.5916036,73.8426126 C37.7987572,76.46273 36.5995951,78.7255248 34.9940812,80.6310647 C33.3885673,82.5366047 31.3866603,84.03521 28.9883001,85.1269256 C26.5899398,86.2186412 23.765467,86.7644908 20.514797,86.7644908 L2.20013765,86.7644908 L2.20013765,44.247343 Z M63.2267034,68.0664734 C62.8302802,65.922741 62.1266397,64.2951167 61.1157605,63.1835517 C60.1048814,62.0719867 58.5687647,61.5162126 56.5073641,61.5162126 C55.1595253,61.5162126 54.0396466,61.7444769 53.1476945,62.2010126 C52.2557423,62.6575482 51.5421913,63.2232469 51.00702,63.8981256 C50.4718487,64.5730043 50.0952523,65.2875711 49.8772196,66.0418473 C49.6591868,66.7961236 49.5303512,67.4709922 49.4907089,68.0664734 L63.2267034,68.0664734 Z M49.4907089,73.4257778 C49.6096359,76.1649915 50.303366,78.1498992 51.5719202,79.3805604 C52.8404744,80.6112216 54.6639937,81.226543 57.0425327,81.226543 C58.7471524,81.226543 60.2138962,80.7997878 61.442808,79.9462647 C62.6717199,79.0927416 63.4249126,78.1896086 63.7024089,77.2368386 L71.1353063,77.2368386 C69.9460368,80.9288223 68.1225175,83.5687495 65.6646938,85.1566995 C63.2068701,86.7446495 60.2337408,87.5386126 56.7452168,87.5386126 C54.3270354,87.5386126 52.1467407,87.1515556 50.2042671,86.37743 C48.2617935,85.6033043 46.616662,84.5016806 45.2688232,83.0725256 C43.9209844,81.6433706 42.8803891,79.93635 42.1470062,77.9514126 C41.4136234,75.9664751 41.0469374,73.7830766 41.0469374,71.4011517 C41.0469374,69.0986242 41.4235338,66.9549239 42.1767378,64.9699865 C42.9299419,62.985049 44.0002684,61.2681039 45.3877495,59.8190995 C46.7752307,58.3700952 48.4302726,57.2287733 50.352925,56.3950995 C52.2755775,55.5614258 54.4063201,55.1445952 56.7452168,55.1445952 C59.3616098,55.1445952 61.6410089,55.6507466 63.5834825,56.6630647 C65.5259561,57.6753828 67.1215354,59.0350446 68.3702685,60.7420908 C69.6190015,62.449137 70.5208507,64.3943466 71.0758431,66.5777778 C71.6308356,68.761209 71.8290442,71.0438528 71.6704749,73.4257778 L49.4907089,73.4257778 Z M80.3694426,76.760456 C80.3694426,77.6735273 80.5577408,78.4575658 80.9343428,79.1125952 C81.3109449,79.7676245 81.796556,80.3035496 82.3911907,80.7203865 C82.9858255,81.1372233 83.6696452,81.444884 84.4426704,81.6433778 C85.2156956,81.8418715 86.0184405,81.9411169 86.8509292,81.9411169 C87.445564,81.9411169 88.0699211,81.8716451 88.7240194,81.7326995 C89.3781176,81.5937539 89.9727435,81.375414 90.5079148,81.0776734 C91.043086,80.7799328 91.4890554,80.3829513 91.8458363,79.8867169 C92.2026172,79.3904825 92.3810049,78.7652366 92.3810049,78.0109604 C92.3810049,76.7406004 91.5386183,75.7878447 89.8538198,75.1526647 C88.1690213,74.5174847 85.8202492,73.8823143 82.807433,73.2471343 C81.5785211,72.9692431 80.379359,72.6417333 79.2099106,72.2645952 C78.0404622,71.8874571 76.999867,71.3912301 76.0880937,70.7758995 C75.1763204,70.1605689 74.4429485,69.3864549 73.887956,68.4535343 C73.3329636,67.5206137 73.0554715,66.3792918 73.0554715,65.0295343 C73.0554715,63.0445968 73.4419783,61.4169725 74.2150035,60.1466126 C74.9880287,58.8762526 76.0088031,57.8738742 77.2773573,57.1394473 C78.5459115,56.4050205 79.9730135,55.8889445 81.5587062,55.5912039 C83.1443989,55.2934632 84.7697096,55.1445952 86.4346869,55.1445952 C88.0996643,55.1445952 89.7150645,55.3033878 91.2809361,55.6209778 C92.8468076,55.9385678 94.2441784,56.4744928 95.4730903,57.2287691 C96.7020021,57.9830453 97.7227765,58.9854237 98.535444,60.2359343 C99.3481115,61.4864449 99.8337226,63.0644465 99.9922919,64.9699865 L91.9647627,64.9699865 C91.8458357,63.3423378 91.231389,62.240714 90.1214041,61.6650821 C89.0114192,61.0894503 87.7032423,60.8016386 86.1968342,60.8016386 C85.7211264,60.8016386 85.205784,60.8314123 84.6507916,60.8909604 C84.0957991,60.9505085 83.5903671,61.0795275 83.1344805,61.2780213 C82.6785938,61.476515 82.292087,61.7643266 81.9749485,62.1414647 C81.6578099,62.5186029 81.499243,63.0247543 81.499243,63.6599343 C81.499243,64.4142105 81.7767351,65.0295319 82.3317276,65.5059169 C82.88672,65.9823019 83.6101815,66.3693589 84.5021336,66.6670995 C85.3940858,66.9648401 86.4148601,67.2328027 87.5644874,67.4709952 C88.7141146,67.7091877 89.8835454,67.9672257 91.072815,68.2451169 C92.3017268,68.5230082 93.5008889,68.8604425 94.6703373,69.25743 C95.8397857,69.6544174 96.8803809,70.180418 97.7921543,70.8354473 C98.7039276,71.4904767 99.4372995,72.3042889 99.9922919,73.2769082 C100.547284,74.2495276 100.824776,75.4503967 100.824776,76.8795517 C100.824776,78.9041879 100.418449,80.601284 99.6057812,81.9708908 C98.7931137,83.3404977 97.7326976,84.4421214 96.4245011,85.2757952 C95.1163046,86.1094689 93.6198296,86.6950167 91.9350311,87.032456 C90.2502326,87.3698954 88.535728,87.5386126 86.791466,87.5386126 C85.0075617,87.5386126 83.2633259,87.3599709 81.5587062,87.0026821 C79.8540865,86.6453934 78.3377906,86.0499211 77.009773,85.2162473 C75.6817553,84.3825736 74.5916079,83.2809498 73.7392981,81.911343 C72.8869883,80.5417361 72.421198,78.824791 72.3419134,76.760456 L80.3694426,76.760456 Z M111.604955,51.2144386 L103.161184,51.2144386 L103.161184,44.247343 L111.604955,44.247343 L111.604955,51.2144386 Z M103.161184,55.9782647 L111.604955,55.9782647 L111.604955,86.7644908 L103.161184,86.7644908 L103.161184,55.9782647 Z M129.758569,79.499656 C130.947838,79.499656 131.998344,79.2614671 132.910117,78.7850821 C133.821891,78.3086971 134.575083,77.6735267 135.169718,76.8795517 C135.764353,76.0855767 136.210322,75.1824437 136.50764,74.1701256 C136.804957,73.1578075 136.953613,72.0958819 136.953613,70.9843169 C136.953613,69.7139569 136.834688,68.5130878 136.596834,67.3816734 C136.35898,66.2502591 135.962563,65.2478807 135.407571,64.3745082 C134.852578,63.5011357 134.119206,62.806418 133.207433,62.2903343 C132.29566,61.7742506 131.14605,61.5162126 129.758569,61.5162126 C128.569299,61.5162126 127.548525,61.7544015 126.696215,62.2307865 C125.843905,62.7071715 125.130354,63.3522665 124.55554,64.1660908 C123.980727,64.9799152 123.564489,65.9128218 123.306814,66.9648386 C123.049139,68.0168555 122.920303,69.1184793 122.920303,70.269743 C122.920303,71.381308 123.029318,72.4829317 123.24735,73.5746473 C123.465383,74.6663629 123.84198,75.6488923 124.377151,76.5222647 C124.912322,77.3956372 125.615963,78.110204 126.488094,78.6659865 C127.360225,79.221769 128.450372,79.499656 129.758569,79.499656 Z M144.981143,84.7994126 C144.981143,86.0300738 144.812665,87.4393582 144.475706,89.0273082 C144.138746,90.6152582 143.415284,92.0940144 142.3053,93.4636213 C141.195315,94.8332281 139.589825,95.9943991 137.488782,96.9471691 C135.387739,97.8999391 132.573177,98.3763169 129.045011,98.3763169 C127.538602,98.3763169 126.002486,98.1877507 124.436614,97.8106126 C122.870743,97.4334744 121.44364,96.8479267 120.155265,96.0539517 C118.86689,95.2599767 117.796563,94.2377492 116.944253,92.9872386 C116.091944,91.736728 115.606333,90.2381227 115.487406,88.4913778 L123.871714,88.4913778 C124.268137,90.0793277 125.041151,91.1809515 126.190778,91.7962821 C127.340405,92.4116127 128.668403,92.7192734 130.174811,92.7192734 C132.55335,92.7192734 134.287675,92.0047067 135.377839,90.5755517 C136.468003,89.1463967 136.993256,87.3401307 136.953613,85.1566995 L136.953613,81.1074473 L136.834687,81.1074473 C135.922914,82.7350961 134.624647,83.9359652 132.939849,84.7100908 C131.25505,85.4842164 129.481083,85.8712734 127.617894,85.8712734 C125.31864,85.8712734 123.336554,85.4643674 121.671576,84.650543 C120.006599,83.8367186 118.638959,82.7251703 117.568617,81.3158647 C116.498274,79.9065591 115.71535,78.2590858 115.219821,76.3733952 C114.724292,74.4877046 114.476532,72.4928724 114.476532,70.3888386 C114.476532,68.4039012 114.763934,66.4884653 115.338748,64.6424734 C115.913561,62.7964816 116.755948,61.1688573 117.865933,59.7595517 C118.975918,58.3502461 120.353468,57.2287733 121.998624,56.3950995 C123.64378,55.5614258 125.536672,55.1445952 127.677357,55.1445952 C129.699116,55.1445952 131.473083,55.5217276 132.999312,56.2760039 C134.525541,57.0302801 135.803987,58.300621 136.834687,60.0870647 L136.953613,60.0870647 L136.953613,55.9782647 L144.981143,55.9782647 L144.981143,84.7994126 Z M148.923056,55.9782647 L156.950585,55.9782647 L156.950585,60.2657082 L157.128975,60.2657082 C158.199317,58.4792645 159.586778,57.17915 161.291397,56.3653256 C162.996017,55.5515012 164.740253,55.1445952 166.524157,55.1445952 C168.783769,55.1445952 170.63702,55.4522559 172.083964,56.0675865 C173.530909,56.6829171 174.670609,57.5364274 175.503097,58.628143 C176.335586,59.7198586 176.920301,61.0497467 177.257261,62.6178473 C177.594221,64.1859479 177.762698,65.9227422 177.762698,67.8282821 L177.762698,86.7644908 L169.318927,86.7644908 L169.318927,69.3765256 C169.318927,66.8358057 168.922509,64.9402188 168.129663,63.6897082 C167.336817,62.4391976 165.929535,61.8139517 163.907777,61.8139517 C161.608523,61.8139517 159.94357,62.4987448 158.91287,63.8683517 C157.88217,65.2379585 157.366827,67.4908288 157.366827,70.62703 L157.366827,86.7644908 L148.923056,86.7644908 L148.923056,55.9782647 Z M202.041019,68.0664734 C201.644596,65.922741 200.940955,64.2951167 199.930076,63.1835517 C198.919197,62.0719867 197.38308,61.5162126 195.32168,61.5162126 C193.973841,61.5162126 192.853962,61.7444769 191.96201,62.2010126 C191.070058,62.6575482 190.356507,63.2232469 189.821335,63.8981256 C189.286164,64.5730043 188.909568,65.2875711 188.691535,66.0418473 C188.473502,66.7961236 188.344667,67.4709922 188.305024,68.0664734 L202.041019,68.0664734 Z M188.305024,73.4257778 C188.423951,76.1649915 189.117681,78.1498992 190.386236,79.3805604 C191.65479,80.6112216 193.478309,81.226543 195.856848,81.226543 C197.561468,81.226543 199.028212,80.7997878 200.257123,79.9462647 C201.486035,79.0927416 202.239228,78.1896086 202.516724,77.2368386 L209.949622,77.2368386 C208.760352,80.9288223 206.936833,83.5687495 204.479009,85.1566995 C202.021186,86.7446495 199.048056,87.5386126 195.559532,87.5386126 C193.141351,87.5386126 190.961056,87.1515556 189.018583,86.37743 C187.076109,85.6033043 185.430977,84.5016806 184.083139,83.0725256 C182.7353,81.6433706 181.694705,79.93635 180.961322,77.9514126 C180.227939,75.9664751 179.861253,73.7830766 179.861253,71.4011517 C179.861253,69.0986242 180.237849,66.9549239 180.991053,64.9699865 C181.744257,62.985049 182.814584,61.2681039 184.202065,59.8190995 C185.589546,58.3700952 187.244588,57.2287733 189.16724,56.3950995 C191.089893,55.5614258 193.220636,55.1445952 195.559532,55.1445952 C198.175925,55.1445952 200.455324,55.6507466 202.397798,56.6630647 C204.340272,57.6753828 205.935851,59.0350446 207.184584,60.7420908 C208.433317,62.449137 209.335166,64.3943466 209.890159,66.5777778 C210.445151,68.761209 210.64336,71.0438528 210.48479,73.4257778 L188.305024,73.4257778 Z M212.642808,55.9782647 L220.670338,55.9782647 L220.670338,61.694856 L220.789264,61.694856 C221.185687,60.7420861 221.72085,59.8588021 222.39477,59.0449778 C223.068689,58.2311534 223.841703,57.5364357 224.713834,56.9608039 C225.585965,56.385172 226.517545,55.9385678 227.508603,55.6209778 C228.499661,55.3033878 229.530346,55.1445952 230.600689,55.1445952 C231.155681,55.1445952 231.770128,55.2438406 232.444047,55.4423343 L232.444047,63.3026473 C232.047624,63.2232498 231.571923,63.1537781 231.016931,63.09423 C230.461938,63.0346818 229.926775,63.0049082 229.411425,63.0049082 C227.865375,63.0049082 226.557198,63.2629462 225.486855,63.77903 C224.416513,64.2951137 223.554305,64.9997559 222.900207,65.8929778 C222.246109,66.7861996 221.780318,67.8282762 221.502822,69.0192386 C221.225326,70.2102011 221.08658,71.5003911 221.08658,72.8898473 L221.08658,86.7644908 L212.642808,86.7644908 L212.642808,55.9782647 Z M25.6880936,135.674759 C23.9834739,137.342107 22.1698651,138.592599 20.2472127,139.426272 C18.3245602,140.259946 16.1541759,140.676777 13.7359945,140.676777 C11.8331632,140.676777 10.0393753,140.39889 8.35457674,139.843107 C6.66977822,139.287325 5.21294489,138.463588 3.98403304,137.371872 C2.75512118,136.280157 1.78389896,134.950269 1.07033723,133.382168 C0.35677551,131.814068 0,130.017726 0,127.99309 C0,126.484537 0.257671202,125.105027 0.773021335,123.854516 C1.28837147,122.604005 1.99201206,121.472608 2.88396421,120.46029 C3.77591637,119.447972 4.79669074,118.544839 5.94631796,117.750864 C7.09594518,116.956889 8.28519688,116.262171 9.51410874,115.66669 C8.36448152,114.277234 7.40316973,112.887798 6.63014453,111.498342 C5.85711933,110.108886 5.47061253,108.481262 5.47061253,106.61542 C5.47061253,105.146567 5.77783588,103.816678 6.39229181,102.625716 C7.00674774,101.434753 7.8293135,100.412526 8.86001376,99.5590029 C9.89071403,98.7054798 11.0700553,98.0504603 12.398073,97.5939246 C13.7260906,97.137389 15.1036405,96.9091246 16.5307639,96.9091246 C18.156099,96.9091246 19.6723949,97.1274645 21.0796972,97.5641507 C22.4869995,98.000837 23.7158929,98.645932 24.7664143,99.4994551 C25.8169357,100.352978 26.6494119,101.414904 27.2638679,102.685264 C27.8783238,103.955624 28.1855471,105.424455 28.1855471,107.091803 C28.1855471,109.592824 27.4620857,111.696826 26.0151411,113.403872 C24.5681965,115.110919 22.7744085,116.540052 20.6337233,117.691316 L26.1043359,124.42022 C26.5404014,123.626245 26.877356,122.802509 27.1152099,121.948986 C27.3530638,121.095462 27.5314516,120.232028 27.6503785,119.358655 L34.9643496,119.358655 C34.766138,121.264195 34.3300791,123.110159 33.6561597,124.896603 C32.9822403,126.683047 32.0506598,128.33052 30.8613902,129.839072 L39.4835513,139.902655 L29.136958,139.902655 L25.6880936,135.674759 Z M13.9738472,121.14509 C13.2206432,121.46268 12.4872713,121.839812 11.7737096,122.276499 C11.0601478,122.713185 10.4258803,123.229261 9.87088782,123.824742 C9.31589537,124.420223 8.86992598,125.075243 8.53296628,125.78982 C8.19600657,126.504398 8.02752925,127.298361 8.02752925,128.171733 C8.02752925,128.92601 8.19600657,129.650501 8.53296628,130.345229 C8.86992598,131.039957 9.31589537,131.635429 9.87088782,132.131664 C10.4258803,132.627898 11.0700583,133.02488 11.8034412,133.32262 C12.536824,133.620361 13.2999272,133.769229 14.0927736,133.769229 C15.5991817,133.769229 16.917269,133.42187 18.047075,132.727142 C19.1768811,132.032414 20.2372972,131.129281 21.2283551,130.017716 L13.9738472,121.14509 Z M20.8121129,106.61542 C20.8121129,105.503855 20.4256061,104.5511 19.6525809,103.757125 C18.8795557,102.96315 17.9777065,102.566168 16.9470062,102.566168 C15.9163059,102.566168 15.0243672,102.913527 14.2711631,103.608255 C13.5179591,104.302983 13.1413627,105.206116 13.1413627,106.317681 C13.1413627,107.667439 13.4981382,108.818685 14.2116999,109.771455 C14.9252617,110.724225 15.6784544,111.69683 16.4713008,112.689299 C17.6605703,111.935022 18.6813447,111.12121 19.5336545,110.247838 C20.3859643,109.374465 20.8121129,108.163672 20.8121129,106.61542 Z M53.7894013,97.3855072 L63.1251205,97.3855072 L63.1251205,139.902655 L53.7894013,139.902655 L53.7894013,97.3855072 Z M67.8400552,97.3855072 L76.2838267,97.3855072 L76.2838267,139.902655 L67.8400552,139.902655 L67.8400552,97.3855072 Z M80.3446664,97.3855072 L88.7884379,97.3855072 L88.7884379,139.902655 L80.3446664,139.902655 L80.3446664,97.3855072 Z M121.451067,139.902655 L113.423538,139.902655 L113.423538,135.615212 L113.245148,135.615212 C112.174806,137.401655 110.787345,138.691845 109.082726,139.48582 C107.378106,140.279795 105.63387,140.676777 103.849966,140.676777 C101.590354,140.676777 99.7371031,140.379041 98.2901585,139.783559 C96.8432139,139.188078 95.7035144,138.344492 94.8710257,137.252777 C94.038537,136.161061 93.4538216,134.831173 93.1168619,133.263072 C92.7799022,131.694972 92.6114249,129.958178 92.6114249,128.052638 L92.6114249,109.116429 L101.055196,109.116429 L101.055196,126.504394 C101.055196,129.045114 101.451614,130.940701 102.24446,132.191212 C103.037306,133.441722 104.444588,134.066968 106.466346,134.066968 C108.7656,134.066968 110.430553,133.382175 111.461253,132.012568 C112.491953,130.642961 113.007295,128.390091 113.007295,125.25389 L113.007295,109.116429 L121.451067,109.116429 L121.451067,139.902655 Z M131.577151,129.89862 C131.577151,130.811692 131.765449,131.59573 132.142051,132.250759 C132.518653,132.905789 133.004264,133.441714 133.598899,133.858551 C134.193534,134.275388 134.877354,134.583048 135.650379,134.781542 C136.423404,134.980036 137.226149,135.079281 138.058638,135.079281 C138.653272,135.079281 139.277629,135.009809 139.931728,134.870864 C140.585826,134.731918 141.180452,134.513578 141.715623,134.215838 C142.250794,133.918097 142.696764,133.521116 143.053545,133.024881 C143.410326,132.528647 143.588713,131.903401 143.588713,131.149125 C143.588713,129.878765 142.746327,128.926009 141.061528,128.290829 C139.37673,127.655649 137.027958,127.020479 134.015141,126.385299 C132.78623,126.107407 131.587067,125.779898 130.417619,125.402759 C129.248171,125.025621 128.207575,124.529394 127.295802,123.914064 C126.384029,123.298733 125.650657,122.524619 125.095664,121.591699 C124.540672,120.658778 124.26318,119.517456 124.26318,118.167699 C124.26318,116.182761 124.649687,114.555137 125.422712,113.284777 C126.195737,112.014417 127.216511,111.012038 128.485066,110.277612 C129.75362,109.543185 131.180722,109.027109 132.766415,108.729368 C134.352107,108.431627 135.977418,108.282759 137.642395,108.282759 C139.307373,108.282759 140.922773,108.441552 142.488644,108.759142 C144.054516,109.076732 145.451887,109.612657 146.680799,110.366933 C147.90971,111.12121 148.930485,112.123588 149.743152,113.374099 C150.55582,114.624609 151.041431,116.202611 151.2,118.108151 L143.172471,118.108151 C143.053544,116.480502 142.439097,115.378878 141.329112,114.803246 C140.219128,114.227615 138.910951,113.939803 137.404543,113.939803 C136.928835,113.939803 136.413492,113.969577 135.8585,114.029125 C135.303507,114.088673 134.798076,114.217692 134.342189,114.416186 C133.886302,114.614679 133.499795,114.902491 133.182657,115.279629 C132.865518,115.656767 132.706951,116.162919 132.706951,116.798099 C132.706951,117.552375 132.984443,118.167696 133.539436,118.644081 C134.094428,119.120466 134.81789,119.507523 135.709842,119.805264 C136.601794,120.103004 137.622569,120.370967 138.772196,120.609159 C139.921823,120.847352 141.091254,121.10539 142.280523,121.383281 C143.509435,121.661172 144.708597,121.998607 145.878046,122.395594 C147.047494,122.792582 148.088089,123.318582 148.999863,123.973612 C149.911636,124.628641 150.645008,125.442453 151.2,126.415072 C151.754993,127.387692 152.032485,128.588561 152.032485,130.017716 C152.032485,132.042352 151.626157,133.739448 150.81349,135.109055 C150.000822,136.478662 148.940406,137.580286 147.63221,138.413959 C146.324013,139.247633 144.827538,139.833181 143.142739,140.17062 C141.457941,140.50806 139.743436,140.676777 137.999174,140.676777 C136.21527,140.676777 134.471034,140.498135 132.766415,140.140846 C131.061795,139.783558 129.545499,139.188085 128.217481,138.354412 C126.889464,137.520738 125.799316,136.419114 124.947006,135.049507 C124.094697,133.6799 123.628906,131.962955 123.549622,129.89862 L131.577151,129.89862 Z M164.834412,109.116429 L171.018583,109.116429 L171.018583,114.773472 L164.834412,114.773472 L164.834412,130.017716 C164.834412,131.446871 165.072262,132.399627 165.54797,132.876012 C166.023678,133.352397 166.975079,133.590586 168.402203,133.590586 C168.87791,133.590586 169.33379,133.570736 169.769856,133.531038 C170.205921,133.491339 170.622159,133.431792 171.018583,133.352394 L171.018583,139.902655 C170.305021,140.021751 169.512186,140.101148 168.640055,140.140846 C167.767924,140.180545 166.915627,140.200394 166.083139,140.200394 C164.774942,140.200394 163.536138,140.111073 162.36669,139.932429 C161.197242,139.753785 160.166557,139.406426 159.274605,138.890342 C158.382652,138.374258 157.679012,137.639842 157.163662,136.687072 C156.648312,135.734302 156.39064,134.483811 156.39064,132.935559 L156.39064,114.773472 L151.276807,114.773472 L151.276807,109.116429 L156.39064,109.116429 L156.39064,99.8865159 L164.834412,99.8865159 L164.834412,109.116429 Z M172.22519,109.116429 L180.252719,109.116429 L180.252719,114.83302 L180.371645,114.83302 C180.768068,113.88025 181.303232,112.996966 181.977151,112.183142 C182.651071,111.369318 183.424084,110.6746 184.296215,110.098968 C185.168346,109.523336 186.099927,109.076732 187.090985,108.759142 C188.082042,108.441552 189.112727,108.282759 190.18307,108.282759 C190.738062,108.282759 191.352509,108.382005 192.026428,108.580499 L192.026428,116.440812 C191.630005,116.361414 191.154305,116.291942 190.599312,116.232394 C190.04432,116.172846 189.509156,116.143072 188.993806,116.143072 C187.447756,116.143072 186.139579,116.40111 185.069236,116.917194 C183.998894,117.433278 183.136686,118.13792 182.482588,119.031142 C181.82849,119.924364 181.3627,120.96644 181.085203,122.157403 C180.807707,123.348365 180.668961,124.638555 180.668961,126.028012 L180.668961,139.902655 L172.22519,139.902655 L172.22519,109.116429 Z M192.162698,118.584533 C192.281625,116.599596 192.777147,114.952122 193.649278,113.642064 C194.521409,112.332005 195.631377,111.280004 196.979216,110.486029 C198.327055,109.692054 199.843351,109.126355 201.528149,108.788916 C203.212948,108.451477 204.907631,108.282759 206.612251,108.282759 C208.158301,108.282759 209.724149,108.391929 211.309842,108.610272 C212.895535,108.828616 214.342458,109.255371 215.650654,109.890551 C216.958851,110.525731 218.029177,111.409015 218.861666,112.540429 C219.694155,113.671843 220.110393,115.170449 220.110393,117.03629 L220.110393,133.054655 C220.110393,134.444111 220.189676,135.773999 220.348245,137.044359 C220.506815,138.314719 220.784307,139.267475 221.18073,139.902655 L212.618032,139.902655 C212.459463,139.42627 212.330627,138.939968 212.231521,138.443733 C212.132416,137.947499 212.063043,137.441348 212.0234,136.925264 C210.675561,138.31472 209.089893,139.287325 207.266346,139.843107 C205.442799,140.39889 203.579638,140.676777 201.676807,140.676777 C200.210041,140.676777 198.842402,140.498135 197.573848,140.140846 C196.305293,139.783558 195.195325,139.227783 194.24391,138.473507 C193.292494,137.719231 192.549212,136.766475 192.01404,135.615212 C191.478869,134.463948 191.211287,133.094362 191.211287,131.506412 C191.211287,129.759667 191.518511,128.320609 192.132967,127.189194 C192.747423,126.05778 193.540257,125.154647 194.511494,124.479768 C195.482731,123.804889 196.592699,123.298738 197.841432,122.961299 C199.090165,122.623859 200.34879,122.355897 201.617344,122.157403 C202.885898,121.958909 204.134612,121.800117 205.363524,121.68102 C206.592436,121.561924 207.682583,121.383282 208.633999,121.14509 C209.585415,120.906897 210.338607,120.559539 210.8936,120.103003 C211.448592,119.646467 211.706264,118.981523 211.666621,118.108151 C211.666621,117.195079 211.517965,116.470588 211.220647,115.934655 C210.92333,115.398722 210.526913,114.981891 210.031384,114.684151 C209.535855,114.38641 208.96105,114.187919 208.306952,114.088672 C207.652853,113.989426 206.949213,113.939803 206.196009,113.939803 C204.531031,113.939803 203.222854,114.297086 202.271439,115.011664 C201.320023,115.726241 200.765039,116.917186 200.60647,118.584533 L192.162698,118.584533 Z M211.666621,124.837055 C211.30984,125.154645 210.863871,125.402759 210.3287,125.581403 C209.793528,125.760047 209.218723,125.908915 208.604267,126.028012 C207.989812,126.147108 207.345634,126.246353 206.671714,126.325751 C205.997795,126.405148 205.323885,126.504394 204.649966,126.62349 C204.015689,126.742586 203.391332,126.901379 202.776876,127.099872 C202.16242,127.298366 201.627257,127.566329 201.17137,127.903768 C200.715483,128.241207 200.348797,128.667963 200.071301,129.184046 C199.793805,129.70013 199.655059,130.35515 199.655059,131.149125 C199.655059,131.903401 199.793805,132.538571 200.071301,133.054655 C200.348797,133.570739 200.725394,133.977645 201.201102,134.275386 C201.676809,134.573126 202.231794,134.781541 202.866071,134.900638 C203.500348,135.019734 204.154436,135.079281 204.828356,135.079281 C206.493333,135.079281 207.781689,134.801394 208.693462,134.245612 C209.605236,133.689829 210.279145,133.024885 210.71521,132.250759 C211.151276,131.476634 211.418857,130.692595 211.517963,129.89862 C211.617069,129.104645 211.666621,128.469475 211.666621,127.99309 L211.666621,124.837055 Z M234.517826,109.116429 L240.701996,109.116429 L240.701996,114.773472 L234.517826,114.773472 L234.517826,130.017716 C234.517826,131.446871 234.755676,132.399627 235.231384,132.876012 C235.707092,133.352397 236.658493,133.590586 238.085616,133.590586 C238.561324,133.590586 239.017204,133.570736 239.45327,133.531038 C239.889335,133.491339 240.305573,133.431792 240.701996,133.352394 L240.701996,139.902655 C239.988435,140.021751 239.1956,140.101148 238.323469,140.140846 C237.451338,140.180545 236.599041,140.200394 235.766552,140.200394 C234.458356,140.200394 233.219552,140.111073 232.050104,139.932429 C230.880655,139.753785 229.849971,139.406426 228.958018,138.890342 C228.066066,138.374258 227.362426,137.639842 226.847075,136.687072 C226.331725,135.734302 226.074054,134.483811 226.074054,132.935559 L226.074054,114.773472 L220.960221,114.773472 L220.960221,109.116429 L226.074054,109.116429 L226.074054,99.8865159 L234.517826,99.8865159 L234.517826,109.116429 Z M249.400964,124.539316 C249.400964,125.769977 249.519889,126.970846 249.757743,128.141959 C249.995597,129.313073 250.401925,130.365074 250.976738,131.297994 C251.551552,132.230915 252.314655,132.975255 253.266071,133.531038 C254.217486,134.08682 255.406738,134.364707 256.833861,134.364707 C258.260985,134.364707 259.460147,134.08682 260.431384,133.531038 C261.402621,132.975255 262.175634,132.230915 262.750448,131.297994 C263.325261,130.365074 263.731589,129.313073 263.969443,128.141959 C264.207297,126.970846 264.326222,125.769977 264.326222,124.539316 C264.326222,123.308655 264.207297,122.097861 263.969443,120.906899 C263.731589,119.715936 263.325261,118.663935 262.750448,117.750864 C262.175634,116.837793 261.402621,116.093452 260.431384,115.51782 C259.460147,114.942188 258.260985,114.654377 256.833861,114.654377 C255.406738,114.654377 254.217486,114.942188 253.266071,115.51782 C252.314655,116.093452 251.551552,116.837793 250.976738,117.750864 C250.401925,118.663935 249.995597,119.715936 249.757743,120.906899 C249.519889,122.097861 249.400964,123.308655 249.400964,124.539316 Z M240.957193,124.539316 C240.957193,122.077993 241.333789,119.844972 242.086993,117.840186 C242.840197,115.835399 243.910524,114.128378 245.298005,112.719072 C246.685486,111.309767 248.350438,110.218068 250.292912,109.443942 C252.235385,108.669816 254.41568,108.282759 256.833861,108.282759 C259.252043,108.282759 261.442248,108.669816 263.404543,109.443942 C265.366838,110.218068 267.0417,111.309767 268.429182,112.719072 C269.816663,114.128378 270.886989,115.835399 271.640193,117.840186 C272.393397,119.844972 272.769994,122.077993 272.769994,124.539316 C272.769994,127.000638 272.393397,129.223735 271.640193,131.208672 C270.886989,133.19361 269.816663,134.890706 268.429182,136.300012 C267.0417,137.709317 265.366838,138.791092 263.404543,139.545368 C261.442248,140.299644 259.252043,140.676777 256.833861,140.676777 C254.41568,140.676777 252.235385,140.299644 250.292912,139.545368 C248.350438,138.791092 246.685486,137.709317 245.298005,136.300012 C243.910524,134.890706 242.840197,133.19361 242.086993,131.208672 C241.333789,129.223735 240.957193,127.000638 240.957193,124.539316 Z M275.403717,109.116429 L283.431246,109.116429 L283.431246,114.83302 L283.550173,114.83302 C283.946596,113.88025 284.481759,112.996966 285.155678,112.183142 C285.829598,111.369318 286.602611,110.6746 287.474742,110.098968 C288.346873,109.523336 289.278454,109.076732 290.269512,108.759142 C291.26057,108.441552 292.291255,108.282759 293.361597,108.282759 C293.91659,108.282759 294.531036,108.382005 295.204956,108.580499 L295.204956,116.440812 C294.808533,116.361414 294.332832,116.291942 293.77784,116.232394 C293.222847,116.172846 292.687684,116.143072 292.172334,116.143072 C290.626283,116.143072 289.318106,116.40111 288.247764,116.917194 C287.177421,117.433278 286.315214,118.13792 285.661116,119.031142 C285.007017,119.924364 284.541227,120.96644 284.263731,122.157403 C283.986235,123.348365 283.847489,124.638555 283.847489,126.028012 L283.847489,139.902655 L275.403717,139.902655 L275.403717,109.116429 Z M290.502409,131.087923 L299.838128,131.087923 L299.838128,140.258288 L290.502409,140.258288 L290.502409,131.087923 Z" id="Mariogogh-UI&amp;UX-Desi" fill="#FFFFFF"></path>
            <g id="Logo-MG-white1@3x" transform="translate(9.807295, 12.715942) rotate(-360.000000) translate(-9.807295, -12.715942) translate(1.244709, 0.026809)" fill-rule="nonzero">
                <g id="-Logo-Mariogogh-Hover" transform="translate(0.412655, 0.618982)" fill="#EF5350">
                    <g id="Group">
                        <path d="M10.0697249,11.3278815 C10.1976479,11.3775358 10.3311417,11.4027699 10.4669051,11.4027699 C10.9160798,11.4027699 11.312641,11.1363871 11.4772902,10.7242976 C11.5835488,10.4581184 11.5783906,10.1673155 11.4628473,9.90500273 C11.3778404,9.71228731 11.2406327,9.55213205 11.0669051,9.43918901 L9.75507565,11.0708598 C9.72288858,11.110746 9.68925722,11.1494112 9.65418157,11.1864483 C9.79448418,11.227759 9.93292985,11.2747678 10.0697249,11.3278815 Z M5.36360385,9.38688926 C4.76339752,9.63373594 4.19682256,9.960355 3.67563961,10.3602344 C1.88595598,11.7340695 0.850192572,13.7987903 0.834305365,16.0248874 C0.834167813,16.0331631 0.833686382,16.0503929 0.832861073,16.0765767 C0.832861073,20.0698762 4.12687758,23.3187692 8.17563961,23.3187692 C12.222132,23.3187692 15.5147043,20.0735392 15.5184182,16.0830887 C15.5002613,15.4632247 15.0242641,15.0061615 14.4329298,15.0061615 L8.17563961,15.0061615 C7.57729023,15.0061615 7.09035763,15.4862203 7.09035763,16.0765767 C7.09035763,16.666933 7.57729023,17.1471953 8.17563961,17.1471953 L13.2663549,17.1471953 L13.0833425,17.6876938 C12.3772902,19.7754103 10.4052132,21.177939 8.17563961,21.177939 C5.32378267,21.177939 3.00363136,18.8895706 3.00363136,16.0765767 C3.00363136,13.7259369 4.62412655,11.7413955 6.82151307,11.1526672 C6.80273728,11.1319101 6.78437414,11.110746 6.76642366,11.0889714 L5.36360385,9.38688926 Z M-8.25309491e-05,16.0765767 C-8.25309491e-05,16.0668086 0.000398899587,16.0476117 0.00136176066,16.0189859 C0.0193122421,13.5401406 1.17206327,11.2413936 3.16436039,9.71188031 C3.83182944,9.19946487 4.56738652,8.79510844 5.35060523,8.50980008 L5.62997249,8.40784609 L7.41243466,10.5704509 C7.62165062,10.8240131 7.93629986,10.9754178 8.25342503,10.9754178 C8.57900963,10.9754178 8.89324622,10.8201466 9.10287483,10.5600724 L10.8102338,8.43613273 L11.1188996,8.55273878 C11.1362311,8.55884381 11.1537689,8.56515234 11.1711004,8.57186788 C11.6470977,8.75685026 12.0224072,9.11399446 12.2264649,9.57736617 C12.430729,10.0407379 12.4400138,10.5549848 12.2522558,11.0252756 C11.9615406,11.7536055 11.2606465,12.2243033 10.4669051,12.2243033 C10.2263274,12.2243033 9.99008253,12.1797366 9.76456671,12.0924347 C9.25988996,11.8962597 8.72529574,11.7969513 8.17563961,11.7969513 C5.78286107,11.7969513 3.83657497,13.7167794 3.83657497,16.0765767 C3.83657497,18.4363739 5.78286107,20.3564056 8.17563961,20.3564056 C9.84647868,20.3564056 11.3450344,19.4174521 12.0682118,17.9685252 L8.17563961,17.9685252 C7.1180055,17.9685252 6.25741403,17.1199261 6.25741403,16.0765767 C6.25741403,15.0334307 7.1180055,14.1846281 8.17563961,14.1846281 L14.4329298,14.1846281 C15.478597,14.1846281 16.3204127,14.9927305 16.3488858,16.0240734 C16.3503301,16.0419815 16.3513618,16.0590756 16.3513618,16.0765767 C16.3513618,20.5228694 12.6836864,24.1403026 8.17563961,24.1403026 C3.66759285,24.1403026 -8.25309491e-05,20.5228694 -8.25309491e-05,16.0765767 Z" id="Fill-1"></path>
                        <path d="M13.3477304,14.2600253 L14.4330124,14.2600253 C14.8370014,14.2600253 15.2104539,14.3791738 15.5185007,14.5839164 L15.5185007,2.06126957 C15.5185007,1.6124031 15.2261348,1.21135678 14.790784,1.06347598 C14.6752407,1.0242956 14.5549519,1.0042031 14.4332187,1.0042031 C14.1004127,1.0042031 13.7907153,1.14987373 13.5837689,1.40364202 L8.24298487,7.94656401 L2.75962861,1.39359577 C2.55268226,1.14625708 2.24587345,1.00440403 1.91801926,1.00440403 C1.79401651,1.00440403 1.67145805,1.02489838 1.5542641,1.06568615 C1.12283356,1.21517436 0.832943604,1.61521605 0.832943604,2.06126957 L0.832943604,12.8057523 C1.34339752,11.793894 2.07771664,10.8875213 3.00350757,10.1497246 L3.00350757,5.0293338 L7.41231087,10.3110495 C7.62173315,10.5614021 7.93617607,10.7108903 8.25350757,10.7108903 C8.57909216,10.7108903 8.89332875,10.5575845 9.10295736,10.3008023 L13.3477304,5.08720019 L13.3477304,14.2600253 Z M15.5164374,16.1992251 C15.5647568,15.0422644 15.0243466,14.6906119 14.4330124,14.6906119 L12.5147868,14.6906119 L12.5147868,7.41572014 L9.75515818,10.8051241 C9.3889271,11.2541915 8.83081155,11.5220245 8.26258597,11.5220245 C7.67991747,11.5220245 7.13789546,11.2672516 6.76650619,10.8232074 L3.83645117,7.31304747 L3.83645117,9.98173342 L3.67572215,10.1036949 C1.88583219,11.4599387 0.850275103,13.4985239 0.834387895,15.6964425 L0.00144429161,15.6992555 L0,2.06126957 C0,1.27304076 0.512310867,0.565784731 1.27510316,0.301367421 C1.48246217,0.229637192 1.69869326,0.193269766 1.91801926,0.193269766 C2.49759285,0.193269766 3.03961486,0.444024177 3.40522696,0.881437922 L8.2349381,6.65280788 L12.9315681,0.898918398 C13.2975928,0.450453778 13.8449794,0.193269766 14.4332187,0.193269766 C14.6486245,0.193269766 14.8611417,0.228431643 15.0651994,0.297750771 C15.8345942,0.559154207 16.3514443,1.26801764 16.3514443,2.06126957 L16.3514443,15.6663038 C16.3514443,15.6835833 16.3504127,16.1817446 16.3491747,16.1986223 L15.5164374,16.1992251 Z" id="Fill-4"></path>
                        <path d="M14.5783995,1.67320024 C14.4329621,1.62292701 14.2691406,1.67118123 14.1745654,1.78868733 L8.32683497,9.06033639 L2.32896895,1.78525502 C2.23357667,1.66956603 2.06975525,1.62333081 1.9253391,1.67420974 C1.78153575,1.72468487 1.68430508,1.86056392 1.68430508,2.01219121 L1.68430508,9.97434004 C1.69227146,9.96565832 1.70044211,9.9571785 1.70840849,9.94849675 C1.73823134,9.91619269 1.76846272,9.88409049 1.79889838,9.8521902 C1.82606577,9.82311655 1.85323316,9.79424478 1.88121762,9.76577678 C1.91144901,9.73448222 1.94229319,9.70359143 1.97313738,9.67290256 C2.00173463,9.64423267 2.03012762,9.61556282 2.05933768,9.58729675 C2.09038613,9.55701164 2.12225164,9.5273323 2.15370862,9.497451 C2.18332721,9.46938684 2.21274153,9.44132265 2.24276865,9.41366229 C2.27483843,9.38438672 2.30731674,9.35571684 2.33959079,9.32684507 C2.36328566,9.30564552 2.386572,9.28384024 2.4106754,9.26284261 L2.4106754,3.01482918 L5.96020772,7.33085656 L8.04964585,9.87157265 C8.12277312,9.96020698 8.22776593,10.0137106 8.3303075,10.0137106 L8.33929522,10.0137106 C8.43632163,10.0137106 8.54172292,9.9575823 8.61444168,9.86713087 L10.6319781,7.35205611 L14.0957187,3.03421163 L14.0957187,13.203335 L14.4586996,13.203335 C14.5140557,13.203335 14.5683905,13.2055559 14.6227253,13.2087863 C14.6380452,13.2095939 14.6533652,13.2110072 14.6688894,13.2120167 C14.7111725,13.2152472 14.7532513,13.2194871 14.7953302,13.2247365 C14.8039093,13.2259479 14.8131013,13.2263517 14.8218847,13.2275631 L14.8218847,2.01219121 C14.8218847,1.85955442 14.7240413,1.72347347 14.5783995,1.67320024" id="Fill-7"></path>
                        <path d="M14.4586996,15.6549342 L11.8430719,15.6549342 L8.25309491,15.6549342 C8.05291411,15.6549342 7.89011403,15.8153845 7.89011403,16.0128773 C7.89011403,16.2101689 8.05291411,16.3708205 8.25309491,16.3708205 L14.2914056,16.3708205 L13.7968774,17.8317843 C12.9992182,20.1880085 10.7714919,21.7709709 8.25309491,21.7709709 C5.03161395,21.7709709 2.4106754,19.1878614 2.4106754,16.0128773 C2.4106754,13.7279196 3.76802375,11.7493676 5.72999983,10.8196817 L5.72611875,10.8152527 L5.26120908,10.2513614 C4.90027086,10.4347619 4.5556739,10.6519839 4.23048225,10.9012155 L4.22864386,10.902826 C3.26491631,11.6416626 2.5456953,12.6041633 2.12225164,13.6868508 C2.06199314,13.8414629 2.00745408,13.9984908 1.95924728,14.1577332 C1.78378268,14.7369247 1.6902288,15.3447034 1.68573495,15.9663729 C1.68573495,15.9854981 1.68512215,16.004422 1.68430508,16.0233459 C1.69002454,19.5880813 4.63452063,22.4868572 8.25309491,22.4868572 C11.8659497,22.4868572 14.806769,19.5973419 14.8218847,16.0404579 C14.8210677,16.0281775 14.8204549,16.0160984 14.8204549,16.0040194 C14.8147354,15.8075331 14.6560206,15.6549342 14.4586996,15.6549342" id="Fill-9"></path>
                        <path d="M10.7670013,10.4506501 C10.789499,10.4027092 10.7883942,10.350287 10.7639882,10.302938 C10.7540449,10.2838293 10.7407873,10.2664962 10.7247174,10.2513614 L10.4426915,10.5507594 C10.4517308,10.5536342 10.4607701,10.556509 10.469709,10.5594683 C10.5873202,10.5984467 10.7207,10.5495757 10.7670013,10.4506501" id="Fill-11"></path>
                    </g>
                </g>
                <g id="-Logo-Mariogogh-Active" transform="translate(0.412655, 0.618982)" fill="#FFFFFF">
                    <g id="Group">
                        <path d="M10.0697249,11.3278815 C10.1976479,11.3775358 10.3311417,11.4027699 10.4669051,11.4027699 C10.9160798,11.4027699 11.312641,11.1363871 11.4772902,10.7242976 C11.5835488,10.4581184 11.5783906,10.1673155 11.4628473,9.90500273 C11.3778404,9.71228731 11.2406327,9.55213205 11.0669051,9.43918901 L9.75507565,11.0708598 C9.72288858,11.110746 9.68925722,11.1494112 9.65418157,11.1864483 C9.79448418,11.227759 9.93292985,11.2747678 10.0697249,11.3278815 Z M5.36360385,9.38688926 C4.76339752,9.63373594 4.19682256,9.960355 3.67563961,10.3602344 C1.88595598,11.7340695 0.850192572,13.7987903 0.834305365,16.0248874 C0.834167813,16.0331631 0.833686382,16.0503929 0.832861073,16.0765767 C0.832861073,20.0698762 4.12687758,23.3187692 8.17563961,23.3187692 C12.222132,23.3187692 15.5147043,20.0735392 15.5184182,16.0830887 C15.5002613,15.4632247 15.0242641,15.0061615 14.4329298,15.0061615 L8.17563961,15.0061615 C7.57729023,15.0061615 7.09035763,15.4862203 7.09035763,16.0765767 C7.09035763,16.666933 7.57729023,17.1471953 8.17563961,17.1471953 L13.2663549,17.1471953 L13.0833425,17.6876938 C12.3772902,19.7754103 10.4052132,21.177939 8.17563961,21.177939 C5.32378267,21.177939 3.00363136,18.8895706 3.00363136,16.0765767 C3.00363136,13.7259369 4.62412655,11.7413955 6.82151307,11.1526672 C6.80273728,11.1319101 6.78437414,11.110746 6.76642366,11.0889714 L5.36360385,9.38688926 Z M-8.25309491e-05,16.0765767 C-8.25309491e-05,16.0668086 0.000398899587,16.0476117 0.00136176066,16.0189859 C0.0193122421,13.5401406 1.17206327,11.2413936 3.16436039,9.71188031 C3.83182944,9.19946487 4.56738652,8.79510844 5.35060523,8.50980008 L5.62997249,8.40784609 L7.41243466,10.5704509 C7.62165062,10.8240131 7.93629986,10.9754178 8.25342503,10.9754178 C8.57900963,10.9754178 8.89324622,10.8201466 9.10287483,10.5600724 L10.8102338,8.43613273 L11.1188996,8.55273878 C11.1362311,8.55884381 11.1537689,8.56515234 11.1711004,8.57186788 C11.6470977,8.75685026 12.0224072,9.11399446 12.2264649,9.57736617 C12.430729,10.0407379 12.4400138,10.5549848 12.2522558,11.0252756 C11.9615406,11.7536055 11.2606465,12.2243033 10.4669051,12.2243033 C10.2263274,12.2243033 9.99008253,12.1797366 9.76456671,12.0924347 C9.25988996,11.8962597 8.72529574,11.7969513 8.17563961,11.7969513 C5.78286107,11.7969513 3.83657497,13.7167794 3.83657497,16.0765767 C3.83657497,18.4363739 5.78286107,20.3564056 8.17563961,20.3564056 C9.84647868,20.3564056 11.3450344,19.4174521 12.0682118,17.9685252 L8.17563961,17.9685252 C7.1180055,17.9685252 6.25741403,17.1199261 6.25741403,16.0765767 C6.25741403,15.0334307 7.1180055,14.1846281 8.17563961,14.1846281 L14.4329298,14.1846281 C15.478597,14.1846281 16.3204127,14.9927305 16.3488858,16.0240734 C16.3503301,16.0419815 16.3513618,16.0590756 16.3513618,16.0765767 C16.3513618,20.5228694 12.6836864,24.1403026 8.17563961,24.1403026 C3.66759285,24.1403026 -8.25309491e-05,20.5228694 -8.25309491e-05,16.0765767 Z" id="Fill-1"></path>
                        <path d="M13.3477304,14.2600253 L14.4330124,14.2600253 C14.8370014,14.2600253 15.2104539,14.3791738 15.5185007,14.5839164 L15.5185007,2.06126957 C15.5185007,1.6124031 15.2261348,1.21135678 14.790784,1.06347598 C14.6752407,1.0242956 14.5549519,1.0042031 14.4332187,1.0042031 C14.1004127,1.0042031 13.7907153,1.14987373 13.5837689,1.40364202 L8.24298487,7.94656401 L2.75962861,1.39359577 C2.55268226,1.14625708 2.24587345,1.00440403 1.91801926,1.00440403 C1.79401651,1.00440403 1.67145805,1.02489838 1.5542641,1.06568615 C1.12283356,1.21517436 0.832943604,1.61521605 0.832943604,2.06126957 L0.832943604,12.8057523 C1.34339752,11.793894 2.07771664,10.8875213 3.00350757,10.1497246 L3.00350757,5.0293338 L7.41231087,10.3110495 C7.62173315,10.5614021 7.93617607,10.7108903 8.25350757,10.7108903 C8.57909216,10.7108903 8.89332875,10.5575845 9.10295736,10.3008023 L13.3477304,5.08720019 L13.3477304,14.2600253 Z M15.5164374,16.1992251 C15.5647568,15.0422644 15.0243466,14.6906119 14.4330124,14.6906119 L12.5147868,14.6906119 L12.5147868,7.41572014 L9.75515818,10.8051241 C9.3889271,11.2541915 8.83081155,11.5220245 8.26258597,11.5220245 C7.67991747,11.5220245 7.13789546,11.2672516 6.76650619,10.8232074 L3.83645117,7.31304747 L3.83645117,9.98173342 L3.67572215,10.1036949 C1.88583219,11.4599387 0.850275103,13.4985239 0.834387895,15.6964425 L0.00144429161,15.6992555 L0,2.06126957 C0,1.27304076 0.512310867,0.565784731 1.27510316,0.301367421 C1.48246217,0.229637192 1.69869326,0.193269766 1.91801926,0.193269766 C2.49759285,0.193269766 3.03961486,0.444024177 3.40522696,0.881437922 L8.2349381,6.65280788 L12.9315681,0.898918398 C13.2975928,0.450453778 13.8449794,0.193269766 14.4332187,0.193269766 C14.6486245,0.193269766 14.8611417,0.228431643 15.0651994,0.297750771 C15.8345942,0.559154207 16.3514443,1.26801764 16.3514443,2.06126957 L16.3514443,15.6663038 C16.3514443,15.6835833 16.3504127,16.1817446 16.3491747,16.1986223 L15.5164374,16.1992251 Z" id="Fill-4"></path>
                        <path d="M14.5783995,1.67320024 C14.4329621,1.62292701 14.2691406,1.67118123 14.1745654,1.78868733 L8.32683497,9.06033639 L2.32896895,1.78525502 C2.23357667,1.66956603 2.06975525,1.62333081 1.9253391,1.67420974 C1.78153575,1.72468487 1.68430508,1.86056392 1.68430508,2.01219121 L1.68430508,9.97434004 C1.69227146,9.96565832 1.70044211,9.9571785 1.70840849,9.94849675 C1.73823134,9.91619269 1.76846272,9.88409049 1.79889838,9.8521902 C1.82606577,9.82311655 1.85323316,9.79424478 1.88121762,9.76577678 C1.91144901,9.73448222 1.94229319,9.70359143 1.97313738,9.67290256 C2.00173463,9.64423267 2.03012762,9.61556282 2.05933768,9.58729675 C2.09038613,9.55701164 2.12225164,9.5273323 2.15370862,9.497451 C2.18332721,9.46938684 2.21274153,9.44132265 2.24276865,9.41366229 C2.27483843,9.38438672 2.30731674,9.35571684 2.33959079,9.32684507 C2.36328566,9.30564552 2.386572,9.28384024 2.4106754,9.26284261 L2.4106754,3.01482918 L5.96020772,7.33085656 L8.04964585,9.87157265 C8.12277312,9.96020698 8.22776593,10.0137106 8.3303075,10.0137106 L8.33929522,10.0137106 C8.43632163,10.0137106 8.54172292,9.9575823 8.61444168,9.86713087 L10.6319781,7.35205611 L14.0957187,3.03421163 L14.0957187,13.203335 L14.4586996,13.203335 C14.5140557,13.203335 14.5683905,13.2055559 14.6227253,13.2087863 C14.6380452,13.2095939 14.6533652,13.2110072 14.6688894,13.2120167 C14.7111725,13.2152472 14.7532513,13.2194871 14.7953302,13.2247365 C14.8039093,13.2259479 14.8131013,13.2263517 14.8218847,13.2275631 L14.8218847,2.01219121 C14.8218847,1.85955442 14.7240413,1.72347347 14.5783995,1.67320024" id="Fill-7"></path>
                        <path d="M14.4586996,15.6549342 L11.8430719,15.6549342 L8.25309491,15.6549342 C8.05291411,15.6549342 7.89011403,15.8153845 7.89011403,16.0128773 C7.89011403,16.2101689 8.05291411,16.3708205 8.25309491,16.3708205 L14.2914056,16.3708205 L13.7968774,17.8317843 C12.9992182,20.1880085 10.7714919,21.7709709 8.25309491,21.7709709 C5.03161395,21.7709709 2.4106754,19.1878614 2.4106754,16.0128773 C2.4106754,13.7279196 3.76802375,11.7493676 5.72999983,10.8196817 L5.72611875,10.8152527 L5.26120908,10.2513614 C4.90027086,10.4347619 4.5556739,10.6519839 4.23048225,10.9012155 L4.22864386,10.902826 C3.26491631,11.6416626 2.5456953,12.6041633 2.12225164,13.6868508 C2.06199314,13.8414629 2.00745408,13.9984908 1.95924728,14.1577332 C1.78378268,14.7369247 1.6902288,15.3447034 1.68573495,15.9663729 C1.68573495,15.9854981 1.68512215,16.004422 1.68430508,16.0233459 C1.69002454,19.5880813 4.63452063,22.4868572 8.25309491,22.4868572 C11.8659497,22.4868572 14.806769,19.5973419 14.8218847,16.0404579 C14.8210677,16.0281775 14.8204549,16.0160984 14.8204549,16.0040194 C14.8147354,15.8075331 14.6560206,15.6549342 14.4586996,15.6549342" id="Fill-9"></path>
                        <path d="M10.7670013,10.4506501 C10.789499,10.4027092 10.7883942,10.350287 10.7639882,10.302938 C10.7540449,10.2838293 10.7407873,10.2664962 10.7247174,10.2513614 L10.4426915,10.5507594 C10.4517308,10.5536342 10.4607701,10.556509 10.469709,10.5594683 C10.5873202,10.5984467 10.7207,10.5495757 10.7670013,10.4506501" id="Fill-11"></path>
                    </g>
                </g>
            </g>
        </g>
    </g>
</svg>