<?xml version="1.0" encoding="UTF-8"?>
<svg width="727px" height="341px" viewBox="0 0 727 341" version="1.1" xmlns="http://www.w3.org/2000/svg" xmlns:xlink="http://www.w3.org/1999/xlink">
    <!-- Generator: Sketch 49.3 (51167) - http://www.bohemiancoding.com/sketch -->
    <desc>Created with Sketch.</desc>
    <defs></defs>
    <g id="Mariogogh_Index" stroke="none" stroke-width="1" fill="none" fill-rule="evenodd">
        <g id="Hover">
            <path d="M27.9552264,190.992356 L48.1291012,190.992356 C51.3953639,190.992356 54.5655125,190.463851 57.6396421,189.406825 C60.7137717,188.3498 63.4516274,186.596124 65.8532911,184.145747 C68.2549549,181.695369 70.1762571,178.500317 71.6172553,174.560495 C73.0582536,170.620672 73.7787419,165.816082 73.7787419,160.146582 C73.7787419,154.957547 73.2744001,150.273072 72.2657013,146.093016 C71.2570025,141.912961 69.5998794,138.333541 67.2942822,135.354651 C64.988685,132.375761 61.9386177,130.093581 58.143989,128.508043 C54.3493602,126.922504 49.6661862,126.129747 44.0943262,126.129747 L27.9552264,126.129747 L27.9552264,190.992356 Z M5.3316669,107.103382 L49.7141913,107.103382 C56.3427833,107.103382 62.5149666,108.160391 68.2309264,110.274443 C73.9468861,112.388494 78.8942393,115.559523 83.0731342,119.787625 C87.2520292,124.015727 90.5182429,129.300776 92.8718734,135.642929 C95.2255039,141.985083 96.4023014,149.432197 96.4023014,157.984495 C96.4023014,165.479767 95.4416503,172.398376 93.5203193,178.740529 C91.5989883,185.082683 88.6930188,190.559915 84.8023235,195.17239 C80.9116282,199.784866 76.0603401,203.412331 70.2483138,206.054895 C64.4362875,208.697459 57.5916485,210.018721 49.7141913,210.018721 L5.3316669,210.018721 L5.3316669,107.103382 Z M153.219378,164.759034 C152.258712,159.569999 150.553557,155.630236 148.10386,152.939625 C145.654163,150.249015 141.93164,148.903729 136.936179,148.903729 C133.669916,148.903729 130.956077,149.456257 128.79458,150.561329 C126.633082,151.666402 124.90391,153.03571 123.607012,154.669295 C122.310113,156.30288 121.397495,158.032532 120.869129,159.858303 C120.340763,161.684075 120.028551,163.317635 119.932485,164.759034 L153.219378,164.759034 Z M119.932485,177.731556 C120.220684,184.361989 121.901824,189.166578 124.975953,192.145469 C128.050083,195.124359 132.469078,196.613782 138.233071,196.613782 C142.363933,196.613782 145.918342,195.580795 148.896405,193.51479 C151.874468,191.448786 153.699705,189.262698 154.372171,186.95646 L172.384559,186.95646 C169.502562,195.893131 165.083567,202.283235 159.127441,206.126964 C153.171315,209.970694 145.966432,211.892529 137.512575,211.892529 C131.652516,211.892529 126.368935,210.955634 121.661674,209.081816 C116.954413,207.207998 112.967711,204.541451 109.701448,201.082095 C106.435185,197.622738 103.913476,193.490791 102.136245,188.686129 C100.359014,183.881468 99.4704117,178.596419 99.4704117,172.830825 C99.4704117,167.257418 100.38303,162.068461 102.208295,157.263799 C104.033559,152.459137 106.627317,148.303167 109.989646,144.795764 C113.351976,141.288361 117.362694,138.525722 122.021922,136.507764 C126.681149,134.489806 131.844649,133.480843 137.512575,133.480843 C143.852968,133.480843 149.376712,134.706013 154.083973,137.15639 C158.791234,139.606768 162.657854,142.897912 165.683951,147.029921 C168.710047,151.16193 170.895528,155.870428 172.24046,161.155556 C173.585392,166.440683 174.065717,171.965962 173.681451,177.731556 L119.932485,177.731556 Z M194.761949,185.803347 C194.761949,188.013491 195.218259,189.911304 196.130891,191.496843 C197.043523,193.082381 198.220321,194.37962 199.661319,195.388599 C201.102317,196.397578 202.75944,197.142289 204.632738,197.622756 C206.506036,198.103222 208.451354,198.343451 210.468752,198.343451 C211.90975,198.343451 213.422776,198.175291 215.007874,197.838964 C216.592972,197.502638 218.033948,196.974133 219.330847,196.253434 C220.627745,195.532735 221.708478,194.571817 222.573077,193.370651 C223.437676,192.169486 223.869969,190.65604 223.869969,188.830269 C223.869969,185.755285 221.828585,183.449082 217.745757,181.91159 C213.662928,180.374099 207.97107,178.83663 200.670013,177.299138 C197.69195,176.626486 194.78598,175.833728 191.952017,174.920843 C189.118054,174.007957 186.596344,172.806809 184.386814,171.317364 C182.177283,169.827919 180.400079,167.954129 179.055147,165.695938 C177.710215,163.437747 177.037759,160.675108 177.037759,157.407938 C177.037759,152.603276 177.974394,148.663513 179.847692,145.588529 C181.72099,142.513546 184.194666,140.087228 187.268796,138.309503 C190.342925,136.531779 193.801269,135.282585 197.643931,134.561886 C201.486593,133.841187 205.425263,133.480843 209.460058,133.480843 C213.494853,133.480843 217.409506,133.86521 221.204135,134.633956 C224.998764,135.402701 228.385059,136.699941 231.363122,138.525712 C234.341185,140.351484 236.814862,142.777801 238.784226,145.804738 C240.75359,148.831675 241.930388,152.651324 242.314654,157.263799 L222.861275,157.263799 C222.573075,153.323976 221.084066,150.657429 218.394203,149.264077 C215.704339,147.870725 212.534191,147.17406 208.883662,147.17406 C207.730863,147.17406 206.482017,147.246129 205.137085,147.390269 C203.792153,147.534408 202.567323,147.846707 201.462558,148.327173 C200.357792,148.807639 199.421158,149.504305 198.652625,150.41719 C197.884093,151.330076 197.499832,152.555246 197.499832,154.092738 C197.499832,155.91851 198.172288,157.407932 199.51722,158.561051 C200.862151,159.71417 202.61534,160.651065 204.776837,161.371764 C206.938335,162.092464 209.412011,162.741083 212.197941,163.317643 C214.983871,163.894202 217.817792,164.518799 220.699788,165.191451 C223.677851,165.864104 226.583821,166.680884 229.417784,167.641816 C232.251747,168.602749 234.773456,169.875965 236.982987,171.461503 C239.192518,173.047042 240.969722,175.016923 242.314654,177.371208 C243.659586,179.725492 244.332042,182.632269 244.332042,186.091625 C244.332042,190.99238 243.347374,195.100304 241.37801,198.415521 C239.408646,201.730737 236.838904,204.397285 233.668708,206.415243 C230.498512,208.4332 226.872054,209.850554 222.789225,210.667347 C218.706397,211.484139 214.551581,211.892529 210.324653,211.892529 C206.001658,211.892529 201.774793,211.460116 197.643931,210.595277 C193.51307,209.730438 189.838579,208.289061 186.62035,206.271103 C183.40212,204.253145 180.76033,201.586598 178.694899,198.271382 C176.629468,194.956165 175.500703,190.800195 175.30857,185.803347 L194.761949,185.803347 Z M270.456009,123.96766 L249.993936,123.96766 L249.993936,107.103382 L270.456009,107.103382 L270.456009,123.96766 Z M249.993936,135.49879 L270.456009,135.49879 L270.456009,210.018721 L249.993936,210.018721 L249.993936,135.49879 Z M314.448265,192.433747 C317.330261,192.433747 319.875987,191.857196 322.085517,190.704077 C324.295048,189.550958 326.120285,188.01349 327.561283,186.091625 C329.002282,184.16976 330.083014,181.983672 330.803513,179.533295 C331.524012,177.082917 331.884256,174.512462 331.884256,171.821851 C331.884256,168.746868 331.596061,165.840091 331.019662,163.101434 C330.443263,160.362777 329.482611,157.936459 328.13768,155.822408 C326.792748,153.708357 325.015544,152.02675 322.806013,150.777538 C320.596482,149.528326 317.810594,148.903729 314.448265,148.903729 C311.566268,148.903729 309.092592,149.48028 307.027161,150.633399 C304.96173,151.786518 303.232558,153.348009 301.839593,155.317921 C300.446628,157.287832 299.437944,159.545989 298.813512,162.09246 C298.189079,164.638931 297.876868,167.305478 297.876868,170.092182 C297.876868,172.782792 298.141047,175.449339 298.669413,178.091903 C299.197779,180.734467 300.110397,183.112739 301.407296,185.22679 C302.704194,187.340841 304.40935,189.070494 306.522814,190.415799 C308.636278,191.761104 311.278069,192.433747 314.448265,192.433747 Z M351.337636,205.262129 C351.337636,208.24102 350.929359,211.652278 350.112793,215.496008 C349.296228,219.339737 347.543039,222.919156 344.853176,226.234373 C342.163313,229.54959 338.272676,232.360274 333.181148,234.666512 C328.089621,236.97275 321.268998,238.125851 312.719075,238.125851 C309.068547,238.125851 305.346024,237.669415 301.551395,236.756529 C297.756766,235.843644 294.298422,234.42629 291.176259,232.504425 C288.054096,230.58256 285.460338,228.108197 283.394908,225.08126 C281.329477,222.054323 280.152679,218.426858 279.864479,214.198756 L300.182453,214.198756 C301.143119,218.042485 303.016388,220.709032 305.802318,222.198477 C308.588248,223.687922 311.80643,224.432634 315.456958,224.432634 C321.220952,224.432634 325.4238,222.702982 328.06563,219.243625 C330.70746,215.784269 331.980323,211.412092 331.884256,206.126964 L331.884256,196.325503 L331.596058,196.325503 C329.386528,200.265326 326.240395,203.172103 322.157567,205.045921 C318.074738,206.919739 313.775825,207.856634 309.260697,207.856634 C303.688837,207.856634 298.885582,206.871693 294.850786,204.901782 C290.815991,202.93187 287.501745,200.2413 284.907948,196.82999 C282.314151,193.418681 280.416865,189.430871 279.216033,184.866443 C278.015202,180.302014 277.414795,175.473401 277.414795,170.38046 C277.414795,165.575798 278.111267,160.939369 279.504232,156.471034 C280.897197,152.002698 282.93858,148.062935 285.628444,144.651625 C288.318307,141.240315 291.65657,138.525722 295.643331,136.507764 C299.630093,134.489806 304.217202,133.480843 309.404796,133.480843 C314.30419,133.480843 318.603104,134.393715 322.301666,136.219486 C326.000228,138.045257 329.098328,141.120195 331.596058,145.44439 L331.884256,145.44439 L331.884256,135.49879 L351.337636,135.49879 L351.337636,205.262129 Z M360.890206,135.49879 L380.343585,135.49879 L380.343585,145.876808 L380.775882,145.876808 C383.369679,141.552612 386.731958,138.405606 390.86282,136.435695 C394.993681,134.465783 399.220546,133.480843 403.543541,133.480843 C409.019334,133.480843 413.510378,134.225554 417.016807,135.714999 C420.523236,137.204444 423.285108,139.270418 425.302506,141.912982 C427.319903,144.555546 428.736864,147.774621 429.553429,151.570303 C430.369995,155.365986 430.778272,159.570002 430.778272,164.182477 L430.778272,210.018721 L410.316199,210.018721 L410.316199,167.930095 C410.316199,161.780128 409.355548,157.191745 407.434217,154.164808 C405.512886,151.137871 402.102574,149.624425 397.20318,149.624425 C391.63132,149.624425 387.596586,151.282009 385.098855,154.597225 C382.601125,157.912442 381.352279,163.365651 381.352279,170.957016 L381.352279,210.018721 L360.890206,210.018721 L360.890206,135.49879 Z M489.612736,164.759034 C488.65207,159.569999 486.946915,155.630236 484.497217,152.939625 C482.04752,150.249015 478.324997,148.903729 473.329537,148.903729 C470.063274,148.903729 467.349435,149.456257 465.187937,150.561329 C463.02644,151.666402 461.297268,153.03571 460.00037,154.669295 C458.703471,156.30288 457.790853,158.032532 457.262487,159.858303 C456.734121,161.684075 456.421909,163.317635 456.325842,164.759034 L489.612736,164.759034 Z M456.325842,177.731556 C456.614042,184.361989 458.295181,189.166578 461.369311,192.145469 C464.443441,195.124359 468.862436,196.613782 474.626429,196.613782 C478.75729,196.613782 482.311699,195.580795 485.289763,193.51479 C488.267826,191.448786 490.093063,189.262698 490.765529,186.95646 L508.777917,186.95646 C505.89592,195.893131 501.476925,202.283235 495.520799,206.126964 C489.564673,209.970694 482.35979,211.892529 473.905933,211.892529 C468.045874,211.892529 462.762293,210.955634 458.055032,209.081816 C453.347771,207.207998 449.361069,204.541451 446.094806,201.082095 C442.828543,197.622738 440.306834,193.490791 438.529603,188.686129 C436.752372,183.881468 435.863769,178.596419 435.863769,172.830825 C435.863769,167.257418 436.776388,162.068461 438.601652,157.263799 C440.426917,152.459137 443.020675,148.303167 446.383004,144.795764 C449.745333,141.288361 453.756052,138.525722 458.415279,136.507764 C463.074507,134.489806 468.238007,133.480843 473.905933,133.480843 C480.246326,133.480843 485.770069,134.706013 490.47733,137.15639 C495.184591,139.606768 499.051212,142.897912 502.077308,147.029921 C505.103405,151.16193 507.288886,155.870428 508.633818,161.155556 C509.978749,166.440683 510.459075,171.965962 510.074809,177.731556 L456.325842,177.731556 Z M515.304405,135.49879 L534.757785,135.49879 L534.757785,149.336147 L535.045983,149.336147 C536.006648,147.029909 537.303527,144.891867 538.936659,142.921956 C540.56979,140.952044 542.44306,139.270438 544.556524,137.877086 C546.669988,136.483734 548.927518,135.402701 551.329182,134.633956 C553.730846,133.86521 556.228538,133.480843 558.822335,133.480843 C560.167267,133.480843 561.656276,133.721072 563.289408,134.201538 L563.289408,153.227903 C562.328742,153.035717 561.175961,152.867556 559.831029,152.723416 C558.486097,152.579277 557.189218,152.507208 555.940353,152.507208 C552.193758,152.507208 549.023609,153.131804 546.429812,154.381016 C543.836015,155.630228 541.746599,157.335858 540.161501,159.497956 C538.576403,161.660053 537.447638,164.182463 536.775172,167.06526 C536.102706,169.948057 535.766478,173.07104 535.766478,176.434303 L535.766478,210.018721 L515.304405,210.018721 L515.304405,135.49879 Z M62.2508135,328.408997 C58.1199518,332.444913 53.7249731,335.471804 49.0657454,337.489762 C44.4065177,339.50772 39.1469529,340.516684 33.2868933,340.516684 C28.6756989,340.516684 24.3287527,339.844042 20.2459243,338.498736 C16.1630959,337.153431 12.6327031,335.159526 9.65464006,332.516962 C6.67657699,329.874398 4.3229818,326.655323 2.5937839,322.859641 C0.864585986,319.063958 0,314.715804 0,309.815049 C0,306.163506 0.624423212,302.824317 1.87328837,299.79738 C3.12215353,296.770443 4.82730922,294.031827 6.98880661,291.581449 C9.15030399,289.131072 11.6239806,286.944984 14.4099105,285.023119 C17.1958405,283.101254 20.0777938,281.419648 23.0558568,279.978249 C20.2699269,276.614986 17.940348,273.251773 16.0670502,269.88851 C14.1937525,266.525247 13.2571177,262.585483 13.2571177,258.069101 C13.2571177,254.513652 14.0016223,251.294577 15.4906538,248.41178 C16.9796854,245.528983 18.9730364,243.054619 21.4707667,240.988614 C23.968497,238.92261 26.826434,237.337095 30.0446635,236.232023 C33.2628929,235.126951 36.6011555,234.574423 40.0595513,234.574423 C43.9982798,234.574423 47.6727703,235.102928 51.0831328,236.159954 C54.4934954,237.216979 57.4715138,238.778471 60.0172774,240.844475 C62.5630409,242.91048 64.5804082,245.480935 66.0694398,248.555919 C67.5584713,251.630902 68.3029759,255.186299 68.3029759,259.222214 C68.3029759,265.276088 66.5497877,270.368953 63.0433586,274.500962 C59.5369295,278.632971 55.1899833,282.092276 50.0023895,284.87898 L63.2595072,301.166701 C64.3162393,299.244837 65.1327927,297.250932 65.709192,295.184928 C66.2855913,293.118923 66.7178843,291.028927 67.006084,288.914875 L84.7302739,288.914875 C84.2499412,293.527351 83.193225,297.995619 81.5600936,302.319814 C79.9269622,306.64401 77.6694322,310.631819 74.7874357,314.283362 L95.6818059,338.642875 L70.6085616,338.642875 L62.2508135,328.408997 Z M33.8632897,293.239049 C32.0380253,294.007795 30.2608208,294.920667 28.5316228,295.977693 C26.8024249,297.034718 25.2653832,298.283912 23.9204515,299.72531 C22.5755198,301.166709 21.4947873,302.752223 20.6782216,304.481901 C19.8616559,306.21158 19.4533792,308.133416 19.4533792,310.247467 C19.4533792,312.073238 19.8616559,313.826913 20.6782216,315.508545 C21.4947873,317.190177 22.5755198,318.631553 23.9204515,319.832719 C25.2653832,321.033884 26.8264412,321.994802 28.6036724,322.715501 C30.3809036,323.436201 32.2301569,323.796545 34.151488,323.796545 C37.8020169,323.796545 40.9961818,322.955742 43.7340785,321.27411 C46.4719751,319.592479 49.0417168,317.40639 51.4433806,314.71578 L33.8632897,293.239049 Z M50.4346869,258.069101 C50.4346869,255.378491 49.498052,253.072288 47.6247543,251.150423 C45.7514566,249.228559 43.5659753,248.267641 41.068245,248.267641 C38.5705147,248.267641 36.4090497,249.108444 34.5837853,250.790075 C32.7585208,252.471707 31.8459023,254.657795 31.8459023,257.348406 C31.8459023,260.615576 32.7104883,263.402238 34.4396862,265.708475 C36.1688841,268.014713 37.9941212,270.368962 39.9154522,272.771293 C42.7974487,270.945521 45.2711253,268.97564 47.3365561,266.861588 C49.4019869,264.747537 50.4346869,261.816738 50.4346869,258.069101 Z M130.349649,235.727536 L152.973209,235.727536 L152.973209,338.642875 L130.349649,338.642875 L130.349649,235.727536 Z M164.399067,235.727536 L184.86114,235.727536 L184.86114,338.642875 L164.399067,338.642875 L164.399067,235.727536 Z M194.701908,235.727536 L215.163981,235.727536 L215.163981,338.642875 L194.701908,338.642875 L194.701908,235.727536 Z M294.316419,338.642875 L274.86304,338.642875 L274.86304,328.264858 L274.430742,328.264858 C271.836946,332.589054 268.474667,335.712037 264.343805,337.633901 C260.212943,339.555766 255.986079,340.516684 251.663084,340.516684 C246.18729,340.516684 241.696247,339.795996 238.189818,338.354597 C234.683388,336.913199 231.921517,334.871248 229.904119,332.228684 C227.886721,329.58612 226.469761,326.367045 225.653195,322.571362 C224.83663,318.77568 224.428353,314.571664 224.428353,309.959188 L224.428353,264.122945 L244.890426,264.122945 L244.890426,306.211571 C244.890426,312.361538 245.851077,316.949921 247.772408,319.976858 C249.693739,323.003795 253.10405,324.517241 258.003444,324.517241 C263.575304,324.517241 267.610039,322.859657 270.107769,319.544441 C272.6055,316.229224 273.854346,310.776015 273.854346,303.184649 L273.854346,264.122945 L294.316419,264.122945 L294.316419,338.642875 Z M318.855296,314.427501 C318.855296,316.637646 319.311605,318.535459 320.224237,320.120997 C321.13687,321.706535 322.313667,323.003775 323.754666,324.012754 C325.195664,325.021733 326.852787,325.766444 328.726085,326.24691 C330.599382,326.727376 332.544701,326.967606 334.562098,326.967606 C336.003097,326.967606 337.516122,326.799445 339.10122,326.463119 C340.686318,326.126793 342.127295,325.598288 343.424193,324.877588 C344.721092,324.156889 345.801824,323.195971 346.666423,321.994806 C347.531022,320.79364 347.963315,319.280195 347.963315,317.454423 C347.963315,314.37944 345.921932,312.073237 341.839103,310.535745 C337.756275,308.998253 332.064417,307.460784 324.763359,305.923293 C321.785296,305.25064 318.879327,304.457883 316.045363,303.544997 C313.2114,302.632111 310.689691,301.430964 308.48016,299.941519 C306.27063,298.452074 304.493425,296.578284 303.148493,294.320093 C301.803562,292.061902 301.131106,289.299263 301.131106,286.032093 C301.131106,281.227431 302.067741,277.287668 303.941039,274.212684 C305.814336,271.137701 308.288013,268.711383 311.362142,266.933658 C314.436272,265.155933 317.894616,263.90674 321.737278,263.186041 C325.57994,262.465341 329.51861,262.104997 333.553405,262.104997 C337.5882,262.104997 341.502853,262.489364 345.297482,263.25811 C349.092111,264.026856 352.478406,265.324095 355.456469,267.149867 C358.434532,268.975638 360.908208,271.401956 362.877573,274.428893 C364.846937,277.45583 366.023734,281.275478 366.408001,285.887954 L346.954621,285.887954 C346.666422,281.948131 345.177413,279.281584 342.487549,277.888232 C339.797686,276.49488 336.627537,275.798214 332.977008,275.798214 C331.82421,275.798214 330.575363,275.870283 329.230432,276.014423 C327.8855,276.158563 326.66067,276.470861 325.555904,276.951328 C324.451139,277.431794 323.514504,278.128459 322.745972,279.041345 C321.977439,279.954231 321.593179,281.179401 321.593179,282.716893 C321.593179,284.542664 322.265635,286.032087 323.610566,287.185206 C324.955498,288.338325 326.708686,289.27522 328.870184,289.995919 C331.031681,290.716618 333.505358,291.365238 336.291288,291.941797 C339.077218,292.518357 341.911138,293.142953 344.793135,293.815606 C347.771198,294.488258 350.677168,295.305039 353.511131,296.265971 C356.345094,297.226903 358.866803,298.50012 361.076334,300.085658 C363.285864,301.671196 365.063069,303.641078 366.408001,305.995362 C367.752932,308.349647 368.425388,311.256423 368.425388,314.71578 C368.425388,319.616535 367.440721,323.724459 365.471357,327.039675 C363.501992,330.354892 360.932251,333.021439 357.762054,335.039397 C354.591858,337.057355 350.9654,338.474709 346.882572,339.291501 C342.799744,340.108294 338.644928,340.516684 334.417999,340.516684 C330.095005,340.516684 325.86814,340.084271 321.737278,339.219432 C317.606416,338.354593 313.931926,336.913216 310.713696,334.895258 C307.495467,332.8773 304.853677,330.210753 302.788246,326.895536 C300.722815,323.58032 299.59405,319.42435 299.401917,314.427501 L318.855296,314.427501 Z M399.448725,264.122945 L414.435032,264.122945 L414.435032,277.816162 L399.448725,277.816162 L399.448725,314.71578 C399.448725,318.175136 400.025115,320.481339 401.177914,321.634458 C402.330713,322.787577 404.636275,323.364128 408.094671,323.364128 C409.24747,323.364128 410.352219,323.316082 411.408951,323.219988 C412.465683,323.123895 413.474366,322.979757 414.435032,322.787571 L414.435032,338.642875 C412.705834,338.931155 410.784532,339.123339 408.671068,339.219432 C406.557603,339.315525 404.492204,339.363571 402.474806,339.363571 C399.30461,339.363571 396.302575,339.147364 393.468612,338.714945 C390.634649,338.282525 388.136956,337.441722 385.975458,336.19251 C383.813961,334.943298 382.108805,333.1656 380.85994,330.859362 C379.611075,328.553125 378.986652,325.526233 378.986652,321.778597 L378.986652,277.816162 L366.594129,277.816162 L366.594129,264.122945 L378.986652,264.122945 L378.986652,241.78138 L399.448725,241.78138 L399.448725,264.122945 Z M417.359043,264.122945 L436.812422,264.122945 L436.812422,277.960301 L437.10062,277.960301 C438.061286,275.654064 439.358165,273.516021 440.991296,271.54611 C442.624428,269.576199 444.497697,267.894592 446.611161,266.501241 C448.724625,265.107889 450.982155,264.026856 453.383819,263.25811 C455.785483,262.489364 458.283176,262.104997 460.876973,262.104997 C462.221904,262.104997 463.710914,262.345227 465.344045,262.825693 L465.344045,281.852058 C464.383379,281.659872 463.230598,281.491711 461.885666,281.347571 C460.540735,281.203431 459.243856,281.131362 457.994991,281.131362 C454.248395,281.131362 451.078247,281.755959 448.48445,283.005171 C445.890653,284.254383 443.801237,285.960012 442.216139,288.12211 C440.63104,290.284208 439.502275,292.806617 438.82981,295.689414 C438.157344,298.572212 437.821116,301.695195 437.821116,305.058458 L437.821116,338.642875 L417.359043,338.642875 L417.359043,264.122945 Z M465.674272,287.041067 C465.962472,282.236405 467.163286,278.248596 469.27675,275.077519 C471.390214,271.906442 474.080037,269.36001 477.3463,267.438145 C480.612562,265.51628 484.287053,264.146972 488.369881,263.33018 C492.45271,262.513387 496.559493,262.104997 500.690355,262.104997 C504.43695,262.104997 508.231522,262.36925 512.074184,262.897762 C515.916846,263.426275 519.423223,264.459262 522.593419,265.996754 C525.763615,267.534245 528.357373,269.672288 530.37477,272.410945 C532.392168,275.149602 533.400852,278.777067 533.400852,283.293449 L533.400852,322.066875 C533.400852,325.430139 533.592982,328.649214 533.977248,331.724197 C534.361514,334.799181 535.03397,337.105384 535.994636,338.642875 L515.244364,338.642875 C514.860098,337.489757 514.547887,336.312632 514.30772,335.111467 C514.067554,333.910301 513.89944,332.685131 513.803373,331.435919 C510.537111,334.799182 506.694506,337.153431 502.275445,338.498736 C497.856384,339.844042 493.341323,340.516684 488.730129,340.516684 C485.175667,340.516684 481.86142,340.084271 478.787291,339.219432 C475.713161,338.354593 473.023338,337.009308 470.717741,335.183536 C468.412144,333.357765 466.610923,331.051562 465.314024,328.264858 C464.017126,325.478154 463.368687,322.162987 463.368687,318.319258 C463.368687,314.091156 464.113191,310.607828 465.602223,307.869171 C467.091254,305.130514 469.012556,302.944426 471.366187,301.310841 C473.719817,299.677256 476.40964,298.452085 479.435737,297.635293 C482.461833,296.8185 485.5119,296.169881 488.58603,295.689414 C491.66016,295.208948 494.686211,294.824581 497.664274,294.536301 C500.642337,294.248022 503.284127,293.815609 505.589724,293.239049 C507.895322,292.66249 509.720559,291.821687 511.06549,290.716614 C512.410422,289.611542 513.034845,288.002005 512.938779,285.887954 C512.938779,283.677809 512.578535,281.924134 511.858035,280.626875 C511.137536,279.329617 510.176885,278.320653 508.976053,277.599954 C507.775221,276.879254 506.382277,276.398795 504.797179,276.158562 C503.212081,275.918329 501.506926,275.798214 499.681661,275.798214 C495.646866,275.798214 492.476717,276.663041 490.17112,278.392719 C487.865523,280.122397 486.520611,283.005151 486.136345,287.041067 L465.674272,287.041067 Z M512.938779,302.175675 C512.07418,302.944421 510.993447,303.544995 509.696549,303.977414 C508.39965,304.409834 507.006706,304.770178 505.517675,305.058458 C504.028643,305.346738 502.467585,305.586967 500.834454,305.779154 C499.201323,305.97134 497.568216,306.21157 495.935084,306.499849 C494.398019,306.788129 492.884994,307.172496 491.395962,307.652962 C489.906931,308.133428 488.610052,308.782048 487.505287,309.598841 C486.400521,310.415633 485.511919,311.44862 484.839453,312.697832 C484.166987,313.947044 483.830759,315.532559 483.830759,317.454423 C483.830759,319.280195 484.166987,320.817663 484.839453,322.066875 C485.511919,323.316087 486.424538,324.301028 487.577336,325.021728 C488.730135,325.742427 490.075046,326.246909 491.612111,326.535188 C493.149176,326.823468 494.73425,326.967606 496.367382,326.967606 C500.402177,326.967606 503.524293,326.294963 505.733823,324.949658 C507.943354,323.604353 509.576461,321.994815 510.633193,320.120997 C511.689925,318.247179 512.338365,316.349366 512.578531,314.427501 C512.818697,312.505637 512.938779,310.968168 512.938779,309.815049 L512.938779,302.175675 Z M568.314864,264.122945 L583.301171,264.122945 L583.301171,277.816162 L568.314864,277.816162 L568.314864,314.71578 C568.314864,318.175136 568.891255,320.481339 570.044053,321.634458 C571.196852,322.787577 573.502415,323.364128 576.960811,323.364128 C578.113609,323.364128 579.218358,323.316082 580.27509,323.219988 C581.331822,323.123895 582.340506,322.979757 583.301171,322.787571 L583.301171,338.642875 C581.571973,338.931155 579.650671,339.123339 577.537207,339.219432 C575.423743,339.315525 573.358343,339.363571 571.340945,339.363571 C568.170749,339.363571 565.168715,339.147364 562.334751,338.714945 C559.500788,338.282525 557.003095,337.441722 554.841598,336.19251 C552.6801,334.943298 550.974945,333.1656 549.72608,330.859362 C548.477214,328.553125 547.852791,325.526233 547.852791,321.778597 L547.852791,277.816162 L535.460268,277.816162 L535.460268,264.122945 L547.852791,264.122945 L547.852791,241.78138 L568.314864,241.78138 L568.314864,264.122945 Z M604.38167,301.45498 C604.38167,304.43387 604.669865,307.340647 605.246264,310.175397 C605.822663,313.010148 606.807331,315.55658 608.200296,317.814771 C609.593261,320.072962 611.442514,321.874683 613.748111,323.219988 C616.053709,324.565294 618.935662,325.237936 622.394058,325.237936 C625.852454,325.237936 628.758423,324.565294 631.112054,323.219988 C633.465684,321.874683 635.338954,320.072962 636.731919,317.814771 C638.124884,315.55658 639.109551,313.010148 639.68595,310.175397 C640.26235,307.340647 640.550545,304.43387 640.550545,301.45498 C640.550545,298.476089 640.26235,295.54529 639.68595,292.662493 C639.109551,289.779696 638.124884,287.233263 636.731919,285.023119 C635.338954,282.812974 633.465684,281.011253 631.112054,279.617901 C628.758423,278.22455 625.852454,277.527884 622.394058,277.527884 C618.935662,277.527884 616.053709,278.22455 613.748111,279.617901 C611.442514,281.011253 609.593261,282.812974 608.200296,285.023119 C606.807331,287.233263 605.822663,289.779696 605.246264,292.662493 C604.669865,295.54529 604.38167,298.476089 604.38167,301.45498 Z M583.919597,301.45498 C583.919597,295.497199 584.832215,290.092036 586.65748,285.239328 C588.482744,280.386619 591.076502,276.254672 594.438831,272.843362 C597.801161,269.432053 601.835895,266.789528 606.543156,264.91571 C611.250417,263.041892 616.533998,262.104997 622.394058,262.104997 C628.254117,262.104997 633.561715,263.041892 638.317009,264.91571 C643.072303,266.789528 647.131054,269.432053 650.493383,272.843362 C653.855712,276.254672 656.44947,280.386619 658.274735,285.239328 C660.099999,290.092036 661.012618,295.497199 661.012618,301.45498 C661.012618,307.41276 660.099999,312.793901 658.274735,317.598562 C656.44947,322.403224 653.855712,326.511148 650.493383,329.922458 C647.131054,333.333768 643.072303,335.952269 638.317009,337.778041 C633.561715,339.603812 628.254117,340.516684 622.394058,340.516684 C616.533998,340.516684 611.250417,339.603812 606.543156,337.778041 C601.835895,335.952269 597.801161,333.333768 594.438831,329.922458 C591.076502,326.511148 588.482744,322.403224 586.65748,317.598562 C584.832215,312.793901 583.919597,307.41276 583.919597,301.45498 Z M667.395008,264.122945 L686.848387,264.122945 L686.848387,277.960301 L687.136585,277.960301 C688.09725,275.654064 689.394129,273.516021 691.027261,271.54611 C692.660392,269.576199 694.533662,267.894592 696.647126,266.501241 C698.76059,265.107889 701.01812,264.026856 703.419784,263.25811 C705.821448,262.489364 708.319141,262.104997 710.912937,262.104997 C712.257869,262.104997 713.746878,262.345227 715.38001,262.825693 L715.38001,281.852058 C714.419344,281.659872 713.266563,281.491711 711.921631,281.347571 C710.576699,281.203431 709.27982,281.131362 708.030955,281.131362 C704.28436,281.131362 701.114211,281.755959 698.520414,283.005171 C695.926617,284.254383 693.837201,285.960012 692.252103,288.12211 C690.667005,290.284208 689.53824,292.806617 688.865774,295.689414 C688.193308,298.572212 687.857081,301.695195 687.857081,305.058458 L687.857081,338.642875 L667.395008,338.642875 L667.395008,264.122945 Z M703.984171,317.30628 L726.60773,317.30628 L726.60773,339.503706 L703.984171,339.503706 L703.984171,317.30628 Z" id="Mariogogh-UI&amp;UX-Desi" fill="#EF5350"></path>
            <g id="Logo-MG-white1@3x" transform="translate(23.766345, 30.779710) rotate(-360.000000) translate(-23.766345, -30.779710) translate(3.016345, 0.029710)" fill-rule="nonzero">
                <g id="-Logo-Mariogogh-Hover" transform="translate(1.000000, 1.500000)" fill="#FFFFFF">
                    <g id="Group">
                        <path d="M24.4023,27.4512329 C24.7123,27.5715616 25.0358,27.6327123 25.3648,27.6327123 C26.4533,27.6327123 27.4143,26.9871781 27.8133,25.9885479 C28.0708,25.3435068 28.0583,24.6387945 27.7783,24.0031233 C27.5723,23.5361096 27.2398,23.148 26.8188,22.8743014 L23.6398,26.8283836 C23.5618,26.9250411 23.4803,27.0187397 23.3953,27.1084932 C23.7353,27.2086027 24.0708,27.3225205 24.4023,27.4512329 Z M12.9978,22.7475616 C11.5433,23.3457534 10.1703,24.1372603 8.9073,25.1063014 C4.5703,28.4355616 2.0603,33.4390685 2.0218,38.8336438 C2.02146667,38.8536986 2.0203,38.8954521 2.0183,38.9589041 C2.0183,48.636 10.0008,56.5091507 19.8123,56.5091507 C29.6183,56.5091507 37.5973,48.6448767 37.6063,38.9746849 C37.5623,37.472548 36.4088,36.3649315 34.9758,36.3649315 L19.8123,36.3649315 C18.3623,36.3649315 17.1823,37.5282739 17.1823,38.9589041 C17.1823,40.3895343 18.3623,41.5533699 19.8123,41.5533699 L32.1488,41.5533699 L31.7053,42.8631781 C29.9943,47.922411 25.2153,51.3212055 19.8123,51.3212055 C12.9013,51.3212055 7.2788,45.7757261 7.2788,38.9589041 C7.2788,33.2625205 11.2058,28.4533151 16.5308,27.0266301 C16.4853,26.9763288 16.4408,26.9250411 16.3973,26.872274 L12.9978,22.7475616 Z M-0.0002,38.9589041 C-0.0002,38.9352329 0.000966666667,38.8887123 0.0033,38.8193425 C0.0468,32.812274 2.8403,27.2416438 7.6683,23.5351233 C9.2858,22.2933699 11.0683,21.3134795 12.9663,20.6220822 L13.6433,20.3750137 L17.9628,25.615726 C18.4698,26.2301918 19.2323,26.5970959 20.0008,26.5970959 C20.7898,26.5970959 21.5513,26.2208219 22.0593,25.5905753 L26.1968,20.4435616 L26.9448,20.726137 C26.9868,20.7409315 27.0293,20.7562192 27.0713,20.7724932 C28.2248,21.2207671 29.1343,22.0862466 29.6288,23.2091507 C30.1238,24.3320548 30.1463,25.5782466 29.6913,26.7179178 C28.9868,28.4829041 27.2883,29.6235616 25.3648,29.6235616 C24.7818,29.6235616 24.2093,29.5155616 23.6628,29.304 C22.4398,28.8286027 21.1443,28.5879452 19.8123,28.5879452 C14.0138,28.5879452 9.2973,33.2403288 9.2973,38.9589041 C9.2973,44.6774794 14.0138,49.3303562 19.8123,49.3303562 C23.8613,49.3303562 27.4928,47.0549589 29.2453,43.543726 L19.8123,43.543726 C17.2493,43.543726 15.1638,41.4872876 15.1638,38.9589041 C15.1638,36.4310137 17.2493,34.3740822 19.8123,34.3740822 L34.9758,34.3740822 C37.5098,34.3740822 39.5498,36.3323836 39.6188,38.8316712 C39.6223,38.8750685 39.6248,38.9164931 39.6248,38.9589041 C39.6248,49.7337534 30.7368,58.5 19.8123,58.5 C8.8878,58.5 -0.0002,49.7337534 -0.0002,38.9589041 Z" id="Fill-1"></path>
                        <path d="M32.346,34.5567946 L34.976,34.5567946 C35.955,34.5567946 36.86,34.8455312 37.6065,35.3416907 L37.6065,4.99514327 C37.6065,3.90739019 36.898,2.93552127 35.843,2.57715679 C35.563,2.48220968 35.2715,2.43351885 34.9765,2.43351885 C34.17,2.43351885 33.4195,2.78652734 32.918,3.40149249 L19.9755,19.2571734 L6.6875,3.37714708 C6.186,2.77776299 5.4425,2.43400576 4.648,2.43400576 C4.3475,2.43400576 4.0505,2.4836704 3.7665,2.58251278 C2.721,2.94477254 2.0185,3.9142069 2.0185,4.99514327 L2.0185,31.0326065 C3.2555,28.5805364 5.035,26.3840932 7.2785,24.596166 L7.2785,12.1877522 L17.9625,24.98711 C18.47,25.5937977 19.232,25.9560574 20.001,25.9560574 C20.79,25.9560574 21.5515,25.5845464 22.0595,24.9622777 L32.346,12.3279818 L32.346,34.5567946 Z M37.6015,39.2561221 C37.7185939,36.4524208 36.409,35.6002495 34.976,35.6002495 L30.3275,35.6002495 L30.3275,17.9707618 L23.64,26.1844174 C22.7525,27.2726574 21.4,27.9217061 20.023,27.9217061 C18.611,27.9217061 17.2975,27.3043064 16.3975,26.2282392 L9.297,17.7219517 L9.297,24.1890673 L8.9075,24.4846206 C4.57,27.7712515 2.0605,32.7114228 2.022,38.0377124 L0.0035,38.0445291 L0,4.99514327 C0,3.08500212 1.2415,1.371085 3.09,0.730313716 C3.5925,0.556487463 4.1165,0.468357066 4.648,0.468357066 C6.0525,0.468357066 7.366,1.07601859 8.252,2.1360179 L19.956,16.1219711 L31.3375,2.17837892 C32.2245,1.09159965 33.551,0.468357066 34.9765,0.468357066 C35.4985,0.468357066 36.0135,0.553566014 36.508,0.721549367 C38.3725,1.35501703 39.625,3.07282941 39.625,4.99514327 L39.625,37.9646762 C39.625,38.0065502 39.6225,39.2137611 39.6195,39.2546615 L37.6015,39.2561221 Z" id="Fill-4"></path>
                        <path d="M35.3283216,4.05472191 C34.975878,3.93289312 34.5788841,4.04982918 34.3496968,4.33458564 L20.1786967,21.9562152 L5.6438681,4.32626801 C5.41270081,4.04591501 5.01570689,3.93387166 4.66573842,4.05716827 C4.31725498,4.17948633 4.08163265,4.50876656 4.08163265,4.87621003 L4.08163265,24.1711507 C4.10093784,24.150112 4.12073804,24.1295626 4.14004323,24.1085238 C4.21231394,24.0302403 4.28557467,23.952446 4.3593304,23.8751409 C4.42516605,23.8046858 4.4910017,23.7347199 4.55881737,23.6657324 C4.6320781,23.5898952 4.70682384,23.5150366 4.78156958,23.4406672 C4.85087025,23.3711905 4.91967593,23.3017139 4.99046163,23.2332158 C5.06570238,23.1598249 5.14292314,23.0879019 5.21915389,23.0154896 C5.29092961,22.9474808 5.36221031,22.8794719 5.43497603,22.8124416 C5.5126918,22.7414972 5.59139758,22.6720205 5.66960835,22.6020546 C5.72702891,22.550681 5.78345948,22.4978395 5.84187005,22.4469553 L5.84187005,7.30593604 L14.44357,17.7651091 L19.5069751,23.9221111 C19.6841869,24.1369016 19.9386194,24.2665587 20.1871118,24.2665587 L20.2088921,24.2665587 C20.4440194,24.2665587 20.6994419,24.1305411 20.8756637,23.9113471 L25.764827,17.8164826 L34.158625,7.35290618 L34.158625,31.9960818 L35.0382487,31.9960818 C35.1723949,31.9960818 35.3040663,32.0014638 35.4357376,32.0092922 C35.4728629,32.0112493 35.5099883,32.0146742 35.5476087,32.0171205 C35.6500747,32.0249489 35.7520457,32.0352236 35.8540167,32.0479447 C35.8748069,32.0508803 35.8970821,32.0518589 35.9183673,32.0547945 L35.9183673,4.87621003 C35.9183673,4.5063202 35.68126,4.1765507 35.3283216,4.05472191" id="Fill-7"></path>
                        <path d="M35.0382487,37.9371239 L28.699711,37.9371239 L20,37.9371239 C19.5148952,37.9371239 19.1203763,38.3259485 19.1203763,38.8045394 C19.1203763,39.2826425 19.5148952,39.6719551 20,39.6719551 L34.6328397,39.6719551 L33.4344328,43.2123572 C31.5014387,48.922274 26.1029153,52.7583195 20,52.7583195 C12.1932778,52.7583195 5.84187005,46.4985841 5.84187005,38.8045394 C5.84187005,33.2673251 9.13117755,28.4726342 13.8856996,26.2196954 L13.8762944,26.2089624 L12.7496633,24.8424658 C11.8749897,25.2869064 11.0399164,25.8133077 10.2518687,26.4172788 L10.2474136,26.4211817 C7.91198051,28.2116289 6.16906829,30.544089 5.14292314,33.1678017 C4.9968967,33.5424784 4.86473039,33.9230093 4.74790924,34.3089068 C4.32270003,35.7124809 4.0959878,37.1853311 4.08509769,38.6918437 C4.08509769,38.7381904 4.08361267,38.7840493 4.08163265,38.8299082 C4.09549279,47.4684503 11.2309883,54.4931507 20,54.4931507 C28.7551515,54.4931507 35.881737,47.4908919 35.9183673,38.8713763 C35.9163873,38.8416168 35.9149023,38.8123452 35.9149023,38.7830736 C35.9010422,38.3069219 35.5164233,37.9371239 35.0382487,37.9371239" id="Fill-9"></path>
                        <path d="M26.8614832,25.8358867 C26.9693806,25.5969093 26.964082,25.3355937 26.8470327,25.0995667 C26.7993458,25.0043129 26.7357634,24.9179101 26.6586938,24.8424658 L25.3061224,26.3349153 C25.3494741,26.3492455 25.3928257,26.3635758 25.4356957,26.3783275 C25.9997488,26.5726283 26.6394264,26.3290147 26.8614832,25.8358867" id="Fill-11"></path>
                    </g>
                </g>
                <g id="-Logo-Mariogogh-Active" transform="translate(1.000000, 1.500000)" fill="#EF5350">
                    <g id="Group">
                        <path d="M24.4023,27.4512329 C24.7123,27.5715616 25.0358,27.6327123 25.3648,27.6327123 C26.4533,27.6327123 27.4143,26.9871781 27.8133,25.9885479 C28.0708,25.3435068 28.0583,24.6387945 27.7783,24.0031233 C27.5723,23.5361096 27.2398,23.148 26.8188,22.8743014 L23.6398,26.8283836 C23.5618,26.9250411 23.4803,27.0187397 23.3953,27.1084932 C23.7353,27.2086027 24.0708,27.3225205 24.4023,27.4512329 Z M12.9978,22.7475616 C11.5433,23.3457534 10.1703,24.1372603 8.9073,25.1063014 C4.5703,28.4355616 2.0603,33.4390685 2.0218,38.8336438 C2.02146667,38.8536986 2.0203,38.8954521 2.0183,38.9589041 C2.0183,48.636 10.0008,56.5091507 19.8123,56.5091507 C29.6183,56.5091507 37.5973,48.6448767 37.6063,38.9746849 C37.5623,37.472548 36.4088,36.3649315 34.9758,36.3649315 L19.8123,36.3649315 C18.3623,36.3649315 17.1823,37.5282739 17.1823,38.9589041 C17.1823,40.3895343 18.3623,41.5533699 19.8123,41.5533699 L32.1488,41.5533699 L31.7053,42.8631781 C29.9943,47.922411 25.2153,51.3212055 19.8123,51.3212055 C12.9013,51.3212055 7.2788,45.7757261 7.2788,38.9589041 C7.2788,33.2625205 11.2058,28.4533151 16.5308,27.0266301 C16.4853,26.9763288 16.4408,26.9250411 16.3973,26.872274 L12.9978,22.7475616 Z M-0.0002,38.9589041 C-0.0002,38.9352329 0.000966666667,38.8887123 0.0033,38.8193425 C0.0468,32.812274 2.8403,27.2416438 7.6683,23.5351233 C9.2858,22.2933699 11.0683,21.3134795 12.9663,20.6220822 L13.6433,20.3750137 L17.9628,25.615726 C18.4698,26.2301918 19.2323,26.5970959 20.0008,26.5970959 C20.7898,26.5970959 21.5513,26.2208219 22.0593,25.5905753 L26.1968,20.4435616 L26.9448,20.726137 C26.9868,20.7409315 27.0293,20.7562192 27.0713,20.7724932 C28.2248,21.2207671 29.1343,22.0862466 29.6288,23.2091507 C30.1238,24.3320548 30.1463,25.5782466 29.6913,26.7179178 C28.9868,28.4829041 27.2883,29.6235616 25.3648,29.6235616 C24.7818,29.6235616 24.2093,29.5155616 23.6628,29.304 C22.4398,28.8286027 21.1443,28.5879452 19.8123,28.5879452 C14.0138,28.5879452 9.2973,33.2403288 9.2973,38.9589041 C9.2973,44.6774794 14.0138,49.3303562 19.8123,49.3303562 C23.8613,49.3303562 27.4928,47.0549589 29.2453,43.543726 L19.8123,43.543726 C17.2493,43.543726 15.1638,41.4872876 15.1638,38.9589041 C15.1638,36.4310137 17.2493,34.3740822 19.8123,34.3740822 L34.9758,34.3740822 C37.5098,34.3740822 39.5498,36.3323836 39.6188,38.8316712 C39.6223,38.8750685 39.6248,38.9164931 39.6248,38.9589041 C39.6248,49.7337534 30.7368,58.5 19.8123,58.5 C8.8878,58.5 -0.0002,49.7337534 -0.0002,38.9589041 Z" id="Fill-1"></path>
                        <path d="M32.346,34.5567946 L34.976,34.5567946 C35.955,34.5567946 36.86,34.8455312 37.6065,35.3416907 L37.6065,4.99514327 C37.6065,3.90739019 36.898,2.93552127 35.843,2.57715679 C35.563,2.48220968 35.2715,2.43351885 34.9765,2.43351885 C34.17,2.43351885 33.4195,2.78652734 32.918,3.40149249 L19.9755,19.2571734 L6.6875,3.37714708 C6.186,2.77776299 5.4425,2.43400576 4.648,2.43400576 C4.3475,2.43400576 4.0505,2.4836704 3.7665,2.58251278 C2.721,2.94477254 2.0185,3.9142069 2.0185,4.99514327 L2.0185,31.0326065 C3.2555,28.5805364 5.035,26.3840932 7.2785,24.596166 L7.2785,12.1877522 L17.9625,24.98711 C18.47,25.5937977 19.232,25.9560574 20.001,25.9560574 C20.79,25.9560574 21.5515,25.5845464 22.0595,24.9622777 L32.346,12.3279818 L32.346,34.5567946 Z M37.6015,39.2561221 C37.7185939,36.4524208 36.409,35.6002495 34.976,35.6002495 L30.3275,35.6002495 L30.3275,17.9707618 L23.64,26.1844174 C22.7525,27.2726574 21.4,27.9217061 20.023,27.9217061 C18.611,27.9217061 17.2975,27.3043064 16.3975,26.2282392 L9.297,17.7219517 L9.297,24.1890673 L8.9075,24.4846206 C4.57,27.7712515 2.0605,32.7114228 2.022,38.0377124 L0.0035,38.0445291 L0,4.99514327 C0,3.08500212 1.2415,1.371085 3.09,0.730313716 C3.5925,0.556487463 4.1165,0.468357066 4.648,0.468357066 C6.0525,0.468357066 7.366,1.07601859 8.252,2.1360179 L19.956,16.1219711 L31.3375,2.17837892 C32.2245,1.09159965 33.551,0.468357066 34.9765,0.468357066 C35.4985,0.468357066 36.0135,0.553566014 36.508,0.721549367 C38.3725,1.35501703 39.625,3.07282941 39.625,4.99514327 L39.625,37.9646762 C39.625,38.0065502 39.6225,39.2137611 39.6195,39.2546615 L37.6015,39.2561221 Z" id="Fill-4"></path>
                        <path d="M35.3283216,4.05472191 C34.975878,3.93289312 34.5788841,4.04982918 34.3496968,4.33458564 L20.1786967,21.9562152 L5.6438681,4.32626801 C5.41270081,4.04591501 5.01570689,3.93387166 4.66573842,4.05716827 C4.31725498,4.17948633 4.08163265,4.50876656 4.08163265,4.87621003 L4.08163265,24.1711507 C4.10093784,24.150112 4.12073804,24.1295626 4.14004323,24.1085238 C4.21231394,24.0302403 4.28557467,23.952446 4.3593304,23.8751409 C4.42516605,23.8046858 4.4910017,23.7347199 4.55881737,23.6657324 C4.6320781,23.5898952 4.70682384,23.5150366 4.78156958,23.4406672 C4.85087025,23.3711905 4.91967593,23.3017139 4.99046163,23.2332158 C5.06570238,23.1598249 5.14292314,23.0879019 5.21915389,23.0154896 C5.29092961,22.9474808 5.36221031,22.8794719 5.43497603,22.8124416 C5.5126918,22.7414972 5.59139758,22.6720205 5.66960835,22.6020546 C5.72702891,22.550681 5.78345948,22.4978395 5.84187005,22.4469553 L5.84187005,7.30593604 L14.44357,17.7651091 L19.5069751,23.9221111 C19.6841869,24.1369016 19.9386194,24.2665587 20.1871118,24.2665587 L20.2088921,24.2665587 C20.4440194,24.2665587 20.6994419,24.1305411 20.8756637,23.9113471 L25.764827,17.8164826 L34.158625,7.35290618 L34.158625,31.9960818 L35.0382487,31.9960818 C35.1723949,31.9960818 35.3040663,32.0014638 35.4357376,32.0092922 C35.4728629,32.0112493 35.5099883,32.0146742 35.5476087,32.0171205 C35.6500747,32.0249489 35.7520457,32.0352236 35.8540167,32.0479447 C35.8748069,32.0508803 35.8970821,32.0518589 35.9183673,32.0547945 L35.9183673,4.87621003 C35.9183673,4.5063202 35.68126,4.1765507 35.3283216,4.05472191" id="Fill-7"></path>
                        <path d="M35.0382487,37.9371239 L28.699711,37.9371239 L20,37.9371239 C19.5148952,37.9371239 19.1203763,38.3259485 19.1203763,38.8045394 C19.1203763,39.2826425 19.5148952,39.6719551 20,39.6719551 L34.6328397,39.6719551 L33.4344328,43.2123572 C31.5014387,48.922274 26.1029153,52.7583195 20,52.7583195 C12.1932778,52.7583195 5.84187005,46.4985841 5.84187005,38.8045394 C5.84187005,33.2673251 9.13117755,28.4726342 13.8856996,26.2196954 L13.8762944,26.2089624 L12.7496633,24.8424658 C11.8749897,25.2869064 11.0399164,25.8133077 10.2518687,26.4172788 L10.2474136,26.4211817 C7.91198051,28.2116289 6.16906829,30.544089 5.14292314,33.1678017 C4.9968967,33.5424784 4.86473039,33.9230093 4.74790924,34.3089068 C4.32270003,35.7124809 4.0959878,37.1853311 4.08509769,38.6918437 C4.08509769,38.7381904 4.08361267,38.7840493 4.08163265,38.8299082 C4.09549279,47.4684503 11.2309883,54.4931507 20,54.4931507 C28.7551515,54.4931507 35.881737,47.4908919 35.9183673,38.8713763 C35.9163873,38.8416168 35.9149023,38.8123452 35.9149023,38.7830736 C35.9010422,38.3069219 35.5164233,37.9371239 35.0382487,37.9371239" id="Fill-9"></path>
                        <path d="M26.8614832,25.8358867 C26.9693806,25.5969093 26.964082,25.3355937 26.8470327,25.0995667 C26.7993458,25.0043129 26.7357634,24.9179101 26.6586938,24.8424658 L25.3061224,26.3349153 C25.3494741,26.3492455 25.3928257,26.3635758 25.4356957,26.3783275 C25.9997488,26.5726283 26.6394264,26.3290147 26.8614832,25.8358867" id="Fill-11"></path>
                    </g>
                </g>
            </g>
        </g>
    </g>
</svg>