<?xml version="1.0" encoding="UTF-8"?>
<svg width="28px" height="28px" viewBox="0 0 28 28" version="1.1" xmlns="http://www.w3.org/2000/svg" xmlns:xlink="http://www.w3.org/1999/xlink">
    <!-- Generator: Sketch 49.3 (51167) - http://www.bohemiancoding.com/sketch -->
    <desc>Created with Sketch.</desc>
    <defs></defs>
    <g id="Mariogogh_Index" stroke="none" stroke-width="1" fill="none" fill-rule="evenodd">
        <g id="Active">
            <g id="Group">
                <circle id="Oval-2" fill="#000000" cx="14" cy="14" r="14"></circle>
                <path d="M20,10.1875 C19.6598968,10.6979192 19.2487334,11.1328107 18.7664975,11.4921875 C18.7715736,11.5651045 18.7741117,11.6744784 18.7741117,11.8203125 C18.7741117,12.4973992 18.6776659,13.1731737 18.4847716,13.8476562 C18.2918772,14.5221388 17.9987329,15.1692677 17.6053299,15.7890625 C17.211927,16.4088573 16.7436575,16.9570289 16.2005076,17.4335938 C15.6573577,17.9101586 15.0025419,18.2903632 14.2360406,18.5742188 C13.4695393,18.8580743 12.6497506,19 11.7766497,19 C10.4010084,19 9.14213769,18.6223996 8,17.8671875 C8.17766586,17.8880209 8.37563343,17.8984375 8.59390863,17.8984375 C9.73604632,17.8984375 10.7538026,17.5390661 11.6472081,16.8203125 C11.1142105,16.8098958 10.6370579,16.6419287 10.215736,16.3164062 C9.79441414,15.9908838 9.50507693,15.5755234 9.34771574,15.0703125 C9.51522926,15.0963543 9.67005005,15.109375 9.81218274,15.109375 C10.0304579,15.109375 10.2461918,15.0807295 10.4593909,15.0234375 C9.8908601,14.9036452 9.42005263,14.6132836 9.04695431,14.1523438 C8.673856,13.6914039 8.48730964,13.156253 8.48730964,12.546875 L8.48730964,12.515625 C8.83248904,12.7135427 9.20304371,12.8203124 9.59898477,12.8359375 C9.26395772,12.6067697 8.99746292,12.3072935 8.79949239,11.9375 C8.60152185,11.5677065 8.50253807,11.1666688 8.50253807,10.734375 C8.50253807,10.2760394 8.61421208,9.85156445 8.83756345,9.4609375 C9.45177972,10.236983 10.1992342,10.8580706 11.0799492,11.3242188 C11.9606643,11.7903669 12.9035483,12.0494789 13.9086294,12.1015625 C13.8680201,11.9036448 13.8477157,11.7109384 13.8477157,11.5234375 C13.8477157,10.8255173 14.0875611,10.2304712 14.5672589,9.73828125 C15.0469567,9.24609129 15.6269002,9 16.3071066,9 C17.0177701,9 17.6167488,9.26562234 18.1040609,9.796875 C18.6573632,9.68749945 19.1776625,9.48437648 19.6649746,9.1875 C19.4771564,9.78646133 19.1167539,10.2499984 18.5837563,10.578125 C19.0558399,10.5260414 19.5279164,10.3958344 20,10.1875 Z" id="twitter---FontAwesome" fill="#FFFFFF"></path>
            </g>
        </g>
    </g>
</svg>