<svg height="32" viewBox="0 0 321 32" width="321" xmlns="http://www.w3.org/2000/svg"><path d="m0 .57277989h4.78439668v9.06339935h.10107881c.60647585-1.01079309 1.38140559-1.7464148 2.32481247-2.20688721.94340688-.4604724 1.86433788-.69070515 2.76282062-.69070515 1.28033792 0 2.33042382.17407842 3.15028932.52224048s1.4656403.83108929 1.9373438 1.44879618c.4717034.61770689.803014 1.37017486.9939415 2.25742656.1909276.8872518.28639 1.8699525.28639 2.9481318v10.7143531h-4.7843967v-9.8383368c0-1.4375724-.2246173-2.5101201-.6738587-3.2176752-.4492414-.7075552-1.24663284-1.0613275-2.39219833-1.0613275-1.30279998 0-2.24619271.3874649-2.83020649 1.1624063-.58401379.7749413-.8760163 2.0496446-.8760163 3.824148v9.1307852h-4.78439668zm29.8098205 13.47717371c-.2246207-1.2129517-.6233164-2.1338827-1.1960992-2.7628206-.5727827-.6289379-1.4431748-.9434021-2.6112024-.9434021-.7637103 0-1.3982542.1291549-1.9036508.3874687-.5053965.2583138-.9097077.5783935-1.2129456.9602486-.303238.3818552-.5166244.7861664-.6401658 1.2129457s-.196542.8086287-.2190041 1.1455597zm-7.7830679 3.0323641c.0673862 1.5498828.4604666 2.6729693 1.1792527 3.3692935.7187862.6963241 1.7520259 1.0444809 3.09975 1.0444809.965869 0 1.796953-.2414636 2.4932772-.724398.6963241-.4829345 1.123097-.9939389 1.2803315-1.5330286h4.2116168c-.6738621 2.0889724-1.7071018 3.5826776-3.09975 4.4811603-1.3926483.8984828-3.0772781 1.3477174-5.0539402 1.3477174-1.3701861 0-2.6055814-.2190019-3.7062227-.6570122-1.1006414-.4380104-2.0328033-1.0613234-2.7965136-1.8699579s-1.3533308-1.7744889-1.7688791-2.8975924c-.4155482-1.1231034-.6233192-2.3584986-.6233192-3.7062227 0-1.3028.2133864-2.5157335.6401657-3.6388369.4267793-1.1231035 1.0332461-2.0945734 1.8194185-2.91443887.7861724-.81986551 1.7239497-1.46564029 2.81336-1.93734373s2.2967284-.70755162 3.6219904-.70755162c1.4824966 0 2.7740461.28638708 3.8746875.85916982 1.1006414.57278275 2.0047261 1.34209706 2.7122812 2.30796601.7075552.96586899 1.2185596 2.06649379 1.5330285 3.30190759.314469 1.2354138.4267776 2.5269633.3369294 3.8746874zm13.637212-16.50953781h4.7843967v24.05675511h-4.7843967zm6.7975463 0h4.7843967v24.05675511h-4.7843967zm10.9080843 15.36397811c0 .6963241.0673852 1.3757915.2021576 2.0384225s.3650052 1.2578669.6907052 1.7857255.7580883.9490161 1.297178 1.2634851c.5390896.3144689 1.2129416.471701 2.021576.471701.8086345 0 1.4881019-.1572321 2.0384225-.471701.5503207-.314469.9883245-.7356265 1.3140245-1.2634851s.5559327-1.1230945.6907051-1.7857255c.1347725-.662631.2021577-1.3420984.2021577-2.0384225 0-.6963242-.0673852-1.381407-.2021577-2.055269-.1347724-.6738621-.3650051-1.269098-.6907051-1.7857256-.3257-.5166275-.7637038-.937785-1.3140245-1.263485-.5503206-.3257-1.229788-.4885475-2.0384225-.4885475-.8086344 0-1.4824864.1628475-2.021576.4885475-.5390897.3257-.971478.7468575-1.297178 1.263485-.3257.5166276-.5559328 1.1118635-.6907052 1.7857256-.1347724.673862-.2021576 1.3589448-.2021576 2.055269zm-4.7843967 0c0-1.3926483.2133865-2.6561207.6401658-3.7904552.4267793-1.1343344 1.033246-2.1001889 1.8194184-2.89759231.7861724-.79740343 1.7295652-1.41510105 2.8302065-1.85311139 1.1006414-.43801034 2.3360366-.65701222 3.7062228-.65701222s2.6111969.21900188 3.7230693.65701222 2.0608805 1.05570796 2.8470529 1.85311139c.7861724.79740341 1.3926392 1.76325791 1.8194185 2.89759231.4267793 1.1343345.6401657 2.3978069.6401657 3.7904552 0 1.3926482-.2133864 2.6505052-.6401657 3.7736086s-1.0332461 2.0833425-1.8194185 2.8807459-1.7351805 1.4094856-2.8470529 1.8362649-2.3528831.6401658-3.7230693.6401658-2.6055814-.2133865-3.7062228-.6401658c-1.1006413-.4267793-2.0440341-1.0388615-2.8302065-1.8362649s-1.3926391-1.7576425-1.8194184-2.8807459-.6401658-2.3809604-.6401658-3.7736086zm36.245171-.9770951c-.0673862.2246207-.129156.4660843-.1853111.7243981-.0561552.2583137-.0842324.4997774-.0842324.724398 0 .2246207.0449235.40993.1347718.5559335.0898482.1460034.2358495.219004.4380081.219004.4717034 0 .9490152-.1516166 1.4319497-.4548546.4829345-.3032379.9097074-.7300108 1.2803315-1.2803315.3706242-.5503207.6738575-1.2073263.9097093-1.9710366.2358517-.7637104.3537758-1.5947944.3537758-2.4932772 0-1.3477241-.2358482-2.53258045-.7075517-3.55460457-.4717034-1.02202412-1.1174782-1.88680079-1.9373437-2.59435595s-1.78572-1.24102128-2.8975923-1.60041438c-1.1118724-.3593931-2.3079596-.53908695-3.5882976-.53908695-1.4375723 0-2.7459682.25269448-3.9252268.75809102-1.1792586.50539655-2.1844211 1.20171023-3.0155176 2.08896194-.8310966.88725171-1.4712559 1.94295309-1.9204973 3.16713583s-.6738587 2.54380946-.6738587 3.95891976c0 1.4824966.2470791 2.824585.7412446 4.0263057s1.1792483 2.2349603 2.055269 3.09975c.8760206.8647896 1.9261066 1.5330261 3.1502893 2.0047296 1.2241828.4717034 2.5550404.7075516 3.9926128.7075516 1.4151103 0 2.7571987-.2414636 4.0263056-.7243981s2.3416546-1.1624019 3.2176752-2.0384225h2.8302065c-1.1455655 1.7520413-2.6168089 3.0941298-4.4137744 4.0263056-1.7969655.9321759-3.7511361 1.3982568-5.8625706 1.3982568-1.7969654 0-3.4815953-.3144643-5.0539401-.9434022s-2.9481259-1.5049454-4.1273845-2.6280489c-1.1792586-1.1231034-2.105805-2.453961-2.7796671-3.9926127-.673862-1.5386517-1.010788-3.2064353-1.010788-5.0034007 0-1.7745035.336926-3.43105616 1.010788-4.96970786.6738621-1.5386517 1.5947931-2.8695093 2.7628207-3.99261273 1.1680275-1.12310342 2.5269623-2.01034182 4.076845-2.66174181 1.5498828-.65139999 3.20082-.9770951 4.9528614-.9770951 1.5274206 0 2.9986641.24707905 4.4137744.74124456s2.6617364 1.18486375 3.7399157 2.07211546 1.942956 1.96541483 2.5943559 3.2345217c.6514 1.26910688.9770951 2.67858054.9770951 4.22846328 0 1.7295793-.3088488 3.2120536-.9265557 4.4474673-.6177068 1.2354138-1.358944 2.2461917-2.2237336 3.0323641-.8647897.7861724-1.7407972 1.364562-2.6280489 1.7351861-.8872517.3706242-1.6004117.5559335-2.1395013.5559335-.7187862 0-1.2971758-.1796939-1.7351862-.539087-.4380103-.3593931-.6794739-.8198586-.724398-1.3814103h-.0673859c-.4043173.6738621-.9321679 1.1680202-1.5835679 1.4824891-.6514.314469-1.3364828.4717011-2.055269.4717011s-1.3982536-.1516167-2.0384226-.4548546c-.6401689-.3032379-1.2017122-.71878-1.6846467-1.2466386s-.8647839-1.1399408-1.1455598-1.8362649c-.2807758-.6963241-.4211616-1.4375613-.4211616-2.2237337 0-1.0557172.1740784-2.1001877.5222405-3.1334429.348162-1.0332551.8423201-1.95418613 1.4824891-2.7628206.6401689-.80863447 1.4150987-1.46002469 2.3248124-1.9541902.9097138-.49416551 1.9148763-.74124455 3.0155177-.74124455.7187862 0 1.4600233.17407842 2.2237336.52224048.7637104.34816206 1.3364845.96024425 1.7183397 1.83626492l.5390869-1.81941845h2.7628207zm-9.0297064-1.0781739c0 .8984827.2414636 1.6228736.7243981 2.1731942.4829344.5503207 1.1174784.8254769 1.9036508.8254769.6064758 0 1.1624037-.1572321 1.6678002-.4717011.5053966-.3144689.9434003-.7131646 1.3140245-1.1960991.3706241-.4829345.6570112-1.0276315.8591698-1.6341073.2021586-.6064759.3032364-1.2017118.3032364-1.7857256 0-.8310965-.2526945-1.5161793-.758091-2.05526896-.5053966-.53908965-1.1174788-.80863043-1.836265-.80863043-.6064758 0-1.1680191.15161669-1.6846467.45485462-.5166276.30323792-.9602468.69631827-1.3308709 1.17925267-.3706241.4829345-.6570112 1.0164006-.8591698 1.6004144s-.3032364 1.156788-.3032364 1.7183397zm17.208663-6.67120104h4.5148532v2.35850541h.0673859c.6289379-.89848275 1.3870213-1.59479643 2.2742731-2.08896194.8872517-.4941655 1.9036447-.74124455 3.0492107-.74124455 1.100641 0 2.105804.21338645 3.015517.64016575.909714.4267793 1.600412 1.17924731 2.072116 2.25742661.516627-.76371034 1.218557-1.43756229 2.105808-2.02157607.887252-.58401378 1.937338-.87601629 3.15029-.87601629.920944 0 1.77449.11230866 2.560663.33692934.786172.22462069 1.460024.58400839 2.021576 1.0781739.561551.49416551.999555 1.1399403 1.314024 1.93734368.314469.7974035.471701 1.7576425.471701 2.8807459v11.6577553h-4.784396v-9.8720297c0-.5840138-.022462-1.1343262-.067386-1.6509538s-.168464-.9658622-.370623-1.3477174c-.202158-.3818552-.499776-.6850885-.892862-.9097092-.393087-.2246207-.926553-.3369294-1.600415-.3369294s-1.218559.129155-1.634107.3874688-.741243.5952397-.977095 1.010788-.393084.8872446-.471701 1.4151033c-.078617.5278586-.117925 1.0613247-.117925 1.6004143v9.7035651h-4.784397v-9.7709509c0-.5166276-.011231-1.027632-.033693-1.5330285-.022462-.5053966-.117925-.9714775-.28639-1.3982568-.168466-.4267793-.449237-.7693207-.842323-1.0276345-.393087-.2583138-.971476-.3874688-1.735187-.3874688-.22462 0-.522238.0505389-.892862.1516182-.3706244.1010793-.7300121.2920041-1.0781742.5727799-.348162.2807759-.64578.685087-.8928627 1.2129457-.2470828.5278586-.3706223 1.2185568-.3706223 2.0721154v10.1078803h-4.7843967zm28.2936389 5.35717654c.067386-1.1231034.348157-2.0552653.842323-2.79651353.494165-.74124826 1.123094-1.33648415 1.886804-1.78572552.763711-.44924137 1.622872-.76932105 2.57751-.96024863s1.914877-.28638994 2.880746-.28638994c.87602 0 1.763259.06176976 2.661741.18531114.898483.12354137 1.718336.36500499 2.459585.72439809.741248.35939309 1.347715.85916662 1.819418 1.49933558.471704.64016895.707552 1.48809931.707552 2.54381651v9.0633994c0 .7861724.044923 1.5386404.134771 2.2574266.089849.7187862.247081 1.2578677.471702 1.6172608h-4.851783c-.089848-.2695448-.162849-.544701-.219004-.8254769-.056155-.2807758-.095463-.5671629-.117925-.8591698-.763711.7861724-1.66218 1.3364848-2.695435 1.6509538s-2.088957.4717011-3.167136.4717011c-.831096 0-1.606026-.1010778-2.324812-.3032364-.718787-.2021586-1.347715-.5166229-1.886805-.9434022-.539089-.4267793-.960247-.9658608-1.263485-1.6172608s-.454854-1.4263298-.454854-2.3248125c0-.988331.174078-1.8025688.52224-2.4427378.348162-.6401689.797397-1.1511733 1.347717-1.5330285.550321-.3818551 1.17925-.6682422 1.886805-.8591698s1.420715-.3425443 2.139501-.4548546c.718786-.1123104 1.426331-.2021573 2.122655-.2695435s1.314022-.168464 1.853111-.3032364c.53909-.1347724.965863-.3313126 1.280332-.5896263.314469-.2583138.46047-.6345478.438008-1.1287133 0-.5166276-.084231-.9265542-.252697-1.2297922-.168465-.3032379-.393083-.5390861-.673859-.7075516s-.606471-.2807741-.977095-.3369293c-.370624-.05615519-.76932-.08423236-1.196099-.08423236-.943407 0-1.684644.20215556-2.223734.60647286-.539089.4043172-.853553 1.0781691-.943402 2.021576zm11.051282 3.5377581c-.202159.1796966-.454853.3200824-.758091.4211617s-.628933.1853108-.977095.252697-.713165.1235406-1.09502.1684647c-.381856.0449241-.763705.1010785-1.14556.1684647-.359393.0673862-.713166.1572331-1.061328.2695434-.348162.1123104-.651395.2639271-.909709.4548547-.258314.1909275-.466085.4323912-.623319.724398-.157235.2920069-.235851.6626255-.235851 1.1118669 0 .4267793.078616.786167.235851 1.0781739.157234.2920069.370621.5222396.640166.6907051.269544.1684656.584009.2863896.943402.3537759.359393.0673862.730011.1010788 1.111867.1010788.943406 0 1.673413-.1572322 2.19004-.4717011.516628-.314469.898477-.690703 1.14556-1.1287133.247083-.4380104.3987-.8816296.454855-1.3308709.056155-.4492414.084232-.8086291.084232-1.0781739zm6.595389-8.89493464h4.548546v3.23452174h.067386c.22462-.53908968.527854-1.03886321.909709-1.49933562s.819859-.85355271 1.314024-1.1792527c.494166-.3257 1.022017-.57839448 1.583568-.75809103.561552-.17969655 1.145557-.26954347 1.752033-.26954347.314469 0 .662626.05615433 1.044481.16846467v4.44746735c-.224621-.0449241-.494162-.0842322-.808631-.1179253s-.617702-.0505394-.909709-.0505394c-.87602 0-1.617258.1460013-2.223733.4380082-.606476.2920069-1.095019.6907026-1.465643 1.1960991-.370624.5053966-.63455 1.095017-.791784 1.7688791-.157235.673862-.235851 1.4038683-.235851 2.1900407v7.8504537h-4.784396zm16.538085-2.69543475h-4.784396v-3.94207332h4.784396zm-4.784396 2.69543475h4.784396v17.41924704h-4.784396zm10.500487 8.72647004c0 .6963241.067386 1.3757915.202158 2.0384225s.365005 1.2578669.690705 1.7857255.758089.9490161 1.297178 1.2634851c.53909.3144689 1.212942.471701 2.021576.471701.808635 0 1.488102-.1572321 2.038423-.471701.55032-.314469.988324-.7356265 1.314024-1.2634851s.555933-1.1230945.690705-1.7857255c.134773-.662631.202158-1.3420984.202158-2.0384225 0-.6963242-.067385-1.381407-.202158-2.055269-.134772-.6738621-.365005-1.269098-.690705-1.7857256-.3257-.5166275-.763704-.937785-1.314024-1.263485-.550321-.3257-1.229788-.4885475-2.038423-.4885475-.808634 0-1.482486.1628475-2.021576.4885475-.539089.3257-.971478.7468575-1.297178 1.263485-.3257.5166276-.555933 1.1118635-.690705 1.7857256-.134772.673862-.202158 1.3589448-.202158 2.055269zm-4.784396 0c0-1.3926483.213386-2.6561207.640166-3.7904552.426779-1.1343344 1.033246-2.1001889 1.819418-2.89759231.786172-.79740343 1.729565-1.41510105 2.830206-1.85311139 1.100642-.43801034 2.336037-.65701222 3.706223-.65701222s2.611197.21900188 3.72307.65701222c1.111872.43801034 2.06088 1.05570796 2.847052 1.85311139.786173.79740341 1.39264 1.76325791 1.819419 2.89759231.426779 1.1343345.640166 2.3978069.640166 3.7904552 0 1.3926482-.213387 2.6505052-.640166 3.7736086s-1.033246 2.0833425-1.819419 2.8807459c-.786172.7974034-1.73518 1.4094856-2.847052 1.8362649-1.111873.4267793-2.352884.6401658-3.72307.6401658s-2.605581-.2133865-3.706223-.6401658c-1.100641-.4267793-2.044034-1.0388615-2.830206-1.8362649s-1.392639-1.7576425-1.819418-2.8807459c-.42678-1.1231034-.640166-2.3809604-.640166-3.7736086zm27.350236 4.582239c.673862 0 1.269098-.1347703 1.785726-.4043152.516627-.2695448.9434-.6289325 1.280331-1.0781739.336931-.4492413.589626-.9602457.758091-1.5330285.168466-.5727827.252697-1.1736341.252697-1.802572 0-.7187862-.067385-1.3982536-.202157-2.0384225-.134773-.640169-.35939-1.2073277-.673859-1.7014932s-.730011-.8872458-1.246639-1.1792527c-.516627-.2920069-1.168018-.4380081-1.95419-.4380081-.673862 0-1.252252.1347703-1.735186.4043152-.482935.2695448-.887246.6345479-1.212946 1.0950203s-.561548.9883231-.707551 1.583568c-.146004.5952448-.219004 1.2185578-.219004 1.8699578 0 .6289379.061769 1.252251.185311 1.8699579.123541.6177069.336928 1.1736347.640165 1.6678002.303238.4941655.701934.8984767 1.1961 1.2129457.494165.3144689 1.111863.471701 1.853111.471701zm8.625391 2.9986712c0 .6963241-.095462 1.4937156-.28639 2.3921983-.190927.8984828-.600854 1.7351823-1.229792 2.5101237-.628938.7749413-1.538638 1.431947-2.729127 1.9710366-1.19049.5390897-2.785273.8086304-4.784397.8086304-.853559 0-1.723951-.1066932-2.611203-.3200828-.887251-.2133897-1.695874-.5447002-2.425891-.9939416s-1.336484-1.027631-1.819418-1.7351861c-.482935-.7075552-.758091-1.5554855-.825477-2.5438166h4.750704c.22462.8984828.662624 1.5217958 1.314024 1.8699579s1.403868.5222405 2.257427.5222405c1.347724 0 2.330424-.4043112 2.948131-1.2129457.617707-.8086344.915325-1.8306432.892863-3.066057v-2.2911195h-.067386c-.516627.9209448-1.252249 1.6004122-2.206887 2.0384225s-1.9598.6570122-3.015518.6570122c-1.3028 0-2.425886-.2302327-3.369293-.6907051s-1.718337-1.0894009-2.324812-1.8868044c-.606476-.7974034-1.050096-1.7295653-1.330871-2.7965135-.280776-1.0669483-.421162-2.1956503-.421162-3.3861399 0-1.1231034.162847-2.206882.488547-3.2513682s.803012-1.9654172 1.43195-2.76282061c.628938-.79740343 1.409483-1.43194735 2.341659-1.90365079s2.004724-.70755162 3.217675-.70755162c1.145566 0 2.150728.21338645 3.015518.64016575s1.58918 1.14555472 2.173194 2.1563478h.067386v-2.32481247h4.548546zm6.191074-7.5809102c0 .6963241.067385 1.3757915.202157 2.0384225.134773.662631.365006 1.2578669.690705 1.7857255.3257.5278586.758089.9490161 1.297178 1.2634851.53909.3144689 1.212942.471701 2.021577.471701.808634 0 1.488101-.1572321 2.038422-.471701.550321-.314469.988325-.7356265 1.314025-1.2634851.325699-.5278586.555932-1.1230945.690705-1.7857255.134772-.662631.202157-1.3420984.202157-2.0384225 0-.6963242-.067385-1.381407-.202157-2.055269-.134773-.6738621-.365006-1.269098-.690705-1.7857256-.3257-.5166275-.763704-.937785-1.314025-1.263485s-1.229788-.4885475-2.038422-.4885475c-.808635 0-1.482487.1628475-2.021577.4885475-.539089.3257-.971478.7468575-1.297178 1.263485-.325699.5166276-.555932 1.1118635-.690705 1.7857256-.134772.673862-.202157 1.3589448-.202157 2.055269zm-4.784397 0c0-1.3926483.213387-2.6561207.640166-3.7904552.426779-1.1343344 1.033246-2.1001889 1.819418-2.89759231.786173-.79740343 1.729565-1.41510105 2.830207-1.85311139 1.100641-.43801034 2.336036-.65701222 3.706223-.65701222 1.370186 0 2.611196.21900188 3.723069.65701222 1.111872.43801034 2.06088 1.05570796 2.847053 1.85311139.786172.79740341 1.392639 1.76325791 1.819418 2.89759231.426779 1.1343345.640166 2.3978069.640166 3.7904552 0 1.3926482-.213387 2.6505052-.640166 3.7736086s-1.033246 2.0833425-1.819418 2.8807459c-.786173.7974034-1.735181 1.4094856-2.847053 1.8362649-1.111873.4267793-2.352883.6401658-3.723069.6401658-1.370187 0-2.605582-.2133865-3.706223-.6401658-1.100642-.4267793-2.044034-1.0388615-2.830207-1.8362649-.786172-.7974034-1.392639-1.7576425-1.819418-2.8807459s-.640166-2.3809604-.640166-3.7736086zm27.350236 4.582239c.673862 0 1.269098-.1347703 1.785726-.4043152.516627-.2695448.9434-.6289325 1.280331-1.0781739.336931-.4492413.589626-.9602457.758091-1.5330285.168466-.5727827.252697-1.1736341.252697-1.802572 0-.7187862-.067385-1.3982536-.202157-2.0384225-.134773-.640169-.35939-1.2073277-.673859-1.7014932s-.730011-.8872458-1.246638-1.1792527c-.516628-.2920069-1.168018-.4380081-1.954191-.4380081-.673862 0-1.252251.1347703-1.735186.4043152-.482934.2695448-.887245.6345479-1.212945 1.0950203s-.561549.9883231-.707552 1.583568c-.146003.5952448-.219004 1.2185578-.219004 1.8699578 0 .6289379.06177 1.252251.185311 1.8699579s.336928 1.1736347.640166 1.6678002.701933.8984767 1.196099 1.2129457c.494165.3144689 1.111863.471701 1.853111.471701zm8.625392 2.9986712c0 .6963241-.095463 1.4937156-.28639 2.3921983-.190928.8984828-.600855 1.7351823-1.229793 2.5101237-.628937.7749413-1.538638 1.431947-2.729127 1.9710366-1.19049.5390897-2.785273.8086304-4.784397.8086304-.853558 0-1.723951-.1066932-2.611202-.3200828-.887252-.2133897-1.695874-.5447002-2.425892-.9939416-.730017-.4492414-1.336484-1.027631-1.819418-1.7351861-.482935-.7075552-.758091-1.5554855-.825477-2.5438166h4.750704c.224621.8984828.662624 1.5217958 1.314024 1.8699579s1.403868.5222405 2.257427.5222405c1.347724 0 2.330425-.4043112 2.948132-1.2129457.617707-.8086344.915324-1.8306432.892862-3.066057v-2.2911195h-.067385c-.516628.9209448-1.25225 1.6004122-2.206888 2.0384225s-1.9598.6570122-3.015517.6570122c-1.3028 0-2.425887-.2302327-3.369294-.6907051s-1.718336-1.0894009-2.324812-1.8868044c-.606476-.7974034-1.050095-1.7295653-1.330871-2.7965135-.280776-1.0669483-.421162-2.1956503-.421162-3.3861399 0-1.1231034.162848-2.206882.488548-3.2513682s.803012-1.9654172 1.431949-2.76282061c.628938-.79740343 1.409484-1.43194735 2.341659-1.90365079.932176-.47170344 2.004724-.70755162 3.217676-.70755162 1.145565 0 2.150728.21338645 3.015517.64016575.86479.4267793 1.589181 1.14555472 2.173195 2.1563478h.067385v-2.32481247h4.548547zm1.945763-22.94488831h4.784397v9.06339935h.101079c.606476-1.01079309 1.381405-1.7464148 2.324812-2.20688721.943407-.4604724 1.864338-.69070515 2.762821-.69070515 1.280338 0 2.330424.17407842 3.150289.52224048.819866.34816206 1.465641.83108929 1.937344 1.44879618s.803014 1.37017486.993942 2.25742656c.190927.8872518.286389 1.8699525.286389 2.9481318v10.7143531h-4.784396v-9.8383368c0-1.4375724-.224618-2.5101201-.673859-3.2176752-.449241-.7075552-1.246633-1.0613275-2.392198-1.0613275-1.3028 0-2.246193.3874649-2.830207 1.1624063-.584014.7749413-.876016 2.0496446-.876016 3.824148v9.1307852h-4.784397zm18.286837 18.86804321h5.289791v5.1887119h-5.289791zm19.12916-6.0984211c-.314468-1.9991241-1.493709-2.9986711-3.537758-2.9986711-.76371 0-1.403869.1740784-1.920497.5222404-.516627.3481621-.937785.7973967-1.263485 1.3477174s-.555933 1.1567875-.690705 1.8194185-.202158 1.3196366-.202158 1.9710366c0 .628938.067386 1.2690973.202158 1.9204973s.353774 1.2410204.657012 1.7688791c.303238.5278586.713165.9602469 1.229792 1.2971779.516628.3369311 1.145556.505394 1.886805.505394 1.145565 0 2.027188-.3200796 2.644895-.9602486.617707-.6401689 1.005172-1.4993302 1.162406-2.5775095h4.615932c-.314469 2.3135931-1.212938 4.076839-2.695435 5.2897907-1.482496 1.2129517-3.380512 1.8194185-5.694105 1.8194185-1.3028 0-2.498888-.2190019-3.588298-.6570122-1.08941-.4380104-2.015957-1.0500926-2.779667-1.836265s-1.358946-1.7239497-1.785726-2.81336c-.426779-1.0894103-.640165-2.2854975-.640165-3.5882975 0-1.3477241.19654-2.5999656.589626-3.7567622.393086-1.1567965.971476-2.1563436 1.735186-2.99867114.76371-.84232757 1.695872-1.49933322 2.796514-1.97103666 1.100641-.47170344 2.358498-.70755162 3.773608-.70755162 1.033255 0 2.027187.13477039 2.981825.40431521s1.808184.67947143 2.560663 1.22979211 1.364562 1.23540349 1.836265 2.055269c.471703.8198655.741244 1.7913354.80863 2.9144388zm9.829911 2.594356c0 .6963241.067385 1.3757915.202157 2.0384225.134773.662631.365006 1.2578669.690706 1.7857255s.758088.9490161 1.297178 1.2634851c.539089.3144689 1.212941.471701 2.021576.471701.808634 0 1.488102-.1572321 2.038422-.471701.550321-.314469.988325-.7356265 1.314025-1.2634851s.555932-1.1230945.690705-1.7857255c.134772-.662631.202157-1.3420984.202157-2.0384225 0-.6963242-.067385-1.381407-.202157-2.055269-.134773-.6738621-.365005-1.269098-.690705-1.7857256-.3257-.5166275-.763704-.937785-1.314025-1.263485-.55032-.3257-1.229788-.4885475-2.038422-.4885475-.808635 0-1.482487.1628475-2.021576.4885475-.53909.3257-.971478.7468575-1.297178 1.263485-.3257.5166276-.555933 1.1118635-.690706 1.7857256-.134772.673862-.202157 1.3589448-.202157 2.055269zm-4.784397 0c0-1.3926483.213387-2.6561207.640166-3.7904552.426779-1.1343344 1.033246-2.1001889 1.819418-2.89759231.786173-.79740343 1.729566-1.41510105 2.830207-1.85311139s2.336037-.65701222 3.706223-.65701222 2.611197.21900188 3.723069.65701222 2.06088 1.05570796 2.847053 1.85311139c.786172.79740341 1.392639 1.76325791 1.819418 2.89759231.42678 1.1343345.640166 2.3978069.640166 3.7904552 0 1.3926482-.213386 2.6505052-.640166 3.7736086-.426779 1.1231034-1.033246 2.0833425-1.819418 2.8807459-.786173.7974034-1.735181 1.4094856-2.847053 1.8362649s-2.352883.6401658-3.723069.6401658-2.605582-.2133865-3.706223-.6401658-2.044034-1.0388615-2.830207-1.8362649c-.786172-.7974034-1.392639-1.7576425-1.819418-2.8807459s-.640166-2.3809604-.640166-3.7736086zm19.365011-8.72647004h4.514853v2.35850541h.067386c.628938-.89848275 1.387021-1.59479643 2.274273-2.08896194.887252-.4941655 1.903645-.74124455 3.049211-.74124455 1.100641 0 2.105804.21338645 3.015517.64016575.909714.4267793 1.600412 1.17924731 2.072116 2.25742661.516627-.76371034 1.218557-1.43756229 2.105808-2.02157607.887252-.58401378 1.937338-.87601629 3.15029-.87601629.920944 0 1.77449.11230866 2.560663.33692934.786172.22462069 1.460024.58400839 2.021576 1.0781739.561551.49416551.999555 1.1399403 1.314024 1.93734368.314469.7974035.471701 1.7576425.471701 2.8807459v11.6577553h-4.784396v-9.8720297c0-.5840138-.022462-1.1343262-.067386-1.6509538s-.168464-.9658622-.370623-1.3477174c-.202158-.3818552-.499776-.6850885-.892862-.9097092-.393087-.2246207-.926553-.3369294-1.600415-.3369294s-1.218559.129155-1.634107.3874688-.741243.5952397-.977095 1.010788-.393084.8872446-.471701 1.4151033c-.078618.5278586-.117926 1.0613247-.117926 1.6004143v9.7035651h-4.784396v-9.7709509c0-.5166276-.011231-1.027632-.033693-1.5330285-.022462-.5053966-.117925-.9714775-.28639-1.3982568-.168466-.4267793-.449237-.7693207-.842323-1.0276345-.393087-.2583138-.971476-.3874688-1.735187-.3874688-.22462 0-.522238.0505389-.892862.1516182s-.730012.2920041-1.078174.5727799c-.348162.2807759-.64578.685087-.892863 1.2129457-.247083.5278586-.370622 1.2185568-.370622 2.0721154v10.1078803h-4.784397z" fill="#e53935" fill-rule="evenodd"/></svg>