<?xml version="1.0" encoding="UTF-8"?>
<svg width="33px" height="49px" viewBox="0 0 33 49" version="1.1" xmlns="http://www.w3.org/2000/svg" xmlns:xlink="http://www.w3.org/1999/xlink">
    <!-- Generator: Sketch 49.3 (51167) - http://www.bohemiancoding.com/sketch -->
    <desc>Created with Sketch.</desc>
    <defs></defs>
    <g id="Mariogogh_Index" stroke="none" stroke-width="1" fill="none" fill-rule="evenodd">
        <g id="Logo-MG-white1@3x" fill-rule="nonzero">
            <g id="-Logo-Mariogogh-Hover" transform="translate(2.000000, 3.000000)" fill="#EF5350">
                <g id="Group">
                    <path d="M18.301725,20.1778293 C18.534225,20.2662761 18.77685,20.3112244 19.0236,20.3112244 C19.839975,20.3112244 20.560725,19.8367292 20.859975,19.1026934 C21.0531,18.6285606 21.043725,18.1105669 20.833725,17.6433214 C20.679225,17.3000464 20.42985,17.0147692 20.1141,16.813589 L17.72985,19.7200084 C17.67135,19.7910558 17.610225,19.8599283 17.546475,19.9259009 C17.801475,19.9994858 18.0531,20.0832202 18.301725,20.1778293 Z M9.74835,16.7204299 C8.657475,17.1601264 7.627725,17.7419178 6.680475,18.4542044 C3.427725,20.901353 1.545225,24.5791444 1.51635,28.5443878 C1.5161,28.5591289 1.515225,28.5898195 1.513725,28.6364594 C1.513725,35.7495384 7.5006,41.5366407 14.859225,41.5366407 C22.213725,41.5366407 28.197975,35.7560632 28.204725,28.648059 C28.171725,27.5439241 27.3066,26.7297787 26.23185,26.7297787 L14.859225,26.7297787 C13.771725,26.7297787 12.886725,27.5848851 12.886725,28.6364594 C12.886725,29.6880337 13.771725,30.5435026 14.859225,30.5435026 L24.1116,30.5435026 L23.778975,31.5062676 C22.495725,35.22502 18.911475,37.7232793 14.859225,37.7232793 C9.675975,37.7232793 5.4591,33.6471149 5.4591,28.6364594 C5.4591,24.4493741 8.40435,20.9144026 12.3981,19.8657281 C12.363975,19.8287545 12.3306,19.7910558 12.297975,19.7522698 L9.74835,16.7204299 Z M-0.00015,28.6364594 C-0.00015,28.6190601 0.000725,28.5848655 0.002475,28.5338757 C0.0351,24.1184236 2.130225,20.0237724 5.751225,17.2993214 C6.96435,16.3865796 8.301225,15.6663182 9.724725,15.1581117 L10.232475,14.9765058 L13.4721,18.8286533 C13.85235,19.2803119 14.424225,19.5500021 15.0006,19.5500021 C15.59235,19.5500021 16.163475,19.2734247 16.544475,18.8101665 L19.6476,15.0268915 L20.2086,15.2345964 C20.2401,15.245471 20.271975,15.2567081 20.303475,15.2686702 C21.1686,15.5981707 21.850725,16.2343351 22.2216,17.0597176 C22.59285,17.8851001 22.609725,18.8011043 22.268475,19.6388114 C21.7401,20.9361517 20.466225,21.7745837 19.0236,21.7745837 C18.58635,21.7745837 18.156975,21.6951991 17.7471,21.5396923 C16.82985,21.190255 15.858225,21.0133615 14.859225,21.0133615 C10.51035,21.0133615 6.972975,24.4330622 6.972975,28.6364594 C6.972975,32.8398567 10.51035,36.2599199 14.859225,36.2599199 C17.895975,36.2599199 20.6196,34.5874057 21.933975,32.0064995 L14.859225,32.0064995 C12.936975,32.0064995 11.37285,30.4949294 11.37285,28.6364594 C11.37285,26.778352 12.936975,25.2664194 14.859225,25.2664194 L26.23185,25.2664194 C28.13235,25.2664194 29.66235,26.7058546 29.7141,28.5429378 C29.716725,28.5748367 29.7186,28.6052855 29.7186,28.6364594 C29.7186,36.5564342 23.0526,43 14.859225,43 C6.66585,43 -0.00015,36.5564342 -0.00015,28.6364594 Z" id="Fill-1"></path>
                    <path d="M24.2595,25.4007208 L26.232,25.4007208 C26.96625,25.4007208 27.645,25.6129546 28.204875,25.977653 L28.204875,3.67164377 C28.204875,2.87209877 27.6735,2.15773359 26.88225,1.89432037 C26.67225,1.82453019 26.453625,1.78874035 26.232375,1.78874035 C25.6275,1.78874035 25.064625,2.04821668 24.6885,2.50024235 L14.981625,14.1548454 L5.015625,2.48234742 C4.6395,2.04177451 4.081875,1.78909825 3.486,1.78909825 C3.260625,1.78909825 3.037875,1.82560388 2.824875,1.89825725 C2.04075,2.16453366 1.513875,2.87710935 1.513875,3.67164377 L1.513875,22.8102919 C2.441625,21.0079157 3.77625,19.393436 5.458875,18.0792331 L5.458875,8.95851874 L13.471875,18.3665937 C13.8525,18.812535 14.424,19.0788114 15.00075,19.0788114 C15.5925,19.0788114 16.163625,18.805735 16.544625,18.3483409 L24.2595,9.06159345 L24.2595,25.4007208 Z M28.201125,28.8549274 C28.2889454,26.7940871 27.30675,26.1677048 26.232,26.1677048 L22.745625,26.1677048 L22.745625,13.2092779 L17.73,19.2466658 C17.064375,20.0465687 16.05,20.5236472 15.01725,20.5236472 C13.95825,20.5236472 12.973125,20.0698321 12.298125,19.2788766 L6.97275,13.0263918 L6.97275,17.7799982 L6.680625,17.9972425 C3.4275,20.4130567 1.545375,24.0442937 1.5165,27.9593441 L0.002625,27.9643547 L0,3.67164377 C0,2.26760839 0.931125,1.00780607 2.3175,0.536811791 C2.694375,0.409042067 3.087375,0.344262459 3.486,0.344262459 C4.539375,0.344262459 5.5245,0.790919646 6.189,1.57006444 L14.967,11.8503377 L23.503125,1.6012016 C24.168375,0.802372395 25.16325,0.344262459 26.232375,0.344262459 C26.623875,0.344262459 27.010125,0.406894677 27.381,0.53036962 C28.779375,0.995995423 29.71875,2.25866094 29.71875,3.67164377 L29.71875,27.9056594 C29.71875,27.9364386 29.716875,28.8237902 29.714625,28.8538537 L28.201125,28.8549274 Z" id="Fill-4"></path>
                    <path d="M26.4962412,2.98039388 C26.2319085,2.89084451 25.9341631,2.97679752 25.7622726,3.18610568 L15.1340226,16.1387565 L4.23290107,3.17999187 C4.05952561,2.97392043 3.76178017,2.89156379 3.49930382,2.98219206 C3.23794123,3.07210107 3.06122449,3.3141361 3.06122449,3.58422275 L3.06122449,17.7668287 C3.07570338,17.7513644 3.09055353,17.7362597 3.10503242,17.7207953 C3.15923546,17.6632535 3.214181,17.6060714 3.2694978,17.5492489 C3.31887454,17.4974613 3.36825127,17.4460334 3.41911303,17.3953247 C3.47405857,17.3395811 3.53011788,17.2845568 3.58617718,17.2298921 C3.63815269,17.1788238 3.68975695,17.1277555 3.74284622,17.0774065 C3.79927679,17.023461 3.85719236,16.9705946 3.91436542,16.9173684 C3.96819721,16.867379 4.02165773,16.8173896 4.07623202,16.7681195 C4.13451885,16.7159723 4.19354818,16.6649039 4.25220626,16.613476 C4.29527169,16.5757142 4.33759461,16.5368735 4.38140254,16.4994714 L4.38140254,5.37017521 L10.8326775,13.0581144 L14.6302313,17.5837739 C14.7631401,17.7416542 14.9539646,17.8369577 15.1403339,17.8369577 L15.1566691,17.8369577 C15.3330146,17.8369577 15.5245814,17.7369789 15.6567478,17.575862 L19.3236203,13.0958761 L25.6189687,5.40470027 L25.6189687,23.5184875 L26.2786865,23.5184875 C26.3792962,23.5184875 26.4780497,23.5224435 26.5768032,23.5281977 C26.6046472,23.5296362 26.6324912,23.5321537 26.6607065,23.5339518 C26.737556,23.5397061 26.8140343,23.5472584 26.8905126,23.5566089 C26.9061052,23.5587667 26.9228116,23.559486 26.9387755,23.5616438 L26.9387755,3.58422275 C26.9387755,3.31233792 26.760945,3.06994325 26.4962412,2.98039388" id="Fill-7"></path>
                    <path d="M26.2786865,27.8854073 L21.5247833,27.8854073 L15,27.8854073 C14.6361714,27.8854073 14.3402822,28.17121 14.3402822,28.5229948 C14.3402822,28.874421 14.6361714,29.1605824 15,29.1605824 L25.9746298,29.1605824 L25.0758246,31.7629292 C23.626079,35.9599621 19.5771865,38.7796194 15,38.7796194 C9.14495835,38.7796194 4.38140254,34.1784464 4.38140254,28.5229948 C4.38140254,24.4529057 6.84838316,20.9286029 10.4142747,19.2725966 L10.4072208,19.2647074 L9.56224751,18.260274 C8.90624229,18.5869569 8.27993731,18.9738843 7.68890149,19.4178288 L7.68556022,19.4206977 C5.93398539,20.7367529 4.62680121,22.4512107 3.85719236,24.3797516 C3.74767253,24.655155 3.64854779,24.9348616 3.56093193,25.2185127 C3.24202502,26.2501996 3.07199085,27.3328075 3.06382327,28.4401586 C3.06382327,28.4742254 3.0627095,28.5079337 3.06122449,28.5416419 C3.07161959,34.8913396 8.42324124,40.0547945 15,40.0547945 C21.5663636,40.0547945 26.9113027,34.9078351 26.9387755,28.5721228 C26.9372905,28.5502483 26.9361767,28.5287323 26.9361767,28.5072165 C26.9257817,28.1572247 26.6373175,27.8854073 26.2786865,27.8854073" id="Fill-9"></path>
                    <path d="M20.1461124,18.9904808 C20.2270354,18.8148222 20.2230615,18.6227441 20.1352745,18.4492541 C20.0995093,18.3792385 20.0518226,18.3157288 19.9940203,18.260274 L18.9795918,19.3572882 C19.0121056,19.3678215 19.0446193,19.3783548 19.0767718,19.389198 C19.4998116,19.5320174 19.9795698,19.352951 20.1461124,18.9904808" id="Fill-11"></path>
                </g>
            </g>
            <g id="-Logo-Mariogogh-Active" transform="translate(2.000000, 3.000000)" fill="#000000">
                <g id="Group">
                    <path d="M18.301725,20.1778293 C18.534225,20.2662761 18.77685,20.3112244 19.0236,20.3112244 C19.839975,20.3112244 20.560725,19.8367292 20.859975,19.1026934 C21.0531,18.6285606 21.043725,18.1105669 20.833725,17.6433214 C20.679225,17.3000464 20.42985,17.0147692 20.1141,16.813589 L17.72985,19.7200084 C17.67135,19.7910558 17.610225,19.8599283 17.546475,19.9259009 C17.801475,19.9994858 18.0531,20.0832202 18.301725,20.1778293 Z M9.74835,16.7204299 C8.657475,17.1601264 7.627725,17.7419178 6.680475,18.4542044 C3.427725,20.901353 1.545225,24.5791444 1.51635,28.5443878 C1.5161,28.5591289 1.515225,28.5898195 1.513725,28.6364594 C1.513725,35.7495384 7.5006,41.5366407 14.859225,41.5366407 C22.213725,41.5366407 28.197975,35.7560632 28.204725,28.648059 C28.171725,27.5439241 27.3066,26.7297787 26.23185,26.7297787 L14.859225,26.7297787 C13.771725,26.7297787 12.886725,27.5848851 12.886725,28.6364594 C12.886725,29.6880337 13.771725,30.5435026 14.859225,30.5435026 L24.1116,30.5435026 L23.778975,31.5062676 C22.495725,35.22502 18.911475,37.7232793 14.859225,37.7232793 C9.675975,37.7232793 5.4591,33.6471149 5.4591,28.6364594 C5.4591,24.4493741 8.40435,20.9144026 12.3981,19.8657281 C12.363975,19.8287545 12.3306,19.7910558 12.297975,19.7522698 L9.74835,16.7204299 Z M-0.00015,28.6364594 C-0.00015,28.6190601 0.000725,28.5848655 0.002475,28.5338757 C0.0351,24.1184236 2.130225,20.0237724 5.751225,17.2993214 C6.96435,16.3865796 8.301225,15.6663182 9.724725,15.1581117 L10.232475,14.9765058 L13.4721,18.8286533 C13.85235,19.2803119 14.424225,19.5500021 15.0006,19.5500021 C15.59235,19.5500021 16.163475,19.2734247 16.544475,18.8101665 L19.6476,15.0268915 L20.2086,15.2345964 C20.2401,15.245471 20.271975,15.2567081 20.303475,15.2686702 C21.1686,15.5981707 21.850725,16.2343351 22.2216,17.0597176 C22.59285,17.8851001 22.609725,18.8011043 22.268475,19.6388114 C21.7401,20.9361517 20.466225,21.7745837 19.0236,21.7745837 C18.58635,21.7745837 18.156975,21.6951991 17.7471,21.5396923 C16.82985,21.190255 15.858225,21.0133615 14.859225,21.0133615 C10.51035,21.0133615 6.972975,24.4330622 6.972975,28.6364594 C6.972975,32.8398567 10.51035,36.2599199 14.859225,36.2599199 C17.895975,36.2599199 20.6196,34.5874057 21.933975,32.0064995 L14.859225,32.0064995 C12.936975,32.0064995 11.37285,30.4949294 11.37285,28.6364594 C11.37285,26.778352 12.936975,25.2664194 14.859225,25.2664194 L26.23185,25.2664194 C28.13235,25.2664194 29.66235,26.7058546 29.7141,28.5429378 C29.716725,28.5748367 29.7186,28.6052855 29.7186,28.6364594 C29.7186,36.5564342 23.0526,43 14.859225,43 C6.66585,43 -0.00015,36.5564342 -0.00015,28.6364594 Z" id="Fill-1"></path>
                    <path d="M24.2595,25.4007208 L26.232,25.4007208 C26.96625,25.4007208 27.645,25.6129546 28.204875,25.977653 L28.204875,3.67164377 C28.204875,2.87209877 27.6735,2.15773359 26.88225,1.89432037 C26.67225,1.82453019 26.453625,1.78874035 26.232375,1.78874035 C25.6275,1.78874035 25.064625,2.04821668 24.6885,2.50024235 L14.981625,14.1548454 L5.015625,2.48234742 C4.6395,2.04177451 4.081875,1.78909825 3.486,1.78909825 C3.260625,1.78909825 3.037875,1.82560388 2.824875,1.89825725 C2.04075,2.16453366 1.513875,2.87710935 1.513875,3.67164377 L1.513875,22.8102919 C2.441625,21.0079157 3.77625,19.393436 5.458875,18.0792331 L5.458875,8.95851874 L13.471875,18.3665937 C13.8525,18.812535 14.424,19.0788114 15.00075,19.0788114 C15.5925,19.0788114 16.163625,18.805735 16.544625,18.3483409 L24.2595,9.06159345 L24.2595,25.4007208 Z M28.201125,28.8549274 C28.2889454,26.7940871 27.30675,26.1677048 26.232,26.1677048 L22.745625,26.1677048 L22.745625,13.2092779 L17.73,19.2466658 C17.064375,20.0465687 16.05,20.5236472 15.01725,20.5236472 C13.95825,20.5236472 12.973125,20.0698321 12.298125,19.2788766 L6.97275,13.0263918 L6.97275,17.7799982 L6.680625,17.9972425 C3.4275,20.4130567 1.545375,24.0442937 1.5165,27.9593441 L0.002625,27.9643547 L0,3.67164377 C0,2.26760839 0.931125,1.00780607 2.3175,0.536811791 C2.694375,0.409042067 3.087375,0.344262459 3.486,0.344262459 C4.539375,0.344262459 5.5245,0.790919646 6.189,1.57006444 L14.967,11.8503377 L23.503125,1.6012016 C24.168375,0.802372395 25.16325,0.344262459 26.232375,0.344262459 C26.623875,0.344262459 27.010125,0.406894677 27.381,0.53036962 C28.779375,0.995995423 29.71875,2.25866094 29.71875,3.67164377 L29.71875,27.9056594 C29.71875,27.9364386 29.716875,28.8237902 29.714625,28.8538537 L28.201125,28.8549274 Z" id="Fill-4"></path>
                    <path d="M26.4962412,2.98039388 C26.2319085,2.89084451 25.9341631,2.97679752 25.7622726,3.18610568 L15.1340226,16.1387565 L4.23290107,3.17999187 C4.05952561,2.97392043 3.76178017,2.89156379 3.49930382,2.98219206 C3.23794123,3.07210107 3.06122449,3.3141361 3.06122449,3.58422275 L3.06122449,17.7668287 C3.07570338,17.7513644 3.09055353,17.7362597 3.10503242,17.7207953 C3.15923546,17.6632535 3.214181,17.6060714 3.2694978,17.5492489 C3.31887454,17.4974613 3.36825127,17.4460334 3.41911303,17.3953247 C3.47405857,17.3395811 3.53011788,17.2845568 3.58617718,17.2298921 C3.63815269,17.1788238 3.68975695,17.1277555 3.74284622,17.0774065 C3.79927679,17.023461 3.85719236,16.9705946 3.91436542,16.9173684 C3.96819721,16.867379 4.02165773,16.8173896 4.07623202,16.7681195 C4.13451885,16.7159723 4.19354818,16.6649039 4.25220626,16.613476 C4.29527169,16.5757142 4.33759461,16.5368735 4.38140254,16.4994714 L4.38140254,5.37017521 L10.8326775,13.0581144 L14.6302313,17.5837739 C14.7631401,17.7416542 14.9539646,17.8369577 15.1403339,17.8369577 L15.1566691,17.8369577 C15.3330146,17.8369577 15.5245814,17.7369789 15.6567478,17.575862 L19.3236203,13.0958761 L25.6189687,5.40470027 L25.6189687,23.5184875 L26.2786865,23.5184875 C26.3792962,23.5184875 26.4780497,23.5224435 26.5768032,23.5281977 C26.6046472,23.5296362 26.6324912,23.5321537 26.6607065,23.5339518 C26.737556,23.5397061 26.8140343,23.5472584 26.8905126,23.5566089 C26.9061052,23.5587667 26.9228116,23.559486 26.9387755,23.5616438 L26.9387755,3.58422275 C26.9387755,3.31233792 26.760945,3.06994325 26.4962412,2.98039388" id="Fill-7"></path>
                    <path d="M26.2786865,27.8854073 L21.5247833,27.8854073 L15,27.8854073 C14.6361714,27.8854073 14.3402822,28.17121 14.3402822,28.5229948 C14.3402822,28.874421 14.6361714,29.1605824 15,29.1605824 L25.9746298,29.1605824 L25.0758246,31.7629292 C23.626079,35.9599621 19.5771865,38.7796194 15,38.7796194 C9.14495835,38.7796194 4.38140254,34.1784464 4.38140254,28.5229948 C4.38140254,24.4529057 6.84838316,20.9286029 10.4142747,19.2725966 L10.4072208,19.2647074 L9.56224751,18.260274 C8.90624229,18.5869569 8.27993731,18.9738843 7.68890149,19.4178288 L7.68556022,19.4206977 C5.93398539,20.7367529 4.62680121,22.4512107 3.85719236,24.3797516 C3.74767253,24.655155 3.64854779,24.9348616 3.56093193,25.2185127 C3.24202502,26.2501996 3.07199085,27.3328075 3.06382327,28.4401586 C3.06382327,28.4742254 3.0627095,28.5079337 3.06122449,28.5416419 C3.07161959,34.8913396 8.42324124,40.0547945 15,40.0547945 C21.5663636,40.0547945 26.9113027,34.9078351 26.9387755,28.5721228 C26.9372905,28.5502483 26.9361767,28.5287323 26.9361767,28.5072165 C26.9257817,28.1572247 26.6373175,27.8854073 26.2786865,27.8854073" id="Fill-9"></path>
                    <path d="M20.1461124,18.9904808 C20.2270354,18.8148222 20.2230615,18.6227441 20.1352745,18.4492541 C20.0995093,18.3792385 20.0518226,18.3157288 19.9940203,18.260274 L18.9795918,19.3572882 C19.0121056,19.3678215 19.0446193,19.3783548 19.0767718,19.389198 C19.4998116,19.5320174 19.9795698,19.352951 20.1461124,18.9904808" id="Fill-11"></path>
                </g>
            </g>
        </g>
    </g>
</svg>