<?xml version="1.0" encoding="UTF-8"?>
<svg width="27px" height="27px" viewBox="0 0 27 27" version="1.1" xmlns="http://www.w3.org/2000/svg" xmlns:xlink="http://www.w3.org/1999/xlink">
    <!-- Generator: Sketch 49.3 (51167) - http://www.bohemiancoding.com/sketch -->
    <desc>Created with Sketch.</desc>
    <defs></defs>
    <g id="Mariogogh_Index" stroke="none" stroke-width="1" fill="none" fill-rule="evenodd">
        <g id="Active">
            <g id="Group">
                <circle id="Oval-2" fill="#000000" cx="13.16" cy="13.16" r="13.16"></circle>
                <path d="M18.8,9.57624998 C18.4803029,10.056044 18.0938093,10.464842 17.6405076,10.8026562 C17.6452792,10.8711982 17.6476649,10.9740097 17.6476649,11.1110937 C17.6476649,11.7475552 17.5570059,12.3827833 17.3756852,13.0167968 C17.1943645,13.6508104 16.9188089,14.2591116 16.5490101,14.8417187 C16.1792113,15.4243258 15.739038,15.9396071 15.2284771,16.3875781 C14.7179162,16.8355491 14.1023894,17.1929413 13.3818781,17.4597656 C12.6613669,17.7265898 11.8907655,17.86 11.0700507,17.86 C9.77694782,17.86 8.59360941,17.5050556 7.51999998,16.7951562 C7.68700589,16.8147396 7.8730954,16.8245312 8.07827409,16.8245312 C9.15188352,16.8245312 10.1085745,16.4867221 10.9483756,15.8110937 C10.4473579,15.801302 9.99883444,15.6434129 9.60279185,15.3374218 C9.20674927,15.0314307 8.93477229,14.6409919 8.78685277,14.1660937 C8.94431549,14.190573 9.08984702,14.2028125 9.22345175,14.2028125 C9.42863044,14.2028125 9.63142029,14.1758856 9.83182739,14.1220312 C9.29740847,14.0094265 8.85484945,13.7364865 8.50413703,13.3032031 C8.15342462,12.8699197 7.97807105,12.3668778 7.97807105,11.7940625 L7.97807105,11.7646875 C8.30253967,11.9507301 8.65086106,12.0510936 9.02304566,12.0657812 C8.70812023,11.8503635 8.45761512,11.5688559 8.27152282,11.22125 C8.08543052,10.8736441 7.99238577,10.4966687 7.99238577,10.0903125 C7.99238577,9.65947699 8.09735934,9.26047056 8.30730962,8.89328123 C8.88467292,9.62276404 9.5872801,10.2065863 10.4151523,10.6447656 C11.2430244,11.0829449 12.1293353,11.3265101 13.0741116,11.3754687 C13.0359389,11.1894261 13.0168528,11.0082821 13.0168528,10.8320312 C13.0168528,10.1759863 13.2423074,9.61664291 13.6932233,9.15398435 C14.1441393,8.69132579 14.6892861,8.45999998 15.3286802,8.45999998 C15.9967038,8.45999998 16.5597439,8.70968498 17.0178172,9.20906248 C17.5379213,9.10624946 18.0270027,8.91531387 18.4850761,8.63624998 C18.308527,9.19927363 17.9697487,9.63499843 17.4687309,9.94343747 C17.9124895,9.8944789 18.3562414,9.77208429 18.8,9.57624998 Z" id="twitter---FontAwesome" fill="#FFFFFF"></path>
            </g>
        </g>
    </g>
</svg>