<?xml version="1.0" encoding="UTF-8"?>
<svg width="1116.00001px" height="109px" viewBox="0 0 1116.00001 109" version="1.1" xmlns="http://www.w3.org/2000/svg" xmlns:xlink="http://www.w3.org/1999/xlink">
    <!-- Generator: Sketch 49.3 (51167) - http://www.bohemiancoding.com/sketch -->
    <desc>Created with Sketch.</desc>
    <defs></defs>
    <g id="Mariogogh_Index" stroke="none" stroke-width="1" fill="none" fill-rule="evenodd">
        <path d="M0,1.99652761 L16.6768776,1.99652761 L16.6768776,33.5886409 L17.029206,33.5886409 C19.143187,30.0653393 21.8443444,27.5011971 25.1327593,25.8961375 C28.4211741,24.2910778 31.6312452,23.4885601 34.7630689,23.4885601 C39.2259176,23.4885601 42.8861816,24.0953418 45.7439707,25.3089235 C48.6017598,26.5225051 50.8527243,28.2058351 52.4969317,30.3589639 C54.1411392,32.5120927 55.2959818,35.1349556 55.9614944,38.2276315 C56.6270069,41.3203074 56.9597582,44.7456881 56.9597582,48.5038765 L56.9597582,85.850687 L40.2828805,85.850687 L40.2828805,51.5573893 C40.2828805,46.5464715 39.4999363,42.8079131 37.9340245,40.3416019 C36.3681127,37.8752908 33.5886609,36.6421537 29.5955857,36.6421537 C25.0544414,36.6421537 21.7660758,37.9927324 19.7303905,40.6939303 C17.6947051,43.3951282 16.6768776,47.8383364 16.6768776,54.0236882 L16.6768776,85.850687 L0,85.850687 L0,1.99652761 Z M103.907506,48.9736477 C103.12455,44.7456858 101.734825,41.5356147 99.738287,39.3433381 C97.7417494,37.1510615 94.7078407,36.0549397 90.63647,36.0549397 C87.9744198,36.0549397 85.7626026,36.5051326 84.0009517,37.4055319 C82.2393009,38.3059312 80.8300014,39.4216267 79.7730109,40.7526517 C78.7160204,42.0836768 77.9722235,43.4929763 77.5415977,44.9805925 C77.110972,46.4682088 76.8565151,47.7992139 76.7782195,48.9736477 L103.907506,48.9736477 Z M76.7782195,59.5434998 C77.0131063,64.9458956 78.3832586,68.8606165 80.8887175,71.2877798 C83.3941765,73.7149431 86.9957197,74.9285066 91.6934552,74.9285066 C95.0601656,74.9285066 97.957059,74.0868416 100.384222,72.4034864 C102.811386,70.7201312 104.29898,68.9389332 104.847049,67.059839 L119.527399,67.059839 C117.178531,74.341329 113.576988,79.5479078 108.722661,82.6797314 C103.868335,85.8115551 97.9962532,87.3774434 91.1062412,87.3774434 C86.3302101,87.3774434 82.0240171,86.6140729 78.1875331,85.0873088 C74.3510491,83.5605448 71.1018308,81.3878747 68.4397807,78.5692334 C65.7777306,75.7505921 63.7225021,72.3839322 62.2740337,68.4691526 C60.8255652,64.554373 60.1013419,60.2481801 60.1013419,55.5504446 C60.1013419,51.0093002 60.8451388,46.7814017 62.3327551,42.8666221 C63.8203713,38.9518425 65.9343206,35.565609 68.6746663,32.7078199 C71.415012,29.8500308 74.6838039,27.5990663 78.4811401,25.9548589 C82.2784763,24.3106514 86.4868012,23.4885601 91.1062412,23.4885601 C96.2737502,23.4885601 100.775679,24.4868139 104.612163,26.4833515 C108.448647,28.4798891 111.599997,31.1614729 114.066309,34.5281833 C116.53262,37.8948937 118.313818,41.7313202 119.409956,46.0375777 C120.506094,50.3438353 120.897566,54.8457643 120.584384,59.5434998 L76.7782195,59.5434998 Z M124.313182,1.99652761 L140.990059,1.99652761 L140.990059,85.850687 L124.313182,85.850687 L124.313182,1.99652761 Z M148.007256,1.99652761 L164.684133,1.99652761 L164.684133,85.850687 L148.007256,85.850687 L148.007256,1.99652761 Z M186.029351,55.5504446 C186.029351,57.9776079 186.264234,60.346014 186.734008,62.655734 C187.203781,64.9654539 188.006299,67.040256 189.141585,68.8802024 C190.276871,70.7201488 191.784039,72.1881691 193.663133,73.2843074 C195.542227,74.3804457 197.89106,74.9285066 200.709701,74.9285066 C203.528342,74.9285066 205.896748,74.3804457 207.81499,73.2843074 C209.733232,72.1881691 211.259974,70.7201488 212.39526,68.8802024 C213.530546,67.040256 214.333063,64.9654539 214.802837,62.655734 C215.272611,60.346014 215.507494,57.9776079 215.507494,55.5504446 C215.507494,53.1232812 215.272611,50.7353015 214.802837,48.3864337 C214.333063,46.037566 213.530546,43.9627639 212.39526,42.1619653 C211.259974,40.3611667 209.733232,38.8931464 207.81499,37.7578603 C205.896748,36.6225742 203.528342,36.0549397 200.709701,36.0549397 C197.89106,36.0549397 195.542227,36.6225742 193.663133,37.7578603 C191.784039,38.8931464 190.276871,40.3611667 189.141585,42.1619653 C188.006299,43.9627639 187.203781,46.037566 186.734008,48.3864337 C186.264234,50.7353015 186.029351,53.1232812 186.029351,55.5504446 Z M169.352473,55.5504446 C169.352473,50.6961179 170.09627,46.2920569 171.583886,42.3381295 C173.071503,38.3842021 175.185452,35.0175422 177.925798,32.2380487 C180.666143,29.4585552 183.954509,27.3054587 187.790993,25.7786947 C191.627477,24.2519306 195.93367,23.4885601 200.709701,23.4885601 C205.485732,23.4885601 209.811499,24.2519306 213.68713,25.7786947 C217.562762,27.3054587 220.870701,29.4585552 223.611047,32.2380487 C226.351393,35.0175422 228.465342,38.3842021 229.952958,42.3381295 C231.440574,46.2920569 232.184371,50.6961179 232.184371,55.5504446 C232.184371,60.4047712 231.440574,64.7892586 229.952958,68.7040382 C228.465342,72.6188178 226.351393,75.9659041 223.611047,78.7453976 C220.870701,81.5248911 217.562762,83.658414 213.68713,85.1460302 C209.811499,86.6336465 205.485732,87.3774434 200.709701,87.3774434 C195.93367,87.3774434 191.627477,86.6336465 187.790993,85.1460302 C183.954509,83.658414 180.666143,81.5248911 177.925798,78.7453976 C175.185452,75.9659041 173.071503,72.6188178 171.583886,68.7040382 C170.09627,64.7892586 169.352473,60.4047712 169.352473,55.5504446 Z M295.691555,52.1446033 C295.456668,52.9275593 295.241358,53.7692243 295.045619,54.6696236 C294.84988,55.5700229 294.752012,56.4116878 294.752012,57.1946438 C294.752012,57.9775997 294.908601,58.6235286 295.221783,59.13245 C295.534966,59.6413713 296.043879,59.8958282 296.74854,59.8958282 C298.392747,59.8958282 300.056504,59.3673409 301.739859,58.3103504 C303.423214,57.2533599 304.910808,55.765766 306.202685,53.847524 C307.494562,51.929282 308.551537,49.6391703 309.373641,46.9771201 C310.195744,44.31507 310.60679,41.4181766 310.60679,38.2863529 C310.60679,33.5886174 309.784699,29.4585869 308.140491,25.8961375 C306.496284,22.3336881 304.245319,19.319353 301.38753,16.8530418 C298.529741,14.3867307 295.163081,12.5272383 291.28745,11.2745088 C287.411818,10.0217794 283.24264,9.39542403 278.779791,9.39542403 C273.768873,9.39542403 269.208224,10.2762362 265.097705,12.037887 C260.987186,13.7995378 257.483511,16.2266648 254.586574,19.3193407 C251.689638,22.4120165 249.458247,26.0918541 247.892335,30.3589639 C246.326423,34.6260736 245.543479,39.2258706 245.543479,44.1584929 C245.543479,49.326002 246.404717,54.0040934 248.12722,58.1929076 C249.849723,62.3817217 252.237703,65.9832649 255.291231,68.9976452 C258.344759,72.0120255 262.005023,74.3412844 266.272133,75.9854918 C270.539243,77.6296992 275.178187,78.4517906 280.189105,78.4517906 C285.121727,78.4517906 289.799819,77.6101256 294.22352,75.9267704 C298.64722,74.2434152 302.385779,71.8750091 305.439307,68.821481 L315.304502,68.821481 C311.311427,74.9285371 306.183143,79.6066286 299.919495,82.8558956 C293.655848,86.1051627 286.844234,87.7297719 279.484448,87.7297719 C273.220801,87.7297719 267.348719,86.63365 261.868028,84.4413734 C256.387337,82.2490969 251.591804,79.1956146 247.481285,75.280835 C243.370766,71.3660554 240.141122,66.7271112 237.792254,61.3638632 C235.443386,56.0006151 234.26897,50.1872547 234.26897,43.9236073 C234.26897,37.7382556 235.443386,31.9640423 237.792254,26.6007943 C240.141122,21.2375462 243.351193,16.598602 247.422564,12.6838224 C251.493934,8.76904285 256.230747,5.67641337 261.633142,3.40584121 C267.035538,1.13526905 272.790178,0 278.897234,0 C284.221334,0 289.349619,0.86123859 294.282241,2.58374161 C299.214863,4.30624462 303.560203,6.71379796 307.318392,9.80647383 C311.07658,12.8991497 314.090915,16.6572817 316.361487,21.0809827 C318.63206,25.5046836 319.767329,30.4176583 319.767329,35.8200541 C319.767329,41.8488147 318.69078,47.0162462 316.537652,51.3225037 C314.384523,55.6287613 311.800807,59.1520101 308.786427,61.8923558 C305.772047,64.6327015 302.718564,66.6487827 299.625888,67.94066 C296.533212,69.2325373 294.047365,69.8784662 292.168271,69.8784662 C289.662812,69.8784662 287.64673,69.2521109 286.119966,67.9993814 C284.593202,66.7466519 283.751537,65.1416164 283.594946,63.1842266 L283.360061,63.1842266 C281.95074,65.5330943 280.110821,67.2555715 277.840249,68.3517098 C275.569677,69.4478481 273.181697,69.995909 270.676238,69.995909 C268.170779,69.995909 265.802373,69.4674217 263.570949,68.4104312 C261.339524,67.3534407 259.382164,65.904994 257.698809,64.0650476 C256.015453,62.2251012 254.684448,60.0915783 253.705753,57.664415 C252.727059,55.2372516 252.237718,52.6535359 252.237718,49.9131901 C252.237718,46.2332973 252.8445,42.5926069 254.058082,38.9910097 C255.271663,35.3894125 256.994141,32.1793414 259.225565,29.3607001 C261.456989,26.5420588 264.158147,24.2715207 267.329118,22.5490177 C270.50009,20.8265146 274.003765,19.9652761 277.840249,19.9652761 C280.345708,19.9652761 282.929424,20.5720578 285.591474,21.7856395 C288.253524,22.9992211 290.250031,25.132744 291.581057,28.1862721 L293.460141,21.8443609 L303.090451,21.8443609 L295.691555,52.1446033 Z M264.216884,48.3864337 C264.216884,51.5182574 265.058549,54.0432524 266.741904,55.9614944 C268.425259,57.8797364 270.637077,58.838843 273.377422,58.838843 C275.491403,58.838843 277.42919,58.290782 279.190841,57.1946438 C280.952492,56.0985055 282.479233,54.7087796 283.77111,53.0254244 C285.062988,51.3420691 286.061241,49.4434295 286.765902,47.3294485 C287.470562,45.2154676 287.822887,43.1406655 287.822887,41.1049801 C287.822887,38.2080432 286.942075,35.8200635 285.180424,33.9409693 C283.418773,32.0618751 281.28525,31.1223421 278.779791,31.1223421 C276.66581,31.1223421 274.70845,31.6508294 272.907651,32.7078199 C271.106853,33.7648104 269.560538,35.1349627 268.268661,36.8183179 C266.976783,38.5016731 265.97853,40.3611655 265.273869,42.3968509 C264.569209,44.4325363 264.216884,46.4290439 264.216884,48.3864337 Z M324.200783,25.1327593 L339.938118,25.1327593 L339.938118,33.3537553 L340.173004,33.3537553 C342.365281,30.2219316 345.007717,27.7948047 348.100393,26.0723017 C351.193069,24.3497987 354.735891,23.4885601 358.728966,23.4885601 C362.56545,23.4885601 366.069126,24.232357 369.240097,25.7199733 C372.411069,27.2075895 374.818622,29.8304525 376.462829,33.5886409 C378.263628,30.9265908 380.710328,28.5777583 383.803004,26.5420729 C386.89568,24.5063875 390.555944,23.4885601 394.783906,23.4885601 C397.994025,23.4885601 400.969213,23.8800322 403.709559,24.6629881 C406.449905,25.445944 408.798737,26.6986547 410.756127,28.4211577 C412.713517,30.1436607 414.240258,32.3946252 415.336396,35.1741187 C416.432534,37.9536122 416.980595,41.3006985 416.980595,45.2154781 L416.980595,85.850687 L400.303718,85.850687 L400.303718,51.4399465 C400.303718,49.4042612 400.225423,47.4860479 400.068832,45.6852493 C399.912241,43.8844507 399.481622,42.3185624 398.776961,40.9875373 C398.072301,39.6565123 397.0349,38.5995376 395.664727,37.8165817 C394.294554,37.0336258 392.435062,36.6421537 390.086194,36.6421537 C387.737326,36.6421537 385.838687,37.0923466 384.390218,37.9927459 C382.94175,38.8931452 381.806481,40.0675615 380.984377,41.5160299 C380.162273,42.9644984 379.614212,44.6086811 379.340178,46.4486275 C379.066143,48.2885739 378.929128,50.1480663 378.929128,52.0271605 L378.929128,85.850687 L362.25225,85.850687 L362.25225,51.7922749 C362.25225,49.9914763 362.213103,48.2102783 362.134808,46.4486275 C362.056512,44.6869767 361.723761,43.0623676 361.136544,41.5747513 C360.549327,40.0871351 359.570647,38.8931452 358.200474,37.9927459 C356.830301,37.0923466 354.81422,36.6421537 352.15217,36.6421537 C351.369214,36.6421537 350.331813,36.8183161 349.039935,37.1706463 C347.748058,37.5229765 346.495347,38.188479 345.281766,39.1671739 C344.068184,40.1458688 343.030783,41.5551683 342.169532,43.3951147 C341.30828,45.2350611 340.877661,47.6426145 340.877661,50.6178469 L340.877661,85.850687 L324.200783,85.850687 L324.200783,25.1327593 Z M422.823364,43.8061645 C423.05825,39.8913849 424.03693,36.6421666 425.759434,34.0584121 C427.481937,31.4746576 429.67418,29.3998555 432.33623,27.8339437 C434.99828,26.2680318 437.993042,25.1523364 441.320605,24.4868239 C444.648167,23.8213113 447.995254,23.4885601 451.361964,23.4885601 C454.415492,23.4885601 457.508122,23.7038697 460.639945,24.1344955 C463.771769,24.5651212 466.629515,25.4067862 469.21327,26.6595157 C471.797024,27.9122451 473.910973,29.6542959 475.555181,31.8857203 C477.199388,34.1171447 478.02148,37.0727589 478.02148,40.7526517 L478.02148,72.344765 C478.02148,75.0851107 478.178068,77.7079737 478.491251,80.2134326 C478.804433,82.7188916 479.352494,84.5979576 480.13545,85.850687 L463.223687,85.850687 C462.910504,84.9111399 462.656048,83.9520333 462.460309,82.9733384 C462.26457,81.9946435 462.127554,80.9963897 462.049259,79.978547 C459.387209,82.7188927 456.255432,84.637106 452.653835,85.7332442 C449.052238,86.8293825 445.3724,87.3774434 441.614212,87.3774434 C438.717275,87.3774434 436.016117,87.0251186 433.510658,86.3204582 C431.005199,85.6157979 428.812956,84.5196761 426.933862,83.0320598 C425.054767,81.5444436 423.586747,79.6653776 422.529757,77.3948054 C421.472766,75.1242333 420.944279,72.4230759 420.944279,69.2912522 C420.944279,65.8462462 421.55106,63.0080735 422.764642,60.7766492 C423.978224,58.5452248 425.544112,56.7640268 427.462354,55.4330018 C429.380596,54.1019767 431.57284,53.1037229 434.039151,52.4382103 C436.505462,51.7726978 438.99131,51.2442105 441.496769,50.8527325 C444.002228,50.4612546 446.468502,50.1480769 448.895665,49.9131901 C451.322829,49.6783034 453.475925,49.3259785 455.355019,48.8562049 C457.234113,48.3864314 458.721707,47.7013552 459.817846,46.8009559 C460.913984,45.9005566 461.422898,44.5891251 461.344602,42.8666221 C461.344602,41.0658235 461.050998,39.6369504 460.463781,38.5799599 C459.876564,37.5229694 459.09362,36.700878 458.114925,36.1136611 C457.13623,35.5264442 456.000961,35.1349721 454.709084,34.9392331 C453.417207,34.7434941 452.027481,34.6456261 450.539864,34.6456261 C447.25145,34.6456261 444.667734,35.3502759 442.78864,36.7595965 C440.909545,38.1689172 439.813424,40.5177497 439.500241,43.8061645 L422.823364,43.8061645 Z M461.344602,56.1376586 C460.639942,56.7640233 459.759129,57.2533634 458.702139,57.6056936 C457.645149,57.9580237 456.509879,58.2516278 455.296298,58.4865146 C454.082716,58.7214013 452.810432,58.9171374 451.479407,59.0737286 C450.148382,59.2303198 448.817377,59.4260558 447.486352,59.6609426 C446.233622,59.8958293 445.000485,60.209007 443.786903,60.600485 C442.573322,60.9919629 441.516347,61.5204502 440.615948,62.1859628 C439.715548,62.8514753 438.991325,63.6931403 438.443256,64.710983 C437.895187,65.7288257 437.621156,67.0206836 437.621156,68.5865954 C437.621156,70.0742116 437.895187,71.3269223 438.443256,72.344765 C438.991325,73.3626077 439.735122,74.1651255 440.674669,74.7523424 C441.614216,75.3395594 442.710338,75.750605 443.963068,75.9854918 C445.215797,76.2203786 446.507655,76.3378202 447.83868,76.3378202 C451.127095,76.3378202 453.671663,75.7897593 455.472462,74.693621 C457.273261,73.5974827 458.604266,72.2860512 459.465517,70.7592872 C460.326769,69.2325232 460.855256,67.6862084 461.050995,66.1202966 C461.246734,64.5543848 461.344602,63.3016741 461.344602,62.362127 L461.344602,56.1376586 Z M484.334019,25.1327593 L500.188797,25.1327593 L500.188797,36.4072681 L500.423683,36.4072681 C501.206639,34.5281739 502.263613,32.7861231 503.594638,31.1810635 C504.925663,29.5760039 506.452404,28.2058516 508.174907,27.0705655 C509.89741,25.9352794 511.737329,25.0544672 513.694719,24.4281025 C515.652109,23.8017377 517.687764,23.4885601 519.801745,23.4885601 C520.897883,23.4885601 522.111446,23.6842961 523.442471,24.0757741 L523.442471,39.5782237 C522.659516,39.4216325 521.719983,39.2846173 520.623844,39.1671739 C519.527706,39.0497305 518.470731,38.9910097 517.452889,38.9910097 C514.399361,38.9910097 511.815645,39.4999234 509.701664,40.5177661 C507.587683,41.5356088 505.884779,42.9253347 504.592902,44.6869855 C503.301025,46.4486363 502.381065,48.5038648 501.832996,50.8527325 C501.284927,53.2016003 501.010897,55.7461689 501.010897,58.4865146 L501.010897,85.850687 L484.334019,85.850687 L484.334019,25.1327593 Z M541.9805,15.7373352 L525.303622,15.7373352 L525.303622,1.99652761 L541.9805,1.99652761 L541.9805,15.7373352 Z M525.303622,25.1327593 L541.9805,25.1327593 L541.9805,85.850687 L525.303622,85.850687 L525.303622,25.1327593 Z M561.904966,55.5504446 C561.904966,57.9776079 562.139849,60.346014 562.609623,62.655734 C563.079397,64.9654539 563.881914,67.040256 565.0172,68.8802024 C566.152486,70.7201488 567.659654,72.1881691 569.538748,73.2843074 C571.417842,74.3804457 573.766675,74.9285066 576.585316,74.9285066 C579.403958,74.9285066 581.772364,74.3804457 583.690606,73.2843074 C585.608848,72.1881691 587.135589,70.7201488 588.270875,68.8802024 C589.406161,67.040256 590.208679,64.9654539 590.678452,62.655734 C591.148226,60.346014 591.383109,57.9776079 591.383109,55.5504446 C591.383109,53.1232812 591.148226,50.7353015 590.678452,48.3864337 C590.208679,46.037566 589.406161,43.9627639 588.270875,42.1619653 C587.135589,40.3611667 585.608848,38.8931464 583.690606,37.7578603 C581.772364,36.6225742 579.403958,36.0549397 576.585316,36.0549397 C573.766675,36.0549397 571.417842,36.6225742 569.538748,37.7578603 C567.659654,38.8931464 566.152486,40.3611667 565.0172,42.1619653 C563.881914,43.9627639 563.079397,46.037566 562.609623,48.3864337 C562.139849,50.7353015 561.904966,53.1232812 561.904966,55.5504446 Z M545.228089,55.5504446 C545.228089,50.6961179 545.971886,46.2920569 547.459502,42.3381295 C548.947118,38.3842021 551.061067,35.0175422 553.801413,32.2380487 C556.541759,29.4585552 559.830124,27.3054587 563.666608,25.7786947 C567.503092,24.2519306 571.809285,23.4885601 576.585316,23.4885601 C581.361347,23.4885601 585.687114,24.2519306 589.562746,25.7786947 C593.438377,27.3054587 596.746317,29.4585552 599.486662,32.2380487 C602.227008,35.0175422 604.340957,38.3842021 605.828574,42.3381295 C607.31619,46.2920569 608.059987,50.6961179 608.059987,55.5504446 C608.059987,60.4047712 607.31619,64.7892586 605.828574,68.7040382 C604.340957,72.6188178 602.227008,75.9659041 599.486662,78.7453976 C596.746317,81.5248911 593.438377,83.658414 589.562746,85.1460302 C585.687114,86.6336465 581.361347,87.3774434 576.585316,87.3774434 C571.809285,87.3774434 567.503092,86.6336465 563.666608,85.1460302 C559.830124,83.658414 556.541759,81.5248911 553.801413,78.7453976 C551.061067,75.9659041 548.947118,72.6188178 547.459502,68.7040382 C545.971886,64.7892586 545.228089,60.4047712 545.228089,55.5504446 Z M640.562271,71.5226654 C642.911138,71.5226654 644.98594,71.0528989 646.786739,70.1133518 C648.587538,69.1738047 650.075131,67.921094 651.249565,66.3551822 C652.423999,64.7892704 653.304811,63.0080724 653.892028,61.0115348 C654.479245,59.0149972 654.772849,56.9206215 654.772849,54.728345 C654.772849,52.222886 654.537966,49.8544799 654.068193,47.6230555 C653.598419,45.3916312 652.815475,43.4146971 651.719337,41.6921941 C650.623198,39.9696911 649.174752,38.5995388 647.373953,37.5816961 C645.573154,36.5638534 643.302616,36.0549397 640.562271,36.0549397 C638.213403,36.0549397 636.197322,36.5247062 634.513966,37.4642533 C632.830611,38.4038004 631.421312,39.6760847 630.286025,41.2811443 C629.150739,42.8862039 628.328648,44.7261228 627.819727,46.8009559 C627.310805,48.8757891 627.056348,51.0484592 627.056348,53.3190314 C627.056348,55.5113079 627.271658,57.683978 627.702284,59.8371068 C628.13291,61.9902355 628.876707,63.9280224 629.933697,65.6505254 C630.990688,67.3730284 632.380413,68.7823279 634.102917,69.8784662 C635.82542,70.9746045 637.978516,71.5226654 640.562271,71.5226654 Z M670.627627,81.9750746 C670.627627,84.402238 670.294876,87.1816898 669.629364,90.3135135 C668.963851,93.4453371 667.534978,96.3618042 665.342701,99.0630021 C663.150425,101.7642 659.979501,104.054312 655.829835,105.933406 C651.680168,107.8125 646.121265,108.752033 639.152957,108.752033 C636.177724,108.752033 633.143816,108.380135 630.05114,107.636327 C626.958464,106.892518 624.139865,105.737676 621.595258,104.171764 C619.050652,102.605852 616.936702,100.589771 615.253347,98.1234597 C613.569992,95.6571485 612.610885,92.7015343 612.375998,89.2565283 L628.935433,89.2565283 C629.718389,92.3883519 631.24513,94.561022 633.515703,95.7746037 C635.786275,96.9881853 638.409138,97.5949671 641.38437,97.5949671 C646.082106,97.5949671 649.507486,96.1856676 651.660615,93.3670263 C653.813744,90.548385 654.851145,86.985989 654.772849,82.6797314 L654.772849,74.693621 L654.537964,74.693621 C652.737165,77.9037403 650.173023,80.2721464 646.84546,81.7989104 C643.517898,83.3256745 640.014223,84.089045 636.33433,84.089045 C631.793185,84.089045 627.878465,83.2865273 624.59005,81.6814676 C621.301635,80.076408 618.600477,77.8841643 616.486496,75.1046708 C614.372515,72.3251773 612.826201,69.075959 611.847506,65.3569184 C610.868811,61.6378778 610.379471,57.7035833 610.379471,53.553917 C610.379471,49.6391374 610.947105,45.8614317 612.082391,42.2206867 C613.217678,38.5799417 614.881434,35.3698706 617.07371,32.5903771 C619.265987,29.8108836 621.986718,27.5990663 625.235985,25.9548589 C628.485252,24.3106514 632.223811,23.4885601 636.451773,23.4885601 C640.444848,23.4885601 643.948523,24.232357 646.962903,25.7199733 C649.977283,27.2075895 652.502278,29.7130109 654.537964,33.2363125 L654.772849,33.2363125 L654.772849,25.1327593 L670.627627,25.1327593 L670.627627,81.9750746 Z M692.207731,55.5504446 C692.207731,57.9776079 692.442614,60.346014 692.912388,62.655734 C693.382161,64.9654539 694.184679,67.040256 695.319965,68.8802024 C696.455251,70.7201488 697.962419,72.1881691 699.841513,73.2843074 C701.720607,74.3804457 704.06944,74.9285066 706.888081,74.9285066 C709.706722,74.9285066 712.075128,74.3804457 713.99337,73.2843074 C715.911612,72.1881691 717.438353,70.7201488 718.573639,68.8802024 C719.708926,67.040256 720.511443,64.9654539 720.981217,62.655734 C721.45099,60.346014 721.685874,57.9776079 721.685874,55.5504446 C721.685874,53.1232812 721.45099,50.7353015 720.981217,48.3864337 C720.511443,46.037566 719.708926,43.9627639 718.573639,42.1619653 C717.438353,40.3611667 715.911612,38.8931464 713.99337,37.7578603 C712.075128,36.6225742 709.706722,36.0549397 706.888081,36.0549397 C704.06944,36.0549397 701.720607,36.6225742 699.841513,37.7578603 C697.962419,38.8931464 696.455251,40.3611667 695.319965,42.1619653 C694.184679,43.9627639 693.382161,46.037566 692.912388,48.3864337 C692.442614,50.7353015 692.207731,53.1232812 692.207731,55.5504446 Z M675.530853,55.5504446 C675.530853,50.6961179 676.27465,46.2920569 677.762266,42.3381295 C679.249883,38.3842021 681.363832,35.0175422 684.104178,32.2380487 C686.844523,29.4585552 690.132889,27.3054587 693.969373,25.7786947 C697.805857,24.2519306 702.11205,23.4885601 706.888081,23.4885601 C711.664112,23.4885601 715.989878,24.2519306 719.86551,25.7786947 C723.741142,27.3054587 727.049081,29.4585552 729.789427,32.2380487 C732.529773,35.0175422 734.643722,38.3842021 736.131338,42.3381295 C737.618954,46.2920569 738.362751,50.6961179 738.362751,55.5504446 C738.362751,60.4047712 737.618954,64.7892586 736.131338,68.7040382 C734.643722,72.6188178 732.529773,75.9659041 729.789427,78.7453976 C727.049081,81.5248911 723.741142,83.658414 719.86551,85.1460302 C715.989878,86.6336465 711.664112,87.3774434 706.888081,87.3774434 C702.11205,87.3774434 697.805857,86.6336465 693.969373,85.1460302 C690.132889,83.658414 686.844523,81.5248911 684.104178,78.7453976 C681.363832,75.9659041 679.249883,72.6188178 677.762266,68.7040382 C676.27465,64.7892586 675.530853,60.4047712 675.530853,55.5504446 Z M770.865035,71.5226654 C773.213903,71.5226654 775.288705,71.0528989 777.089504,70.1133518 C778.890302,69.1738047 780.377896,67.921094 781.55233,66.3551822 C782.726764,64.7892704 783.607576,63.0080724 784.194793,61.0115348 C784.78201,59.0149972 785.075614,56.9206215 785.075614,54.728345 C785.075614,52.222886 784.840731,49.8544799 784.370957,47.6230555 C783.901184,45.3916312 783.118239,43.4146971 782.022101,41.6921941 C780.925963,39.9696911 779.477516,38.5995388 777.676718,37.5816961 C775.875919,36.5638534 773.605381,36.0549397 770.865035,36.0549397 C768.516167,36.0549397 766.500086,36.5247062 764.816731,37.4642533 C763.133376,38.4038004 761.724076,39.6760847 760.58879,41.2811443 C759.453504,42.8862039 758.631413,44.7261228 758.122491,46.8009559 C757.61357,48.8757891 757.359113,51.0484592 757.359113,53.3190314 C757.359113,55.5113079 757.574423,57.683978 758.005048,59.8371068 C758.435674,61.9902355 759.179471,63.9280224 760.236462,65.6505254 C761.293452,67.3730284 762.683178,68.7823279 764.405681,69.8784662 C766.128184,70.9746045 768.281281,71.5226654 770.865035,71.5226654 Z M800.930392,81.9750746 C800.930392,84.402238 800.597641,87.1816898 799.932128,90.3135135 C799.266616,93.4453371 797.837743,96.3618042 795.645466,99.0630021 C793.453189,101.7642 790.282266,104.054312 786.132599,105.933406 C781.982933,107.8125 776.424029,108.752033 769.455721,108.752033 C766.480489,108.752033 763.44658,108.380135 760.353904,107.636327 C757.261229,106.892518 754.44263,105.737676 751.898023,104.171764 C749.353416,102.605852 747.239467,100.589771 745.556112,98.1234597 C743.872756,95.6571485 742.91365,92.7015343 742.678763,89.2565283 L759.238198,89.2565283 C760.021154,92.3883519 761.547895,94.561022 763.818467,95.7746037 C766.089039,96.9881853 768.711902,97.5949671 771.687135,97.5949671 C776.38487,97.5949671 779.810251,96.1856676 781.96338,93.3670263 C784.116509,90.548385 785.15391,86.985989 785.075614,82.6797314 L785.075614,74.693621 L784.840728,74.693621 C783.03993,77.9037403 780.475788,80.2721464 777.148225,81.7989104 C773.820662,83.3256745 770.316987,84.089045 766.637094,84.089045 C762.09595,84.089045 758.181229,83.2865273 754.892814,81.6814676 C751.604399,80.076408 748.903242,77.8841643 746.789261,75.1046708 C744.67528,72.3251773 743.128965,69.075959 742.15027,65.3569184 C741.171576,61.6378778 740.682235,57.7035833 740.682235,53.553917 C740.682235,49.6391374 741.24987,45.8614317 742.385156,42.2206867 C743.520442,38.5799417 745.184198,35.3698706 747.376475,32.5903771 C749.568752,29.8108836 752.289483,27.5990663 755.53875,25.9548589 C758.788017,24.3106514 762.526575,23.4885601 766.754537,23.4885601 C770.747612,23.4885601 774.251287,24.232357 777.265668,25.7199733 C780.280048,27.2075895 782.805043,29.7130109 784.840728,33.2363125 L785.075614,33.2363125 L785.075614,25.1327593 L800.930392,25.1327593 L800.930392,81.9750746 Z M807.712703,1.99652761 L824.38958,1.99652761 L824.38958,33.5886409 L824.741909,33.5886409 C826.85589,30.0653393 829.557047,27.5011971 832.845462,25.8961375 C836.133877,24.2910778 839.343948,23.4885601 842.475771,23.4885601 C846.93862,23.4885601 850.598884,24.0953418 853.456673,25.3089235 C856.314462,26.5225051 858.565427,28.2058351 860.209634,30.3589639 C861.853842,32.5120927 863.008684,35.1349556 863.674197,38.2276315 C864.339709,41.3203074 864.672461,44.7456881 864.672461,48.5038765 L864.672461,85.850687 L847.995583,85.850687 L847.995583,51.5573893 C847.995583,46.5464715 847.212639,42.8079131 845.646727,40.3416019 C844.080815,37.8752908 841.301363,36.6421537 837.308288,36.6421537 C832.767144,36.6421537 829.478778,37.9927324 827.443093,40.6939303 C825.407408,43.3951282 824.38958,47.8383364 824.38958,54.0236882 L824.38958,85.850687 L807.712703,85.850687 L807.712703,1.99652761 Z M871.454771,67.7644958 L889.893291,67.7644958 L889.893291,85.850687 L871.454771,85.850687 L871.454771,67.7644958 Z M938.13291,46.5073489 C937.036772,39.5390413 932.926315,36.0549397 925.801416,36.0549397 C923.139366,36.0549397 920.907975,36.6617214 919.107176,37.8753031 C917.306378,39.0888848 915.838357,40.6547731 914.703071,42.5730151 C913.567785,44.4912571 912.765267,46.6052064 912.295494,48.9149263 C911.82572,51.2246463 911.590837,53.514758 911.590837,55.7853302 C911.590837,57.9776067 911.82572,60.2089976 912.295494,62.4795698 C912.765267,64.7501419 913.528638,66.8053704 914.585628,68.6453168 C915.642619,70.4852632 917.071492,71.9924307 918.872291,73.1668646 C920.673089,74.3412985 922.865333,74.9285066 925.449087,74.9285066 C929.442163,74.9285066 932.515218,73.8128112 934.668347,71.5813868 C936.821476,69.3499624 938.172055,66.355201 938.720124,62.5970126 L954.809788,62.5970126 C953.713649,70.6614585 950.581873,76.8075703 945.414363,81.0355322 C940.246854,85.2634942 933.630976,87.3774434 925.56653,87.3774434 C921.025386,87.3774434 916.856208,86.6140729 913.058872,85.0873088 C909.261536,83.5605448 906.031891,81.4270219 903.369841,78.6866762 C900.707791,75.9463305 898.632989,72.6775386 897.145373,68.8802024 C895.657756,65.0828662 894.913959,60.9136885 894.913959,56.3725442 C894.913959,51.6748087 895.599036,47.3098949 896.969208,43.2776719 C898.339381,39.245449 900.355462,35.7613474 903.017513,32.8252627 C905.679563,29.889178 908.928781,27.5990663 912.765265,25.9548589 C916.601749,24.3106514 920.986236,23.4885601 925.918859,23.4885601 C929.520456,23.4885601 932.984984,23.9583266 936.312546,24.8978737 C939.640109,25.8374208 942.615297,27.2662939 945.238199,29.1845359 C947.861102,31.1027779 949.994624,33.4907576 951.638832,36.3485467 C953.283039,39.2063358 954.222572,42.5925693 954.457459,46.5073489 L938.13291,46.5073489 Z M972.396836,55.5504446 C972.396836,57.9776079 972.631719,60.346014 973.101492,62.655734 C973.571266,64.9654539 974.373784,67.040256 975.50907,68.8802024 C976.644356,70.7201488 978.151523,72.1881691 980.030618,73.2843074 C981.909712,74.3804457 984.258544,74.9285066 987.077186,74.9285066 C989.895827,74.9285066 992.264233,74.3804457 994.182475,73.2843074 C996.100717,72.1881691 997.627458,70.7201488 998.762744,68.8802024 C999.89803,67.040256 1000.70055,64.9654539 1001.17032,62.655734 C1001.6401,60.346014 1001.87498,57.9776079 1001.87498,55.5504446 C1001.87498,53.1232812 1001.6401,50.7353015 1001.17032,48.3864337 C1000.70055,46.037566 999.89803,43.9627639 998.762744,42.1619653 C997.627458,40.3611667 996.100717,38.8931464 994.182475,37.7578603 C992.264233,36.6225742 989.895827,36.0549397 987.077186,36.0549397 C984.258544,36.0549397 981.909712,36.6225742 980.030618,37.7578603 C978.151523,38.8931464 976.644356,40.3611667 975.50907,42.1619653 C974.373784,43.9627639 973.571266,46.037566 973.101492,48.3864337 C972.631719,50.7353015 972.396836,53.1232812 972.396836,55.5504446 Z M955.719958,55.5504446 C955.719958,50.6961179 956.463755,46.2920569 957.951371,42.3381295 C959.438987,38.3842021 961.552937,35.0175422 964.293282,32.2380487 C967.033628,29.4585552 970.321994,27.3054587 974.158478,25.7786947 C977.994962,24.2519306 982.301155,23.4885601 987.077186,23.4885601 C991.853217,23.4885601 996.178983,24.2519306 1000.05462,25.7786947 C1003.93025,27.3054587 1007.23819,29.4585552 1009.97853,32.2380487 C1012.71888,35.0175422 1014.83283,38.3842021 1016.32044,42.3381295 C1017.80806,46.2920569 1018.55186,50.6961179 1018.55186,55.5504446 C1018.55186,60.4047712 1017.80806,64.7892586 1016.32044,68.7040382 C1014.83283,72.6188178 1012.71888,75.9659041 1009.97853,78.7453976 C1007.23819,81.5248911 1003.93025,83.658414 1000.05462,85.1460302 C996.178983,86.6336465 991.853217,87.3774434 987.077186,87.3774434 C982.301155,87.3774434 977.994962,86.6336465 974.158478,85.1460302 C970.321994,83.658414 967.033628,81.5248911 964.293282,78.7453976 C961.552937,75.9659041 959.438987,72.6188178 957.951371,68.7040382 C956.463755,64.7892586 955.719958,60.4047712 955.719958,55.5504446 Z M1023.2202,25.1327593 L1038.95753,25.1327593 L1038.95753,33.3537553 L1039.19242,33.3537553 C1041.38469,30.2219316 1044.02713,27.7948047 1047.11981,26.0723017 C1050.21248,24.3497987 1053.7553,23.4885601 1057.74838,23.4885601 C1061.58486,23.4885601 1065.08854,24.232357 1068.25951,25.7199733 C1071.43048,27.2075895 1073.83804,29.8304525 1075.48224,33.5886409 C1077.28304,30.9265908 1079.72974,28.5777583 1082.82242,26.5420729 C1085.91509,24.5063875 1089.57536,23.4885601 1093.80332,23.4885601 C1097.01344,23.4885601 1099.98863,23.8800322 1102.72897,24.6629881 C1105.46932,25.445944 1107.81815,26.6986547 1109.77554,28.4211577 C1111.73293,30.1436607 1113.25967,32.3946252 1114.35581,35.1741187 C1115.45195,37.9536122 1116.00001,41.3006985 1116.00001,45.2154781 L1116.00001,85.850687 L1099.32313,85.850687 L1099.32313,51.4399465 C1099.32313,49.4042612 1099.24484,47.4860479 1099.08825,45.6852493 C1098.93165,43.8844507 1098.50103,42.3185624 1097.79637,40.9875373 C1097.09171,39.6565123 1096.05431,38.5995376 1094.68414,37.8165817 C1093.31397,37.0336258 1091.45448,36.6421537 1089.10561,36.6421537 C1086.75674,36.6421537 1084.8581,37.0923466 1083.40963,37.9927459 C1081.96116,38.8931452 1080.82589,40.0675615 1080.00379,41.5160299 C1079.18169,42.9644984 1078.63363,44.6086811 1078.35959,46.4486275 C1078.08556,48.2885739 1077.94854,50.1480663 1077.94854,52.0271605 L1077.94854,85.850687 L1061.27166,85.850687 L1061.27166,51.7922749 C1061.27166,49.9914763 1061.23252,48.2102783 1061.15422,46.4486275 C1061.07593,44.6869767 1060.74317,43.0623676 1060.15596,41.5747513 C1059.56874,40.0871351 1058.59006,38.8931452 1057.21989,37.9927459 C1055.84971,37.0923466 1053.83363,36.6421537 1051.17158,36.6421537 C1050.38863,36.6421537 1049.35123,36.8183161 1048.05935,37.1706463 C1046.76747,37.5229765 1045.51476,38.188479 1044.30118,39.1671739 C1043.0876,40.1458688 1042.0502,41.5551683 1041.18894,43.3951147 C1040.32769,45.2350611 1039.89707,47.6426145 1039.89707,50.6178469 L1039.89707,85.850687 L1023.2202,85.850687 L1023.2202,25.1327593 Z" id="hello@mariogogh.com" fill="#000000"></path>
    </g>
</svg>