<?xml version="1.0" encoding="UTF-8"?>
<svg width="20px" height="20px" viewBox="0 0 20 20" version="1.1" xmlns="http://www.w3.org/2000/svg" xmlns:xlink="http://www.w3.org/1999/xlink">
    <!-- Generator: Sketch 49.3 (51167) - http://www.bohemiancoding.com/sketch -->
    <desc>Created with Sketch.</desc>
    <defs></defs>
    <g id="Mariogogh_Index" stroke="none" stroke-width="1" fill="none" fill-rule="evenodd">
        <g id="Active">
            <g id="Group">
                <circle id="Oval-2" fill="#000000" cx="9.8" cy="9.8" r="9.8"></circle>
                <path d="M10.796224,10.796224 C11.1542987,10.4381493 11.3333333,10.0060789 11.3333333,9.5 C11.3333333,8.99392108 11.1542987,8.56185075 10.796224,8.20377604 C10.4381493,7.84570133 10.0060789,7.66666667 9.5,7.66666667 C8.99392108,7.66666667 8.56185075,7.84570133 8.20377604,8.20377604 C7.84570133,8.56185075 7.66666667,8.99392108 7.66666667,9.5 C7.66666667,10.0060789 7.84570133,10.4381493 8.20377604,10.796224 C8.56185075,11.1542987 8.99392108,11.3333333 9.5,11.3333333 C10.0060789,11.3333333 10.4381493,11.1542987 10.796224,10.796224 Z M11.4980469,7.50195312 C12.0470948,8.05100101 12.3216146,8.71700997 12.3216146,9.5 C12.3216146,10.28299 12.0470948,10.948999 11.4980469,11.4980469 C10.948999,12.0470948 10.28299,12.3216146 9.5,12.3216146 C8.71700997,12.3216146 8.05100101,12.0470948 7.50195312,11.4980469 C6.95290524,10.948999 6.67838542,10.28299 6.67838542,9.5 C6.67838542,8.71700997 6.95290524,8.05100101 7.50195312,7.50195312 C8.05100101,6.95290524 8.71700997,6.67838542 9.5,6.67838542 C10.28299,6.67838542 10.948999,6.95290524 11.4980469,7.50195312 Z M12.9016927,6.09830729 C13.0305996,6.22721419 13.0950521,6.38237757 13.0950521,6.56380208 C13.0950521,6.7452266 13.0305996,6.90038998 12.9016927,7.02929688 C12.7727858,7.15820377 12.6176224,7.22265625 12.4361979,7.22265625 C12.2547734,7.22265625 12.09961,7.15820377 11.9707031,7.02929688 C11.8417962,6.90038998 11.7773438,6.7452266 11.7773438,6.56380208 C11.7773438,6.38237757 11.8417962,6.22721419 11.9707031,6.09830729 C12.09961,5.9694004 12.2547734,5.90494792 12.4361979,5.90494792 C12.6176224,5.90494792 12.7727858,5.9694004 12.9016927,6.09830729 Z M10.0442708,4.98828125 L9.5,4.98828125 C9.46657969,4.98828125 9.28396433,4.98708769 8.95214844,4.98470052 C8.62033254,4.98231336 8.36849044,4.98231336 8.19661458,4.98470052 C8.02473872,4.98708769 7.79438078,4.99424907 7.50553385,5.0061849 C7.21668692,5.01812072 6.97081265,5.04199201 6.76790365,5.07779948 C6.56499465,5.11360695 6.39431493,5.15776883 6.25585938,5.21028646 C6.0171429,5.30577305 5.80707556,5.44422652 5.62565104,5.62565104 C5.44422652,5.80707556 5.30577305,6.0171429 5.21028646,6.25585938 C5.15776883,6.39431493 5.11360695,6.56499465 5.07779948,6.76790365 C5.04199201,6.97081265 5.01812072,7.21668692 5.0061849,7.50553385 C4.99424907,7.79438078 4.98708769,8.02473872 4.98470052,8.19661458 C4.98231336,8.36849044 4.98231336,8.62033254 4.98470052,8.95214844 C4.98708769,9.28396433 4.98828125,9.46657969 4.98828125,9.5 C4.98828125,9.53342031 4.98708769,9.71603567 4.98470052,10.0478516 C4.98231336,10.3796675 4.98231336,10.6315096 4.98470052,10.8033854 C4.98708769,10.9752613 4.99424907,11.2056192 5.0061849,11.4944661 C5.01812072,11.7833131 5.04199201,12.0291874 5.07779948,12.2320964 C5.11360695,12.4350054 5.15776883,12.6056851 5.21028646,12.7441406 C5.30577305,12.9828571 5.44422652,13.1929244 5.62565104,13.374349 C5.80707556,13.5557735 6.0171429,13.694227 6.25585938,13.7897135 C6.39431493,13.8422312 6.56499465,13.8863931 6.76790365,13.9222005 C6.97081265,13.958008 7.21668692,13.9818793 7.50553385,13.9938151 C7.79438078,14.0057509 8.02473872,14.0129123 8.19661458,14.0152995 C8.36849044,14.0176866 8.62033254,14.0176866 8.95214844,14.0152995 C9.28396433,14.0129123 9.46657969,14.0117187 9.5,14.0117187 C9.53342031,14.0117187 9.71603567,14.0129123 10.0478516,14.0152995 C10.3796675,14.0176866 10.6315096,14.0176866 10.8033854,14.0152995 C10.9752613,14.0129123 11.2056192,14.0057509 11.4944661,13.9938151 C11.7833131,13.9818793 12.0291874,13.958008 12.2320964,13.9222005 C12.4350054,13.8863931 12.6056851,13.8422312 12.7441406,13.7897135 C12.9828571,13.694227 13.1929244,13.5557735 13.374349,13.374349 C13.5557735,13.1929244 13.694227,12.9828571 13.7897135,12.7441406 C13.8422312,12.6056851 13.8863931,12.4350054 13.9222005,12.2320964 C13.958008,12.0291874 13.9818793,11.7833131 13.9938151,11.4944661 C14.0057509,11.2056192 14.0129123,10.9752613 14.0152995,10.8033854 C14.0176866,10.6315096 14.0176866,10.3796675 14.0152995,10.0478516 C14.0129123,9.71603567 14.0117188,9.53342031 14.0117188,9.5 C14.0117188,9.46657969 14.0129123,9.28396433 14.0152995,8.95214844 C14.0176866,8.62033254 14.0176866,8.36849044 14.0152995,8.19661458 C14.0129123,8.02473872 14.0057509,7.79438078 13.9938151,7.50553385 C13.9818793,7.21668692 13.958008,6.97081265 13.9222005,6.76790365 C13.8863931,6.56499465 13.8422312,6.39431493 13.7897135,6.25585938 C13.694227,6.0171429 13.5557735,5.80707556 13.374349,5.62565104 C13.1929244,5.44422652 12.9828571,5.30577305 12.7441406,5.21028646 C12.6056851,5.15776883 12.4350054,5.11360695 12.2320964,5.07779948 C12.0291874,5.04199201 11.7833131,5.01812072 11.4944661,5.0061849 C11.2056192,4.99424907 10.9752613,4.98708769 10.8033854,4.98470052 C10.6315096,4.98231336 10.3784739,4.98350692 10.0442708,4.98828125 Z M14.9641927,7.22981771 C14.9880644,7.6499587 15,8.40667856 15,9.5 C15,10.5933214 14.9880644,11.3500413 14.9641927,11.7701823 C14.9164494,12.7632428 14.6204454,13.5318983 14.0761719,14.0761719 C13.5318983,14.6204454 12.7632428,14.9164494 11.7701823,14.9641927 C11.3500413,14.9880644 10.5933214,15 9.5,15 C8.40667856,15 7.6499587,14.9880644 7.22981771,14.9641927 C6.23675719,14.9164494 5.46810168,14.6204454 4.92382812,14.0761719 C4.37955457,13.5318983 4.08355059,12.7632428 4.03580729,11.7701823 C4.01193564,11.3500413 4,10.5933214 4,9.5 C4,8.40667856 4.01193564,7.6499587 4.03580729,7.22981771 C4.08355059,6.23675719 4.37955457,5.46810168 4.92382812,4.92382813 C5.46810168,4.37955457 6.23675719,4.08355059 7.22981771,4.03580729 C7.6499587,4.01193564 8.40667856,4 9.5,4 C10.5933214,4 11.3500413,4.01193564 11.7701823,4.03580729 C12.7632428,4.08355059 13.5318983,4.37955457 14.0761719,4.92382813 C14.6204454,5.46810168 14.9164494,6.23675719 14.9641927,7.22981771 Z" id="instagram---FontAwesome" fill="#FFFFFF"></path>
            </g>
        </g>
    </g>
</svg>