<svg height="49" viewBox="0 0 33 49" width="33" xmlns="http://www.w3.org/2000/svg"><g fill="none" transform="translate(2 3)"><g fill="#ef5350"><path d="m18.301725 20.1778293c.2325.0884468.475125.1333951.721875.1333951.816375 0 1.537125-.4744952 1.836375-1.208531.193125-.4741328.18375-.9921265-.02625-1.459372-.1545-.343275-.403875-.6285522-.719625-.8297324l-2.38425 2.9064194c-.0585.0710474-.119625.1399199-.183375.2058925.255.0735849.506625.1573193.75525.2519284zm-8.553375-3.4573994c-1.090875.4396965-2.120625 1.0214879-3.067875 1.7337745-3.25275 2.4471486-5.13525 6.12494-5.164125 10.0901834-.00025.0147411-.001125.0454317-.002625.0920716 0 7.113079 5.986875 12.9001813 13.3455 12.9001813 7.3545 0 13.33875-5.7805775 13.3455-12.8885817-.033-1.1041349-.898125-1.9182803-1.972875-1.9182803h-11.372625c-1.0875 0-1.9725.8551064-1.9725 1.9066807s.885 1.9070432 1.9725 1.9070432h9.252375l-.332625.962765c-1.28325 3.7187524-4.8675 6.2170117-8.91975 6.2170117-5.18325 0-9.400125-4.0761644-9.400125-9.0868199 0-4.1870853 2.94525-7.7220568 6.939-8.7707313-.034125-.0369736-.0675-.0746723-.100125-.1134583zm-9.7485 11.9160295c0-.0173993.000875-.0515939.002625-.1025837.032625-4.4154521 2.12775-8.5101033 5.74875-11.2345543 1.213125-.9127418 2.55-1.6330032 3.9735-2.1412097l.50775-.1816059 3.239625 3.8521475c.38025.4516586.952125.7213488 1.5285.7213488.59175 0 1.162875-.2765774 1.543875-.7398356l3.103125-3.783275.561.2077049c.0315.0108746.063375.0221117.094875.0340738.865125.3295005 1.54725.9656649 1.918125 1.7910474.37125.8253825.388125 1.7413867.046875 2.5790938-.528375 1.2973403-1.80225 2.1357723-3.244875 2.1357723-.43725 0-.866625-.0793846-1.2765-.2348914-.91725-.3494373-1.888875-.5263308-2.887875-.5263308-4.348875 0-7.88625 3.4197007-7.88625 7.6230979 0 4.2033973 3.537375 7.6234605 7.88625 7.6234605 3.03675 0 5.760375-1.6725142 7.07475-4.2534204h-7.07475c-1.92225 0-3.486375-1.5115701-3.486375-3.3700401 0-1.8581074 1.564125-3.37004 3.486375-3.37004h11.372625c1.9005 0 3.4305 1.4394352 3.48225 3.2765184.002625.0318989.0045.0623477.0045.0935216 0 7.9199748-6.666 14.3635406-14.859375 14.3635406s-14.859375-6.4435658-14.859375-14.3635406z"/><path d="m24.2595 25.4007208h1.9725c.73425 0 1.413.2122338 1.972875.5769322v-22.30600923c0-.799545-.531375-1.51391018-1.322625-1.7773234-.21-.06979018-.428625-.10558002-.649875-.10558002-.604875 0-1.16775.25947633-1.543875.711502l-9.706875 11.65460305-9.966-11.67249798c-.376125-.44057291-.93375-.69324917-1.529625-.69324917-.225375 0-.448125.03650563-.661125.109159-.784125.26627641-1.311.9788521-1.311 1.77338652v19.13864813c.92775-1.8023762 2.262375-3.4168559 3.945-4.7310588v-9.12071436l8.013 9.40807496c.380625.4459413.952125.7122177 1.528875.7122177.59175 0 1.162875-.2730764 1.543875-.7304705l7.714875-9.28674745zm3.941625 3.4542066c.0878204-2.0608403-.894375-2.6872226-1.969125-2.6872226h-3.486375v-12.9584269l-5.015625 6.0373879c-.665625.7999029-1.68 1.2769814-2.71275 1.2769814-1.059 0-2.044125-.4538151-2.719125-1.2447706l-5.325375-6.2524848v4.7536064l-.292125.2172443c-3.253125 2.4158142-5.13525 6.0470512-5.164125 9.9621016l-1.513875.0050106-.002625-24.29271093c0-1.40403538.931125-2.6638377 2.3175-3.13483198.376875-.12776972.769875-.19254933 1.1685-.19254933 1.053375 0 2.0385.44665719 2.703 1.22580198l8.778 10.28027326 8.536125-10.2491361c.66525-.7988292 1.660125-1.25693914 2.72925-1.25693914.3915 0 .77775.06263222 1.148625.18610716 1.398375.4656258 2.33775 1.72829132 2.33775 3.14127415v24.23401563c0 .0307792-.001875.9181308-.004125.9481943z"/><path d="m26.4962412 2.98039388c-.2643327-.08954937-.5620781-.00359636-.7339686.2057118l-10.62825 12.95265082-10.90112153-12.95876463c-.17337546-.20607144-.4711209-.28842808-.73359725-.19779981-.26136259.08990901-.43807933.33194404-.43807933.60203069v14.18260595c.01447889-.0154643.02932904-.030569.04380793-.0460334.05420304-.0575418.10914858-.1147239.16446538-.1715464.04937674-.0517876.09875347-.1032155.14961523-.1539242.05494554-.0557436.11100485-.1107679.16706415-.1654326.05197551-.0510683.10357977-.1021366.15666904-.1524856.05643057-.0539455.11434614-.1068119.1715192-.1600381.05383179-.0499894.10729231-.0999788.1618666-.1492489.05828683-.0521472.11731616-.1032156.17597424-.1546435.04306543-.0377618.08538835-.0766025.12919628-.1140046v-11.12929619l6.45127496 7.68793919 3.7975538 4.5256595c.1329088.1578803.3237333.2531838.5101026.2531838h.0163352c.1763455 0 .3679123-.0999788.5000787-.2610957l3.6668725-4.4799859 6.2953484-7.69117583v18.11378723h.6597178c.1006097 0 .1993632.003956.2981167.0097102.027844.0014385.055688.003956.0839033.0057541.0768495.0057543.1533278.0133066.2298061.0226571.0155926.0021578.032299.0028771.0482629.0050349v-19.97742105c0-.27188483-.1778305-.5142795-.4425343-.60382887"/><path d="m26.2786865 27.8854073h-4.7539032-6.5247833c-.3638286 0-.6597178.2858027-.6597178.6375875 0 .3514262.2958892.6375876.6597178.6375876h10.9746298l-.8988052 2.6023468c-1.4497456 4.1970329-5.4986381 7.0166902-10.0758246 7.0166902-5.85504165 0-10.61859746-4.601173-10.61859746-10.2566246 0-4.0700891 2.46698062-7.5943919 6.03287216-9.2503982l-.0070539-.0078892-.84497329-1.0044334c-.65600522.3266829-1.2823102.7136103-1.87334602 1.1575548l-.00334127.0028689c-1.75157483 1.3160552-3.05875901 3.030513-3.82836786 4.9590539-.10951983.2754034-.20864457.55511-.29626043.8387611-.31890691 1.0316869-.48894108 2.1142948-.49710866 3.2216459 0 .0340668-.00111377.0677751-.00259878.1014833.0103951 6.3496977 5.36201675 11.5131526 11.93877551 11.5131526 6.5663636 0 11.9113027-5.1469594 11.9387755-11.4826717-.001485-.0218745-.0025988-.0433905-.0025988-.0649063-.010395-.3499918-.2988592-.6218092-.6574902-.6218092"/><path d="m20.1461124 18.9904808c.080923-.1756586.0769491-.3677367-.0108379-.5412267-.0357652-.0700156-.0834519-.1335253-.1412542-.1889801l-1.0144285 1.0970142c.0325138.0105333.0650275.0210666.09718.0319098.4230398.1428194.902798-.036247 1.0693406-.3987172"/></g><g fill="#000"><path d="m18.301725 20.1778293c.2325.0884468.475125.1333951.721875.1333951.816375 0 1.537125-.4744952 1.836375-1.208531.193125-.4741328.18375-.9921265-.02625-1.459372-.1545-.343275-.403875-.6285522-.719625-.8297324l-2.38425 2.9064194c-.0585.0710474-.119625.1399199-.183375.2058925.255.0735849.506625.1573193.75525.2519284zm-8.553375-3.4573994c-1.090875.4396965-2.120625 1.0214879-3.067875 1.7337745-3.25275 2.4471486-5.13525 6.12494-5.164125 10.0901834-.00025.0147411-.001125.0454317-.002625.0920716 0 7.113079 5.986875 12.9001813 13.3455 12.9001813 7.3545 0 13.33875-5.7805775 13.3455-12.8885817-.033-1.1041349-.898125-1.9182803-1.972875-1.9182803h-11.372625c-1.0875 0-1.9725.8551064-1.9725 1.9066807s.885 1.9070432 1.9725 1.9070432h9.252375l-.332625.962765c-1.28325 3.7187524-4.8675 6.2170117-8.91975 6.2170117-5.18325 0-9.400125-4.0761644-9.400125-9.0868199 0-4.1870853 2.94525-7.7220568 6.939-8.7707313-.034125-.0369736-.0675-.0746723-.100125-.1134583zm-9.7485 11.9160295c0-.0173993.000875-.0515939.002625-.1025837.032625-4.4154521 2.12775-8.5101033 5.74875-11.2345543 1.213125-.9127418 2.55-1.6330032 3.9735-2.1412097l.50775-.1816059 3.239625 3.8521475c.38025.4516586.952125.7213488 1.5285.7213488.59175 0 1.162875-.2765774 1.543875-.7398356l3.103125-3.783275.561.2077049c.0315.0108746.063375.0221117.094875.0340738.865125.3295005 1.54725.9656649 1.918125 1.7910474.37125.8253825.388125 1.7413867.046875 2.5790938-.528375 1.2973403-1.80225 2.1357723-3.244875 2.1357723-.43725 0-.866625-.0793846-1.2765-.2348914-.91725-.3494373-1.888875-.5263308-2.887875-.5263308-4.348875 0-7.88625 3.4197007-7.88625 7.6230979 0 4.2033973 3.537375 7.6234605 7.88625 7.6234605 3.03675 0 5.760375-1.6725142 7.07475-4.2534204h-7.07475c-1.92225 0-3.486375-1.5115701-3.486375-3.3700401 0-1.8581074 1.564125-3.37004 3.486375-3.37004h11.372625c1.9005 0 3.4305 1.4394352 3.48225 3.2765184.002625.0318989.0045.0623477.0045.0935216 0 7.9199748-6.666 14.3635406-14.859375 14.3635406s-14.859375-6.4435658-14.859375-14.3635406z"/><path d="m24.2595 25.4007208h1.9725c.73425 0 1.413.2122338 1.972875.5769322v-22.30600923c0-.799545-.531375-1.51391018-1.322625-1.7773234-.21-.06979018-.428625-.10558002-.649875-.10558002-.604875 0-1.16775.25947633-1.543875.711502l-9.706875 11.65460305-9.966-11.67249798c-.376125-.44057291-.93375-.69324917-1.529625-.69324917-.225375 0-.448125.03650563-.661125.109159-.784125.26627641-1.311.9788521-1.311 1.77338652v19.13864813c.92775-1.8023762 2.262375-3.4168559 3.945-4.7310588v-9.12071436l8.013 9.40807496c.380625.4459413.952125.7122177 1.528875.7122177.59175 0 1.162875-.2730764 1.543875-.7304705l7.714875-9.28674745zm3.941625 3.4542066c.0878204-2.0608403-.894375-2.6872226-1.969125-2.6872226h-3.486375v-12.9584269l-5.015625 6.0373879c-.665625.7999029-1.68 1.2769814-2.71275 1.2769814-1.059 0-2.044125-.4538151-2.719125-1.2447706l-5.325375-6.2524848v4.7536064l-.292125.2172443c-3.253125 2.4158142-5.13525 6.0470512-5.164125 9.9621016l-1.513875.0050106-.002625-24.29271093c0-1.40403538.931125-2.6638377 2.3175-3.13483198.376875-.12776972.769875-.19254933 1.1685-.19254933 1.053375 0 2.0385.44665719 2.703 1.22580198l8.778 10.28027326 8.536125-10.2491361c.66525-.7988292 1.660125-1.25693914 2.72925-1.25693914.3915 0 .77775.06263222 1.148625.18610716 1.398375.4656258 2.33775 1.72829132 2.33775 3.14127415v24.23401563c0 .0307792-.001875.9181308-.004125.9481943z"/><path d="m26.4962412 2.98039388c-.2643327-.08954937-.5620781-.00359636-.7339686.2057118l-10.62825 12.95265082-10.90112153-12.95876463c-.17337546-.20607144-.4711209-.28842808-.73359725-.19779981-.26136259.08990901-.43807933.33194404-.43807933.60203069v14.18260595c.01447889-.0154643.02932904-.030569.04380793-.0460334.05420304-.0575418.10914858-.1147239.16446538-.1715464.04937674-.0517876.09875347-.1032155.14961523-.1539242.05494554-.0557436.11100485-.1107679.16706415-.1654326.05197551-.0510683.10357977-.1021366.15666904-.1524856.05643057-.0539455.11434614-.1068119.1715192-.1600381.05383179-.0499894.10729231-.0999788.1618666-.1492489.05828683-.0521472.11731616-.1032156.17597424-.1546435.04306543-.0377618.08538835-.0766025.12919628-.1140046v-11.12929619l6.45127496 7.68793919 3.7975538 4.5256595c.1329088.1578803.3237333.2531838.5101026.2531838h.0163352c.1763455 0 .3679123-.0999788.5000787-.2610957l3.6668725-4.4799859 6.2953484-7.69117583v18.11378723h.6597178c.1006097 0 .1993632.003956.2981167.0097102.027844.0014385.055688.003956.0839033.0057541.0768495.0057543.1533278.0133066.2298061.0226571.0155926.0021578.032299.0028771.0482629.0050349v-19.97742105c0-.27188483-.1778305-.5142795-.4425343-.60382887"/><path d="m26.2786865 27.8854073h-4.7539032-6.5247833c-.3638286 0-.6597178.2858027-.6597178.6375875 0 .3514262.2958892.6375876.6597178.6375876h10.9746298l-.8988052 2.6023468c-1.4497456 4.1970329-5.4986381 7.0166902-10.0758246 7.0166902-5.85504165 0-10.61859746-4.601173-10.61859746-10.2566246 0-4.0700891 2.46698062-7.5943919 6.03287216-9.2503982l-.0070539-.0078892-.84497329-1.0044334c-.65600522.3266829-1.2823102.7136103-1.87334602 1.1575548l-.00334127.0028689c-1.75157483 1.3160552-3.05875901 3.030513-3.82836786 4.9590539-.10951983.2754034-.20864457.55511-.29626043.8387611-.31890691 1.0316869-.48894108 2.1142948-.49710866 3.2216459 0 .0340668-.00111377.0677751-.00259878.1014833.0103951 6.3496977 5.36201675 11.5131526 11.93877551 11.5131526 6.5663636 0 11.9113027-5.1469594 11.9387755-11.4826717-.001485-.0218745-.0025988-.0433905-.0025988-.0649063-.010395-.3499918-.2988592-.6218092-.6574902-.6218092"/><path d="m20.1461124 18.9904808c.080923-.1756586.0769491-.3677367-.0108379-.5412267-.0357652-.0700156-.0834519-.1335253-.1412542-.1889801l-1.0144285 1.0970142c.0325138.0105333.0650275.0210666.09718.0319098.4230398.1428194.902798-.036247 1.0693406-.3987172"/></g></g></svg>