<svg height="46.061469" viewBox="0 0 31.040625 46.0614693" width="31.040625" xmlns="http://www.w3.org/2000/svg"><g fill="none" transform="translate(1.88 2.82)"><g fill="#ef5350"><path d="m17.2162039 18.967849c.2187099.083143.4469442.125396.6790588.125396.7679538 0 1.4459543-.4460418 1.727455-1.1360605.1816703-.445701.1728514-.9326328-.024693-1.3718595-.1453362-.3226903-.3799202-.5908605-.6769423-.7799768l-2.2428341 2.7321335c-.0550302.066787-.1125298.1315295-.1724986.193546.2398753.0691723.4765758.1478855.7104542.2368213zm-8.04605291-3.2500735c-1.02617247.4133297-1.99484543.9602335-2.88591166 1.6298072-3.05982127 2.3004033-4.83066549 5.7576528-4.85782784 9.4851171-.00023517.0138572-.00105827.0427074-.0024693.0865505 0 6.6865374 5.63177847 12.1266112 12.55394501 12.1266112 6.9182862 0 12.5475954-5.4339403 12.5539451-12.1157072-.0310427-1.0379245-.844855-1.803249-1.8558589-1.803249h-10.6980862c-1.0229976 0-1.8555061.8038293-1.8555061 1.792345 0 .9885158.8325085 1.7926858 1.8555061 1.7926858h8.7035935l-.3128961.905032c-1.2071373 3.4957543-4.5787965 5.8442034-8.3906974 5.8442034-4.87581846 0-8.84258007-3.8317338-8.84258007-8.5419212 0-3.9360033 2.77055986-7.2589973 6.52743057-8.2447871-.032101-.0347565-.0634964-.0701945-.0941863-.1066547zm-9.17029209 11.2014748c0-.016356.0008231-.0485.0024693-.0964322.03068993-4.1506758 2.00154783-7.9997879 5.40777727-10.5608649 1.14117152-.8580085 2.39875312-1.5350788 3.73782178-2.0128103l.47763408-.1707157 3.04747477 3.6211503c.3576964.4245745.8956521.6780925 1.4378408.6780925.5566518 0 1.093902-.2599923 1.4523039-.6954708l2.9190709-3.5564078.5277257.1952498c.0296317.0102225.0596161.0207857.0892477.0320305.8138123.3097417 1.4554788.907758 1.8043563 1.6836458.3492302.7758877.3651043 1.636963.0440947 2.4244362-.4970358 1.2195443-1.6953541 2.007699-3.0524134 2.007699-.4113156 0-.8152233-.0746242-1.2007876-.2208059-.8628456-.3284831-1.7768411-.494769-2.7165879-.494769-4.09093233 0-7.41849678 3.2146355-7.41849678 7.1659725 0 3.9513371 3.32756445 7.1663134 7.41849678 7.1663134 2.8566328 0 5.4187128-1.5722205 6.6551289-3.9983605h-6.6551289c-1.8082365 0-3.2795894-1.4209276-3.2795894-3.1679529 0-1.7466845 1.4713529-3.1679528 3.2795894-3.1679528h10.6980862c1.7877766 0 3.2270285 1.3531184 3.2757091 3.0800394.0024693.0299859.004233.0586089.004233.0879134 0 7.4450469-6.2706228 13.502219-13.9780283 13.502219-7.70740543 0-13.9780283-6.0571721-13.9780283-13.502219z"/><path d="m22.8206084 23.8775455h1.8555061c.6906998 0 1.3291914.199507 1.8558589.542336v-20.9684109c0-.75159962-.4998579-1.4231273-1.2441768-1.67074472-.1975444-.06560516-.4032022-.09924883-.6113293-.09924883-.5689984 0-1.0984879.24391661-1.452304.66883619l-9.1311359 10.95572516-9.37489166-10.972547c-.35381608-.4141536-.87836695-.65167791-1.43889911-.65167791-.21200745 0-.42154559.03431654-.62191203.10261319-.73761658.25030892-1.23324131.92015442-1.23324131 1.66704392v17.9909832c.87272283-1.6942952 2.12818788-3.2119613 3.71101219-4.4473569v-8.57378317l7.53772892 8.84391187c.3580492.4192002.8956521.6695091 1.4381936.6695091.5566518 0 1.093902-.2567012 1.4523039-.6866673l7.2572865-8.72985992zm3.7078374 3.2470722c.0826115-1.9372603-.8413274-2.5260811-1.8523313-2.5260811h-3.2795894v-12.181364l-4.7181357 5.6753509c-.6261451.751936-1.580355 1.2004062-2.55185 1.2004062-.9961881 0-1.9228829-.4266018-2.5578469-1.1701269l-5.00951373-5.8775494v4.4685524l-.27479834.2042171c-3.06017402 2.2709479-4.83066548 5.6844347-4.85782784 9.3647159l-1.42408329.0047101-.0024693-22.8359783c0-1.31984123.87589765-2.50409846 2.18004328-2.94684917.3545216-.12010791.72421179-.18100295 1.09919335-.18100295.99089669 0 1.91759147.41987301 2.54267831 1.15229574l8.25735486 9.66380818 8.0298261-9.63453819c.6257924-.75092674 1.5616588-1.18156573 2.5673714-1.18156573.3682791 0 .7316197.05887642 1.0804971.17494709 1.3154339.43770416 2.1990922 1.62465289 2.1990922 2.95290503v22.7808028c0 .0289335-.0017637.8630743-.0038803.891335z"/><path d="m24.9246829 2.80167209c-.2486544-.08417947-.5287399-.00338071-.6904351.19337612l-9.997862 12.17593429-10.25454867-12.18168148c-.16309214-.1937142-.44317755-.27113226-.69008577-.18593859-.24586051.08451754-.41209575.31203875-.41209575.56592943v13.33213424c.01362012-.014537.02758947-.028736.04120958-.043273.05098811-.0540912.1026747-.1078444.15471052-.1612595.04644808-.0486821.09289616-.0970261.14074118-.144694.05168659-.0524009.10442087-.1041256.15715516-.1555123.04889271-.0480059.09743619-.0960119.14737661-.1433417.05308352-.0507106.10756398-.1004068.16134596-.1504412.05063889-.0469918.10092854-.0939835.15226589-.1402991.05482969-.0490202.11035785-.0970262.16553677-.1453702.0405111-.0354974.08032375-.072009.12153332-.1071682v-10.46191871l6.0686337 7.22692551 3.5723114 4.2542746c.1250257.1484128.3045319.2380014.4798471.2380014h.0153663c.165886 0 .3460906-.0939834.4704178-.2454389l3.4493811-4.2113398 5.9219557-7.22996807v17.02757897h.6205882c.0946423 0 .1875385.0037187.2804346.0091279.0261926.0013522.0523851.0037187.0789268.0054091.0722914.0054091.1442336.0125086.2161757.0212984.0146678.0020284.0303833.0027046.0454004.004733v-18.77945844c0-.25558103-.1672829-.48344031-.4162865-.56761977"/><path d="m24.7200319 26.2132357h-4.4719373-6.1377821c-.342249 0-.6205882.2686643-.6205882.599354 0 .3303527.2783392.5993541.6205882.5993541h10.323697l-.8454947 2.446295c-1.3637576 3.9453543-5.1725002 6.5959286-9.4782023 6.5959286-5.50776449 0-9.9887819-4.3252599-9.9887819-9.6415777 0-3.8260228 2.32065784-7.1389878 5.67504743-8.6956904l-.00663548-.007416-.79485584-.9442018c-.61709592.3070931-1.20625318.6708181-1.76223319 1.0881411l-.00314308.0026968c-1.64768456 1.2371369-2.87733637 2.8487858-3.6012978 4.6616802-.10302394.2588886-.19626934.5218223-.27868848.788464-.29999174.969821-.45994077 1.9875094-.46762391 3.0284573 0 .0320239-.0010477.0637108-.00244464.0953977.00977855 5.9689328 5.04398214 10.8227569 11.23065689 10.8227569 6.1768962 0 11.2048136-4.8383178 11.2306569-10.7941038-.0013969-.0205628-.0024447-.0407885-.0024447-.0610141-.0097785-.3290043-.2811331-.5845219-.6184928-.5845219"/><path d="m18.9511961 17.8517009c.0761233-.1651251.0723851-.3456852-.0101951-.5087716-.0336438-.0658171-.0785022-.1255184-.132876-.1776478l-.9542602 1.0312308c.0305853.0099017.0611705.0198034.0914159.0299963.3979483.1342552.8492508-.0340734 1.0059154-.3748077"/></g><g fill="#000"><path d="m17.2162039 18.967849c.2187099.083143.4469442.125396.6790588.125396.7679538 0 1.4459543-.4460418 1.727455-1.1360605.1816703-.445701.1728514-.9326328-.024693-1.3718595-.1453362-.3226903-.3799202-.5908605-.6769423-.7799768l-2.2428341 2.7321335c-.0550302.066787-.1125298.1315295-.1724986.193546.2398753.0691723.4765758.1478855.7104542.2368213zm-8.04605291-3.2500735c-1.02617247.4133297-1.99484543.9602335-2.88591166 1.6298072-3.05982127 2.3004033-4.83066549 5.7576528-4.85782784 9.4851171-.00023517.0138572-.00105827.0427074-.0024693.0865505 0 6.6865374 5.63177847 12.1266112 12.55394501 12.1266112 6.9182862 0 12.5475954-5.4339403 12.5539451-12.1157072-.0310427-1.0379245-.844855-1.803249-1.8558589-1.803249h-10.6980862c-1.0229976 0-1.8555061.8038293-1.8555061 1.792345 0 .9885158.8325085 1.7926858 1.8555061 1.7926858h8.7035935l-.3128961.905032c-1.2071373 3.4957543-4.5787965 5.8442034-8.3906974 5.8442034-4.87581846 0-8.84258007-3.8317338-8.84258007-8.5419212 0-3.9360033 2.77055986-7.2589973 6.52743057-8.2447871-.032101-.0347565-.0634964-.0701945-.0941863-.1066547zm-9.17029209 11.2014748c0-.016356.0008231-.0485.0024693-.0964322.03068993-4.1506758 2.00154783-7.9997879 5.40777727-10.5608649 1.14117152-.8580085 2.39875312-1.5350788 3.73782178-2.0128103l.47763408-.1707157 3.04747477 3.6211503c.3576964.4245745.8956521.6780925 1.4378408.6780925.5566518 0 1.093902-.2599923 1.4523039-.6954708l2.9190709-3.5564078.5277257.1952498c.0296317.0102225.0596161.0207857.0892477.0320305.8138123.3097417 1.4554788.907758 1.8043563 1.6836458.3492302.7758877.3651043 1.636963.0440947 2.4244362-.4970358 1.2195443-1.6953541 2.007699-3.0524134 2.007699-.4113156 0-.8152233-.0746242-1.2007876-.2208059-.8628456-.3284831-1.7768411-.494769-2.7165879-.494769-4.09093233 0-7.41849678 3.2146355-7.41849678 7.1659725 0 3.9513371 3.32756445 7.1663134 7.41849678 7.1663134 2.8566328 0 5.4187128-1.5722205 6.6551289-3.9983605h-6.6551289c-1.8082365 0-3.2795894-1.4209276-3.2795894-3.1679529 0-1.7466845 1.4713529-3.1679528 3.2795894-3.1679528h10.6980862c1.7877766 0 3.2270285 1.3531184 3.2757091 3.0800394.0024693.0299859.004233.0586089.004233.0879134 0 7.4450469-6.2706228 13.502219-13.9780283 13.502219-7.70740543 0-13.9780283-6.0571721-13.9780283-13.502219z"/><path d="m22.8206084 23.8775455h1.8555061c.6906998 0 1.3291914.199507 1.8558589.542336v-20.9684109c0-.75159962-.4998579-1.4231273-1.2441768-1.67074472-.1975444-.06560516-.4032022-.09924883-.6113293-.09924883-.5689984 0-1.0984879.24391661-1.452304.66883619l-9.1311359 10.95572516-9.37489166-10.972547c-.35381608-.4141536-.87836695-.65167791-1.43889911-.65167791-.21200745 0-.42154559.03431654-.62191203.10261319-.73761658.25030892-1.23324131.92015442-1.23324131 1.66704392v17.9909832c.87272283-1.6942952 2.12818788-3.2119613 3.71101219-4.4473569v-8.57378317l7.53772892 8.84391187c.3580492.4192002.8956521.6695091 1.4381936.6695091.5566518 0 1.093902-.2567012 1.4523039-.6866673l7.2572865-8.72985992zm3.7078374 3.2470722c.0826115-1.9372603-.8413274-2.5260811-1.8523313-2.5260811h-3.2795894v-12.181364l-4.7181357 5.6753509c-.6261451.751936-1.580355 1.2004062-2.55185 1.2004062-.9961881 0-1.9228829-.4266018-2.5578469-1.1701269l-5.00951373-5.8775494v4.4685524l-.27479834.2042171c-3.06017402 2.2709479-4.83066548 5.6844347-4.85782784 9.3647159l-1.42408329.0047101-.0024693-22.8359783c0-1.31984123.87589765-2.50409846 2.18004328-2.94684917.3545216-.12010791.72421179-.18100295 1.09919335-.18100295.99089669 0 1.91759147.41987301 2.54267831 1.15229574l8.25735486 9.66380818 8.0298261-9.63453819c.6257924-.75092674 1.5616588-1.18156573 2.5673714-1.18156573.3682791 0 .7316197.05887642 1.0804971.17494709 1.3154339.43770416 2.1990922 1.62465289 2.1990922 2.95290503v22.7808028c0 .0289335-.0017637.8630743-.0038803.891335z"/><path d="m24.9246829 2.80167209c-.2486544-.08417947-.5287399-.00338071-.6904351.19337612l-9.997862 12.17593429-10.25454867-12.18168148c-.16309214-.1937142-.44317755-.27113226-.69008577-.18593859-.24586051.08451754-.41209575.31203875-.41209575.56592943v13.33213424c.01362012-.014537.02758947-.028736.04120958-.043273.05098811-.0540912.1026747-.1078444.15471052-.1612595.04644808-.0486821.09289616-.0970261.14074118-.144694.05168659-.0524009.10442087-.1041256.15715516-.1555123.04889271-.0480059.09743619-.0960119.14737661-.1433417.05308352-.0507106.10756398-.1004068.16134596-.1504412.05063889-.0469918.10092854-.0939835.15226589-.1402991.05482969-.0490202.11035785-.0970262.16553677-.1453702.0405111-.0354974.08032375-.072009.12153332-.1071682v-10.46191871l6.0686337 7.22692551 3.5723114 4.2542746c.1250257.1484128.3045319.2380014.4798471.2380014h.0153663c.165886 0 .3460906-.0939834.4704178-.2454389l3.4493811-4.2113398 5.9219557-7.22996807v17.02757897h.6205882c.0946423 0 .1875385.0037187.2804346.0091279.0261926.0013522.0523851.0037187.0789268.0054091.0722914.0054091.1442336.0125086.2161757.0212984.0146678.0020284.0303833.0027046.0454004.004733v-18.77945844c0-.25558103-.1672829-.48344031-.4162865-.56761977"/><path d="m24.7200319 26.2132357h-4.4719373-6.1377821c-.342249 0-.6205882.2686643-.6205882.599354 0 .3303527.2783392.5993541.6205882.5993541h10.323697l-.8454947 2.446295c-1.3637576 3.9453543-5.1725002 6.5959286-9.4782023 6.5959286-5.50776449 0-9.9887819-4.3252599-9.9887819-9.6415777 0-3.8260228 2.32065784-7.1389878 5.67504743-8.6956904l-.00663548-.007416-.79485584-.9442018c-.61709592.3070931-1.20625318.6708181-1.76223319 1.0881411l-.00314308.0026968c-1.64768456 1.2371369-2.87733637 2.8487858-3.6012978 4.6616802-.10302394.2588886-.19626934.5218223-.27868848.788464-.29999174.969821-.45994077 1.9875094-.46762391 3.0284573 0 .0320239-.0010477.0637108-.00244464.0953977.00977855 5.9689328 5.04398214 10.8227569 11.23065689 10.8227569 6.1768962 0 11.2048136-4.8383178 11.2306569-10.7941038-.0013969-.0205628-.0024447-.0407885-.0024447-.0610141-.0097785-.3290043-.2811331-.5845219-.6184928-.5845219"/><path d="m18.9511961 17.8517009c.0761233-.1651251.0723851-.3456852-.0101951-.5087716-.0336438-.0658171-.0785022-.1255184-.132876-.1776478l-.9542602 1.0312308c.0305853.0099017.0611705.0198034.0914159.0299963.3979483.1342552.8492508-.0340734 1.0059154-.3748077"/></g></g></svg>