<?xml version="1.0" encoding="UTF-8"?>
<svg width="28px" height="28px" viewBox="0 0 28 28" version="1.1" xmlns="http://www.w3.org/2000/svg" xmlns:xlink="http://www.w3.org/1999/xlink">
    <!-- Generator: Sketch 49.3 (51167) - http://www.bohemiancoding.com/sketch -->
    <desc>Created with Sketch.</desc>
    <defs></defs>
    <g id="Mariogogh_Index" stroke="none" stroke-width="1" fill="none" fill-rule="evenodd">
        <g id="Hover">
            <g id="Group">
                <circle id="Oval-2" fill="#EF5350" cx="14" cy="14" r="14"></circle>
                <path d="M16.3333333,19.5052083 C16.0781237,18.0407913 15.6527808,16.5277856 15.0572917,14.9661458 L15.0390625,14.9661458 L15.0208333,14.9752604 C14.9236106,15.0117189 14.7929696,15.0618486 14.6289062,15.125651 C14.4648429,15.1894534 14.1579884,15.3383235 13.7083333,15.5722656 C13.2586783,15.8062078 12.8424498,16.0553372 12.4596354,16.3196615 C12.076821,16.5839857 11.6788215,16.9318555 11.265625,17.3632812 C10.8524285,17.794707 10.5394976,18.2443553 10.3268229,18.7122396 L10.1901042,18.6119792 C11.3081653,19.5234421 12.5781179,19.9791667 14,19.9791667 C14.8020873,19.9791667 15.5798573,19.8211821 16.3333333,19.5052083 Z M14.6471354,13.9726562 C14.5195306,13.6749117 14.3585079,13.3376755 14.1640625,12.9609375 C12.2742961,13.5260445 10.2296117,13.8085938 8.02994792,13.8085938 C8.0238715,13.8511287 8.02083333,13.9149301 8.02083333,14 C8.02083333,14.753476 8.15451255,15.4720018 8.421875,16.155599 C8.68923745,16.8391961 9.06596979,17.4513862 9.55208333,17.9921875 C9.8559043,17.4513862 10.2311176,16.9455319 10.6777344,16.4746094 C11.1243512,16.0036869 11.5572896,15.6254355 11.9765625,15.3398438 C12.3958354,15.054252 12.7923158,14.8081608 13.1660156,14.6015625 C13.5397154,14.3949642 13.8420127,14.2491324 14.0729167,14.1640625 L14.4101562,14.0455729 C14.4344619,14.0394965 14.4739581,14.0288629 14.5286458,14.0136719 C14.5833336,13.9984808 14.6228297,13.9848091 14.6471354,13.9726562 Z M13.671875,12.0403646 C12.9427047,10.7460873 12.2013927,9.59766126 11.4479167,8.59505208 C10.6093708,8.99001934 9.89844042,9.55511785 9.31510417,10.2903646 C8.73176792,11.0256113 8.34288292,11.8519919 8.1484375,12.7695312 C9.98351612,12.7695312 11.8246435,12.5264781 13.671875,12.0403646 Z M19.90625,14.9479167 C18.630202,14.5833315 17.3875929,14.4952248 16.1783854,14.6835938 C16.7070339,16.135858 17.0959189,17.5607569 17.3450521,18.9583333 C18.0195346,18.5026019 18.581595,17.9268698 19.03125,17.2311198 C19.480905,16.5353698 19.7725688,15.7743097 19.90625,14.9479167 Z M12.5690104,8.19401042 C12.562934,8.19401042 12.5568577,8.19704858 12.5507812,8.203125 C12.5568577,8.19704858 12.562934,8.19401042 12.5690104,8.19401042 Z M17.9466146,9.515625 C16.822477,8.51909224 15.506952,8.02083333 14,8.02083333 C13.5381921,8.02083333 13.0672767,8.07855845 12.5872396,8.19401042 C13.3832505,9.22700169 14.1306389,10.3875804 14.8294271,11.6757812 C15.2487,11.5177943 15.6436613,11.3339854 16.0143229,11.124349 C16.3849845,10.9147125 16.6781673,10.7278654 16.8938802,10.5638021 C17.1095931,10.3997388 17.3085928,10.2265634 17.4908854,10.0442708 C17.673178,9.86197826 17.7871091,9.73893261 17.8326823,9.67513021 L17.9466146,9.515625 Z M19.9791667,13.9361979 C19.9609374,12.5264686 19.508251,11.2808214 18.6210938,10.1992188 L18.6119792,10.2083333 C18.5572914,10.2812504 18.4995663,10.3556854 18.4388021,10.4316406 C18.3780379,10.5075959 18.2458778,10.6427942 18.0423177,10.8372396 C17.8387577,11.031685 17.623048,11.2154939 17.3951823,11.3886719 C17.1673166,11.5618498 16.8635002,11.7593305 16.483724,11.9811198 C16.1039478,12.2029091 15.7044292,12.3988707 15.2851562,12.5690104 C15.4370667,12.8910606 15.570746,13.1796862 15.6861979,13.4348958 C15.6983508,13.4713543 15.7180988,13.5245222 15.7454427,13.594401 C15.7727866,13.6642799 15.7955728,13.7144096 15.8138021,13.7447917 C16.0325532,13.7144096 16.2588964,13.6931424 16.4928385,13.6809896 C16.7267807,13.6688367 16.9500857,13.6627604 17.1627604,13.6627604 C17.3754351,13.6627604 17.5850684,13.6673177 17.7916667,13.6764323 C17.9982649,13.6855469 18.1927074,13.6976996 18.375,13.7128906 C18.5572926,13.7280817 18.7289488,13.7447916 18.889974,13.7630208 C19.0509991,13.7812501 19.1968309,13.8009982 19.327474,13.8222656 C19.458117,13.8435331 19.56901,13.8617621 19.6601562,13.8769531 C19.7513025,13.8921442 19.8272566,13.9058159 19.8880208,13.9179688 L19.9791667,13.9361979 Z M20.0611979,10.4908854 C20.6870691,11.5603352 21,12.7300284 21,14 C21,15.2699716 20.6870691,16.4411839 20.0611979,17.5136719 C19.4353267,18.5861599 18.5861599,19.4353267 17.5136719,20.0611979 C16.4411839,20.6870691 15.2699716,21 14,21 C12.7300284,21 11.5588161,20.6870691 10.4863281,20.0611979 C9.41384012,19.4353267 8.56467327,18.5861599 7.93880208,17.5136719 C7.3129309,16.4411839 7,15.2699716 7,14 C7,12.7300284 7.3129309,11.5588161 7.93880208,10.4863281 C8.56467327,9.41384012 9.41384012,8.56467327 10.4863281,7.93880208 C11.5588161,7.3129309 12.7300284,7 14,7 C15.2699716,7 16.4411839,7.3129309 17.5136719,7.93880208 C18.5861599,8.56467327 19.4353267,9.41535921 20.0611979,10.4908854 Z" id="dribbble---FontAwesome" fill="#FFFFFF"></path>
            </g>
        </g>
    </g>
</svg>