<?xml version="1.0" encoding="UTF-8"?>
<svg width="545px" height="54px" viewBox="0 0 545 54" version="1.1" xmlns="http://www.w3.org/2000/svg" xmlns:xlink="http://www.w3.org/1999/xlink">
    <!-- Generator: Sketch 49.3 (51167) - http://www.bohemiancoding.com/sketch -->
    <desc>Created with Sketch.</desc>
    <defs></defs>
    <g id="Mariogogh_Index" stroke="none" stroke-width="1" fill="none" fill-rule="evenodd">
        <path d="M0,0.97354681 L8.13197924,0.97354681 L8.13197924,16.3784934 L8.30378162,16.3784934 C9.33460104,14.660461 10.6517394,13.410134 12.2552363,12.6274748 C13.8587332,11.8448156 15.4240281,11.4534919 16.951168,11.4534919 C19.1273423,11.4534919 20.9121603,11.7493708 22.3056754,12.3411375 C23.6991906,12.9329042 24.7968059,13.7537296 25.5985544,14.8036383 C26.4003028,15.8535469 26.9634272,17.1325074 27.2879444,18.640558 C27.6124616,20.1486087 27.7747178,21.8188929 27.7747178,23.6514607 L27.7747178,41.8625128 L19.6427386,41.8625128 L19.6427386,25.1404147 C19.6427386,22.6969909 19.2609593,20.873995 18.4973894,19.6713723 C17.7338194,18.4687497 16.3785031,17.8674473 14.4313998,17.8674473 C12.2170469,17.8674473 10.6135741,18.5260165 9.62093318,19.8431747 C8.62829226,21.1603328 8.13197924,23.3269301 8.13197924,26.3430313 L8.13197924,41.8625128 L0,41.8625128 L0,0.97354681 Z M50.6673793,23.8805306 C50.2855943,21.8188917 49.6079361,20.2535968 48.6343845,19.1845989 C47.6608328,18.115601 46.1814382,17.58111 44.1961563,17.58111 C42.8980874,17.58111 41.8195611,17.8006331 40.9605449,18.2396858 C40.1015287,18.6787385 39.4143261,19.222774 38.8989164,19.8718084 C38.3835066,20.5208429 38.0208164,21.2080455 37.8108346,21.933437 C37.6008529,22.6588284 37.4767746,23.3078531 37.4385961,23.8805306 L50.6673793,23.8805306 Z M37.4385961,29.0346019 C37.5531316,31.6689182 38.2212453,33.5778145 39.4429572,34.7613479 C40.6646691,35.9448813 42.4208537,36.5366391 44.7115635,36.5366391 C46.3532389,36.5366391 47.7658221,36.1262264 48.9493555,35.3053887 C50.1328889,34.484551 50.8582695,33.6160033 51.1255189,32.6997193 L58.2839514,32.6997193 C57.1385964,36.2503196 55.3824119,38.7891515 53.0153451,40.3162914 C50.6482783,41.8434313 47.7849339,42.6069898 44.4252262,42.6069898 C42.0963379,42.6069898 39.996552,42.234755 38.1258056,41.4902744 C36.2550593,40.7457937 34.6706754,39.6863563 33.3726065,38.3119304 C32.0745376,36.9375045 31.0723671,35.2958537 30.3660649,33.3869288 C29.6597627,31.478004 29.3066169,29.3782181 29.3066169,27.0875083 C29.3066169,24.8731555 29.6693072,22.8115475 30.3946986,20.9026227 C31.1200901,18.9936978 32.150894,17.3425026 33.4871414,15.9489874 C34.8233888,14.5554723 36.4173172,13.457857 38.2689743,12.6561085 C40.1206314,11.8543601 42.1726949,11.4534919 44.4252262,11.4534919 C46.945007,11.4534919 49.1402377,11.9402604 51.010984,12.9138121 C52.8817304,13.8873638 54.4183918,15.1949577 55.6210145,16.8366331 C56.8236372,18.4783084 57.6921849,20.3490267 58.2266839,22.4488441 C58.7611829,24.5486614 58.9520725,26.7438921 58.7993585,29.0346019 L37.4385961,29.0346019 Z M60.6175949,0.97354681 L68.7495741,0.97354681 L68.7495741,41.8625128 L60.6175949,41.8625128 L60.6175949,0.97354681 Z M72.1712994,0.97354681 L80.3032786,0.97354681 L80.3032786,41.8625128 L72.1712994,41.8625128 L72.1712994,0.97354681 Z M90.7116339,27.0875083 C90.7116339,28.2710417 90.8261677,29.4259239 91.0552386,30.5521896 C91.2843096,31.6784553 91.6756333,32.6901703 92.2292216,33.587365 C92.7828098,34.4845596 93.5177348,35.2003957 94.4340187,35.7348947 C95.3503027,36.2693936 96.4956404,36.5366391 97.8700663,36.5366391 C99.2444922,36.5366391 100.399374,36.2693936 101.334748,35.7348947 C102.270121,35.2003957 103.01459,34.4845596 103.568179,33.587365 C104.121767,32.6901703 104.51309,31.6784553 104.742161,30.5521896 C104.971232,29.4259239 105.085766,28.2710417 105.085766,27.0875083 C105.085766,25.9039749 104.971232,24.7395482 104.742161,23.5941933 C104.51309,22.4488384 104.121767,21.4371234 103.568179,20.5590179 C103.01459,19.6809125 102.270121,18.9650764 101.334748,18.4114882 C100.399374,17.8579 99.2444922,17.58111 97.8700663,17.58111 C96.4956404,17.58111 95.3503027,17.8579 94.4340187,18.4114882 C93.5177348,18.9650764 92.7828098,19.6809125 92.2292216,20.5590179 C91.6756333,21.4371234 91.2843096,22.4488384 91.0552386,23.5941933 C90.8261677,24.7395482 90.7116339,25.9039749 90.7116339,27.0875083 Z M82.5796546,27.0875083 C82.5796546,24.7204415 82.9423449,22.5729332 83.6677364,20.6449191 C84.3931278,18.716905 85.4239318,17.0752543 86.7601792,15.7199176 C88.0964266,14.364581 89.6998994,13.314688 91.5706458,12.5702073 C93.4413921,11.8257266 95.541178,11.4534919 97.8700663,11.4534919 C100.198955,11.4534919 102.308285,11.8257266 104.198121,12.5702073 C106.087956,13.314688 107.700973,14.364581 109.037221,15.7199176 C110.373468,17.0752543 111.404272,18.716905 112.129664,20.6449191 C112.855055,22.5729332 113.217745,24.7204415 113.217745,27.0875083 C113.217745,29.4545751 112.855055,31.5925389 112.129664,33.5014638 C111.404272,35.4103886 110.373468,37.0424949 109.037221,38.3978315 C107.700973,39.7531682 106.087956,40.7935166 104.198121,41.5189081 C102.308285,42.2442995 100.198955,42.6069898 97.8700663,42.6069898 C95.541178,42.6069898 93.4413921,42.2442995 91.5706458,41.5189081 C89.6998994,40.7935166 88.0964266,39.7531682 86.7601792,38.3978315 C85.4239318,37.0424949 84.3931278,35.4103886 83.6677364,33.5014638 C82.9423449,31.5925389 82.5796546,29.4545751 82.5796546,27.0875083 Z M144.185119,25.426752 C144.070583,25.808537 143.965594,26.2189496 143.870148,26.6580024 C143.774701,27.0970551 143.726979,27.5074678 143.726979,27.8892527 C143.726979,28.2710377 143.803335,28.5860056 143.956049,28.8341658 C144.108763,29.082326 144.356919,29.2064043 144.700526,29.2064043 C145.502274,29.2064043 146.313555,28.9487033 147.134393,28.4332936 C147.95523,27.9178839 148.680611,27.1925033 149.310556,26.2571301 C149.940501,25.321757 150.455903,24.2050527 150.856778,22.9069838 C151.257652,21.6089149 151.458086,20.1963317 151.458086,18.6691918 C151.458086,16.3784819 151.057218,14.3645964 150.255469,12.6274748 C149.453721,10.8903532 148.356106,9.42050309 146.96259,8.21788043 C145.569075,7.01525777 143.927425,6.10853206 142.037589,5.4976761 C140.147753,4.88682015 138.114779,4.58139675 135.938604,4.58139675 C133.495181,4.58139675 131.271317,5.0108984 129.266945,5.86991459 C127.262574,6.72893078 125.554112,7.91244644 124.141508,9.42049707 C122.728903,10.9285477 121.640833,12.7229102 120.877263,14.8036383 C120.113693,16.8843664 119.731913,19.1273194 119.731913,21.5325647 C119.731913,24.0523456 120.151871,26.3334765 120.991798,28.3760261 C121.831725,30.4185757 122.996151,32.1747603 124.485113,33.6446324 C125.974074,35.1145046 127.758892,36.2502978 129.83962,37.0520462 C131.920348,37.8537947 134.18239,38.2546629 136.625814,38.2546629 C139.031059,38.2546629 141.31219,37.8442502 143.469275,37.0234125 C145.62636,36.2025748 147.449356,35.0476926 148.938318,33.5587312 L153.748784,33.5587312 C151.801681,36.536654 149.301027,38.817785 146.246747,40.4021926 C143.192467,41.9866003 139.870988,42.7787922 136.282209,42.7787922 C133.227929,42.7787922 130.364585,42.2443012 127.69209,41.1753033 C125.019596,40.1063054 122.681198,38.6173663 120.676827,36.7084415 C118.672455,34.7995166 117.097616,32.5374746 115.952261,29.9222475 C114.806906,27.3070205 114.234237,24.4723096 114.234237,21.4180298 C114.234237,18.4019285 114.806906,15.5863066 115.952261,12.9710796 C117.097616,10.3558525 118.662911,8.09381048 120.648193,6.18488562 C122.633475,4.27596076 124.943239,2.76793274 127.577555,1.66075632 C130.211872,0.553579905 133.017949,0 135.995872,0 C138.59201,0 141.092664,0.419957169 143.497909,1.25988411 C145.903154,2.09981105 148.022029,3.27378222 149.854597,4.78183286 C151.687165,6.2898835 153.157015,8.12242388 154.264192,10.279509 C155.371368,12.4365941 155.924948,14.8322588 155.924948,17.4665751 C155.924948,20.4063194 155.400001,22.9260624 154.350093,25.0258798 C153.300184,27.1256971 152.040313,28.8437037 150.57044,30.1799511 C149.100568,31.5161985 147.611629,32.4992801 146.103579,33.1292253 C144.595528,33.7591705 143.383379,34.0741384 142.467095,34.0741384 C141.245383,34.0741384 140.262301,33.768715 139.517821,33.157859 C138.77334,32.547003 138.362927,31.7643556 138.28657,30.8098932 L138.172035,30.8098932 C137.484822,31.9552481 136.587641,32.7951624 135.480465,33.3296614 C134.373288,33.8641603 133.208862,34.1314058 131.98715,34.1314058 C130.765438,34.1314058 129.610556,33.8737048 128.522468,33.3582951 C127.434381,32.8428854 126.479933,32.1365938 125.659096,31.2393991 C124.838258,30.3422044 124.189233,29.301856 123.712002,28.1183226 C123.234771,26.9347892 122.996159,25.6749177 122.996159,24.3386703 C122.996159,22.5442809 123.292038,20.7690074 123.883804,19.0127965 C124.475571,17.2565857 125.315485,15.6912908 126.403572,14.3168649 C127.49166,12.942439 128.808798,11.8352791 130.355027,10.9953522 C131.901256,10.1554253 133.609718,9.7354681 135.480465,9.7354681 C136.702177,9.7354681 137.962048,10.031347 139.260117,10.6231137 C140.558186,11.2148804 141.531723,12.2552289 142.180758,13.7441903 L143.097037,10.6517475 L147.792969,10.6517475 L144.185119,25.426752 Z M128.83744,23.5941933 C128.83744,25.1213332 129.247852,26.3525712 130.06869,27.2879444 C130.889528,28.2233176 131.968054,28.6909972 133.304301,28.6909972 C134.335121,28.6909972 135.280024,28.4237517 136.139041,27.8892527 C136.998057,27.3547538 137.742526,26.6770956 138.372472,25.8562579 C139.002417,25.0354202 139.489185,24.1096056 139.832792,23.0787861 C140.176398,22.0479667 140.348199,21.0362517 140.348199,20.0436108 C140.348199,18.6310064 139.918697,17.4665797 139.059681,16.5502958 C138.200665,15.6340118 137.160316,15.1758767 135.938604,15.1758767 C134.907785,15.1758767 133.953337,15.4335777 133.075232,15.9489874 C132.197126,16.4643972 131.443112,17.1325108 130.813167,17.9533485 C130.183222,18.7741862 129.696453,19.6809119 129.352847,20.6735529 C129.00924,21.6661938 128.83744,22.6397309 128.83744,23.5941933 Z M158.086789,12.2552363 L165.760629,12.2552363 L165.760629,16.2639585 L165.875163,16.2639585 C166.944161,14.7368186 168.232666,13.5533029 169.740717,12.713376 C171.248768,11.8734491 172.976319,11.4534919 174.923422,11.4534919 C176.794168,11.4534919 178.502631,11.8161822 180.04886,12.5415736 C181.595089,13.2669651 182.76906,14.5459255 183.570808,16.3784934 C184.448914,15.0804245 185.641974,13.9350868 187.150025,12.9424458 C188.658075,11.9498049 190.442893,11.4534919 192.504532,11.4534919 C194.06985,11.4534919 195.520612,11.6443815 196.856859,12.0261665 C198.193106,12.4079515 199.338444,13.0187982 200.292907,13.8587252 C201.247369,14.6986521 201.991839,15.7962674 202.526337,17.1516041 C203.060836,18.5069407 203.328082,20.139047 203.328082,22.0479719 L203.328082,41.8625128 L195.196103,41.8625128 L195.196103,25.0831472 C195.196103,24.0905063 195.157925,23.1551471 195.081568,22.2770417 C195.005211,21.3989363 194.795232,20.6353778 194.451626,19.9863433 C194.108019,19.3373089 193.602162,18.8219069 192.934038,18.4401219 C192.265914,18.058337 191.359189,17.8674473 190.213834,17.8674473 C189.068479,17.8674473 188.142664,18.0869704 187.436362,18.5260231 C186.73006,18.9650758 186.17648,19.5377447 185.775606,20.2440469 C185.374731,20.9503491 185.107486,21.7520855 184.973861,22.6492802 C184.840236,23.5464749 184.773425,24.4532006 184.773425,25.3694845 L184.773425,41.8625128 L176.641446,41.8625128 L176.641446,25.2549496 C176.641446,24.3768442 176.622357,23.5082964 176.584178,22.6492802 C176.546,21.790264 176.383744,20.9980721 176.097405,20.2726806 C175.811066,19.5472892 175.333842,18.9650758 174.665718,18.5260231 C173.997595,18.0869704 173.014513,17.8674473 171.716444,17.8674473 C171.334659,17.8674473 170.828802,17.9533477 170.198857,18.1251509 C169.568911,18.2969541 168.958065,18.6214665 168.366298,19.0986977 C167.774531,19.5759289 167.268674,20.2631316 166.84871,21.1603263 C166.428747,22.0575209 166.218768,23.2314921 166.218768,24.682275 L166.218768,41.8625128 L158.086789,41.8625128 L158.086789,12.2552363 Z M206.177133,21.3607624 C206.291668,19.4518375 206.768892,17.8674536 207.608819,16.6075632 C208.448746,15.3476728 209.517728,14.3359578 210.815797,13.5723879 C212.113866,12.8088179 213.574171,12.2647825 215.196757,11.9402653 C216.819344,11.6157481 218.45145,11.4534919 220.093125,11.4534919 C221.582087,11.4534919 223.090115,11.5584812 224.617254,11.7684629 C226.144394,11.9784446 227.537889,12.3888573 228.797779,12.9997133 C230.057669,13.6105692 231.088473,14.4600281 231.890222,15.5481152 C232.69197,16.6362024 233.092838,18.0774191 233.092838,19.8718084 L233.092838,35.276755 C233.092838,36.6130024 233.169194,37.8919629 233.321908,39.1136748 C233.474622,40.3353867 233.741868,41.2516569 234.123653,41.8625128 L225.877139,41.8625128 C225.724425,41.4043709 225.600346,40.9366913 225.5049,40.4594601 C225.409454,39.9822289 225.342642,39.4954603 225.304464,38.9991399 C224.006395,40.3353873 222.479278,41.2707464 220.723067,41.8052454 C218.966856,42.3397443 217.172494,42.6069898 215.339926,42.6069898 C213.927322,42.6069898 212.610183,42.4351891 211.388471,42.0915827 C210.166759,41.7479762 209.097778,41.2134853 208.181494,40.4880938 C207.26521,39.7627024 206.549374,38.8464322 206.033964,37.7392558 C205.518554,36.6320793 205.260853,35.3149409 205.260853,33.7878011 C205.260853,32.1079472 205.556732,30.7239974 206.148499,29.6359103 C206.740266,28.5478231 207.503824,27.6792753 208.439197,27.0302408 C209.37457,26.3812064 210.443552,25.8944379 211.646175,25.5699206 C212.848798,25.2454034 214.060947,24.9877024 215.282659,24.7968099 C216.504371,24.6059174 217.706975,24.4532057 218.890509,24.3386703 C220.074042,24.2241348 221.123935,24.0523341 222.040219,23.8232631 C222.956503,23.5941921 223.681883,23.2601353 224.216382,22.8210826 C224.750881,22.3820299 224.999038,21.7425496 224.960859,20.9026227 C224.960859,20.0245173 224.817692,19.3277701 224.531353,18.8123604 C224.245015,18.2969507 223.863235,17.8960825 223.386004,17.6097438 C222.908773,17.323405 222.355193,17.1325154 221.725248,17.0370692 C221.095303,16.9416229 220.417644,16.8939005 219.692253,16.8939005 C218.088756,16.8939005 216.828885,17.2375018 215.912601,17.9247148 C214.996317,18.6119277 214.461826,19.7572655 214.309112,21.3607624 L206.177133,21.3607624 Z M224.960859,27.3738456 C224.617253,27.6792736 224.187751,27.9178856 223.672341,28.0896888 C223.156932,28.2614921 222.603352,28.4046593 222.011585,28.5191948 C221.419818,28.6337303 220.799427,28.7291751 220.150393,28.8055321 C219.501358,28.8818891 218.852333,28.9773339 218.203299,29.0918694 C217.592443,29.2064049 216.991141,29.3591166 216.399374,29.5500091 C215.807607,29.7409015 215.292205,29.9986025 214.853153,30.3231198 C214.4141,30.647637 214.060954,31.0580497 213.793705,31.5543701 C213.526455,32.0506906 213.392832,32.6806264 213.392832,33.4441963 C213.392832,34.1695877 213.526455,34.7804345 213.793705,35.276755 C214.060954,35.7730755 214.423644,36.1643992 214.881786,36.4507379 C215.339928,36.7370767 215.874419,36.9375108 216.485275,37.0520462 C217.096131,37.1665817 217.726067,37.2238486 218.375101,37.2238486 C219.978598,37.2238486 221.219381,36.9566032 222.097486,36.4221042 C222.975592,35.8876052 223.624616,35.248125 224.04458,34.5036443 C224.464543,33.7591636 224.722244,33.0051496 224.817691,32.2415797 C224.913137,31.4780097 224.960859,30.8671629 224.960859,30.409021 L224.960859,27.3738456 Z M236.170959,12.2552363 L243.902066,12.2552363 L243.902066,17.7529124 L244.016601,17.7529124 C244.398386,16.8366285 244.913788,15.9871697 245.562822,15.2045105 C246.211857,14.4218513 246.956326,13.7537376 247.796253,13.2001494 C248.63618,12.6465612 249.533361,12.2170595 250.487824,11.9116316 C251.442286,11.6062036 252.434912,11.4534919 253.465732,11.4534919 C254.000231,11.4534919 254.591988,11.5489367 255.241023,11.7398292 L255.241023,19.2991338 C254.859238,19.2227768 254.401103,19.1559655 253.866604,19.0986977 C253.332105,19.04143 252.816703,19.0127965 252.320383,19.0127965 C250.831421,19.0127965 249.57155,19.260953 248.54073,19.7572735 C247.509911,20.253594 246.679541,20.9312521 246.049596,21.7902683 C245.419651,22.6492845 244.97106,23.651455 244.70381,24.7968099 C244.436561,25.9421648 244.302938,27.1829474 244.302938,28.5191948 L244.302938,41.8625128 L236.170959,41.8625128 L236.170959,12.2552363 Z M264.280536,7.67383956 L256.148557,7.67383956 L256.148557,0.97354681 L264.280536,0.97354681 L264.280536,7.67383956 Z M256.148557,12.2552363 L264.280536,12.2552363 L264.280536,41.8625128 L256.148557,41.8625128 L256.148557,12.2552363 Z M273.996105,27.0875083 C273.996105,28.2710417 274.110639,29.4259239 274.33971,30.5521896 C274.568781,31.6784553 274.960104,32.6901703 275.513693,33.587365 C276.067281,34.4845596 276.802206,35.2003957 277.71849,35.7348947 C278.634774,36.2693936 279.780112,36.5366391 281.154537,36.5366391 C282.528963,36.5366391 283.683846,36.2693936 284.619219,35.7348947 C285.554592,35.2003957 286.299061,34.4845596 286.85265,33.587365 C287.406238,32.6901703 287.797562,31.6784553 288.026633,30.5521896 C288.255704,29.4259239 288.370237,28.2710417 288.370237,27.0875083 C288.370237,25.9039749 288.255704,24.7395482 288.026633,23.5941933 C287.797562,22.4488384 287.406238,21.4371234 286.85265,20.5590179 C286.299061,19.6809125 285.554592,18.9650764 284.619219,18.4114882 C283.683846,17.8579 282.528963,17.58111 281.154537,17.58111 C279.780112,17.58111 278.634774,17.8579 277.71849,18.4114882 C276.802206,18.9650764 276.067281,19.6809125 275.513693,20.5590179 C274.960104,21.4371234 274.568781,22.4488384 274.33971,23.5941933 C274.110639,24.7395482 273.996105,25.9039749 273.996105,27.0875083 Z M265.864126,27.0875083 C265.864126,24.7204415 266.226816,22.5729332 266.952207,20.6449191 C267.677599,18.716905 268.708403,17.0752543 270.04465,15.7199176 C271.380898,14.364581 272.984371,13.314688 274.855117,12.5702073 C276.725863,11.8257266 278.825649,11.4534919 281.154537,11.4534919 C283.483426,11.4534919 285.592756,11.8257266 287.482592,12.5702073 C289.372427,13.314688 290.985445,14.364581 292.321692,15.7199176 C293.657939,17.0752543 294.688743,18.716905 295.414135,20.6449191 C296.139526,22.5729332 296.502217,24.7204415 296.502217,27.0875083 C296.502217,29.4545751 296.139526,31.5925389 295.414135,33.5014638 C294.688743,35.4103886 293.657939,37.0424949 292.321692,38.3978315 C290.985445,39.7531682 289.372427,40.7935166 287.482592,41.5189081 C285.592756,42.2442995 283.483426,42.6069898 281.154537,42.6069898 C278.825649,42.6069898 276.725863,42.2442995 274.855117,41.5189081 C272.984371,40.7935166 271.380898,39.7531682 270.04465,38.3978315 C268.708403,37.0424949 267.677599,35.4103886 266.952207,33.5014638 C266.226816,31.5925389 265.864126,29.4545751 265.864126,27.0875083 Z M312.35098,34.8758828 C313.496335,34.8758828 314.50805,34.6468152 315.386156,34.1886733 C316.264261,33.7305313 316.989642,33.1196845 317.562319,32.3561146 C318.134997,31.5925446 318.564498,30.7239968 318.850837,29.7504452 C319.137176,28.7768935 319.280343,27.755634 319.280343,26.6866361 C319.280343,25.4649242 319.165809,24.310042 318.936738,23.2219548 C318.707667,22.1338676 318.325888,21.169875 317.791389,20.3299481 C317.25689,19.4900212 316.550599,18.8219075 315.672493,18.325587 C314.794388,17.8292666 313.687228,17.58111 312.35098,17.58111 C311.205626,17.58111 310.222544,17.8101776 309.401706,18.2683196 C308.580869,18.7264615 307.893666,19.3468528 307.340078,20.129512 C306.78649,20.9121712 306.385621,21.8093524 306.137461,22.8210826 C305.889301,23.8328128 305.765223,24.8922502 305.765223,25.9994266 C305.765223,27.0684245 305.870212,28.1278619 306.080194,29.1777706 C306.290175,30.2276792 306.652866,31.1725829 307.168275,32.0125098 C307.683685,32.8524368 308.361343,33.5396394 309.20127,34.0741384 C310.041197,34.6086373 311.09109,34.8758828 312.35098,34.8758828 Z M327.01145,39.9726867 C327.01145,41.1562201 326.849194,42.5115364 326.524677,44.0386763 C326.200159,45.5658162 325.503412,46.9879439 324.434414,48.305102 C323.365416,49.6222602 321.819211,50.7389645 319.79575,51.6552484 C317.77229,52.5715323 315.061657,53.0296674 311.663771,53.0296674 C310.212988,53.0296674 308.733593,52.8483223 307.225543,52.4856266 C305.717492,52.1229308 304.343087,51.5598064 303.102286,50.7962365 C301.861485,50.0326666 300.830681,49.049585 300.009843,47.8469623 C299.189005,46.6443397 298.721326,45.203123 298.60679,43.5232692 L306.681502,43.5232692 C307.063287,45.050409 307.807756,46.1098465 308.914933,46.7016132 C310.022109,47.2933799 311.30107,47.5892588 312.751853,47.5892588 C315.042563,47.5892588 316.712847,46.9020561 317.762755,45.5276302 C318.812664,44.1532043 319.318522,42.4161088 319.280343,40.3162914 L319.280343,36.4221042 L319.165808,36.4221042 C318.287703,37.9874226 317.037376,39.1423048 315.41479,39.8867855 C313.792203,40.6312662 312.083741,41.0035009 310.289352,41.0035009 C308.074999,41.0035009 306.166103,40.6121772 304.562606,39.829518 C302.959109,39.0468588 301.641971,37.9778769 300.611151,36.6225403 C299.580332,35.2672036 298.826318,33.6828198 298.349087,31.8693412 C297.871855,30.0558626 297.633243,28.1374218 297.633243,26.1139615 C297.633243,24.2050366 297.910033,22.3629518 298.463622,20.5876517 C299.01721,18.8123515 299.828491,17.2470566 300.897489,15.89172 C301.966487,14.5363833 303.293169,13.457857 304.877577,12.6561085 C306.461985,11.8543601 308.284981,11.4534919 310.346619,11.4534919 C312.293723,11.4534919 314.002185,11.8161822 315.472057,12.5415736 C316.941929,13.2669651 318.173167,14.4886586 319.165808,16.206691 L319.280343,16.206691 L319.280343,12.2552363 L327.01145,12.2552363 L327.01145,39.9726867 Z M337.53434,27.0875083 C337.53434,28.2710417 337.648874,29.4259239 337.877945,30.5521896 C338.107016,31.6784553 338.49834,32.6901703 339.051928,33.587365 C339.605516,34.4845596 340.340441,35.2003957 341.256725,35.7348947 C342.173009,36.2693936 343.318347,36.5366391 344.692773,36.5366391 C346.067199,36.5366391 347.222081,36.2693936 348.157454,35.7348947 C349.092827,35.2003957 349.837297,34.4845596 350.390885,33.587365 C350.944473,32.6901703 351.335797,31.6784553 351.564868,30.5521896 C351.793939,29.4259239 351.908473,28.2710417 351.908473,27.0875083 C351.908473,25.9039749 351.793939,24.7395482 351.564868,23.5941933 C351.335797,22.4488384 350.944473,21.4371234 350.390885,20.5590179 C349.837297,19.6809125 349.092827,18.9650764 348.157454,18.4114882 C347.222081,17.8579 346.067199,17.58111 344.692773,17.58111 C343.318347,17.58111 342.173009,17.8579 341.256725,18.4114882 C340.340441,18.9650764 339.605516,19.6809125 339.051928,20.5590179 C338.49834,21.4371234 338.107016,22.4488384 337.877945,23.5941933 C337.648874,24.7395482 337.53434,25.9039749 337.53434,27.0875083 Z M329.402361,27.0875083 C329.402361,24.7204415 329.765051,22.5729332 330.490443,20.6449191 C331.215834,18.716905 332.246638,17.0752543 333.582886,15.7199176 C334.919133,14.364581 336.522606,13.314688 338.393352,12.5702073 C340.264099,11.8257266 342.363884,11.4534919 344.692773,11.4534919 C347.021661,11.4534919 349.130991,11.8257266 351.020827,12.5702073 C352.910663,13.314688 354.52368,14.364581 355.859927,15.7199176 C357.196175,17.0752543 358.226979,18.716905 358.95237,20.6449191 C359.677762,22.5729332 360.040452,24.7204415 360.040452,27.0875083 C360.040452,29.4545751 359.677762,31.5925389 358.95237,33.5014638 C358.226979,35.4103886 357.196175,37.0424949 355.859927,38.3978315 C354.52368,39.7531682 352.910663,40.7935166 351.020827,41.5189081 C349.130991,42.2442995 347.021661,42.6069898 344.692773,42.6069898 C342.363884,42.6069898 340.264099,42.2442995 338.393352,41.5189081 C336.522606,40.7935166 334.919133,39.7531682 333.582886,38.3978315 C332.246638,37.0424949 331.215834,35.4103886 330.490443,33.5014638 C329.765051,31.5925389 329.402361,29.4545751 329.402361,27.0875083 Z M375.889216,34.8758828 C377.034571,34.8758828 378.046286,34.6468152 378.924391,34.1886733 C379.802497,33.7305313 380.527877,33.1196845 381.100555,32.3561146 C381.673232,31.5925446 382.102734,30.7239968 382.389072,29.7504452 C382.675411,28.7768935 382.818578,27.755634 382.818578,26.6866361 C382.818578,25.4649242 382.704045,24.310042 382.474974,23.2219548 C382.245903,22.1338676 381.864123,21.169875 381.329624,20.3299481 C380.795125,19.4900212 380.088834,18.8219075 379.210728,18.325587 C378.332623,17.8292666 377.225463,17.58111 375.889216,17.58111 C374.743861,17.58111 373.760779,17.8101776 372.939942,18.2683196 C372.119104,18.7264615 371.431901,19.3468528 370.878313,20.129512 C370.324725,20.9121712 369.923857,21.8093524 369.675696,22.8210826 C369.427536,23.8328128 369.303458,24.8922502 369.303458,25.9994266 C369.303458,27.0684245 369.408447,28.1278619 369.618429,29.1777706 C369.828411,30.2276792 370.191101,31.1725829 370.706511,32.0125098 C371.22192,32.8524368 371.899579,33.5396394 372.739506,34.0741384 C373.579432,34.6086373 374.629325,34.8758828 375.889216,34.8758828 Z M390.549685,39.9726867 C390.549685,41.1562201 390.387429,42.5115364 390.062912,44.0386763 C389.738395,45.5658162 389.041648,46.9879439 387.97265,48.305102 C386.903652,49.6222602 385.357446,50.7389645 383.333985,51.6552484 C381.310525,52.5715323 378.599893,53.0296674 375.202006,53.0296674 C373.751223,53.0296674 372.271829,52.8483223 370.763778,52.4856266 C369.255728,52.1229308 367.881322,51.5598064 366.640521,50.7962365 C365.39972,50.0326666 364.368916,49.049585 363.548078,47.8469623 C362.727241,46.6443397 362.259561,45.203123 362.145026,43.5232692 L370.219737,43.5232692 C370.601522,45.050409 371.345992,46.1098465 372.453168,46.7016132 C373.560345,47.2933799 374.839305,47.5892588 376.290088,47.5892588 C378.580798,47.5892588 380.251082,46.9020561 381.300991,45.5276302 C382.350899,44.1532043 382.856757,42.4161088 382.818578,40.3162914 L382.818578,36.4221042 L382.704043,36.4221042 C381.825938,37.9874226 380.575611,39.1423048 378.953025,39.8867855 C377.330439,40.6312662 375.621977,41.0035009 373.827587,41.0035009 C371.613234,41.0035009 369.704338,40.6121772 368.100841,39.829518 C366.497344,39.0468588 365.180206,37.9778769 364.149387,36.6225403 C363.118567,35.2672036 362.364553,33.6828198 361.887322,31.8693412 C361.410091,30.0558626 361.171479,28.1374218 361.171479,26.1139615 C361.171479,24.2050366 361.448269,22.3629518 362.001857,20.5876517 C362.555445,18.8123515 363.366726,17.2470566 364.435724,15.89172 C365.504722,14.5363833 366.831405,13.457857 368.415812,12.6561085 C370.00022,11.8543601 371.823216,11.4534919 373.884855,11.4534919 C375.831958,11.4534919 377.54042,11.8161822 379.010292,12.5415736 C380.480164,13.2669651 381.711403,14.4886586 382.704043,16.206691 L382.818578,16.206691 L382.818578,12.2552363 L390.549685,12.2552363 L390.549685,39.9726867 Z M393.856876,0.97354681 L401.988855,0.97354681 L401.988855,16.3784934 L402.160657,16.3784934 C403.191477,14.660461 404.508615,13.410134 406.112112,12.6274748 C407.715609,11.8448156 409.280904,11.4534919 410.808044,11.4534919 C412.984218,11.4534919 414.769036,11.7493708 416.162551,12.3411375 C417.556066,12.9329042 418.653682,13.7537296 419.45543,14.8036383 C420.257179,15.8535469 420.820303,17.1325074 421.14482,18.640558 C421.469337,20.1486087 421.631594,21.8188929 421.631594,23.6514607 L421.631594,41.8625128 L413.499614,41.8625128 L413.499614,25.1404147 C413.499614,22.6969909 413.117835,20.873995 412.354265,19.6713723 C411.590695,18.4687497 410.235379,17.8674473 408.288275,17.8674473 C406.073923,17.8674473 404.47045,18.5260165 403.477809,19.8431747 C402.485168,21.1603328 401.988855,23.3269301 401.988855,26.3430313 L401.988855,41.8625128 L393.856876,41.8625128 L393.856876,0.97354681 Z M424.938784,33.0433241 L433.929775,33.0433241 L433.929775,41.8625128 L424.938784,41.8625128 L424.938784,33.0433241 Z M457.452378,22.6779139 C456.91788,19.2800277 454.913538,17.58111 451.439295,17.58111 C450.141226,17.58111 449.053155,17.876989 448.17505,18.4687557 C447.296945,19.0605224 446.581109,19.8240809 446.02752,20.759454 C445.473932,21.6948272 445.082608,22.7256312 444.853537,23.8518968 C444.624466,24.9781625 444.509933,26.0948668 444.509933,27.2020432 C444.509933,28.2710411 444.624466,29.359112 444.853537,30.4662884 C445.082608,31.5734648 445.454843,32.5756353 445.970253,33.47283 C446.485663,34.3700247 447.18241,35.1049498 448.060515,35.6776272 C448.938621,36.2503047 450.007602,36.5366391 451.267493,36.5366391 C453.214596,36.5366391 454.71308,35.9926037 455.762988,34.9045165 C456.812897,33.8164293 457.471466,32.3561237 457.738716,30.5235559 L465.584358,30.5235559 C465.049859,34.4559411 463.522742,37.4529082 461.002961,39.514547 C458.48318,41.5761858 455.257146,42.6069898 451.32476,42.6069898 C449.110407,42.6069898 447.077433,42.234755 445.225776,41.4902744 C443.374119,40.7457937 441.799279,39.7054452 440.50121,38.3691978 C439.203142,37.0329504 438.191427,35.4390221 437.466035,33.587365 C436.740644,31.7357078 436.377953,29.7027334 436.377953,27.4883805 C436.377953,25.1976707 436.71201,23.0692514 437.380134,21.1030588 C438.048258,19.1368662 439.031339,17.4379486 440.329408,16.0062549 C441.627477,14.5745613 443.211861,13.457857 445.082607,12.6561085 C446.953354,11.8543601 449.091317,11.4534919 451.496563,11.4534919 C453.252774,11.4534919 454.942147,11.6825594 456.564733,12.1407014 C458.187319,12.5988434 459.63808,13.2955905 460.91706,14.2309637 C462.196039,15.1663368 463.236388,16.3307635 464.038136,17.7242787 C464.839885,19.1177938 465.29802,20.7689891 465.412555,22.6779139 L457.452378,22.6779139 Z M474.160154,27.0875083 C474.160154,28.2710417 474.274688,29.4259239 474.503759,30.5521896 C474.73283,31.6784553 475.124154,32.6901703 475.677742,33.587365 C476.23133,34.4845596 476.966255,35.2003957 477.882539,35.7348947 C478.798823,36.2693936 479.944161,36.5366391 481.318587,36.5366391 C482.693013,36.5366391 483.847895,36.2693936 484.783268,35.7348947 C485.718641,35.2003957 486.463111,34.4845596 487.016699,33.587365 C487.570287,32.6901703 487.961611,31.6784553 488.190682,30.5521896 C488.419753,29.4259239 488.534287,28.2710417 488.534287,27.0875083 C488.534287,25.9039749 488.419753,24.7395482 488.190682,23.5941933 C487.961611,22.4488384 487.570287,21.4371234 487.016699,20.5590179 C486.463111,19.6809125 485.718641,18.9650764 484.783268,18.4114882 C483.847895,17.8579 482.693013,17.58111 481.318587,17.58111 C479.944161,17.58111 478.798823,17.8579 477.882539,18.4114882 C476.966255,18.9650764 476.23133,19.6809125 475.677742,20.5590179 C475.124154,21.4371234 474.73283,22.4488384 474.503759,23.5941933 C474.274688,24.7395482 474.160154,25.9039749 474.160154,27.0875083 Z M466.028175,27.0875083 C466.028175,24.7204415 466.390865,22.5729332 467.116257,20.6449191 C467.841648,18.716905 468.872452,17.0752543 470.2087,15.7199176 C471.544947,14.364581 473.14842,13.314688 475.019166,12.5702073 C476.889913,11.8257266 478.989698,11.4534919 481.318587,11.4534919 C483.647475,11.4534919 485.756805,11.8257266 487.646641,12.5702073 C489.536477,13.314688 491.149494,14.364581 492.485741,15.7199176 C493.821989,17.0752543 494.852793,18.716905 495.578184,20.6449191 C496.303576,22.5729332 496.666266,24.7204415 496.666266,27.0875083 C496.666266,29.4545751 496.303576,31.5925389 495.578184,33.5014638 C494.852793,35.4103886 493.821989,37.0424949 492.485741,38.3978315 C491.149494,39.7531682 489.536477,40.7935166 487.646641,41.5189081 C485.756805,42.2442995 483.647475,42.6069898 481.318587,42.6069898 C478.989698,42.6069898 476.889913,42.2442995 475.019166,41.5189081 C473.14842,40.7935166 471.544947,39.7531682 470.2087,38.3978315 C468.872452,37.0424949 467.841648,35.4103886 467.116257,33.5014638 C466.390865,31.5925389 466.028175,29.4545751 466.028175,27.0875083 Z M498.942642,12.2552363 L506.616481,12.2552363 L506.616481,16.2639585 L506.731016,16.2639585 C507.800014,14.7368186 509.088519,13.5533029 510.59657,12.713376 C512.104621,11.8734491 513.832172,11.4534919 515.779275,11.4534919 C517.650021,11.4534919 519.358483,11.8161822 520.904713,12.5415736 C522.450942,13.2669651 523.624913,14.5459255 524.426661,16.3784934 C525.304767,15.0804245 526.497827,13.9350868 528.005878,12.9424458 C529.513928,11.9498049 531.298746,11.4534919 533.360385,11.4534919 C534.925703,11.4534919 536.376465,11.6443815 537.712712,12.0261665 C539.048959,12.4079515 540.194297,13.0187982 541.148759,13.8587252 C542.103222,14.6986521 542.847691,15.7962674 543.38219,17.1516041 C543.916689,18.5069407 544.183935,20.139047 544.183935,22.0479719 L544.183935,41.8625128 L536.051956,41.8625128 L536.051956,25.0831472 C536.051956,24.0905063 536.013778,23.1551471 535.937421,22.2770417 C535.861064,21.3989363 535.651085,20.6353778 535.307479,19.9863433 C534.963872,19.3373089 534.458015,18.8219069 533.789891,18.4401219 C533.121767,18.058337 532.215042,17.8674473 531.069687,17.8674473 C529.924332,17.8674473 528.998517,18.0869704 528.292215,18.5260231 C527.585913,18.9650758 527.032333,19.5377447 526.631459,20.2440469 C526.230584,20.9503491 525.963339,21.7520855 525.829714,22.6492802 C525.696089,23.5464749 525.629278,24.4532006 525.629278,25.3694845 L525.629278,41.8625128 L517.497299,41.8625128 L517.497299,25.2549496 C517.497299,24.3768442 517.47821,23.5082964 517.440031,22.6492802 C517.401853,21.790264 517.239597,20.9980721 516.953258,20.2726806 C516.666919,19.5472892 516.189695,18.9650758 515.521571,18.5260231 C514.853448,18.0869704 513.870366,17.8674473 512.572297,17.8674473 C512.190512,17.8674473 511.684655,17.9533477 511.05471,18.1251509 C510.424764,18.2969541 509.813918,18.6214665 509.222151,19.0986977 C508.630384,19.5759289 508.124527,20.2631316 507.704563,21.1603263 C507.2846,22.0575209 507.074621,23.2314921 507.074621,24.682275 L507.074621,41.8625128 L498.942642,41.8625128 L498.942642,12.2552363 Z" id="hello@mariogogh.com" fill="#000000"></path>
    </g>
</svg>