<?xml version="1.0" encoding="UTF-8"?>
<svg width="27px" height="27px" viewBox="0 0 27 27" version="1.1" xmlns="http://www.w3.org/2000/svg" xmlns:xlink="http://www.w3.org/1999/xlink">
    <!-- Generator: Sketch 49.3 (51167) - http://www.bohemiancoding.com/sketch -->
    <desc>Created with Sketch.</desc>
    <defs></defs>
    <g id="Mariogogh_Index" stroke="none" stroke-width="1" fill="none" fill-rule="evenodd">
        <g id="Active">
            <g id="Group">
                <circle id="Oval-2" fill="#000000" cx="13.16" cy="13.16" r="13.16"></circle>
                <path d="M15.2675781,15.2675781 C15.7558618,14.7792944 16,14.1901076 16,13.5 C16,12.8098924 15.7558618,12.2207056 15.2675781,11.7324219 C14.7792944,11.2441382 14.1901076,11 13.5,11 C12.8098924,11 12.2207056,11.2441382 11.7324219,11.7324219 C11.2441382,12.2207056 11,12.8098924 11,13.5 C11,14.1901076 11.2441382,14.7792944 11.7324219,15.2675781 C12.2207056,15.7558618 12.8098924,16 13.5,16 C14.1901076,16 14.7792944,15.7558618 15.2675781,15.2675781 Z M16.2246094,10.7753906 C16.973311,11.5240923 17.3476562,12.4322863 17.3476562,13.5 C17.3476562,14.5677137 16.973311,15.4759077 16.2246094,16.2246094 C15.4759077,16.973311 14.5677137,17.3476562 13.5,17.3476562 C12.4322863,17.3476562 11.5240923,16.973311 10.7753906,16.2246094 C10.026689,15.4759077 9.65234375,14.5677137 9.65234375,13.5 C9.65234375,12.4322863 10.026689,11.5240923 10.7753906,10.7753906 C11.5240923,10.026689 12.4322863,9.65234375 13.5,9.65234375 C14.5677137,9.65234375 15.4759077,10.026689 16.2246094,10.7753906 Z M18.1386719,8.86132812 C18.314454,9.03711025 18.4023438,9.24869668 18.4023438,9.49609375 C18.4023438,9.74349082 18.314454,9.95507725 18.1386719,10.1308594 C17.9628897,10.3066415 17.7513033,10.3945312 17.5039063,10.3945312 C17.2565092,10.3945312 17.0449228,10.3066415 16.8691406,10.1308594 C16.6933585,9.95507725 16.6054688,9.74349082 16.6054688,9.49609375 C16.6054688,9.24869668 16.6933585,9.03711025 16.8691406,8.86132812 C17.0449228,8.685546 17.2565092,8.59765625 17.5039063,8.59765625 C17.7513033,8.59765625 17.9628897,8.685546 18.1386719,8.86132812 Z M14.2421875,7.34765625 L13.5,7.34765625 C13.4544269,7.34765625 13.2054059,7.34602866 12.7529297,7.34277344 C12.3004535,7.33951821 11.9570324,7.33951821 11.7226562,7.34277344 C11.4882801,7.34602866 11.1741556,7.35579419 10.7802734,7.37207031 C10.3863913,7.38834644 10.0511082,7.42089819 9.77441406,7.46972656 C9.49771997,7.51855493 9.2649749,7.57877568 9.07617188,7.65039062 C8.75064941,7.78059961 8.46419395,7.9693998 8.21679687,8.21679688 C7.9693998,8.46419395 7.78059961,8.75064941 7.65039062,9.07617188 C7.57877568,9.2649749 7.51855493,9.49771997 7.46972656,9.77441406 C7.42089819,10.0511082 7.38834644,10.3863913 7.37207031,10.7802734 C7.35579419,11.1741556 7.34602866,11.4882801 7.34277344,11.7226562 C7.33951821,11.9570324 7.33951821,12.3004535 7.34277344,12.7529297 C7.34602866,13.2054059 7.34765625,13.4544269 7.34765625,13.5 C7.34765625,13.5455731 7.34602866,13.7945941 7.34277344,14.2470703 C7.33951821,14.6995465 7.33951821,15.0429676 7.34277344,15.2773437 C7.34602866,15.5117199 7.35579419,15.8258444 7.37207031,16.2197266 C7.38834644,16.6136087 7.42089819,16.9488918 7.46972656,17.2255859 C7.51855493,17.50228 7.57877568,17.7350251 7.65039062,17.9238281 C7.78059961,18.2493506 7.9693998,18.5358061 8.21679687,18.7832031 C8.46419395,19.0306002 8.75064941,19.2194004 9.07617188,19.3496094 C9.2649749,19.4212243 9.49771997,19.4814451 9.77441406,19.5302734 C10.0511082,19.5791018 10.3863913,19.6116536 10.7802734,19.6279297 C11.1741556,19.6442058 11.4882801,19.6539713 11.7226562,19.6572266 C11.9570324,19.6604818 12.3004535,19.6604818 12.7529297,19.6572266 C13.2054059,19.6539713 13.4544269,19.6523437 13.5,19.6523437 C13.5455731,19.6523437 13.7945941,19.6539713 14.2470703,19.6572266 C14.6995465,19.6604818 15.0429676,19.6604818 15.2773438,19.6572266 C15.5117199,19.6539713 15.8258444,19.6442058 16.2197266,19.6279297 C16.6136087,19.6116536 16.9488918,19.5791018 17.2255859,19.5302734 C17.50228,19.4814451 17.7350251,19.4212243 17.9238281,19.3496094 C18.2493506,19.2194004 18.5358061,19.0306002 18.7832031,18.7832031 C19.0306002,18.5358061 19.2194004,18.2493506 19.3496094,17.9238281 C19.4212243,17.7350251 19.4814451,17.50228 19.5302734,17.2255859 C19.5791018,16.9488918 19.6116536,16.6136087 19.6279297,16.2197266 C19.6442058,15.8258444 19.6539713,15.5117199 19.6572266,15.2773437 C19.6604818,15.0429676 19.6604818,14.6995465 19.6572266,14.2470703 C19.6539713,13.7945941 19.6523438,13.5455731 19.6523438,13.5 C19.6523438,13.4544269 19.6539713,13.2054059 19.6572266,12.7529297 C19.6604818,12.3004535 19.6604818,11.9570324 19.6572266,11.7226562 C19.6539713,11.4882801 19.6442058,11.1741556 19.6279297,10.7802734 C19.6116536,10.3863913 19.5791018,10.0511082 19.5302734,9.77441406 C19.4814451,9.49771997 19.4212243,9.2649749 19.3496094,9.07617188 C19.2194004,8.75064941 19.0306002,8.46419395 18.7832031,8.21679688 C18.5358061,7.9693998 18.2493506,7.78059961 17.9238281,7.65039062 C17.7350251,7.57877568 17.50228,7.51855493 17.2255859,7.46972656 C16.9488918,7.42089819 16.6136087,7.38834644 16.2197266,7.37207031 C15.8258444,7.35579419 15.5117199,7.34602866 15.2773438,7.34277344 C15.0429676,7.33951821 14.6979189,7.3411458 14.2421875,7.34765625 Z M20.9511719,10.4042969 C20.9837241,10.9772164 21,12.0091071 21,13.5 C21,14.9908929 20.9837241,16.0227836 20.9511719,16.5957031 C20.8860674,17.9498766 20.4824256,18.9980432 19.7402344,19.7402344 C18.9980432,20.4824256 17.9498766,20.8860674 16.5957031,20.9511719 C16.0227836,20.9837241 14.9908929,21 13.5,21 C12.0091071,21 10.9772164,20.9837241 10.4042969,20.9511719 C9.05012344,20.8860674 8.00195684,20.4824256 7.25976562,19.7402344 C6.51757441,18.9980432 6.11393262,17.9498766 6.04882813,16.5957031 C6.01627588,16.0227836 6,14.9908929 6,13.5 C6,12.0091071 6.01627588,10.9772164 6.04882813,10.4042969 C6.11393262,9.05012344 6.51757441,8.00195684 7.25976562,7.25976563 C8.00195684,6.51757441 9.05012344,6.11393262 10.4042969,6.04882813 C10.9772164,6.01627588 12.0091071,6 13.5,6 C14.9908929,6 16.0227836,6.01627588 16.5957031,6.04882813 C17.9498766,6.11393262 18.9980432,6.51757441 19.7402344,7.25976563 C20.4824256,8.00195684 20.8860674,9.05012344 20.9511719,10.4042969 Z" id="instagram---FontAwesome" fill="#FFFFFF"></path>
            </g>
        </g>
    </g>
</svg>