<?xml version="1.0" encoding="UTF-8"?>
<svg width="467px" height="209px" viewBox="0 0 467 209" version="1.1" xmlns="http://www.w3.org/2000/svg" xmlns:xlink="http://www.w3.org/1999/xlink">
    <!-- Generator: Sketch 49.2 (51160) - http://www.bohemiancoding.com/sketch -->
    <desc>Created with Sketch.</desc>
    <defs></defs>
    <g id="Mariogogh_Index" stroke="none" stroke-width="1" fill="none" fill-rule="evenodd">
        <path d="M61.1916522,0.281023905 L98.5241739,0.281023905 L98.5241739,208.800762 L61.1916522,208.800762 L61.1916522,94.7050561 L49.1217391,125.055638 L37.0518261,94.7050561 L37.0518261,208.800762 L0,208.800762 L0,0.281023905 L37.0518261,0.281023905 L49.1217391,50.303279 L61.1916522,0.281023905 Z M172.136609,208.800762 L168.768261,171.98663 L151.36513,171.98663 L147.996783,208.800762 L110.664261,208.800762 L141.540783,0.281023905 L178.873304,0.281023905 L209.46913,208.800762 L172.136609,208.800762 Z M154.733478,134.610451 L165.399913,134.610451 L160.066696,75.5954305 L154.733478,134.610451 Z M316.765043,208.800762 L279.432522,208.800762 L258.941739,150.066765 L258.941739,208.800762 L221.609217,208.800762 L221.609217,0 L264.274956,0 C270.076029,0 275.596322,1.12408438 280.836,3.37228686 C286.075678,5.62048935 290.613546,8.66488454 294.449739,12.5055638 C298.285932,16.346243 301.326771,20.8894174 303.572348,26.1352232 C305.817924,31.381029 306.940696,36.9077772 306.940696,42.7156336 L306.940696,91.0517453 C306.940696,98.5457536 305.256538,105.383934 301.888174,111.56649 C298.519809,117.749047 293.935159,122.713753 288.134087,126.460757 L316.765043,208.800762 Z M258.941739,37.9382272 L258.941739,96.3911995 C259.12887,97.8900011 259.690256,99.1077592 260.625913,100.04451 C261.56157,100.981261 262.777905,101.44963 264.274956,101.44963 C265.772007,101.44963 267.035125,100.981261 268.064348,100.04451 C269.09357,99.1077592 269.608174,97.8900011 269.608174,96.3911995 L269.608174,37.9382272 C269.608174,36.4394256 269.09357,35.1279938 268.064348,34.0038925 C267.035125,32.8797913 265.772007,32.3177491 264.274956,32.3177491 C262.777905,32.3177491 261.514788,32.8797913 260.485565,34.0038925 C259.456343,35.1279938 258.941739,36.4394256 258.941739,37.9382272 Z M329.466522,208.800762 L329.466522,0.281023905 L366.799043,0.281023905 L366.799043,208.800762 L329.466522,208.800762 Z M423.569739,0.281023905 C429.557943,0.281023905 435.1718,1.40510829 440.411478,3.65331077 C445.651156,5.90151325 450.189024,8.94590845 454.025217,12.7865877 C457.86141,16.6272669 460.902249,21.1704413 463.147826,26.4162471 C465.393402,31.6620529 466.516174,37.1888011 466.516174,42.9966575 L466.516174,166.366152 C466.516174,172.361359 465.393402,177.934944 463.147826,183.087074 C460.902249,188.239205 457.86141,192.688706 454.025217,196.43571 C450.189024,200.182714 445.651156,203.180272 440.411478,205.428475 C435.1718,207.676677 429.557943,208.800762 423.569739,208.800762 C417.768666,208.800762 412.295156,207.676677 407.149043,205.428475 C402.002931,203.180272 397.511845,200.182714 393.675652,196.43571 C389.839459,192.688706 386.79862,188.239205 384.553043,183.087074 C382.307467,177.934944 381.184695,172.361359 381.184695,166.366152 L381.184695,42.9966575 C381.184695,37.1888011 382.307467,31.6620529 384.553043,26.4162471 C386.79862,21.1704413 389.839459,16.6272669 393.675652,12.7865877 C397.511845,8.94590845 402.002931,5.90151325 407.149043,3.65331077 C412.295156,1.40510829 417.768666,0.281023905 423.569739,0.281023905 Z M429.183652,38.2192511 C429.183652,36.7204495 428.622266,35.4090177 427.499478,34.2849164 C426.37669,33.1608152 425.06679,32.598773 423.569739,32.598773 C422.072688,32.598773 420.80957,33.1608152 419.780348,34.2849164 C418.751125,35.4090177 418.236522,36.7204495 418.236522,38.2192511 L418.236522,171.143558 C418.236522,172.64236 418.751125,173.906955 419.780348,174.937381 C420.80957,175.967807 422.072688,176.483012 423.569739,176.483012 C425.06679,176.483012 426.37669,175.967807 427.499478,174.937381 C428.622266,173.906955 429.183652,172.64236 429.183652,171.143558 L429.183652,38.2192511 Z" id="MARIO" fill="#FFD7D7"></path>
    </g>
</svg>