<?xml version="1.0" encoding="UTF-8"?>
<svg width="881px" height="224px" viewBox="0 0 881 224" version="1.1" xmlns="http://www.w3.org/2000/svg" xmlns:xlink="http://www.w3.org/1999/xlink">
    <!-- Generator: Sketch 49.2 (51160) - http://www.bohemiancoding.com/sketch -->
    <desc>Created with Sketch.</desc>
    <defs></defs>
    <g id="Mariogogh_Index" stroke="none" stroke-width="1" fill="none" fill-rule="evenodd">
        <path d="M112.558957,99.2014385 L221.749565,99.2014385 C221.749565,110.442451 221.281744,120.652884 220.346087,129.833044 C219.41043,139.013204 217.539144,147.537511 214.732174,155.40622 C210.802415,166.459882 205.469251,176.248783 198.732522,184.773218 C191.995792,193.297652 184.089611,200.416853 175.013739,206.131034 C165.937868,211.845216 155.973272,216.201043 145.119652,219.198646 C134.266033,222.196249 122.85119,223.695029 110.874783,223.695029 C94.407222,223.695029 79.3901548,220.978491 65.8231304,215.545335 C52.2561061,210.112179 40.607353,202.477773 30.8765217,192.641887 C21.1456905,182.806001 13.5669837,171.003115 8.14017391,157.232875 C2.71336417,143.462635 0,128.240659 0,111.56649 C0,95.0796722 2.66658203,79.9513699 7.99982609,66.1811297 C13.3330701,52.4108895 20.911777,40.6548403 30.7361739,30.9126296 C40.5605709,21.1704188 52.3964525,13.5828493 66.2441739,8.14969325 C80.0918953,2.71653725 95.5300018,0 112.558957,0 C134.640458,0 154.008265,4.77735861 170.662957,14.3322192 C187.317648,23.8870797 200.510212,38.6875241 210.241043,58.7339962 L158.031652,80.3728369 C153.166237,68.7571241 146.850648,60.4201649 139.084696,55.3617093 C131.318744,50.3032537 122.476919,47.7740639 112.558957,47.7740639 C104.325176,47.7740639 96.8400337,49.3196799 90.1033043,52.4109583 C83.366575,55.5022367 77.6123717,59.9049006 72.8405217,65.6190819 C68.0686718,71.3332632 64.3261005,78.21828 61.6126957,86.2743389 C58.8992908,94.3303978 57.5426087,103.323073 57.5426087,113.252634 C57.5426087,122.245444 58.7121622,130.582403 61.0513043,138.263761 C63.3904465,145.94512 66.899107,152.595952 71.5773913,158.216459 C76.2556756,163.836965 82.056661,168.192792 88.9805217,171.28407 C95.9043824,174.375349 103.950911,175.920965 113.120348,175.920965 C118.547158,175.920965 123.786757,175.312086 128.839304,174.094309 C133.891851,172.876533 138.429719,170.909385 142.453043,168.192807 C146.476368,165.476229 149.7979,161.963466 152.417739,157.654411 C155.037578,153.345356 156.8153,148.099629 157.750957,141.917072 L112.558957,141.917072 L112.558957,99.2014385 Z M280.578695,111.847514 C280.578695,120.278274 282.169288,128.053191 285.350521,135.172498 C288.531755,142.291806 292.835712,148.47427 298.262521,153.720076 C303.689331,158.965882 310.00492,163.040688 317.209478,165.944616 C324.414036,168.848544 332.039525,170.300487 340.086174,170.300487 C348.132822,170.300487 355.758311,168.848544 362.962869,165.944616 C370.167427,163.040688 376.529798,158.965882 382.050174,153.720076 C387.570549,148.47427 391.921288,142.291806 395.102521,135.172498 C398.283755,128.053191 399.874347,120.278274 399.874347,111.847514 C399.874347,103.416755 398.283755,95.641838 395.102521,88.5225301 C391.921288,81.4032223 387.570549,75.2207582 382.050174,69.9749524 C376.529798,64.7291466 370.167427,60.6543407 362.962869,57.7504125 C355.758311,54.8464843 348.132822,53.394542 340.086174,53.394542 C332.039525,53.394542 324.414036,54.8464843 317.209478,57.7504125 C310.00492,60.6543407 303.689331,64.7291466 298.262521,69.9749524 C292.835712,75.2207582 288.531755,81.4032223 285.350521,88.5225301 C282.169288,95.641838 280.578695,103.416755 280.578695,111.847514 Z M223.036087,111.847514 C223.036087,96.1100969 225.936579,81.4501631 231.737652,67.8672731 C237.538724,54.2843831 245.585253,42.4346603 255.877478,32.3177491 C266.169703,22.2008379 278.473406,14.2854104 292.788956,8.57122911 C307.104506,2.8570478 322.870087,0 340.086174,0 C357.115128,0 372.833928,2.8570478 387.243043,8.57122911 C401.652159,14.2854104 414.049426,22.2008379 424.435217,32.3177491 C434.821008,42.4346603 442.914318,54.2843831 448.715391,67.8672731 C454.516463,81.4501631 457.416956,96.1100969 457.416956,111.847514 C457.416956,127.584932 454.516463,142.244865 448.715391,155.827755 C442.914318,169.410645 434.821008,181.260368 424.435217,191.377279 C414.049426,201.494191 401.652159,209.409618 387.243043,215.123799 C372.833928,220.837981 357.115128,223.695029 340.086174,223.695029 C322.870087,223.695029 307.104506,220.837981 292.788956,215.123799 C278.473406,209.409618 266.169703,201.494191 255.877478,191.377279 C245.585253,181.260368 237.538724,169.410645 231.737652,155.827755 C225.936579,142.244865 223.036087,127.584932 223.036087,111.847514 Z M571.262434,99.2014385 L680.453043,99.2014385 C680.453043,110.442451 679.985221,120.652884 679.049564,129.833044 C678.113908,139.013204 676.242622,147.537511 673.435651,155.40622 C669.505893,166.459882 664.172729,176.248783 657.435999,184.773218 C650.69927,193.297652 642.793088,200.416853 633.717217,206.131034 C624.641345,211.845216 614.676749,216.201043 603.82313,219.198646 C592.96951,222.196249 581.554668,223.695029 569.57826,223.695029 C553.1107,223.695029 538.093632,220.978491 524.526608,215.545335 C510.959584,210.112179 499.310831,202.477773 489.579999,192.641887 C479.849168,182.806001 472.270461,171.003115 466.843651,157.232875 C461.416842,143.462635 458.703478,128.240659 458.703478,111.56649 C458.703478,95.0796722 461.37006,79.9513699 466.703304,66.1811297 C472.036548,52.4108895 479.615254,40.6548403 489.439651,30.9126296 C499.264048,21.1704188 511.09993,13.5828493 524.947651,8.14969325 C538.795373,2.71653725 554.233479,0 571.262434,0 C593.343936,0 612.711742,4.77735861 629.366434,14.3322192 C646.021126,23.8870797 659.21369,38.6875241 668.944521,58.7339962 L616.73513,80.3728369 C611.869714,68.7571241 605.554125,60.4201649 597.788173,55.3617093 C590.022221,50.3032537 581.180397,47.7740639 571.262434,47.7740639 C563.028654,47.7740639 555.543511,49.3196799 548.806782,52.4109583 C542.070053,55.5022367 536.315849,59.9049006 531.543999,65.6190819 C526.772149,71.3332632 523.029578,78.21828 520.316173,86.2743389 C517.602768,94.3303978 516.246086,103.323073 516.246086,113.252634 C516.246086,122.245444 517.41564,130.582403 519.754782,138.263761 C522.093924,145.94512 525.602585,152.595952 530.280869,158.216459 C534.959153,163.836965 540.760139,168.192792 547.683999,171.28407 C554.60786,174.375349 562.654388,175.920965 571.823825,175.920965 C577.250635,175.920965 582.490235,175.312086 587.542782,174.094309 C592.595329,172.876533 597.133197,170.909385 601.156521,168.192807 C605.179845,165.476229 608.501377,161.963466 611.121217,157.654411 C613.741056,153.345356 615.518777,148.099629 616.454434,141.917072 L571.262434,141.917072 L571.262434,99.2014385 Z M746.299564,87.6794584 L825.736434,87.6794584 L825.736434,5.90150201 L880.752781,5.90150201 L880.752781,217.793527 L825.736434,217.793527 L825.736434,130.395092 L746.299564,130.395092 L746.299564,217.793527 L691.283216,217.793527 L691.283216,5.90150201 L746.299564,5.90150201 L746.299564,87.6794584 Z" id="GOGH" fill="#FFD7D7"></path>
    </g>
</svg>