<?xml version="1.0" encoding="UTF-8"?>
<svg width="880px" height="224px" viewBox="0 0 880 224" version="1.1" xmlns="http://www.w3.org/2000/svg" xmlns:xlink="http://www.w3.org/1999/xlink">
    <!-- Generator: Sketch 49.2 (51160) - http://www.bohemiancoding.com/sketch -->
    <desc>Created with Sketch.</desc>
    <defs></defs>
    <g id="Mariogogh_Index" stroke="none" stroke-width="1" fill="none" fill-rule="evenodd">
        <path d="M112.391707,99.2014385 L221.420071,99.2014385 C221.420071,110.442451 220.952945,120.652884 220.018678,129.833044 C219.084412,139.013204 217.215907,147.537511 214.413107,155.40622 C210.489187,166.459882 205.163948,176.248783 198.437228,184.773218 C191.710509,193.297652 183.816075,200.416853 174.753689,206.131034 C165.691303,211.845216 155.741513,216.201043 144.904021,219.198646 C134.066529,222.196249 122.668648,223.695029 110.710036,223.695029 C94.2669438,223.695029 79.2721902,220.978491 65.7253249,215.545335 C52.1784596,210.112179 40.5470152,202.477773 30.8306428,192.641887 C21.1142704,182.806001 13.5468247,171.003115 8.12807856,157.232875 C2.70933243,143.462635 0,128.240659 0,111.56649 C0,95.0796722 2.6626198,79.9513699 7.98793927,66.1811297 C13.3132587,52.4108895 20.8807045,40.6548403 30.6905035,30.9126296 C40.5003026,21.1704188 52.3185974,13.5828493 66.1457427,8.14969325 C79.9728881,2.71653725 95.3880553,0 112.391707,0 C134.440398,0 153.779426,4.77735861 170.409371,14.3322192 C187.039316,23.8870797 200.212277,38.6875241 209.92865,58.7339962 L157.796835,80.3728369 C152.938649,68.7571241 146.632444,60.4201649 138.878032,55.3617093 C131.123619,50.3032537 122.294933,47.7740639 112.391707,47.7740639 C104.170161,47.7740639 96.6961406,49.3196799 89.9694213,52.4109583 C83.2427019,55.5022367 77.4970487,59.9049006 72.7322892,65.6190819 C67.9675296,71.3332632 64.2305194,78.21828 61.5211463,86.2743389 C58.8117733,94.3303978 57.457107,103.323073 57.457107,113.252634 C57.457107,122.245444 58.6249227,130.582403 60.9605892,138.263761 C63.2962556,145.94512 66.7997027,152.595952 71.4710356,158.216459 C76.1423685,163.836965 81.9347343,168.192792 88.848307,171.28407 C95.7618796,174.375349 103.796452,175.920965 112.952264,175.920965 C118.37101,175.920965 123.602825,175.312086 128.647864,174.094309 C133.692904,172.876533 138.224028,170.909385 142.241375,168.192807 C146.258721,165.476229 149.575318,161.963466 152.191264,157.654411 C154.80721,153.345356 156.58229,148.099629 157.516557,141.917072 L112.391707,141.917072 L112.391707,99.2014385 Z M280.161788,111.847514 C280.161788,120.278274 281.750017,128.053191 284.926524,135.172498 C288.10303,142.291806 292.400592,148.47427 297.819338,153.720076 C303.238084,158.965882 309.544289,163.040688 316.738141,165.944616 C323.931994,168.848544 331.546152,170.300487 339.580845,170.300487 C347.615537,170.300487 355.229696,168.848544 362.423548,165.944616 C369.617401,163.040688 375.970318,158.965882 381.482491,153.720076 C386.994664,148.47427 391.338938,142.291806 394.515445,135.172498 C397.691951,128.053191 399.280181,120.278274 399.280181,111.847514 C399.280181,103.416755 397.691951,95.641838 394.515445,88.5225301 C391.338938,81.4032223 386.994664,75.2207582 381.482491,69.9749524 C375.970318,64.7291466 369.617401,60.6543407 362.423548,57.7504125 C355.229696,54.8464843 347.615537,53.394542 339.580845,53.394542 C331.546152,53.394542 323.931994,54.8464843 316.738141,57.7504125 C309.544289,60.6543407 303.238084,64.7291466 297.819338,69.9749524 C292.400592,75.2207582 288.10303,81.4032223 284.926524,88.5225301 C281.750017,95.641838 280.161788,103.416755 280.161788,111.847514 Z M222.704681,111.847514 C222.704681,96.1100969 225.600864,81.4501631 231.393317,67.8672731 C237.185769,54.2843831 245.220341,42.4346603 255.497274,32.3177491 C265.774206,22.2008379 278.059627,14.2854104 292.353906,8.57122911 C306.648184,2.8570478 322.39034,0 339.580845,0 C356.584497,0 372.27994,2.8570478 386.667645,8.57122911 C401.05535,14.2854104 413.434197,22.2008379 423.804555,32.3177491 C434.174914,42.4346603 442.256199,54.2843831 448.048652,67.8672731 C453.841105,81.4501631 456.737288,96.1100969 456.737288,111.847514 C456.737288,127.584932 453.841105,142.244865 448.048652,155.827755 C442.256199,169.410645 434.174914,181.260368 423.804555,191.377279 C413.434197,201.494191 401.05535,209.409618 386.667645,215.123799 C372.27994,220.837981 356.584497,223.695029 339.580845,223.695029 C322.39034,223.695029 306.648184,220.837981 292.353906,215.123799 C278.059627,209.409618 265.774206,201.494191 255.497274,191.377279 C245.220341,181.260368 237.185769,169.410645 231.393317,155.827755 C225.600864,142.244865 222.704681,127.584932 222.704681,111.847514 Z M570.413604,99.2014385 L679.441968,99.2014385 C679.441968,110.442451 678.974842,120.652884 678.040576,129.833044 C677.106309,139.013204 675.237804,147.537511 672.435004,155.40622 C668.511084,166.459882 663.185845,176.248783 656.459126,184.773218 C649.732406,193.297652 641.837972,200.416853 632.775586,206.131034 C623.713201,211.845216 613.763411,216.201043 602.925919,219.198646 C592.088426,222.196249 580.690545,223.695029 568.731933,223.695029 C552.288841,223.695029 537.294088,220.978491 523.747222,215.545335 C510.200357,210.112179 498.568912,202.477773 488.85254,192.641887 C479.136168,182.806001 471.568722,171.003115 466.149976,157.232875 C460.73123,143.462635 458.021897,128.240659 458.021897,111.56649 C458.021897,95.0796722 460.684517,79.9513699 466.009837,66.1811297 C471.335156,52.4108895 478.902602,40.6548403 488.712401,30.9126296 C498.5222,21.1704188 510.340495,13.5828493 524.16764,8.14969325 C537.994785,2.71653725 553.409953,0 570.413604,0 C592.462295,0 611.801323,4.77735861 628.431268,14.3322192 C645.061213,23.8870797 658.234175,38.6875241 667.950547,58.7339962 L615.818733,80.3728369 C610.960547,68.7571241 604.654342,60.4201649 596.899929,55.3617093 C589.145517,50.3032537 580.31683,47.7740639 570.413604,47.7740639 C562.192058,47.7740639 554.718038,49.3196799 547.991319,52.4109583 C541.264599,55.5022367 535.518946,59.9049006 530.754186,65.6190819 C525.989427,71.3332632 522.252417,78.21828 519.543044,86.2743389 C516.833671,94.3303978 515.479004,103.323073 515.479004,113.252634 C515.479004,122.245444 516.64682,130.582403 518.982486,138.263761 C521.318153,145.94512 524.8216,152.595952 529.492933,158.216459 C534.164266,163.836965 539.956632,168.192792 546.870204,171.28407 C553.783777,174.375349 561.818349,175.920965 570.974161,175.920965 C576.392908,175.920965 581.624722,175.312086 586.669761,174.094309 C591.714801,172.876533 596.245926,170.909385 600.263272,168.192807 C604.280618,165.476229 607.597215,161.963466 610.213161,157.654411 C612.829108,153.345356 614.604188,148.099629 615.538454,141.917072 L570.413604,141.917072 L570.413604,99.2014385 Z M745.190649,87.6794584 L824.509485,87.6794584 L824.509485,5.90150201 L879.444085,5.90150201 L879.444085,217.793527 L824.509485,217.793527 L824.509485,130.395092 L745.190649,130.395092 L745.190649,217.793527 L690.25605,217.793527 L690.25605,5.90150201 L745.190649,5.90150201 L745.190649,87.6794584 Z" id="GOGH" fill="#FFD7D7"></path>
    </g>
</svg>