<?xml version="1.0" encoding="UTF-8"?>
<svg width="469px" height="209px" viewBox="0 0 469 209" version="1.1" xmlns="http://www.w3.org/2000/svg" xmlns:xlink="http://www.w3.org/1999/xlink">
    <!-- Generator: Sketch 49.2 (51160) - http://www.bohemiancoding.com/sketch -->
    <desc>Created with Sketch.</desc>
    <defs></defs>
    <g id="Mariogogh_Index" stroke="none" stroke-width="1" fill="none" fill-rule="evenodd">
        <path d="M61.1007285,0 L98.3777784,0 L98.3777784,208.519738 L61.1007285,208.519738 L61.1007285,94.4240322 L49.0487499,124.774614 L36.9967714,94.4240322 L36.9967714,208.519738 L0,208.519738 L0,0 L36.9967714,0 L49.0487499,50.0222551 L61.1007285,0 Z M174.213102,208.519738 L170.849759,171.705606 L153.472488,171.705606 L150.109145,208.519738 L112.832095,208.519738 L143.662738,0 L180.939788,0 L211.490152,208.519738 L174.213102,208.519738 Z M157.072261,134.610451 L167.722847,134.610451 L162.397554,75.5954305 L157.072261,134.610451 Z M318.681598,208.800762 L281.404548,208.800762 L260.944212,150.066765 L260.944212,208.800762 L223.667162,208.800762 L223.667162,0 L266.269505,0 C272.061958,0 277.574048,1.12408438 282.80594,3.37228686 C288.037833,5.62048935 292.568958,8.66488454 296.399451,12.5055638 C300.229944,16.346243 303.266265,20.8894174 305.508505,26.1352232 C307.750744,31.381029 308.871848,36.9077772 308.871848,42.7156336 L308.871848,91.0517453 C308.871848,98.5457536 307.190193,105.383934 303.826833,111.56649 C300.463474,117.749047 295.885636,122.713753 290.093183,126.460757 L318.681598,208.800762 Z M261.125681,37.9382272 L261.125681,96.3911995 C261.312534,97.8900011 261.873086,99.1077592 262.807352,100.04451 C263.741619,100.981261 264.956147,101.44963 266.450974,101.44963 C267.9458,101.44963 269.207041,100.981261 270.234734,100.04451 C271.262428,99.1077592 271.776267,97.8900011 271.776267,96.3911995 L271.776267,37.9382272 C271.776267,36.4394256 271.262428,35.1279938 270.234734,34.0038925 C269.207041,32.8797913 267.9458,32.3177491 266.450974,32.3177491 C264.956147,32.3177491 263.694906,32.8797913 262.667213,34.0038925 C261.63952,35.1279938 261.125681,36.4394256 261.125681,37.9382272 Z M331.506686,208.519738 L331.506686,0 L368.783736,0 L368.783736,208.519738 L331.506686,208.519738 Z M425.751485,0 C431.730791,0 437.336306,1.12408438 442.568199,3.37228686 C447.800092,5.62048935 452.331217,8.66488454 456.16171,12.5055638 C459.992203,16.346243 463.028523,20.8894174 465.270763,26.1352232 C467.513003,31.381029 468.634106,36.9077772 468.634106,42.7156336 L468.634106,166.085128 C468.634106,172.080335 467.513003,177.65392 465.270763,182.80605 C463.028523,187.958181 459.992203,192.407682 456.16171,196.154686 C452.331217,199.90169 447.800092,202.899248 442.568199,205.147451 C437.336306,207.395653 431.730791,208.519738 425.751485,208.519738 C419.959032,208.519738 414.493654,207.395653 409.355188,205.147451 C404.216722,202.899248 399.73231,199.90169 395.901817,196.154686 C392.071324,192.407682 389.035003,187.958181 386.792763,182.80605 C384.550524,177.65392 383.429421,172.080335 383.429421,166.085128 L383.429421,42.7156336 C383.429421,36.9077772 384.550524,31.381029 386.792763,26.1352232 C389.035003,20.8894174 392.071324,16.346243 395.901817,12.5055638 C399.73231,8.66488454 404.216722,5.62048935 409.355188,3.37228686 C414.493654,1.12408438 419.959032,0 425.751485,0 Z M431.114634,38.2192511 C431.114634,36.7204495 430.554083,35.4090177 429.432963,34.2849164 C428.311843,33.1608152 427.003889,32.598773 425.509063,32.598773 C424.014236,32.598773 422.752995,33.1608152 421.725302,34.2849164 C420.697609,35.4090177 420.18377,36.7204495 420.18377,38.2192511 L420.18377,171.143558 C420.18377,172.64236 420.697609,173.906955 421.725302,174.937381 C422.752995,175.967807 424.014236,176.483012 425.509063,176.483012 C427.003889,176.483012 428.311843,175.967807 429.432963,174.937381 C430.554083,173.906955 431.114634,172.64236 431.114634,171.143558 L431.114634,38.2192511 Z" id="MARIO" fill="#FFD7D7"></path>
    </g>
</svg>